<svg version="1.1" xmlns="http://www.w3.org/2000/svg" viewBox="0 0 501 587.5777087639995">
  <g stroke-linecap="round" transform="translate(11.379251770675182 10) rotate(0 170.28570992606 200)"><path d="M0.09 0.33 C74.44 0.71, 149.59 -0.3, 340.36 1.15 M0.36 -0.19 C107.6 0.01, 216.34 0.35, 340.74 0.65 M340.53 -0.54 C341.88 146.52, 340.76 293.75, 339.93 400.87 M341.11 0.12 C342.36 138.99, 341.67 276.65, 341.03 399.74 M341.65 398.68 C210.89 402.33, 82.47 401.73, -1.24 399.78 M340.66 399.63 C230.08 399.92, 119.76 399.8, -0.36 400.32 M-1.02 399.6 C-1.1 253.38, -1.45 109.61, 0.25 -0.6 M-0.24 400.13 C-2.39 277.62, -2.16 156.23, -0.27 0.21" stroke="#000000" stroke-width="1" fill="none"></path></g><g stroke-linecap="round" transform="translate(31.379251770675182 30) rotate(0 150.1435091444887 20)"><path d="M0 0 C0 0, 0 0, 0 0 M0 0 C0 0, 0 0, 0 0 M-0.26 6.4 C1.37 4.52, 3.01 2.64, 4.99 0.36 M-0.26 6.4 C1.7 4.14, 3.66 1.89, 4.99 0.36 M0.13 12.04 C3.55 8.11, 6.96 4.18, 10.63 -0.03 M0.13 12.04 C2.55 9.26, 4.97 6.48, 10.63 -0.03 M-0.13 18.44 C4.83 12.73, 9.8 7.02, 15.62 0.33 M-0.13 18.44 C5.04 12.5, 10.2 6.56, 15.62 0.33 M0.27 24.08 C5.71 17.82, 11.15 11.57, 21.26 -0.07 M0.27 24.08 C7.57 15.68, 14.87 7.29, 21.26 -0.07 M0 30.48 C5.93 23.66, 11.86 16.85, 26.25 0.29 M0 30.48 C8.19 21.07, 16.37 11.65, 26.25 0.29 M-0.26 36.88 C6.54 29.06, 13.33 21.24, 31.89 -0.1 M-0.26 36.88 C10.87 24.08, 22 11.28, 31.89 -0.1 M1.45 41.01 C14.82 25.63, 28.19 10.25, 36.88 0.26 M1.45 41.01 C10.04 31.13, 18.64 21.24, 36.88 0.26 M6.44 41.37 C16.83 29.42, 27.21 17.47, 42.52 -0.14 M6.44 41.37 C14.43 32.18, 22.41 22.99, 42.52 -0.14 M12.08 40.98 C24.39 26.82, 36.7 12.66, 47.51 0.22 M12.08 40.98 C22.5 28.99, 32.92 17, 47.51 0.22 M17.07 41.34 C25.66 31.45, 34.26 21.56, 53.15 -0.17 M17.07 41.34 C25.21 31.97, 33.34 22.61, 53.15 -0.17 M22.71 40.94 C35.38 26.37, 48.04 11.8, 58.14 0.19 M22.71 40.94 C33.22 28.85, 43.73 16.76, 58.14 0.19 M27.7 41.3 C36.92 30.7, 46.14 20.09, 63.78 -0.21 M27.7 41.3 C37.33 30.22, 46.96 19.15, 63.78 -0.21 M33.34 40.91 C43 29.8, 52.66 18.69, 68.77 0.15 M33.34 40.91 C45.27 27.19, 57.19 13.47, 68.77 0.15 M38.33 41.27 C51.93 25.62, 65.53 9.98, 74.41 -0.24 M38.33 41.27 C49.51 28.4, 60.69 15.54, 74.41 -0.24 M43.97 40.87 C51.12 32.65, 58.26 24.43, 79.4 0.12 M43.97 40.87 C56.61 26.33, 69.25 11.8, 79.4 0.12 M48.96 41.23 C59.17 29.48, 69.39 17.73, 85.04 -0.28 M48.96 41.23 C62.51 25.65, 76.06 10.06, 85.04 -0.28 M54.6 40.84 C65.14 28.72, 75.67 16.6, 90.03 0.08 M54.6 40.84 C67.21 26.34, 79.81 11.83, 90.03 0.08 M59.59 41.2 C70.36 28.8, 81.14 16.41, 95.67 -0.31 M59.59 41.2 C71.88 27.06, 84.18 12.91, 95.67 -0.31 M65.23 40.8 C77.85 26.29, 90.46 11.78, 100.66 0.05 M65.23 40.8 C79.02 24.94, 92.8 9.08, 100.66 0.05 M70.22 41.16 C84.35 24.9, 98.49 8.64, 106.3 -0.34 M70.22 41.16 C82.44 27.1, 94.67 13.04, 106.3 -0.34 M75.2 41.52 C83.07 32.48, 90.93 23.44, 111.29 0.02 M75.2 41.52 C88.49 26.24, 101.77 10.96, 111.29 0.02 M80.85 41.13 C94.11 25.87, 107.38 10.61, 116.27 0.38 M80.85 41.13 C93.58 26.49, 106.3 11.84, 116.27 0.38 M85.83 41.49 C99.07 26.27, 112.3 11.05, 121.92 -0.02 M85.83 41.49 C95.23 30.68, 104.63 19.87, 121.92 -0.02 M91.48 41.1 C102.19 28.77, 112.91 16.44, 126.91 0.34 M91.48 41.1 C100.27 30.99, 109.05 20.88, 126.91 0.34 M96.46 41.46 C108.38 27.75, 120.29 14.05, 132.55 -0.05 M96.46 41.46 C106.92 29.42, 117.38 17.39, 132.55 -0.05 M102.11 41.06 C111.87 29.84, 121.62 18.61, 137.54 0.31 M102.11 41.06 C112.99 28.55, 123.87 16.03, 137.54 0.31 M107.09 41.42 C117.18 29.81, 127.27 18.21, 143.18 -0.09 M107.09 41.42 C119.25 27.44, 131.4 13.46, 143.18 -0.09 M112.74 41.03 C121.12 31.39, 129.5 21.75, 148.17 0.27 M112.74 41.03 C123.18 29.02, 133.62 17.01, 148.17 0.27 M117.73 41.39 C126.03 31.83, 134.34 22.27, 153.81 -0.12 M117.73 41.39 C129.9 27.38, 142.08 13.37, 153.81 -0.12 M123.37 40.99 C136.57 25.8, 149.78 10.61, 158.8 0.24 M123.37 40.99 C131.36 31.8, 139.34 22.61, 158.8 0.24 M128.36 41.35 C137.05 31.35, 145.75 21.35, 164.44 -0.16 M128.36 41.35 C138.63 29.53, 148.91 17.71, 164.44 -0.16 M134 40.96 C145.15 28.13, 156.31 15.29, 169.43 0.2 M134 40.96 C147.11 25.87, 160.23 10.78, 169.43 0.2 M138.99 41.32 C146.72 32.42, 154.46 23.52, 175.07 -0.19 M138.99 41.32 C147.19 31.88, 155.4 22.43, 175.07 -0.19 M144.63 40.92 C156.58 27.17, 168.53 13.42, 180.06 0.17 M144.63 40.92 C153.69 30.49, 162.76 20.07, 180.06 0.17 M149.62 41.28 C160.33 28.96, 171.04 16.64, 185.7 -0.23 M149.62 41.28 C159.38 30.04, 169.15 18.81, 185.7 -0.23 M155.26 40.89 C167.96 26.27, 180.67 11.66, 190.69 0.13 M155.26 40.89 C164.68 30.05, 174.1 19.22, 190.69 0.13 M160.25 41.25 C170.3 29.68, 180.35 18.12, 196.33 -0.26 M160.25 41.25 C173.82 25.64, 187.39 10.03, 196.33 -0.26 M165.89 40.85 C177.95 26.98, 190.02 13.1, 201.32 0.1 M165.89 40.85 C174.38 31.08, 182.87 21.31, 201.32 0.1 M170.88 41.21 C185.07 24.88, 199.26 8.56, 206.96 -0.3 M170.88 41.21 C183.91 26.22, 196.94 11.23, 206.96 -0.3 M176.52 40.82 C186.75 29.05, 196.99 17.27, 211.95 0.06 M176.52 40.82 C186.2 29.68, 195.88 18.55, 211.95 0.06 M181.51 41.18 C193.01 27.94, 204.52 14.7, 217.59 -0.33 M181.51 41.18 C192.32 28.73, 203.14 16.29, 217.59 -0.33 M187.15 40.78 C196.12 30.47, 205.09 20.15, 222.58 0.03 M187.15 40.78 C198.43 27.81, 209.71 14.83, 222.58 0.03 M192.14 41.14 C205.73 25.51, 219.31 9.88, 228.22 -0.36 M192.14 41.14 C203.77 27.77, 215.4 14.39, 228.22 -0.36 M197.12 41.5 C208.91 27.94, 220.7 14.38, 233.21 0 M197.12 41.5 C210.96 25.58, 224.8 9.66, 233.21 0 M202.77 41.11 C214.51 27.6, 226.26 14.09, 238.19 0.36 M202.77 41.11 C210.38 32.35, 218 23.58, 238.19 0.36 M207.75 41.47 C216.65 31.24, 225.55 21, 243.84 -0.04 M207.75 41.47 C219.78 27.64, 231.81 13.8, 243.84 -0.04 M213.4 41.08 C227.31 25.07, 241.22 9.07, 248.82 0.32 M213.4 41.08 C221.22 32.08, 229.04 23.08, 248.82 0.32 M218.38 41.44 C232.58 25.11, 246.77 8.78, 254.47 -0.07 M218.38 41.44 C228.79 29.47, 239.19 17.5, 254.47 -0.07 M224.03 41.04 C231.56 32.38, 239.08 23.72, 259.45 0.29 M224.03 41.04 C232.47 31.33, 240.91 21.62, 259.45 0.29 M229.01 41.4 C243.15 25.14, 257.28 8.89, 265.1 -0.11 M229.01 41.4 C237.16 32.03, 245.31 22.65, 265.1 -0.11 M234.66 41.01 C244.84 29.29, 255.03 17.57, 270.08 0.25 M234.66 41.01 C242.55 31.93, 250.44 22.85, 270.08 0.25 M239.64 41.37 C250.82 28.51, 262 15.65, 275.73 -0.14 M239.64 41.37 C253.32 25.63, 267 9.9, 275.73 -0.14 M245.29 40.97 C257.97 26.38, 270.65 11.8, 280.71 0.22 M245.29 40.97 C258.95 25.25, 272.62 9.53, 280.71 0.22 M250.27 41.33 C259.64 30.56, 269.01 19.78, 286.36 -0.18 M250.27 41.33 C258.84 31.48, 267.41 21.62, 286.36 -0.18 M255.92 40.94 C263.27 32.48, 270.62 24.02, 291.34 0.18 M255.92 40.94 C269.9 24.85, 283.89 8.76, 291.34 0.18 M260.9 41.3 C275.23 24.82, 289.56 8.34, 296.99 -0.21 M260.9 41.3 C273.42 26.9, 285.94 12.5, 296.99 -0.21 M266.55 40.9 C275.72 30.35, 284.9 19.79, 301.32 0.9 M266.55 40.9 C279.55 25.95, 292.55 10.99, 301.32 0.9 M271.53 41.26 C281.03 30.34, 290.52 19.42, 301.06 7.3 M271.53 41.26 C280.67 30.75, 289.81 20.24, 301.06 7.3 M277.18 40.87 C286.85 29.74, 296.52 18.61, 301.45 12.94 M277.18 40.87 C284.54 32.4, 291.9 23.93, 301.45 12.94 M282.16 41.23 C287.42 35.18, 292.68 29.13, 301.19 19.34 M282.16 41.23 C289.46 32.84, 296.75 24.44, 301.19 19.34 M287.81 40.83 C292.3 35.66, 296.8 30.49, 301.58 24.99 M287.81 40.83 C290.83 37.36, 293.85 33.88, 301.58 24.99 M292.79 41.19 C295.77 37.78, 298.74 34.36, 301.32 31.38 M292.79 41.19 C295.21 38.41, 297.63 35.63, 301.32 31.38 M298.44 40.8 C298.98 40.18, 299.52 39.55, 301.06 37.78 M298.44 40.8 C299 40.15, 299.56 39.5, 301.06 37.78" stroke="#15aabf" stroke-width="0.5" fill="none"></path><path d="M0 0 C70.21 0, 140.42 0, 300.29 0 M0 0 C75.09 0, 150.19 0, 300.29 0 M300.29 0 C300.29 12.35, 300.29 24.69, 300.29 40 M300.29 0 C300.29 14.5, 300.29 28.99, 300.29 40 M300.29 40 C207.46 40, 114.64 40, 0 40 M300.29 40 C199.19 40, 98.09 40, 0 40 M0 40 C0 27.01, 0 14.01, 0 0 M0 40 C0 24.54, 0 9.07, 0 0" stroke="#000000" stroke-width="1" fill="none"></path></g><g stroke-linecap="round" transform="translate(70.50376131758094 90) rotate(0 110 9.91306365966409)"><path d="M0 0 C0 0, 0 0, 0 0 M0 0 C0 0, 0 0, 0 0 M-0.26 6.4 C1.58 4.28, 3.42 2.17, 4.99 0.36 M-0.26 6.4 C1.07 4.87, 2.39 3.35, 4.99 0.36 M0.13 12.04 C3.24 8.46, 6.35 4.89, 10.63 -0.03 M0.13 12.04 C3.27 8.43, 6.41 4.82, 10.63 -0.03 M-0.13 18.44 C3.34 14.44, 6.82 10.45, 15.62 0.33 M-0.13 18.44 C5.72 11.71, 11.56 4.99, 15.62 0.33 M2.23 21.82 C7.51 15.75, 12.78 9.69, 21.26 -0.07 M2.23 21.82 C6.68 16.7, 11.13 11.58, 21.26 -0.07 M7.88 21.42 C13.8 14.6, 19.73 7.79, 26.25 0.29 M7.88 21.42 C11.87 16.83, 15.86 12.24, 26.25 0.29 M12.86 21.78 C18.2 15.64, 23.54 9.5, 31.89 -0.1 M12.86 21.78 C17.71 16.21, 22.55 10.64, 31.89 -0.1 M17.85 22.14 C23.6 15.53, 29.36 8.91, 36.88 0.26 M17.85 22.14 C23.92 15.17, 29.98 8.19, 36.88 0.26 M23.49 21.75 C29.79 14.51, 36.08 7.27, 42.52 -0.14 M23.49 21.75 C28.46 16.04, 33.42 10.33, 42.52 -0.14 M28.48 22.11 C33.46 16.38, 38.44 10.65, 47.51 0.22 M28.48 22.11 C33.18 16.71, 37.87 11.31, 47.51 0.22 M34.12 21.71 C39.98 14.98, 45.83 8.25, 53.15 -0.17 M34.12 21.71 C41.65 13.05, 49.18 4.39, 53.15 -0.17 M39.11 22.07 C45.94 14.21, 52.78 6.36, 58.14 0.19 M39.11 22.07 C43.23 17.33, 47.36 12.59, 58.14 0.19 M44.75 21.68 C51.37 14.07, 57.99 6.46, 63.78 -0.21 M44.75 21.68 C49.44 16.29, 54.13 10.89, 63.78 -0.21 M49.74 22.04 C53.72 17.47, 57.69 12.89, 68.77 0.15 M49.74 22.04 C55.21 15.75, 60.67 9.47, 68.77 0.15 M55.38 21.65 C60.02 16.31, 64.66 10.97, 74.41 -0.24 M55.38 21.65 C60.02 16.31, 64.66 10.98, 74.41 -0.24 M60.37 22.01 C65.74 15.83, 71.11 9.66, 79.4 0.12 M60.37 22.01 C67.24 14.1, 74.11 6.2, 79.4 0.12 M66.02 21.61 C70.67 16.26, 75.32 10.9, 85.04 -0.28 M66.02 21.61 C71 15.88, 75.98 10.14, 85.04 -0.28 M71 21.97 C76.82 15.28, 82.63 8.59, 90.03 0.08 M71 21.97 C78.32 13.55, 85.64 5.14, 90.03 0.08 M76.65 21.58 C81.51 15.98, 86.37 10.39, 95.67 -0.31 M76.65 21.58 C80.82 16.77, 85 11.96, 95.67 -0.31 M81.63 21.94 C86.63 16.18, 91.64 10.43, 100.66 0.05 M81.63 21.94 C88.25 14.32, 94.87 6.7, 100.66 0.05 M87.28 21.54 C91.8 16.34, 96.32 11.14, 106.3 -0.34 M87.28 21.54 C92.57 15.45, 97.87 9.35, 106.3 -0.34 M92.26 21.9 C99.75 13.29, 107.23 4.68, 111.29 0.02 M92.26 21.9 C97.69 15.66, 103.11 9.42, 111.29 0.02 M97.91 21.51 C101.75 17.09, 105.59 12.67, 116.27 0.38 M97.91 21.51 C102.4 16.34, 106.89 11.17, 116.27 0.38 M102.89 21.87 C110.37 13.27, 117.84 4.67, 121.92 -0.02 M102.89 21.87 C108.1 15.88, 113.3 9.89, 121.92 -0.02 M108.54 21.47 C113.01 16.33, 117.48 11.19, 126.91 0.34 M108.54 21.47 C115.28 13.72, 122.02 5.96, 126.91 0.34 M113.52 21.83 C117.58 17.16, 121.64 12.5, 132.55 -0.05 M113.52 21.83 C117.99 16.69, 122.46 11.55, 132.55 -0.05 M119.17 21.44 C124.14 15.71, 129.12 9.99, 137.54 0.31 M119.17 21.44 C125.4 14.26, 131.64 7.09, 137.54 0.31 M124.15 21.8 C129.16 16.04, 134.17 10.28, 143.18 -0.09 M124.15 21.8 C130.51 14.49, 136.86 7.18, 143.18 -0.09 M129.14 22.16 C134.43 16.07, 139.72 9.99, 148.17 0.27 M129.14 22.16 C134.82 15.62, 140.51 9.08, 148.17 0.27 M134.78 21.76 C138.72 17.23, 142.66 12.7, 153.81 -0.12 M134.78 21.76 C142.01 13.45, 149.24 5.14, 153.81 -0.12 M139.77 22.12 C145.62 15.39, 151.47 8.66, 158.8 0.24 M139.77 22.12 C144.06 17.18, 148.36 12.24, 158.8 0.24 M145.41 21.73 C152.37 13.73, 159.32 5.73, 164.44 -0.16 M145.41 21.73 C149.7 16.8, 153.98 11.87, 164.44 -0.16 M150.4 22.09 C155.31 16.44, 160.22 10.79, 169.43 0.2 M150.4 22.09 C156.96 14.54, 163.52 7, 169.43 0.2 M156.04 21.69 C162.05 14.78, 168.06 7.87, 175.07 -0.19 M156.04 21.69 C163.01 13.68, 169.98 5.66, 175.07 -0.19 M161.03 22.05 C166.46 15.81, 171.88 9.57, 180.06 0.17 M161.03 22.05 C167.2 14.96, 173.37 7.86, 180.06 0.17 M166.67 21.66 C172.21 15.29, 177.76 8.91, 185.7 -0.23 M166.67 21.66 C173.21 14.15, 179.74 6.63, 185.7 -0.23 M171.66 22.02 C175.47 17.64, 179.27 13.26, 190.69 0.13 M171.66 22.02 C176.91 15.98, 182.17 9.93, 190.69 0.13 M177.3 21.63 C184.56 13.28, 191.81 4.94, 196.33 -0.26 M177.3 21.63 C183.78 14.18, 190.25 6.73, 196.33 -0.26 M182.29 21.99 C187.44 16.07, 192.58 10.15, 201.32 0.1 M182.29 21.99 C189.07 14.19, 195.84 6.4, 201.32 0.1 M187.93 21.59 C194.24 14.33, 200.56 7.07, 206.96 -0.3 M187.93 21.59 C195.25 13.17, 202.57 4.76, 206.96 -0.3 M192.92 21.95 C197.11 17.13, 201.3 12.31, 211.95 0.06 M192.92 21.95 C199.84 13.99, 206.77 6.02, 211.95 0.06 M198.56 21.56 C205.12 14.01, 211.68 6.47, 217.59 -0.33 M198.56 21.56 C205.18 13.95, 211.8 6.33, 217.59 -0.33 M203.55 21.92 C207.62 17.24, 211.68 12.56, 221.26 1.54 M203.55 21.92 C209.62 14.94, 215.69 7.96, 221.26 1.54 M209.19 21.52 C212.66 17.53, 216.13 13.54, 221.66 7.18 M209.19 21.52 C213.49 16.58, 217.79 11.63, 221.66 7.18 M214.18 21.88 C216.6 19.1, 219.02 16.32, 221.4 13.58 M214.18 21.88 C216.92 18.73, 219.65 15.59, 221.4 13.58 M-0.01 19.82 C-0.01 19.82, -0.01 19.82, -0.01 19.82 M-0.01 19.82 C-0.01 19.82, -0.01 19.82, -0.01 19.82 M6.39 20.08 C5.01 18.88, 3.63 17.68, 0.35 14.83 M6.39 20.08 C5.16 19.01, 3.92 17.94, 0.35 14.83 M12.04 19.69 C9.35 17.35, 6.66 15.02, -0.04 9.19 M12.04 19.69 C8.17 16.32, 4.3 12.96, -0.04 9.19 M18.43 19.95 C13.71 15.84, 8.98 11.74, 0.32 4.2 M18.43 19.95 C11.31 13.76, 4.19 7.57, 0.32 4.2 M24.08 19.56 C18.68 14.86, 13.27 10.17, 0.68 -0.78 M24.08 19.56 C15.94 12.48, 7.8 5.4, 0.68 -0.78 M30.47 19.82 C24.97 15.03, 19.46 10.24, 7.08 -0.52 M30.47 19.82 C21.98 12.43, 13.48 5.04, 7.08 -0.52 M36.87 20.08 C28.28 12.61, 19.69 5.14, 12.72 -0.92 M36.87 20.08 C29.45 13.62, 22.02 7.17, 12.72 -0.92 M42.51 19.68 C37.51 15.33, 32.5 10.97, 19.12 -0.65 M42.51 19.68 C33.7 12.02, 24.89 4.36, 19.12 -0.65 M48.91 19.94 C40.79 12.88, 32.66 5.82, 24.76 -1.05 M48.91 19.94 C40.88 12.96, 32.84 5.97, 24.76 -1.05 M54.56 19.55 C47.19 13.15, 39.83 6.75, 31.16 -0.79 M54.56 19.55 C46.61 12.64, 38.66 5.74, 31.16 -0.79 M60.95 19.81 C52.32 12.3, 43.68 4.79, 37.56 -0.53 M60.95 19.81 C56.23 15.71, 51.52 11.61, 37.56 -0.53 M67.35 20.07 C59.83 13.54, 52.32 7.01, 43.2 -0.92 M67.35 20.07 C62.49 15.85, 57.63 11.62, 43.2 -0.92 M72.99 19.68 C65.84 13.46, 58.69 7.24, 49.6 -0.66 M72.99 19.68 C65.14 12.85, 57.29 6.03, 49.6 -0.66 M79.39 19.94 C73.75 15.03, 68.1 10.13, 55.24 -1.05 M79.39 19.94 C70.82 12.49, 62.25 5.04, 55.24 -1.05 M85.04 19.55 C79.08 14.37, 73.13 9.19, 61.64 -0.79 M85.04 19.55 C75.69 11.42, 66.34 3.29, 61.64 -0.79 M91.43 19.81 C82.81 12.31, 74.18 4.81, 68.04 -0.53 M91.43 19.81 C85.87 14.97, 80.32 10.14, 68.04 -0.53 M97.83 20.07 C88.65 12.09, 79.48 4.11, 73.68 -0.93 M97.83 20.07 C90.53 13.72, 83.22 7.37, 73.68 -0.93 M103.47 19.67 C97.42 14.41, 91.37 9.15, 80.08 -0.66 M103.47 19.67 C95.75 12.96, 88.03 6.25, 80.08 -0.66 M109.87 19.94 C102.55 13.57, 95.24 7.21, 85.72 -1.06 M109.87 19.94 C100.28 11.6, 90.7 3.27, 85.72 -1.06 M115.51 19.54 C108.43 13.39, 101.35 7.23, 92.12 -0.8 M115.51 19.54 C107.16 12.28, 98.81 5.02, 92.12 -0.8 M121.91 19.8 C114.88 13.69, 107.85 7.57, 98.52 -0.54 M121.91 19.8 C115.37 14.12, 108.84 8.43, 98.52 -0.54 M128.31 20.06 C119.71 12.59, 111.12 5.12, 104.16 -0.93 M128.31 20.06 C121.39 14.05, 114.48 8.04, 104.16 -0.93 M133.95 19.67 C126.79 13.44, 119.63 7.22, 110.56 -0.67 M133.95 19.67 C124.83 11.74, 115.7 3.8, 110.56 -0.67 M140.35 19.93 C132.39 13.01, 124.42 6.08, 116.2 -1.06 M140.35 19.93 C132.37 12.99, 124.39 6.06, 116.2 -1.06 M145.99 19.54 C138.76 13.25, 131.53 6.97, 122.6 -0.8 M145.99 19.54 C141.02 15.21, 136.04 10.88, 122.6 -0.8 M152.39 19.8 C143.22 11.83, 134.05 3.85, 129 -0.54 M152.39 19.8 C144.32 12.78, 136.26 5.77, 129 -0.54 M158.79 20.06 C150.21 12.6, 141.63 5.14, 134.64 -0.94 M158.79 20.06 C152.15 14.29, 145.51 8.51, 134.64 -0.94 M164.43 19.66 C155.86 12.21, 147.29 4.76, 141.04 -0.67 M164.43 19.66 C159.07 15, 153.71 10.35, 141.04 -0.67 M170.83 19.93 C162.46 12.65, 154.09 5.37, 146.68 -1.07 M170.83 19.93 C162.42 12.61, 154.01 5.3, 146.68 -1.07 M176.47 19.53 C168.68 12.75, 160.88 5.98, 153.08 -0.81 M176.47 19.53 C168.83 12.89, 161.2 6.25, 153.08 -0.81 M182.87 19.79 C177.22 14.88, 171.56 9.96, 159.48 -0.55 M182.87 19.79 C177.07 14.75, 171.28 9.71, 159.48 -0.55 M189.27 20.05 C183.74 15.25, 178.21 10.44, 165.12 -0.94 M189.27 20.05 C183.86 15.35, 178.45 10.65, 165.12 -0.94 M194.91 19.66 C188.95 14.48, 182.98 9.29, 171.52 -0.68 M194.91 19.66 C189.48 14.93, 184.04 10.21, 171.52 -0.68 M201.31 19.92 C195.37 14.76, 189.43 9.59, 177.16 -1.07 M201.31 19.92 C192.8 12.52, 184.28 5.12, 177.16 -1.07 M206.95 19.53 C200.94 14.3, 194.93 9.07, 183.56 -0.81 M206.95 19.53 C202.17 15.37, 197.38 11.2, 183.56 -0.81 M213.35 19.79 C207.88 15.04, 202.42 10.28, 189.96 -0.55 M213.35 19.79 C204.31 11.93, 195.27 4.07, 189.96 -0.55 M219.75 20.05 C210.69 12.17, 201.63 4.3, 195.6 -0.94 M219.75 20.05 C212.24 13.52, 204.73 7, 195.6 -0.94 M222.37 17.03 C216.32 11.77, 210.27 6.51, 202 -0.68 M222.37 17.03 C217.4 12.71, 212.43 8.39, 202 -0.68 M222.73 12.04 C216.81 6.89, 210.88 1.74, 207.64 -1.08 M222.73 12.04 C217.58 7.56, 212.43 3.08, 207.64 -1.08 M222.34 6.4 C219.04 3.53, 215.74 0.67, 214.04 -0.82 M222.34 6.4 C219.95 4.33, 217.57 2.26, 214.04 -0.82" stroke="#fd7e14" stroke-width="0.5" fill="none"></path><path d="M0 0 C64.72 0, 129.44 0, 220 0 M0 0 C59.86 0, 119.73 0, 220 0 M220 0 C220 4.03, 220 8.06, 220 19.83 M220 0 C220 6.08, 220 12.17, 220 19.83 M220 19.83 C134.63 19.83, 49.26 19.83, 0 19.83 M220 19.83 C152.14 19.83, 84.29 19.83, 0 19.83 M0 19.83 C0 13.44, 0 7.05, 0 0 M0 19.83 C0 12.33, 0 4.84, 0 0" stroke="#000000" stroke-width="1" fill="none"></path></g><g stroke-linecap="round" transform="translate(70.50376131758094 116) rotate(0 40.29200509463408 10)"><path d="M0 0 C0 0, 0 0, 0 0 M0 0 C0 0, 0 0, 0 0 M-0.26 6.4 C0.81 5.17, 1.88 3.93, 4.99 0.36 M-0.26 6.4 C1.11 4.82, 2.48 3.24, 4.99 0.36 M0.13 12.04 C3.19 8.53, 6.24 5.02, 10.63 -0.03 M0.13 12.04 C3.82 7.8, 7.5 3.57, 10.63 -0.03 M-0.13 18.44 C3.65 14.09, 7.43 9.75, 15.62 0.33 M-0.13 18.44 C3.78 13.94, 7.7 9.44, 15.62 0.33 M2.23 21.82 C8.9 14.15, 15.56 6.49, 21.26 -0.07 M2.23 21.82 C6.2 17.25, 10.17 12.69, 21.26 -0.07 M7.22 22.18 C13.38 15.1, 19.53 8.02, 26.25 0.29 M7.22 22.18 C13.19 15.31, 19.17 8.44, 26.25 0.29 M12.86 21.78 C18.6 15.18, 24.34 8.58, 31.89 -0.1 M12.86 21.78 C17.4 16.56, 21.94 11.34, 31.89 -0.1 M17.85 22.14 C23.64 15.48, 29.43 8.82, 36.88 0.26 M17.85 22.14 C21.84 17.55, 25.83 12.96, 36.88 0.26 M23.49 21.75 C28.56 15.92, 33.63 10.08, 42.52 -0.14 M23.49 21.75 C30.56 13.63, 37.62 5.5, 42.52 -0.14 M28.48 22.11 C33.73 16.08, 38.97 10.04, 47.51 0.22 M28.48 22.11 C35.03 14.57, 41.59 7.03, 47.51 0.22 M34.12 21.71 C38.12 17.12, 42.11 12.53, 53.15 -0.17 M34.12 21.71 C41.6 13.12, 49.07 4.53, 53.15 -0.17 M39.11 22.07 C46.24 13.88, 53.36 5.68, 58.14 0.19 M39.11 22.07 C46.39 13.71, 53.66 5.34, 58.14 0.19 M44.75 21.68 C51.23 14.23, 57.71 6.77, 63.78 -0.21 M44.75 21.68 C51.34 14.11, 57.92 6.54, 63.78 -0.21 M49.74 22.04 C57 13.69, 64.26 5.34, 68.77 0.15 M49.74 22.04 C54.39 16.69, 59.04 11.35, 68.77 0.15 M55.38 21.65 C61.31 14.83, 67.23 8.02, 74.41 -0.24 M55.38 21.65 C61.66 14.43, 67.93 7.21, 74.41 -0.24 M60.37 22.01 C66.49 14.97, 72.6 7.94, 79.4 0.12 M60.37 22.01 C66.22 15.28, 72.07 8.55, 79.4 0.12 M66.02 21.61 C69.74 17.32, 73.47 13.04, 83.07 1.99 M66.02 21.61 C71.12 15.74, 76.22 9.87, 83.07 1.99 M71 21.97 C74.1 18.41, 77.19 14.85, 82.81 8.39 M71 21.97 C73.42 19.18, 75.85 16.4, 82.81 8.39 M76.65 21.58 C77.97 20.05, 79.3 18.52, 83.21 14.03 M76.65 21.58 C78.39 19.57, 80.14 17.56, 83.21 14.03 M-0.09 19.92 C-0.09 19.92, -0.09 19.92, -0.09 19.92 M-0.09 19.92 C-0.09 19.92, -0.09 19.92, -0.09 19.92 M6.31 20.18 C4.82 18.89, 3.33 17.6, 0.27 14.93 M6.31 20.18 C4.51 18.62, 2.71 17.06, 0.27 14.93 M11.95 19.79 C9.07 17.28, 6.18 14.78, -0.13 9.29 M11.95 19.79 C8.11 16.45, 4.27 13.11, -0.13 9.29 M18.35 20.05 C11.49 14.09, 4.63 8.12, 0.23 4.3 M18.35 20.05 C12.59 15.04, 6.82 10.03, 0.23 4.3 M24.74 20.31 C19.2 15.49, 13.65 10.67, 0.59 -0.68 M24.74 20.31 C17.95 14.4, 11.16 8.5, 0.59 -0.68 M30.39 19.92 C24.06 14.42, 17.73 8.92, 6.99 -0.42 M30.39 19.92 C23.19 13.66, 16 7.41, 6.99 -0.42 M36.79 20.18 C28.76 13.2, 20.74 6.23, 12.64 -0.82 M36.79 20.18 C27.73 12.31, 18.68 4.44, 12.64 -0.82 M42.43 19.78 C36.89 14.97, 31.35 10.15, 19.03 -0.56 M42.43 19.78 C35.36 13.63, 28.28 7.49, 19.03 -0.56 M48.83 20.04 C43.19 15.14, 37.55 10.24, 24.68 -0.95 M48.83 20.04 C41.27 13.48, 33.71 6.91, 24.68 -0.95 M55.22 20.31 C49.51 15.34, 43.79 10.37, 31.07 -0.69 M55.22 20.31 C45.68 12.01, 36.14 3.71, 31.07 -0.69 M60.87 19.91 C54.69 14.54, 48.52 9.18, 37.47 -0.43 M60.87 19.91 C54.63 14.49, 48.4 9.07, 37.47 -0.43 M67.27 20.17 C60.68 14.45, 54.1 8.73, 43.11 -0.82 M67.27 20.17 C59.17 13.14, 51.08 6.1, 43.11 -0.82 M72.91 19.78 C63.59 11.68, 54.28 3.58, 49.51 -0.56 M72.91 19.78 C66.76 14.44, 60.62 9.09, 49.51 -0.56 M79.31 20.04 C69.86 11.83, 60.41 3.62, 55.16 -0.95 M79.31 20.04 C71.41 13.17, 63.51 6.3, 55.16 -0.95 M82.69 17.68 C77.3 13, 71.92 8.32, 61.55 -0.69 M82.69 17.68 C74.56 10.61, 66.43 3.54, 61.55 -0.69 M82.29 12.03 C78.24 8.51, 74.2 5, 67.95 -0.43 M82.29 12.03 C78.95 9.13, 75.61 6.23, 67.95 -0.43 M82.65 7.05 C79.98 4.72, 77.3 2.4, 73.59 -0.83 M82.65 7.05 C79.28 4.12, 75.91 1.19, 73.59 -0.83" stroke="#fd7e14" stroke-width="0.5" fill="none"></path><path d="M0 0 C24.73 0, 49.45 0, 80.58 0 M0 0 C28.56 0, 57.12 0, 80.58 0 M80.58 0 C80.58 5.92, 80.58 11.84, 80.58 20 M80.58 0 C80.58 7.91, 80.58 15.83, 80.58 20 M80.58 20 C49.87 20, 19.16 20, 0 20 M80.58 20 C55.33 20, 30.07 20, 0 20 M0 20 C0 15.8, 0 11.6, 0 0 M0 20 C0 14.86, 0 9.72, 0 0" stroke="#000000" stroke-width="1" fill="none"></path></g><g transform="translate(11.651644383258827 430.25449959253865) rotate(0 167.63635808771278 -2.772718949751379)" stroke="none"><path fill="transparent" d="M 0,-1.56 Q 0,-1.56 2.09,-1.53 4.18,-1.51 6.68,-1.69 9.18,-1.87 12.40,-1.94 15.62,-2.01 19.49,-2.03 23.37,-2.06 27.31,-2.06 31.25,-2.07 34.39,-2.07 37.53,-2.07 41.13,-2.27 44.73,-2.48 48.17,-2.56 51.62,-2.65 54.13,-2.69 56.64,-2.72 59.38,-2.74 62.12,-2.75 66.01,-2.76 69.89,-2.76 74.05,-2.76 78.21,-2.76 82.91,-2.76 87.60,-2.77 92.31,-2.77 97.03,-2.77 101.96,-2.76 106.89,-2.76 110.45,-2.76 114.01,-2.76 116.56,-2.76 119.12,-2.76 121.12,-2.59 123.12,-2.42 124.84,-2.19 126.55,-1.96 128.59,-1.99 130.63,-2.02 141.53,-2.33 152.43,-2.64 163.39,-2.75 174.35,-2.85 183.58,-3.09 192.82,-3.32 202.40,-3.61 211.97,-3.91 220.83,-4.44 229.69,-4.97 235.99,-5.19 242.29,-5.41 247.24,-5.71 252.20,-6.01 256.63,-6.13 261.07,-6.25 264.59,-6.51 268.10,-6.77 271.05,-7.08 274.00,-7.40 276.34,-7.53 278.69,-7.67 280.31,-7.82 281.93,-7.97 283.25,-8.10 284.58,-8.23 285.76,-8.11 286.94,-7.99 288.58,-7.72 290.23,-7.44 292.00,-7.10 293.76,-6.76 295.65,-6.58 297.53,-6.40 299.19,-6.37 300.84,-6.33 301.97,-6.39 303.09,-6.44 304.19,-6.50 305.29,-6.56 307.17,-6.68 309.06,-6.79 310.32,-6.81 311.59,-6.84 312.97,-6.64 314.36,-6.44 315.82,-6.41 317.28,-6.38 318.68,-6.35 320.08,-6.31 321.31,-6.31 322.54,-6.32 323.69,-6.33 324.84,-6.34 326.91,-6.15 328.98,-5.95 330.35,-5.36 331.73,-4.78 333.51,-4.25 335.30,-3.73 335.71,-3.52 336.13,-3.31 336.45,-2.97 336.78,-2.64 336.98,-2.22 337.18,-1.81 337.24,-1.34 337.30,-0.88 337.21,-0.43 337.12,0.02 336.88,0.42 336.65,0.82 336.30,1.13 335.95,1.44 335.52,1.62 335.09,1.80 334.63,1.83 334.17,1.86 333.72,1.75 333.27,1.63 332.88,1.38 332.49,1.12 332.20,0.76 331.91,0.39 331.76,-0.04 331.60,-0.48 331.59,-0.94 331.58,-1.40 331.72,-1.85 331.87,-2.29 332.14,-2.67 332.42,-3.04 332.80,-3.31 333.18,-3.58 333.62,-3.71 334.07,-3.84 334.53,-3.82 335.00,-3.81 335.43,-3.64 335.87,-3.48 336.23,-3.18 336.59,-2.89 336.83,-2.49 337.08,-2.10 337.19,-1.65 337.29,-1.19 337.25,-0.73 337.21,-0.27 337.02,0.15 336.83,0.57 336.52,0.92 336.21,1.26 335.80,1.48 335.39,1.71 334.93,1.79 334.48,1.87 334.02,1.81 333.56,1.74 333.56,1.74 333.56,1.74 331.53,1.05 329.51,0.37 328.53,-0.05 327.54,-0.48 326.19,-0.70 324.83,-0.93 323.67,-0.95 322.51,-0.97 321.27,-0.98 320.02,-1.00 317.50,-1.08 314.99,-1.15 313.28,-1.52 311.57,-1.88 310.31,-1.91 309.05,-1.93 307.15,-2.06 305.24,-2.19 304.12,-2.27 303.00,-2.35 301.85,-2.46 300.71,-2.56 298.99,-2.65 297.27,-2.74 295.16,-2.84 293.04,-2.95 291.30,-3.27 289.55,-3.60 287.09,-4.19 284.63,-4.78 283.33,-4.86 282.04,-4.94 280.44,-4.97 278.84,-5.01 276.57,-4.87 274.29,-4.73 271.30,-4.40 268.31,-4.08 264.73,-3.80 261.15,-3.53 256.76,-3.39 252.37,-3.25 247.38,-2.93 242.40,-2.60 236.13,-2.35 229.87,-2.09 220.97,-1.51 212.07,-0.93 202.49,-0.57 192.92,-0.20 183.66,0.11 174.40,0.44 163.48,0.67 152.56,0.90 141.51,1.38 130.46,1.86 128.23,1.47 126.00,1.08 124.41,0.72 122.82,0.35 120.97,0.10 119.12,-0.14 116.56,-0.13 114.01,-0.13 110.45,-0.13 106.89,-0.13 101.96,-0.13 97.03,-0.13 92.31,-0.13 87.60,-0.13 82.91,-0.13 78.21,-0.13 74.05,-0.12 69.90,-0.12 66.02,-0.11 62.14,-0.10 59.41,-0.08 56.68,-0.06 54.19,-0.02 51.69,0.01 48.29,0.10 44.88,0.19 41.21,0.41 37.54,0.63 34.40,0.65 31.27,0.66 27.33,0.69 23.39,0.71 19.55,0.77 15.70,0.82 12.56,0.92 9.42,1.03 6.80,1.27 4.18,1.51 2.09,1.53 0,1.56 -0.18,1.54 -0.37,1.51 -0.55,1.45 -0.72,1.38 -0.88,1.27 -1.03,1.17 -1.16,1.03 -1.28,0.88 -1.37,0.72 -1.46,0.55 -1.50,0.37 -1.55,0.18 -1.55,-0.00 -1.55,-0.18 -1.50,-0.37 -1.46,-0.55 -1.37,-0.72 -1.28,-0.88 -1.16,-1.03 -1.03,-1.17 -0.88,-1.27 -0.72,-1.38 -0.55,-1.45 -0.37,-1.51 -0.18,-1.54 0.00,-1.56 0.00,-1.56 L 0,-1.56 Z"></path></g><g stroke-linecap="round"><g transform="translate(11.379251770675182 430) rotate(0 170.145854917409 -0.30747302900897466)"><path d="M-0.43 -0.21 C95.89 0, 188.81 -0.61, 340.73 -0.39 M-0.28 0.17 C79.2 -0.31, 157.16 -1.4, 339.97 -0.32" stroke="#000000" stroke-width="1" fill="none"></path></g></g><g stroke-linecap="round"><g transform="translate(351.3792517706752 430) rotate(0 0.6071115165436822 49.4376323000854)"><path d="M-0.39 -0.19 C-0.3 16.49, 1.07 83.57, 1.04 100.21 M1.6 -1.33 C1.58 14.95, 1.18 81.17, 0.64 98.19" stroke="#000000" stroke-width="1" fill="none"></path></g></g><g stroke-linecap="round"><g transform="translate(11.379251770675182 430) rotate(0 0.17632205039262772 40.13588894717395)"><path d="M1.73 0.35 C-1.26 24.27, 0.83 49.07, -1.38 78.14 M0.97 0.67 C-0.25 25.71, -0.38 52.88, 0.98 79.93" stroke="#000000" stroke-width="1" fill="none"></path></g></g><g stroke-linecap="round" transform="translate(70.50376131758094 178) rotate(0 110.29200509463408 9.91306365966409)"><path d="M0 0 C0 0, 0 0, 0 0 M0 0 C0 0, 0 0, 0 0 M-0.26 6.4 C0.79 5.19, 1.84 3.98, 4.99 0.36 M-0.26 6.4 C1.68 4.17, 3.61 1.94, 4.99 0.36 M0.13 12.04 C4.03 7.56, 7.92 3.08, 10.63 -0.03 M0.13 12.04 C4.15 7.42, 8.17 2.79, 10.63 -0.03 M-0.13 18.44 C5.95 11.45, 12.02 4.46, 15.62 0.33 M-0.13 18.44 C4.15 13.51, 8.43 8.59, 15.62 0.33 M2.23 21.82 C8.53 14.58, 14.82 7.34, 21.26 -0.07 M2.23 21.82 C9.55 13.41, 16.86 5, 21.26 -0.07 M7.88 21.42 C12.14 16.52, 16.4 11.62, 26.25 0.29 M7.88 21.42 C14.49 13.82, 21.1 6.22, 26.25 0.29 M12.86 21.78 C18.45 15.36, 24.03 8.94, 31.89 -0.1 M12.86 21.78 C18.41 15.41, 23.95 9.03, 31.89 -0.1 M17.85 22.14 C24.22 14.82, 30.58 7.5, 36.88 0.26 M17.85 22.14 C23.33 15.84, 28.81 9.53, 36.88 0.26 M23.49 21.75 C27.82 16.77, 32.15 11.79, 42.52 -0.14 M23.49 21.75 C28.01 16.55, 32.53 11.35, 42.52 -0.14 M28.48 22.11 C34.84 14.79, 41.2 7.48, 47.51 0.22 M28.48 22.11 C35.49 14.05, 42.5 5.99, 47.51 0.22 M34.12 21.71 C40.68 14.17, 47.25 6.62, 53.15 -0.17 M34.12 21.71 C38.17 17.06, 42.21 12.41, 53.15 -0.17 M39.11 22.07 C45.1 15.19, 51.08 8.31, 58.14 0.19 M39.11 22.07 C46.12 14.02, 53.12 5.96, 58.14 0.19 M44.75 21.68 C50.49 15.09, 56.22 8.49, 63.78 -0.21 M44.75 21.68 C49.74 15.95, 54.72 10.22, 63.78 -0.21 M49.74 22.04 C53.61 17.59, 57.48 13.14, 68.77 0.15 M49.74 22.04 C55.67 15.22, 61.59 8.41, 68.77 0.15 M55.38 21.65 C62.93 12.97, 70.47 4.29, 74.41 -0.24 M55.38 21.65 C60.86 15.35, 66.34 9.05, 74.41 -0.24 M60.37 22.01 C67.45 13.87, 74.52 5.73, 79.4 0.12 M60.37 22.01 C65.67 15.91, 70.96 9.82, 79.4 0.12 M66.02 21.61 C73.12 13.44, 80.22 5.27, 85.04 -0.28 M66.02 21.61 C70.74 16.17, 75.47 10.73, 85.04 -0.28 M71 21.97 C75.48 16.82, 79.95 11.67, 90.03 0.08 M71 21.97 C74.91 17.48, 78.81 12.98, 90.03 0.08 M76.65 21.58 C80.82 16.78, 84.99 11.98, 95.67 -0.31 M76.65 21.58 C83.47 13.72, 90.3 5.87, 95.67 -0.31 M81.63 21.94 C86.44 16.41, 91.24 10.88, 100.66 0.05 M81.63 21.94 C87.06 15.7, 92.48 9.46, 100.66 0.05 M87.28 21.54 C94.22 13.56, 101.16 5.57, 106.3 -0.34 M87.28 21.54 C92.78 15.21, 98.28 8.89, 106.3 -0.34 M92.26 21.9 C98.47 14.76, 104.67 7.62, 111.29 0.02 M92.26 21.9 C99.24 13.88, 106.21 5.86, 111.29 0.02 M97.91 21.51 C103.13 15.49, 108.36 9.48, 116.27 0.38 M97.91 21.51 C104.64 13.76, 111.38 6.01, 116.27 0.38 M102.89 21.87 C106.75 17.43, 110.61 12.99, 121.92 -0.02 M102.89 21.87 C109.64 14.1, 116.39 6.33, 121.92 -0.02 M108.54 21.47 C113.98 15.2, 119.43 8.94, 126.91 0.34 M108.54 21.47 C115.42 13.55, 122.31 5.63, 126.91 0.34 M113.52 21.83 C118.7 15.87, 123.88 9.92, 132.55 -0.05 M113.52 21.83 C117.55 17.2, 121.57 12.58, 132.55 -0.05 M119.17 21.44 C125.84 13.76, 132.51 6.09, 137.54 0.31 M119.17 21.44 C125.65 13.98, 132.14 6.52, 137.54 0.31 M124.15 21.8 C131.17 13.73, 138.18 5.66, 143.18 -0.09 M124.15 21.8 C130.89 14.05, 137.62 6.3, 143.18 -0.09 M129.14 22.16 C134.66 15.81, 140.17 9.46, 148.17 0.27 M129.14 22.16 C136.7 13.47, 144.25 4.77, 148.17 0.27 M134.78 21.76 C141.81 13.68, 148.84 5.59, 153.81 -0.12 M134.78 21.76 C139.66 16.15, 144.54 10.54, 153.81 -0.12 M139.77 22.12 C145.98 14.98, 152.19 7.83, 158.8 0.24 M139.77 22.12 C144.7 16.45, 149.64 10.77, 158.8 0.24 M145.41 21.73 C152.95 13.06, 160.49 4.39, 164.44 -0.16 M145.41 21.73 C150.15 16.28, 154.89 10.83, 164.44 -0.16 M150.4 22.09 C157.36 14.08, 164.33 6.07, 169.43 0.2 M150.4 22.09 C157.01 14.48, 163.63 6.87, 169.43 0.2 M156.04 21.69 C160.11 17.01, 164.18 12.33, 175.07 -0.19 M156.04 21.69 C162.09 14.73, 168.14 7.77, 175.07 -0.19 M161.03 22.05 C167.6 14.49, 174.17 6.93, 180.06 0.17 M161.03 22.05 C167.25 14.9, 173.46 7.75, 180.06 0.17 M166.67 21.66 C171.08 16.59, 175.48 11.53, 185.7 -0.23 M166.67 21.66 C172.5 14.96, 178.32 8.26, 185.7 -0.23 M171.66 22.02 C176.33 16.64, 181.01 11.27, 190.69 0.13 M171.66 22.02 C177.7 15.07, 183.74 8.13, 190.69 0.13 M177.3 21.63 C183.04 15.02, 188.78 8.42, 196.33 -0.26 M177.3 21.63 C183.25 14.79, 189.19 7.95, 196.33 -0.26 M182.29 21.99 C187.83 15.61, 193.37 9.24, 201.32 0.1 M182.29 21.99 C187.94 15.49, 193.58 8.99, 201.32 0.1 M187.93 21.59 C194.04 14.57, 200.14 7.55, 206.96 -0.3 M187.93 21.59 C193.49 15.2, 199.04 8.81, 206.96 -0.3 M192.92 21.95 C199.58 14.29, 206.24 6.62, 211.95 0.06 M192.92 21.95 C198.59 15.43, 204.26 8.9, 211.95 0.06 M198.56 21.56 C202.92 16.55, 207.28 11.53, 217.59 -0.33 M198.56 21.56 C203.44 15.95, 208.31 10.34, 217.59 -0.33 M203.55 21.92 C209.7 14.84, 215.85 7.77, 221.92 0.79 M203.55 21.92 C207.42 17.46, 211.3 13, 221.92 0.79 M209.19 21.52 C211.81 18.51, 214.43 15.5, 221.66 7.18 M209.19 21.52 C212.59 17.61, 216 13.7, 221.66 7.18 M214.18 21.88 C215.76 20.07, 217.34 18.25, 222.05 12.83 M214.18 21.88 C217.18 18.43, 220.18 14.98, 222.05 12.83 M-0.01 19.82 C-0.01 19.82, -0.01 19.82, -0.01 19.82 M-0.01 19.82 C-0.01 19.82, -0.01 19.82, -0.01 19.82 M6.39 20.08 C4.3 18.26, 2.2 16.44, 0.35 14.83 M6.39 20.08 C5.12 18.98, 3.85 17.87, 0.35 14.83 M12.04 19.69 C7.86 16.06, 3.69 12.44, -0.04 9.19 M12.04 19.69 C9.44 17.43, 6.84 15.17, -0.04 9.19 M18.43 19.95 C14.49 16.52, 10.54 13.09, 0.32 4.2 M18.43 19.95 C11.96 14.32, 5.48 8.69, 0.32 4.2 M24.08 19.56 C17.38 13.73, 10.69 7.91, 0.68 -0.78 M24.08 19.56 C15.72 12.29, 7.35 5.02, 0.68 -0.78 M30.47 19.82 C23.46 13.72, 16.45 7.63, 7.08 -0.52 M30.47 19.82 C22.59 12.96, 14.71 6.11, 7.08 -0.52 M36.87 20.08 C30.28 14.35, 23.69 8.62, 12.72 -0.92 M36.87 20.08 C27.57 11.99, 18.27 3.9, 12.72 -0.92 M42.51 19.68 C34.95 13.11, 27.39 6.53, 19.12 -0.65 M42.51 19.68 C35.04 13.19, 27.57 6.7, 19.12 -0.65 M48.91 19.94 C41.47 13.47, 34.02 7, 24.76 -1.05 M48.91 19.94 C42.93 14.75, 36.96 9.55, 24.76 -1.05 M54.56 19.55 C48.4 14.2, 42.24 8.84, 31.16 -0.79 M54.56 19.55 C46.8 12.8, 39.03 6.06, 31.16 -0.79 M60.95 19.81 C55.37 14.96, 49.78 10.1, 37.56 -0.53 M60.95 19.81 C52.78 12.7, 44.6 5.59, 37.56 -0.53 M67.35 20.07 C59.19 12.98, 51.03 5.88, 43.2 -0.92 M67.35 20.07 C61.13 14.67, 54.92 9.26, 43.2 -0.92 M72.99 19.68 C64.7 12.47, 56.42 5.27, 49.6 -0.66 M72.99 19.68 C64.74 12.51, 56.49 5.33, 49.6 -0.66 M79.39 19.94 C74.34 15.55, 69.29 11.16, 55.24 -1.05 M79.39 19.94 C73.69 14.98, 67.99 10.03, 55.24 -1.05 M85.04 19.55 C75.94 11.64, 66.84 3.73, 61.64 -0.79 M85.04 19.55 C76.27 11.93, 67.51 4.31, 61.64 -0.79 M91.43 19.81 C82.48 12.02, 73.52 4.24, 68.04 -0.53 M91.43 19.81 C85.27 14.45, 79.11 9.09, 68.04 -0.53 M97.83 20.07 C90.1 13.35, 82.36 6.62, 73.68 -0.93 M97.83 20.07 C88.43 11.9, 79.03 3.73, 73.68 -0.93 M103.47 19.67 C98.6 15.44, 93.73 11.2, 80.08 -0.66 M103.47 19.67 C94.31 11.71, 85.15 3.75, 80.08 -0.66 M109.87 19.94 C100.95 12.18, 92.02 4.42, 85.72 -1.06 M109.87 19.94 C104.4 15.18, 98.93 10.42, 85.72 -1.06 M115.51 19.54 C108.99 13.87, 102.46 8.19, 92.12 -0.8 M115.51 19.54 C107.82 12.85, 100.13 6.17, 92.12 -0.8 M121.91 19.8 C117.18 15.69, 112.46 11.58, 98.52 -0.54 M121.91 19.8 C113.18 12.21, 104.44 4.61, 98.52 -0.54 M128.31 20.06 C122.71 15.19, 117.11 10.33, 104.16 -0.93 M128.31 20.06 C122.53 15.03, 116.74 10.01, 104.16 -0.93 M133.95 19.67 C126.31 13.02, 118.66 6.38, 110.56 -0.67 M133.95 19.67 C125.25 12.1, 116.54 4.53, 110.56 -0.67 M140.35 19.93 C131.95 12.63, 123.56 5.33, 116.2 -1.06 M140.35 19.93 C132.03 12.69, 123.7 5.46, 116.2 -1.06 M145.99 19.54 C139.07 13.51, 132.14 7.49, 122.6 -0.8 M145.99 19.54 C140.81 15.02, 135.62 10.51, 122.6 -0.8 M152.39 19.8 C144.18 12.66, 135.97 5.52, 129 -0.54 M152.39 19.8 C144.87 13.26, 137.35 6.72, 129 -0.54 M158.79 20.06 C151.39 13.62, 143.98 7.19, 134.64 -0.94 M158.79 20.06 C149.67 12.13, 140.55 4.21, 134.64 -0.94 M164.43 19.66 C159.52 15.39, 154.61 11.12, 141.04 -0.67 M164.43 19.66 C157.35 13.51, 150.26 7.35, 141.04 -0.67 M170.83 19.93 C161.21 11.56, 151.59 3.2, 146.68 -1.07 M170.83 19.93 C162.36 12.56, 153.89 5.2, 146.68 -1.07 M176.47 19.53 C168.6 12.68, 160.72 5.84, 153.08 -0.81 M176.47 19.53 C169.96 13.87, 163.44 8.2, 153.08 -0.81 M182.87 19.79 C176.9 14.6, 170.93 9.41, 159.48 -0.55 M182.87 19.79 C175.64 13.5, 168.4 7.22, 159.48 -0.55 M189.27 20.05 C179.93 11.93, 170.58 3.81, 165.12 -0.94 M189.27 20.05 C182.16 13.87, 175.05 7.69, 165.12 -0.94 M194.91 19.66 C190.12 15.49, 185.33 11.33, 171.52 -0.68 M194.91 19.66 C188.44 14.03, 181.96 8.4, 171.52 -0.68 M201.31 19.92 C195.03 14.46, 188.75 9, 177.16 -1.07 M201.31 19.92 C195.21 14.62, 189.12 9.32, 177.16 -1.07 M206.95 19.53 C201.84 15.08, 196.72 10.63, 183.56 -0.81 M206.95 19.53 C199.15 12.74, 191.35 5.96, 183.56 -0.81 M213.35 19.79 C206.34 13.7, 199.34 7.61, 189.96 -0.55 M213.35 19.79 C206.08 13.47, 198.8 7.14, 189.96 -0.55 M219.75 20.05 C212.22 13.51, 204.69 6.96, 195.6 -0.94 M219.75 20.05 C214.53 15.51, 209.31 10.98, 195.6 -0.94 M222.37 17.03 C216.42 11.85, 210.47 6.68, 202 -0.68 M222.37 17.03 C216.58 11.99, 210.78 6.96, 202 -0.68 M222.73 12.04 C217.56 7.54, 212.38 3.04, 207.64 -1.08 M222.73 12.04 C217.95 7.88, 213.16 3.72, 207.64 -1.08 M223.09 7.06 C220.66 4.94, 218.22 2.82, 214.04 -0.82 M223.09 7.06 C220.89 5.14, 218.68 3.22, 214.04 -0.82" stroke="#fab005" stroke-width="0.5" fill="none"></path><path d="M0 0 C62.72 0, 125.44 0, 220.58 0 M0 0 C71.71 0, 143.41 0, 220.58 0 M220.58 0 C220.58 4.82, 220.58 9.65, 220.58 19.83 M220.58 0 C220.58 7.54, 220.58 15.09, 220.58 19.83 M220.58 19.83 C174.97 19.83, 129.35 19.83, 0 19.83 M220.58 19.83 C166.3 19.83, 112.01 19.83, 0 19.83 M0 19.83 C0 13.44, 0 7.04, 0 0 M0 19.83 C0 14.81, 0 9.79, 0 0" stroke="#000000" stroke-width="1" fill="none"></path></g><g stroke-linecap="round" transform="translate(70.50376131758094 150) rotate(0 110 9.91306365966409)"><path d="M0 0 C0 0, 0 0, 0 0 M0 0 C0 0, 0 0, 0 0 M-0.26 6.4 C1.19 4.73, 2.64 3.06, 4.99 0.36 M-0.26 6.4 C0.86 5.1, 1.99 3.81, 4.99 0.36 M0.13 12.04 C3.06 8.68, 5.98 5.31, 10.63 -0.03 M0.13 12.04 C3.38 8.31, 6.63 4.57, 10.63 -0.03 M-0.13 18.44 C5.15 12.36, 10.43 6.29, 15.62 0.33 M-0.13 18.44 C5.99 11.4, 12.11 4.37, 15.62 0.33 M2.23 21.82 C6.38 17.04, 10.53 12.27, 21.26 -0.07 M2.23 21.82 C6.51 16.9, 10.79 11.98, 21.26 -0.07 M7.88 21.42 C14.32 14.01, 20.77 6.59, 26.25 0.29 M7.88 21.42 C11.66 17.07, 15.45 12.71, 26.25 0.29 M12.86 21.78 C19.98 13.6, 27.09 5.41, 31.89 -0.1 M12.86 21.78 C19.97 13.61, 27.07 5.44, 31.89 -0.1 M17.85 22.14 C23.68 15.44, 29.5 8.74, 36.88 0.26 M17.85 22.14 C22.75 16.51, 27.64 10.88, 36.88 0.26 M23.49 21.75 C29.34 15.02, 35.19 8.29, 42.52 -0.14 M23.49 21.75 C29.52 14.81, 35.55 7.88, 42.52 -0.14 M28.48 22.11 C33.07 16.83, 37.65 11.56, 47.51 0.22 M28.48 22.11 C35.63 13.88, 42.79 5.65, 47.51 0.22 M34.12 21.71 C38.62 16.54, 43.12 11.37, 53.15 -0.17 M34.12 21.71 C39.1 16, 44.07 10.28, 53.15 -0.17 M39.11 22.07 C43.89 16.58, 48.67 11.08, 58.14 0.19 M39.11 22.07 C43.67 16.83, 48.23 11.58, 58.14 0.19 M44.75 21.68 C49.21 16.55, 53.68 11.42, 63.78 -0.21 M44.75 21.68 C49.63 16.08, 54.5 10.47, 63.78 -0.21 M49.74 22.04 C55.23 15.72, 60.72 9.41, 68.77 0.15 M49.74 22.04 C56.78 13.94, 63.82 5.84, 68.77 0.15 M55.38 21.65 C59.8 16.57, 64.21 11.49, 74.41 -0.24 M55.38 21.65 C62.89 13.01, 70.39 4.38, 74.41 -0.24 M60.37 22.01 C67.25 14.09, 74.13 6.18, 79.4 0.12 M60.37 22.01 C66.69 14.74, 73 7.48, 79.4 0.12 M66.02 21.61 C70.11 16.9, 74.21 12.18, 85.04 -0.28 M66.02 21.61 C70.07 16.94, 74.13 12.27, 85.04 -0.28 M71 21.97 C77.37 14.64, 83.74 7.31, 90.03 0.08 M71 21.97 C77.36 14.65, 83.73 7.33, 90.03 0.08 M76.65 21.58 C80.97 16.6, 85.3 11.62, 95.67 -0.31 M76.65 21.58 C82.23 15.15, 87.82 8.72, 95.67 -0.31 M81.63 21.94 C87.89 14.74, 94.15 7.53, 100.66 0.05 M81.63 21.94 C86.01 16.9, 90.38 11.87, 100.66 0.05 M87.28 21.54 C94.25 13.51, 101.23 5.49, 106.3 -0.34 M87.28 21.54 C92.22 15.85, 97.16 10.17, 106.3 -0.34 M92.26 21.9 C98.37 14.87, 104.48 7.84, 111.29 0.02 M92.26 21.9 C98.26 15, 104.25 8.11, 111.29 0.02 M97.91 21.51 C105.05 13.29, 112.19 5.07, 116.27 0.38 M97.91 21.51 C104.89 13.47, 111.88 5.44, 116.27 0.38 M102.89 21.87 C109.45 14.32, 116.01 6.78, 121.92 -0.02 M102.89 21.87 C109.17 14.64, 115.45 7.42, 121.92 -0.02 M108.54 21.47 C114.14 15.03, 119.74 8.58, 126.91 0.34 M108.54 21.47 C115.27 13.72, 122.01 5.97, 126.91 0.34 M113.52 21.83 C119.02 15.5, 124.53 9.18, 132.55 -0.05 M113.52 21.83 C118.44 16.18, 123.36 10.52, 132.55 -0.05 M119.17 21.44 C126.2 13.35, 133.23 5.26, 137.54 0.31 M119.17 21.44 C126.06 13.51, 132.95 5.58, 137.54 0.31 M124.15 21.8 C129.86 15.23, 135.58 8.66, 143.18 -0.09 M124.15 21.8 C130.39 14.62, 136.63 7.44, 143.18 -0.09 M129.14 22.16 C135.73 14.58, 142.32 6.99, 148.17 0.27 M129.14 22.16 C133.04 17.67, 136.95 13.18, 148.17 0.27 M134.78 21.76 C142.01 13.45, 149.24 5.13, 153.81 -0.12 M134.78 21.76 C138.78 17.16, 142.78 12.56, 153.81 -0.12 M139.77 22.12 C146.92 13.9, 154.07 5.67, 158.8 0.24 M139.77 22.12 C145.47 15.56, 151.18 9, 158.8 0.24 M145.41 21.73 C152.77 13.26, 160.13 4.79, 164.44 -0.16 M145.41 21.73 C149.6 16.91, 153.79 12.09, 164.44 -0.16 M150.4 22.09 C156.25 15.36, 162.1 8.63, 169.43 0.2 M150.4 22.09 C156.98 14.52, 163.57 6.94, 169.43 0.2 M156.04 21.69 C160.52 16.54, 165 11.39, 175.07 -0.19 M156.04 21.69 C162.07 14.76, 168.1 7.83, 175.07 -0.19 M161.03 22.05 C165.48 16.93, 169.94 11.81, 180.06 0.17 M161.03 22.05 C166.26 16.04, 171.49 10.03, 180.06 0.17 M166.67 21.66 C172.31 15.18, 177.94 8.7, 185.7 -0.23 M166.67 21.66 C172.43 15.04, 178.19 8.41, 185.7 -0.23 M171.66 22.02 C177.46 15.35, 183.25 8.69, 190.69 0.13 M171.66 22.02 C176.62 16.32, 181.57 10.61, 190.69 0.13 M177.3 21.63 C184.84 12.95, 192.38 4.28, 196.33 -0.26 M177.3 21.63 C181.57 16.72, 185.83 11.82, 196.33 -0.26 M182.29 21.99 C188.46 14.89, 194.62 7.8, 201.32 0.1 M182.29 21.99 C188.41 14.95, 194.53 7.91, 201.32 0.1 M187.93 21.59 C192.11 16.79, 196.28 11.99, 206.96 -0.3 M187.93 21.59 C195 13.46, 202.06 5.34, 206.96 -0.3 M192.92 21.95 C199.66 14.2, 206.4 6.45, 211.95 0.06 M192.92 21.95 C199 14.95, 205.09 7.95, 211.95 0.06 M198.56 21.56 C204.36 14.89, 210.15 8.23, 217.59 -0.33 M198.56 21.56 C203.86 15.47, 209.15 9.37, 217.59 -0.33 M203.55 21.92 C209.08 15.55, 214.62 9.19, 221.26 1.54 M203.55 21.92 C209.95 14.56, 216.34 7.2, 221.26 1.54 M209.19 21.52 C212.28 17.97, 215.37 14.41, 221.66 7.18 M209.19 21.52 C213.21 16.9, 217.23 12.27, 221.66 7.18 M214.18 21.88 C216.87 18.79, 219.56 15.7, 221.4 13.58 M214.18 21.88 C217.03 18.6, 219.88 15.33, 221.4 13.58 M-0.01 19.82 C-0.01 19.82, -0.01 19.82, -0.01 19.82 M-0.01 19.82 C-0.01 19.82, -0.01 19.82, -0.01 19.82 M6.39 20.08 C4.19 18.17, 1.98 16.25, 0.35 14.83 M6.39 20.08 C5.1 18.96, 3.8 17.83, 0.35 14.83 M12.04 19.69 C7.53 15.77, 3.02 11.85, -0.04 9.19 M12.04 19.69 C7.78 15.99, 3.53 12.29, -0.04 9.19 M18.43 19.95 C11.62 14.03, 4.8 8.1, 0.32 4.2 M18.43 19.95 C13.78 15.91, 9.13 11.86, 0.32 4.2 M24.08 19.56 C18.74 14.92, 13.4 10.28, 0.68 -0.78 M24.08 19.56 C16.79 13.22, 9.49 6.88, 0.68 -0.78 M30.47 19.82 C22.31 12.72, 14.15 5.63, 7.08 -0.52 M30.47 19.82 C25.73 15.69, 20.99 11.57, 7.08 -0.52 M36.87 20.08 C29.95 14.06, 23.02 8.04, 12.72 -0.92 M36.87 20.08 C28.26 12.59, 19.66 5.11, 12.72 -0.92 M42.51 19.68 C35.93 13.96, 29.34 8.23, 19.12 -0.65 M42.51 19.68 C33.7 12.02, 24.89 4.36, 19.12 -0.65 M48.91 19.94 C43.45 15.19, 37.98 10.44, 24.76 -1.05 M48.91 19.94 C42.08 14, 35.24 8.06, 24.76 -1.05 M54.56 19.55 C49.18 14.88, 43.8 10.2, 31.16 -0.79 M54.56 19.55 C46.43 12.49, 38.31 5.43, 31.16 -0.79 M60.95 19.81 C52.07 12.09, 43.18 4.36, 37.56 -0.53 M60.95 19.81 C53.2 13.07, 45.45 6.33, 37.56 -0.53 M67.35 20.07 C59.99 13.67, 52.62 7.27, 43.2 -0.92 M67.35 20.07 C59.48 13.23, 51.61 6.39, 43.2 -0.92 M72.99 19.68 C65.1 12.82, 57.21 5.96, 49.6 -0.66 M72.99 19.68 C63.97 11.84, 54.95 3.99, 49.6 -0.66 M79.39 19.94 C72.76 14.17, 66.12 8.41, 55.24 -1.05 M79.39 19.94 C70.49 12.2, 61.59 4.46, 55.24 -1.05 M85.04 19.55 C76.99 12.55, 68.94 5.55, 61.64 -0.79 M85.04 19.55 C76.31 11.96, 67.57 4.37, 61.64 -0.79 M91.43 19.81 C82.94 12.43, 74.45 5.05, 68.04 -0.53 M91.43 19.81 C82.66 12.18, 73.88 4.55, 68.04 -0.53 M97.83 20.07 C90.53 13.72, 83.22 7.37, 73.68 -0.93 M97.83 20.07 C91.42 14.49, 85.01 8.92, 73.68 -0.93 M103.47 19.67 C97.63 14.59, 91.79 9.52, 80.08 -0.66 M103.47 19.67 C96.73 13.81, 89.98 7.94, 80.08 -0.66 M109.87 19.94 C100.92 12.16, 91.97 4.38, 85.72 -1.06 M109.87 19.94 C103.16 14.1, 96.45 8.27, 85.72 -1.06 M115.51 19.54 C109.16 14.02, 102.8 8.49, 92.12 -0.8 M115.51 19.54 C108.6 13.53, 101.68 7.52, 92.12 -0.8 M121.91 19.8 C113.42 12.42, 104.92 5.03, 98.52 -0.54 M121.91 19.8 C115.62 14.33, 109.33 8.87, 98.52 -0.54 M128.31 20.06 C122.96 15.42, 117.62 10.77, 104.16 -0.93 M128.31 20.06 C122.82 15.29, 117.32 10.51, 104.16 -0.93 M133.95 19.67 C125.74 12.53, 117.53 5.39, 110.56 -0.67 M133.95 19.67 C125.97 12.73, 117.98 5.78, 110.56 -0.67 M140.35 19.93 C131.95 12.63, 123.56 5.33, 116.2 -1.06 M140.35 19.93 C131.69 12.4, 123.04 4.88, 116.2 -1.06 M145.99 19.54 C139.89 14.23, 133.78 8.92, 122.6 -0.8 M145.99 19.54 C140.34 14.62, 134.68 9.7, 122.6 -0.8 M152.39 19.8 C144.06 12.56, 135.74 5.32, 129 -0.54 M152.39 19.8 C147.55 15.59, 142.71 11.38, 129 -0.54 M158.79 20.06 C152.11 14.25, 145.43 8.45, 134.64 -0.94 M158.79 20.06 C150.09 12.5, 141.4 4.94, 134.64 -0.94 M164.43 19.66 C159.58 15.44, 154.72 11.22, 141.04 -0.67 M164.43 19.66 C156.6 12.85, 148.76 6.04, 141.04 -0.67 M170.83 19.93 C165.1 14.95, 159.37 9.97, 146.68 -1.07 M170.83 19.93 C162.85 12.99, 154.88 6.06, 146.68 -1.07 M176.47 19.53 C168.99 13.02, 161.5 6.52, 153.08 -0.81 M176.47 19.53 C168.33 12.45, 160.19 5.38, 153.08 -0.81 M182.87 19.79 C177.29 14.94, 171.7 10.08, 159.48 -0.55 M182.87 19.79 C177.49 15.12, 172.11 10.44, 159.48 -0.55 M189.27 20.05 C180.4 12.34, 171.53 4.63, 165.12 -0.94 M189.27 20.05 C182.13 13.84, 174.98 7.63, 165.12 -0.94 M194.91 19.66 C189.46 14.92, 184 10.17, 171.52 -0.68 M194.91 19.66 C186.01 11.92, 177.11 4.18, 171.52 -0.68 M201.31 19.92 C194.55 14.05, 187.8 8.17, 177.16 -1.07 M201.31 19.92 C194.75 14.22, 188.19 8.52, 177.16 -1.07 M206.95 19.53 C201.6 14.87, 196.24 10.21, 183.56 -0.81 M206.95 19.53 C198.83 12.47, 190.71 5.41, 183.56 -0.81 M213.35 19.79 C207.65 14.83, 201.95 9.87, 189.96 -0.55 M213.35 19.79 C208.38 15.47, 203.41 11.15, 189.96 -0.55 M219.75 20.05 C212.73 13.95, 205.72 7.85, 195.6 -0.94 M219.75 20.05 C211.57 12.94, 203.4 5.84, 195.6 -0.94 M222.37 17.03 C216.22 11.68, 210.07 6.34, 202 -0.68 M222.37 17.03 C216.28 11.73, 210.19 6.44, 202 -0.68 M222.73 12.04 C217.62 7.6, 212.51 3.16, 207.64 -1.08 M222.73 12.04 C219.6 9.32, 216.47 6.6, 207.64 -1.08 M222.34 6.4 C219.41 3.85, 216.48 1.3, 214.04 -0.82 M222.34 6.4 C219.39 3.83, 216.43 1.27, 214.04 -0.82" stroke="#fab005" stroke-width="0.5" fill="none"></path><path d="M0 0 C85.05 0, 170.1 0, 220 0 M0 0 C87.42 0, 174.84 0, 220 0 M220 0 C220 7.47, 220 14.94, 220 19.83 M220 0 C220 5.05, 220 10.1, 220 19.83 M220 19.83 C157.62 19.83, 95.24 19.83, 0 19.83 M220 19.83 C143.39 19.83, 66.78 19.83, 0 19.83 M0 19.83 C0 14.92, 0 10.02, 0 0 M0 19.83 C0 13.14, 0 6.45, 0 0" stroke="#000000" stroke-width="1" fill="none"></path></g><g stroke-linecap="round" transform="translate(30.50376131758094 450) rotate(0 150.1435091444887 20)"><path d="M0 0 C0 0, 0 0, 0 0 M0 0 C0 0, 0 0, 0 0 M-0.26 6.4 C1.13 4.8, 2.52 3.2, 4.99 0.36 M-0.26 6.4 C1.53 4.33, 3.33 2.27, 4.99 0.36 M0.13 12.04 C2.57 9.24, 5 6.44, 10.63 -0.03 M0.13 12.04 C3 8.75, 5.86 5.46, 10.63 -0.03 M-0.13 18.44 C3.84 13.87, 7.81 9.31, 15.62 0.33 M-0.13 18.44 C3.76 13.96, 7.66 9.48, 15.62 0.33 M0.27 24.08 C6.21 17.25, 12.15 10.42, 21.26 -0.07 M0.27 24.08 C5.25 18.35, 10.23 12.62, 21.26 -0.07 M0 30.48 C8.77 20.4, 17.53 10.32, 26.25 0.29 M0 30.48 C10.32 18.62, 20.63 6.76, 26.25 0.29 M-0.26 36.88 C9.53 25.62, 19.32 14.36, 31.89 -0.1 M-0.26 36.88 C6.34 29.29, 12.94 21.69, 31.89 -0.1 M1.45 41.01 C9.33 31.95, 17.21 22.89, 36.88 0.26 M1.45 41.01 C10.98 30.05, 20.51 19.09, 36.88 0.26 M6.44 41.37 C16.55 29.74, 26.66 18.11, 42.52 -0.14 M6.44 41.37 C15.26 31.22, 24.08 21.08, 42.52 -0.14 M12.08 40.98 C21.77 29.83, 31.46 18.69, 47.51 0.22 M12.08 40.98 C19.91 31.97, 27.74 22.96, 47.51 0.22 M17.07 41.34 C25.65 31.47, 34.23 21.6, 53.15 -0.17 M17.07 41.34 C27.12 29.77, 37.18 18.2, 53.15 -0.17 M22.71 40.94 C32.86 29.26, 43.02 17.58, 58.14 0.19 M22.71 40.94 C31.61 30.71, 40.51 20.47, 58.14 0.19 M27.7 41.3 C36.67 30.98, 45.64 20.67, 63.78 -0.21 M27.7 41.3 C38.09 29.34, 48.49 17.38, 63.78 -0.21 M33.34 40.91 C44.15 28.47, 54.96 16.04, 68.77 0.15 M33.34 40.91 C41.05 32.04, 48.77 23.16, 68.77 0.15 M38.33 41.27 C46.54 31.82, 54.76 22.36, 74.41 -0.24 M38.33 41.27 C49.48 28.43, 60.64 15.6, 74.41 -0.24 M43.97 40.87 C51.62 32.08, 59.27 23.28, 79.4 0.12 M43.97 40.87 C52.3 31.29, 60.64 21.7, 79.4 0.12 M48.96 41.23 C61.01 27.36, 73.07 13.5, 85.04 -0.28 M48.96 41.23 C57.42 31.5, 65.89 21.76, 85.04 -0.28 M54.6 40.84 C66.99 26.58, 79.38 12.33, 90.03 0.08 M54.6 40.84 C64.32 29.65, 74.05 18.47, 90.03 0.08 M59.59 41.2 C72.95 25.82, 86.32 10.45, 95.67 -0.31 M59.59 41.2 C67.28 32.35, 74.97 23.5, 95.67 -0.31 M65.23 40.8 C75.19 29.34, 85.16 17.88, 100.66 0.05 M65.23 40.8 C78.07 26.03, 90.92 11.25, 100.66 0.05 M70.22 41.16 C84.03 25.27, 97.85 9.37, 106.3 -0.34 M70.22 41.16 C79.25 30.77, 88.28 20.39, 106.3 -0.34 M75.2 41.52 C83.45 32.03, 91.7 22.54, 111.29 0.02 M75.2 41.52 C89.01 25.64, 102.82 9.75, 111.29 0.02 M80.85 41.13 C90.12 30.46, 99.4 19.79, 116.27 0.38 M80.85 41.13 C88.19 32.68, 95.53 24.24, 116.27 0.38 M85.83 41.49 C95 30.95, 104.16 20.41, 121.92 -0.02 M85.83 41.49 C95.74 30.09, 105.65 18.7, 121.92 -0.02 M91.48 41.1 C103.56 27.19, 115.65 13.29, 126.91 0.34 M91.48 41.1 C98.62 32.88, 105.77 24.66, 126.91 0.34 M96.46 41.46 C105.95 30.55, 115.43 19.64, 132.55 -0.05 M96.46 41.46 C104.9 31.75, 113.34 22.04, 132.55 -0.05 M102.11 41.06 C116.22 24.83, 130.33 8.6, 137.54 0.31 M102.11 41.06 C109.46 32.6, 116.81 24.14, 137.54 0.31 M107.09 41.42 C114.48 32.92, 121.87 24.42, 143.18 -0.09 M107.09 41.42 C118.38 28.44, 129.66 15.46, 143.18 -0.09 M112.74 41.03 C121.76 30.64, 130.79 20.26, 148.17 0.27 M112.74 41.03 C121.77 30.63, 130.81 20.23, 148.17 0.27 M117.73 41.39 C127.58 30.04, 137.44 18.7, 153.81 -0.12 M117.73 41.39 C125.64 32.28, 133.55 23.18, 153.81 -0.12 M123.37 40.99 C136.68 25.68, 149.99 10.37, 158.8 0.24 M123.37 40.99 C131.54 31.59, 139.71 22.19, 158.8 0.24 M128.36 41.35 C139.37 28.69, 150.38 16.02, 164.44 -0.16 M128.36 41.35 C139.84 28.14, 151.32 14.93, 164.44 -0.16 M134 40.96 C143.56 29.96, 153.13 18.95, 169.43 0.2 M134 40.96 C143.81 29.67, 153.62 18.38, 169.43 0.2 M138.99 41.32 C152.74 25.49, 166.5 9.67, 175.07 -0.19 M138.99 41.32 C147.3 31.75, 155.61 22.19, 175.07 -0.19 M144.63 40.92 C154.91 29.1, 165.19 17.27, 180.06 0.17 M144.63 40.92 C158.55 24.91, 172.47 8.9, 180.06 0.17 M149.62 41.28 C157.77 31.9, 165.92 22.52, 185.7 -0.23 M149.62 41.28 C158.01 31.62, 166.41 21.96, 185.7 -0.23 M155.26 40.89 C163.51 31.4, 171.75 21.91, 190.69 0.13 M155.26 40.89 C163.54 31.36, 171.82 21.84, 190.69 0.13 M160.25 41.25 C167.74 32.63, 175.23 24, 196.33 -0.26 M160.25 41.25 C169.58 30.52, 178.9 19.78, 196.33 -0.26 M165.89 40.85 C177.86 27.08, 189.83 13.31, 201.32 0.1 M165.89 40.85 C176.9 28.19, 187.91 15.52, 201.32 0.1 M170.88 41.21 C183.09 27.17, 195.3 13.12, 206.96 -0.3 M170.88 41.21 C181.61 28.87, 192.34 16.52, 206.96 -0.3 M176.52 40.82 C186.77 29.02, 197.02 17.23, 211.95 0.06 M176.52 40.82 C190.4 24.85, 204.28 8.89, 211.95 0.06 M181.51 41.18 C191.39 29.81, 201.27 18.44, 217.59 -0.33 M181.51 41.18 C195.77 24.77, 210.03 8.37, 217.59 -0.33 M187.15 40.78 C194.76 32.03, 202.38 23.27, 222.58 0.03 M187.15 40.78 C197.8 28.53, 208.45 16.28, 222.58 0.03 M192.14 41.14 C203.45 28.13, 214.76 15.12, 228.22 -0.36 M192.14 41.14 C201.3 30.6, 210.46 20.06, 228.22 -0.36 M197.12 41.5 C207.44 29.64, 217.75 17.77, 233.21 0 M197.12 41.5 C208.58 28.33, 220.03 15.15, 233.21 0 M202.77 41.11 C209.88 32.93, 216.99 24.75, 238.19 0.36 M202.77 41.11 C210.98 31.66, 219.19 22.21, 238.19 0.36 M207.75 41.47 C219.2 28.3, 230.65 15.13, 243.84 -0.04 M207.75 41.47 C221.42 25.75, 235.09 10.02, 243.84 -0.04 M213.4 41.08 C224.82 27.93, 236.24 14.79, 248.82 0.32 M213.4 41.08 C225.57 27.08, 237.74 13.07, 248.82 0.32 M218.38 41.44 C231.67 26.15, 244.96 10.87, 254.47 -0.07 M218.38 41.44 C228.39 29.93, 238.39 18.42, 254.47 -0.07 M224.03 41.04 C234.99 28.43, 245.95 15.82, 259.45 0.29 M224.03 41.04 C233.23 30.45, 242.43 19.87, 259.45 0.29 M229.01 41.4 C241.32 27.24, 253.63 13.08, 265.1 -0.11 M229.01 41.4 C238.46 30.53, 247.91 19.67, 265.1 -0.11 M234.66 41.01 C243.02 31.38, 251.39 21.75, 270.08 0.25 M234.66 41.01 C245.55 28.47, 256.45 15.93, 270.08 0.25 M239.64 41.37 C253.45 25.49, 267.25 9.6, 275.73 -0.14 M239.64 41.37 C248.22 31.51, 256.79 21.64, 275.73 -0.14 M245.29 40.97 C253.12 31.96, 260.95 22.95, 280.71 0.22 M245.29 40.97 C254.87 29.95, 264.45 18.93, 280.71 0.22 M250.27 41.33 C260.47 29.6, 270.67 17.87, 286.36 -0.18 M250.27 41.33 C263.48 26.14, 276.69 10.95, 286.36 -0.18 M255.92 40.94 C263.92 31.73, 271.93 22.52, 291.34 0.18 M255.92 40.94 C269.65 25.14, 283.38 9.34, 291.34 0.18 M260.9 41.3 C270.83 29.88, 280.76 18.46, 296.99 -0.21 M260.9 41.3 C270.46 30.31, 280.01 19.32, 296.99 -0.21 M266.55 40.9 C275.47 30.63, 284.4 20.37, 301.32 0.9 M266.55 40.9 C278.9 26.7, 291.25 12.49, 301.32 0.9 M271.53 41.26 C278.55 33.19, 285.57 25.12, 301.06 7.3 M271.53 41.26 C277.67 34.21, 283.8 27.15, 301.06 7.3 M277.18 40.87 C285.98 30.74, 294.79 20.61, 301.45 12.94 M277.18 40.87 C285.07 31.79, 292.96 22.72, 301.45 12.94 M282.16 41.23 C287.72 34.84, 293.27 28.45, 301.19 19.34 M282.16 41.23 C288.35 34.11, 294.54 26.99, 301.19 19.34 M287.81 40.83 C291.08 37.07, 294.35 33.31, 301.58 24.99 M287.81 40.83 C292.02 35.99, 296.22 31.15, 301.58 24.99 M292.79 41.19 C294.52 39.21, 296.25 37.22, 301.32 31.38 M292.79 41.19 C294.53 39.2, 296.27 37.2, 301.32 31.38 M298.44 40.8 C299.01 40.14, 299.58 39.48, 301.06 37.78 M298.44 40.8 C299.38 39.71, 300.33 38.62, 301.06 37.78" stroke="#15aabf" stroke-width="0.5" fill="none"></path><path d="M0 0 C95.28 0, 190.55 0, 300.29 0 M0 0 C110.06 0, 220.12 0, 300.29 0 M300.29 0 C300.29 13.85, 300.29 27.69, 300.29 40 M300.29 0 C300.29 15.09, 300.29 30.17, 300.29 40 M300.29 40 C203.18 40, 106.07 40, 0 40 M300.29 40 C190.88 40, 81.47 40, 0 40 M0 40 C0 27.82, 0 15.63, 0 0 M0 40 C0 30.22, 0 20.44, 0 0" stroke="#000000" stroke-width="1" fill="none"></path></g><g stroke-opacity="0.8" fill-opacity="0.8" stroke-linecap="round" transform="translate(161.55417527999361 86.27553482998906) rotate(333.434948822922 20 120)"><path d="M0 0 C0 0, 0 0, 0 0 M0 0 C0 0, 0 0, 0 0 M0.68 10.76 C3.15 7.65, 6.59 4.48, 11.3 0.37 M0.68 11.95 C2.84 7.72, 6.93 4.64, 10.08 -0.59 M0.84 23.3 C7.41 18.05, 14.37 9.76, 20.71 0.23 M0.29 23.33 C5.97 18.53, 10.53 13.83, 20.78 0.21 M-0.9 35.03 C10.19 24.17, 23.24 11.37, 30.83 -0.92 M-0.71 37.64 C8.2 26.75, 17.68 15.55, 31.72 0.37 M-1.3 48 C10.16 39.53, 21.33 25.39, 39.95 -0.11 M-0.15 49.51 C12.82 33.01, 25.76 18.88, 41.55 1.49 M-0.88 62.64 C7.3 52.13, 19.11 38.33, 43.2 11.64 M-0.44 60.25 C10.92 46.92, 23.13 34.94, 41.39 13.87 M2.03 71.19 C11.03 58.86, 21.31 49.98, 39.58 27 M0.58 72.48 C12.67 57.95, 25.46 44.16, 40.7 24.88 M1.94 83.2 C12.85 70.27, 26.82 54.1, 40.99 37.25 M-0.66 84.46 C14.89 68.62, 27.05 53.78, 41.41 36.71 M0.79 99.01 C8.83 86.21, 19.72 73.78, 39.97 51.24 M0.26 98.48 C10.87 85.6, 21.85 72.27, 40.82 50.23 M1.78 111.51 C9.53 99.02, 21.44 87.88, 39.64 61.09 M0.78 109.5 C12.11 95.7, 26.19 80.07, 40.6 61.59 M0.73 123.43 C14.91 104.76, 30.54 83.46, 40.92 75.52 M-0.26 121.26 C15.31 105.17, 29.5 87.23, 41.22 74.34 M-0.08 133.01 C9.81 125, 19.03 112.37, 40.51 85.52 M0.43 134.91 C13.94 117.7, 28.72 100.18, 40.97 86.08 M-1.28 147.57 C11.58 135.21, 19.68 121.69, 41.38 97.91 M0.31 145.4 C7.55 137.12, 16.2 126.18, 41.67 98.82 M0.14 156.99 C12.96 144.32, 23.99 133.19, 39.45 112.79 M0.68 157.83 C9.99 145.84, 20.83 134.53, 40.37 111.35 M0.77 171.43 C8.86 161.2, 19.66 149.93, 41.41 121.32 M-0.27 170.06 C11.84 156.73, 23.83 144.33, 40.39 123.86 M2 182.63 C13.42 166.99, 29.4 149.31, 40.07 134.99 M0.95 182.91 C9.68 172.58, 21.38 159.11, 41.7 136.09 M-0.01 193.62 C9.57 182.41, 20.79 168.14, 40.19 147.32 M0.14 194.69 C13.88 181.14, 24.96 166.19, 41.99 147.93 M0.19 208.23 C18.08 188.78, 30.64 171.33, 41.12 159.38 M1.13 207.65 C10.49 194.06, 21.07 181.9, 42.33 159.82 M-0.02 220.63 C8.58 211.48, 19.26 199.16, 39.37 173.33 M-0.49 220.32 C9.57 206.23, 20.95 194.73, 40.92 173.1 M-1.47 232.98 C13.67 215.19, 28.72 197.57, 42.49 186.08 M-0.41 232.11 C9.38 220.17, 20.46 209.96, 42.07 184.64 M2.06 242.55 C11.7 229.36, 23.72 215.17, 40.38 194.65 M2.83 241.25 C17.33 224.09, 33.51 205.91, 40.66 196.97 M12.4 240.34 C22.4 230.58, 30.37 223.16, 43.16 209.82 M13.51 242.31 C17.83 234.47, 24.29 228.36, 41.12 208.92 M21.81 243.26 C29.63 236.45, 33.54 232.71, 39.78 221.7 M22.66 241.27 C30.52 233.83, 36.87 225.36, 41.18 219.97 M32.82 240.52 C36.17 238.11, 38.46 237.21, 40.83 233.19 M34.05 241.73 C35.29 239.18, 37.42 237.47, 41.34 232.88 M-0.34 239.7 C-0.34 239.7, -0.34 239.7, -0.34 239.7 M-0.34 239.7 C-0.34 239.7, -0.34 239.7, -0.34 239.7 M13.56 240.81 C9.66 236.41, 4.84 234.31, -1.5 228.65 M12.64 240.59 C8.57 236.67, 6.11 235.01, 0.46 229.13 M26.2 240.78 C17.67 233.88, 9.15 227.49, -1.51 218.69 M24.27 240.33 C17.51 234.57, 12.61 229.28, -0.61 219.47 M35.08 239.91 C23.18 229.59, 13.38 219.77, 0.56 207.2 M35.96 240.13 C27.45 230.45, 16.49 222.99, -0.14 208.41 M42.38 236.57 C29.61 224.98, 19.47 211.28, -0.62 196.44 M44.12 236.62 C34.19 227.7, 26.76 220.97, 0.01 198.21 M43.88 224.13 C26.09 209.72, 10.01 194.33, -1.38 188.66 M43.11 225.09 C31.33 213.51, 17.46 202.82, 1 186.46 M45.49 215.7 C33.29 207.58, 23.27 197.54, -1.18 175.4 M44.8 215.04 C27.87 200.36, 12.56 187.44, 0.26 176.43 M44.43 205.13 C33.88 193.81, 23.35 185.26, 0.54 166.24 M44.78 204.07 C33.17 194.6, 21.65 184.85, -0.13 166.65 M43.95 194.32 C30.52 179.26, 14.57 167.81, -0.32 153.61 M44.29 194.08 C30.58 180.7, 15.57 168.79, 0.95 154.59 M44.64 182.01 C26.58 169.45, 11.84 155.41, -1.29 145.43 M44.59 182.88 C31.05 171.23, 19.43 160.21, 0 144.25 M43.65 172.44 C28.96 158.18, 16.24 147.2, 1.93 133.99 M43.35 171.79 C30.29 160.19, 17.67 149.94, -0.67 133.76 M41.98 160.2 C27.46 149.25, 13.59 135.17, -1.31 124.6 M43.02 161.31 C34.61 154.69, 25.82 146.69, -0.64 123.09 M43.66 150.91 C32.22 139.19, 19.68 128.61, -1.33 112.37 M43.21 150.73 C26.56 135.44, 10.69 122.47, -0.92 113.56 M43.06 142.01 C27.79 128.14, 14.5 112.8, -0.87 102.98 M43.02 139.74 C31.31 129.29, 19.74 119.8, 0.34 101.56 M44.12 131.48 C29.97 116.92, 12.41 103.05, 0.14 93.4 M43.5 130.06 C28.01 117.86, 14.51 103.76, 0.31 92.15 M43.61 118.62 C25.05 105.43, 9.52 90.87, -0.16 80.68 M43.95 119.08 C33.44 110.41, 24.7 102.73, -0.21 80.64 M42.34 108.76 C26.08 96.24, 11.78 81.33, 1.7 70.66 M44.32 107.48 C28.58 94.76, 12.38 81.82, -0.4 70.27 M44.48 98.07 C28.29 85.2, 12.03 70.67, 1.73 58.71 M43.61 96.83 C32.82 88.19, 23.82 80.12, -1.03 59.83 M44.73 86.25 C27.43 75.57, 11.46 62.54, -0.2 50.55 M44.21 87.26 C32.01 76.89, 18.41 65.1, -0.07 49.24 M43.65 77.3 C26.49 61.57, 12.65 50.24, -1.16 38.92 M44.26 77.04 C27.86 63.95, 13.03 51.26, -0.39 39.22 M42.83 64.3 C25.43 51.84, 11.72 38.61, 0.07 28.39 M44.11 66.24 C32.34 55.39, 21.78 46.75, -1.27 26.91 M44.22 54.11 C29.19 41.43, 13.4 30.34, -1.68 16.06 M42.58 54.32 C33.78 46.91, 24.2 38.4, -0.14 17.46 M45.31 44.15 C34.44 38.37, 23.43 27.42, 1.23 8.35 M43.43 43.81 C33.7 36.57, 24.06 28.53, -0.12 5.7 M43.18 35.82 C30.12 21.48, 15.09 12.34, 2.75 -0.3 M44.44 34.51 C32.22 25.36, 21.23 16.23, 2.56 -2.28 M42.71 24.59 C32.49 15.33, 21.46 2.23, 13.47 -4.05 M44.77 24.58 C36.71 17.05, 29.95 11.1, 14.02 -2.92 M44.36 12.7 C36.14 6.99, 32.7 2.52, 25.16 -0.6 M43.89 14.04 C40.11 9.93, 35.58 6.36, 26.38 -3.17" stroke="#868e96" stroke-width="1" fill="none"></path><path d="M-1.38 -1.86 C11.55 -0.73, 22.27 2.06, 41.33 0.17 M0.98 -0.07 C8.12 0.66, 15.69 0.96, 40.46 0.62 M41.09 1.57 C41 72.85, 43.25 146.56, 41.29 240.15 M39.23 0.21 C40.88 92.97, 40.85 186.13, 40.19 240.31 M38.95 239.18 C26.06 238.59, 14.25 240.74, 1.29 240.5 M39.52 239.22 C26.33 240.81, 14.44 239.33, 0.05 240.87 M-1.25 238.44 C0.29 149.06, 0.08 59.17, -0.93 0.8 M-0.81 239.43 C1.5 151.77, 1 61.83, -0.74 -0.38" stroke="#000000" stroke-width="2" fill="none"></path></g><g stroke-linecap="round" transform="translate(30.50376131758094 350) rotate(0 150.1435091444887 20)"><path d="M0 0 C0 0, 0 0, 0 0 M0 0 C0 0, 0 0, 0 0 M-0.26 6.4 C1.11 4.82, 2.48 3.24, 4.99 0.36 M-0.26 6.4 C1.26 4.64, 2.79 2.89, 4.99 0.36 M0.13 12.04 C3.82 7.8, 7.5 3.57, 10.63 -0.03 M0.13 12.04 C2.65 9.14, 5.17 6.25, 10.63 -0.03 M-0.13 18.44 C3.78 13.94, 7.7 9.44, 15.62 0.33 M-0.13 18.44 C5.39 12.09, 10.9 5.75, 15.62 0.33 M0.27 24.08 C4.64 19.05, 9.02 14.01, 21.26 -0.07 M0.27 24.08 C7.06 16.27, 13.85 8.45, 21.26 -0.07 M0 30.48 C8.24 21, 16.48 11.53, 26.25 0.29 M0 30.48 C7.92 21.37, 15.84 12.26, 26.25 0.29 M-0.26 36.88 C7.41 28.06, 15.08 19.23, 31.89 -0.1 M-0.26 36.88 C9.53 25.62, 19.31 14.37, 31.89 -0.1 M1.45 41.01 C8.88 32.46, 16.31 23.91, 36.88 0.26 M1.45 41.01 C10.89 30.15, 20.33 19.29, 36.88 0.26 M6.44 41.37 C19.83 25.97, 33.22 10.56, 42.52 -0.14 M6.44 41.37 C16.38 29.93, 26.33 18.48, 42.52 -0.14 M12.08 40.98 C24.28 26.94, 36.48 12.9, 47.51 0.22 M12.08 40.98 C19.51 32.43, 26.95 23.88, 47.51 0.22 M17.07 41.34 C31.24 25.04, 45.4 8.74, 53.15 -0.17 M17.07 41.34 C30.58 25.79, 44.09 10.25, 53.15 -0.17 M22.71 40.94 C36.25 25.36, 49.8 9.78, 58.14 0.19 M22.71 40.94 C34.77 27.06, 46.84 13.19, 58.14 0.19 M27.7 41.3 C40.18 26.95, 52.66 12.59, 63.78 -0.21 M27.7 41.3 C41.46 25.47, 55.23 9.63, 63.78 -0.21 M33.34 40.91 C42 30.95, 50.65 20.99, 68.77 0.15 M33.34 40.91 C44.37 28.22, 55.4 15.53, 68.77 0.15 M38.33 41.27 C50.22 27.58, 62.12 13.9, 74.41 -0.24 M38.33 41.27 C49.92 27.93, 61.52 14.59, 74.41 -0.24 M43.97 40.87 C54.86 28.34, 65.76 15.81, 79.4 0.12 M43.97 40.87 C51.71 31.97, 59.45 23.07, 79.4 0.12 M48.96 41.23 C59.76 28.81, 70.55 16.39, 85.04 -0.28 M48.96 41.23 C58.42 30.35, 67.88 19.47, 85.04 -0.28 M54.6 40.84 C61.87 32.48, 69.13 24.12, 90.03 0.08 M54.6 40.84 C61.76 32.6, 68.93 24.36, 90.03 0.08 M59.59 41.2 C69.19 30.16, 78.79 19.11, 95.67 -0.31 M59.59 41.2 C70.99 28.08, 82.4 14.96, 95.67 -0.31 M65.23 40.8 C73.26 31.57, 81.29 22.33, 100.66 0.05 M65.23 40.8 C73.96 30.76, 82.69 20.72, 100.66 0.05 M70.22 41.16 C80.96 28.81, 91.7 16.45, 106.3 -0.34 M70.22 41.16 C78.83 31.25, 87.45 21.35, 106.3 -0.34 M75.2 41.52 C86.68 28.32, 98.16 15.12, 111.29 0.02 M75.2 41.52 C88.87 25.81, 102.53 10.09, 111.29 0.02 M80.85 41.13 C92.12 28.17, 103.39 15.2, 116.27 0.38 M80.85 41.13 C88.99 31.77, 97.12 22.41, 116.27 0.38 M85.83 41.49 C95.99 29.81, 106.14 18.13, 121.92 -0.02 M85.83 41.49 C95.59 30.26, 105.35 19.04, 121.92 -0.02 M91.48 41.1 C102.37 28.56, 113.27 16.03, 126.91 0.34 M91.48 41.1 C103.25 27.55, 115.02 14.01, 126.91 0.34 M96.46 41.46 C109.99 25.9, 123.51 10.34, 132.55 -0.05 M96.46 41.46 C105.01 31.63, 113.55 21.8, 132.55 -0.05 M102.11 41.06 C112.82 28.74, 123.53 16.42, 137.54 0.31 M102.11 41.06 C110.38 31.55, 118.64 22.04, 137.54 0.31 M107.09 41.42 C118.38 28.43, 129.67 15.45, 143.18 -0.09 M107.09 41.42 C115.63 31.6, 124.17 21.78, 143.18 -0.09 M112.74 41.03 C126.74 24.92, 140.74 8.81, 148.17 0.27 M112.74 41.03 C122.09 30.27, 131.43 19.52, 148.17 0.27 M117.73 41.39 C127.34 30.32, 136.96 19.26, 153.81 -0.12 M117.73 41.39 C127.56 30.07, 137.4 18.75, 153.81 -0.12 M123.37 40.99 C135.24 27.34, 147.11 13.68, 158.8 0.24 M123.37 40.99 C137.47 24.76, 151.58 8.54, 158.8 0.24 M128.36 41.35 C137.83 30.45, 147.31 19.54, 164.44 -0.16 M128.36 41.35 C142.47 25.12, 156.58 8.88, 164.44 -0.16 M134 40.96 C145.59 27.63, 157.18 14.29, 169.43 0.2 M134 40.96 C143.02 30.58, 152.04 20.2, 169.43 0.2 M138.99 41.32 C152.87 25.35, 166.75 9.38, 175.07 -0.19 M138.99 41.32 C149.17 29.6, 159.36 17.88, 175.07 -0.19 M144.63 40.92 C152.88 31.44, 161.12 21.95, 180.06 0.17 M144.63 40.92 C155.09 28.89, 165.55 16.86, 180.06 0.17 M149.62 41.28 C163.04 25.83, 176.47 10.39, 185.7 -0.23 M149.62 41.28 C159.72 29.66, 169.82 18.04, 185.7 -0.23 M155.26 40.89 C168.36 25.82, 181.45 10.75, 190.69 0.13 M155.26 40.89 C163.25 31.69, 171.25 22.49, 190.69 0.13 M160.25 41.25 C168.21 32.08, 176.18 22.92, 196.33 -0.26 M160.25 41.25 C173.3 26.23, 186.36 11.21, 196.33 -0.26 M165.89 40.85 C176.94 28.14, 187.98 15.44, 201.32 0.1 M165.89 40.85 C179.9 24.73, 193.92 8.61, 201.32 0.1 M170.88 41.21 C184.68 25.33, 198.49 9.44, 206.96 -0.3 M170.88 41.21 C183.48 26.72, 196.08 12.22, 206.96 -0.3 M176.52 40.82 C186.77 29.03, 197.02 17.24, 211.95 0.06 M176.52 40.82 C190.62 24.59, 204.73 8.37, 211.95 0.06 M181.51 41.18 C194.72 25.98, 207.93 10.78, 217.59 -0.33 M181.51 41.18 C192.6 28.42, 203.69 15.66, 217.59 -0.33 M187.15 40.78 C200.92 24.95, 214.69 9.11, 222.58 0.03 M187.15 40.78 C196.73 29.77, 206.3 18.75, 222.58 0.03 M192.14 41.14 C204.25 27.21, 216.37 13.27, 228.22 -0.36 M192.14 41.14 C204.59 26.82, 217.04 12.49, 228.22 -0.36 M197.12 41.5 C209.84 26.88, 222.56 12.25, 233.21 0 M197.12 41.5 C207.69 29.34, 218.26 17.18, 233.21 0 M202.77 41.11 C213.83 28.39, 224.89 15.66, 238.19 0.36 M202.77 41.11 C210.39 32.34, 218.01 23.58, 238.19 0.36 M207.75 41.47 C221.45 25.71, 235.15 9.95, 243.84 -0.04 M207.75 41.47 C221.85 25.26, 235.94 9.05, 243.84 -0.04 M213.4 41.08 C226.6 25.89, 239.8 10.7, 248.82 0.32 M213.4 41.08 C224.51 28.29, 235.62 15.51, 248.82 0.32 M218.38 41.44 C230.12 27.93, 241.87 14.42, 254.47 -0.07 M218.38 41.44 C230.34 27.68, 242.3 13.93, 254.47 -0.07 M224.03 41.04 C232.9 30.84, 241.77 20.63, 259.45 0.29 M224.03 41.04 C233.98 29.59, 243.93 18.14, 259.45 0.29 M229.01 41.4 C239.88 28.9, 250.75 16.4, 265.1 -0.11 M229.01 41.4 C240.83 27.81, 252.64 14.22, 265.1 -0.11 M234.66 41.01 C246.52 27.36, 258.39 13.71, 270.08 0.25 M234.66 41.01 C241.77 32.82, 248.89 24.63, 270.08 0.25 M239.64 41.37 C249.55 29.97, 259.46 18.57, 275.73 -0.14 M239.64 41.37 C248.1 31.64, 256.56 21.9, 275.73 -0.14 M245.29 40.97 C254.92 29.89, 264.56 18.8, 280.71 0.22 M245.29 40.97 C252.41 32.78, 259.54 24.58, 280.71 0.22 M250.27 41.33 C260.01 30.14, 269.74 18.94, 286.36 -0.18 M250.27 41.33 C262.97 26.72, 275.67 12.11, 286.36 -0.18 M255.92 40.94 C268.81 26.11, 281.7 11.28, 291.34 0.18 M255.92 40.94 C264.88 30.63, 273.84 20.31, 291.34 0.18 M260.9 41.3 C274.13 26.08, 287.36 10.86, 296.99 -0.21 M260.9 41.3 C268.96 32.03, 277.01 22.77, 296.99 -0.21 M266.55 40.9 C279.36 26.16, 292.18 11.41, 301.32 0.9 M266.55 40.9 C279.47 26.04, 292.39 11.17, 301.32 0.9 M271.53 41.26 C280.44 31.02, 289.34 20.77, 301.06 7.3 M271.53 41.26 C278.48 33.27, 285.42 25.28, 301.06 7.3 M277.18 40.87 C284.48 32.47, 291.78 24.06, 301.45 12.94 M277.18 40.87 C282.42 34.84, 287.67 28.8, 301.45 12.94 M282.16 41.23 C287.25 35.37, 292.35 29.52, 301.19 19.34 M282.16 41.23 C286.33 36.44, 290.49 31.65, 301.19 19.34 M287.81 40.83 C291 37.17, 294.19 33.5, 301.58 24.99 M287.81 40.83 C291.78 36.26, 295.76 31.68, 301.58 24.99 M292.79 41.19 C295.47 38.12, 298.14 35.05, 301.32 31.38 M292.79 41.19 C294.91 38.76, 297.03 36.32, 301.32 31.38 M298.44 40.8 C299.19 39.93, 299.95 39.06, 301.06 37.78 M298.44 40.8 C299.32 39.79, 300.2 38.77, 301.06 37.78" stroke="#4c6ef5" stroke-width="0.5" fill="none"></path><path d="M0 0 C106.43 0, 212.87 0, 300.29 0 M0 0 C88.88 0, 177.76 0, 300.29 0 M300.29 0 C300.29 15.83, 300.29 31.65, 300.29 40 M300.29 0 C300.29 15.24, 300.29 30.49, 300.29 40 M300.29 40 C206.17 40, 112.05 40, 0 40 M300.29 40 C237.22 40, 174.15 40, 0 40 M0 40 C0 29.72, 0 19.44, 0 0 M0 40 C0 30.17, 0 20.34, 0 0" stroke="#000000" stroke-width="1" fill="none"></path></g><g stroke-opacity="0.7" fill-opacity="0.7" stroke-linecap="round" transform="translate(160.31083505599872 516.0117667420031) rotate(333.434948822922 20 27.77708763999658)"><path d="M0 0 C0 0, 0 0, 0 0 M0 0 C0 0, 0 0, 0 0 M-0.83 13.31 C2.19 9.28, 7.16 5.69, 11.82 -1.49 M0.75 11.58 C4.07 7.25, 8.72 2.5, 11.1 -0.48 M2.03 25.99 C7.04 17.89, 15.14 7.01, 22.59 1.79 M0.03 23.97 C5.72 17.69, 10.37 12.65, 20.86 -0.33 M-1.97 37.4 C6.65 27.88, 18.19 15.87, 31.94 -1.24 M0.22 36.16 C8 26.75, 17.26 17.2, 31.37 0.57 M-1.29 49.01 C12.55 35.8, 26.69 17.72, 41.81 -0.36 M-0.1 48.64 C13.78 32.83, 27.42 16.94, 41.11 0.72 M3.33 58.3 C15.58 39.23, 30.7 22.99, 40.85 12.83 M3.06 57.38 C10.61 47.94, 21.38 37.75, 41.41 13.81 M13.95 59.29 C22.37 48.92, 31.63 36.19, 41.07 24.72 M13.5 57.14 C19.3 51.08, 26.12 41.87, 41.84 25.79 M23.85 56.66 C29.14 52.7, 35.38 45.5, 40.34 37.06 M24.07 58.66 C27.2 53.05, 32.69 47.88, 41.55 37.48 M34.87 57.34 C37.33 55.88, 38.76 51.48, 40.39 49.36 M34.89 57.37 C36.07 56.19, 38.38 53.72, 41.27 50.69 M-0.34 55.26 C-0.34 55.26, -0.34 55.26, -0.34 55.26 M-0.34 55.26 C-0.34 55.26, -0.34 55.26, -0.34 55.26 M13.37 55.21 C9.37 51.45, 3.83 47.23, -1.38 45.75 M12.8 56.01 C7.3 52.27, 3.04 47.05, -0.5 44 M25.63 55.31 C16.53 49.17, 10.22 45.04, 0.65 33.82 M24.57 56.52 C14.85 48.3, 5.48 39.13, 1.05 35.1 M37.49 57.32 C24.11 46.17, 13.93 34.46, -1.4 24.34 M37.25 55.84 C26.49 46.78, 17.37 40.43, -0.41 24.69 M43.32 50.51 C27.47 37.34, 10.53 20.94, 1.03 13.1 M44.19 51.04 C31.35 41.47, 18.83 30.18, -0.16 13.64 M44.35 39.87 C31.72 32.45, 22.9 24.92, 0.18 2.59 M43.7 40 C30.18 28.69, 18.1 17.4, -0.05 3.2 M42.7 29.15 C30.35 17.01, 14.45 2.6, 5.16 -6.58 M43.82 29.67 C32.9 19.6, 21.32 9.73, 3.64 -4.82 M44.01 20.36 C33.15 10.92, 22.75 0.27, 15.6 -3.09 M43.83 18.76 C37.26 13.94, 32.49 7.52, 16.79 -4.31 M45.71 7.58 C41.29 6.08, 35.4 1.96, 28.88 -5.44 M43.43 8.57 C37.65 3.74, 32.71 -0.78, 27.46 -4.29" stroke="#868e96" stroke-width="1" fill="none"></path><path d="M-1.3 -1.42 C12.05 -0.99, 22.21 -1.27, 39.95 0.11 M-0.23 0.9 C11.26 -0.64, 21.32 0.51, 40.56 0.85 M41.27 1.43 C39.49 9.5, 40.34 22.28, 39.97 54.66 M40.69 -0.83 C39.34 10.43, 39.33 23.17, 40.41 54.75 M40.87 55.12 C31.11 56.77, 18.59 53.86, 1.12 54.81 M40.56 54.56 C26.65 54.97, 15.01 55.26, 0.89 56.03 M1.19 54.59 C0.03 42.66, -1.04 31.62, 1.83 -1.25 M0.32 54.95 C-0.29 42.51, 0.81 29.01, 0.39 -0.22" stroke="#000000" stroke-width="2" fill="none"></path></g><g transform="translate(370 290) rotate(0 60.5 12.5)"><text x="0" y="18" font-family="Virgil, Segoe UI Emoji" font-size="20px" fill="#000000" text-anchor="start" style="white-space: pre;" direction="ltr">PageOverlay</text></g><g stroke-linecap="round"><g transform="translate(222.86717679128014 230) rotate(0 103.65873626552548 21.212814337139093)"><path d="M-0.27 -1.83 C29.25 -4.3, 142.19 -27.21, 176.46 -17.02 C210.72 -6.84, 200.05 46.1, 205.33 59.29 M-3.87 3.35 C25.58 1.53, 139.78 -23.31, 175.62 -13.54 C211.47 -3.76, 205.57 50.21, 211.18 62.02" stroke="#495057" stroke-width="2" fill="none"></path></g><g transform="translate(222.86717679128014 230) rotate(0 103.65873626552548 21.212814337139093)"><path d="M193.68 39.67 C199.62 40.6, 203.08 51.82, 214.26 59.59 M196.85 35.1 C202.95 45.63, 206.9 55.15, 211.11 60.09" stroke="#495057" stroke-width="2" fill="none"></path></g><g transform="translate(222.86717679128014 230) rotate(0 103.65873626552548 21.212814337139093)"><path d="M213.91 36.2 C214.22 38.04, 212.11 50.22, 214.26 59.59 M217.08 31.62 C216.49 43.09, 213.77 53.75, 211.11 60.09" stroke="#495057" stroke-width="2" fill="none"></path></g></g></svg>