<svg version="1.1" xmlns="http://www.w3.org/2000/svg" viewBox="0 0 576.1245095469058 420">
  <g stroke-linecap="round" transform="translate(10 10) rotate(0 170.28570992606 200)"><path d="M1.2 -0.68 C70.54 2.2, 141.34 1.6, 339.97 0.19 M-0.13 0.32 C100.97 -2.62, 201.88 -2.54, 340.92 0.34 M339.77 0.68 C342.11 138.9, 340.4 278.7, 339.84 400 M340.09 -0.16 C339.08 129.57, 338.37 259.31, 340.35 400.09 M339.92 398.92 C222.43 399.47, 102.84 400.54, -0.96 399.38 M341.21 399.49 C226.09 399.25, 111.71 398.58, 0.38 399.6 M1.05 400.06 C-2.31 250.29, -2.52 99.63, 0.69 0.47 M0.53 399.45 C-1.94 299.92, -1.34 200.55, 0.16 -0.13" stroke="#000000" stroke-width="1" fill="none"></path></g><g stroke-linecap="round" transform="translate(30 30) rotate(0 150.1435091444887 20)"><path d="M0 0 C0 0, 0 0, 0 0 M0 0 C0 0, 0 0, 0 0 M-0.26 6.4 C0.93 5.02, 2.13 3.65, 4.99 0.36 M-0.26 6.4 C0.99 4.96, 2.24 3.51, 4.99 0.36 M0.13 12.04 C3.94 7.66, 7.75 3.28, 10.63 -0.03 M0.13 12.04 C3.02 8.72, 5.91 5.4, 10.63 -0.03 M-0.13 18.44 C5.98 11.42, 12.08 4.4, 15.62 0.33 M-0.13 18.44 C3.62 14.13, 7.37 9.81, 15.62 0.33 M0.27 24.08 C6.67 16.71, 13.08 9.35, 21.26 -0.07 M0.27 24.08 C6.56 16.85, 12.85 9.61, 21.26 -0.07 M0 30.48 C7.58 21.76, 15.16 13.04, 26.25 0.29 M0 30.48 C10.38 18.55, 20.75 6.62, 26.25 0.29 M-0.26 36.88 C8.24 27.1, 16.74 17.32, 31.89 -0.1 M-0.26 36.88 C10.77 24.19, 21.8 11.5, 31.89 -0.1 M1.45 41.01 C11.73 29.19, 22 17.37, 36.88 0.26 M1.45 41.01 C14.3 26.22, 27.16 11.44, 36.88 0.26 M6.44 41.37 C18.66 27.31, 30.88 13.26, 42.52 -0.14 M6.44 41.37 C20.66 25.01, 34.88 8.65, 42.52 -0.14 M12.08 40.98 C21.94 29.64, 31.8 18.29, 47.51 0.22 M12.08 40.98 C19.72 32.18, 27.37 23.39, 47.51 0.22 M17.07 41.34 C26.23 30.8, 35.39 20.26, 53.15 -0.17 M17.07 41.34 C30.19 26.24, 43.32 11.14, 53.15 -0.17 M22.71 40.94 C32.22 30, 41.74 19.05, 58.14 0.19 M22.71 40.94 C31.59 30.73, 40.47 20.51, 58.14 0.19 M27.7 41.3 C40.84 26.18, 53.99 11.05, 63.78 -0.21 M27.7 41.3 C37.95 29.5, 48.21 17.7, 63.78 -0.21 M33.34 40.91 C40.57 32.59, 47.8 24.27, 68.77 0.15 M33.34 40.91 C47.02 25.17, 60.69 9.44, 68.77 0.15 M38.33 41.27 C47.43 30.8, 56.53 20.33, 74.41 -0.24 M38.33 41.27 C49.52 28.39, 60.71 15.51, 74.41 -0.24 M43.97 40.87 C56.59 26.35, 69.21 11.84, 79.4 0.12 M43.97 40.87 C56.8 26.11, 69.64 11.34, 79.4 0.12 M48.96 41.23 C60.79 27.62, 72.62 14.01, 85.04 -0.28 M48.96 41.23 C60.43 28.04, 71.9 14.84, 85.04 -0.28 M54.6 40.84 C66.1 27.61, 77.59 14.39, 90.03 0.08 M54.6 40.84 C66.7 26.92, 78.8 13, 90.03 0.08 M59.59 41.2 C67.89 31.65, 76.18 22.11, 95.67 -0.31 M59.59 41.2 C70.61 28.52, 81.63 15.84, 95.67 -0.31 M65.23 40.8 C73.6 31.17, 81.98 21.54, 100.66 0.05 M65.23 40.8 C76.15 28.25, 87.06 15.69, 100.66 0.05 M70.22 41.16 C78.34 31.82, 86.46 22.48, 106.3 -0.34 M70.22 41.16 C84.4 24.85, 98.59 8.53, 106.3 -0.34 M75.2 41.52 C87.75 27.09, 100.29 12.66, 111.29 0.02 M75.2 41.52 C84.87 30.4, 94.54 19.28, 111.29 0.02 M80.85 41.13 C88.21 32.66, 95.57 24.19, 116.27 0.38 M80.85 41.13 C88.74 32.05, 96.63 22.98, 116.27 0.38 M85.83 41.49 C94.57 31.44, 103.31 21.39, 121.92 -0.02 M85.83 41.49 C94.81 31.16, 103.79 20.83, 121.92 -0.02 M91.48 41.1 C102.15 28.81, 112.83 16.53, 126.91 0.34 M91.48 41.1 C104.16 26.51, 116.84 11.92, 126.91 0.34 M96.46 41.46 C104.83 31.83, 113.2 22.21, 132.55 -0.05 M96.46 41.46 C107.31 28.98, 118.16 16.5, 132.55 -0.05 M102.11 41.06 C111.2 30.6, 120.29 20.15, 137.54 0.31 M102.11 41.06 C112.2 29.46, 122.28 17.85, 137.54 0.31 M107.09 41.42 C119.97 26.61, 132.84 11.8, 143.18 -0.09 M107.09 41.42 C117.74 29.18, 128.38 16.94, 143.18 -0.09 M112.74 41.03 C121.69 30.73, 130.64 20.43, 148.17 0.27 M112.74 41.03 C120.2 32.45, 127.66 23.86, 148.17 0.27 M117.73 41.39 C131.62 25.4, 145.52 9.41, 153.81 -0.12 M117.73 41.39 C129.46 27.89, 141.19 14.39, 153.81 -0.12 M123.37 40.99 C133.89 28.89, 144.4 16.79, 158.8 0.24 M123.37 40.99 C132.75 30.2, 142.13 19.41, 158.8 0.24 M128.36 41.35 C136.06 32.49, 143.76 23.63, 164.44 -0.16 M128.36 41.35 C139.43 28.61, 150.5 15.88, 164.44 -0.16 M134 40.96 C141.96 31.8, 149.92 22.65, 169.43 0.2 M134 40.96 C144.59 28.78, 155.17 16.6, 169.43 0.2 M138.99 41.32 C148.58 30.28, 158.18 19.24, 175.07 -0.19 M138.99 41.32 C152.6 25.66, 166.21 10, 175.07 -0.19 M144.63 40.92 C155.24 28.72, 165.85 16.51, 180.06 0.17 M144.63 40.92 C154.76 29.27, 164.88 17.62, 180.06 0.17 M149.62 41.28 C160.27 29.02, 170.93 16.76, 185.7 -0.23 M149.62 41.28 C160.27 29.03, 170.93 16.77, 185.7 -0.23 M155.26 40.89 C162.8 32.21, 170.35 23.53, 190.69 0.13 M155.26 40.89 C166.63 27.81, 178 14.73, 190.69 0.13 M160.25 41.25 C174.04 25.38, 187.83 9.51, 196.33 -0.26 M160.25 41.25 C168.98 31.2, 177.72 21.14, 196.33 -0.26 M165.89 40.85 C175.98 29.24, 186.08 17.63, 201.32 0.1 M165.89 40.85 C173.72 31.85, 181.55 22.84, 201.32 0.1 M170.88 41.21 C182.99 27.28, 195.1 13.35, 206.96 -0.3 M170.88 41.21 C178.84 32.05, 186.8 22.89, 206.96 -0.3 M176.52 40.82 C185.85 30.09, 195.18 19.35, 211.95 0.06 M176.52 40.82 C188.03 27.58, 199.54 14.34, 211.95 0.06 M181.51 41.18 C192.06 29.04, 202.61 16.9, 217.59 -0.33 M181.51 41.18 C190.73 30.57, 199.96 19.95, 217.59 -0.33 M187.15 40.78 C198.63 27.57, 210.12 14.36, 222.58 0.03 M187.15 40.78 C197.54 28.83, 207.92 16.88, 222.58 0.03 M192.14 41.14 C203.6 27.96, 215.06 14.77, 228.22 -0.36 M192.14 41.14 C206.34 24.8, 220.55 8.46, 228.22 -0.36 M197.12 41.5 C206.92 30.23, 216.72 18.96, 233.21 0 M197.12 41.5 C208.26 28.69, 219.4 15.88, 233.21 0 M202.77 41.11 C210.02 32.77, 217.26 24.43, 238.19 0.36 M202.77 41.11 C213.51 28.75, 224.26 16.39, 238.19 0.36 M207.75 41.47 C219.94 27.45, 232.13 13.43, 243.84 -0.04 M207.75 41.47 C217.7 30.03, 227.64 18.59, 243.84 -0.04 M213.4 41.08 C223.12 29.89, 232.85 18.7, 248.82 0.32 M213.4 41.08 C223.13 29.88, 232.87 18.67, 248.82 0.32 M218.38 41.44 C232.21 25.53, 246.03 9.63, 254.47 -0.07 M218.38 41.44 C226.33 32.29, 234.29 23.14, 254.47 -0.07 M224.03 41.04 C237.38 25.68, 250.74 10.31, 259.45 0.29 M224.03 41.04 C231.84 32.05, 239.65 23.07, 259.45 0.29 M229.01 41.4 C239.71 29.1, 250.4 16.8, 265.1 -0.11 M229.01 41.4 C239.52 29.31, 250.03 17.23, 265.1 -0.11 M234.66 41.01 C244.91 29.21, 255.17 17.41, 270.08 0.25 M234.66 41.01 C244.38 29.82, 254.11 18.63, 270.08 0.25 M239.64 41.37 C253.86 25.01, 268.07 8.66, 275.73 -0.14 M239.64 41.37 C252.56 26.5, 265.48 11.64, 275.73 -0.14 M245.29 40.97 C256.54 28.02, 267.8 15.07, 280.71 0.22 M245.29 40.97 C259.21 24.96, 273.13 8.94, 280.71 0.22 M250.27 41.33 C258.24 32.17, 266.2 23.01, 286.36 -0.18 M250.27 41.33 C257.96 32.49, 265.65 23.65, 286.36 -0.18 M255.92 40.94 C266.39 28.89, 276.87 16.84, 291.34 0.18 M255.92 40.94 C268.44 26.53, 280.96 12.12, 291.34 0.18 M260.9 41.3 C273.52 26.78, 286.14 12.27, 296.99 -0.21 M260.9 41.3 C274.25 25.95, 287.59 10.6, 296.99 -0.21 M266.55 40.9 C279.94 25.5, 293.33 10.09, 301.32 0.9 M266.55 40.9 C278.93 26.66, 291.31 12.42, 301.32 0.9 M271.53 41.26 C282.8 28.3, 294.07 15.34, 301.06 7.3 M271.53 41.26 C279.33 32.29, 287.13 23.32, 301.06 7.3 M277.18 40.87 C283.88 33.15, 290.59 25.44, 301.45 12.94 M277.18 40.87 C282.57 34.66, 287.96 28.46, 301.45 12.94 M282.16 41.23 C288.74 33.66, 295.33 26.09, 301.19 19.34 M282.16 41.23 C286.99 35.68, 291.81 30.13, 301.19 19.34 M287.81 40.83 C293.14 34.69, 298.48 28.55, 301.58 24.99 M287.81 40.83 C293.25 34.57, 298.7 28.3, 301.58 24.99 M292.79 41.19 C295.35 38.25, 297.91 35.31, 301.32 31.38 M292.79 41.19 C294.65 39.06, 296.51 36.92, 301.32 31.38 M298.44 40.8 C299.13 40, 299.83 39.2, 301.06 37.78 M298.44 40.8 C299.33 39.77, 300.23 38.74, 301.06 37.78" stroke="#15aabf" stroke-width="0.5" fill="none"></path><path d="M0 0 C84.54 0, 169.09 0, 300.29 0 M0 0 C76.52 0, 153.04 0, 300.29 0 M300.29 0 C300.29 13.45, 300.29 26.9, 300.29 40 M300.29 0 C300.29 8.44, 300.29 16.88, 300.29 40 M300.29 40 C216.6 40, 132.92 40, 0 40 M300.29 40 C199.14 40, 98 40, 0 40 M0 40 C0 24.88, 0 9.76, 0 0 M0 40 C0 25.36, 0 10.71, 0 0" stroke="#000000" stroke-width="1" fill="none"></path></g><g stroke-linecap="round" transform="translate(29.124509546905756 350) rotate(0 150.1435091444887 20)"><path d="M0 0 C0 0, 0 0, 0 0 M0 0 C0 0, 0 0, 0 0 M-0.26 6.4 C1.66 4.19, 3.58 1.97, 4.99 0.36 M-0.26 6.4 C1.18 4.75, 2.61 3.09, 4.99 0.36 M0.13 12.04 C2.76 9.02, 5.39 5.99, 10.63 -0.03 M0.13 12.04 C3.22 8.48, 6.32 4.93, 10.63 -0.03 M-0.13 18.44 C5.59 11.86, 11.31 5.28, 15.62 0.33 M-0.13 18.44 C3.53 14.23, 7.2 10.01, 15.62 0.33 M0.27 24.08 C7.68 15.56, 15.09 7.03, 21.26 -0.07 M0.27 24.08 C5.1 18.52, 9.94 12.96, 21.26 -0.07 M0 30.48 C9.38 19.7, 18.75 8.91, 26.25 0.29 M0 30.48 C9.85 19.16, 19.69 7.83, 26.25 0.29 M-0.26 36.88 C12.08 22.68, 24.42 8.49, 31.89 -0.1 M-0.26 36.88 C6.75 28.81, 13.76 20.75, 31.89 -0.1 M1.45 41.01 C11.82 29.08, 22.19 17.15, 36.88 0.26 M1.45 41.01 C11.83 29.07, 22.22 17.12, 36.88 0.26 M6.44 41.37 C20.03 25.73, 33.63 10.09, 42.52 -0.14 M6.44 41.37 C14.93 31.6, 23.43 21.82, 42.52 -0.14 M12.08 40.98 C24.23 27, 36.38 13.02, 47.51 0.22 M12.08 40.98 C22.73 28.73, 33.37 16.48, 47.51 0.22 M17.07 41.34 C27.67 29.14, 38.27 16.95, 53.15 -0.17 M17.07 41.34 C27.26 29.62, 37.44 17.9, 53.15 -0.17 M22.71 40.94 C33.65 28.36, 44.58 15.78, 58.14 0.19 M22.71 40.94 C30.96 31.45, 39.21 21.96, 58.14 0.19 M27.7 41.3 C35.82 31.96, 43.93 22.62, 63.78 -0.21 M27.7 41.3 C41.42 25.51, 55.14 9.73, 63.78 -0.21 M33.34 40.91 C41.11 31.97, 48.88 23.04, 68.77 0.15 M33.34 40.91 C42.12 30.8, 50.91 20.7, 68.77 0.15 M38.33 41.27 C52.35 25.14, 66.37 9.01, 74.41 -0.24 M38.33 41.27 C51.78 25.79, 65.24 10.31, 74.41 -0.24 M43.97 40.87 C55.73 27.35, 67.48 13.82, 79.4 0.12 M43.97 40.87 C51.94 31.7, 59.92 22.53, 79.4 0.12 M48.96 41.23 C60.9 27.5, 72.84 13.76, 85.04 -0.28 M48.96 41.23 C60.7 27.72, 72.45 14.21, 85.04 -0.28 M54.6 40.84 C66.36 27.31, 78.12 13.79, 90.03 0.08 M54.6 40.84 C67.55 25.94, 80.5 11.05, 90.03 0.08 M59.59 41.2 C71.37 27.65, 83.14 14.1, 95.67 -0.31 M59.59 41.2 C71.33 27.7, 83.06 14.19, 95.67 -0.31 M65.23 40.8 C77.02 27.24, 88.82 13.67, 100.66 0.05 M65.23 40.8 C79.14 24.81, 93.05 8.81, 100.66 0.05 M70.22 41.16 C83.85 25.49, 97.47 9.81, 106.3 -0.34 M70.22 41.16 C80.37 29.48, 90.53 17.8, 106.3 -0.34 M75.2 41.52 C85.18 30.05, 95.16 18.57, 111.29 0.02 M75.2 41.52 C87.88 26.94, 100.55 12.36, 111.29 0.02 M80.85 41.13 C88.48 32.35, 96.11 23.57, 116.27 0.38 M80.85 41.13 C92.36 27.88, 103.88 14.64, 116.27 0.38 M85.83 41.49 C97.83 27.69, 109.83 13.89, 121.92 -0.02 M85.83 41.49 C93.36 32.83, 100.88 24.18, 121.92 -0.02 M91.48 41.1 C102.05 28.93, 112.63 16.76, 126.91 0.34 M91.48 41.1 C98.88 32.58, 106.28 24.07, 126.91 0.34 M96.46 41.46 C107.25 29.05, 118.03 16.65, 132.55 -0.05 M96.46 41.46 C105.6 30.95, 114.74 20.44, 132.55 -0.05 M102.11 41.06 C109.69 32.34, 117.26 23.63, 137.54 0.31 M102.11 41.06 C113.01 28.52, 123.91 15.98, 137.54 0.31 M107.09 41.42 C114.36 33.06, 121.63 24.7, 143.18 -0.09 M107.09 41.42 C117.77 29.14, 128.45 16.85, 143.18 -0.09 M112.74 41.03 C122.54 29.75, 132.34 18.48, 148.17 0.27 M112.74 41.03 C120.47 32.14, 128.19 23.25, 148.17 0.27 M117.73 41.39 C128.35 29.16, 138.97 16.94, 153.81 -0.12 M117.73 41.39 C127.45 30.2, 137.17 19.02, 153.81 -0.12 M123.37 40.99 C135.06 27.54, 146.75 14.09, 158.8 0.24 M123.37 40.99 C136.08 26.37, 148.79 11.75, 158.8 0.24 M128.36 41.35 C137.75 30.55, 147.14 19.74, 164.44 -0.16 M128.36 41.35 C136.58 31.89, 144.8 22.43, 164.44 -0.16 M134 40.96 C146.23 26.89, 158.46 12.81, 169.43 0.2 M134 40.96 C147.1 25.88, 160.21 10.81, 169.43 0.2 M138.99 41.32 C146.54 32.63, 154.08 23.95, 175.07 -0.19 M138.99 41.32 C151.54 26.88, 164.09 12.44, 175.07 -0.19 M144.63 40.92 C152.49 31.88, 160.35 22.83, 180.06 0.17 M144.63 40.92 C155.75 28.13, 166.87 15.34, 180.06 0.17 M149.62 41.28 C159.71 29.67, 169.81 18.05, 185.7 -0.23 M149.62 41.28 C161.43 27.69, 173.25 14.1, 185.7 -0.23 M155.26 40.89 C168.99 25.09, 182.72 9.3, 190.69 0.13 M155.26 40.89 C164.99 29.69, 174.72 18.5, 190.69 0.13 M160.25 41.25 C168.86 31.34, 177.48 21.42, 196.33 -0.26 M160.25 41.25 C174.2 25.2, 188.15 9.14, 196.33 -0.26 M165.89 40.85 C179.98 24.64, 194.08 8.42, 201.32 0.1 M165.89 40.85 C178.59 26.24, 191.29 11.63, 201.32 0.1 M170.88 41.21 C181.01 29.56, 191.14 17.9, 206.96 -0.3 M170.88 41.21 C180.53 30.1, 190.19 19, 206.96 -0.3 M176.52 40.82 C188.45 27.1, 200.38 13.37, 211.95 0.06 M176.52 40.82 C186.9 28.87, 197.29 16.93, 211.95 0.06 M181.51 41.18 C189.76 31.68, 198.02 22.18, 217.59 -0.33 M181.51 41.18 C189.95 31.47, 198.39 21.75, 217.59 -0.33 M187.15 40.78 C194.8 31.98, 202.46 23.17, 222.58 0.03 M187.15 40.78 C195.23 31.48, 203.32 22.18, 222.58 0.03 M192.14 41.14 C204.19 27.28, 216.24 13.42, 228.22 -0.36 M192.14 41.14 C201.93 29.88, 211.73 18.61, 228.22 -0.36 M197.12 41.5 C210.69 25.9, 224.26 10.29, 233.21 0 M197.12 41.5 C209.23 27.57, 221.34 13.64, 233.21 0 M202.77 41.11 C212.51 29.9, 222.26 18.68, 238.19 0.36 M202.77 41.11 C212.96 29.39, 223.15 17.66, 238.19 0.36 M207.75 41.47 C218.03 29.65, 228.3 17.83, 243.84 -0.04 M207.75 41.47 C215.28 32.81, 222.81 24.15, 243.84 -0.04 M213.4 41.08 C226.14 26.41, 238.89 11.75, 248.82 0.32 M213.4 41.08 C224.45 28.36, 235.5 15.64, 248.82 0.32 M218.38 41.44 C230.6 27.38, 242.82 13.33, 254.47 -0.07 M218.38 41.44 C227.86 30.53, 237.34 19.62, 254.47 -0.07 M224.03 41.04 C235.48 27.86, 246.94 14.68, 259.45 0.29 M224.03 41.04 C234.51 28.98, 244.99 16.93, 259.45 0.29 M229.01 41.4 C238.47 30.52, 247.92 19.65, 265.1 -0.11 M229.01 41.4 C241.11 27.49, 253.2 13.57, 265.1 -0.11 M234.66 41.01 C246.32 27.59, 257.98 14.17, 270.08 0.25 M234.66 41.01 C245.72 28.28, 256.79 15.55, 270.08 0.25 M239.64 41.37 C250.74 28.6, 261.85 15.83, 275.73 -0.14 M239.64 41.37 C249.93 29.53, 260.22 17.7, 275.73 -0.14 M245.29 40.97 C258.36 25.93, 271.44 10.88, 280.71 0.22 M245.29 40.97 C257.92 26.44, 270.55 11.91, 280.71 0.22 M250.27 41.33 C259.52 30.7, 268.76 20.07, 286.36 -0.18 M250.27 41.33 C264.47 25, 278.67 8.66, 286.36 -0.18 M255.92 40.94 C265.23 30.22, 274.54 19.51, 291.34 0.18 M255.92 40.94 C268.15 26.86, 280.39 12.78, 291.34 0.18 M260.9 41.3 C268.71 32.31, 276.52 23.33, 296.99 -0.21 M260.9 41.3 C274.01 26.22, 287.12 11.14, 296.99 -0.21 M266.55 40.9 C275.53 30.57, 284.51 20.24, 301.32 0.9 M266.55 40.9 C277.6 28.19, 288.65 15.48, 301.32 0.9 M271.53 41.26 C278.19 33.61, 284.84 25.96, 301.06 7.3 M271.53 41.26 C280.95 30.43, 290.37 19.59, 301.06 7.3 M277.18 40.87 C282.79 34.41, 288.41 27.95, 301.45 12.94 M277.18 40.87 C282.87 34.32, 288.56 27.78, 301.45 12.94 M282.16 41.23 C286.88 35.8, 291.6 30.37, 301.19 19.34 M282.16 41.23 C286.11 36.68, 290.07 32.14, 301.19 19.34 M287.81 40.83 C291.75 36.3, 295.7 31.76, 301.58 24.99 M287.81 40.83 C293.01 34.85, 298.22 28.86, 301.58 24.99 M292.79 41.19 C296.02 37.49, 299.24 33.78, 301.32 31.38 M292.79 41.19 C296.18 37.29, 299.57 33.39, 301.32 31.38 M298.44 40.8 C299.37 39.73, 300.3 38.65, 301.06 37.78 M298.44 40.8 C299.36 39.74, 300.29 38.67, 301.06 37.78" stroke="#4c6ef5" stroke-width="0.5" fill="none"></path><path d="M0 0 C88.9 0, 177.8 0, 300.29 0 M0 0 C104.25 0, 208.5 0, 300.29 0 M300.29 0 C300.29 12.98, 300.29 25.97, 300.29 40 M300.29 0 C300.29 13.93, 300.29 27.87, 300.29 40 M300.29 40 C199.54 40, 98.79 40, 0 40 M300.29 40 C187.35 40, 74.42 40, 0 40 M0 40 C0 30.02, 0 20.03, 0 0 M0 40 C0 30.87, 0 21.73, 0 0" stroke="#000000" stroke-width="1" fill="none"></path></g><g transform="translate(441.12450954690576 179) rotate(0 62.5 12.5)"><text x="0" y="18" font-family="Virgil, Segoe UI Emoji" font-size="20px" fill="#000000" text-anchor="start" style="white-space: pre;" direction="ltr">PageContent</text></g><g stroke-linecap="round"><g transform="translate(290.7085197361739 186.83118475264223) rotate(0 67.46255327413837 1.4848139580651605)"><path d="M-1.13 1.05 C21.49 1.35, 113.31 2.43, 136.06 2.42 M0.48 0.56 C22.96 0.5, 113.1 0.62, 135.44 0.89" stroke="#495057" stroke-width="2" fill="none"></path></g><g transform="translate(290.7085197361739 186.83118475264223) rotate(0 67.46255327413837 1.4848139580651605)"><path d="M108.95 12.05 C118.27 7.86, 125.22 5.13, 135.15 1.78 M107.05 11.16 C113.96 9.06, 120.79 6.41, 134.48 1.19" stroke="#495057" stroke-width="2" fill="none"></path></g><g transform="translate(290.7085197361739 186.83118475264223) rotate(0 67.46255327413837 1.4848139580651605)"><path d="M109.07 -8.47 C118.46 -5.94, 125.36 -1.94, 135.15 1.78 M107.17 -9.36 C114.08 -6.27, 120.87 -3.72, 134.48 1.19" stroke="#495057" stroke-width="2" fill="none"></path></g></g><g stroke-linecap="round" transform="translate(69.12450954690576 90) rotate(0 110 10.14083878787892)"><path d="M0 0 C0 0, 0 0, 0 0 M0 0 C0 0, 0 0, 0 0 M-1.03 5.97 C1.12 4.23, 2.53 3.21, 4.98 0.18 M0.06 6.79 C1.68 4.57, 3.08 2.94, 5.2 0.28 M0.86 12.85 C2.98 9.49, 3.83 5.78, 11.83 -0.63 M-0.05 12.18 C3.82 9.04, 6.89 5.47, 11.01 0.1 M-0.14 20.33 C2.76 15.62, 5.8 10.04, 15.34 1.11 M-0.74 19.37 C3.51 13.25, 7.7 10.11, 15.04 0.31 M1.55 20.75 C9.07 12.95, 13.98 9.94, 22.29 0.52 M2.01 21.62 C9.81 13.28, 16.54 5.09, 21.01 -0.7 M8.65 21.11 C13.51 17.76, 17.39 12.21, 25.93 1.42 M8.18 22.19 C13.19 15.76, 18.16 7.52, 26.27 0.06 M14.62 23.49 C21.43 12.07, 26.26 6.76, 32.15 -1.55 M13.55 22.35 C18.14 16.34, 22.23 9.64, 32.71 -0.96 M16.87 21.87 C26.7 15.3, 33.23 6.94, 36.83 -1.46 M18.05 21.65 C22.33 15.41, 28.23 9.49, 37.44 -0.59 M25.07 23.53 C26.29 18.95, 31.39 13.93, 41.53 -1.49 M23.59 20.83 C30.69 13.97, 36.56 7.35, 41.82 0.21 M30.31 22.64 C34.55 14.65, 36.23 9.14, 46.57 -1.26 M28.57 23.03 C34.21 14.85, 41.64 6.29, 48.05 -0.41 M32.68 21.9 C41.7 16.53, 44.47 10.53, 54.68 0.75 M35 20.94 C39.27 15.39, 45.67 8.66, 52.21 -0.08 M38.45 22.2 C42.63 18.18, 45.98 12.91, 60.11 0.86 M39.01 22.03 C45.26 14.67, 50.32 8.35, 58.86 1.06 M43.65 20.18 C51.02 13.24, 57.18 8.03, 64.28 -0.22 M43.93 21.73 C51.57 12.95, 58.54 4.71, 64.06 -0.53 M51.23 21.92 C55.56 13.2, 65.78 4.86, 68.86 0.29 M48.89 22.6 C57.4 14.82, 64.68 5.2, 67.95 -0.52 M53.99 21.27 C58.68 18.69, 64.8 11.89, 75.44 0.78 M55.16 22.27 C62.68 14.51, 69.68 5.33, 73.81 0.39 M59.02 21.74 C65.55 14.98, 71.7 8.32, 78.64 0.98 M60.05 22.89 C63.65 16.91, 68.27 13.69, 78.64 -0.25 M64.09 22.37 C69.92 13.95, 77.19 8.08, 85.73 -0.51 M64.71 22.55 C72.6 14.88, 78.89 6.08, 84.19 0.44 M72.63 20.13 C75.52 14.6, 82.36 12.44, 89.75 -0.54 M70.58 21.26 C76.99 16.66, 81.2 9.82, 89.55 -0.04 M74.83 23.51 C79.22 17.38, 84.91 10.6, 97.14 -1.79 M75.92 22.07 C83.47 15.32, 88.37 6.88, 96.21 -0.44 M83.3 22.16 C90.04 14.39, 94.72 5.21, 100.88 0.82 M80.88 22.31 C87.05 15.08, 92.44 8.86, 100.59 -0.55 M86.17 20.52 C93.74 15.59, 97.3 9.17, 108.1 -2.2 M86.07 22.77 C91.9 17.4, 96.03 10.94, 107.16 -0.04 M90.71 23.43 C99.36 14.34, 104.39 8.63, 113.2 -1.31 M91.61 22.86 C98.03 15.28, 104.57 6, 110.94 0.76 M96.5 21.78 C101.67 17.95, 107.37 11.97, 116.83 -1.55 M97.71 21.83 C102.38 14.59, 108.76 7.39, 115.96 0.78 M102.99 22.12 C109.9 16.56, 115.22 9.22, 122.3 -0.71 M103.72 21.93 C110.19 14.06, 117.81 4.96, 121.06 -0.35 M106.67 20.27 C111.98 14.98, 119.71 11.53, 127.95 0.63 M108.68 21.62 C114.8 14.68, 121.07 6.75, 127.77 1.15 M112.69 22.97 C117.98 12.85, 125.8 7.17, 134.19 1.38 M114.43 22.76 C120.51 12.69, 128.54 4.49, 132.7 -0.89 M119.96 21.51 C123.58 16.05, 131.16 10.17, 136.55 1.65 M118.11 21.77 C122.79 17.02, 128.09 11.93, 138.08 0.66 M124.81 21.29 C127.85 17.46, 135.24 8.68, 141.34 0.31 M123.26 20.83 C129.64 15.33, 134.23 8.77, 142.88 -0.66 M130.08 23.56 C135.22 16.35, 137.06 9.19, 146.8 0.64 M128.39 23.08 C135.55 14.32, 143.63 6.61, 147.3 0.36 M136.78 22.94 C141.03 14.36, 148.21 4.5, 154.66 -0.05 M134 21.81 C141.65 15.54, 146.98 7.47, 153.9 -0.25 M141.18 21.09 C143.23 16.81, 148.74 12.62, 159.33 -0.75 M139.2 21.62 C144.52 15.94, 152.02 9.29, 158.13 -0.46 M146.47 20.34 C149.14 13.99, 156.46 8.16, 163.48 0.78 M144.72 21.62 C151.97 15.64, 158.05 8.33, 165.37 -1.02 M151.85 21.3 C157.08 16.03, 161.35 7.93, 171.2 1.74 M149.51 22.64 C156.37 15.96, 161.57 8.46, 169.54 -0.31 M156.19 20.48 C163.54 15.33, 167.58 8.19, 175.58 -0.18 M155.78 22.37 C161.26 14.09, 167.16 7.37, 174.14 -1.11 M159.11 23.95 C166.71 15.48, 173.08 6.84, 179.9 -1.1 M161.56 22.62 C167.84 15.13, 174.38 6.3, 180.81 0.54 M164.02 21.67 C171.91 14.26, 178.65 10.13, 185.17 -1.37 M165.15 23.17 C173.61 13.56, 181.12 5.06, 186.37 0.56 M170.44 21.39 C175.62 14.31, 182.39 8.52, 191.36 0.1 M170.89 21.26 C179.29 13.71, 185.63 7.25, 191.46 0.01 M178.47 22.52 C181.93 16.5, 186.41 8.8, 196.91 -0.62 M177.06 23.05 C184.41 14.09, 192.94 4.96, 195.5 0.28 M183.72 22.5 C188.31 13, 194.88 6.1, 199.96 1.26 M182.28 21.49 C188.3 15.45, 193.09 7.57, 201.32 0.26 M186.49 22.45 C195.41 13.29, 203.05 3.44, 205.88 0.77 M188.06 21.56 C193.57 15.84, 198.17 8.57, 206.22 -0.44 M191.31 20.75 C197.42 15.28, 203.44 10.45, 212.49 0.88 M193.85 21.44 C196.91 18.39, 200.49 12.5, 212.5 -0.34 M196.14 22.71 C204.3 12.86, 211.28 6.65, 217.61 -1.93 M197.62 21.7 C204.75 14.62, 213.23 4.69, 218.54 -0.87 M203.97 22.16 C209.35 13.88, 216.22 10.2, 222.91 1.52 M202.94 22.47 C208.3 16.11, 213.43 11.23, 222.07 2.32 M207.92 23.1 C211.5 18.9, 215.57 14.98, 221.51 6.66 M209.51 22.67 C212.21 18.32, 215.21 14.68, 221.18 6.5 M214.59 21.56 C214.79 19.1, 218.25 18.37, 222.28 12.62 M214.2 21.48 C216.37 19.11, 219.23 16.29, 221.08 13.86 M-0.23 20.08 C-0.23 20.08, -0.23 20.08, -0.23 20.08 M-0.23 20.08 C-0.23 20.08, -0.23 20.08, -0.23 20.08 M5.77 20.14 C5.43 19.25, 3.65 18.93, 0.36 15.83 M6.49 20.12 C4.34 18.64, 1.94 16.74, -0.13 15.03 M12.77 18.96 C9.14 18.09, 5.96 15.59, -0.51 8.6 M13.33 21.35 C7.65 16.49, 2.93 13.17, 0.4 9.17 M19.5 20.35 C13.06 18.21, 10.55 12.78, -0.84 3.91 M19.12 20.27 C14.18 16.63, 9.76 13.87, -0.07 4.44 M23.73 19.77 C17.98 17.42, 16.69 12.39, 0.32 -0.59 M25.11 20.36 C17.43 14.74, 11.71 9.93, 0.9 -0.36 M30.39 21.73 C23.4 14.59, 11.87 5.11, 4.97 -1.86 M31.08 19.46 C25.05 15.97, 20.56 10.71, 7.22 0.15 M35.14 21.83 C31.46 15.39, 25.88 10.2, 11.47 0.91 M36.93 21.13 C27.81 12.01, 18 5.02, 13.39 0.23 M41.55 21.47 C36.2 16.17, 32.76 12.16, 18.03 0.16 M43.4 21.45 C34.02 13.26, 25.16 3.99, 19.63 0.44 M49.72 21.47 C42.58 14.49, 36.05 9.49, 25.72 -2.25 M48.1 20.1 C40.56 13.3, 31.61 5.47, 24.35 -0.9 M56.89 19.65 C47.84 13.73, 41.39 8.3, 30.93 -2.19 M55.62 19.59 C46.49 13.71, 39.42 7.61, 29.97 -1.38 M62.58 21.86 C51.93 12.4, 43.44 3.97, 38.43 -2.2 M60.06 19.8 C54.89 15.06, 49 9.66, 37.5 0.17 M68.98 18.87 C61.19 14.46, 49.43 6.86, 41.99 -1.92 M66.84 20.44 C57.61 13.22, 49.18 4.64, 42.58 -1.2 M74.04 21.39 C63.63 12.86, 55.24 4.13, 49.1 -0.49 M73.29 19.64 C67.17 15.23, 61.5 9.3, 49.58 -1.39 M80.11 21.66 C72.65 16.2, 66.86 9.26, 53.95 -1.49 M78.67 21.1 C72.13 13.5, 62.63 7.1, 54.1 -0.67 M86.58 19.06 C80.36 14.45, 73.82 8.09, 61.95 -0.11 M86.3 21.26 C78.46 15.61, 73.6 9.74, 60.86 -1.22 M90.99 19.11 C86.5 17.08, 80.16 10.53, 66.74 -0.11 M92.02 19.89 C85.42 16.6, 80.73 11.96, 68.2 -0.57 M97.4 18.38 C88.59 12.39, 77.42 4.52, 74.89 -0.18 M98.13 20.52 C88.61 11.65, 79.43 3.62, 74.16 -0.41 M105.53 19.51 C99.29 15.26, 93.64 10.81, 78.48 -0.42 M103.83 21.02 C97.05 13.67, 89.31 8.97, 80.56 0.56 M111.36 20.79 C100.72 12.89, 89.59 1.64, 84.25 0.76 M109.36 20.81 C104.22 13.95, 97.01 10.04, 85.56 -0.81 M115.8 21.76 C109.95 12.09, 100.2 7.66, 89.98 -0.54 M116.04 19.94 C107.85 13.55, 96.88 5.43, 91.43 0.37 M121.77 18.27 C112.56 12.91, 102.8 5.64, 97.57 1.38 M120.83 19.75 C117.3 15.05, 111.16 9.96, 99.18 -0.41 M126.59 19.29 C120 13.82, 112.88 4.6, 105.73 -0.65 M128.16 21.28 C122.75 15.41, 118.39 11.08, 104.56 0.09 M135.13 22.02 C127.38 13.96, 124.38 9.84, 110.55 -1.04 M134.45 19.85 C126.42 12.02, 116.6 5.17, 110.17 0.04 M140.37 21.43 C133.25 11.26, 123.69 3.05, 114.67 -2.4 M140.21 20.24 C134.91 15.54, 128.66 10.73, 115.99 -0.86 M148.11 19.86 C141.41 15.61, 133.64 10.16, 123.6 1.31 M146.11 19.84 C141.13 15.3, 134.31 8.68, 123.22 -0.99 M154.02 18.08 C145.46 13.93, 134.93 4.98, 126.91 -0.19 M151.5 19.25 C146.25 16.84, 142.84 11.2, 128.8 -0.16 M160.08 20.12 C150.79 11.95, 138 3.88, 134.8 0.12 M158.27 20.68 C153.33 16.15, 148.82 11.71, 133.53 -0.5 M163.65 20.34 C156.3 11.81, 148.35 5.15, 142.77 0.13 M165.38 20.59 C157.63 15.36, 151.64 8.15, 140.09 -1.26 M170.12 21.02 C163.94 15.49, 158.05 10.66, 144.69 -0.34 M170.91 20.85 C163.72 14.14, 156.99 8.61, 145.61 -0.25 M177.53 21.93 C173.61 14.76, 166.33 13.31, 153.23 1.3 M176.2 19.82 C171.6 15.58, 166.09 11.31, 153.49 -1.4 M181.7 19.38 C172.94 12.14, 165.88 2.37, 160.97 1.44 M182.29 19.06 C172.52 12.8, 164.76 4.73, 159.97 -0.14 M188.62 19.09 C183.31 13.05, 175.15 7.58, 164.99 -0.09 M189.86 19.67 C184.34 16.47, 179.44 12.62, 164.18 -0.27 M195.52 19.22 C185.91 14.08, 180.36 8.58, 171.55 1.53 M195.7 20.92 C189.36 15.11, 183.62 10.57, 172.18 -0.81 M199.57 19.97 C194.68 16.54, 189.36 12.08, 177.16 -0.85 M200.81 19.42 C193.95 13.85, 187.95 7.66, 177.59 -1.36 M206.44 21.15 C200.79 14.92, 196.32 12.57, 185.01 -1.46 M208.46 20.26 C202.51 15.03, 197.48 11.09, 183.33 0.29 M211.47 21.26 C206.39 15.49, 203.89 12.27, 190.05 1.4 M212.75 19.6 C207.67 15.84, 202.87 9.25, 190.22 -1.24 M220.02 18.31 C214.37 14.35, 206.08 10.18, 195.63 -1.01 M220.43 21.12 C213.51 13.48, 206.4 8.14, 195.02 0.26 M220.83 17.62 C218.39 13.3, 214.08 8.72, 202.15 -2.33 M221.66 17.31 C214.08 11.33, 205.95 3.72, 202.56 -0.28 M224.45 13.89 C219.4 9.5, 216.9 4.56, 208.13 -2.02 M221.93 13.2 C218.46 8.93, 216.59 7.76, 208.17 -0.58 M222.92 6.09 C219.23 5.31, 217.9 2.12, 214.27 -0.54 M221.93 6.44 C218.83 3.76, 216.06 1.57, 213.73 -0.59" stroke="#e64980" stroke-width="0.5" fill="none"></path><path d="M0.95 0.18 C73.98 1.06, 146.7 1.84, 221.48 -1.19 M0.51 -0.09 C65.22 -0.35, 131.98 0.6, 219.66 0.46 M220.57 1.36 C219.89 7.45, 218.76 16.61, 221.02 18.64 M219.13 0.46 C219.21 6.7, 220.3 12.71, 219.52 20.51 M219.17 20.89 C136.27 20.45, 55.59 20.64, 0.48 21.46 M220.49 20.11 C168.2 19.78, 115.3 18.77, 0.26 19.48 M-0.48 19.22 C-0.57 13.89, 1.05 9.37, -1.18 0.27 M0.75 19.39 C0.97 13.72, -0.89 6.28, 0.46 0.4" stroke="#000000" stroke-width="1" fill="none"></path></g><g stroke-linecap="round" transform="translate(69.12450954690576 117) rotate(0 89.5 9.91306365966409)"><path d="M0 0 C0 0, 0 0, 0 0 M0 0 C0 0, 0 0, 0 0 M-0.29 5.8 C1.4 4.56, 2.96 2.6, 5.01 -0.37 M0.04 6.41 C1.47 4.63, 3.24 2.43, 4.59 0.35 M0.88 11.89 C2.58 7.1, 7.3 4.47, 10.44 -0.17 M0.78 12.45 C3.34 9.49, 5.49 6.46, 10.02 -0.74 M-0.92 19.72 C3.87 12, 10.11 6.99, 14.43 -0.31 M-0.34 17.7 C5.86 12.24, 10.75 5.23, 15.8 0.64 M3.09 19.83 C6.9 18.26, 13.1 11.27, 23.05 0.75 M2.48 21.81 C7.53 15.65, 13.4 8.15, 20.83 0.87 M9.49 22.81 C15.6 14.61, 21.95 5.93, 26.57 1.47 M7.96 22.05 C13.46 12.97, 21.18 5.68, 27.01 -0.5 M14.1 20.5 C19.17 14.53, 28.11 2.71, 31.29 1.81 M13.2 22.27 C17.85 14.65, 25.23 7.37, 32.48 -0.64 M19.75 22.98 C23.44 18.04, 25.69 11.51, 36.71 0.94 M16.86 21.62 C21.1 17.64, 26.25 12.32, 36.02 -0.49 M22.05 23.49 C27.08 18.18, 30.69 10.62, 43.07 -1.2 M24.34 20.98 C28.1 16.94, 31.05 12.75, 42.1 0.5 M29.77 20.32 C32.13 13.74, 38.94 7.24, 48.53 1.73 M27.69 22.49 C33.6 15.47, 39.38 9.36, 47.49 -0.52 M35.87 23.15 C39.82 15.95, 49.23 7.19, 52.78 0.11 M33.94 21.38 C38.74 16.42, 40.9 12.87, 52.25 -0.54 M38.55 22.73 C43.11 16.13, 51.43 10.93, 58.16 1.99 M39.73 21.22 C44.37 15.41, 50.43 10.79, 58.37 0.44 M44.93 20.42 C51.9 14.56, 59.05 6.08, 65.27 -1.3 M44.33 21.1 C49.62 14.99, 55.76 9.22, 64.76 0.63 M48.17 21.92 C56.36 15.73, 61.1 9.03, 70.14 -1.51 M50.2 22.82 C55.56 15.52, 58.92 9.97, 67.88 -0.37 M55.05 22.79 C63.37 13.65, 69.07 8.31, 75.82 0.11 M56.09 22.03 C60.42 15.84, 64.12 11.46, 74.76 -0.38 M59.16 22.16 C63.37 17.91, 68.36 13.01, 77.48 -1.5 M59.58 21.52 C67.43 14.5, 73.78 5.25, 79.55 0.53 M64.46 20.3 C71.07 15.36, 77.64 8.95, 86.12 -1.61 M66.13 22.27 C72.5 13.51, 79.12 6.39, 84.64 -0.75 M70.48 20.29 C77.97 17.34, 82.08 8.25, 89.61 -0.09 M71.66 22.76 C76.27 15.71, 81.85 9.06, 89.15 0.81 M75.85 21.58 C84.45 11.49, 92.17 3.96, 96.35 0.21 M77.61 22.1 C81.44 14.97, 88.17 8.88, 96.08 -0.43 M83.53 21.69 C85.69 15.18, 89.98 13.14, 100.4 -0.86 M81.49 21.23 C86.03 16.12, 90.61 11.05, 100.77 0.39 M88.35 21.79 C90.61 17.1, 98.69 8.85, 105.09 0.78 M87.97 22.08 C93.43 14.15, 100.08 8.15, 106.05 -0.16 M94.16 20.33 C99.53 14.29, 105.15 8, 112.15 -0.83 M91.41 22.81 C97.42 14.11, 103.78 8.98, 110.76 -0.62 M97.49 22.68 C104.86 14.91, 111.12 5.15, 116.7 0.61 M96.95 20.94 C103.37 13.67, 109.97 7.64, 116.14 1.29 M104.64 22.73 C109.1 16.34, 112.48 10.54, 123.61 1.55 M103.04 22.6 C110.1 13.93, 115.72 5.58, 121.74 0.12 M107.29 20.54 C116.58 15.63, 123.3 6.3, 127.96 -1.48 M108.55 21.65 C113.55 15.09, 120.47 9.47, 127.19 0.12 M111.68 19.97 C118.34 15.61, 125.27 11.64, 133.97 -1.59 M113.28 20.93 C121.09 12.6, 127.53 4.65, 132.65 -0.82 M118.18 22.25 C126.92 14.92, 132.46 6.24, 136.12 0.18 M119.07 21.4 C126.74 13.76, 133.11 6.56, 137.35 0.01 M122.43 23.7 C130.95 13.58, 135.35 7.17, 142.83 0.42 M124.32 21.35 C127.75 16.53, 132.1 12.14, 142.67 -0.67 M130.36 21.99 C134.94 11.43, 142.82 4.96, 149.52 -0.96 M128.42 22.34 C135.06 16.3, 139.24 9.65, 148.7 1.09 M134.49 22.12 C140.66 13.05, 147.28 8.08, 154.27 0.82 M135.6 22.62 C140.71 15, 146.55 8.4, 153.28 -0.42 M138.46 22.23 C144.82 16.97, 151.59 8.07, 158.94 1.11 M138.77 22.59 C145.63 16.93, 149.38 9.84, 158.61 0.71 M143.88 20 C149.92 15.66, 152.7 13.18, 164.78 -0.59 M145.89 22.72 C153.2 14.19, 160.7 4.55, 164.25 -0.87 M151.57 22.28 C156.87 12.89, 165.1 8.64, 169.58 0.99 M150.6 22.75 C156.43 14.65, 163.28 7.02, 169.74 -0.54 M157.07 22.68 C161.45 15.25, 169.87 6.48, 175.28 -1.45 M155.21 20.85 C160.58 14.68, 165.81 8.42, 175.62 -0.57 M159.86 23.25 C165.17 15.9, 172.06 7.97, 180.44 2.57 M161.32 22.86 C166.82 15, 173.2 9.05, 179.37 1.88 M166.95 20.06 C170.8 19.45, 171.92 14.1, 181.25 5.96 M166.86 21.43 C172.39 15.27, 177.9 10.36, 179.81 6.91 M170.65 21.31 C173.42 19.41, 176.3 17.21, 180.07 12.46 M172.25 21.54 C174.39 19.72, 176.61 16.92, 179.52 13.31 M177.21 21.82 C177.83 20.57, 179.23 19.44, 180.3 18.81 M177.33 21.72 C178.06 20.98, 178.3 20.36, 180.09 18.47 M-0.01 19.82 C-0.01 19.82, -0.01 19.82, -0.01 19.82 M-0.01 19.82 C-0.01 19.82, -0.01 19.82, -0.01 19.82 M6.65 19.96 C4.75 17.8, 2.08 17.12, 0.24 15.5 M6.74 20.13 C3.99 17.76, 1.45 15.98, 0.27 15.11 M11.53 19.18 C8.92 17.26, 6.01 14.58, -1.59 10.62 M12.3 20.43 C8.1 15.84, 4.64 12.58, 0.23 9.01 M18.2 18.13 C12.76 14.32, 6.63 7.98, 1.97 6.15 M17.97 20.74 C15.16 16.06, 11.83 12.7, 0.47 4.93 M24.44 18.02 C17.51 13.67, 9.31 5.33, 0.41 0.36 M23.87 19.46 C18.72 15.91, 14.35 11.2, 0.21 -1.32 M30.04 20.38 C21.66 12.38, 11.99 3.4, 5.9 0.52 M31.06 19.59 C21.96 12.08, 12.31 4.03, 6.41 -0.57 M34.91 18.58 C30.35 13.99, 22.99 4.87, 13.82 0.69 M36.32 20.51 C27.54 12.47, 17.66 4.22, 13.47 -1.59 M43.64 19.24 C35.48 13.65, 26.36 5.57, 17.89 0.04 M42.24 19.28 C35.9 13.5, 29.8 9.67, 18.2 -1.53 M50.09 19.9 C41.17 15.08, 34.18 8.33, 25.2 0.65 M49.32 19.82 C39.16 11.48, 30.44 4.29, 24.37 -0.59 M54.53 19.98 C47.22 13.74, 39.31 5.34, 32.65 0.41 M54.5 19.52 C45.71 13.15, 37.72 4.27, 30.54 -1.58 M59.99 21.7 C56.57 15.62, 49.72 10.43, 36.03 -0.01 M61.01 19.64 C52 13.06, 43.7 5.11, 36.57 -1.33 M65.43 21.09 C60.19 12.47, 49.5 4.44, 42.63 0.49 M66.88 19.93 C59.28 13.56, 51.04 5.73, 43.74 -1.52 M74.29 21.59 C66.09 15.2, 61.22 9.68, 47.94 1.03 M73.05 19.78 C64.38 10.89, 55.03 4.17, 48.76 -1.57 M79.23 19.65 C73.04 13.98, 66.59 11.31, 56.68 -2.28 M79.42 19.37 C70.65 13.53, 64.47 7.32, 54.36 -1.97 M83.12 19.75 C79.7 15.72, 73.82 11.07, 63.28 0.63 M85.39 20.27 C79.05 13.45, 72.45 9.07, 61.13 0.1 M91.52 19.28 C83.47 13.19, 77.65 5.56, 68.88 0.75 M91.71 19.87 C82 11.26, 73.1 3.79, 68.02 -0.64 M97.77 19.57 C90.85 13.8, 82.67 5.29, 74.07 -0.42 M97.01 20 C90.15 13.99, 81.99 6.17, 74.44 -0.35 M103.59 19.49 C95 11.34, 86.95 2.79, 79.46 -1.2 M103.87 20.05 C96.64 13.31, 88.23 6.53, 80.34 -0.99 M111.75 21.04 C101.68 14.91, 96.71 8.07, 86.79 -0.8 M108.91 20.15 C100.94 11.94, 93.27 5.29, 86.72 -1.69 M115.15 20.37 C110.95 15.42, 104.37 10.15, 91.35 -2.35 M115.31 19.74 C109.72 13.61, 103.19 7.4, 91.49 -0.32 M121.23 20.68 C112.93 11.81, 104.45 5.11, 99.07 -1.95 M122.65 20.04 C114.63 15.05, 108.03 8.79, 98.02 -0.87 M129.09 19.22 C120.24 10.77, 112.25 5.98, 103.17 0.98 M127.46 20.62 C122.73 15.19, 116.07 9.54, 103.18 -0.34 M134.09 20.91 C126.71 13.32, 121.34 9.67, 108.77 1.26 M133.29 20.58 C127.33 14.94, 122.12 8.85, 111.43 -1.55 M140.51 19.93 C129.54 11.99, 123.48 4.25, 117.99 -0.98 M140.77 19.66 C135.98 15.59, 131.13 11.71, 115.37 -0.56 M146.63 18.74 C138.82 12.42, 129.98 6.79, 122.4 0.52 M146.18 18.9 C140.35 15.93, 136.5 11.7, 123.57 -0.23 M153.17 20.94 C145.61 13.03, 139.32 11.29, 128.05 1.24 M153.25 19 C146.5 15.57, 141.09 10, 129.09 0.39 M160.36 18.36 C152.56 15.76, 145.83 10.59, 136.17 -0.59 M159.73 20.98 C149.86 13.69, 142.32 6.93, 135.58 -0.82 M164.56 20.58 C157.39 15.35, 150.46 9.59, 139.78 -2.32 M165.42 19.32 C156.43 11.53, 148.36 4.56, 141.36 0.14 M170.94 20.57 C166.52 13.43, 161.81 10.28, 144.75 -1.92 M170.32 19.08 C161.55 11.16, 152.82 4.73, 145.91 -2.03 M174.56 17.73 C171.22 13.55, 165.32 9.24, 154.29 -1.07 M177.09 18.55 C169.07 13.08, 162.47 7.77, 153.77 -1.5 M182.49 16.75 C176.47 11.77, 168.59 7.07, 157.98 -2.11 M180.66 17.67 C171.51 10.37, 163.98 3.32, 159.02 -0.7 M181.97 13.31 C175.27 8.83, 172.15 6.01, 164.41 -2.51 M181.8 13.28 C176.96 8.24, 172.95 4.54, 165.41 -1.16 M181.14 7.42 C175.9 2.95, 172.43 1.11, 170.52 -1 M180.04 7.79 C177.57 3.92, 173.59 1.06, 172.04 -0.51 M181.34 2.14 C179.28 1.12, 178.63 0.34, 176.71 -0.71 M180.93 2.27 C179.98 1.32, 178.51 0.35, 177.29 -1.12" stroke="#e64980" stroke-width="0.5" fill="none"></path><path d="M1.42 0.73 C51.05 1.45, 101.06 -1.56, 179 -0.46 M-0.93 -0.61 C51.99 0.68, 103.75 0.72, 179.85 0.64 M178.77 -0.36 C177.7 5.03, 180.06 6.46, 179.01 18.21 M178.39 0.6 C179.29 5.49, 178.35 10.17, 179.74 19.54 M177.61 20.4 C129.15 21.25, 78.37 21.81, -1.27 21.44 M179.28 20.71 C136.5 19.21, 95.74 18.56, -0.05 19.7 M-0.59 19.42 C1.06 16.66, -1.12 11.67, 1.23 -0.83 M0.88 20.6 C-1.11 14.77, 0.31 8.74, -0.86 -0.17" stroke="#000000" stroke-width="1" fill="none"></path></g><g stroke-linecap="round" transform="translate(69.12450954690576 145) rotate(0 110 9.91306365966409)"><path d="M0 0 C0 0, 0 0, 0 0 M0 0 C0 0, 0 0, 0 0 M-0.25 6.35 C1.03 4.77, 2.35 2.74, 5.13 0.99 M-0.15 6.6 C2 3.91, 3.47 1.59, 4.93 0.54 M-0.38 10.61 C4.96 7.22, 7.24 3.45, 9.61 -0.39 M0.83 12.36 C3.74 8.29, 6.08 3.62, 10.9 -0.04 M-1.39 18.19 C5.88 11.98, 11.17 3.41, 16.82 -0.9 M0.07 18.92 C5.51 11.43, 12.45 4.65, 15.18 -0.02 M1.95 23.77 C7.86 17.2, 13.32 12.03, 21.23 -0.52 M1.8 22.15 C7.27 15.05, 12.43 10.47, 22.22 0.64 M8.49 22.87 C11.92 17.22, 17.09 12.05, 27.59 2.21 M6.92 20.73 C13.41 14.71, 19.68 7.79, 27.24 1.17 M11.77 23.42 C20.32 12.03, 26.79 6.96, 32.03 1.26 M12.15 21.48 C20.4 13.03, 26.95 5.54, 30.93 -0.59 M19.44 22.48 C23.05 14.08, 28.38 10.21, 35.02 0.66 M17.2 22.07 C23.41 15.9, 26.76 10.51, 36.07 1.05 M23.07 23.15 C30.07 11.72, 39 3.49, 40.87 0.05 M23.98 21.53 C26.58 17.68, 30.83 13.4, 42.57 0.77 M26.53 20.46 C33.62 13.66, 41.78 9.5, 46.96 0.41 M28.44 21.62 C36.65 12.82, 43.55 4.14, 48.03 -0.5 M32.96 23.68 C41.35 15.73, 45.33 8.32, 51.3 1.58 M34.99 20.81 C37.46 17.01, 41.72 11.68, 52.85 -0.5 M37.91 22.05 C46.97 15.98, 50.84 10.42, 57.69 -0.03 M39.06 21.48 C45.33 16.63, 50.47 9.54, 58.73 -0.36 M44.95 22.28 C49.51 16.86, 54.79 10.86, 63.32 -1.85 M44.17 21.06 C50.94 14.79, 57.45 9.26, 63.78 0.54 M50.81 22.3 C55.6 15.75, 62.48 7.51, 67.92 -1.55 M50.46 21.27 C55.6 13.43, 62.31 5.78, 69.07 -0.22 M57 20.78 C61.09 17.23, 66.1 11.22, 73.37 0.62 M55.8 21.24 C60.09 15.92, 66.5 8.87, 73.67 -0.92 M58.93 22.83 C65.2 16.58, 69.5 7.83, 80.81 -0.53 M60.31 22.77 C67.17 13.23, 75.46 5.53, 79.24 -0.51 M65.53 21.57 C72.59 14.92, 78.7 7.25, 86.3 -1.58 M65.45 21.49 C71.21 15.22, 77.72 7.05, 85.07 0.54 M72.38 23.81 C74.74 16.96, 78.56 12.85, 89.93 -0.76 M70.56 22.04 C74.74 16.69, 78.69 12.53, 90.69 -0.5 M77.36 19.61 C85.03 12.24, 91.07 6.39, 95.44 -0.45 M75.94 21.23 C82.19 15.35, 87.28 9.35, 94.85 0.52 M81.73 19.98 C87.57 15.92, 93 7.43, 99.33 -1.45 M81.42 21.3 C88.02 14.08, 94.63 7.62, 100.17 -0.18 M85.78 22.43 C92.98 15.04, 93.97 13.4, 106.52 -1.45 M87.4 21.04 C94.6 14.13, 100.11 6.4, 106.14 -1.12 M93.96 20.65 C101.13 12.49, 107.23 4.73, 111.45 -1.29 M91.42 21.03 C99.63 13.81, 106.98 3.76, 111.71 -0.36 M98.49 22.1 C103.58 13.63, 108.52 9.96, 117.07 1.29 M97.23 20.77 C102.5 16.6, 107.4 11.68, 115.7 0.42 M104.5 21.67 C109.03 14.25, 116.29 9.67, 123.21 1.63 M103.34 21.92 C107.82 14.71, 114.32 8.48, 122.62 -0.62 M109.65 23.27 C113.43 17.57, 117.16 11.19, 127.02 1.95 M108.11 21.44 C113.8 17.19, 117.62 11.1, 126.54 -0.07 M113.24 21.48 C122.16 15.63, 128.73 4.85, 133.94 1.76 M114.26 20.86 C121.19 12.58, 128.61 4.05, 133.48 0.67 M119.85 23.16 C123.16 17.1, 127.62 10.01, 138.78 -0.5 M120 21.34 C124.46 16.36, 128.45 10.27, 137.98 0.64 M124.48 21.07 C127.73 16, 134.45 10.1, 141.41 -1.87 M123.53 20.98 C127.67 16.87, 131.32 12.43, 144.16 0.38 M127.46 20.28 C134.68 14.44, 144.45 4.73, 147.84 -1.24 M129.49 22.68 C135.9 13.62, 144.77 5.75, 148.28 1.27 M134.95 19.98 C142.49 13.96, 148.93 6.97, 153.85 -1.69 M134.79 21.62 C140.5 14.8, 145.67 7.96, 153.82 0.58 M139.26 23.45 C145.17 15.69, 149.5 12.12, 158.13 -0.9 M140.43 22.67 C144.07 15.87, 149.3 11.58, 157.99 0.77 M145.85 20.34 C149.01 17.79, 154.68 11.37, 165.9 -1.54 M145.95 22.34 C151.74 14.35, 156.12 8.18, 164.88 0.57 M150.48 20.34 C157 17.91, 160.33 11.46, 170.03 -1.58 M149.95 21.98 C157.22 13.69, 164.17 5.69, 169.93 0.27 M154.8 22.81 C160.99 16.37, 165.24 9.87, 174.66 -0.72 M155.21 20.92 C162.3 12.89, 170.77 5.38, 175.06 -1.15 M159.47 22.39 C168.51 12.03, 177.22 6.3, 180.33 1.24 M161.16 21.74 C168.49 14.48, 174.49 7.26, 179.2 -0.83 M167.84 22.64 C171.12 14.92, 178.09 9.7, 187.64 -1.97 M167.05 21.36 C174.44 14.28, 180.92 5.63, 185.35 -0.84 M171.01 21.63 C177.62 16.22, 182.95 9.54, 190.3 -1.41 M172.42 22.32 C176.48 17.14, 179.95 12.94, 191.18 1.04 M175.48 21.62 C183.77 14.46, 190.9 9.12, 194.81 0.57 M178.22 21.88 C183.43 14.04, 192.04 4.81, 196.04 0.46 M180.31 22.64 C187.28 16.09, 195.08 9.39, 201.6 0.09 M181.37 21.28 C187.01 16.6, 192.61 11.34, 201.55 -0.3 M188.66 20.13 C192.59 16.01, 199.19 9.92, 208.58 1.27 M187.78 20.9 C191.22 16.57, 195.96 12.56, 206.67 -1.1 M193.01 22.57 C198.1 17.58, 200.18 13.3, 212.36 1.92 M192.96 21.43 C198.14 15.93, 202.66 10.66, 212.25 -0.82 M198.73 21.09 C204.7 13.13, 212.41 9.67, 215.78 -0.9 M199.05 21.08 C204.16 15.65, 207.89 11.69, 218.09 -0.12 M205.22 23.12 C210.68 15.67, 214.3 10.48, 219.82 0.32 M203.4 22.77 C210.69 15.48, 215.7 6.93, 222.2 1.23 M209.5 21.96 C213.33 16.1, 216.6 12.7, 223.06 9.03 M209.6 21.31 C212.88 16.04, 216.93 11.77, 221.84 7.53 M214.88 22.26 C217.1 18.73, 218.78 18.32, 222.34 13.63 M214.17 22.25 C215.54 20.25, 217.91 17.71, 221.74 13.47 M-0.01 19.82 C-0.01 19.82, -0.01 19.82, -0.01 19.82 M-0.01 19.82 C-0.01 19.82, -0.01 19.82, -0.01 19.82 M6.33 20.84 C4.93 19.38, 3.23 17.88, 0.88 15.48 M6.09 19.82 C4.64 18.73, 3.27 17.71, 0.43 14.88 M12.16 20.42 C9.36 16.79, 8.33 16.41, 1.12 10.64 M12.08 20.47 C7.98 15.35, 2.17 10.9, -0.7 9.71 M19.27 20.17 C12.02 14.73, 5.86 10.97, 1.55 6.02 M18.12 20.53 C12.71 15.07, 6.35 9.48, 1.01 3.77 M25.73 19.78 C17.94 14.22, 11.3 10.31, 1.58 0.23 M24.44 20.31 C17.85 13.8, 11.17 7.15, -0.21 -0.71 M28.52 19.44 C19.5 10.65, 10.76 6.15, 8.84 1.14 M31.11 19.07 C25.25 15.41, 18.47 9.24, 6.55 -1.27 M36.33 19.13 C26.81 13.74, 20.23 3.08, 13.25 -0.34 M36.07 20.32 C28.59 12.86, 17.65 3.09, 11.97 -1.66 M42.28 20.32 C33.8 13.27, 28.27 7.15, 18.78 0.06 M43.22 19.15 C34.18 12.86, 23.93 5.08, 19.3 -0.14 M48.49 19.65 C41.32 10.79, 32.2 5.9, 26.57 -2.23 M48.5 19.36 C41.67 13.76, 34.84 7.68, 24.86 -0.15 M55.25 19.88 C48.5 12.56, 42.83 9.46, 31.27 0.28 M54.38 20.1 C48.78 14.35, 45.53 11.46, 31.89 0.14 M61.39 18.85 C52.93 9.93, 42.1 3.41, 38.2 -1.87 M61.76 20.27 C54.65 14.78, 48.35 8.46, 37.04 0.4 M65.35 20.43 C60.69 14.18, 57.26 10.94, 43.94 -1.49 M66.5 19.12 C59.65 13.06, 53.53 6.43, 42.51 -0.66 M73.89 20.17 C64.8 12.78, 56.36 4.4, 48.97 -1.13 M73.44 19.44 C68.45 14.57, 62.84 11.88, 50.08 -0.19 M78.66 18.86 C69.39 11.52, 61.99 2.96, 54.82 -2.04 M78.54 20.66 C68.9 11.93, 59.9 3.28, 55.66 -0.54 M85.32 17.59 C80.11 15.19, 73.21 12, 60.42 0.67 M85.38 19.5 C75.76 11.25, 66.43 4.79, 61.11 -0.9 M89.95 18.6 C84.45 14.99, 77.83 11.62, 67.19 1.1 M91 20.36 C85.34 13.97, 79.21 7.63, 68.83 -0.63 M96.16 20.32 C94.35 16.29, 89.81 11.64, 71.74 0.12 M98.47 19.95 C90.74 13.57, 81.5 7.11, 73.78 -0.16 M103.7 18.98 C96.28 14.56, 91.69 10.89, 78.46 -1.01 M102.92 20.42 C96.11 13.5, 88.34 6.13, 79.57 0.19 M109.1 18.17 C100.58 14.71, 92.92 8.01, 84.6 -1.64 M109.63 20.53 C101.03 12.15, 92.34 5.51, 85.01 -1.18 M114.79 19.9 C104.89 11.91, 99.79 4.83, 92.75 -0.8 M114.59 20.25 C109.06 15.62, 104.66 9.78, 91.95 -0.76 M121.5 21.46 C116.26 17.29, 110.8 9.71, 99.84 -2.24 M122.3 19.19 C116.31 14.12, 109.46 9.6, 97.79 -1.28 M129.33 18.46 C124.09 14.95, 114.37 8.86, 105.87 -0.78 M128.36 19.16 C119.5 12.32, 108.56 2.3, 103.58 -0.61 M134.42 18.43 C125.67 11.27, 117.96 4.07, 110.48 -0.73 M133.47 19.41 C128.38 15.29, 123.94 9.55, 110.09 -0.55 M141.58 18.39 C130.1 10.61, 121.16 3.03, 118.07 -0.89 M139.58 19.69 C132.99 13.44, 125.16 6.94, 116.33 -0.27 M145.37 19.9 C140.79 15.94, 132.52 7.01, 122.23 -1.62 M146.39 18.92 C141.07 14.33, 134.92 9.69, 123.44 0.13 M150.52 17.92 C145.74 15.84, 141.24 11.13, 130.79 -1.87 M153.18 19.57 C147.48 15.69, 143.2 11.4, 129.14 0.22 M157.02 19.86 C152.01 14.73, 142.82 9.32, 134.49 -1.52 M159.36 20.3 C149.79 13.25, 143.08 5.84, 133.9 -1.59 M164.78 19.19 C159.67 14.21, 150.54 7.9, 139.63 0.16 M164.56 19.09 C156.78 12.88, 149.96 6.89, 140.94 -0.92 M170.24 20.95 C160.89 13.29, 154.05 4.1, 145.11 -0.45 M170.69 20.4 C161.19 12.82, 152.23 3.82, 146.81 -0.8 M175.47 20.91 C167.96 13.59, 157.39 2.83, 154.91 -2.42 M176.46 19.77 C171.55 13.78, 166.34 8.84, 153.22 -1.28 M184.59 18.31 C178.41 16.12, 172.19 10.57, 159.12 -1.26 M183.25 20.25 C179.08 16, 173.43 11.85, 159.55 -0.76 M188.85 19.01 C183.49 15.45, 175.82 8.09, 166.62 0.7 M189.62 20.99 C182.82 15.6, 178.02 11.19, 164.97 -0.9 M195.31 20.99 C189.9 16.9, 183.24 11.85, 169.71 -0.16 M195.41 20.43 C187.94 12.47, 178.22 6.63, 172.5 -1.44 M199.4 20.01 C194.7 13.85, 187.21 6.06, 177.2 -1.62 M201.8 19.4 C196.63 14.59, 189.71 9.98, 177.51 -1.59 M206.09 20.6 C200.95 11.67, 189.94 5.57, 182.8 1.15 M207.85 19.76 C200.25 14.49, 192.85 7.11, 183.6 -1.64 M214.26 20.96 C205.41 14.14, 195.51 3.91, 190.27 -1.3 M214.32 18.82 C207.84 13.8, 200.72 10.3, 189.14 -0.3 M217.8 19.97 C215.1 15.42, 209.65 11.61, 193.98 0.86 M220.26 19.92 C210.03 12.82, 200.35 4.51, 195.32 -1.6 M223.24 16.19 C216.24 9.51, 211.15 6.35, 203.62 -1.65 M222 17.01 C217.03 11.97, 209.52 6.02, 202.23 0.29 M224.43 10.67 C217.69 5.89, 209.51 2.9, 209.27 -2.24 M223.31 12.98 C217.71 7.06, 211.04 1.47, 207.4 -0.34 M223.03 6.17 C220.76 4.68, 218.78 3.24, 213.89 -1.18 M222.11 6.36 C220.15 4.44, 217.74 2.72, 213.82 -0.55" stroke="#fa5252" stroke-width="0.5" fill="none"></path><path d="M1.19 1.42 C69.75 -1.89, 136.54 -1.1, 219.84 1.01 M-0.07 0.43 C63.39 1.62, 128.2 1.71, 219.17 0.25 M218.64 0.99 C220.98 5.67, 219.98 12.97, 219.03 18.1 M220.46 0.52 C219.4 7.09, 220.62 13.45, 219.83 19.35 M220.65 20.51 C146.77 21.55, 71.47 21.77, -1.15 20.81 M219.38 19.59 C158.51 20.72, 96.45 21.41, -0.76 19.62 M1.01 20.87 C-1.11 15.2, 1.29 9.21, -0.21 1.49 M-0.96 20.51 C0.28 16.05, -1.03 11.32, 0.12 -0.18" stroke="#000000" stroke-width="1" fill="none"></path></g><g stroke-linecap="round" transform="translate(248.12450954690576 117.45555025642943) rotate(0 20 9.91306365966409)"><path d="M0 0 C0 0, 0 0, 0 0 M0 0 C0 0, 0 0, 0 0 M-1.06 6.28 C1.95 5.18, 2.79 3.89, 5.32 0.35 M-0.27 6.22 C1.34 4.61, 2.41 2.86, 5.36 0.74 M1.24 12.53 C5.25 7.22, 8.9 3.25, 11.57 1.04 M0.63 11.27 C3.73 7.27, 8.26 3.08, 10 0.76 M-1.41 17.34 C7.46 11.58, 10.49 3.7, 17.53 0.47 M0.36 17.73 C5.26 12.54, 10.51 5.63, 15.08 -0.63 M3.07 23.41 C7.38 16.1, 10.1 10.48, 21.95 -1.93 M1.71 21.17 C8.36 15.56, 13.67 7.14, 20.52 -0.87 M9.61 21 C16.06 12.56, 20.26 6.09, 25.18 -1.36 M7.11 21.91 C13.53 14.03, 19.79 7.77, 26.88 0.34 M11.07 19.83 C18.6 12.16, 26.22 5.56, 33.39 -0.65 M13.25 21.74 C18.06 15.71, 23.8 8.38, 31.15 0.42 M19.29 20.98 C24.13 18.52, 27.42 11.64, 37.16 -1.59 M17.51 23 C24.49 12.76, 32.86 4.32, 36.51 -0.05 M24.15 20.54 C28.18 18.34, 33.61 10.94, 43.02 0.93 M22.64 21.7 C28.04 16.47, 34.62 10.08, 41.46 1.96 M27.22 22.3 C32.41 18.9, 35.01 16.2, 40.51 6.56 M27.9 21.52 C30.71 19.16, 33.86 16.58, 42.44 7.02 M34.06 22.3 C36.97 18.71, 39.61 16.31, 40.42 12.95 M34.55 22.11 C35.2 19.45, 36.81 17.63, 41.06 13.58 M-0.01 19.82 C-0.01 19.82, -0.01 19.82, -0.01 19.82 M-0.01 19.82 C-0.01 19.82, -0.01 19.82, -0.01 19.82 M6.45 19.51 C5.32 18.52, 3.94 16.84, -0.29 15.4 M6.2 20.06 C5.04 18.33, 2.97 17.29, 0.52 14.77 M10.99 19.3 C9.14 17.66, 6.13 15.49, -1.1 10.2 M12.56 19.23 C9.08 16.55, 6.91 14.44, -0.42 9.22 M16.75 21.33 C13.51 13.62, 4.14 7.48, 0.15 4.11 M19.23 19.5 C13.94 15.53, 9.08 11.08, 1.05 4.86 M24.08 20.27 C16.33 16.01, 11.15 10.3, 1.21 -1.02 M24.61 18.85 C16.92 14.36, 10.29 8.27, 0.56 -1.6 M30.23 19.91 C19.53 12.47, 13.29 4.19, 6.16 -1.85 M29.77 19.61 C24.5 15.15, 19.28 10.76, 7.42 -1.01 M37.12 18.58 C31.25 16.19, 21.81 7.35, 13.84 -0.7 M37.41 20.2 C30.36 15.96, 25.25 9.72, 12.9 -1.08 M39.43 20.06 C34.74 16.26, 29.8 10.97, 18.27 -0.49 M41.91 17.53 C34.82 13.37, 31.3 8.72, 18.48 -0.23 M42.53 13.97 C37.63 10.12, 30.75 6.19, 24.99 -0.26 M40.8 12.71 C34.94 7.92, 30.35 3.11, 25.68 -1.63 M41.53 8.79 C37.84 5.47, 34.53 3.73, 32.18 0.05 M41.45 8.03 C37.25 3.94, 33.25 1.12, 31.25 -0.33 M41.1 3.03 C40.91 2.21, 39.63 1.42, 37.1 -0.5 M41.38 2.65 C39.91 1.72, 38.68 0.33, 37.5 -0.62" stroke="#fa5252" stroke-width="0.5" fill="none"></path><path d="M-0.41 1.02 C12.09 -1.06, 22.36 1.36, 39.16 -0.21 M0.78 -0.97 C15.69 0.11, 30.41 -1.22, 39.83 0.12 M38.91 1.62 C38.85 3.93, 39.64 10.95, 39.67 21.51 M39.08 0.07 C39.86 6.37, 40.92 13.01, 39.27 19.85 M38.5 19.87 C31.73 19.8, 23.24 19.86, -1.81 20.17 M40.03 20.11 C25.34 20.67, 9.46 19.13, -0.02 19.69 M-0.18 19.19 C-1.87 14.47, -0.84 5.89, -0.17 -1.27 M0.51 20.69 C0.36 14.79, 0.14 8.06, -0.88 0.33" stroke="#000000" stroke-width="1" fill="none"></path></g><g stroke-linecap="round" transform="translate(69.12450954690576 239) rotate(0 60 40)"><path d="M0 0 C0 0, 0 0, 0 0 M0 0 C0 0, 0 0, 0 0 M-0.27 6.22 C0.94 4.32, 2.24 4.32, 5.77 0.96 M-0.04 6.32 C0.91 4.54, 2.84 2.9, 5.19 0.55 M1.34 11.45 C3.03 8.49, 5.25 4.75, 10.9 1.27 M0.51 12.18 C3.11 7.05, 7.68 3.5, 11.39 -0.35 M-0.4 19.23 C4.53 11.22, 12.66 4.04, 17.47 -0.09 M-0.71 18.43 C3.58 14.59, 6.52 9.83, 15.08 0.76 M1.29 24.67 C6.3 19.86, 8.69 13.74, 20.87 0.43 M0.02 23.45 C6.21 17.73, 13.87 10.29, 20.73 0.74 M-0.31 31.61 C9.93 20.32, 20.63 9.91, 26.27 0.46 M0.03 30.25 C10.57 18.93, 20.31 9.66, 27.1 0.91 M0 35.43 C6.93 29.81, 15.25 20.54, 33.02 0.58 M0.57 36.02 C11.81 23.53, 21.48 10.68, 31.76 0.85 M0.1 40.81 C12.19 28.7, 23.05 13.98, 35.9 -1.73 M0.7 41.67 C8.64 31.35, 17.78 22.43, 37.77 -0.47 M-1.11 47.57 C17.03 28.58, 31.32 10.86, 40.69 1.56 M-0.82 49.27 C8.75 38.68, 18.74 28, 42.78 0.51 M-0.66 53.08 C11.76 45.02, 20.13 32.27, 49.35 -1.36 M0.81 53.93 C16.25 35.68, 32.77 17.32, 47.6 1.09 M1.54 61.88 C19.76 37.99, 38.04 16.72, 51.59 -0.53 M-0.93 61.05 C12.73 44.8, 27.46 28.57, 53.21 -0.45 M1.72 68.03 C19.6 46.83, 38.55 22.47, 58.06 1.43 M0.48 68.23 C12.54 53.54, 25.43 38.33, 57.39 0.28 M0.64 72.99 C16.66 54.36, 29.8 36.44, 63.89 -1.07 M0.42 72.68 C16.97 56.5, 31.4 38.68, 63.72 -0.99 M-0.03 79.53 C21.08 54.35, 39.11 31.02, 69.89 1.07 M-0.94 78.73 C24.45 49.47, 51.66 19.69, 68.2 -0.01 M3.93 83.04 C29.18 53.3, 52.27 24.43, 74.15 1.17 M2.3 82.66 C27.14 54.29, 50.29 25.87, 74.28 -0.85 M7.13 83.24 C28.57 55.16, 53.9 30.81, 81.16 -1.46 M7.13 82.01 C26.04 61.6, 43.67 39.91, 79.4 -0.66 M14.22 81.75 C31.59 61.38, 48.54 42.12, 85.42 -0.04 M12.68 82.7 C39.73 51.53, 66.3 22.75, 84.12 -0.54 M18.24 81.73 C32.96 63.77, 48.71 45.36, 88.6 1.4 M18.04 82.22 C45.13 51.83, 73.79 19.32, 90.62 -0.31 M25.63 80.47 C46 58.51, 66.53 33.17, 95.15 1.62 M24.7 81.83 C50.38 53.05, 74.39 24.98, 95.78 0.64 M29.37 83.08 C49.42 58.44, 68.92 34.18, 101.41 -0.23 M29.08 81.71 C45.85 64.22, 61.67 44.77, 99.77 0.58 M35.94 80.82 C56.08 57.55, 80.04 29.4, 107.26 1.05 M34.99 82.98 C59.33 53.83, 84.96 23.49, 107.06 0.6 M41.69 80.96 C55.78 63.66, 70.92 44.99, 113.2 -1.69 M39.43 83.02 C67.88 50.12, 96.78 18.24, 111.05 -0.19 M45.32 80.71 C70.58 53.17, 96.58 24.38, 115.41 -1.54 M44.45 83.05 C62.6 64.05, 79.57 43.16, 116.4 1.25 M50.79 81.55 C75.76 55.92, 99.66 28.02, 121.38 1.03 M49.55 81.92 C76.32 51.91, 103.66 20.73, 120.29 0.11 M56.44 82.89 C72.66 61.06, 88.36 45.35, 119.79 7.16 M56.26 83.42 C76.87 58.4, 97.09 34.19, 121.57 6.21 M62.68 83.65 C75.04 66.42, 87.49 55.41, 123.25 12.3 M61.19 81.38 C73.31 67.44, 86.83 54.34, 121.05 12.28 M65.04 83.92 C83.17 60.37, 104.61 38.08, 120.28 18.98 M66.57 82.92 C81.64 63.55, 98.6 45.39, 120.88 18.32 M69.83 82.57 C90.66 60.52, 108.67 35.87, 118.93 25.9 M71.37 81.6 C84.08 67.54, 98.15 54.12, 121.57 26.18 M75.29 82.9 C91.45 66.76, 102.77 51.53, 123.12 29.77 M75.79 82.62 C91.21 66.77, 105.01 50.61, 121.85 31.07 M83.15 82.22 C95.02 69.29, 106.89 52.64, 121.1 39.26 M82.39 82.01 C96.7 64.72, 112.16 48.55, 120.49 36.96 M87.82 81.51 C97.94 71.17, 107.55 57.18, 120.39 41.26 M86.62 81.8 C98.68 69.17, 109.89 55.62, 120.7 42.49 M91.97 83.05 C99.22 74.94, 106.37 67.06, 120.92 50.62 M93.86 81.24 C103.83 68.27, 115.7 56.76, 120.74 50.24 M99.69 84 C105.16 75.28, 112.72 64.54, 121.97 56.45 M98.03 81.96 C106.74 72.09, 115.33 63.25, 120.27 56.56 M104.07 82.08 C110.08 73.59, 115.65 67.2, 122.63 60.03 M102.63 81.15 C108.1 77.44, 111.35 72.47, 122.22 61.11 M108.39 81.23 C114.13 78.81, 117.9 73.1, 122.08 68.65 M109.26 82.78 C113.24 77.92, 117.2 70.6, 120.66 68.22 M113.9 81.41 C116.52 79.84, 118.38 77.4, 122.23 73.94 M114.56 82.47 C116.16 79.95, 117.96 77.13, 121.23 73.27" stroke="#82c91e" stroke-width="0.5" fill="none"></path><path d="M1.7 -1.37 C40.4 -1.44, 80.62 0.19, 119.79 -1.86 M-0.39 0.54 C29.56 0.04, 56.47 -0.31, 120.68 -0.12 M121.02 -1.64 C119.46 20.93, 118.47 43.39, 120.93 78.76 M119.52 0.22 C121.12 28.54, 120.2 57.19, 120.35 79.31 M120.56 81.36 C79.29 82.09, 39.79 81.61, -0.39 80.57 M120.3 79.08 C73.29 79.54, 25.81 79.43, -0.53 79.7 M-1.18 80.27 C0.83 56.82, -0.62 36.81, -1.79 1.77 M0.46 80.4 C-0.09 49.6, 0.9 19.35, 0.02 0.69" stroke="#000000" stroke-width="1" fill="none"></path></g><g stroke-linecap="round" transform="translate(69.12450954690576 197) rotate(0 60 9.91306365966409)"><path d="M0 0 C0 0, 0 0, 0 0 M0 0 C0 0, 0 0, 0 0 M-0.24 5.67 C1.42 5.27, 3.61 3.46, 5.01 0.59 M-0.66 6.39 C1.5 4.47, 3.59 2.36, 4.95 0.23 M-0.06 11.9 C1.23 9.17, 4.74 8.29, 11.46 1.36 M-0.48 11.33 C3.91 7.92, 7.96 3.5, 11.14 -0.54 M-1.32 17.8 C5.63 11.95, 10.81 7.54, 14.14 0.72 M0.05 18.76 C5.02 11.8, 10.39 6.28, 14.62 0.18 M4.03 22.64 C9.66 12.6, 16.87 4.85, 21.24 -0.94 M1.8 22.75 C9.58 15.36, 14.43 8.16, 21.95 0.24 M8.2 22.6 C16.09 15.37, 21.61 5.75, 27.5 -1.62 M8.64 20.63 C13.1 17.47, 17.19 12.34, 25.61 -0.26 M12.27 23.7 C20.25 14.93, 28.5 5.89, 32.87 -1.52 M13.46 21.24 C16.85 15.56, 22.8 11.11, 32.31 0.69 M17.68 22.83 C22.03 15.77, 28.94 6.45, 35.82 -1.04 M16.99 21.4 C22.5 16.68, 29.77 8.75, 37.75 0.05 M24.04 20.68 C29 13.96, 35.86 7.37, 40.99 0.83 M23.08 22.38 C28.98 16.51, 34.48 10.17, 41.62 -1.11 M29.51 23.61 C32.18 17.67, 38.7 11.15, 48.27 0.13 M28.46 21.37 C33.66 16.02, 38 12.12, 48.23 -0.36 M33.76 22 C39.69 14.65, 47.57 3.82, 52.47 1.55 M33.23 21.34 C38.02 16.77, 42.37 12.23, 53.48 -0.78 M39.13 23.88 C44.13 15.26, 50.18 10.18, 56.43 0.08 M39.34 22.33 C44.13 16.08, 47.37 11.45, 57.51 0.28 M46.25 20.59 C50.52 12.81, 57.36 6.37, 62.62 -1.38 M45.74 22.52 C49.24 17.26, 53.71 10.51, 63.72 0.33 M51.12 20.37 C54.84 13.47, 62.76 9.24, 70.32 1.6 M48.86 21.52 C54.46 16.92, 57.83 12.25, 69.34 0.96 M56.79 21.99 C59.11 16.79, 64.78 11.73, 75.19 0.6 M55.73 21.5 C59.7 15.18, 65.24 9.58, 74.49 -0.96 M58.46 20.39 C68.35 13.81, 75.19 5.42, 78.42 0 M60.52 22.42 C67.55 13.19, 74.89 4.8, 78.74 -0.13 M67.1 20.28 C72.87 13.82, 77.65 8.83, 86.35 -1.41 M65.61 21.14 C71.72 15.98, 76.25 8.59, 84.2 0.41 M70.59 21.8 C78.39 12.61, 84.52 6.2, 91.61 -0.81 M70.13 22.7 C77.6 14.71, 83.36 8.18, 90.03 0.44 M77.33 22.1 C80.09 17.17, 83.64 14.81, 96.73 -1.72 M77.05 21.45 C80.75 16.63, 86.73 10.95, 95.55 -0.26 M81.37 21.02 C84.12 15.93, 90.05 12.73, 99.25 -0.37 M81.75 22.27 C85.66 16.65, 89.75 12.24, 100.78 -0.7 M86.06 22.66 C93.84 13.08, 101.13 8.04, 107.38 -0.1 M87.03 21.72 C91.69 15.23, 97.37 11.48, 105.52 0.5 M93.12 21.05 C96.73 15.53, 103 9.94, 113.1 -1.67 M91.73 21.26 C96.81 16.72, 100.2 12.23, 111.87 0.31 M98.33 21.74 C104.69 15.64, 109.09 5.84, 115.14 -0.98 M97.77 22.42 C101.55 16.7, 106.4 12.75, 116.71 1.18 M104.59 23.44 C109.47 17.44, 113.63 9.96, 122.73 1.63 M102.72 22.01 C109.37 14.88, 113.3 8.42, 120.8 1.29 M109.54 19.75 C113.43 17.39, 117.04 10.3, 121.34 6.32 M108.81 21.27 C111.77 16.72, 116.36 11.97, 120.12 7 M114.37 20.91 C116.51 20.31, 119.01 16.37, 120.32 13.66 M113.58 21.37 C115.66 20.5, 116.49 17.93, 121.64 12.98 M-0.01 19.82 C-0.01 19.82, -0.01 19.82, -0.01 19.82 M-0.01 19.82 C-0.01 19.82, -0.01 19.82, -0.01 19.82 M6.25 20.29 C4.14 18, 2.48 17.46, 0 14.34 M6.19 19.85 C5.48 19.09, 4.06 18, 0.32 14.5 M13.12 18.7 C9.36 16.34, 8.62 14.24, 0.26 9.76 M12.46 20.34 C7.96 16.8, 4.08 12.18, 0.1 9.26 M18.9 20.89 C14.59 15.07, 10.82 14.96, 2.03 4.21 M17.91 19.65 C13.25 16.14, 7.56 10.28, 0.37 3.95 M24.22 20.43 C14.79 10.84, 5.87 2.53, 1.62 0.53 M23.89 20.03 C15.11 12.7, 6.91 4.2, -0.18 -0.56 M30.81 19.38 C26.65 13.86, 19.57 11.52, 9.06 0.55 M30.29 19.1 C22.27 12.99, 12.98 5.5, 7.17 -0.48 M37.02 20.86 C32.16 14.02, 27.52 11.74, 14.03 -1.81 M37.19 19.33 C30.37 13.96, 22.28 8.34, 13.21 -1.54 M42.73 18.42 C33.73 11.92, 27.18 3.55, 17.43 -2.33 M43.07 19.3 C37.48 13.98, 33.22 9.82, 19.72 -1.43 M49.95 21.59 C41.56 14.21, 34.75 7.07, 26.38 -0.79 M48.88 20.9 C41.41 13.4, 35.41 8.89, 23.96 -0.46 M56.01 18.94 C48.39 10.58, 39.79 5.61, 30.7 -0.04 M54.57 19.89 C47.75 13.63, 41.45 7.89, 30.57 -1.11 M61.85 18.97 C53.93 12.55, 46.24 10.35, 35.96 0.99 M60.93 20.39 C53.58 13.99, 45.44 6.15, 38.04 -1.44 M69.22 21.09 C58.54 14.56, 54.15 7.7, 44.14 0.92 M68.14 19.41 C59.39 14.1, 52.09 5.88, 42.83 -1.91 M73.25 21.27 C65.63 13.03, 56.57 6.75, 50.27 -2.49 M73.84 20.05 C67.86 14.65, 62.3 10.7, 49.44 -0.3 M79.1 21.61 C75.65 16.87, 66.98 12.27, 55.48 -1.35 M79.17 20.64 C73.69 14.26, 67.81 9.9, 54.92 -1.01 M83.1 21.34 C77.65 14.76, 68.47 6.84, 63.49 -0.71 M85.38 19.32 C79.43 13.53, 73.53 9.26, 60.73 -0.71 M93.08 21.76 C83.15 13.42, 77.26 7.45, 69.62 0.44 M91.58 20.53 C85.83 14.76, 79.55 9.6, 67.27 0.3 M97.56 21.21 C87.52 11.29, 81.37 4.53, 73.49 -1.24 M97.36 19.53 C89.28 11.85, 79.44 3.85, 73.96 -0.77 M102.29 20.72 C97.4 14.98, 89.15 7.65, 79.63 0.19 M102.81 19.62 C97.27 14.24, 90.29 7.24, 79.33 -0.03 M110.97 21.54 C103.35 12.8, 92.1 4.6, 86.58 -1.08 M110.62 19.26 C101.78 12.17, 92.17 5.24, 85.5 -0.35 M114.28 20.23 C105.97 13.3, 97.5 4.06, 91.3 -1.67 M114.59 18.66 C110.76 14.79, 105.27 11.5, 92.1 -0.87 M121.6 20.85 C113.48 13.21, 102.11 4.65, 98.27 -2.03 M120.76 19.61 C116.16 14.61, 109.68 9.85, 98.73 -0.46 M122.26 14.7 C116.5 10.24, 111.07 3.34, 104.1 -0.82 M120.14 12.71 C113.23 8.36, 107.53 1.5, 105.11 -0.51 M120.05 8.87 C118.74 6.9, 114.68 2.86, 110.32 -1.11 M120.44 7.96 C117.83 4.92, 113.32 1.26, 110.91 -0.09 M120.56 3.3 C119.59 1.95, 117.85 0.14, 116.12 -0.85 M120.89 2.69 C118.75 1.42, 117.56 0.12, 116.49 -1.36" stroke="#fa5252" stroke-width="0.5" fill="none"></path><path d="M0 -0.46 C45.62 1.99, 91.39 -1.03, 118.79 -0.16 M0.85 0.64 C40.99 -0.36, 84.58 -0.76, 119.82 -0.69 M120.01 -1.62 C119.13 5.22, 121.02 12.65, 121.2 20.74 M120.74 -0.29 C119.73 6.51, 120.25 13.27, 120.28 20.2 M118.73 21.44 C77.9 21.77, 38.08 21.21, 1.78 18.39 M119.95 19.7 C86.41 18.48, 54.04 18.42, -0.21 20.34 M1.23 19 C-0.09 14.33, -1.66 7.61, 1.55 -1.93 M-0.86 19.66 C0.03 12.33, -0.07 5.88, -0.55 0.81" stroke="#000000" stroke-width="1" fill="none"></path></g><g stroke-linecap="round" transform="translate(69.12450954690576 170) rotate(0 110 9.91306365966409)"><path d="M0 0 C0 0, 0 0, 0 0 M0 0 C0 0, 0 0, 0 0 M-0.12 7.03 C1.98 5.37, 2.67 3.32, 5.4 0.8 M-0.31 6.58 C1.47 4.9, 2.7 2.89, 4.63 0.66 M-0.89 11.68 C3.18 10.18, 6.49 7.1, 11.26 0.72 M0.4 12.03 C4.31 7.99, 7.39 3.97, 10.53 -0.14 M1.08 17.22 C7.18 11.92, 9.19 6.59, 16.57 -0.83 M-0.56 18.09 C4.01 13.41, 8.25 7.42, 16.59 0.84 M2.21 21.36 C7.92 15.03, 14.55 6.45, 21.92 -0.57 M3.19 22.53 C6.31 17.26, 12.05 11.56, 21.98 -0.23 M9.22 23.34 C14.42 13.95, 22.19 4.33, 24.86 0.34 M8.87 22.3 C13.65 16.34, 17.24 9.32, 27.07 0.42 M13.01 23.15 C18.39 17.29, 22.58 10.21, 31.28 1.54 M11.91 21.29 C16.67 18.15, 21.3 13.31, 32.06 -0.12 M15.99 22.55 C20.97 15.4, 24.97 11.41, 36.74 1.39 M17.05 22.93 C23.02 16.85, 27.09 12.66, 37.58 -0.24 M21.85 21.94 C26.03 18.46, 30.75 12.64, 42.08 -1.54 M23.54 22.66 C30.22 14.94, 35.44 5.98, 41.7 -0.6 M27.94 22.29 C34.51 15.44, 37.73 11.98, 46.52 1.3 M29.01 21.39 C33.08 17.94, 38.22 11.3, 48.49 0.99 M32.28 23.46 C39.19 13.75, 46.66 8.26, 51.35 -2.05 M33.82 21.38 C40.27 14.73, 46.42 7.64, 53.14 0.82 M38.67 21.86 C45.37 15.84, 50.09 7.2, 56.96 1.64 M39.7 21.52 C45.68 13.64, 53.16 5.18, 58.44 0.44 M44.3 20.03 C50.39 14.37, 54.83 7.5, 62.55 0.35 M44.76 22.42 C49.58 14.87, 54.67 10.33, 63.91 -0.16 M48.9 20.33 C56.55 16.4, 62.81 10.22, 67.22 -1.49 M50.05 21.67 C53.8 16.88, 59.36 12.76, 68.33 0.67 M54.34 22.51 C61.65 15.34, 69.37 7.08, 73.59 -1.44 M54.64 20.97 C62.09 13.11, 69.22 5.03, 74.82 -0.62 M61.78 21.35 C68.87 13.07, 72.66 7.02, 80.94 -1.4 M60.21 21.37 C65.34 15.4, 69.68 10.18, 79.38 0.46 M67.28 20.31 C71.76 15.66, 78.17 7.99, 84.81 -1.98 M66.05 22.42 C72.25 13.31, 79.39 6.14, 85.96 -0.42 M70.91 21.13 C74.74 17.42, 82.87 9.32, 90.16 -0.87 M71.66 21.39 C77.26 15.14, 82.14 9.6, 89.04 0.82 M76.41 21.44 C80.35 18.51, 86.22 10.23, 94.97 0.76 M75.83 22.41 C82.13 16.26, 87.36 9.07, 94.69 -0.2 M80.3 20.43 C88.86 14.33, 93.13 6.79, 99.38 -0.08 M81.15 21.71 C85.29 17.15, 90.87 10.61, 101.1 0.95 M87.49 20.44 C92.3 18.29, 96.37 12.62, 105.3 1.37 M87.11 20.77 C94.38 15.22, 99.12 7.89, 105.67 0.61 M92.42 20.6 C98.53 15.16, 102.88 10.06, 109.55 -0.68 M92.69 21.53 C99.27 13.62, 107.22 5.92, 111.58 0.3 M98.7 22.43 C100.73 15.27, 104.21 11.53, 114.8 -0.26 M97.33 21.56 C104.32 15.01, 110.89 7.74, 116.18 0.56 M104.18 23.51 C107.87 16.21, 114.28 11, 122.01 -1.73 M103.59 21.26 C107.04 15.37, 112.64 10.69, 122.82 0.5 M108.65 23.08 C112.99 15.02, 120.34 7.49, 126.85 2.08 M108.17 21.06 C116.05 12.54, 121.54 5.27, 126.73 1.16 M114.91 23.65 C122.29 13.36, 125.72 7.18, 130.6 0.25 M114.45 22.56 C117.28 16.74, 122.15 12.84, 133.41 -0.55 M120.41 20.63 C125.21 13.49, 132.74 7.59, 137.33 1.4 M119.61 21.77 C125.11 13.55, 132.46 7.49, 137.17 -0.61 M122.39 20.01 C128.33 15.08, 135.47 6.51, 141.54 -0.69 M125.13 22.27 C129.58 17.21, 133.41 10.46, 142.24 -0.77 M128.81 20.65 C136.9 13.87, 141.47 9.05, 149.21 -1.46 M129.26 23.16 C135.49 15.1, 140.95 8.57, 147.28 0.7 M134.83 20.2 C140.61 16.67, 148.01 8.38, 153.52 0.07 M134.79 22.47 C139.84 14.89, 145.86 9.01, 154.47 0.14 M139.11 20.98 C143.52 14.56, 150.23 12.39, 159.89 -1.1 M138.97 22.65 C143.49 16.23, 147.71 12.17, 158.1 -0.24 M146.88 20.34 C151.76 15.14, 160.56 7.65, 165.66 1.71 M145.85 22.45 C149.12 17.78, 153.67 12.56, 163.56 0.73 M151 20.31 C158.65 14.17, 166.03 4.63, 169.2 0.44 M150.9 22.16 C154.46 17.29, 160.31 10.7, 169.98 0.46 M155.63 21.16 C163.09 13.58, 165.76 6.99, 173.53 -2.04 M156.03 20.74 C160.83 16.63, 164.44 11.88, 175.24 -0.27 M161.31 23.12 C166.54 17.31, 171.53 11.81, 179.43 1.67 M160.17 21.06 C167.08 14.63, 173.06 7.7, 180.54 -0.09 M168.61 19.92 C172.64 16.77, 175.3 11.83, 185.1 1.12 M166.33 21.05 C173.55 12.47, 180.47 4.71, 185.5 0.11 M171.27 20.47 C175.72 17.53, 181.31 10.56, 191.28 1.68 M172.16 22.93 C177.21 15.39, 183.09 8.41, 190.68 0.43 M175.79 22.45 C183.81 15.61, 188.78 11.02, 196.83 -1.93 M177.01 22.34 C184.12 13.34, 190.22 5.28, 196.66 -0.94 M182.57 21.97 C188.08 14.47, 196.56 4.32, 199.91 0.11 M182.52 21.59 C188.17 15.32, 193.98 8.44, 200.59 -0.44 M189.56 23.16 C193.12 15.42, 201.65 5.66, 205.57 -1.77 M187.65 20.78 C192.81 14.9, 198.51 9.02, 207.27 -0.02 M193.33 23.8 C198.59 14.98, 207.95 6.94, 210.9 1.17 M193.22 21.07 C197.99 16.19, 201.82 10.7, 211.71 0.08 M196.76 20.99 C201.34 15.63, 208.34 12.71, 216.64 1.58 M199.06 21.77 C203.34 16.21, 207.14 11.47, 218.19 0.49 M202.11 20.7 C209.97 15.31, 213.97 9.33, 222.98 3.15 M204.48 21.61 C210.75 14.09, 217.32 6.77, 221.5 1.46 M210.59 23.37 C213.44 18.65, 215.68 14.41, 221.23 6.27 M209.37 21.87 C211.91 17.27, 214.36 15.47, 221.98 7.95 M215.12 21.93 C214.87 19.45, 217.68 18.28, 222.13 12.94 M214.53 21.77 C216.58 19.32, 219.07 16.49, 221.78 13.8 M-0.01 19.82 C-0.01 19.82, -0.01 19.82, -0.01 19.82 M-0.01 19.82 C-0.01 19.82, -0.01 19.82, -0.01 19.82 M6.92 20.73 C3.56 18.41, 1.55 15.42, -0.17 14.32 M6.47 20.13 C4.32 18.62, 3.08 17.17, 0.54 14.78 M13.2 21.13 C10.35 17.05, 5.86 14.6, 1.51 10.45 M11.38 20.2 C8.93 16.4, 6.4 14.32, 0.05 8.82 M19.66 21.77 C13.74 15.82, 8.34 10.79, 1.48 3.87 M19.12 19.51 C12.85 14.16, 8.32 11.27, 0.43 4.14 M24.97 20.57 C16.98 12.74, 9.97 8.37, 2.18 0.11 M23.19 19.63 C17.4 13.64, 10.14 5.58, 0.49 -1.73 M32.24 21.48 C24.26 15.65, 20.55 12.33, 5.58 0.2 M29.94 19.06 C23.4 12.57, 14.52 5.44, 6.6 -1.03 M37.4 20.65 C29.18 12.04, 17.31 2.45, 13.21 0.87 M36.12 19.33 C28.11 10.74, 18.4 3.43, 13.04 -1.35 M42.18 20.39 C36.38 13.89, 28.46 7.94, 18.05 0.83 M42.69 20.2 C34.27 12.13, 24.39 4.06, 18.97 -0.06 M50.72 18.77 C43.15 15.88, 38 9.74, 23.6 -1.42 M49.01 20.85 C41.53 13.83, 34.71 8.14, 24.93 -1.05 M54.67 20.62 C47.7 13.55, 44.24 10.43, 32.26 -2.71 M55.28 20.48 C50.27 15.38, 44.26 11.16, 30.68 -0.24 M61.6 18.47 C55.73 16.41, 52.27 13.1, 38.46 -0.19 M60.44 20.74 C52.13 13.68, 45.37 4.76, 37.74 -1.02 M68.09 19.5 C61.74 13.21, 56.23 8.45, 41.29 -1.71 M66.66 20.33 C61.59 14.56, 55.66 10.02, 43.45 -1.06 M72.37 19.21 C64.25 13.07, 59.63 8.35, 49.11 -0.25 M73.48 20.15 C69.15 15.36, 64.15 11.24, 49.06 -1.19 M78.98 18.95 C74.73 15.67, 66.99 6.92, 56.68 -2.88 M79.81 20.45 C71.24 13.68, 63.96 6.87, 54.26 -0.79 M83.81 21.01 C79.23 11.53, 71.23 7.39, 61.54 -1.9 M84.51 19.44 C79.35 15.05, 75.04 9.54, 61.04 -1.33 M90.59 21.44 C84.06 12.43, 79.02 6.64, 69.14 0.24 M92.23 19.7 C83.96 14.18, 78.61 7.78, 68.16 0.19 M95.89 21.12 C90.2 14.12, 81.45 7.75, 73.44 0.48 M97.93 20.83 C89.59 13.66, 81.86 6.61, 73.33 -1.61 M101.85 19.33 C97.36 14.12, 88.22 6.55, 81.56 0.76 M102.97 20.53 C94.3 12.14, 85.31 3.3, 79.19 -1.29 M108.75 19.36 C102.07 13.94, 90.12 3.81, 86.91 -0.94 M109.16 19.81 C103.28 14.66, 94.56 7.24, 85.9 -2.02 M116.14 19.53 C107.3 15.35, 103.16 5.53, 93.54 -1.72 M115.35 19.58 C105.28 11.68, 97.48 3.46, 92.95 -1.16 M123.24 18.1 C112.46 13.81, 103.44 4.82, 97.28 1.24 M121.18 19.06 C114.63 14.22, 108.77 8.86, 97.72 0.36 M130.02 20.21 C123.15 12.63, 112.29 7.41, 102.36 0.32 M127.73 20.38 C120.12 10.98, 109.42 4.29, 103.54 -0.82 M133.87 19.6 C126.07 15.41, 119.31 7.74, 110.04 -0.99 M133.48 19.79 C126.36 13.43, 117.12 6.08, 109.79 -1.32 M142.22 20.1 C135.29 15.23, 129.56 8.95, 115.72 -1.03 M140.48 20.72 C133.05 14.22, 126.47 7.23, 116.38 -0.45 M145.62 18.71 C135.67 13.03, 128.59 4.18, 121.36 0.89 M146.83 20.46 C138.97 14.77, 134.18 8.16, 121.66 -1.73 M154.18 18.47 C143.82 11.76, 140.3 8.92, 128.54 -0.48 M152.54 20.56 C144.82 14.35, 137.49 6.3, 128.9 -0.35 M158.64 19.48 C151.5 13.11, 143.11 7.11, 135.12 -2.7 M158.05 19.4 C150.89 13.24, 142.73 6.85, 134.4 0.04 M163.02 20.5 C156.85 11.82, 150.75 6.62, 139.89 -2.12 M164.34 19.42 C159.91 14.73, 154.74 10.43, 141.55 -1.56 M169.26 20.54 C164.37 12.5, 155.38 5.87, 147.63 -2.77 M170.96 20.19 C163.18 12.95, 153.12 4.3, 147.37 -0.88 M178.3 17.92 C166.2 11.37, 157.68 3.4, 153.55 0.47 M176.61 19.06 C170.91 14.65, 166.3 11.42, 152.34 0.05 M182.51 19.08 C171.68 10.3, 165.93 5.02, 160.38 0.9 M182.94 19.58 C174.94 13.92, 167.48 6.81, 158.95 -0.5 M190.77 21.69 C180.21 13.28, 174.3 6.7, 167 -2.37 M189.12 20.09 C180.33 12.28, 172.87 6.18, 165.78 -0.81 M193.11 20.18 C186.41 12.08, 176.48 4.68, 173.06 1.11 M195.89 18.9 C188.9 13.77, 183.07 8.22, 171.56 -0.57 M201.35 19.37 C192.63 12.62, 186.29 8.18, 176.12 0.24 M201.66 19.4 C195.91 13.86, 189.08 9.07, 177.69 -0.23 M206.2 21.48 C200.8 15.27, 194.05 10.94, 184.03 -0.82 M207 18.7 C198.74 10.65, 189.1 4.17, 184.14 -0.65 M213.66 19.04 C203.58 12, 196.84 5.94, 188.01 0.42 M212.54 20.04 C207.7 16.13, 203.49 10.66, 189.92 -0.42 M218.13 21.86 C214.55 15.71, 204.66 9.16, 195.35 -1.64 M219.47 19.39 C210.57 12.31, 200.84 4.09, 195.18 -0.75 M224 16.06 C218.09 13.18, 215.34 9.08, 201.95 0.89 M222.6 18 C216.86 11.62, 209.83 6.64, 201.31 -0.32 M224.36 10.89 C221.02 7.4, 214.22 6.97, 209.51 0.44 M222.49 12.78 C217.33 7.37, 213.7 4.14, 207.43 -0.66 M222.19 6.04 C219.35 3.54, 216.57 1.61, 213.96 -0.99 M222.13 6.67 C220.24 4.24, 217.08 1.93, 214.17 -1.31" stroke="#fa5252" stroke-width="0.5" fill="none"></path><path d="M-0.16 1.01 C50.75 -1.17, 100.8 0.3, 220.86 -0.68 M-0.83 0.25 C78.37 -1.32, 155.41 -1.81, 220.43 0.44 M219.03 -1.72 C220.92 3.09, 221.2 9.56, 221.03 18.88 M219.83 -0.47 C220.5 5.7, 220.43 13.16, 220.39 20.1 M218.85 20.81 C138.7 21.86, 59.61 20.12, -0.47 20.35 M219.24 19.62 C173.82 19.32, 128.37 20.02, 0.45 19.32 M-0.21 21.31 C-1.9 15.37, 1.42 5.47, 1.37 0.92 M0.12 19.65 C0.19 13.77, -0.38 7.15, -0.58 -0.83" stroke="#000000" stroke-width="1" fill="none"></path></g><g stroke-linecap="round" transform="translate(209.12450954690576 243) rotate(0 40 9.91306365966409)"><path d="M0 0 C0 0, 0 0, 0 0 M0 0 C0 0, 0 0, 0 0 M0.52 7 C0.85 5.32, 2.33 4.26, 4.82 -0.44 M-0.06 6.58 C1.27 4.45, 2.52 3.08, 4.84 0.31 M0.41 13.34 C4.1 9.94, 6.96 5.78, 10.9 -1.26 M0.89 11.73 C2.83 8.98, 4.43 6.82, 10.95 -0.51 M1.72 18.02 C2.5 14.08, 9.15 7.67, 15.59 0.68 M-0.66 18.87 C4.18 12.34, 11.37 6.99, 15.91 1.22 M1.85 22.31 C8.7 13.52, 15.88 6.43, 20 -0.94 M1.7 22.62 C10.21 13.37, 17.73 4.29, 21.83 0.09 M7.9 21.59 C15.58 11.75, 19.53 6.13, 25.78 1.82 M8.73 22.04 C11.09 16.04, 16.61 12.04, 25.53 -0.01 M14 22.46 C21.35 11.57, 27.29 5.98, 30.17 1.08 M12.73 22.73 C18.17 17.29, 22.6 11.09, 31.03 -0.19 M16.87 20.16 C23.36 13.49, 30.64 8.6, 35.18 -1.46 M18.74 21.42 C23.19 16.85, 27.31 11.63, 36.2 0.53 M21.66 23.45 C26.84 17.3, 32.62 9.53, 43.22 -0.97 M23.76 22.39 C29.5 12.65, 36.48 5.2, 41.78 0.38 M30.32 20.53 C36.44 13.79, 41.84 6.75, 46.24 0.18 M28.57 22.98 C33.38 16.72, 37.95 13.12, 47.97 0.04 M32.57 21.35 C39.62 16.4, 44.47 5.93, 53.34 -1.97 M34.19 21.43 C39.52 15.42, 44.18 11.25, 53.49 -0.16 M39.03 23.32 C44.88 13.45, 52.83 6.46, 59.88 0.65 M38.36 22.16 C44.54 15.16, 51.66 8.19, 58.13 0.93 M44.86 20.82 C48.32 15.29, 52.92 11.65, 63.14 1.76 M44.7 20.89 C51.99 13.68, 59.48 4.79, 63.85 0.48 M50.86 22.95 C55.51 18.9, 56.53 11.08, 67.42 -1.61 M49.18 21.87 C54.97 17.49, 58.68 11.77, 69.28 0.86 M55.13 23.06 C62.32 15.45, 66.76 6.47, 75.68 0.45 M55.25 21.04 C61.06 14.79, 66.84 8.88, 74.84 -1.2 M62.13 20.43 C63.41 17.15, 70.1 10.95, 78.65 0.42 M60.38 21.23 C66.24 14.42, 73.37 7.54, 79.28 0.66 M66.39 21.84 C71.04 16.18, 73.32 11.2, 83.84 1.93 M65.1 21.35 C69.31 17.4, 75.21 11.81, 82.11 2.54 M69.72 23.16 C75.88 17.26, 78.01 13.25, 82.59 6.81 M71.53 21.61 C75.32 17.29, 78.84 12.57, 82.14 8.69 M76.41 22.44 C79.06 18.73, 80.19 17.63, 82.44 15.15 M76.69 22 C78.34 19.59, 79.66 17.67, 82.72 14.73 M-0.01 19.82 C-0.01 19.82, -0.01 19.82, -0.01 19.82 M-0.01 19.82 C-0.01 19.82, -0.01 19.82, -0.01 19.82 M6.77 20.64 C4.67 18.28, 1.69 17, 0.6 14.64 M6.7 20.46 C4.17 18.71, 2.31 17.08, 0.09 15.01 M13.57 18.33 C10.37 15.56, 4.41 13.65, 1.15 8.34 M11.84 19.52 C9.61 17.4, 6.52 14.91, -0.81 9.36 M17.57 18.03 C11.6 13.77, 5.61 9.59, 1.14 3.94 M18.56 20.82 C11.86 14.6, 4.24 7.82, -0.03 5.05 M24.19 19.85 C16.55 12.95, 6.32 2.63, 0.03 -1.13 M23.1 18.93 C16.12 13.59, 10.14 7.16, 0.82 -0.25 M29.27 19.85 C25.93 14.89, 20.62 13.23, 8.7 0.05 M31.05 18.89 C23.1 13.92, 17.35 9.22, 7.8 0.19 M38.72 19.6 C29.54 17.08, 23.98 11.22, 11.05 -0.72 M36.53 19.58 C31.69 15.91, 26.75 10.38, 13.4 -1.62 M41.66 19.49 C35.44 15.28, 28.44 8.73, 19.82 -1.03 M42.26 18.82 C37.05 14.42, 29.41 7.84, 19.32 -0.83 M46.97 20.27 C40.35 11.65, 31.73 5.46, 23.61 -2.07 M49.61 20.55 C42.77 14.14, 36.07 9.21, 24.94 -0.37 M56.41 18.11 C49.38 15.23, 44.49 7.95, 31.34 0.27 M55.14 19.41 C45.78 12.11, 35.79 4.69, 31.2 -0.56 M61.05 21.46 C54.54 12.58, 44.42 5.7, 37.29 -1.58 M60.44 19.16 C54.69 14.23, 48.98 9.26, 37.06 -0.46 M66.34 18.07 C60.06 14.04, 51.91 4.17, 41.81 -1.29 M66.65 19.31 C58.27 13.13, 50.05 5.14, 43.67 -0.75 M72.77 20.64 C68.32 14.93, 61.06 10.07, 47.87 -1.03 M72.6 20.26 C67.65 15.24, 61.33 11.43, 50.37 -0.58 M80.49 20.34 C72.45 11.71, 62.72 5.71, 54.23 -0.42 M78.78 20.45 C74.34 14.6, 68.96 10.75, 55.25 -0.95 M83.37 15.26 C75.53 11, 70.86 6.62, 59.8 0.32 M82.96 16.34 C77.28 11.31, 71.52 7.37, 61 -0.27 M83.45 12.49 C78.41 7.5, 70.8 3.91, 68.74 -0.6 M82.02 12.06 C76.05 7.42, 71.61 1.69, 67.5 0.16 M82.81 6.5 C79.42 4.68, 77.11 3.07, 74.54 -0.91 M81.81 5.83 C78.9 3.65, 76.35 1.6, 73.67 -0.68" stroke="#fab005" stroke-width="0.5" fill="none"></path><path d="M-0.21 -1.86 C20.96 -0.63, 45.33 -1.26, 81.07 1.7 M0.68 -0.12 C28.92 -0.92, 58.71 0.28, 79.18 0 M80.92 -1.23 C81.1 5.25, 80.93 7.71, 80.44 21.32 M80.35 -0.69 C80.25 5.75, 80.36 11.03, 80.67 19.2 M79.61 20.39 C51.31 18.84, 18.52 20.88, -1.84 19.72 M79.47 19.53 C56.83 20.15, 34.6 19.05, 0.13 20.45 M-1.78 21.58 C1.57 12.78, 1.39 10.5, 0.8 -1.71 M0.02 20.51 C-0.57 15.02, -0.6 7.77, -0.18 -0.12" stroke="#000000" stroke-width="1" fill="none"></path></g><g stroke-linecap="round" transform="translate(209.12450954690576 269) rotate(0 40 9.91306365966409)"><path d="M0 0 C0 0, 0 0, 0 0 M0 0 C0 0, 0 0, 0 0 M-0.24 6.62 C2.08 4.5, 3.5 0.98, 4.97 0.25 M-0.3 6.27 C1.16 4.59, 3.18 2.15, 4.95 0.1 M0.96 13.44 C3.66 9.36, 6.21 4.03, 9.22 0.51 M0.65 11.54 C3.06 8.36, 6.62 4.38, 10.37 0.45 M-1.61 18.84 C4.42 12.98, 7.2 10.18, 16.25 -0.54 M-1.12 18.3 C5.13 14.07, 8.63 9.65, 16.03 0.31 M2.21 20.95 C8.22 15.2, 11.57 8.76, 23.13 1.84 M2.93 22.12 C10.14 13.38, 17.04 5.57, 21.85 0.6 M9.13 19.51 C13.76 13.08, 21.96 6.2, 24.67 2.27 M7.24 20.87 C15.64 13.24, 21.22 4.62, 27.2 0.36 M13.84 20.36 C19.14 15.3, 25.04 6.77, 30.81 -2.02 M13.28 22.58 C17.84 16.09, 21.59 10.53, 32.23 -1.03 M16.8 20.85 C23.91 16.45, 28.44 6.6, 35.39 -1.35 M18.72 21.93 C25.57 13.49, 31.4 5.97, 36.34 -0.57 M21.96 22.72 C29.14 13.41, 36.17 7.21, 43.79 -0.04 M22.6 20.77 C30.06 12.6, 37.59 5.01, 43.27 -0.41 M29.25 22.02 C33.18 16.57, 38.78 8.69, 46.03 1.27 M29.2 21.53 C33.78 17.72, 37.59 11.79, 47.65 -0.7 M33.45 23.44 C39.86 11.39, 49.23 2.99, 52.41 -0.78 M34.45 21.11 C39.18 16.92, 44.6 10.1, 54.05 -0.4 M37.4 21.97 C43.45 17.08, 51.87 9.75, 58.64 1.37 M38.48 22.17 C44.24 16.95, 48.59 12.08, 57.59 -0.04 M43.6 20.51 C47.65 17.56, 52.38 14.2, 65.45 -0.2 M44.69 22.21 C52.02 13.68, 59.08 6.13, 62.95 -0.63 M51.3 23.48 C52.16 15.62, 56.44 10.79, 67.73 0.76 M50.31 22.85 C54.44 16.83, 60.39 11.26, 68.94 -0.37 M56.16 22.48 C61.12 12.8, 69.74 7.19, 74.13 -1.73 M55.46 20.92 C60.25 16.3, 64.69 10.63, 73.6 0.46 M59.39 21.89 C66.8 14.78, 69.61 10.76, 80.22 -0.21 M59.72 21.76 C64.85 17.32, 69.26 12.33, 78.73 0.75 M67.33 20.48 C69.6 15.45, 75.11 11.91, 81.47 2.81 M65.17 22.3 C73.36 14.32, 78.39 7.06, 82.33 2.7 M72.43 21.17 C74.26 17.53, 76.97 13.32, 84.12 9.57 M71 22.29 C72.9 19.39, 75.97 15.75, 83.05 8.28 M77.12 20.94 C78.08 20.01, 80.01 17.9, 82.44 14.05 M76.59 21.6 C78.46 18.97, 81.34 16.25, 82.34 14.48 M-0.01 19.82 C-0.01 19.82, -0.01 19.82, -0.01 19.82 M-0.01 19.82 C-0.01 19.82, -0.01 19.82, -0.01 19.82 M6.82 20.18 C4.49 19.53, 3.65 17.36, 0.5 14.71 M6.08 20.42 C4.76 19.36, 3.4 17.98, 0.19 14.87 M13.49 18.34 C7.71 16.57, 7.46 13.81, -1.06 9.87 M12.5 19.92 C9.13 17.13, 4.95 14.32, 0.05 9.51 M17.3 18.6 C10.76 13.7, 6.79 8.62, 2.15 3.05 M18.86 20.76 C12.79 15.5, 7.02 11.35, 1.11 4.85 M25.54 20.45 C15.22 10.1, 5.52 3.69, 0.96 0.62 M23.61 20.11 C19.57 15.06, 13.2 10.18, -0.23 -0.72 M30.84 18.96 C21.64 13.82, 14.42 4.92, 6.65 -1.26 M29.54 19.68 C24.14 15.16, 18.98 9.79, 6.31 0.17 M35.08 21.56 C25.29 12.12, 16.14 3.81, 11.19 0.94 M37.28 20.42 C28.8 11.64, 19.61 3.6, 12.66 -0.29 M42.44 21.35 C36.32 15.47, 31.14 8.71, 18.53 0.23 M43.46 19.84 C34.41 11.79, 27.18 5.77, 19.37 -1.54 M48.02 18.7 C42.39 14.96, 37.79 10.11, 23.61 0.91 M48.83 19.11 C39.44 12.12, 32.18 6.19, 24.15 -1.21 M54.93 20.26 C50.16 13.09, 44.03 11.31, 32.79 -0.55 M54.73 19.63 C44.19 11.81, 35.76 3.48, 31.63 -0.77 M62.67 19.82 C55.47 15.69, 50.31 9.94, 36.96 -0.51 M61.01 19.56 C53.05 12.39, 43.22 4.65, 38 -0.86 M68.29 21.39 C62.69 13.4, 54.33 9.27, 44.15 -2.53 M66.49 20.29 C58.28 12, 50.93 5.24, 42.98 -0.19 M74.97 20.75 C68.84 16.96, 60.49 10.04, 48.17 0.22 M73.09 19.72 C63.48 13.12, 56.41 4.74, 49.99 -0.36 M80.7 19.05 C73.96 15.8, 68.07 11.76, 53.75 -0.05 M79.89 19.32 C72.66 13.87, 64.69 7.27, 54.61 -1.26 M80.32 15.25 C74.78 10.06, 68.92 8.17, 60.87 -0.81 M82.62 16.14 C77.86 13.1, 72.89 10.09, 62.46 -0.65 M83.91 12.18 C76.64 9, 72.88 3.1, 69.85 -2.16 M81.61 12.49 C80.02 9.21, 76.14 7.65, 67.75 0.39 M81.73 6.7 C79.83 5.51, 79.25 3.24, 74.06 -1.3 M81.65 6.11 C79.91 4.68, 78.03 3.02, 73.45 -1.03" stroke="#fab005" stroke-width="0.5" fill="none"></path><path d="M-1.21 -0.16 C29.66 -0.05, 58.41 2.44, 81.28 -1.92 M-0.18 -0.69 C26.79 0.6, 51.76 0.1, 79.18 -0.49 M81.2 0.92 C81.12 3.28, 80.54 9.94, 79.43 19.48 M80.28 0.37 C80.46 5.28, 80.74 9.38, 80.8 19.17 M81.78 18.39 C50.93 20.65, 21.12 19.95, -0.26 18.07 M79.79 20.34 C58.44 19, 35.96 20.21, -0.42 19.72 M1.55 17.9 C1.55 13.31, 0.97 3.24, -0.34 0.24 M-0.55 20.63 C-0.58 13.41, -0.19 8.53, -0.17 0.84" stroke="#000000" stroke-width="1" fill="none"></path></g><g stroke-linecap="round" transform="translate(209.12450954690576 295) rotate(0 40 9.91306365966409)"><path d="M0 0 C0 0, 0 0, 0 0 M0 0 C0 0, 0 0, 0 0 M0.15 6.83 C1.54 3.32, 3.66 1.75, 5.35 0.77 M-0.62 6.7 C1.41 4.27, 3.35 1.98, 4.9 0.43 M0.77 12.8 C4.35 6.12, 6.66 3.28, 10.62 1.48 M0.03 11.93 C3.11 8.48, 5.27 6.3, 10.14 0.71 M0.82 17.28 C4.37 13.71, 9.43 7.43, 14.93 -0.74 M0.85 18.95 C5.75 13.15, 11.26 6.02, 15.39 0.13 M2.9 21.32 C7.16 13.93, 16.47 9.59, 22.69 -1.14 M2.96 21.66 C9.89 13.59, 17.15 5.77, 22.22 -0.06 M6.49 21.47 C12.95 16.61, 17.5 10.54, 28 1.99 M8.7 21.55 C13.94 13.58, 22.26 6.31, 26.93 0.86 M12.25 23.43 C17.39 15.79, 24.38 5.38, 30.91 -0.37 M13.03 21.76 C19.43 12.9, 28.15 3.41, 32.09 -0.59 M17.71 23.27 C20.09 16.16, 24.12 11.87, 38.46 2.04 M18.55 21.65 C21.32 17.48, 25.79 11.39, 36.97 -0.66 M23.05 20.35 C31.69 12.4, 39.58 4.9, 44.35 0.39 M22.67 21.28 C29.89 14.47, 38.32 5.7, 42.61 0.78 M27.5 23.19 C31.34 17.25, 35.32 13.5, 46.06 0.41 M29.47 22.87 C36.15 13.56, 43.2 4.35, 48.38 -0.56 M32.32 19.84 C39.75 13.58, 44.19 8.61, 52.49 -0.05 M34.11 22.7 C39.56 15.89, 45.3 9.7, 53.04 -0.21 M37.93 23.53 C47.93 14.62, 53.58 7.42, 57.04 -1.31 M39.41 22.32 C45.12 16.04, 50.46 8.3, 57.31 0.24 M43.53 22.24 C49.13 18.13, 56.33 10.55, 65.27 -0.32 M44.88 21.72 C49.05 17.42, 52.36 11.47, 62.93 0.35 M48.2 20.4 C54.8 12.57, 61.68 7.38, 68.03 -0.97 M49.31 22.56 C55.52 16.39, 60.57 8.96, 69.2 0.02 M54.57 20.44 C63.63 14.14, 69.13 3.85, 73.06 -0.51 M55.79 21.27 C60.35 15.59, 63.66 12.02, 74.08 0.64 M61.91 20.48 C63.94 17.48, 69.71 12.02, 78.13 0.13 M60.35 22.35 C64.63 17.73, 68.31 12.95, 78.75 0.31 M65.78 19.91 C72.43 15.01, 75.17 10.01, 84.04 0.9 M66.93 21.47 C70.35 16.13, 75.07 11.12, 82 2.03 M71.12 21.11 C74.99 15.48, 80.85 13.27, 81.77 9.45 M70.12 22.63 C73.41 18.7, 77.39 14.75, 82.75 8.15 M76.33 22.06 C78.83 19.29, 81.18 15.5, 83.3 14.88 M76.2 21.63 C79.16 18.83, 81.11 15.91, 82.21 14.95 M-0.01 19.82 C-0.01 19.82, -0.01 19.82, -0.01 19.82 M-0.01 19.82 C-0.01 19.82, -0.01 19.82, -0.01 19.82 M5.99 20.77 C4.38 17.95, 2.05 16.08, -0.27 15.44 M6.14 20.47 C3.78 18.23, 1.5 16.02, 0.09 15.22 M10.64 19.13 C10.54 16.48, 5.73 15.75, -0.64 8.81 M12.27 19.91 C7.83 16.96, 5.32 14.18, 0.33 8.84 M16.95 19.32 C15.64 16.35, 12.95 12.24, 0.42 4.46 M18.34 20.14 C11.01 14.84, 5.12 8.55, 1.14 4.26 M24.17 17.84 C15.91 12.9, 9.47 8.25, -0.52 -2.74 M24.98 20.08 C18.75 15.38, 12.13 10.07, 1.48 -1.39 M30.42 21.55 C25.01 14.16, 15.9 6.72, 6.25 0.62 M30.3 20.64 C26.52 16.27, 20.17 12.02, 7.99 0.41 M34.92 20.38 C28.73 14.66, 22.2 10.53, 14.18 -1.6 M37.73 19.58 C31.41 14.2, 24.63 10.27, 12.32 -1.34 M42.31 20.78 C36.43 13.6, 28.35 8.96, 19.78 -1.16 M42.15 18.77 C37.51 15.19, 32.56 10.13, 18.23 -1.63 M47.27 19.34 C40.22 12.13, 32.57 8.48, 25.71 0.36 M47.97 19.26 C40.4 12.84, 30.88 4.43, 24.01 -0.12 M55.6 17.82 C49.36 16.06, 45.48 10.6, 33.16 0.39 M53.67 19.98 C47.88 13.99, 41.63 7.97, 30.38 -0.74 M60.67 20 C51.57 10.99, 42.3 4.28, 38.97 -1.56 M61.62 20.08 C54.97 15.06, 50.41 9.89, 36.99 -1.03 M68.45 18.74 C61.03 15.66, 58.54 10.23, 44.26 -2.31 M66.66 19.59 C62.6 15.6, 56.51 11.47, 42.51 -1.03 M74.22 21.54 C62.92 12.35, 55.08 6.52, 51.05 -1.45 M72.12 20.56 C65.36 12.48, 56.6 5.42, 48.71 -0.11 M79.17 20.18 C70.51 13.75, 62.31 7.41, 55.38 -2.27 M79.95 20.2 C70.81 12.52, 61.69 4.83, 54.98 -0.38 M80.48 15.07 C75.91 14.02, 72.57 9.05, 59.72 1.1 M82.19 16.84 C76.35 13, 72.88 8.34, 62.17 -0.23 M81.78 13.36 C78.26 7.78, 74.64 2.11, 66.14 -1.24 M82.84 11.69 C77.44 8.8, 73.19 5.12, 67.21 0.18 M81.66 7.03 C80.21 4.03, 77.09 1.34, 73.01 -1.27 M81.88 6.48 C80.23 4.96, 78.21 3.05, 73.25 -1.34" stroke="#fab005" stroke-width="0.5" fill="none"></path><path d="M0.99 -0.79 C17.65 1.76, 34.43 -1.86, 80.57 1.36 M0.5 0.51 C22.24 0.55, 45.31 0.06, 79.13 0.46 M81.03 -0.95 C80.56 6.21, 79.55 9.09, 79.06 20.52 M80.39 0.28 C80.73 3.94, 80.86 8.48, 80.56 19.63 M79.45 20.43 C51.89 19.15, 27.21 17.5, -0.48 18.76 M80.52 19.24 C58.5 20.86, 36.32 20.13, 0.75 18.93 M1.37 20.74 C0.64 10.41, -0.49 4.66, -0.36 0.05 M-0.58 19 C-0.07 12.39, -0.06 6.03, 0.38 0.24" stroke="#000000" stroke-width="1" fill="none"></path></g></svg>