<svg version="1.1" xmlns="http://www.w3.org/2000/svg" viewBox="0 0 527.5982346082478 560.347601305321">
  <g stroke-linecap="round" transform="translate(175.7751641292125 10) rotate(0 170.28570992606024 200)"><path d="M0.08 0.37 C131.29 2.39, 264.24 0.62, 341 -0.08 M0.52 0.09 C128.03 0.84, 255.69 0.05, 341.22 0.61 M339.97 -0.44 C337.75 104.45, 338.45 210.12, 340.31 400.55 M340.95 -0.49 C342.69 153.4, 341.85 306.81, 340.06 399.75 M341.64 400.99 C246.11 401.53, 153.98 400.79, -0.39 399.63 M340 400.37 C248.4 401.87, 155.23 401.53, 0.22 400.23 M0.72 400.2 C-0.72 318.97, 0.53 237.87, -0.08 0.25 M0.29 399.75 C-2.03 276.86, -1.93 154.72, -0.05 0.51" stroke="#000000" stroke-width="1" fill="none"></path></g><g stroke-linecap="round" transform="translate(195.7751641292125 30) rotate(0 150.1435091444887 50)"><path d="M0 0 C0 0, 0 0, 0 0 M0 0 C0 0, 0 0, 0 0 M1.35 13.15 C1.94 8.98, 6.73 5.17, 11.99 0.98 M-0.1 11.78 C4 7.64, 8.91 2.98, 10.2 0.73 M2.2 25.62 C5.28 17.87, 9.83 13.92, 22.36 1.29 M0.46 24.87 C8.69 14.62, 16.23 6.83, 21.29 0.15 M0.14 37.02 C5.56 29.4, 11.14 21.65, 32.09 0.62 M-0.41 36.91 C8.73 26.8, 15.2 18.13, 31.33 0.62 M0.78 48.39 C15 30.11, 32.42 12.58, 41.22 0.66 M0.1 48.43 C13.33 35.31, 25.37 20, 42.7 -0.94 M-0.51 62.58 C18.41 39.3, 36.15 17.81, 52.3 -0.11 M-0.85 61.06 C19.72 37.24, 40.03 14.67, 52.8 0.37 M1.11 72.77 C12.12 57.51, 24.76 43.78, 63.4 1.11 M0.49 72.85 C21.64 49.06, 42.8 23.51, 63.55 -0.07 M0.03 86.45 C24.47 56.63, 50.3 30.53, 72.9 -1.29 M-0.61 85.36 C21.69 62.52, 40.93 38.02, 75.04 0.08 M0.3 97.44 C19.06 77.87, 35.03 57.37, 84.25 -2.13 M-0.37 98.81 C23.66 69.17, 50.39 39.67, 85.16 0.38 M4.23 104.09 C22.92 82.3, 42.55 60.62, 94.69 -2.14 M4.98 103.4 C31.75 73.33, 59.31 41.4, 95.18 0.09 M14.06 105.84 C44.48 71.27, 76.03 38.32, 108.02 -0.72 M15.77 105.03 C33.44 83.11, 53.58 61.01, 105.43 0.46 M25.97 104.51 C54.3 71.81, 86.19 35.86, 114.68 0.03 M25.73 103.65 C47.5 79.55, 69.54 54.06, 116.23 -0.07 M36.72 104.69 C68.69 68.25, 100.02 32.64, 127.16 -0.42 M35.52 104.84 C67.46 68.68, 96.66 34.73, 126.17 -0.58 M45.78 104.05 C70.12 77.84, 90.32 49.27, 136.75 -1.27 M47.75 105.21 C80.16 67.27, 111.75 30.64, 137.75 1.3 M59.43 105.33 C91.79 65.1, 122.42 29.29, 148.98 -0.14 M57.94 103.51 C93.69 63.22, 129.14 21.7, 147.7 0.69 M67.5 103.58 C90.97 80.29, 111.24 54.8, 159.67 -1.1 M68.15 105.02 C96.26 69.43, 126.52 35.86, 157.88 0.62 M80.12 105.42 C99.33 78.5, 125.12 54.77, 167.69 0.61 M78.6 103.93 C107.94 68.55, 138.33 32.34, 168.96 0.39 M88.48 104.31 C123.25 66.27, 154.06 32.61, 179.73 1.83 M89.28 103.71 C115.52 75.5, 139.72 44.7, 179.99 -0.03 M101.59 103.76 C120.66 83.55, 137.26 63.11, 191.03 -1.31 M99.6 103.46 C132.3 64.82, 168 25.83, 190.08 0.33 M110.98 104.61 C142.8 65.12, 174.19 28.87, 202.12 1.92 M110.02 104.33 C147.3 62.79, 182.86 21.46, 202 -0.13 M119.52 104.26 C144.39 78.22, 166.21 54.1, 211.61 0.06 M121.63 103.85 C154.58 67.47, 185.4 31.79, 211.78 0.76 M130.11 103.95 C157.29 76.12, 182.09 49, 220.89 -1.28 M131.83 104.37 C158.77 72.21, 184.91 41.96, 222.4 -0.7 M142.46 103.96 C166.85 76.02, 186.05 50.14, 234.93 -0.17 M141.92 103.34 C176.54 66.45, 207.78 28.93, 233.33 0.35 M153.85 102.93 C183.71 68.45, 216.73 33.67, 242.97 0.9 M152.74 103.77 C173.36 81.68, 195.34 57.99, 244.24 -0.35 M163.84 105.04 C199.85 64.8, 229.53 25.21, 255.34 -1.76 M164.28 104.56 C193.87 69.81, 224.21 36.33, 254.56 0.22 M175.07 103.29 C200.37 76.19, 225.17 49.01, 264.16 -1.75 M175.32 104.9 C202.22 73.78, 229.24 42.29, 265.15 0.75 M185.96 102.77 C218.39 60.44, 257.48 21.14, 276.09 0.63 M185.06 104.61 C206.27 79.27, 227.7 56.22, 275.87 -0.06 M195.51 103.87 C219.43 77.06, 241.64 49.34, 285.13 1.68 M196.73 104.56 C220.51 75.9, 245.43 45.46, 287.28 -1.1 M208 105.57 C241.43 66.56, 273.87 24.82, 297.3 1.48 M207.2 103.01 C233.49 71.23, 261.38 40.08, 296.21 -0.5 M217.79 104.66 C247.37 70.69, 276.56 39.08, 304.16 3 M216.66 104 C246.23 70.31, 276.61 36.13, 304.11 2.57 M226.02 103 C243.84 84.49, 262.59 63.3, 306.17 16.25 M228.19 103.73 C242.19 85.01, 258.13 67.51, 305.33 15.19 M237.4 102.76 C263.35 74.17, 287.55 48.25, 305.25 28 M237.4 102.91 C261.42 78.59, 283.72 53.38, 304.51 27.52 M248.28 106.46 C264.43 87.81, 282.56 66.24, 302.48 38.88 M247.41 103.93 C262.97 88.3, 276.05 73.97, 303.21 41.06 M258.04 105.15 C274.61 90.56, 288.4 73.73, 304.75 51.33 M259.11 104.16 C274.43 87.87, 288.71 70.28, 303.38 51.71 M269.9 106.24 C278.25 95.51, 284.18 86.02, 305.5 65.39 M268.81 104.92 C281.69 90.91, 294.32 76.62, 305.03 64.64 M278.27 105.68 C289.66 94.29, 296.54 84.43, 304.15 74.91 M280.51 104.79 C287.01 98.45, 293.43 90.86, 304.48 75.67 M288.9 104.01 C293.53 101.43, 297.23 93.97, 306.18 87.54 M290.89 104.75 C296.46 97.84, 300.04 92.28, 305.34 88.41 M0.3 100.26 C0.3 100.26, 0.3 100.26, 0.3 100.26 M0.3 100.26 C0.3 100.26, 0.3 100.26, 0.3 100.26 M12.93 101.3 C6.93 96.02, 1.43 90.87, 0.37 90.24 M11.78 100.75 C8.92 97.57, 5.61 94.04, -0.51 89.55 M22.52 98.13 C19.79 94.46, 13.26 89, 1 78.65 M24.44 100.58 C19.34 95.68, 14.16 91.14, 1.12 79.74 M37.19 98.39 C23.92 89.88, 10.87 76.11, -1.58 67.88 M35.7 99.79 C26.65 92.88, 19 85.38, 0.13 69.34 M46.57 98.51 C31.79 83.34, 12.65 67.52, -0.37 59.62 M47.75 99.16 C31.91 86.8, 16.13 71.96, 0.77 58.44 M60.72 99.33 C46.39 88.25, 35.8 78.49, -1.8 48.69 M62.1 100.61 C42.33 82.59, 22.76 65.75, 0.46 47.19 M72.01 99.09 C46.47 77.05, 21.81 52.28, -1.03 34.5 M74.04 99.14 C52.31 82.18, 29.3 62.04, -0.69 36.14 M84.34 100.53 C62.84 79.76, 39.07 59.64, -1.14 24.29 M84.77 99.09 C59.59 78.56, 33.89 55.7, -0.27 26.6 M98.95 99.56 C68.04 75.04, 37.85 47.67, -0.43 16.34 M98.03 99.95 C69.69 75.75, 41.43 53.24, 0 15.05 M107.86 101.16 C75.32 70.17, 42.88 44.26, 0.38 3.28 M108.45 99.35 C87.27 80.92, 63.39 59.72, -0.03 5.49 M123.4 99.31 C83.12 64.59, 45.53 33.07, 1.88 -2.08 M121.98 100.1 C90.82 72.91, 58.85 47.15, 3.64 -3.55 M135.95 101.57 C102.51 70.46, 67.41 40.57, 14.73 -3.49 M134.45 99.95 C99.29 69.15, 63.83 37.95, 14.85 -2.64 M147.21 100.28 C121.8 77.3, 93.03 54.92, 26.31 -1.72 M145.73 99.89 C115.6 73.35, 82.93 43.59, 26.73 -2.83 M159.92 101.22 C120.84 69.03, 84.46 37.85, 38.36 -1.74 M158.36 99.91 C125.18 70.98, 91.68 43.79, 40.25 -3.59 M171.37 99.47 C144.05 77.3, 114.5 52.62, 51.67 -3.88 M169.92 100.03 C123.47 59.93, 78.6 19.69, 51.79 -2.97 M182.94 99.34 C144.28 68.88, 109.42 36.25, 63.33 -4.7 M183.38 99.32 C150.24 71.37, 117.43 42.81, 63.29 -3.29 M193.76 99.01 C161.41 72.85, 126.53 42.47, 76.49 -4.33 M195.77 99.67 C157.72 68.37, 120.26 36.79, 76.82 -3.33 M206.06 101.67 C177.73 73.4, 146.21 46.19, 89.87 -2.6 M208.24 100.08 C172.28 67.05, 134.06 35.47, 89.01 -3.39 M218.85 100.19 C182.25 66.53, 145.21 34.4, 99.22 -3.09 M218.78 100.43 C194.22 75.54, 167.82 53, 101.38 -2.19 M229.46 101.02 C205.28 78.4, 182.42 56, 111.11 -4.55 M230.49 100.5 C185.81 60.59, 139.45 19.06, 112.99 -3.14 M243.02 100.07 C199.98 61.33, 159.24 23.5, 124.15 -1.69 M244.05 101 C204.75 64.88, 166.07 30.92, 124.57 -4.02 M254.21 99.34 C230.54 74.51, 202.11 50.67, 138.78 -4.52 M256.26 99.33 C232.89 77.7, 208.58 58.1, 137.12 -3.27 M268.51 98.16 C234.24 69.22, 202.32 42.09, 150.71 -2.54 M268.22 99.88 C235.84 72.61, 204.2 44.67, 148.32 -2.9 M279.96 101.74 C245.32 67.39, 207.81 38.1, 160.5 -4.72 M279.95 99.78 C246.54 72.46, 214.7 43.74, 160.87 -3.49 M292.67 101.13 C267.83 74.77, 239.98 51.9, 175.21 -2.95 M292.75 99.95 C251.04 64.35, 211.2 30.73, 173.13 -2.44 M303.27 98.45 C278.41 75.37, 251.29 53.05, 185.75 -4.85 M302.55 97.5 C259.21 60.76, 217.81 24.49, 185.25 -3.66 M302.66 87.59 C263.42 55.19, 227.88 21.75, 196.56 -5.08 M302.56 87.45 C272.57 62.1, 244.37 38.44, 197.79 -3.82 M303.43 77.07 C278.31 54.22, 255.53 33.5, 211.15 -5.52 M301.49 76.83 C276.64 53.41, 250.6 31.34, 210.09 -3.28 M301.38 65.71 C274.65 42.36, 246.26 21.25, 221.59 -3.31 M302.03 65.42 C281.38 47.47, 260.26 28.77, 222.67 -3.12 M302.14 54.41 C279.94 38.13, 258.79 16.45, 234.21 -2.23 M302.27 54.64 C284.4 39.6, 266.62 22.9, 233.8 -3.36 M301.88 45.39 C286.37 33.83, 274.51 21.43, 246.95 -1.54 M301.35 43.95 C284.69 29.11, 266.95 14.27, 247.69 -2.65 M300.83 34.06 C292.33 26.61, 285.88 20.03, 259.02 -3.32 M301.82 33.87 C291.6 25.48, 282.1 15.96, 259.07 -4.49 M301.02 25.74 C294.77 15.23, 286.02 10.72, 272.45 -4.58 M302.24 23.7 C292.07 14.99, 281.73 6.18, 271.59 -4.27 M303.54 14.75 C296.47 6.82, 288.83 1.65, 285.58 -1.36 M303.37 13.91 C295.27 7.7, 289.85 2.24, 284.19 -4.16 M302.42 1.9 C299.02 0.05, 297 -1.34, 295.3 -3.68 M302.61 2.22 C300.23 -0.11, 297.53 -1.85, 295.71 -3.37" stroke="#15aabf" stroke-width="1" fill="none"></path><path d="M0.29 -0.56 C107.95 2.14, 214.51 1.9, 300.02 -1.42 M0.09 -0.42 C72.94 0.3, 145.13 0.59, 299.76 -0.47 M301.08 -0.79 C300.8 22.11, 299.16 43, 299.02 100.97 M299.94 0.56 C299.8 39.51, 300.7 77.96, 301.08 100.2 M301.69 101.3 C225.09 99.09, 146.16 98.67, -0.92 98.83 M300.32 99.86 C233.8 99.23, 165.25 98.6, -0.36 99.87 M-1.27 98.86 C0.25 73.62, -1.15 46.4, 0.6 -0.84 M-0.22 99.03 C-0.83 70.33, -0.76 39.26, -0.28 -0.2" stroke="#000000" stroke-width="2" fill="none"></path></g><g stroke-linecap="round" transform="translate(195.95861102841855 150) rotate(0 150.45412588810586 9.91306365966409)"><path d="M0 0 C0 0, 0 0, 0 0 M0 0 C0 0, 0 0, 0 0 M-0.26 6.4 C1.2 4.72, 2.66 3.04, 4.99 0.36 M-0.26 6.4 C0.92 5.04, 2.1 3.68, 4.99 0.36 M0.13 12.04 C3.14 8.58, 6.15 5.12, 10.63 -0.03 M0.13 12.04 C3.32 8.37, 6.51 4.71, 10.63 -0.03 M-0.13 18.44 C5.09 12.44, 10.3 6.44, 15.62 0.33 M-0.13 18.44 C3.33 14.46, 6.8 10.47, 15.62 0.33 M2.23 21.82 C8.4 14.73, 14.56 7.64, 21.26 -0.07 M2.23 21.82 C7.83 15.38, 13.43 8.93, 21.26 -0.07 M7.88 21.42 C14.58 13.72, 21.28 6.01, 26.25 0.29 M7.88 21.42 C14.12 14.24, 20.37 7.05, 26.25 0.29 M12.86 21.78 C16.8 17.26, 20.73 12.73, 31.89 -0.1 M12.86 21.78 C19.46 14.2, 26.05 6.62, 31.89 -0.1 M17.85 22.14 C22.07 17.29, 26.29 12.43, 36.88 0.26 M17.85 22.14 C22.87 16.37, 27.89 10.59, 36.88 0.26 M23.49 21.75 C28.57 15.91, 33.64 10.08, 42.52 -0.14 M23.49 21.75 C28.97 15.45, 34.44 9.16, 42.52 -0.14 M28.48 22.11 C33.19 16.69, 37.9 11.27, 47.51 0.22 M28.48 22.11 C33.1 16.79, 37.72 11.48, 47.51 0.22 M34.12 21.71 C41.48 13.25, 48.84 4.78, 53.15 -0.17 M34.12 21.71 C39.24 15.84, 44.35 9.96, 53.15 -0.17 M39.11 22.07 C46.49 13.58, 53.88 5.09, 58.14 0.19 M39.11 22.07 C42.96 17.65, 46.81 13.22, 58.14 0.19 M44.75 21.68 C50.5 15.07, 56.24 8.47, 63.78 -0.21 M44.75 21.68 C49.77 15.91, 54.79 10.14, 63.78 -0.21 M49.74 22.04 C55.29 15.66, 60.83 9.28, 68.77 0.15 M49.74 22.04 C54.31 16.78, 58.89 11.52, 68.77 0.15 M55.38 21.65 C61.06 15.12, 66.73 8.6, 74.41 -0.24 M55.38 21.65 C62.44 13.53, 69.49 5.42, 74.41 -0.24 M60.37 22.01 C64.31 17.47, 68.25 12.94, 79.4 0.12 M60.37 22.01 C66.64 14.8, 72.9 7.59, 79.4 0.12 M66.02 21.61 C71.98 14.75, 77.94 7.89, 85.04 -0.28 M66.02 21.61 C71.93 14.81, 77.84 8.01, 85.04 -0.28 M71 21.97 C76.45 15.7, 81.9 9.43, 90.03 0.08 M71 21.97 C75.08 17.28, 79.15 12.59, 90.03 0.08 M76.65 21.58 C81.15 16.39, 85.66 11.2, 95.67 -0.31 M76.65 21.58 C82.89 14.39, 89.14 7.21, 95.67 -0.31 M81.63 21.94 C86.99 15.77, 92.36 9.6, 100.66 0.05 M81.63 21.94 C87.61 15.06, 93.59 8.18, 100.66 0.05 M87.28 21.54 C91.27 16.95, 95.26 12.35, 106.3 -0.34 M87.28 21.54 C92.82 15.16, 98.37 8.78, 106.3 -0.34 M92.26 21.9 C96.97 16.48, 101.68 11.06, 111.29 0.02 M92.26 21.9 C96.48 17.05, 100.69 12.21, 111.29 0.02 M97.91 21.51 C103.87 14.65, 109.83 7.79, 116.27 0.38 M97.91 21.51 C105.11 13.22, 112.31 4.94, 116.27 0.38 M102.89 21.87 C107.45 16.62, 112.01 11.38, 121.92 -0.02 M102.89 21.87 C106.73 17.45, 110.56 13.04, 121.92 -0.02 M108.54 21.47 C114.51 14.6, 120.49 7.72, 126.91 0.34 M108.54 21.47 C113.03 16.31, 117.52 11.14, 126.91 0.34 M113.52 21.83 C117.61 17.13, 121.7 12.42, 132.55 -0.05 M113.52 21.83 C119.11 15.4, 124.7 8.97, 132.55 -0.05 M119.17 21.44 C124.81 14.94, 130.46 8.44, 137.54 0.31 M119.17 21.44 C126.28 13.25, 133.4 5.07, 137.54 0.31 M124.15 21.8 C130.49 14.51, 136.82 7.23, 143.18 -0.09 M124.15 21.8 C128.16 17.19, 132.17 12.57, 143.18 -0.09 M129.14 22.16 C133.29 17.38, 137.45 12.6, 148.17 0.27 M129.14 22.16 C136.42 13.79, 143.69 5.42, 148.17 0.27 M134.78 21.76 C139.61 16.21, 144.44 10.66, 153.81 -0.12 M134.78 21.76 C139.31 16.55, 143.85 11.34, 153.81 -0.12 M139.77 22.12 C146.56 14.32, 153.35 6.51, 158.8 0.24 M139.77 22.12 C145.76 15.23, 151.76 8.33, 158.8 0.24 M145.41 21.73 C149.97 16.49, 154.52 11.25, 164.44 -0.16 M145.41 21.73 C151.8 14.38, 158.19 7.03, 164.44 -0.16 M150.4 22.09 C155.59 16.12, 160.78 10.14, 169.43 0.2 M150.4 22.09 C155.99 15.66, 161.58 9.23, 169.43 0.2 M156.04 21.69 C160.87 16.14, 165.7 10.59, 175.07 -0.19 M156.04 21.69 C160.54 16.52, 165.04 11.35, 175.07 -0.19 M161.03 22.05 C166.14 16.17, 171.26 10.29, 180.06 0.17 M161.03 22.05 C167.7 14.38, 174.37 6.71, 180.06 0.17 M166.67 21.66 C171.65 15.93, 176.63 10.21, 185.7 -0.23 M166.67 21.66 C173.26 14.08, 179.85 6.5, 185.7 -0.23 M171.66 22.02 C177.32 15.51, 182.99 8.99, 190.69 0.13 M171.66 22.02 C178.15 14.55, 184.64 7.08, 190.69 0.13 M177.3 21.63 C183.58 14.4, 189.86 7.18, 196.33 -0.26 M177.3 21.63 C181.97 16.26, 186.63 10.89, 196.33 -0.26 M182.29 21.99 C187.33 16.19, 192.36 10.4, 201.32 0.1 M182.29 21.99 C186.94 16.63, 191.6 11.28, 201.32 0.1 M187.93 21.59 C194.15 14.43, 200.38 7.28, 206.96 -0.3 M187.93 21.59 C195.29 13.13, 202.64 4.68, 206.96 -0.3 M192.92 21.95 C199.13 14.81, 205.34 7.66, 211.95 0.06 M192.92 21.95 C197.93 16.19, 202.93 10.43, 211.95 0.06 M198.56 21.56 C202.8 16.68, 207.03 11.81, 217.59 -0.33 M198.56 21.56 C206.11 12.88, 213.65 4.2, 217.59 -0.33 M203.55 21.92 C210.99 13.36, 218.43 4.8, 222.58 0.03 M203.55 21.92 C209.69 14.86, 215.83 7.79, 222.58 0.03 M209.19 21.52 C216.58 13.03, 223.96 4.53, 228.22 -0.36 M209.19 21.52 C216.34 13.3, 223.49 5.08, 228.22 -0.36 M214.18 21.88 C218.33 17.11, 222.48 12.34, 233.21 0 M214.18 21.88 C221.27 13.73, 228.35 5.58, 233.21 0 M219.82 21.49 C225.27 15.22, 230.72 8.95, 238.19 0.36 M219.82 21.49 C227.12 13.09, 234.42 4.7, 238.19 0.36 M224.81 21.85 C230.88 14.87, 236.94 7.89, 243.84 -0.04 M224.81 21.85 C230.24 15.6, 235.67 9.36, 243.84 -0.04 M230.45 21.45 C234.54 16.75, 238.63 12.04, 248.82 0.32 M230.45 21.45 C234.28 17.05, 238.1 12.65, 248.82 0.32 M235.44 21.81 C240.31 16.21, 245.19 10.6, 254.47 -0.07 M235.44 21.81 C242.24 13.99, 249.04 6.17, 254.47 -0.07 M241.08 21.42 C247.37 14.19, 253.66 6.96, 259.45 0.29 M241.08 21.42 C247.13 14.47, 253.17 7.51, 259.45 0.29 M246.07 21.78 C252.62 14.24, 259.18 6.7, 265.1 -0.11 M246.07 21.78 C250.03 17.22, 253.99 12.66, 265.1 -0.11 M251.06 22.14 C255.49 17.04, 259.92 11.94, 270.08 0.25 M251.06 22.14 C257.78 14.4, 264.51 6.67, 270.08 0.25 M256.7 21.74 C263.35 14.09, 270.01 6.44, 275.73 -0.14 M256.7 21.74 C262.05 15.6, 267.39 9.45, 275.73 -0.14 M261.69 22.1 C268.81 13.91, 275.93 5.72, 280.71 0.22 M261.69 22.1 C266.42 16.66, 271.16 11.21, 280.71 0.22 M267.33 21.71 C274.74 13.19, 282.15 4.67, 286.36 -0.18 M267.33 21.71 C273.84 14.23, 280.34 6.74, 286.36 -0.18 M272.32 22.07 C277.01 16.67, 281.71 11.27, 291.34 0.18 M272.32 22.07 C277.18 16.47, 282.05 10.87, 291.34 0.18 M277.96 21.68 C282.38 16.59, 286.81 11.5, 296.99 -0.21 M277.96 21.68 C285.21 13.33, 292.47 4.99, 296.99 -0.21 M282.95 22.04 C287.22 17.12, 291.5 12.2, 301.32 0.9 M282.95 22.04 C290.08 13.83, 297.22 5.62, 301.32 0.9 M288.59 21.64 C293.83 15.61, 299.08 9.58, 301.71 6.55 M288.59 21.64 C292.69 16.93, 296.78 12.22, 301.71 6.55 M293.58 22 C296.07 19.14, 298.56 16.27, 301.45 12.94 M293.58 22 C296.21 18.97, 298.84 15.94, 301.45 12.94 M299.22 21.61 C299.91 20.81, 300.6 20.02, 301.85 18.59 M299.22 21.61 C299.93 20.79, 300.64 19.97, 301.85 18.59 M-0.01 19.82 C-0.01 19.82, -0.01 19.82, -0.01 19.82 M-0.01 19.82 C-0.01 19.82, -0.01 19.82, -0.01 19.82 M6.39 20.08 C4.3 18.26, 2.21 16.44, 0.35 14.83 M6.39 20.08 C4.47 18.41, 2.54 16.73, 0.35 14.83 M12.04 19.69 C8.18 16.34, 4.32 12.98, -0.04 9.19 M12.04 19.69 C7.4 15.66, 2.76 11.63, -0.04 9.19 M18.43 19.95 C14.35 16.4, 10.26 12.85, 0.32 4.2 M18.43 19.95 C12.29 14.61, 6.14 9.27, 0.32 4.2 M24.08 19.56 C16.72 13.16, 9.36 6.76, 0.68 -0.78 M24.08 19.56 C16.36 12.85, 8.65 6.15, 0.68 -0.78 M30.47 19.82 C25.17 15.21, 19.87 10.59, 7.08 -0.52 M30.47 19.82 C22.55 12.93, 14.62 6.04, 7.08 -0.52 M36.87 20.08 C28.21 12.55, 19.55 5.02, 12.72 -0.92 M36.87 20.08 C27.86 12.24, 18.84 4.4, 12.72 -0.92 M42.51 19.68 C34.83 13, 27.14 6.32, 19.12 -0.65 M42.51 19.68 C34.37 12.6, 26.22 5.52, 19.12 -0.65 M48.91 19.94 C40.63 12.75, 32.35 5.55, 24.76 -1.05 M48.91 19.94 C42.4 14.28, 35.88 8.62, 24.76 -1.05 M54.56 19.55 C48.45 14.24, 42.34 8.93, 31.16 -0.79 M54.56 19.55 C47.03 13.01, 39.51 6.47, 31.16 -0.79 M60.95 19.81 C52.5 12.47, 44.05 5.12, 37.56 -0.53 M60.95 19.81 C55.17 14.78, 49.39 9.76, 37.56 -0.53 M67.35 20.07 C62.38 15.75, 57.41 11.43, 43.2 -0.92 M67.35 20.07 C61.65 15.12, 55.95 10.16, 43.2 -0.92 M72.99 19.68 C68.13 15.45, 63.26 11.22, 49.6 -0.66 M72.99 19.68 C65.81 13.43, 58.62 7.18, 49.6 -0.66 M79.39 19.94 C72.24 13.73, 65.09 7.51, 55.24 -1.05 M79.39 19.94 C69.9 11.69, 60.41 3.44, 55.24 -1.05 M85.04 19.55 C78.49 13.85, 71.94 8.16, 61.64 -0.79 M85.04 19.55 C77.44 12.94, 69.84 6.34, 61.64 -0.79 M91.43 19.81 C84.03 13.37, 76.63 6.94, 68.04 -0.53 M91.43 19.81 C84.03 13.37, 76.63 6.94, 68.04 -0.53 M97.83 20.07 C91.2 14.3, 84.56 8.53, 73.68 -0.93 M97.83 20.07 C89.41 12.75, 81 5.43, 73.68 -0.93 M103.47 19.67 C98.73 15.55, 93.98 11.42, 80.08 -0.66 M103.47 19.67 C97.54 14.51, 91.6 9.35, 80.08 -0.66 M109.87 19.94 C102.82 13.8, 95.76 7.67, 85.72 -1.06 M109.87 19.94 C102.62 13.63, 95.36 7.32, 85.72 -1.06 M115.51 19.54 C107.48 12.55, 99.44 5.56, 92.12 -0.8 M115.51 19.54 C109.04 13.91, 102.57 8.29, 92.12 -0.8 M121.91 19.8 C114.12 13.02, 106.32 6.25, 98.52 -0.54 M121.91 19.8 C115.46 14.19, 109.01 8.59, 98.52 -0.54 M128.31 20.06 C121.6 14.23, 114.89 8.39, 104.16 -0.93 M128.31 20.06 C119.14 12.1, 109.98 4.13, 104.16 -0.93 M133.95 19.67 C129.26 15.59, 124.56 11.51, 110.56 -0.67 M133.95 19.67 C128.26 14.72, 122.56 9.77, 110.56 -0.67 M140.35 19.93 C130.77 11.6, 121.19 3.28, 116.2 -1.06 M140.35 19.93 C131.16 11.94, 121.98 3.96, 116.2 -1.06 M145.99 19.54 C136.67 11.43, 127.34 3.32, 122.6 -0.8 M145.99 19.54 C137.91 12.51, 129.82 5.48, 122.6 -0.8 M152.39 19.8 C146.72 14.87, 141.05 9.94, 129 -0.54 M152.39 19.8 C147.23 15.31, 142.06 10.82, 129 -0.54 M158.79 20.06 C153.17 15.17, 147.54 10.28, 134.64 -0.94 M158.79 20.06 C149.17 11.7, 139.56 3.34, 134.64 -0.94 M164.43 19.66 C159.54 15.41, 154.64 11.16, 141.04 -0.67 M164.43 19.66 C158.22 14.26, 152.01 8.86, 141.04 -0.67 M170.83 19.93 C163.33 13.4, 155.82 6.88, 146.68 -1.07 M170.83 19.93 C161.41 11.74, 151.99 3.55, 146.68 -1.07 M176.47 19.53 C170.8 14.6, 165.12 9.66, 153.08 -0.81 M176.47 19.53 C171.72 15.4, 166.97 11.27, 153.08 -0.81 M182.87 19.79 C177.23 14.89, 171.58 9.98, 159.48 -0.55 M182.87 19.79 C173.89 11.98, 164.91 4.17, 159.48 -0.55 M189.27 20.05 C181.06 12.92, 172.85 5.78, 165.12 -0.94 M189.27 20.05 C180.93 12.81, 172.6 5.56, 165.12 -0.94 M194.91 19.66 C187.08 12.85, 179.25 6.04, 171.52 -0.68 M194.91 19.66 C189.86 15.27, 184.81 10.88, 171.52 -0.68 M201.31 19.92 C195.27 14.67, 189.24 9.43, 177.16 -1.07 M201.31 19.92 C193.41 13.06, 185.52 6.19, 177.16 -1.07 M206.95 19.53 C199.85 13.35, 192.75 7.18, 183.56 -0.81 M206.95 19.53 C197.71 11.49, 188.46 3.45, 183.56 -0.81 M213.35 19.79 C204.63 12.2, 195.9 4.62, 189.96 -0.55 M213.35 19.79 C208.5 15.57, 203.65 11.36, 189.96 -0.55 M219.75 20.05 C211.04 12.48, 202.32 4.9, 195.6 -0.94 M219.75 20.05 C214.8 15.75, 209.86 11.45, 195.6 -0.94 M225.39 19.65 C219.3 14.35, 213.2 9.06, 202 -0.68 M225.39 19.65 C216.78 12.17, 208.16 4.68, 202 -0.68 M231.79 19.92 C224.01 13.16, 216.24 6.4, 207.64 -1.08 M231.79 19.92 C226.93 15.69, 222.08 11.47, 207.64 -1.08 M237.43 19.52 C230.03 13.08, 222.62 6.64, 214.04 -0.82 M237.43 19.52 C232.4 15.15, 227.37 10.77, 214.04 -0.82 M243.83 19.78 C236.73 13.61, 229.62 7.43, 220.43 -0.56 M243.83 19.78 C236.49 13.4, 229.15 7.02, 220.43 -0.56 M250.23 20.04 C243.08 13.83, 235.94 7.62, 226.08 -0.95 M250.23 20.04 C243.53 14.22, 236.84 8.41, 226.08 -0.95 M255.87 19.65 C250.62 15.09, 245.38 10.53, 232.48 -0.69 M255.87 19.65 C247.77 12.61, 239.68 5.57, 232.48 -0.69 M262.27 19.91 C257.32 15.61, 252.37 11.31, 238.12 -1.08 M262.27 19.91 C254.86 13.47, 247.45 7.03, 238.12 -1.08 M267.91 19.52 C260.81 13.34, 253.71 7.17, 244.52 -0.82 M267.91 19.52 C261.49 13.93, 255.06 8.34, 244.52 -0.82 M274.31 19.78 C269.58 15.67, 264.86 11.56, 250.91 -0.56 M274.31 19.78 C265.43 12.06, 256.55 4.34, 250.91 -0.56 M280.71 20.04 C271.94 12.42, 263.17 4.8, 256.56 -0.95 M280.71 20.04 C272.27 12.7, 263.82 5.36, 256.56 -0.95 M286.35 19.64 C279.41 13.61, 272.47 7.58, 262.96 -0.69 M286.35 19.64 C277.11 11.61, 267.86 3.57, 262.96 -0.69 M292.75 19.91 C284.89 13.07, 277.02 6.24, 268.6 -1.09 M292.75 19.91 C283.23 11.63, 273.71 3.35, 268.6 -1.09 M298.39 19.51 C292.53 14.42, 286.68 9.33, 275 -0.83 M298.39 19.51 C289.59 11.86, 280.79 4.21, 275 -0.83 M302.53 17.8 C295.85 12.01, 289.18 6.21, 281.39 -0.56 M302.53 17.8 C296.06 12.19, 289.6 6.57, 281.39 -0.56 M302.89 12.82 C298.52 9.02, 294.15 5.22, 287.04 -0.96 M302.89 12.82 C297.04 7.74, 291.2 2.66, 287.04 -0.96 M302.49 7.17 C299.23 4.34, 295.98 1.51, 293.43 -0.7 M302.49 7.17 C299.28 4.38, 296.07 1.59, 293.43 -0.7 M302.85 2.19 C301.58 1.08, 300.31 -0.02, 299.08 -1.09 M302.85 2.19 C301.56 1.07, 300.27 -0.06, 299.08 -1.09" stroke="#fd7e14" stroke-width="0.5" fill="none"></path><path d="M0 0 C92.02 0, 184.04 0, 300.91 0 M0 0 C113.96 0, 227.92 0, 300.91 0 M300.91 0 C300.91 4.9, 300.91 9.81, 300.91 19.83 M300.91 0 C300.91 7.26, 300.91 14.51, 300.91 19.83 M300.91 19.83 C186.49 19.83, 72.07 19.83, 0 19.83 M300.91 19.83 C236.28 19.83, 171.66 19.83, 0 19.83 M0 19.83 C0 12.62, 0 5.42, 0 0 M0 19.83 C0 12.87, 0 5.91, 0 0" stroke="#000000" stroke-width="1" fill="none"></path></g><g stroke-linecap="round" transform="translate(195.48368386538687 176) rotate(0 60 10)"><path d="M0 0 C0 0, 0 0, 0 0 M0 0 C0 0, 0 0, 0 0 M-0.26 6.4 C0.9 5.06, 2.06 3.73, 4.99 0.36 M-0.26 6.4 C1.27 4.64, 2.8 2.88, 4.99 0.36 M0.13 12.04 C4.11 7.46, 8.1 2.88, 10.63 -0.03 M0.13 12.04 C3.19 8.53, 6.24 5.01, 10.63 -0.03 M-0.13 18.44 C5.56 11.9, 11.24 5.36, 15.62 0.33 M-0.13 18.44 C3.13 14.7, 6.38 10.95, 15.62 0.33 M2.23 21.82 C8.44 14.68, 14.64 7.55, 21.26 -0.07 M2.23 21.82 C7.1 16.22, 11.97 10.62, 21.26 -0.07 M7.22 22.18 C13.18 15.32, 19.14 8.46, 26.25 0.29 M7.22 22.18 C13.34 15.14, 19.46 8.1, 26.25 0.29 M12.86 21.78 C19.07 14.65, 25.27 7.51, 31.89 -0.1 M12.86 21.78 C18.93 14.81, 25 7.83, 31.89 -0.1 M17.85 22.14 C23.86 15.24, 29.86 8.33, 36.88 0.26 M17.85 22.14 C22.77 16.48, 27.7 10.82, 36.88 0.26 M23.49 21.75 C28.56 15.92, 33.62 10.1, 42.52 -0.14 M23.49 21.75 C27.6 17.03, 31.7 12.31, 42.52 -0.14 M28.48 22.11 C35.69 13.82, 42.9 5.52, 47.51 0.22 M28.48 22.11 C35.93 13.54, 43.38 4.96, 47.51 0.22 M34.12 21.71 C40.91 13.91, 47.69 6.11, 53.15 -0.17 M34.12 21.71 C39.51 15.52, 44.9 9.32, 53.15 -0.17 M39.11 22.07 C46.49 13.59, 53.86 5.1, 58.14 0.19 M39.11 22.07 C45.69 14.51, 52.27 6.94, 58.14 0.19 M44.75 21.68 C49.15 16.62, 53.55 11.57, 63.78 -0.21 M44.75 21.68 C51.61 13.8, 58.46 5.92, 63.78 -0.21 M49.74 22.04 C57.35 13.29, 64.96 4.54, 68.77 0.15 M49.74 22.04 C55.41 15.52, 61.07 9, 68.77 0.15 M55.38 21.65 C60.08 16.25, 64.77 10.85, 74.41 -0.24 M55.38 21.65 C60.84 15.37, 66.29 9.1, 74.41 -0.24 M60.37 22.01 C66.97 14.42, 73.57 6.83, 79.4 0.12 M60.37 22.01 C65.63 15.96, 70.89 9.91, 79.4 0.12 M66.02 21.61 C73.32 13.21, 80.62 4.81, 85.04 -0.28 M66.02 21.61 C69.9 17.14, 73.79 12.66, 85.04 -0.28 M71 21.97 C77.34 14.68, 83.68 7.39, 90.03 0.08 M71 21.97 C75.98 16.25, 80.95 10.53, 90.03 0.08 M76.65 21.58 C83.24 13.99, 89.83 6.4, 95.67 -0.31 M76.65 21.58 C81.53 15.96, 86.41 10.34, 95.67 -0.31 M81.63 21.94 C88.05 14.56, 94.46 7.18, 100.66 0.05 M81.63 21.94 C87.04 15.71, 92.46 9.48, 100.66 0.05 M87.28 21.54 C92.27 15.8, 97.26 10.05, 106.3 -0.34 M87.28 21.54 C92.76 15.23, 98.25 8.91, 106.3 -0.34 M92.26 21.9 C98.17 15.11, 104.07 8.32, 111.29 0.02 M92.26 21.9 C98.52 14.71, 104.77 7.51, 111.29 0.02 M97.25 22.26 C104.52 13.9, 111.79 5.53, 116.27 0.38 M97.25 22.26 C103.83 14.69, 110.42 7.11, 116.27 0.38 M102.89 21.87 C108 15.99, 113.11 10.12, 121.26 0.74 M102.89 21.87 C107.1 17.03, 111.3 12.2, 121.26 0.74 M107.88 22.23 C112.87 16.49, 117.86 10.75, 121 7.13 M107.88 22.23 C112.83 16.53, 117.78 10.83, 121 7.13 M113.52 21.83 C115.4 19.67, 117.28 17.51, 121.4 12.78 M113.52 21.83 C116.44 18.47, 119.36 15.11, 121.4 12.78 M-0.09 19.92 C-0.09 19.92, -0.09 19.92, -0.09 19.92 M-0.09 19.92 C-0.09 19.92, -0.09 19.92, -0.09 19.92 M6.31 20.18 C4.71 18.8, 3.12 17.41, 0.27 14.93 M6.31 20.18 C3.93 18.12, 1.56 16.05, 0.27 14.93 M11.95 19.79 C9.23 17.43, 6.51 15.06, -0.13 9.29 M11.95 19.79 C8.79 17.04, 5.64 14.3, -0.13 9.29 M18.35 20.05 C11.11 13.76, 3.88 7.47, 0.23 4.3 M18.35 20.05 C13.19 15.57, 8.04 11.09, 0.23 4.3 M24.74 20.31 C19 15.32, 13.26 10.33, 0.59 -0.68 M24.74 20.31 C19.49 15.74, 14.24 11.18, 0.59 -0.68 M30.39 19.92 C21.87 12.51, 13.36 5.11, 6.99 -0.42 M30.39 19.92 C23.69 14.09, 16.99 8.27, 6.99 -0.42 M36.79 20.18 C30.51 14.72, 24.22 9.26, 12.64 -0.82 M36.79 20.18 C28.21 12.72, 19.64 5.27, 12.64 -0.82 M42.43 19.78 C36.58 14.7, 30.74 9.62, 19.03 -0.56 M42.43 19.78 C33.28 11.83, 24.14 3.88, 19.03 -0.56 M48.83 20.04 C39.56 11.99, 30.3 3.94, 24.68 -0.95 M48.83 20.04 C43.28 15.22, 37.73 10.4, 24.68 -0.95 M55.22 20.31 C49.85 15.63, 44.47 10.96, 31.07 -0.69 M55.22 20.31 C49.38 15.22, 43.53 10.14, 31.07 -0.69 M60.87 19.91 C53.3 13.33, 45.74 6.76, 37.47 -0.43 M60.87 19.91 C53.88 13.83, 46.89 7.76, 37.47 -0.43 M67.27 20.17 C61.91 15.52, 56.56 10.86, 43.11 -0.82 M67.27 20.17 C61.57 15.22, 55.87 10.27, 43.11 -0.82 M72.91 19.78 C65.48 13.32, 58.05 6.86, 49.51 -0.56 M72.91 19.78 C67.73 15.28, 62.56 10.78, 49.51 -0.56 M79.31 20.04 C73.04 14.59, 66.78 9.15, 55.16 -0.95 M79.31 20.04 C74.01 15.43, 68.71 10.83, 55.16 -0.95 M85.7 20.3 C80.2 15.51, 74.69 10.73, 61.55 -0.69 M85.7 20.3 C77.07 12.79, 68.43 5.29, 61.55 -0.69 M91.35 19.91 C83.82 13.36, 76.29 6.82, 67.95 -0.43 M91.35 19.91 C82.19 11.95, 73.04 3.99, 67.95 -0.43 M97.74 20.17 C91.95 15.13, 86.15 10.09, 73.59 -0.83 M97.74 20.17 C91.23 14.51, 84.72 8.84, 73.59 -0.83 M103.39 19.77 C97.11 14.32, 90.83 8.86, 79.99 -0.56 M103.39 19.77 C98.67 15.67, 93.95 11.57, 79.99 -0.56 M109.79 20.03 C101.04 12.43, 92.29 4.83, 85.63 -0.96 M109.79 20.03 C104.44 15.39, 99.1 10.74, 85.63 -0.96 M116.18 20.3 C108.17 13.33, 100.15 6.36, 92.03 -0.7 M116.18 20.3 C110.07 14.99, 103.97 9.68, 92.03 -0.7 M121.07 19.25 C113.68 12.82, 106.28 6.39, 98.43 -0.44 M121.07 19.25 C114.79 13.78, 108.5 8.32, 98.43 -0.44 M120.68 13.6 C117.04 10.44, 113.41 7.28, 104.07 -0.83 M120.68 13.6 C114.07 7.86, 107.46 2.11, 104.07 -0.83 M121.04 8.62 C117.99 5.96, 114.93 3.31, 110.47 -0.57 M121.04 8.62 C118.87 6.73, 116.7 4.85, 110.47 -0.57 M120.64 2.97 C119.7 2.15, 118.75 1.33, 116.11 -0.96 M120.64 2.97 C119.55 2.02, 118.45 1.06, 116.11 -0.96" stroke="#fd7e14" stroke-width="0.5" fill="none"></path><path d="M0 0 C41.12 0, 82.23 0, 120 0 M0 0 C42.63 0, 85.25 0, 120 0 M120 0 C120 5.92, 120 11.83, 120 20 M120 0 C120 6.6, 120 13.2, 120 20 M120 20 C82.1 20, 44.21 20, 0 20 M120 20 C81.32 20, 42.64 20, 0 20 M0 20 C0 13.41, 0 6.81, 0 0 M0 20 C0 15.89, 0 11.77, 0 0" stroke="#000000" stroke-width="1" fill="none"></path></g><g transform="translate(176.04755674179705 430.25449959253865) rotate(0 167.63635808771278 -2.772718949751379)" stroke="none"><path fill="transparent" d="M 0,-1.56 Q 0,-1.56 2.09,-1.53 4.18,-1.51 6.68,-1.69 9.18,-1.87 12.40,-1.94 15.62,-2.01 19.49,-2.03 23.37,-2.06 27.31,-2.06 31.25,-2.07 34.39,-2.07 37.53,-2.07 41.13,-2.27 44.73,-2.48 48.17,-2.56 51.62,-2.65 54.13,-2.69 56.64,-2.72 59.38,-2.74 62.12,-2.75 66.01,-2.76 69.89,-2.76 74.05,-2.76 78.21,-2.76 82.91,-2.76 87.60,-2.77 92.31,-2.77 97.03,-2.77 101.96,-2.76 106.89,-2.76 110.45,-2.76 114.01,-2.76 116.56,-2.76 119.12,-2.76 121.12,-2.59 123.12,-2.42 124.84,-2.19 126.55,-1.96 128.59,-1.99 130.63,-2.02 141.53,-2.33 152.43,-2.64 163.39,-2.75 174.35,-2.85 183.58,-3.09 192.82,-3.32 202.40,-3.61 211.97,-3.91 220.83,-4.44 229.69,-4.97 235.99,-5.19 242.29,-5.41 247.24,-5.71 252.20,-6.01 256.63,-6.13 261.07,-6.25 264.59,-6.51 268.10,-6.77 271.05,-7.08 274.00,-7.40 276.34,-7.53 278.69,-7.67 280.31,-7.82 281.93,-7.97 283.25,-8.10 284.58,-8.23 285.76,-8.11 286.94,-7.99 288.58,-7.72 290.23,-7.44 292.00,-7.10 293.76,-6.76 295.65,-6.58 297.53,-6.40 299.19,-6.37 300.84,-6.33 301.97,-6.39 303.09,-6.44 304.19,-6.50 305.29,-6.56 307.17,-6.68 309.06,-6.79 310.32,-6.81 311.59,-6.84 312.97,-6.64 314.36,-6.44 315.82,-6.41 317.28,-6.38 318.68,-6.35 320.08,-6.31 321.31,-6.31 322.54,-6.32 323.69,-6.33 324.84,-6.34 326.91,-6.15 328.98,-5.95 330.35,-5.36 331.73,-4.78 333.51,-4.25 335.30,-3.73 335.71,-3.52 336.13,-3.31 336.45,-2.97 336.78,-2.64 336.98,-2.22 337.18,-1.81 337.24,-1.34 337.30,-0.88 337.21,-0.43 337.12,0.02 336.88,0.42 336.65,0.82 336.30,1.13 335.95,1.44 335.52,1.62 335.09,1.80 334.63,1.83 334.17,1.86 333.72,1.75 333.27,1.63 332.88,1.38 332.49,1.12 332.20,0.76 331.91,0.39 331.76,-0.04 331.60,-0.48 331.59,-0.94 331.58,-1.40 331.72,-1.85 331.87,-2.29 332.14,-2.67 332.42,-3.04 332.80,-3.31 333.18,-3.58 333.62,-3.71 334.07,-3.84 334.53,-3.82 335.00,-3.81 335.43,-3.64 335.87,-3.48 336.23,-3.18 336.59,-2.89 336.83,-2.49 337.08,-2.10 337.19,-1.65 337.29,-1.19 337.25,-0.73 337.21,-0.27 337.02,0.15 336.83,0.57 336.52,0.92 336.21,1.26 335.80,1.48 335.39,1.71 334.93,1.79 334.48,1.87 334.02,1.81 333.56,1.74 333.56,1.74 333.56,1.74 331.53,1.05 329.51,0.37 328.53,-0.05 327.54,-0.48 326.19,-0.70 324.83,-0.93 323.67,-0.95 322.51,-0.97 321.27,-0.98 320.02,-1.00 317.50,-1.08 314.99,-1.15 313.28,-1.52 311.57,-1.88 310.31,-1.91 309.05,-1.93 307.15,-2.06 305.24,-2.19 304.12,-2.27 303.00,-2.35 301.85,-2.46 300.71,-2.56 298.99,-2.65 297.27,-2.74 295.16,-2.84 293.04,-2.95 291.30,-3.27 289.55,-3.60 287.09,-4.19 284.63,-4.78 283.33,-4.86 282.04,-4.94 280.44,-4.97 278.84,-5.01 276.57,-4.87 274.29,-4.73 271.30,-4.40 268.31,-4.08 264.73,-3.80 261.15,-3.53 256.76,-3.39 252.37,-3.25 247.38,-2.93 242.40,-2.60 236.13,-2.35 229.87,-2.09 220.97,-1.51 212.07,-0.93 202.49,-0.57 192.92,-0.20 183.66,0.11 174.40,0.44 163.48,0.67 152.56,0.90 141.51,1.38 130.46,1.86 128.23,1.47 126.00,1.08 124.41,0.72 122.82,0.35 120.97,0.10 119.12,-0.14 116.56,-0.13 114.01,-0.13 110.45,-0.13 106.89,-0.13 101.96,-0.13 97.03,-0.13 92.31,-0.13 87.60,-0.13 82.91,-0.13 78.21,-0.13 74.05,-0.12 69.90,-0.12 66.02,-0.11 62.14,-0.10 59.41,-0.08 56.68,-0.06 54.19,-0.02 51.69,0.01 48.29,0.10 44.88,0.19 41.21,0.41 37.54,0.63 34.40,0.65 31.27,0.66 27.33,0.69 23.39,0.71 19.55,0.77 15.70,0.82 12.56,0.92 9.42,1.03 6.80,1.27 4.18,1.51 2.09,1.53 0,1.56 -0.18,1.54 -0.37,1.51 -0.55,1.45 -0.72,1.38 -0.88,1.27 -1.03,1.17 -1.16,1.03 -1.28,0.88 -1.37,0.72 -1.46,0.55 -1.50,0.37 -1.55,0.18 -1.55,-0.00 -1.55,-0.18 -1.50,-0.37 -1.46,-0.55 -1.37,-0.72 -1.28,-0.88 -1.16,-1.03 -1.03,-1.17 -0.88,-1.27 -0.72,-1.38 -0.55,-1.45 -0.37,-1.51 -0.18,-1.54 0.00,-1.56 0.00,-1.56 L 0,-1.56 Z"></path></g><g stroke-linecap="round"><g transform="translate(175.7751641292125 430) rotate(0 170.19489584842972 0.27817850023120627)"><path d="M-0.28 1.05 C100.13 -1.43, 200.63 -1.81, 339.16 1.3 M-0.17 -0.35 C132.91 1.85, 266.31 2.26, 340.67 -0.15" stroke="#000000" stroke-width="1" fill="none"></path></g></g><g stroke-linecap="round"><g transform="translate(515.7751641292125 430) rotate(0 0.173525666855312 60.3713474110142)"><path d="M-0.25 0.94 C-0.5 20.84, -0.64 100.5, -0.61 120.35 M1.82 0.4 C1.35 19.83, -1.08 98.25, -1.48 118.41" stroke="#000000" stroke-width="1" fill="none"></path></g></g><g stroke-linecap="round" transform="translate(195.7751641292125 450) rotate(0 150.1435091444887 40)"><path d="M0 0 C0 0, 0 0, 0 0 M0 0 C0 0, 0 0, 0 0 M0.19 12.48 C5.48 8.57, 9.36 3.57, 11.81 -0.49 M0.86 12.36 C2.53 9.54, 5.05 5.83, 10.15 0.74 M1.09 23.95 C9.2 16.46, 17.48 6.34, 22.53 0.32 M0.61 24.97 C8.1 15.22, 15.14 6.64, 21.89 0.13 M-2.19 37.52 C9.94 26.15, 18.73 15.16, 32.27 -0.41 M-1 37.06 C8.56 26.57, 19.53 13.8, 31.17 0.35 M0.73 48.25 C10.47 36.55, 23.19 20.8, 42.64 0.3 M0.39 48.33 C10.37 35.57, 21.35 23.23, 43.44 -0.4 M-1.19 60.66 C19.56 37.73, 42.3 13.3, 54.24 -1.89 M-0.95 61.72 C16.72 42.55, 32.58 22.8, 52.92 0.31 M-1.04 73.11 C18.48 53.5, 37.95 30.03, 63.73 0.49 M-0.44 72.8 C18.29 51.8, 36.91 30.34, 64.13 -0.33 M4.78 82.73 C27.91 50.73, 55.49 21.74, 72.56 -2.01 M2.38 81.9 C26.54 54.59, 48.7 26.17, 73.51 0.03 M13.3 80.72 C32.3 57.34, 53.18 37.87, 83.77 -0.53 M13.55 82.49 C42.88 49.65, 70.26 16.07, 85 -0.73 M23.97 81.7 C45.97 54.46, 69.3 31.72, 94.67 -0.61 M24.5 81.67 C41.98 61.06, 60.97 38.67, 95.74 -0.83 M35.77 83.55 C62.43 51.97, 85.2 21.99, 105.64 0.99 M34.03 83.11 C59.1 54.42, 85.22 24.87, 105.62 -0.23 M46.71 80.7 C64.84 57.56, 86.75 34.88, 116.21 0.36 M44.71 83.53 C59.68 64.26, 75.4 46.45, 116.32 0.55 M54.62 83.93 C77.94 56.22, 100.57 30.94, 128.42 -1.36 M54.54 83.55 C78.28 54.24, 102.49 28.56, 127.49 -0.27 M64.56 80.58 C84.74 57.9, 106.74 35.98, 135.66 1.81 M65.22 83.04 C92.86 53.05, 120.03 21.18, 138.49 1.21 M76.87 82.54 C101.4 54.19, 127.11 26.05, 150.03 0.9 M77.1 82.32 C90.7 65.46, 105.4 47.51, 148.62 -0.11 M87.96 81.55 C106.15 59.67, 124.41 41.49, 158.44 0.03 M86.83 82.45 C113.08 53.56, 139.49 23.53, 158.09 0.85 M99.06 84.41 C122.27 53.95, 150.02 25.91, 171.32 -0.38 M96.96 81.65 C116.54 61.26, 135.99 39.43, 169.63 -0.31 M108.93 84.24 C129.05 59.87, 150.47 34.03, 179.45 -0.31 M107.57 81.68 C125.13 62.23, 141.33 42, 180.16 0.89 M118.63 83.72 C138.57 58.23, 159.32 38.92, 190.64 -0.96 M119.92 82.18 C134.89 64.96, 151.68 47.71, 190.35 0.24 M128.31 82.36 C153.35 58.6, 177.24 31.16, 202.51 -1.42 M130.02 83.1 C151.89 56.42, 172.64 31.96, 202.31 -0.85 M141.88 83.74 C161.05 57.38, 184.05 32.02, 211.24 0.51 M140.33 83.01 C158.33 61.55, 177.08 38.86, 211.18 -0.9 M151.85 82.77 C169.81 57.47, 191.93 35.33, 224.3 -0.39 M151.33 81.53 C173.27 55.95, 195.77 30.98, 222.74 -0.07 M159.99 80.9 C183.43 58.78, 203.68 33.46, 233.23 -1.5 M161.14 81.67 C176.99 64.84, 192.89 45.55, 233.07 0.27 M174.16 81.44 C189.04 63.66, 205.63 41.91, 242.37 -1.16 M173.19 82.21 C192.38 59.85, 211.68 37.82, 244.17 -0.08 M181.01 80.75 C207.93 52.03, 232.47 24.59, 253.6 0.62 M183.82 82.11 C207.89 54.28, 232.44 25.58, 253.55 0.18 M194.74 83.49 C210.9 58.96, 230.68 40.28, 263.14 1.41 M193.88 82.83 C220.54 50.95, 248.99 18.96, 265.91 0.28 M205.86 81.94 C222.35 63.98, 237.71 44.34, 274.22 -0.4 M204.42 82.74 C230.02 53.21, 255.27 24.38, 276.7 -0.3 M213.95 83.14 C234.42 59.18, 256.32 33.66, 285.92 1.64 M214.24 81.49 C241.63 51.1, 267.09 21.65, 285.81 0.6 M224.36 80.26 C252.98 51.97, 280.1 20.1, 297.83 1.29 M225.57 82.39 C239.57 65.01, 255.48 47.41, 297.16 0.14 M237.03 83.75 C258.76 54.92, 282.85 28.68, 303.6 2.69 M235.66 82.77 C257.74 56.37, 278.31 32.08, 305.04 2.68 M247.17 80.64 C263.74 65.49, 274.92 49.15, 306.26 16.52 M246.44 82.35 C264.5 62.68, 280.81 43.72, 304.37 15.1 M258.09 81.78 C269.47 69.42, 281.12 54.25, 302.81 25.72 M258.1 81.64 C266.82 70.79, 276.67 60.3, 304.14 27.59 M269.2 81.86 C280.23 64.09, 295.1 47.46, 305.91 38.6 M268.11 83.07 C274.78 73.5, 284.41 62.24, 304 39.95 M279.47 83.61 C286.98 71.26, 295.73 60.47, 302.52 52.78 M277.42 82.32 C284.04 73.91, 291 67.44, 303.72 52.61 M288.19 81.59 C295.74 76.51, 301.88 67.87, 302.68 62.95 M288.2 83.22 C294.79 76.45, 300.05 69.96, 304.9 63.52 M-0.37 79.68 C-0.37 79.68, -0.37 79.68, -0.37 79.68 M-0.37 79.68 C-0.37 79.68, -0.37 79.68, -0.37 79.68 M11.56 78.88 C10.36 76.53, 6.79 73.83, 1.58 69.79 M11.67 79.87 C8.93 76.5, 4.84 73.9, 0.93 68.94 M22.79 80.47 C14.79 72.05, 6.68 65.73, -1.57 57.94 M24.87 80.76 C16.32 73.23, 10.14 65.89, 0.21 59.44 M34.53 78.59 C23.28 68.94, 9.59 55.7, -1.17 47.05 M37.06 80.27 C21.8 68.24, 8.56 55.44, 0.15 47.52 M49.27 79.32 C39.08 70.7, 26.77 61.61, -1.72 37.94 M49.03 80.56 C32.02 65.79, 14.36 49.53, 0.46 38.2 M60.55 78.15 C45.09 67.63, 31.97 57.44, 1.57 25.74 M60.68 80 C43.34 65.46, 26.48 49.91, 0.23 26.24 M74.19 79.53 C54.8 66.64, 38.41 51.22, -0.24 15.13 M73.2 80.16 C56.41 66.16, 37.17 49.49, -0.31 16.29 M86.08 81.54 C62.54 62.69, 43.1 42.41, -1.01 7.62 M85.65 79.54 C56.76 54.81, 28.43 29.31, -0.12 5.28 M99.41 79.01 C72.8 57.62, 50.3 37.55, 3.44 -1.25 M97.18 79.87 C76.94 63.71, 58.25 47.52, 2.51 -3.23 M110.42 80.23 C76.72 51.23, 46.83 25.98, 15.15 -4 M109.58 79.91 C89.07 63.7, 69.38 46.32, 14.61 -2.08 M122.68 79.43 C94.11 58.02, 66.9 34.66, 28.1 -1.71 M122.4 81.06 C91.97 53.49, 62.16 28.74, 25.49 -3.78 M132.76 81.46 C99.81 47.78, 62.2 17.06, 40.9 -4.41 M133.64 79.19 C109.07 59.54, 84.25 37.65, 38.33 -1.89 M147.59 80.95 C121.05 59.91, 97.3 37.14, 52.69 -3.08 M145.8 80.91 C119.94 55.52, 91.84 31.62, 50.97 -1.76 M158.13 78.96 C122.11 49.06, 86.91 16.29, 64.42 -2.36 M158.56 79.3 C131.36 56.83, 103.65 32.45, 64.01 -2.29 M168.91 78.84 C139.17 55.18, 109.35 25.7, 76.6 -4.01 M171.15 79 C141.63 57.31, 114.33 32.8, 75.5 -2.09 M183.48 82.2 C146.51 51.49, 112.12 21.24, 86.81 -2.96 M182.67 81.19 C153.94 54.11, 123.46 28.4, 87.23 -2.51 M194.24 81.47 C167.37 56.68, 141.83 35.09, 99.16 -3.41 M194.78 79.37 C164.35 53.18, 132.97 25.5, 101.2 -2.61 M207.6 79.16 C183.2 57.45, 159.1 36.34, 114.08 -2.2 M207.81 79.65 C186.97 62.07, 167.54 45.06, 112.14 -3.35 M217.82 80.4 C196.58 59.73, 172.93 41.25, 125.54 -1.65 M219.35 80.51 C195.59 58.75, 169.89 36.92, 123.73 -3.35 M232.42 80.91 C196.1 49.6, 157.75 15.1, 134.83 -0.91 M230.66 79.85 C202.08 54.13, 171.59 28.84, 137.19 -3.11 M245.77 78.9 C211.65 53.01, 181.23 24.56, 148.03 -4.06 M245.06 79.98 C209.76 50.36, 173.7 20.1, 147.61 -3.96 M256.75 79.66 C220.11 49, 188.8 19.89, 161.56 -4.18 M256.48 79.41 C219.79 49.54, 184.04 18.78, 160.4 -3.05 M270.07 78.78 C239.93 57.29, 213.39 30.75, 171.83 -2.79 M267.67 79.14 C232.68 47.48, 196.38 16.09, 173.87 -3.61 M282 78.75 C256.42 56.34, 227.64 34.76, 184.62 -2.6 M280.79 80.42 C258.75 60.74, 237.06 41.24, 185.36 -2.62 M293.85 80.91 C274.37 62.91, 251.91 44.7, 196.73 -2.89 M291.78 79.78 C264.41 56.85, 237.34 31.69, 197.88 -3.04 M302.48 78.67 C263.57 43.5, 227.49 14.51, 209.52 -3.64 M301.72 77.42 C274.44 53.95, 247.1 29.79, 208.46 -2.84 M302.01 66.19 C273.32 41.16, 242.87 16.77, 222.41 -1.61 M301.44 66.99 C275.73 44.43, 249.56 19.96, 222.56 -1.91 M303.23 57.27 C278.14 34.82, 256.12 16.93, 234.61 -1.68 M301.8 55.61 C282.1 38.45, 263.51 22.08, 234.67 -2.33 M303.18 45.02 C282.39 28.24, 264.68 15.29, 246.42 -1.73 M302.13 46.69 C282.57 28.48, 262.76 12.29, 246.41 -2.06 M303.7 33.62 C288.39 20.17, 271.9 10.34, 256.89 -3.93 M301.67 34.75 C286.7 22.11, 271.55 9.31, 259.24 -3.2 M300.17 25.55 C291.32 15.95, 282.14 6.55, 269.43 -2.92 M301.19 23.85 C293.4 17.1, 285.06 9.31, 270.73 -2.94 M302.3 12.89 C296.38 10.75, 291.31 3.9, 281.23 -1.85 M302.62 13.97 C296.09 9.8, 291.72 6.59, 283.02 -2.53 M302.34 3.82 C299.66 2.12, 297.43 -0.21, 295.98 -3.14 M302.27 3.3 C300.56 2.1, 298.01 -0.17, 295.24 -3.05" stroke="#15aabf" stroke-width="1" fill="none"></path><path d="M-0.77 0.58 C78.27 -2.65, 156.2 0.17, 300.1 0.18 M0.52 0.31 C72.55 -0.52, 145.57 0.44, 300.96 0.29 M298.49 -1.06 C298.96 21.83, 301.98 41.52, 299.53 79.31 M300.79 0.42 C300.77 28.66, 299.52 57.07, 299.58 80.96 M299.36 80.24 C182.59 79.82, 65.6 81.84, -0.82 80.06 M299.57 79.83 C215.59 81.24, 131.43 80.8, 0.18 79.54 M-1.93 81.55 C0.82 59.73, 0.29 41.35, -1.3 -0.44 M-0.65 80.1 C0.3 63.53, 0.57 48.22, 0.44 -0.75" stroke="#000000" stroke-width="2" fill="none"></path></g><g stroke-linecap="round"><g transform="translate(175.7751641292125 430) rotate(0 0.20353773916144746 40.347609414719045)"><path d="M0.58 1.1 C0.64 21.08, 2.58 46.53, -0.78 78.05 M-0.54 -0.04 C-0.35 22.92, -0.65 44.33, 0.83 80.74" stroke="#000000" stroke-width="1" fill="none"></path></g></g><g stroke-linecap="round" transform="translate(195.48368386538687 238) rotate(0 130 9.91306365966409)"><path d="M0 0 C0 0, 0 0, 0 0 M0 0 C0 0, 0 0, 0 0 M-0.26 6.4 C1.3 4.61, 2.85 2.82, 4.99 0.36 M-0.26 6.4 C1.34 4.56, 2.94 2.72, 4.99 0.36 M0.13 12.04 C4.08 7.5, 8.02 2.97, 10.63 -0.03 M0.13 12.04 C3.9 7.71, 7.66 3.38, 10.63 -0.03 M-0.13 18.44 C3.12 14.7, 6.37 10.96, 15.62 0.33 M-0.13 18.44 C6.1 11.27, 12.33 4.11, 15.62 0.33 M2.23 21.82 C9.72 13.21, 17.21 4.59, 21.26 -0.07 M2.23 21.82 C8.81 14.25, 15.39 6.69, 21.26 -0.07 M7.88 21.42 C13.06 15.46, 18.24 9.5, 26.25 0.29 M7.88 21.42 C12.09 16.58, 16.3 11.74, 26.25 0.29 M12.86 21.78 C20.38 13.14, 27.89 4.5, 31.89 -0.1 M12.86 21.78 C18.96 14.77, 25.06 7.75, 31.89 -0.1 M17.85 22.14 C22.98 16.24, 28.12 10.33, 36.88 0.26 M17.85 22.14 C23.75 15.36, 29.65 8.57, 36.88 0.26 M23.49 21.75 C29.16 15.23, 34.83 8.71, 42.52 -0.14 M23.49 21.75 C28.57 15.91, 33.64 10.08, 42.52 -0.14 M28.48 22.11 C35.33 14.23, 42.18 6.35, 47.51 0.22 M28.48 22.11 C36.09 13.36, 43.7 4.6, 47.51 0.22 M34.12 21.71 C39.16 15.92, 44.2 10.12, 53.15 -0.17 M34.12 21.71 C38.37 16.82, 42.63 11.94, 53.15 -0.17 M39.11 22.07 C46.46 13.62, 53.81 5.16, 58.14 0.19 M39.11 22.07 C45.13 15.15, 51.15 8.23, 58.14 0.19 M44.75 21.68 C50.49 15.09, 56.22 8.49, 63.78 -0.21 M44.75 21.68 C50.21 15.4, 55.66 9.13, 63.78 -0.21 M49.74 22.04 C54.05 17.08, 58.36 12.12, 68.77 0.15 M49.74 22.04 C56.08 14.74, 62.43 7.45, 68.77 0.15 M55.38 21.65 C60.27 16.02, 65.16 10.4, 74.41 -0.24 M55.38 21.65 C59.35 17.08, 63.32 12.51, 74.41 -0.24 M60.37 22.01 C64.22 17.58, 68.06 13.16, 79.4 0.12 M60.37 22.01 C67.62 13.67, 74.87 5.33, 79.4 0.12 M66.02 21.61 C70.29 16.69, 74.57 11.77, 85.04 -0.28 M66.02 21.61 C73.58 12.91, 81.14 4.22, 85.04 -0.28 M71 21.97 C76.29 15.89, 81.58 9.8, 90.03 0.08 M71 21.97 C75.68 16.59, 80.35 11.21, 90.03 0.08 M76.65 21.58 C83.15 14.09, 89.66 6.6, 95.67 -0.31 M76.65 21.58 C82.69 14.63, 88.73 7.68, 95.67 -0.31 M81.63 21.94 C86.64 16.18, 91.64 10.42, 100.66 0.05 M81.63 21.94 C88.68 13.83, 95.72 5.73, 100.66 0.05 M87.28 21.54 C94.69 13.02, 102.1 4.49, 106.3 -0.34 M87.28 21.54 C92.79 15.2, 98.31 8.85, 106.3 -0.34 M92.26 21.9 C96.26 17.3, 100.26 12.7, 111.29 0.02 M92.26 21.9 C97.09 16.35, 101.91 10.8, 111.29 0.02 M97.91 21.51 C105.1 13.23, 112.29 4.96, 116.27 0.38 M97.91 21.51 C103.26 15.34, 108.62 9.18, 116.27 0.38 M102.89 21.87 C106.99 17.15, 111.1 12.43, 121.92 -0.02 M102.89 21.87 C107.66 16.38, 112.43 10.89, 121.92 -0.02 M108.54 21.47 C112.51 16.9, 116.49 12.32, 126.91 0.34 M108.54 21.47 C115.07 13.95, 121.61 6.43, 126.91 0.34 M113.52 21.83 C117.7 17.03, 121.87 12.23, 132.55 -0.05 M113.52 21.83 C120.62 13.66, 127.72 5.5, 132.55 -0.05 M119.17 21.44 C126.08 13.48, 133 5.53, 137.54 0.31 M119.17 21.44 C126 13.57, 132.84 5.7, 137.54 0.31 M124.15 21.8 C128.06 17.3, 131.97 12.8, 143.18 -0.09 M124.15 21.8 C129.65 15.48, 135.14 9.16, 143.18 -0.09 M129.14 22.16 C133.46 17.19, 137.78 12.22, 148.17 0.27 M129.14 22.16 C134.59 15.89, 140.04 9.61, 148.17 0.27 M134.78 21.76 C138.62 17.35, 142.45 12.94, 153.81 -0.12 M134.78 21.76 C140.89 14.74, 147 7.71, 153.81 -0.12 M139.77 22.12 C146.77 14.07, 153.76 6.03, 158.8 0.24 M139.77 22.12 C145.49 15.54, 151.22 8.95, 158.8 0.24 M145.41 21.73 C150.72 15.62, 156.03 9.51, 164.44 -0.16 M145.41 21.73 C150.18 16.24, 154.95 10.76, 164.44 -0.16 M150.4 22.09 C155 16.79, 159.61 11.5, 169.43 0.2 M150.4 22.09 C155.6 16.1, 160.8 10.12, 169.43 0.2 M156.04 21.69 C162.76 13.97, 169.47 6.24, 175.07 -0.19 M156.04 21.69 C162.01 14.83, 167.98 7.97, 175.07 -0.19 M161.03 22.05 C167.43 14.69, 173.84 7.32, 180.06 0.17 M161.03 22.05 C167.1 15.08, 173.16 8.1, 180.06 0.17 M166.67 21.66 C173.95 13.29, 181.22 4.93, 185.7 -0.23 M166.67 21.66 C170.53 17.22, 174.39 12.78, 185.7 -0.23 M171.66 22.02 C178.94 13.65, 186.21 5.28, 190.69 0.13 M171.66 22.02 C175.61 17.47, 179.57 12.92, 190.69 0.13 M177.3 21.63 C184.33 13.54, 191.37 5.45, 196.33 -0.26 M177.3 21.63 C182.39 15.78, 187.47 9.93, 196.33 -0.26 M182.29 21.99 C189.03 14.24, 195.76 6.49, 201.32 0.1 M182.29 21.99 C189.28 13.94, 196.28 5.9, 201.32 0.1 M187.93 21.59 C194.81 13.68, 201.68 5.78, 206.96 -0.3 M187.93 21.59 C193.87 14.77, 199.8 7.94, 206.96 -0.3 M192.92 21.95 C198.05 16.05, 203.18 10.15, 211.95 0.06 M192.92 21.95 C198.27 15.8, 203.62 9.64, 211.95 0.06 M198.56 21.56 C203.27 16.14, 207.98 10.72, 217.59 -0.33 M198.56 21.56 C206.14 12.84, 213.71 4.13, 217.59 -0.33 M203.55 21.92 C210.99 13.36, 218.44 4.79, 222.58 0.03 M203.55 21.92 C209.04 15.6, 214.53 9.29, 222.58 0.03 M209.19 21.52 C216.08 13.6, 222.97 5.67, 228.22 -0.36 M209.19 21.52 C213.83 16.18, 218.48 10.84, 228.22 -0.36 M214.18 21.88 C218.45 16.97, 222.72 12.05, 233.21 0 M214.18 21.88 C221.51 13.46, 228.83 5.03, 233.21 0 M219.82 21.49 C225.02 15.51, 230.21 9.53, 238.19 0.36 M219.82 21.49 C223.92 16.77, 228.02 12.06, 238.19 0.36 M224.81 21.85 C230.88 14.86, 236.96 7.88, 243.84 -0.04 M224.81 21.85 C229.05 16.97, 233.29 12.09, 243.84 -0.04 M230.45 21.45 C234.7 16.57, 238.94 11.69, 248.82 0.32 M230.45 21.45 C237.17 13.73, 243.89 6, 248.82 0.32 M235.44 21.81 C240.55 15.94, 245.65 10.07, 254.47 -0.07 M235.44 21.81 C241.35 15.02, 247.26 8.22, 254.47 -0.07 M241.08 21.42 C246.07 15.68, 251.06 9.94, 259.45 0.29 M241.08 21.42 C247.66 13.85, 254.24 6.28, 259.45 0.29 M246.07 21.78 C251.34 15.71, 256.61 9.65, 263.13 2.16 M246.07 21.78 C249.69 17.61, 253.32 13.44, 263.13 2.16 M251.06 22.14 C254.76 17.88, 258.47 13.61, 262.87 8.55 M251.06 22.14 C255.11 17.48, 259.17 12.81, 262.87 8.55 M256.7 21.74 C258.6 19.56, 260.5 17.37, 262.61 14.95 M256.7 21.74 C258.76 19.37, 260.83 17, 262.61 14.95 M-0.01 19.82 C-0.01 19.82, -0.01 19.82, -0.01 19.82 M-0.01 19.82 C-0.01 19.82, -0.01 19.82, -0.01 19.82 M6.39 20.08 C4.99 18.87, 3.59 17.65, 0.35 14.83 M6.39 20.08 C3.99 17.99, 1.58 15.9, 0.35 14.83 M12.04 19.69 C8.93 16.99, 5.83 14.3, -0.04 9.19 M12.04 19.69 C7.89 16.08, 3.74 12.48, -0.04 9.19 M18.43 19.95 C14.69 16.69, 10.94 13.43, 0.32 4.2 M18.43 19.95 C13.13 15.34, 7.83 10.74, 0.32 4.2 M24.08 19.56 C14.85 11.54, 5.63 3.52, 0.68 -0.78 M24.08 19.56 C16.48 12.95, 8.88 6.34, 0.68 -0.78 M30.47 19.82 C24.42 14.55, 18.36 9.28, 7.08 -0.52 M30.47 19.82 C25.28 15.3, 20.09 10.79, 7.08 -0.52 M36.87 20.08 C31.89 15.75, 26.91 11.42, 12.72 -0.92 M36.87 20.08 C31.27 15.21, 25.66 10.33, 12.72 -0.92 M42.51 19.68 C36.81 14.72, 31.11 9.77, 19.12 -0.65 M42.51 19.68 C37.09 14.97, 31.66 10.25, 19.12 -0.65 M48.91 19.94 C43.6 15.32, 38.28 10.7, 24.76 -1.05 M48.91 19.94 C41.93 13.88, 34.95 7.81, 24.76 -1.05 M54.56 19.55 C48.45 14.24, 42.34 8.93, 31.16 -0.79 M54.56 19.55 C49.3 14.98, 44.04 10.41, 31.16 -0.79 M60.95 19.81 C56.09 15.59, 51.23 11.36, 37.56 -0.53 M60.95 19.81 C52.16 12.16, 43.36 4.51, 37.56 -0.53 M67.35 20.07 C61.22 14.74, 55.08 9.41, 43.2 -0.92 M67.35 20.07 C58.69 12.54, 50.03 5.01, 43.2 -0.92 M72.99 19.68 C64.01 11.87, 55.03 4.06, 49.6 -0.66 M72.99 19.68 C67.63 15.01, 62.26 10.35, 49.6 -0.66 M79.39 19.94 C74.33 15.54, 69.27 11.14, 55.24 -1.05 M79.39 19.94 C73.4 14.73, 67.4 9.52, 55.24 -1.05 M85.04 19.55 C80.17 15.32, 75.31 11.09, 61.64 -0.79 M85.04 19.55 C79.38 14.63, 73.73 9.72, 61.64 -0.79 M91.43 19.81 C83.05 12.52, 74.66 5.22, 68.04 -0.53 M91.43 19.81 C82.91 12.4, 74.39 4.99, 68.04 -0.53 M97.83 20.07 C88.61 12.05, 79.39 4.04, 73.68 -0.93 M97.83 20.07 C91.51 14.57, 85.18 9.07, 73.68 -0.93 M103.47 19.67 C94.69 12.04, 85.91 4.4, 80.08 -0.66 M103.47 19.67 C98.01 14.92, 92.54 10.17, 80.08 -0.66 M109.87 19.94 C103.78 14.64, 97.68 9.34, 85.72 -1.06 M109.87 19.94 C100.33 11.64, 90.78 3.34, 85.72 -1.06 M115.51 19.54 C106.66 11.84, 97.81 4.15, 92.12 -0.8 M115.51 19.54 C109.9 14.66, 104.28 9.78, 92.12 -0.8 M121.91 19.8 C117.01 15.54, 112.1 11.27, 98.52 -0.54 M121.91 19.8 C117.16 15.67, 112.41 11.54, 98.52 -0.54 M128.31 20.06 C120.35 13.14, 112.39 6.22, 104.16 -0.93 M128.31 20.06 C122.93 15.39, 117.56 10.71, 104.16 -0.93 M133.95 19.67 C127.23 13.82, 120.5 7.97, 110.56 -0.67 M133.95 19.67 C126.86 13.5, 119.77 7.34, 110.56 -0.67 M140.35 19.93 C134.68 15, 129.01 10.07, 116.2 -1.06 M140.35 19.93 C133.65 14.11, 126.95 8.28, 116.2 -1.06 M145.99 19.54 C137.49 12.14, 128.98 4.74, 122.6 -0.8 M145.99 19.54 C137.35 12.02, 128.71 4.51, 122.6 -0.8 M152.39 19.8 C144.35 12.81, 136.32 5.82, 129 -0.54 M152.39 19.8 C144.05 12.55, 135.72 5.3, 129 -0.54 M158.79 20.06 C150.11 12.51, 141.43 4.97, 134.64 -0.94 M158.79 20.06 C150.77 13.09, 142.76 6.12, 134.64 -0.94 M164.43 19.66 C156.27 12.57, 148.1 5.47, 141.04 -0.67 M164.43 19.66 C158.17 14.22, 151.9 8.77, 141.04 -0.67 M170.83 19.93 C165.04 14.89, 159.24 9.85, 146.68 -1.07 M170.83 19.93 C161.72 12.01, 152.61 4.09, 146.68 -1.07 M176.47 19.53 C167.39 11.64, 158.31 3.75, 153.08 -0.81 M176.47 19.53 C170.01 13.91, 163.54 8.29, 153.08 -0.81 M182.87 19.79 C177.86 15.44, 172.85 11.08, 159.48 -0.55 M182.87 19.79 C174.73 12.72, 166.59 5.64, 159.48 -0.55 M189.27 20.05 C183.43 14.98, 177.59 9.9, 165.12 -0.94 M189.27 20.05 C181.96 13.7, 174.65 7.34, 165.12 -0.94 M194.91 19.66 C187.08 12.85, 179.26 6.05, 171.52 -0.68 M194.91 19.66 C186.89 12.68, 178.87 5.71, 171.52 -0.68 M201.31 19.92 C193.24 12.9, 185.16 5.88, 177.16 -1.07 M201.31 19.92 C193.49 13.12, 185.66 6.32, 177.16 -1.07 M206.95 19.53 C199.99 13.47, 193.02 7.41, 183.56 -0.81 M206.95 19.53 C199.53 13.07, 192.1 6.61, 183.56 -0.81 M213.35 19.79 C205.53 12.99, 197.71 6.19, 189.96 -0.55 M213.35 19.79 C204.61 12.19, 195.88 4.6, 189.96 -0.55 M219.75 20.05 C213.86 14.93, 207.98 9.82, 195.6 -0.94 M219.75 20.05 C212.91 14.11, 206.08 8.17, 195.6 -0.94 M225.39 19.65 C217.12 12.47, 208.85 5.28, 202 -0.68 M225.39 19.65 C217.42 12.73, 209.45 5.8, 202 -0.68 M231.79 19.92 C223.18 12.43, 214.58 4.95, 207.64 -1.08 M231.79 19.92 C224.37 13.47, 216.96 7.02, 207.64 -1.08 M237.43 19.52 C229.3 12.45, 221.16 5.38, 214.04 -0.82 M237.43 19.52 C228.74 11.97, 220.05 4.41, 214.04 -0.82 M243.83 19.78 C237.67 14.43, 231.51 9.07, 220.43 -0.56 M243.83 19.78 C236.49 13.4, 229.15 7.02, 220.43 -0.56 M250.23 20.04 C242.58 13.4, 234.94 6.75, 226.08 -0.95 M250.23 20.04 C243.76 14.42, 237.29 8.8, 226.08 -0.95 M255.87 19.65 C250.35 14.85, 244.83 10.05, 232.48 -0.69 M255.87 19.65 C249.25 13.89, 242.62 8.13, 232.48 -0.69 M260.76 18.6 C253.9 12.63, 247.03 6.66, 238.12 -1.08 M260.76 18.6 C254.24 12.93, 247.71 7.26, 238.12 -1.08 M261.12 13.61 C254.65 7.99, 248.18 2.37, 244.52 -0.82 M261.12 13.61 C256.94 9.98, 252.76 6.35, 244.52 -0.82 M260.73 7.97 C256.85 4.6, 252.98 1.24, 250.91 -0.56 M260.73 7.97 C257.32 5.01, 253.92 2.05, 250.91 -0.56 M261.09 2.98 C259.8 1.87, 258.52 0.75, 256.56 -0.95 M261.09 2.98 C259.67 1.75, 258.26 0.52, 256.56 -0.95" stroke="#fab005" stroke-width="0.5" fill="none"></path><path d="M0 0 C77.31 0, 154.61 0, 260 0 M0 0 C87.2 0, 174.39 0, 260 0 M260 0 C260 4.12, 260 8.24, 260 19.83 M260 0 C260 4.16, 260 8.32, 260 19.83 M260 19.83 C198.5 19.83, 137 19.83, 0 19.83 M260 19.83 C183.01 19.83, 106.02 19.83, 0 19.83 M0 19.83 C0 14.87, 0 9.91, 0 0 M0 19.83 C0 13.74, 0 7.66, 0 0" stroke="#000000" stroke-width="1" fill="none"></path></g><g stroke-linecap="round" transform="translate(195.48368386538687 210) rotate(0 149.5 9.91306365966409)"><path d="M0 0 C0 0, 0 0, 0 0 M0 0 C0 0, 0 0, 0 0 M-0.26 6.4 C1.31 4.59, 2.88 2.79, 4.99 0.36 M-0.26 6.4 C1.41 4.48, 3.07 2.56, 4.99 0.36 M0.13 12.04 C2.39 9.45, 4.64 6.85, 10.63 -0.03 M0.13 12.04 C2.64 9.15, 5.15 6.27, 10.63 -0.03 M-0.13 18.44 C5.78 11.65, 11.68 4.86, 15.62 0.33 M-0.13 18.44 C6.01 11.37, 12.16 4.31, 15.62 0.33 M2.23 21.82 C8.54 14.57, 14.84 7.31, 21.26 -0.07 M2.23 21.82 C7.22 16.08, 12.2 10.35, 21.26 -0.07 M7.88 21.42 C13.2 15.31, 18.51 9.19, 26.25 0.29 M7.88 21.42 C14.52 13.78, 21.16 6.14, 26.25 0.29 M12.86 21.78 C18.02 15.85, 23.18 9.92, 31.89 -0.1 M12.86 21.78 C17.59 16.35, 22.31 10.92, 31.89 -0.1 M17.85 22.14 C23.1 16.1, 28.35 10.06, 36.88 0.26 M17.85 22.14 C24.93 14, 32.01 5.86, 36.88 0.26 M23.49 21.75 C28.16 16.38, 32.83 11.01, 42.52 -0.14 M23.49 21.75 C29.4 14.96, 35.3 8.17, 42.52 -0.14 M28.48 22.11 C32.74 17.21, 37 12.31, 47.51 0.22 M28.48 22.11 C32.39 17.61, 36.3 13.12, 47.51 0.22 M34.12 21.71 C40.25 14.66, 46.38 7.61, 53.15 -0.17 M34.12 21.71 C37.99 17.26, 41.86 12.81, 53.15 -0.17 M39.11 22.07 C44.42 15.96, 49.74 9.85, 58.14 0.19 M39.11 22.07 C44.62 15.74, 50.13 9.4, 58.14 0.19 M44.75 21.68 C49.04 16.75, 53.32 11.82, 63.78 -0.21 M44.75 21.68 C50.98 14.52, 57.21 7.35, 63.78 -0.21 M49.74 22.04 C54.38 16.7, 59.02 11.37, 68.77 0.15 M49.74 22.04 C55.36 15.57, 60.99 9.11, 68.77 0.15 M55.38 21.65 C61.75 14.32, 68.12 6.99, 74.41 -0.24 M55.38 21.65 C61.58 14.52, 67.77 7.4, 74.41 -0.24 M60.37 22.01 C67.53 13.77, 74.68 5.54, 79.4 0.12 M60.37 22.01 C66.81 14.59, 73.26 7.18, 79.4 0.12 M66.02 21.61 C71.48 15.33, 76.94 9.04, 85.04 -0.28 M66.02 21.61 C71.43 15.38, 76.84 9.16, 85.04 -0.28 M71 21.97 C78.43 13.42, 85.87 4.87, 90.03 0.08 M71 21.97 C78.19 13.7, 85.37 5.44, 90.03 0.08 M76.65 21.58 C83.78 13.37, 90.92 5.15, 95.67 -0.31 M76.65 21.58 C83.03 14.23, 89.41 6.89, 95.67 -0.31 M81.63 21.94 C86.54 16.29, 91.45 10.64, 100.66 0.05 M81.63 21.94 C85.73 17.22, 89.83 12.51, 100.66 0.05 M87.28 21.54 C93.89 13.93, 100.5 6.32, 106.3 -0.34 M87.28 21.54 C92.09 16.01, 96.9 10.47, 106.3 -0.34 M92.26 21.9 C96.17 17.4, 100.09 12.9, 111.29 0.02 M92.26 21.9 C97.94 15.37, 103.61 8.85, 111.29 0.02 M97.91 21.51 C101.76 17.07, 105.61 12.64, 116.27 0.38 M97.91 21.51 C102.59 16.12, 107.27 10.74, 116.27 0.38 M102.89 21.87 C108.91 14.94, 114.94 8.01, 121.92 -0.02 M102.89 21.87 C108.91 14.95, 114.92 8.03, 121.92 -0.02 M108.54 21.47 C112.63 16.76, 116.73 12.04, 126.91 0.34 M108.54 21.47 C112.27 17.17, 116.01 12.88, 126.91 0.34 M113.52 21.83 C119.81 14.6, 126.09 7.37, 132.55 -0.05 M113.52 21.83 C117.39 17.39, 121.25 12.94, 132.55 -0.05 M119.17 21.44 C124.77 14.99, 130.38 8.54, 137.54 0.31 M119.17 21.44 C122.92 17.12, 126.67 12.8, 137.54 0.31 M124.15 21.8 C128.77 16.48, 133.39 11.17, 143.18 -0.09 M124.15 21.8 C130.56 14.43, 136.96 7.06, 143.18 -0.09 M129.14 22.16 C133.51 17.13, 137.89 12.1, 148.17 0.27 M129.14 22.16 C133.08 17.62, 137.03 13.09, 148.17 0.27 M134.78 21.76 C140.61 15.06, 146.43 8.36, 153.81 -0.12 M134.78 21.76 C141.22 14.36, 147.66 6.95, 153.81 -0.12 M139.77 22.12 C144.1 17.14, 148.43 12.16, 158.8 0.24 M139.77 22.12 C143.68 17.63, 147.58 13.14, 158.8 0.24 M145.41 21.73 C149.76 16.73, 154.11 11.73, 164.44 -0.16 M145.41 21.73 C150.61 15.75, 155.81 9.77, 164.44 -0.16 M150.4 22.09 C157.71 13.68, 165.03 5.26, 169.43 0.2 M150.4 22.09 C154.88 16.93, 159.36 11.78, 169.43 0.2 M156.04 21.69 C163.17 13.5, 170.29 5.31, 175.07 -0.19 M156.04 21.69 C160.8 16.22, 165.57 10.74, 175.07 -0.19 M161.03 22.05 C165.66 16.73, 170.29 11.4, 180.06 0.17 M161.03 22.05 C168.23 13.77, 175.44 5.48, 180.06 0.17 M166.67 21.66 C173.61 13.68, 180.55 5.69, 185.7 -0.23 M166.67 21.66 C170.9 16.8, 175.12 11.94, 185.7 -0.23 M171.66 22.02 C175.53 17.57, 179.39 13.13, 190.69 0.13 M171.66 22.02 C178.5 14.16, 185.33 6.29, 190.69 0.13 M177.3 21.63 C182.56 15.57, 187.83 9.52, 196.33 -0.26 M177.3 21.63 C184.62 13.2, 191.95 4.78, 196.33 -0.26 M182.29 21.99 C188.36 15, 194.43 8.02, 201.32 0.1 M182.29 21.99 C188.87 14.42, 195.44 6.86, 201.32 0.1 M187.93 21.59 C192.56 16.27, 197.19 10.95, 206.96 -0.3 M187.93 21.59 C195.14 13.3, 202.35 5.01, 206.96 -0.3 M192.92 21.95 C198.67 15.33, 204.43 8.71, 211.95 0.06 M192.92 21.95 C199.57 14.3, 206.22 6.65, 211.95 0.06 M198.56 21.56 C203.4 16, 208.23 10.44, 217.59 -0.33 M198.56 21.56 C204.04 15.25, 209.53 8.95, 217.59 -0.33 M203.55 21.92 C209.66 14.89, 215.77 7.86, 222.58 0.03 M203.55 21.92 C207.87 16.94, 212.19 11.97, 222.58 0.03 M209.19 21.52 C215.95 13.75, 222.7 5.98, 228.22 -0.36 M209.19 21.52 C213.76 16.27, 218.33 11.01, 228.22 -0.36 M214.18 21.88 C221.77 13.16, 229.35 4.43, 233.21 0 M214.18 21.88 C219.46 15.8, 224.75 9.73, 233.21 0 M219.82 21.49 C224.38 16.24, 228.94 11, 238.19 0.36 M219.82 21.49 C223.61 17.13, 227.4 12.77, 238.19 0.36 M224.81 21.85 C228.91 17.13, 233.02 12.41, 243.84 -0.04 M224.81 21.85 C229.46 16.5, 234.11 11.15, 243.84 -0.04 M230.45 21.45 C235.81 15.29, 241.18 9.12, 248.82 0.32 M230.45 21.45 C234.16 17.19, 237.86 12.93, 248.82 0.32 M235.44 21.81 C241.31 15.06, 247.17 8.31, 254.47 -0.07 M235.44 21.81 C241.42 14.93, 247.41 8.05, 254.47 -0.07 M241.08 21.42 C246.6 15.07, 252.12 8.72, 259.45 0.29 M241.08 21.42 C246.32 15.39, 251.56 9.36, 259.45 0.29 M246.07 21.78 C251.2 15.88, 256.32 9.98, 265.1 -0.11 M246.07 21.78 C252.13 14.81, 258.19 7.83, 265.1 -0.11 M251.06 22.14 C257.62 14.59, 264.18 7.04, 270.08 0.25 M251.06 22.14 C257.9 14.27, 264.74 6.39, 270.08 0.25 M256.7 21.74 C263.32 14.13, 269.94 6.52, 275.73 -0.14 M256.7 21.74 C263 14.49, 269.3 7.24, 275.73 -0.14 M261.69 22.1 C268.39 14.39, 275.09 6.68, 280.71 0.22 M261.69 22.1 C268.75 13.98, 275.82 5.85, 280.71 0.22 M267.33 21.71 C272.06 16.27, 276.79 10.82, 286.36 -0.18 M267.33 21.71 C272.48 15.79, 277.63 9.86, 286.36 -0.18 M272.32 22.07 C278.14 15.38, 283.95 8.68, 291.34 0.18 M272.32 22.07 C278.22 15.28, 284.13 8.49, 291.34 0.18 M277.96 21.68 C284.31 14.38, 290.65 7.08, 296.99 -0.21 M277.96 21.68 C283.65 15.13, 289.34 8.59, 296.99 -0.21 M282.95 22.04 C287.29 17.04, 291.63 12.05, 300.66 1.66 M282.95 22.04 C286.68 17.75, 290.41 13.46, 300.66 1.66 M288.59 21.64 C291.33 18.49, 294.07 15.34, 301.06 7.3 M288.59 21.64 C291.36 18.46, 294.12 15.28, 301.06 7.3 M293.58 22 C295.5 19.79, 297.41 17.59, 300.79 13.7 M293.58 22 C296.1 19.1, 298.62 16.2, 300.79 13.7 M-0.01 19.82 C-0.01 19.82, -0.01 19.82, -0.01 19.82 M-0.01 19.82 C-0.01 19.82, -0.01 19.82, -0.01 19.82 M6.39 20.08 C4.46 18.4, 2.53 16.72, 0.35 14.83 M6.39 20.08 C4.89 18.78, 3.39 17.47, 0.35 14.83 M12.04 19.69 C7.82 16.02, 3.6 12.36, -0.04 9.19 M12.04 19.69 C7.29 15.56, 2.55 11.44, -0.04 9.19 M18.43 19.95 C14.52 16.54, 10.6 13.14, 0.32 4.2 M18.43 19.95 C13.48 15.64, 8.52 11.33, 0.32 4.2 M24.08 19.56 C16.85 13.27, 9.62 6.99, 0.68 -0.78 M24.08 19.56 C17.72 14.03, 11.37 8.51, 0.68 -0.78 M30.47 19.82 C25.35 15.37, 20.23 10.91, 7.08 -0.52 M30.47 19.82 C25.03 15.09, 19.59 10.35, 7.08 -0.52 M36.87 20.08 C29.54 13.71, 22.22 7.34, 12.72 -0.92 M36.87 20.08 C29.5 13.67, 22.12 7.26, 12.72 -0.92 M42.51 19.68 C36.7 14.63, 30.88 9.57, 19.12 -0.65 M42.51 19.68 C33.66 11.99, 24.8 4.29, 19.12 -0.65 M48.91 19.94 C43.32 15.08, 37.72 10.22, 24.76 -1.05 M48.91 19.94 C41.22 13.25, 33.52 6.56, 24.76 -1.05 M54.56 19.55 C47.94 13.8, 41.32 8.05, 31.16 -0.79 M54.56 19.55 C49.7 15.33, 44.84 11.1, 31.16 -0.79 M60.95 19.81 C55.13 14.75, 49.32 9.69, 37.56 -0.53 M60.95 19.81 C52.06 12.08, 43.17 4.35, 37.56 -0.53 M67.35 20.07 C58.79 12.63, 50.23 5.19, 43.2 -0.92 M67.35 20.07 C61.06 14.61, 54.77 9.14, 43.2 -0.92 M72.99 19.68 C64.43 12.23, 55.86 4.79, 49.6 -0.66 M72.99 19.68 C68.29 15.59, 63.58 11.49, 49.6 -0.66 M79.39 19.94 C70.86 12.52, 62.33 5.11, 55.24 -1.05 M79.39 19.94 C71.66 13.21, 63.92 6.49, 55.24 -1.05 M85.04 19.55 C79.15 14.43, 73.27 9.31, 61.64 -0.79 M85.04 19.55 C77.12 12.67, 69.21 5.79, 61.64 -0.79 M91.43 19.81 C86.17 15.23, 80.9 10.65, 68.04 -0.53 M91.43 19.81 C86.4 15.43, 81.36 11.05, 68.04 -0.53 M97.83 20.07 C92.3 15.26, 86.78 10.46, 73.68 -0.93 M97.83 20.07 C88.41 11.88, 78.98 3.69, 73.68 -0.93 M103.47 19.67 C94.78 12.11, 86.08 4.55, 80.08 -0.66 M103.47 19.67 C98.41 15.27, 93.34 10.87, 80.08 -0.66 M109.87 19.94 C103.15 14.09, 96.43 8.25, 85.72 -1.06 M109.87 19.94 C105.03 15.72, 100.18 11.51, 85.72 -1.06 M115.51 19.54 C109.63 14.42, 103.74 9.3, 92.12 -0.8 M115.51 19.54 C109.92 14.67, 104.32 9.81, 92.12 -0.8 M121.91 19.8 C116.39 15, 110.86 10.19, 98.52 -0.54 M121.91 19.8 C115.91 14.58, 109.9 9.36, 98.52 -0.54 M128.31 20.06 C119.14 12.1, 109.98 4.13, 104.16 -0.93 M128.31 20.06 C122.46 14.97, 116.6 9.89, 104.16 -0.93 M133.95 19.67 C124.7 11.63, 115.45 3.59, 110.56 -0.67 M133.95 19.67 C127.2 13.79, 120.44 7.92, 110.56 -0.67 M140.35 19.93 C132.48 13.09, 124.61 6.24, 116.2 -1.06 M140.35 19.93 C134.83 15.13, 129.31 10.34, 116.2 -1.06 M145.99 19.54 C138.87 13.34, 131.74 7.15, 122.6 -0.8 M145.99 19.54 C139.64 14.01, 133.28 8.48, 122.6 -0.8 M152.39 19.8 C144.95 13.33, 137.51 6.86, 129 -0.54 M152.39 19.8 C146.68 14.83, 140.97 9.87, 129 -0.54 M158.79 20.06 C149.87 12.31, 140.96 4.56, 134.64 -0.94 M158.79 20.06 C153.39 15.36, 147.99 10.67, 134.64 -0.94 M164.43 19.66 C158.84 14.8, 153.24 9.93, 141.04 -0.67 M164.43 19.66 C155.56 11.95, 146.69 4.24, 141.04 -0.67 M170.83 19.93 C164.78 14.67, 158.73 9.41, 146.68 -1.07 M170.83 19.93 C165.84 15.59, 160.85 11.25, 146.68 -1.07 M176.47 19.53 C171.12 14.88, 165.77 10.22, 153.08 -0.81 M176.47 19.53 C167.87 12.06, 159.27 4.58, 153.08 -0.81 M182.87 19.79 C176.64 14.38, 170.42 8.97, 159.48 -0.55 M182.87 19.79 C175.24 13.16, 167.61 6.52, 159.48 -0.55 M189.27 20.05 C182.44 14.12, 175.61 8.18, 165.12 -0.94 M189.27 20.05 C179.92 11.93, 170.57 3.8, 165.12 -0.94 M194.91 19.66 C185.78 11.72, 176.66 3.79, 171.52 -0.68 M194.91 19.66 C187.14 12.9, 179.37 6.15, 171.52 -0.68 M201.31 19.92 C195.2 14.61, 189.08 9.29, 177.16 -1.07 M201.31 19.92 C195.05 14.48, 188.8 9.04, 177.16 -1.07 M206.95 19.53 C201.04 14.39, 195.13 9.25, 183.56 -0.81 M206.95 19.53 C201.86 15.1, 196.77 10.67, 183.56 -0.81 M213.35 19.79 C207.54 14.74, 201.74 9.69, 189.96 -0.55 M213.35 19.79 C207.54 14.73, 201.72 9.68, 189.96 -0.55 M219.75 20.05 C211.53 12.91, 203.32 5.77, 195.6 -0.94 M219.75 20.05 C214.44 15.44, 209.13 10.82, 195.6 -0.94 M225.39 19.65 C219.95 14.93, 214.51 10.2, 202 -0.68 M225.39 19.65 C219.2 14.27, 213.01 8.89, 202 -0.68 M231.79 19.92 C222.25 11.62, 212.7 3.32, 207.64 -1.08 M231.79 19.92 C226.5 15.32, 221.21 10.72, 207.64 -1.08 M237.43 19.52 C232.13 14.91, 226.82 10.3, 214.04 -0.82 M237.43 19.52 C231.36 14.24, 225.28 8.96, 214.04 -0.82 M243.83 19.78 C238.76 15.37, 233.69 10.97, 220.43 -0.56 M243.83 19.78 C235.87 12.86, 227.91 5.94, 220.43 -0.56 M250.23 20.04 C242.79 13.57, 235.34 7.11, 226.08 -0.95 M250.23 20.04 C244.67 15.21, 239.11 10.38, 226.08 -0.95 M255.87 19.65 C249.79 14.36, 243.7 9.07, 232.48 -0.69 M255.87 19.65 C247.65 12.5, 239.42 5.35, 232.48 -0.69 M262.27 19.91 C257.2 15.5, 252.13 11.1, 238.12 -1.08 M262.27 19.91 C257.04 15.37, 251.81 10.82, 238.12 -1.08 M267.91 19.52 C262.38 14.71, 256.85 9.9, 244.52 -0.82 M267.91 19.52 C261.71 14.13, 255.52 8.74, 244.52 -0.82 M274.31 19.78 C266.78 13.24, 259.26 6.69, 250.91 -0.56 M274.31 19.78 C267.24 13.63, 260.17 7.49, 250.91 -0.56 M280.71 20.04 C273.13 13.45, 265.56 6.87, 256.56 -0.95 M280.71 20.04 C272.59 12.98, 264.47 5.92, 256.56 -0.95 M286.35 19.64 C279.59 13.76, 272.82 7.88, 262.96 -0.69 M286.35 19.64 C281.32 15.27, 276.29 10.9, 262.96 -0.69 M292.75 19.91 C285.13 13.28, 277.5 6.65, 268.6 -1.09 M292.75 19.91 C286.35 14.35, 279.96 8.79, 268.6 -1.09 M298.39 19.51 C293.38 15.15, 288.36 10.79, 275 -0.83 M298.39 19.51 C290.75 12.87, 283.12 6.23, 275 -0.83 M301.77 17.15 C295.2 11.44, 288.63 5.72, 281.39 -0.56 M301.77 17.15 C293.74 10.17, 285.71 3.19, 281.39 -0.56 M301.38 11.51 C297.71 8.32, 294.04 5.13, 287.04 -0.96 M301.38 11.51 C297.77 8.37, 294.16 5.24, 287.04 -0.96 M301.74 6.52 C299.49 4.57, 297.24 2.61, 293.43 -0.7 M301.74 6.52 C299.16 4.28, 296.57 2.03, 293.43 -0.7" stroke="#fab005" stroke-width="0.5" fill="none"></path><path d="M0 0 C100.08 0, 200.16 0, 299 0 M0 0 C86.09 0, 172.18 0, 299 0 M299 0 C299 4.19, 299 8.38, 299 19.83 M299 0 C299 6.49, 299 12.99, 299 19.83 M299 19.83 C213.07 19.83, 127.14 19.83, 0 19.83 M299 19.83 C222.83 19.83, 146.66 19.83, 0 19.83 M0 19.83 C0 14.18, 0 8.53, 0 0 M0 19.83 C0 14.92, 0 10.01, 0 0" stroke="#000000" stroke-width="1" fill="none"></path></g><g transform="translate(10 70) rotate(0 57.5 12.5)"><text x="0" y="18" font-family="Virgil, Segoe UI Emoji" font-size="20px" fill="#000000" text-anchor="start" style="white-space: pre;" direction="ltr">PageHeader</text></g><g stroke-linecap="round"><g transform="translate(194.7751641292125 83) rotate(0 -32.24383913766587 -0.3986126204580387)"><path d="M1.39 0.31 C-9.06 0.69, -52.88 1.29, -64.04 1.66 M-1.3 -1.98 C-11.94 -2.36, -54.79 -2.52, -65.88 -2.44" stroke="#495057" stroke-width="2" fill="none"></path></g><g transform="translate(194.7751641292125 83) rotate(0 -32.24383913766587 -0.3986126204580387)"><path d="M-37.24 -11.66 C-42.47 -10.99, -48.28 -3.27, -69.09 -5.83 M-36.83 -14.55 C-45.78 -9.28, -57.89 -4.24, -65.43 -2.37" stroke="#495057" stroke-width="2" fill="none"></path></g><g transform="translate(194.7751641292125 83) rotate(0 -32.24383913766587 -0.3986126204580387)"><path d="M-37.24 8.86 C-42.38 4.35, -48.19 6.9, -69.09 -5.83 M-36.83 5.97 C-45.67 4.39, -57.78 2.59, -65.43 -2.37" stroke="#495057" stroke-width="2" fill="none"></path></g></g></svg>