<svg version="1.1" xmlns="http://www.w3.org/2000/svg" viewBox="0 0 583.3110261502584 540.690715164123">
  <g stroke-linecap="round" transform="translate(231.92536621540785 10) rotate(0 170.28570992606024 200)"><path d="M-0.19 -0.64 C96.89 -0.22, 193.83 1.09, 340.49 -0.96 M-0.07 0.59 C86.8 -0.34, 172.35 -0.87, 341.15 -0.52 M340.72 -0.61 C342.04 153.84, 341.43 306.75, 340.26 400.77 M340.57 0.18 C341.65 156.24, 341.43 313.01, 340.64 399.7 M340.74 399.64 C240.28 397.17, 138.57 399.12, 0.53 400.06 M341.13 399.78 C226.82 397.95, 111.27 397.72, -0.48 399.4 M1 401.06 C-2.11 266.67, -0.66 133.55, -0.06 0.66 M0.51 399.7 C-1.15 276.25, -1.37 151.14, 0.06 0.5" stroke="#000000" stroke-width="1" fill="none"></path></g><g stroke-linecap="round" transform="translate(251.92536621540785 110) rotate(0 150.1435091444887 50.00000000000006)"><path d="M0 0 C0 0, 0 0, 0 0 M0 0 C0 0, 0 0, 0 0 M-0.26 6.4 C1.36 4.54, 2.98 2.67, 4.99 0.36 M-0.26 6.4 C0.98 4.97, 2.23 3.54, 4.99 0.36 M0.13 12.04 C2.97 8.77, 5.82 5.5, 10.63 -0.03 M0.13 12.04 C2.56 9.25, 4.98 6.46, 10.63 -0.03 M-0.13 18.44 C5.85 11.57, 11.82 4.69, 15.62 0.33 M-0.13 18.44 C5.93 11.47, 11.99 4.5, 15.62 0.33 M0.27 24.08 C6.48 16.93, 12.7 9.78, 21.26 -0.07 M0.27 24.08 C7.21 16.09, 14.15 8.11, 21.26 -0.07 M0 30.48 C6.19 23.36, 12.37 16.25, 26.25 0.29 M0 30.48 C5.68 23.95, 11.35 17.43, 26.25 0.29 M-0.26 36.88 C10.32 24.71, 20.89 12.55, 31.89 -0.1 M-0.26 36.88 C10.72 24.26, 21.69 11.63, 31.89 -0.1 M0.14 42.52 C14.29 26.24, 28.45 9.95, 36.88 0.26 M0.14 42.52 C14.7 25.76, 29.27 9.01, 36.88 0.26 M-0.12 48.92 C10.76 36.39, 21.65 23.87, 42.52 -0.14 M-0.12 48.92 C12.66 34.22, 25.44 19.51, 42.52 -0.14 M0.27 54.56 C18.83 33.21, 37.39 11.86, 47.51 0.22 M0.27 54.56 C11.34 41.82, 22.42 29.08, 47.51 0.22 M0.01 60.96 C11.6 47.63, 23.19 34.3, 53.15 -0.17 M0.01 60.96 C15.24 43.43, 30.48 25.91, 53.15 -0.17 M-0.25 67.36 C16.06 48.6, 32.37 29.83, 58.14 0.19 M-0.25 67.36 C16.26 48.37, 32.77 29.37, 58.14 0.19 M0.14 73 C13.9 57.18, 27.65 41.36, 63.78 -0.21 M0.14 73 C14.57 56.4, 29 39.81, 63.78 -0.21 M-0.12 79.4 C22.03 53.92, 44.18 28.44, 68.77 0.15 M-0.12 79.4 C23.15 52.63, 46.42 25.86, 68.77 0.15 M0.28 85.04 C22.86 59.06, 45.44 33.08, 74.41 -0.24 M0.28 85.04 C21.63 60.47, 42.99 35.91, 74.41 -0.24 M0.01 91.44 C20.09 68.34, 40.17 45.25, 79.4 0.12 M0.01 91.44 C19.05 69.55, 38.08 47.65, 79.4 0.12 M-0.25 97.84 C33.44 59.08, 67.13 20.33, 85.04 -0.28 M-0.25 97.84 C23.87 70.09, 47.99 42.35, 85.04 -0.28 M2.12 101.22 C25.23 74.62, 48.35 48.02, 90.03 0.08 M2.12 101.22 C26.07 73.66, 50.02 46.11, 90.03 0.08 M7.1 101.58 C29.68 75.6, 52.26 49.63, 95.67 -0.31 M7.1 101.58 C30.72 74.41, 54.33 47.25, 95.67 -0.31 M12.09 101.94 C47.3 61.43, 82.51 20.93, 100.66 0.05 M12.09 101.94 C44.29 64.9, 76.48 27.86, 100.66 0.05 M17.73 101.54 C45.04 70.12, 72.36 38.71, 106.3 -0.34 M17.73 101.54 C47.76 67, 77.79 32.45, 106.3 -0.34 M22.72 101.9 C54.48 65.36, 86.24 28.83, 111.29 0.02 M22.72 101.9 C47.91 72.93, 73.1 43.95, 111.29 0.02 M28.36 101.51 C49.06 77.7, 69.76 53.89, 116.27 0.38 M28.36 101.51 C49.76 76.89, 71.16 52.28, 116.27 0.38 M33.35 101.87 C60.32 70.84, 87.3 39.81, 121.92 -0.02 M33.35 101.87 C55.51 76.38, 77.67 50.89, 121.92 -0.02 M38.99 101.47 C71.75 63.79, 104.51 26.11, 126.91 0.34 M38.99 101.47 C71.22 64.4, 103.45 27.32, 126.91 0.34 M43.98 101.83 C66.11 76.37, 88.24 50.92, 132.55 -0.05 M43.98 101.83 C72.3 69.25, 100.63 36.67, 132.55 -0.05 M49.62 101.44 C77.1 69.83, 104.57 38.22, 137.54 0.31 M49.62 101.44 C79.47 67.1, 109.32 32.77, 137.54 0.31 M54.61 101.8 C78.11 74.76, 101.62 47.72, 143.18 -0.09 M54.61 101.8 C89.67 61.47, 124.73 21.14, 143.18 -0.09 M60.25 101.4 C86.99 70.64, 113.73 39.89, 148.17 0.27 M60.25 101.4 C81.05 77.48, 101.84 53.56, 148.17 0.27 M65.24 101.76 C89.87 73.43, 114.51 45.09, 153.81 -0.12 M65.24 101.76 C85.14 78.87, 105.04 55.98, 153.81 -0.12 M70.88 101.37 C93.09 75.82, 115.3 50.27, 158.8 0.24 M70.88 101.37 C103.94 63.34, 137 25.31, 158.8 0.24 M75.87 101.73 C99.91 74.07, 123.95 46.42, 164.44 -0.16 M75.87 101.73 C110.99 61.33, 146.11 20.92, 164.44 -0.16 M81.51 101.33 C109.59 69.04, 137.67 36.74, 169.43 0.2 M81.51 101.33 C109.64 68.98, 137.77 36.62, 169.43 0.2 M86.5 101.69 C111.73 72.68, 136.95 43.66, 175.07 -0.19 M86.5 101.69 C117.08 66.52, 147.65 31.34, 175.07 -0.19 M92.14 101.3 C120.46 68.73, 148.78 36.15, 180.06 0.17 M92.14 101.3 C116.24 73.58, 140.33 45.86, 180.06 0.17 M97.13 101.66 C116.09 79.85, 135.06 58.03, 185.7 -0.23 M97.13 101.66 C127.99 66.16, 158.85 30.66, 185.7 -0.23 M102.77 101.26 C132.2 67.42, 161.62 33.57, 190.69 0.13 M102.77 101.26 C128.09 72.15, 153.4 43.03, 190.69 0.13 M107.76 101.62 C126.48 80.09, 145.2 58.56, 196.33 -0.26 M107.76 101.62 C136.77 68.26, 165.77 34.89, 196.33 -0.26 M113.4 101.23 C138.67 72.17, 163.93 43.1, 201.32 0.1 M113.4 101.23 C135.8 75.47, 158.19 49.7, 201.32 0.1 M118.39 101.59 C143.62 72.57, 168.84 43.55, 206.96 -0.3 M118.39 101.59 C140.32 76.37, 162.24 51.14, 206.96 -0.3 M124.03 101.2 C156.26 64.13, 188.48 27.05, 211.95 0.06 M124.03 101.2 C151.42 69.69, 178.81 38.18, 211.95 0.06 M129.02 101.56 C155.51 71.08, 182 40.61, 217.59 -0.33 M129.02 101.56 C157.15 69.2, 185.27 36.85, 217.59 -0.33 M134.01 101.92 C153.04 80.02, 172.07 58.13, 222.58 0.03 M134.01 101.92 C155.19 77.55, 176.36 53.19, 222.58 0.03 M139.65 101.52 C172.86 63.32, 206.07 25.11, 228.22 -0.36 M139.65 101.52 C174.2 61.78, 208.75 22.04, 228.22 -0.36 M144.64 101.88 C173.98 68.12, 203.33 34.37, 233.21 0 M144.64 101.88 C167.84 75.19, 191.04 48.51, 233.21 0 M150.28 101.49 C175.73 72.21, 201.18 42.93, 238.19 0.36 M150.28 101.49 C182.06 64.93, 213.84 28.37, 238.19 0.36 M155.27 101.85 C179.27 74.23, 203.27 46.62, 243.84 -0.04 M155.27 101.85 C177.26 76.55, 199.25 51.25, 243.84 -0.04 M160.91 101.45 C185.17 73.54, 209.43 45.64, 248.82 0.32 M160.91 101.45 C193.61 63.83, 226.32 26.21, 248.82 0.32 M165.9 101.81 C187.63 76.81, 209.37 51.81, 254.47 -0.07 M165.9 101.81 C193.37 70.21, 220.84 38.61, 254.47 -0.07 M171.54 101.42 C191.23 78.77, 210.91 56.12, 259.45 0.29 M171.54 101.42 C189.6 80.64, 207.67 59.86, 259.45 0.29 M176.53 101.78 C205.06 68.95, 233.6 36.13, 265.1 -0.11 M176.53 101.78 C194.54 81.06, 212.55 60.34, 265.1 -0.11 M182.17 101.38 C206.72 73.15, 231.26 44.91, 270.08 0.25 M182.17 101.38 C207.62 72.11, 233.07 42.83, 270.08 0.25 M187.16 101.74 C207.11 78.8, 227.05 55.85, 275.73 -0.14 M187.16 101.74 C216.15 68.39, 245.14 35.04, 275.73 -0.14 M192.8 101.35 C214.24 76.69, 235.67 52.03, 280.71 0.22 M192.8 101.35 C218.78 71.47, 244.76 41.58, 280.71 0.22 M197.79 101.71 C227.44 67.6, 257.08 33.5, 286.36 -0.18 M197.79 101.71 C226.61 68.56, 255.43 35.41, 286.36 -0.18 M203.43 101.31 C236.5 63.28, 269.56 25.24, 291.34 0.18 M203.43 101.31 C233.2 67.07, 262.97 32.83, 291.34 0.18 M208.42 101.67 C233.85 72.42, 259.29 43.16, 296.99 -0.21 M208.42 101.67 C233.62 72.69, 258.82 43.7, 296.99 -0.21 M214.06 101.28 C248.14 62.07, 282.23 22.86, 301.32 0.9 M214.06 101.28 C247.02 63.37, 279.98 25.45, 301.32 0.9 M219.05 101.64 C249.81 66.25, 280.58 30.85, 301.06 7.3 M219.05 101.64 C246.56 69.99, 274.08 38.34, 301.06 7.3 M224.69 101.25 C244.5 78.46, 264.31 55.67, 301.45 12.94 M224.69 101.25 C241.23 82.22, 257.77 63.2, 301.45 12.94 M229.68 101.61 C254.54 73.01, 279.4 44.41, 301.19 19.34 M229.68 101.61 C247.76 80.81, 265.84 60.01, 301.19 19.34 M235.32 101.21 C248.95 85.54, 262.57 69.86, 301.58 24.99 M235.32 101.21 C255.08 78.48, 274.84 55.75, 301.58 24.99 M240.31 101.57 C253.11 86.84, 265.91 72.12, 301.32 31.38 M240.31 101.57 C255.86 83.69, 271.4 65.8, 301.32 31.38 M245.3 101.93 C262.95 81.63, 280.6 61.32, 301.06 37.78 M245.3 101.93 C262.92 81.65, 280.55 61.37, 301.06 37.78 M250.94 101.54 C262.21 88.57, 273.48 75.61, 301.46 43.42 M250.94 101.54 C261.21 89.72, 271.49 77.9, 301.46 43.42 M255.93 101.9 C270.88 84.69, 285.83 67.49, 301.19 49.82 M255.93 101.9 C265.12 91.32, 274.31 80.75, 301.19 49.82 M261.57 101.5 C273.78 87.45, 285.99 73.41, 301.59 55.46 M261.57 101.5 C269.75 92.09, 277.93 82.69, 301.59 55.46 M266.56 101.86 C275 92.15, 283.45 82.43, 301.33 61.86 M266.56 101.86 C278.26 88.39, 289.97 74.93, 301.33 61.86 M272.2 101.47 C278.84 93.83, 285.47 86.2, 301.07 68.26 M272.2 101.47 C278.18 94.59, 284.16 87.7, 301.07 68.26 M277.19 101.83 C284.62 93.28, 292.05 84.73, 301.46 73.9 M277.19 101.83 C285.4 92.38, 293.61 82.93, 301.46 73.9 M282.83 101.43 C287.01 96.63, 291.19 91.82, 301.2 80.3 M282.83 101.43 C286.6 97.09, 290.37 92.76, 301.2 80.3 M287.82 101.79 C290.96 98.17, 294.11 94.55, 301.59 85.94 M287.82 101.79 C291.58 97.46, 295.35 93.13, 301.59 85.94 M293.46 101.4 C296.49 97.92, 299.51 94.44, 301.33 92.34 M293.46 101.4 C295.31 99.27, 297.17 97.13, 301.33 92.34 M298.45 101.76 C299.43 100.63, 300.41 99.5, 301.07 98.74 M298.45 101.76 C299.1 101, 299.76 100.25, 301.07 98.74" stroke="#15aabf" stroke-width="0.5" fill="none"></path><path d="M0 0 C65.24 0, 130.48 0, 300.29 0 M0 0 C84.79 0, 169.58 0, 300.29 0 M300.29 0 C300.29 36.98, 300.29 73.95, 300.29 100 M300.29 0 C300.29 35.08, 300.29 70.16, 300.29 100 M300.29 100 C187.07 100, 73.84 100, 0 100 M300.29 100 C229.91 100, 159.53 100, 0 100 M0 100 C0 62.96, 0 25.91, 0 0 M0 100 C0 64.84, 0 29.68, 0 0" stroke="#000000" stroke-width="1" fill="none"></path></g><g stroke-linecap="round" transform="translate(252.10881311461344 230) rotate(0 150.45412588810586 9.91306365966409)"><path d="M0 0 C0 0, 0 0, 0 0 M0 0 C0 0, 0 0, 0 0 M-0.26 6.4 C1.62 4.23, 3.51 2.06, 4.99 0.36 M-0.26 6.4 C1.11 4.82, 2.48 3.24, 4.99 0.36 M0.13 12.04 C4.26 7.3, 8.38 2.55, 10.63 -0.03 M0.13 12.04 C2.85 8.92, 5.56 5.8, 10.63 -0.03 M-0.13 18.44 C4.04 13.64, 8.22 8.84, 15.62 0.33 M-0.13 18.44 C4.95 12.59, 10.03 6.75, 15.62 0.33 M2.23 21.82 C7.79 15.42, 13.35 9.03, 21.26 -0.07 M2.23 21.82 C8.24 14.91, 14.25 8, 21.26 -0.07 M7.88 21.42 C14.18 14.17, 20.49 6.92, 26.25 0.29 M7.88 21.42 C14.83 13.43, 21.78 5.43, 26.25 0.29 M12.86 21.78 C18.14 15.72, 23.41 9.65, 31.89 -0.1 M12.86 21.78 C18.42 15.39, 23.99 8.99, 31.89 -0.1 M17.85 22.14 C25.1 13.81, 32.35 5.47, 36.88 0.26 M17.85 22.14 C22.47 16.83, 27.09 11.52, 36.88 0.26 M23.49 21.75 C27.43 17.23, 31.36 12.7, 42.52 -0.14 M23.49 21.75 C30.74 13.41, 37.99 5.07, 42.52 -0.14 M28.48 22.11 C32.46 17.53, 36.43 12.96, 47.51 0.22 M28.48 22.11 C35.84 13.65, 43.2 5.18, 47.51 0.22 M34.12 21.71 C41.41 13.33, 48.7 4.94, 53.15 -0.17 M34.12 21.71 C38.51 16.66, 42.9 11.61, 53.15 -0.17 M39.11 22.07 C44.85 15.47, 50.59 8.86, 58.14 0.19 M39.11 22.07 C45.53 14.69, 51.95 7.31, 58.14 0.19 M44.75 21.68 C51.47 13.95, 58.19 6.23, 63.78 -0.21 M44.75 21.68 C51.35 14.09, 57.95 6.5, 63.78 -0.21 M49.74 22.04 C56.93 13.77, 64.11 5.51, 68.77 0.15 M49.74 22.04 C55.03 15.96, 60.31 9.88, 68.77 0.15 M55.38 21.65 C61.22 14.94, 67.05 8.23, 74.41 -0.24 M55.38 21.65 C60.91 15.29, 66.43 8.93, 74.41 -0.24 M60.37 22.01 C67.95 13.28, 75.54 4.56, 79.4 0.12 M60.37 22.01 C65.09 16.58, 69.8 11.16, 79.4 0.12 M66.02 21.61 C71.3 15.54, 76.58 9.46, 85.04 -0.28 M66.02 21.61 C71.33 15.5, 76.65 9.38, 85.04 -0.28 M71 21.97 C78.05 13.87, 85.09 5.76, 90.03 0.08 M71 21.97 C77.53 14.46, 84.06 6.95, 90.03 0.08 M76.65 21.58 C83.18 14.05, 89.72 6.53, 95.67 -0.31 M76.65 21.58 C84.02 13.09, 91.4 4.61, 95.67 -0.31 M81.63 21.94 C88.15 14.44, 94.66 6.95, 100.66 0.05 M81.63 21.94 C87.64 15.03, 93.64 8.12, 100.66 0.05 M87.28 21.54 C91.58 16.59, 95.89 11.63, 106.3 -0.34 M87.28 21.54 C93.85 13.98, 100.42 6.42, 106.3 -0.34 M92.26 21.9 C96.22 17.35, 100.18 12.79, 111.29 0.02 M92.26 21.9 C99.37 13.72, 106.49 5.54, 111.29 0.02 M97.91 21.51 C103.24 15.37, 108.58 9.23, 116.27 0.38 M97.91 21.51 C104.13 14.34, 110.36 7.18, 116.27 0.38 M102.89 21.87 C108.68 15.2, 114.48 8.54, 121.92 -0.02 M102.89 21.87 C110.16 13.5, 117.44 5.14, 121.92 -0.02 M108.54 21.47 C114.88 14.17, 121.22 6.87, 126.91 0.34 M108.54 21.47 C112.41 17.01, 116.29 12.55, 126.91 0.34 M113.52 21.83 C117.56 17.19, 121.59 12.55, 132.55 -0.05 M113.52 21.83 C118.5 16.11, 123.47 10.38, 132.55 -0.05 M119.17 21.44 C123.64 16.3, 128.11 11.15, 137.54 0.31 M119.17 21.44 C123.95 15.93, 128.74 10.42, 137.54 0.31 M124.15 21.8 C130.92 14.01, 137.69 6.23, 143.18 -0.09 M124.15 21.8 C131.55 13.29, 138.95 4.77, 143.18 -0.09 M129.14 22.16 C134.48 16.01, 139.83 9.86, 148.17 0.27 M129.14 22.16 C133.76 16.84, 138.38 11.53, 148.17 0.27 M134.78 21.76 C138.65 17.31, 142.52 12.86, 153.81 -0.12 M134.78 21.76 C142.35 13.06, 149.91 4.36, 153.81 -0.12 M139.77 22.12 C147.34 13.41, 154.92 4.7, 158.8 0.24 M139.77 22.12 C146.79 14.04, 153.82 5.96, 158.8 0.24 M145.41 21.73 C150.5 15.88, 155.58 10.03, 164.44 -0.16 M145.41 21.73 C152.59 13.47, 159.76 5.22, 164.44 -0.16 M150.4 22.09 C157.61 13.8, 164.81 5.51, 169.43 0.2 M150.4 22.09 C156.24 15.37, 162.09 8.64, 169.43 0.2 M156.04 21.69 C161.81 15.06, 167.58 8.43, 175.07 -0.19 M156.04 21.69 C161.24 15.71, 166.45 9.73, 175.07 -0.19 M161.03 22.05 C165.8 16.57, 170.57 11.08, 180.06 0.17 M161.03 22.05 C168.28 13.72, 175.52 5.38, 180.06 0.17 M166.67 21.66 C172.58 14.87, 178.48 8.08, 185.7 -0.23 M166.67 21.66 C172.16 15.35, 177.65 9.04, 185.7 -0.23 M171.66 22.02 C177.09 15.77, 182.52 9.53, 190.69 0.13 M171.66 22.02 C178.71 13.91, 185.76 5.8, 190.69 0.13 M177.3 21.63 C183.62 14.35, 189.95 7.08, 196.33 -0.26 M177.3 21.63 C182.64 15.49, 187.97 9.35, 196.33 -0.26 M182.29 21.99 C189.86 13.28, 197.42 4.58, 201.32 0.1 M182.29 21.99 C188.23 15.15, 194.17 8.32, 201.32 0.1 M187.93 21.59 C192.8 15.99, 197.67 10.39, 206.96 -0.3 M187.93 21.59 C194.86 13.63, 201.78 5.66, 206.96 -0.3 M192.92 21.95 C199.51 14.37, 206.11 6.78, 211.95 0.06 M192.92 21.95 C198.61 15.41, 204.3 8.86, 211.95 0.06 M198.56 21.56 C202.6 16.92, 206.63 12.28, 217.59 -0.33 M198.56 21.56 C204.46 14.77, 210.36 7.99, 217.59 -0.33 M203.55 21.92 C209.92 14.59, 216.29 7.26, 222.58 0.03 M203.55 21.92 C208.87 15.79, 214.19 9.67, 222.58 0.03 M209.19 21.52 C216.33 13.31, 223.47 5.1, 228.22 -0.36 M209.19 21.52 C215.76 13.97, 222.33 6.41, 228.22 -0.36 M214.18 21.88 C218.15 17.32, 222.12 12.75, 233.21 0 M214.18 21.88 C219.12 16.2, 224.05 10.53, 233.21 0 M219.82 21.49 C226.5 13.81, 233.18 6.13, 238.19 0.36 M219.82 21.49 C226.32 14.02, 232.81 6.55, 238.19 0.36 M224.81 21.85 C229.72 16.2, 234.63 10.55, 243.84 -0.04 M224.81 21.85 C230.51 15.29, 236.21 8.73, 243.84 -0.04 M230.45 21.45 C234.84 16.4, 239.23 11.35, 248.82 0.32 M230.45 21.45 C235.48 15.67, 240.51 9.88, 248.82 0.32 M235.44 21.81 C239.58 17.05, 243.71 12.3, 254.47 -0.07 M235.44 21.81 C241.49 14.86, 247.54 7.9, 254.47 -0.07 M241.08 21.42 C246.73 14.92, 252.39 8.42, 259.45 0.29 M241.08 21.42 C246.64 15.03, 252.19 8.64, 259.45 0.29 M246.07 21.78 C251.09 16, 256.12 10.22, 265.1 -0.11 M246.07 21.78 C251.56 15.47, 257.04 9.16, 265.1 -0.11 M251.06 22.14 C257.12 15.16, 263.19 8.19, 270.08 0.25 M251.06 22.14 C256.59 15.77, 262.13 9.41, 270.08 0.25 M256.7 21.74 C260.87 16.95, 265.04 12.15, 275.73 -0.14 M256.7 21.74 C261.29 16.47, 265.87 11.2, 275.73 -0.14 M261.69 22.1 C266.74 16.29, 271.8 10.47, 280.71 0.22 M261.69 22.1 C268.31 14.49, 274.93 6.87, 280.71 0.22 M267.33 21.71 C273.96 14.09, 280.59 6.46, 286.36 -0.18 M267.33 21.71 C272.32 15.97, 277.31 10.23, 286.36 -0.18 M272.32 22.07 C279.65 13.63, 286.98 5.2, 291.34 0.18 M272.32 22.07 C276.85 16.86, 281.37 11.65, 291.34 0.18 M277.96 21.68 C284.81 13.79, 291.67 5.91, 296.99 -0.21 M277.96 21.68 C283.57 15.22, 289.19 8.76, 296.99 -0.21 M282.95 22.04 C289.54 14.46, 296.13 6.88, 301.32 0.9 M282.95 22.04 C289.96 13.97, 296.97 5.9, 301.32 0.9 M288.59 21.64 C291.31 18.51, 294.03 15.38, 301.71 6.55 M288.59 21.64 C293.03 16.54, 297.46 11.44, 301.71 6.55 M293.58 22 C296.02 19.19, 298.46 16.39, 301.45 12.94 M293.58 22 C295.6 19.68, 297.62 17.36, 301.45 12.94 M299.22 21.61 C299.97 20.74, 300.72 19.88, 301.85 18.59 M299.22 21.61 C299.87 20.86, 300.51 20.12, 301.85 18.59 M-0.01 19.82 C-0.01 19.82, -0.01 19.82, -0.01 19.82 M-0.01 19.82 C-0.01 19.82, -0.01 19.82, -0.01 19.82 M6.39 20.08 C4.96 18.84, 3.53 17.6, 0.35 14.83 M6.39 20.08 C4.39 18.34, 2.39 16.6, 0.35 14.83 M12.04 19.69 C8.85 16.92, 5.66 14.15, -0.04 9.19 M12.04 19.69 C7.35 15.62, 2.67 11.55, -0.04 9.19 M18.43 19.95 C12.21 14.54, 5.99 9.13, 0.32 4.2 M18.43 19.95 C11.88 14.26, 5.34 8.56, 0.32 4.2 M24.08 19.56 C16.26 12.76, 8.45 5.97, 0.68 -0.78 M24.08 19.56 C17.53 13.87, 10.99 8.18, 0.68 -0.78 M30.47 19.82 C22.67 13.04, 14.87 6.26, 7.08 -0.52 M30.47 19.82 C22.05 12.5, 13.64 5.18, 7.08 -0.52 M36.87 20.08 C29.2 13.41, 21.53 6.74, 12.72 -0.92 M36.87 20.08 C27.86 12.24, 18.85 4.41, 12.72 -0.92 M42.51 19.68 C33.67 11.99, 24.82 4.3, 19.12 -0.65 M42.51 19.68 C37.67 15.48, 32.83 11.27, 19.12 -0.65 M48.91 19.94 C40.26 12.42, 31.6 4.9, 24.76 -1.05 M48.91 19.94 C43.44 15.19, 37.97 10.43, 24.76 -1.05 M54.56 19.55 C47.71 13.6, 40.86 7.64, 31.16 -0.79 M54.56 19.55 C48.97 14.69, 43.37 9.83, 31.16 -0.79 M60.95 19.81 C55.27 14.87, 49.59 9.93, 37.56 -0.53 M60.95 19.81 C55 14.64, 49.05 9.47, 37.56 -0.53 M67.35 20.07 C59.23 13.02, 51.12 5.96, 43.2 -0.92 M67.35 20.07 C61.34 14.85, 55.33 9.63, 43.2 -0.92 M72.99 19.68 C68.26 15.57, 63.54 11.46, 49.6 -0.66 M72.99 19.68 C65.34 13.02, 57.68 6.37, 49.6 -0.66 M79.39 19.94 C74.3 15.51, 69.2 11.08, 55.24 -1.05 M79.39 19.94 C72.5 13.95, 65.61 7.96, 55.24 -1.05 M85.04 19.55 C77.77 13.23, 70.5 6.91, 61.64 -0.79 M85.04 19.55 C76.32 11.97, 67.61 4.4, 61.64 -0.79 M91.43 19.81 C85.26 14.44, 79.09 9.08, 68.04 -0.53 M91.43 19.81 C85.5 14.65, 79.56 9.49, 68.04 -0.53 M97.83 20.07 C90.92 14.06, 84 8.05, 73.68 -0.93 M97.83 20.07 C88.82 12.24, 79.81 4.4, 73.68 -0.93 M103.47 19.67 C96.82 13.89, 90.17 8.11, 80.08 -0.66 M103.47 19.67 C96.09 13.26, 88.72 6.84, 80.08 -0.66 M109.87 19.94 C102.83 13.81, 95.79 7.69, 85.72 -1.06 M109.87 19.94 C100.96 12.19, 92.05 4.44, 85.72 -1.06 M115.51 19.54 C108.33 13.3, 101.15 7.06, 92.12 -0.8 M115.51 19.54 C108.78 13.68, 102.04 7.82, 92.12 -0.8 M121.91 19.8 C114.14 13.05, 106.38 6.3, 98.52 -0.54 M121.91 19.8 C115.93 14.6, 109.95 9.4, 98.52 -0.54 M128.31 20.06 C123.26 15.68, 118.22 11.29, 104.16 -0.93 M128.31 20.06 C122.38 14.91, 116.45 9.75, 104.16 -0.93 M133.95 19.67 C127.94 14.44, 121.92 9.21, 110.56 -0.67 M133.95 19.67 C124.94 11.83, 115.92 4, 110.56 -0.67 M140.35 19.93 C132.82 13.38, 125.29 6.84, 116.2 -1.06 M140.35 19.93 C132.67 13.25, 124.98 6.57, 116.2 -1.06 M145.99 19.54 C137.56 12.21, 129.13 4.88, 122.6 -0.8 M145.99 19.54 C137.43 12.09, 128.86 4.64, 122.6 -0.8 M152.39 19.8 C143.48 12.05, 134.58 4.31, 129 -0.54 M152.39 19.8 C145.55 13.85, 138.72 7.91, 129 -0.54 M158.79 20.06 C149.65 12.11, 140.51 4.17, 134.64 -0.94 M158.79 20.06 C152.44 14.54, 146.09 9.02, 134.64 -0.94 M164.43 19.66 C159.18 15.1, 153.93 10.53, 141.04 -0.67 M164.43 19.66 C159.51 15.38, 154.58 11.1, 141.04 -0.67 M170.83 19.93 C163.77 13.79, 156.71 7.65, 146.68 -1.07 M170.83 19.93 C161.26 11.61, 151.69 3.29, 146.68 -1.07 M176.47 19.53 C169.55 13.51, 162.63 7.5, 153.08 -0.81 M176.47 19.53 C167.77 11.97, 159.07 4.4, 153.08 -0.81 M182.87 19.79 C175.23 13.15, 167.59 6.51, 159.48 -0.55 M182.87 19.79 C174.84 12.81, 166.82 5.83, 159.48 -0.55 M189.27 20.05 C182.24 13.94, 175.21 7.83, 165.12 -0.94 M189.27 20.05 C181.26 13.09, 173.26 6.13, 165.12 -0.94 M194.91 19.66 C186.74 12.56, 178.57 5.45, 171.52 -0.68 M194.91 19.66 C187.03 12.8, 179.14 5.95, 171.52 -0.68 M201.31 19.92 C192.85 12.56, 184.38 5.2, 177.16 -1.07 M201.31 19.92 C194.05 13.61, 186.78 7.29, 177.16 -1.07 M206.95 19.53 C200.58 13.99, 194.21 8.45, 183.56 -0.81 M206.95 19.53 C200.7 14.09, 194.44 8.65, 183.56 -0.81 M213.35 19.79 C207.32 14.55, 201.29 9.3, 189.96 -0.55 M213.35 19.79 C205.22 12.72, 197.09 5.65, 189.96 -0.55 M219.75 20.05 C213.66 14.76, 207.58 9.47, 195.6 -0.94 M219.75 20.05 C212.98 14.17, 206.22 8.29, 195.6 -0.94 M225.39 19.65 C219.76 14.76, 214.13 9.87, 202 -0.68 M225.39 19.65 C216.14 11.61, 206.89 3.57, 202 -0.68 M231.79 19.92 C224.85 13.89, 217.92 7.86, 207.64 -1.08 M231.79 19.92 C222.68 12, 213.57 4.08, 207.64 -1.08 M237.43 19.52 C228.77 11.99, 220.1 4.45, 214.04 -0.82 M237.43 19.52 C232.17 14.95, 226.91 10.37, 214.04 -0.82 M243.83 19.78 C238.65 15.28, 233.46 10.77, 220.43 -0.56 M243.83 19.78 C238.76 15.37, 233.68 10.96, 220.43 -0.56 M250.23 20.04 C241.48 12.44, 232.72 4.83, 226.08 -0.95 M250.23 20.04 C243.65 14.33, 237.08 8.61, 226.08 -0.95 M255.87 19.65 C247.87 12.69, 239.86 5.73, 232.48 -0.69 M255.87 19.65 C248.53 13.27, 241.19 6.89, 232.48 -0.69 M262.27 19.91 C253.2 12.03, 244.14 4.15, 238.12 -1.08 M262.27 19.91 C256.71 15.08, 251.15 10.25, 238.12 -1.08 M267.91 19.52 C259.04 11.8, 250.16 4.08, 244.52 -0.82 M267.91 19.52 C262.33 14.66, 256.74 9.81, 244.52 -0.82 M274.31 19.78 C269.35 15.47, 264.4 11.16, 250.91 -0.56 M274.31 19.78 C268.52 14.74, 262.72 9.71, 250.91 -0.56 M280.71 20.04 C273.27 13.57, 265.83 7.1, 256.56 -0.95 M280.71 20.04 C275.43 15.45, 270.15 10.86, 256.56 -0.95 M286.35 19.64 C278.9 13.17, 271.45 6.69, 262.96 -0.69 M286.35 19.64 C278.64 12.94, 270.92 6.23, 262.96 -0.69 M292.75 19.91 C284.38 12.63, 276.02 5.36, 268.6 -1.09 M292.75 19.91 C284.61 12.83, 276.47 5.76, 268.6 -1.09 M298.39 19.51 C289.38 11.68, 280.37 3.84, 275 -0.83 M298.39 19.51 C290.49 12.64, 282.58 5.77, 275 -0.83 M302.53 17.8 C295 11.26, 287.47 4.72, 281.39 -0.56 M302.53 17.8 C295.48 11.68, 288.44 5.56, 281.39 -0.56 M302.89 12.82 C297.4 8.05, 291.92 3.28, 287.04 -0.96 M302.89 12.82 C296.71 7.45, 290.53 2.08, 287.04 -0.96 M302.49 7.17 C300.29 5.26, 298.08 3.34, 293.43 -0.7 M302.49 7.17 C300.65 5.58, 298.81 3.98, 293.43 -0.7 M302.85 2.19 C301.42 0.95, 299.99 -0.3, 299.08 -1.09 M302.85 2.19 C301.87 1.34, 300.89 0.49, 299.08 -1.09" stroke="#fd7e14" stroke-width="0.5" fill="none"></path><path d="M0 0 C82.79 0, 165.57 0, 300.91 0 M0 0 C96.59 0, 193.18 0, 300.91 0 M300.91 0 C300.91 6.66, 300.91 13.33, 300.91 19.83 M300.91 0 C300.91 6.82, 300.91 13.64, 300.91 19.83 M300.91 19.83 C230.57 19.83, 160.24 19.83, 0 19.83 M300.91 19.83 C236.73 19.83, 172.55 19.83, 0 19.83 M0 19.83 C0 14.22, 0 8.61, 0 0 M0 19.83 C0 15.15, 0 10.48, 0 0" stroke="#000000" stroke-width="1" fill="none"></path></g><g stroke-linecap="round" transform="translate(251.63388595158176 256) rotate(0 60 10)"><path d="M0 0 C0 0, 0 0, 0 0 M0 0 C0 0, 0 0, 0 0 M-0.26 6.4 C1.27 4.63, 2.81 2.87, 4.99 0.36 M-0.26 6.4 C0.89 5.07, 2.05 3.74, 4.99 0.36 M0.13 12.04 C3.51 8.16, 6.88 4.28, 10.63 -0.03 M0.13 12.04 C3.27 8.43, 6.4 4.83, 10.63 -0.03 M-0.13 18.44 C5.46 12.01, 11.05 5.58, 15.62 0.33 M-0.13 18.44 C4.36 13.28, 8.84 8.12, 15.62 0.33 M2.23 21.82 C7.26 16.03, 12.3 10.24, 21.26 -0.07 M2.23 21.82 C6.17 17.29, 10.11 12.75, 21.26 -0.07 M7.22 22.18 C14.13 14.24, 21.03 6.29, 26.25 0.29 M7.22 22.18 C13.32 15.16, 19.43 8.14, 26.25 0.29 M12.86 21.78 C19.84 13.75, 26.82 5.72, 31.89 -0.1 M12.86 21.78 C19.46 14.2, 26.06 6.61, 31.89 -0.1 M17.85 22.14 C24.68 14.29, 31.5 6.44, 36.88 0.26 M17.85 22.14 C23.72 15.39, 29.59 8.64, 36.88 0.26 M23.49 21.75 C30.15 14.1, 36.8 6.44, 42.52 -0.14 M23.49 21.75 C30.54 13.65, 37.58 5.55, 42.52 -0.14 M28.48 22.11 C33.08 16.82, 37.67 11.54, 47.51 0.22 M28.48 22.11 C33.67 16.14, 38.86 10.16, 47.51 0.22 M34.12 21.71 C41.54 13.18, 48.96 4.65, 53.15 -0.17 M34.12 21.71 C41.23 13.54, 48.34 5.36, 53.15 -0.17 M39.11 22.07 C46.08 14.06, 53.05 6.04, 58.14 0.19 M39.11 22.07 C44.48 15.9, 49.84 9.73, 58.14 0.19 M44.75 21.68 C50.86 14.66, 56.96 7.64, 63.78 -0.21 M44.75 21.68 C50.42 15.17, 56.08 8.66, 63.78 -0.21 M49.74 22.04 C56.3 14.5, 62.85 6.96, 68.77 0.15 M49.74 22.04 C54.46 16.62, 59.17 11.19, 68.77 0.15 M55.38 21.65 C59.8 16.57, 64.21 11.49, 74.41 -0.24 M55.38 21.65 C61.58 14.52, 67.77 7.39, 74.41 -0.24 M60.37 22.01 C65.01 16.67, 69.65 11.33, 79.4 0.12 M60.37 22.01 C66.58 14.86, 72.79 7.72, 79.4 0.12 M66.02 21.61 C71.14 15.72, 76.26 9.83, 85.04 -0.28 M66.02 21.61 C71.45 15.36, 76.88 9.11, 85.04 -0.28 M71 21.97 C78.39 13.48, 85.77 4.98, 90.03 0.08 M71 21.97 C77.03 15.04, 83.06 8.11, 90.03 0.08 M76.65 21.58 C81.11 16.44, 85.57 11.31, 95.67 -0.31 M76.65 21.58 C81.38 16.13, 86.11 10.69, 95.67 -0.31 M81.63 21.94 C88.44 14.11, 95.24 6.28, 100.66 0.05 M81.63 21.94 C86.63 16.19, 91.62 10.44, 100.66 0.05 M87.28 21.54 C94.62 13.09, 101.97 4.64, 106.3 -0.34 M87.28 21.54 C93.56 14.32, 99.84 7.09, 106.3 -0.34 M92.26 21.9 C99.66 13.39, 107.06 4.88, 111.29 0.02 M92.26 21.9 C97.03 16.41, 101.8 10.93, 111.29 0.02 M97.25 22.26 C101.79 17.03, 106.34 11.81, 116.27 0.38 M97.25 22.26 C102.75 15.94, 108.24 9.62, 116.27 0.38 M102.89 21.87 C109.77 13.95, 116.65 6.04, 121.26 0.74 M102.89 21.87 C106.79 17.39, 110.68 12.91, 121.26 0.74 M107.88 22.23 C112.65 16.74, 117.41 11.26, 121 7.13 M107.88 22.23 C112.18 17.28, 116.47 12.34, 121 7.13 M113.52 21.83 C115.6 19.45, 117.67 17.06, 121.4 12.78 M113.52 21.83 C116.05 18.93, 118.57 16.02, 121.4 12.78 M-0.09 19.92 C-0.09 19.92, -0.09 19.92, -0.09 19.92 M-0.09 19.92 C-0.09 19.92, -0.09 19.92, -0.09 19.92 M6.31 20.18 C4.73 18.81, 3.16 17.45, 0.27 14.93 M6.31 20.18 C3.92 18.11, 1.53 16.03, 0.27 14.93 M11.95 19.79 C7.22 15.67, 2.49 11.56, -0.13 9.29 M11.95 19.79 C8.64 16.91, 5.34 14.04, -0.13 9.29 M18.35 20.05 C14.22 16.46, 10.1 12.88, 0.23 4.3 M18.35 20.05 C12.95 15.36, 7.55 10.66, 0.23 4.3 M24.74 20.31 C17.05 13.62, 9.35 6.92, 0.59 -0.68 M24.74 20.31 C19.79 16, 14.83 11.69, 0.59 -0.68 M30.39 19.92 C23.78 14.18, 17.18 8.44, 6.99 -0.42 M30.39 19.92 C22.57 13.12, 14.74 6.32, 6.99 -0.42 M36.79 20.18 C28.01 12.55, 19.24 4.92, 12.64 -0.82 M36.79 20.18 C30.39 14.62, 24 9.06, 12.64 -0.82 M42.43 19.78 C33.11 11.68, 23.79 3.58, 19.03 -0.56 M42.43 19.78 C36.49 14.62, 30.56 9.46, 19.03 -0.56 M48.83 20.04 C39.72 12.12, 30.61 4.21, 24.68 -0.95 M48.83 20.04 C42.22 14.3, 35.61 8.56, 24.68 -0.95 M55.22 20.31 C50.25 15.98, 45.28 11.66, 31.07 -0.69 M55.22 20.31 C49.2 15.07, 43.17 9.83, 31.07 -0.69 M60.87 19.91 C54.57 14.44, 48.28 8.97, 37.47 -0.43 M60.87 19.91 C53.92 13.87, 46.98 7.84, 37.47 -0.43 M67.27 20.17 C57.81 11.95, 48.35 3.73, 43.11 -0.82 M67.27 20.17 C58.6 12.64, 49.94 5.11, 43.11 -0.82 M72.91 19.78 C68.16 15.65, 63.4 11.52, 49.51 -0.56 M72.91 19.78 C67.21 14.83, 61.52 9.87, 49.51 -0.56 M79.31 20.04 C72.11 13.78, 64.9 7.52, 55.16 -0.95 M79.31 20.04 C72.98 14.54, 66.64 9.03, 55.16 -0.95 M85.7 20.3 C80.86 16.09, 76.02 11.89, 61.55 -0.69 M85.7 20.3 C79.28 14.71, 72.85 9.13, 61.55 -0.69 M91.35 19.91 C83.76 13.31, 76.17 6.72, 67.95 -0.43 M91.35 19.91 C84.7 14.12, 78.05 8.34, 67.95 -0.43 M97.74 20.17 C89.58 13.07, 81.42 5.98, 73.59 -0.83 M97.74 20.17 C89.03 12.59, 80.31 5.01, 73.59 -0.83 M103.39 19.77 C95.78 13.16, 88.17 6.54, 79.99 -0.56 M103.39 19.77 C94.19 11.77, 84.98 3.77, 79.99 -0.56 M109.79 20.03 C101.36 12.71, 92.93 5.38, 85.63 -0.96 M109.79 20.03 C100.89 12.3, 91.99 4.56, 85.63 -0.96 M116.18 20.3 C111.05 15.84, 105.92 11.38, 92.03 -0.7 M116.18 20.3 C111.32 16.07, 106.46 11.84, 92.03 -0.7 M121.07 19.25 C116.02 14.86, 110.97 10.47, 98.43 -0.44 M121.07 19.25 C112.64 11.92, 104.21 4.59, 98.43 -0.44 M120.68 13.6 C114.81 8.5, 108.94 3.4, 104.07 -0.83 M120.68 13.6 C114.63 8.35, 108.58 3.09, 104.07 -0.83 M121.04 8.62 C118.86 6.72, 116.69 4.83, 110.47 -0.57 M121.04 8.62 C117.87 5.86, 114.69 3.1, 110.47 -0.57 M120.64 2.97 C118.96 1.51, 117.27 0.04, 116.11 -0.96 M120.64 2.97 C118.92 1.47, 117.19 -0.03, 116.11 -0.96" stroke="#fd7e14" stroke-width="0.5" fill="none"></path><path d="M0 0 C34.29 0, 68.59 0, 120 0 M0 0 C34.8 0, 69.61 0, 120 0 M120 0 C120 6.26, 120 12.52, 120 20 M120 0 C120 6.01, 120 12.02, 120 20 M120 20 C82.52 20, 45.04 20, 0 20 M120 20 C74 20, 27.99 20, 0 20 M0 20 C0 12.23, 0 4.47, 0 0 M0 20 C0 12.2, 0 4.4, 0 0" stroke="#000000" stroke-width="1" fill="none"></path></g><g transform="translate(232.1977588279915 430.25449959253865) rotate(0 167.63635808771278 -2.772718949751379)" stroke="none"><path fill="transparent" d="M 0,-1.56 Q 0,-1.56 2.09,-1.53 4.18,-1.51 6.68,-1.69 9.18,-1.87 12.40,-1.94 15.62,-2.01 19.49,-2.03 23.37,-2.06 27.31,-2.06 31.25,-2.07 34.39,-2.07 37.53,-2.07 41.13,-2.27 44.73,-2.48 48.17,-2.56 51.62,-2.65 54.13,-2.69 56.64,-2.72 59.38,-2.74 62.12,-2.75 66.01,-2.76 69.89,-2.76 74.05,-2.76 78.21,-2.76 82.91,-2.76 87.60,-2.77 92.31,-2.77 97.03,-2.77 101.96,-2.76 106.89,-2.76 110.45,-2.76 114.01,-2.76 116.56,-2.76 119.12,-2.76 121.12,-2.59 123.12,-2.42 124.84,-2.19 126.55,-1.96 128.59,-1.99 130.63,-2.02 141.53,-2.33 152.43,-2.64 163.39,-2.75 174.35,-2.85 183.58,-3.09 192.82,-3.32 202.40,-3.61 211.97,-3.91 220.83,-4.44 229.69,-4.97 235.99,-5.19 242.29,-5.41 247.24,-5.71 252.20,-6.01 256.63,-6.13 261.07,-6.25 264.59,-6.51 268.10,-6.77 271.05,-7.08 274.00,-7.40 276.34,-7.53 278.69,-7.67 280.31,-7.82 281.93,-7.97 283.25,-8.10 284.58,-8.23 285.76,-8.11 286.94,-7.99 288.58,-7.72 290.23,-7.44 292.00,-7.10 293.76,-6.76 295.65,-6.58 297.53,-6.40 299.19,-6.37 300.84,-6.33 301.97,-6.39 303.09,-6.44 304.19,-6.50 305.29,-6.56 307.17,-6.68 309.06,-6.79 310.32,-6.81 311.59,-6.84 312.97,-6.64 314.36,-6.44 315.82,-6.41 317.28,-6.38 318.68,-6.35 320.08,-6.31 321.31,-6.31 322.54,-6.32 323.69,-6.33 324.84,-6.34 326.91,-6.15 328.98,-5.95 330.35,-5.36 331.73,-4.78 333.51,-4.25 335.30,-3.73 335.71,-3.52 336.13,-3.31 336.45,-2.97 336.78,-2.64 336.98,-2.22 337.18,-1.81 337.24,-1.34 337.30,-0.88 337.21,-0.43 337.12,0.02 336.88,0.42 336.65,0.82 336.30,1.13 335.95,1.44 335.52,1.62 335.09,1.80 334.63,1.83 334.17,1.86 333.72,1.75 333.27,1.63 332.88,1.38 332.49,1.12 332.20,0.76 331.91,0.39 331.76,-0.04 331.60,-0.48 331.59,-0.94 331.58,-1.40 331.72,-1.85 331.87,-2.29 332.14,-2.67 332.42,-3.04 332.80,-3.31 333.18,-3.58 333.62,-3.71 334.07,-3.84 334.53,-3.82 335.00,-3.81 335.43,-3.64 335.87,-3.48 336.23,-3.18 336.59,-2.89 336.83,-2.49 337.08,-2.10 337.19,-1.65 337.29,-1.19 337.25,-0.73 337.21,-0.27 337.02,0.15 336.83,0.57 336.52,0.92 336.21,1.26 335.80,1.48 335.39,1.71 334.93,1.79 334.48,1.87 334.02,1.81 333.56,1.74 333.56,1.74 333.56,1.74 331.53,1.05 329.51,0.37 328.53,-0.05 327.54,-0.48 326.19,-0.70 324.83,-0.93 323.67,-0.95 322.51,-0.97 321.27,-0.98 320.02,-1.00 317.50,-1.08 314.99,-1.15 313.28,-1.52 311.57,-1.88 310.31,-1.91 309.05,-1.93 307.15,-2.06 305.24,-2.19 304.12,-2.27 303.00,-2.35 301.85,-2.46 300.71,-2.56 298.99,-2.65 297.27,-2.74 295.16,-2.84 293.04,-2.95 291.30,-3.27 289.55,-3.60 287.09,-4.19 284.63,-4.78 283.33,-4.86 282.04,-4.94 280.44,-4.97 278.84,-5.01 276.57,-4.87 274.29,-4.73 271.30,-4.40 268.31,-4.08 264.73,-3.80 261.15,-3.53 256.76,-3.39 252.37,-3.25 247.38,-2.93 242.40,-2.60 236.13,-2.35 229.87,-2.09 220.97,-1.51 212.07,-0.93 202.49,-0.57 192.92,-0.20 183.66,0.11 174.40,0.44 163.48,0.67 152.56,0.90 141.51,1.38 130.46,1.86 128.23,1.47 126.00,1.08 124.41,0.72 122.82,0.35 120.97,0.10 119.12,-0.14 116.56,-0.13 114.01,-0.13 110.45,-0.13 106.89,-0.13 101.96,-0.13 97.03,-0.13 92.31,-0.13 87.60,-0.13 82.91,-0.13 78.21,-0.13 74.05,-0.12 69.90,-0.12 66.02,-0.11 62.14,-0.10 59.41,-0.08 56.68,-0.06 54.19,-0.02 51.69,0.01 48.29,0.10 44.88,0.19 41.21,0.41 37.54,0.63 34.40,0.65 31.27,0.66 27.33,0.69 23.39,0.71 19.55,0.77 15.70,0.82 12.56,0.92 9.42,1.03 6.80,1.27 4.18,1.51 2.09,1.53 0,1.56 -0.18,1.54 -0.37,1.51 -0.55,1.45 -0.72,1.38 -0.88,1.27 -1.03,1.17 -1.16,1.03 -1.28,0.88 -1.37,0.72 -1.46,0.55 -1.50,0.37 -1.55,0.18 -1.55,-0.00 -1.55,-0.18 -1.50,-0.37 -1.46,-0.55 -1.37,-0.72 -1.28,-0.88 -1.16,-1.03 -1.03,-1.17 -0.88,-1.27 -0.72,-1.38 -0.55,-1.45 -0.37,-1.51 -0.18,-1.54 0.00,-1.56 0.00,-1.56 L 0,-1.56 Z"></path></g><g stroke-linecap="round"><g transform="translate(231.92536621540785 430) rotate(0 169.84588283055814 0.6151769730379328)"><path d="M0.53 -0.08 C89.33 0.86, 180.36 1.76, 339.87 1.18 M-0.39 0.58 C121.21 2.2, 243.93 1.87, 340.09 -0.36" stroke="#000000" stroke-width="1" fill="none"></path></g></g><g stroke-linecap="round"><g transform="translate(571.9253662154078 430) rotate(0 0.25797927840153534 49.769466525940175)"><path d="M0.47 -0.07 C0.45 16.63, -0.76 82.72, -0.87 99.44 M-0.74 -1.15 C-0.33 15.78, 1.44 83.55, 1.39 100.69" stroke="#000000" stroke-width="1" fill="none"></path></g></g><g stroke-linecap="round" transform="translate(251.92536621540785 450) rotate(0 150.1435091444887 40.00000000000006)"><path d="M0 0 C0 0, 0 0, 0 0 M0 0 C0 0, 0 0, 0 0 M-0.26 6.4 C0.89 5.07, 2.04 3.75, 4.99 0.36 M-0.26 6.4 C1.2 4.71, 2.67 3.03, 4.99 0.36 M0.13 12.04 C3.88 7.73, 7.63 3.42, 10.63 -0.03 M0.13 12.04 C4.17 7.4, 8.2 2.76, 10.63 -0.03 M-0.13 18.44 C3.75 13.97, 7.64 9.51, 15.62 0.33 M-0.13 18.44 C4.86 12.69, 9.86 6.95, 15.62 0.33 M0.27 24.08 C8 15.19, 15.73 6.29, 21.26 -0.07 M0.27 24.08 C6.77 16.6, 13.27 9.12, 21.26 -0.07 M0 30.48 C5.75 23.87, 11.49 17.26, 26.25 0.29 M0 30.48 C6.48 23.03, 12.95 15.59, 26.25 0.29 M-0.26 36.88 C8.53 26.77, 17.31 16.66, 31.89 -0.1 M-0.26 36.88 C9.47 25.69, 19.2 14.5, 31.89 -0.1 M0.14 42.52 C12.91 27.83, 25.69 13.13, 36.88 0.26 M0.14 42.52 C14.1 26.46, 28.05 10.41, 36.88 0.26 M-0.12 48.92 C15.3 31.18, 30.72 13.44, 42.52 -0.14 M-0.12 48.92 C14.65 31.92, 29.42 14.93, 42.52 -0.14 M0.27 54.56 C14.48 38.22, 28.69 21.87, 47.51 0.22 M0.27 54.56 C13.14 39.75, 26.02 24.94, 47.51 0.22 M0.01 60.96 C20.16 37.78, 40.31 14.6, 53.15 -0.17 M0.01 60.96 C14.3 44.52, 28.6 28.07, 53.15 -0.17 M-0.25 67.36 C11.54 53.79, 23.34 40.22, 58.14 0.19 M-0.25 67.36 C18.67 45.59, 37.6 23.82, 58.14 0.19 M0.14 73 C21.01 48.99, 41.88 24.98, 63.78 -0.21 M0.14 73 C21.88 47.99, 43.62 22.98, 63.78 -0.21 M-0.12 79.4 C15.84 61.04, 31.79 42.69, 68.77 0.15 M-0.12 79.4 C25.91 49.45, 51.94 19.51, 68.77 0.15 M2.9 82.02 C21.94 60.12, 40.98 38.22, 74.41 -0.24 M2.9 82.02 C22.89 59.03, 42.88 36.03, 74.41 -0.24 M7.89 82.38 C24.05 63.79, 40.21 45.2, 79.4 0.12 M7.89 82.38 C30.83 55.99, 53.78 29.59, 79.4 0.12 M13.53 81.99 C35.6 56.6, 57.67 31.21, 85.04 -0.28 M13.53 81.99 C30.8 62.12, 48.07 42.25, 85.04 -0.28 M18.52 82.35 C38.38 59.49, 58.25 36.64, 90.03 0.08 M18.52 82.35 C38.81 59, 59.11 35.65, 90.03 0.08 M24.16 81.95 C40.31 63.37, 56.46 44.8, 95.67 -0.31 M24.16 81.95 C40.63 63.01, 57.1 44.07, 95.67 -0.31 M29.15 82.31 C53.17 54.67, 77.2 27.03, 100.66 0.05 M29.15 82.31 C46.4 62.47, 63.65 42.62, 100.66 0.05 M34.13 82.67 C51.82 62.33, 69.5 41.99, 106.3 -0.34 M34.13 82.67 C55.22 58.42, 76.31 34.16, 106.3 -0.34 M39.78 82.28 C54.49 65.35, 69.2 48.43, 111.29 0.02 M39.78 82.28 C54.9 64.89, 70.01 47.5, 111.29 0.02 M44.76 82.64 C62.6 62.12, 80.44 41.6, 116.27 0.38 M44.76 82.64 C67.46 56.53, 90.16 30.42, 116.27 0.38 M50.41 82.24 C75.32 53.58, 100.24 24.92, 121.92 -0.02 M50.41 82.24 C68.74 61.16, 87.07 40.07, 121.92 -0.02 M55.39 82.6 C82.47 51.46, 109.54 20.31, 126.91 0.34 M55.39 82.6 C72.54 62.88, 89.68 43.16, 126.91 0.34 M61.04 82.21 C81.19 59.03, 101.34 35.85, 132.55 -0.05 M61.04 82.21 C81.19 59.03, 101.34 35.85, 132.55 -0.05 M66.02 82.57 C82.36 63.78, 98.69 44.99, 137.54 0.31 M66.02 82.57 C82.96 63.08, 99.9 43.6, 137.54 0.31 M71.67 82.18 C98.82 50.94, 125.98 19.7, 143.18 -0.09 M71.67 82.18 C88.63 62.66, 105.6 43.14, 143.18 -0.09 M76.65 82.54 C94.59 61.9, 112.52 41.27, 148.17 0.27 M76.65 82.54 C100.27 55.37, 123.88 28.2, 148.17 0.27 M82.3 82.14 C101.78 59.73, 121.26 37.32, 153.81 -0.12 M82.3 82.14 C104.9 56.15, 127.49 30.15, 153.81 -0.12 M87.28 82.5 C112.61 53.37, 137.93 24.24, 158.8 0.24 M87.28 82.5 C114.81 50.84, 142.33 19.17, 158.8 0.24 M92.93 82.11 C110.54 61.84, 128.15 41.58, 164.44 -0.16 M92.93 82.11 C118.32 52.9, 143.71 23.69, 164.44 -0.16 M97.91 82.47 C119.58 57.54, 141.24 32.62, 169.43 0.2 M97.91 82.47 C120.07 56.98, 142.22 31.5, 169.43 0.2 M103.56 82.07 C121.01 62, 138.46 41.92, 175.07 -0.19 M103.56 82.07 C120.38 62.72, 137.19 43.38, 175.07 -0.19 M108.55 82.43 C131.29 56.27, 154.03 30.1, 180.06 0.17 M108.55 82.43 C126.96 61.25, 145.38 40.06, 180.06 0.17 M114.19 82.04 C133.11 60.28, 152.02 38.51, 185.7 -0.23 M114.19 82.04 C134.27 58.93, 154.36 35.83, 185.7 -0.23 M119.18 82.4 C138.95 59.65, 158.72 36.91, 190.69 0.13 M119.18 82.4 C135.23 63.93, 151.28 45.46, 190.69 0.13 M124.82 82 C150.78 52.14, 176.73 22.28, 196.33 -0.26 M124.82 82 C143.44 60.58, 162.06 39.16, 196.33 -0.26 M129.81 82.36 C152.09 56.73, 174.37 31.1, 201.32 0.1 M129.81 82.36 C147.74 61.73, 165.68 41.09, 201.32 0.1 M135.45 81.97 C153.39 61.33, 171.32 40.7, 206.96 -0.3 M135.45 81.97 C163.04 50.23, 190.62 18.5, 206.96 -0.3 M140.44 82.33 C155.66 64.82, 170.88 47.31, 211.95 0.06 M140.44 82.33 C156.2 64.19, 171.96 46.06, 211.95 0.06 M146.08 81.93 C167.23 57.61, 188.37 33.28, 217.59 -0.33 M146.08 81.93 C168.45 56.2, 190.81 30.47, 217.59 -0.33 M151.07 82.29 C167.23 63.69, 183.4 45.09, 222.58 0.03 M151.07 82.29 C169.73 60.83, 188.39 39.36, 222.58 0.03 M156.05 82.65 C179.26 55.95, 202.47 29.25, 228.22 -0.36 M156.05 82.65 C180.65 54.35, 205.25 26.05, 228.22 -0.36 M161.7 82.26 C179.82 61.41, 197.94 40.57, 233.21 0 M161.7 82.26 C186.28 53.98, 210.86 25.7, 233.21 0 M166.68 82.62 C181.6 65.45, 196.52 48.29, 238.19 0.36 M166.68 82.62 C181.94 65.07, 197.2 47.51, 238.19 0.36 M172.33 82.22 C190.42 61.41, 208.52 40.59, 243.84 -0.04 M172.33 82.22 C192.63 58.87, 212.94 35.51, 243.84 -0.04 M177.31 82.58 C198.29 58.46, 219.26 34.33, 248.82 0.32 M177.31 82.58 C200 56.48, 222.69 30.38, 248.82 0.32 M182.96 82.19 C200.09 62.48, 217.22 42.77, 254.47 -0.07 M182.96 82.19 C207.3 54.18, 231.65 26.17, 254.47 -0.07 M187.94 82.55 C214.27 52.26, 240.6 21.98, 259.45 0.29 M187.94 82.55 C208.2 59.24, 228.46 35.94, 259.45 0.29 M193.59 82.16 C213.88 58.81, 234.18 35.46, 265.1 -0.11 M193.59 82.16 C209.03 64.39, 224.47 46.63, 265.1 -0.11 M198.57 82.52 C218.76 59.3, 238.94 36.08, 270.08 0.25 M198.57 82.52 C226.18 50.76, 253.79 19, 270.08 0.25 M204.22 82.12 C226.58 56.39, 248.95 30.66, 275.73 -0.14 M204.22 82.12 C222.57 61, 240.93 39.89, 275.73 -0.14 M209.2 82.48 C233.56 54.46, 257.93 26.43, 280.71 0.22 M209.2 82.48 C233.78 54.21, 258.36 25.94, 280.71 0.22 M214.85 82.09 C237 56.6, 259.15 31.12, 286.36 -0.18 M214.85 82.09 C232.94 61.28, 251.03 40.47, 286.36 -0.18 M219.83 82.45 C241.64 57.37, 263.44 32.28, 291.34 0.18 M219.83 82.45 C242.59 56.26, 265.35 30.08, 291.34 0.18 M225.48 82.05 C247.96 56.19, 270.44 30.33, 296.99 -0.21 M225.48 82.05 C242.54 62.43, 259.6 42.8, 296.99 -0.21 M230.46 82.41 C258.28 50.41, 286.09 18.42, 301.32 0.9 M230.46 82.41 C252.82 56.69, 275.18 30.97, 301.32 0.9 M236.11 82.02 C250.55 65.4, 264.99 48.79, 301.06 7.3 M236.11 82.02 C255.02 60.26, 273.93 38.51, 301.06 7.3 M241.09 82.38 C257.85 63.1, 274.61 43.82, 301.45 12.94 M241.09 82.38 C264.34 55.64, 287.58 28.9, 301.45 12.94 M246.74 81.98 C267.75 57.82, 288.75 33.65, 301.19 19.34 M246.74 81.98 C264.82 61.18, 282.91 40.37, 301.19 19.34 M251.72 82.34 C266.2 65.69, 280.67 49.04, 301.58 24.99 M251.72 82.34 C262.7 69.72, 273.67 57.1, 301.58 24.99 M257.37 81.95 C266.73 71.18, 276.09 60.41, 301.32 31.38 M257.37 81.95 C271.72 65.43, 286.08 48.91, 301.32 31.38 M262.35 82.31 C270.75 72.65, 279.15 62.99, 301.06 37.78 M262.35 82.31 C276.19 66.39, 290.03 50.47, 301.06 37.78 M267.34 82.67 C279.91 68.21, 292.48 53.75, 301.46 43.42 M267.34 82.67 C277.01 71.54, 286.69 60.41, 301.46 43.42 M272.98 82.27 C281.45 72.53, 289.92 62.79, 301.19 49.82 M272.98 82.27 C283.65 70, 294.32 57.72, 301.19 49.82 M277.97 82.63 C286.78 72.5, 295.59 62.36, 301.59 55.46 M277.97 82.63 C284 75.69, 290.04 68.75, 301.59 55.46 M283.61 82.24 C287.85 77.37, 292.08 72.5, 301.33 61.86 M283.61 82.24 C289.05 75.99, 294.48 69.74, 301.33 61.86 M288.6 82.6 C291.14 79.68, 293.68 76.75, 301.07 68.26 M288.6 82.6 C292.82 77.74, 297.05 72.88, 301.07 68.26 M294.24 82.21 C297.05 78.98, 299.85 75.75, 301.46 73.9 M294.24 82.21 C295.77 80.45, 297.29 78.7, 301.46 73.9" stroke="#15aabf" stroke-width="0.5" fill="none"></path><path d="M0 0 C70.54 0, 141.07 0, 300.29 0 M0 0 C68.44 0, 136.88 0, 300.29 0 M300.29 0 C300.29 18.9, 300.29 37.79, 300.29 80 M300.29 0 C300.29 19.92, 300.29 39.85, 300.29 80 M300.29 80 C198.38 80, 96.47 80, 0 80 M300.29 80 C234.89 80, 169.5 80, 0 80 M0 80 C0 49.41, 0 18.83, 0 0 M0 80 C0 58.82, 0 37.65, 0 0" stroke="#000000" stroke-width="1" fill="none"></path></g><g stroke-linecap="round"><g transform="translate(231.92536621540785 430) rotate(0 0.008197638437195565 39.504794312641025)"><path d="M-0.93 -0.35 C0.37 26.96, 1.72 55.47, 0.4 78.56 M0.84 0.7 C1.06 19.39, 0.16 38.43, 0.12 79.36" stroke="#000000" stroke-width="1" fill="none"></path></g></g><g stroke-linecap="round" transform="translate(251 30) rotate(0 150.1435091444887 30.00000000000003)"><path d="M0 0 C0 0, 0 0, 0 0 M0 0 C0 0, 0 0, 0 0 M0.71 11.08 C4.15 10.4, 5.74 5.18, 11.29 -0.14 M0.27 12.55 C3.93 8.31, 8.01 3.13, 10.9 0.68 M1.84 25.35 C6.97 17.09, 12.23 10.19, 19.33 0.57 M0.81 24.27 C6.53 16.73, 14.17 8.63, 20.51 0.11 M-1.95 35.44 C8.23 27.11, 14.24 17.49, 32.74 -0.77 M-1.02 36.94 C7.38 27.73, 15.49 20.09, 32.41 -0.69 M-1.81 50.75 C13.31 34.74, 26.87 17.53, 41.32 -0.43 M-0.66 49.46 C9.98 36.04, 20.88 23.25, 41.56 0.62 M0.18 59.74 C15.19 44.52, 27.1 27.88, 51.97 -0.07 M0.15 60.18 C15.36 42.91, 29.44 26.8, 52.56 -0.38 M10.43 60.88 C25.48 44.77, 40.17 26, 65.66 0.5 M11.51 59.25 C22.51 47.05, 36.1 33.75, 63.26 -0.33 M20.38 58.33 C41.34 38.33, 61.01 16.05, 74.18 -1.51 M22.8 59.5 C36.03 45.38, 48.85 29.08, 74.43 0.26 M32.13 60.02 C47.61 42.03, 63.74 22.9, 84.85 -0.53 M33.11 59.6 C46.12 44.51, 59.42 30.15, 85.38 -0.56 M41.31 60.2 C55.06 46.1, 68.52 29.98, 97.31 0.57 M43.11 59.74 C64.21 37.71, 82.8 14.34, 95.56 0.13 M53.22 59.43 C64.21 47.63, 74.61 34.99, 108.25 -2.28 M53.95 60.75 C64.97 46.71, 76.94 34.8, 106.24 0.55 M62.17 60.84 C79.93 42.83, 94.79 25.14, 115.5 1.7 M63.52 61.51 C79.59 42.03, 97.23 22.67, 115.42 1.32 M76.32 61.89 C85.62 46.91, 99.93 33.91, 125.44 -1.65 M74.18 59.78 C89.34 45.39, 102.54 28.42, 126.1 0.81 M85.02 62.6 C103.13 41.87, 120.07 20.23, 137.75 0.31 M84.97 61.62 C103.38 38.7, 121.45 19.51, 137.98 0.09 M94.94 61.56 C107.96 44.9, 123.4 30.84, 148.84 -0.68 M96.59 60.47 C114.02 40.37, 131.29 18.19, 147.71 0.22 M106.81 59.2 C118.26 49.34, 126.01 35.26, 159.94 2.18 M107.03 61.56 C117.1 47.11, 127.82 34.88, 157.84 -0.58 M116.15 60.99 C129.07 45.02, 144.83 28.55, 169.81 2.01 M117.17 60.28 C131.1 42.91, 146.78 26.86, 168.45 -0.55 M126.04 60.75 C144.52 42.82, 159.76 26.2, 179.51 1.49 M128.45 60.52 C144.11 40.17, 160.37 21.48, 180.8 -0.05 M139.87 59.84 C150.86 46.07, 163.23 29.66, 189.19 0.13 M138.47 61.11 C154.76 39.51, 174.12 19.46, 190.9 0.87 M150.08 62.47 C166.4 38.59, 189.24 16.53, 202.76 1.51 M148.58 60.12 C163.92 42.73, 179.57 25.64, 201.21 0.79 M158.9 58.91 C172.01 43.23, 189.3 25.74, 212.73 0.54 M159.59 61.3 C170.98 47.64, 183.02 33.57, 212.21 -0.7 M171.15 60.73 C185.14 43.44, 202.07 24.85, 220.87 -1.32 M169.31 60.42 C189.65 35.99, 211.29 13.11, 222.02 -0.56 M178.92 60.11 C197.47 40.12, 212.48 21.53, 235.04 -0.78 M180.23 59.64 C193.35 44.93, 206.6 30.06, 234.07 -0.02 M190.38 61 C209.33 40.36, 229.2 18.42, 241.89 -1.48 M191.1 59.91 C210.25 39.93, 228.03 18.06, 244.7 -0.12 M202.49 58.48 C218.57 40.98, 235.53 22.95, 255.62 1.27 M202.61 59.32 C216.52 45.86, 229.83 30.25, 254.76 0.6 M213.76 61.89 C228.87 40.13, 242.28 21.1, 266.74 -0.29 M212.96 59.52 C228.95 41.99, 245.9 21.3, 265.3 0.51 M225.02 62.18 C239.38 41.35, 256.91 23.84, 274.83 0.92 M223.54 60.01 C236.11 46.53, 247.47 32.32, 275.12 -0.74 M232.15 59.11 C256.59 37.75, 275.9 13.44, 285.24 -1.97 M234.49 60.62 C250.67 40.19, 266.43 21.64, 286.45 0.16 M242.83 60.52 C257.06 47.34, 268.61 33.29, 297.91 1.52 M244.38 59.8 C259.52 42.46, 274.33 25.29, 296.54 0.54 M253.3 61.54 C267.65 43.94, 281.51 29.59, 304.77 2.18 M255.82 61.03 C274.36 38.67, 292.25 16.86, 304.04 3.89 M265.09 59.9 C279.92 41.6, 296.44 23.5, 305.19 15.4 M265.07 59.2 C277.59 44.26, 291.88 29.92, 305.21 15.26 M277.81 59.13 C284.58 52.56, 292.95 43.12, 306.47 26.8 M275.67 60.98 C281.95 52.47, 290 45.45, 305.37 28.02 M285.2 60.62 C289.1 57.07, 295.31 53.99, 305.58 41.38 M285.42 59.94 C292.43 53.71, 298.13 47.53, 303.53 40.09 M297.84 60.21 C298.8 59.97, 300.91 57.02, 303.99 51.89 M296.8 60.29 C299.12 57.98, 301.83 55.05, 303.99 52.78 M-0.27 59.76 C-0.27 59.76, -0.27 59.76, -0.27 59.76 M-0.27 59.76 C-0.27 59.76, -0.27 59.76, -0.27 59.76 M13.25 61.53 C7.12 56.56, 4.05 54.79, -1.23 47.72 M12.21 60.93 C7.77 56.43, 3.32 51.37, -1.12 48.78 M26.5 61.6 C13.39 53.43, 6.98 45.2, -2.02 38.9 M24.88 59.21 C17.69 54.76, 11.29 48.34, 0.06 39.19 M35.26 59.79 C28.68 54.27, 18.3 45.26, -1.6 27.18 M36.24 59.29 C24.67 51.13, 14.44 41.53, 0.93 28.86 M46.66 59.62 C36.98 49.22, 30.22 42.27, 1.06 17.42 M48.27 58.9 C32.41 45.87, 16.26 31.68, 0.82 18.65 M59.72 60.17 C37.59 38.21, 13.53 20.36, 0.26 5.75 M61.29 60.43 C47.33 48.22, 34.39 37.52, 0.4 7.6 M75.04 60.29 C49.9 41.27, 32.52 23.55, 2.59 -2.71 M74.32 60.07 C52.55 42.85, 33.33 27.35, 1.59 -2.08 M84.51 59.15 C58.69 36.15, 31.43 14.35, 14.48 -0.71 M85.6 59.56 C71.26 47.92, 56.26 34.37, 14.05 -2.71 M96.56 59.48 C72.33 38.7, 49.46 19.45, 27.81 -3.23 M96.82 60.54 C81.42 43.83, 63.81 30.47, 25.58 -2.37 M109.97 60.15 C93.04 46.54, 79.42 32.39, 39.57 -1.36 M109.72 60.24 C92.48 44.19, 76.06 30.89, 38.72 -1.68 M123.28 60.12 C103.8 43, 84.23 27.56, 51.07 -2.82 M122.41 60.57 C102.26 42.62, 82.58 24.58, 50.8 -1.19 M136.36 58.32 C111.63 43.1, 90.67 22.43, 61.15 -0.79 M133.81 61.09 C110.95 39.32, 89.2 20.02, 62.03 -3.05 M148.12 58.29 C125.74 40.8, 103.46 22.08, 75.99 -1.29 M146.25 60.83 C128.23 44.44, 110.74 28.51, 74.19 -1.34 M157.79 59.34 C133.96 38.43, 107.27 13.91, 86.53 -3.29 M157.59 60.54 C138.19 42.02, 117.32 23.83, 86.96 -2.95 M170.64 61.22 C150.77 42.07, 131.08 23.22, 98.05 -2.75 M169.84 60.48 C150.73 43.36, 133.59 28.04, 100.29 -2.59 M183.5 59.97 C164.7 44.71, 143.94 27.91, 111.88 -0.05 M183.56 59.43 C166.17 45.7, 150.49 31.49, 111.06 -1.05 M194.26 59.88 C172.3 38.37, 147.74 19.34, 122.63 -0.77 M196.22 59.73 C174.4 43.15, 153.27 24.95, 123.18 -2.88 M207.61 62.09 C186.2 41.22, 163.78 23.63, 136 -3.09 M206.81 61.03 C188.69 42.25, 168.97 25.44, 136.2 -2.6 M220.28 59.76 C201.02 44.05, 185.52 32.32, 146.21 -1.85 M220.01 60.61 C196.89 39.32, 173.18 19.28, 147.74 -1.74 M230.85 58.73 C202.86 37.54, 178.06 13.31, 161.57 -0.68 M230.74 59.1 C204.29 35.79, 176.26 11.26, 159.81 -1.74 M245.14 61.42 C214.58 35.55, 187.85 8.75, 174.16 -3.34 M242.63 59.55 C227.35 46.17, 212.8 31.02, 173.45 -2.27 M257.84 58.71 C228.26 38.62, 203.54 15.78, 185.14 -2.59 M256.31 60.44 C240.63 48.41, 226.69 35.04, 184.87 -2.84 M270.14 58.57 C244.65 40.8, 222.86 20.67, 198.47 -3.47 M268.08 59.42 C248.9 44.68, 229.28 26.78, 196.07 -3.1 M279.07 61.29 C259.62 42.08, 244.24 24.29, 210.4 -3.49 M280.03 59.66 C252.69 34.08, 225.01 9.43, 209.19 -1.82 M291.2 60.06 C269.93 38.26, 246.37 19.07, 223 -0.68 M292.66 59.56 C264.67 35.65, 236.63 12.33, 220.93 -1.81 M301.9 58.91 C285.34 45.69, 270.85 28.33, 233.89 -0.95 M302.98 57.84 C286.17 43.39, 269.44 29.82, 233.13 -2.2 M301.04 45.36 C290.83 37.76, 279.87 25.04, 245.5 -2.94 M303.14 47.25 C281.64 29.37, 259.66 9.93, 244.92 -2.14 M300.43 37.35 C292.7 28.04, 283.02 18.42, 258.79 -1.36 M302.67 36.71 C289.8 25.24, 275.55 13.11, 257.36 -3.01 M303.36 26.84 C295.05 19.91, 285.93 12.71, 270.82 -3.11 M302.97 25.96 C295.3 19.67, 286.97 12.39, 269.77 -1.44 M303.17 15.62 C297.9 10.94, 291.37 3.71, 284.16 -3.36 M302.71 14.54 C294.67 9.52, 288.49 2.54, 282.14 -2.23 M303.06 5.58 C299.38 2.56, 297.26 -0.02, 293.63 -1.45 M301.78 4.38 C300.28 2.83, 298.25 1.41, 294.13 -2.3" stroke="#7950f2" stroke-width="1" fill="none"></path><path d="M0.98 1.35 C69.16 1.18, 137.05 1.81, 298.97 -0.78 M-0.07 -0.28 C70.88 -1.52, 141.98 -1.39, 300.65 0.3 M300.62 -1.42 C302.33 24.56, 302.32 46.46, 299.02 60.33 M300.87 -0.56 C299.85 14.04, 300.73 29.09, 299.31 59.76 M299.15 60.36 C224.05 58.63, 149.29 60.34, -1.41 61.14 M300.36 59.52 C200.96 59.38, 101.43 60.64, -0.48 60.07 M1.52 60.88 C-1.38 45.61, 0.08 27.25, -1.45 -1.71 M0.9 59.13 C-0.74 42.02, -0.08 22.26, 0.47 0.21" stroke="#000000" stroke-width="2" fill="none"></path></g><g stroke-linecap="round" transform="translate(251 318) rotate(0 130 9.91306365966409)"><path d="M0 0 C0 0, 0 0, 0 0 M0 0 C0 0, 0 0, 0 0 M-0.26 6.4 C0.93 5.03, 2.12 3.66, 4.99 0.36 M-0.26 6.4 C0.89 5.07, 2.04 3.75, 4.99 0.36 M0.13 12.04 C3.39 8.29, 6.65 4.54, 10.63 -0.03 M0.13 12.04 C3.75 7.88, 7.37 3.71, 10.63 -0.03 M-0.13 18.44 C5.13 12.39, 10.39 6.34, 15.62 0.33 M-0.13 18.44 C3.88 13.82, 7.9 9.21, 15.62 0.33 M2.23 21.82 C9.03 14, 15.83 6.18, 21.26 -0.07 M2.23 21.82 C6.13 17.34, 10.02 12.86, 21.26 -0.07 M7.88 21.42 C13.74 14.68, 19.6 7.94, 26.25 0.29 M7.88 21.42 C11.61 17.13, 15.33 12.85, 26.25 0.29 M12.86 21.78 C18.06 15.81, 23.25 9.84, 31.89 -0.1 M12.86 21.78 C19.99 13.59, 27.11 5.4, 31.89 -0.1 M17.85 22.14 C22.13 17.22, 26.42 12.29, 36.88 0.26 M17.85 22.14 C23.97 15.1, 30.1 8.06, 36.88 0.26 M23.49 21.75 C30.58 13.6, 37.66 5.45, 42.52 -0.14 M23.49 21.75 C29.01 15.41, 34.52 9.06, 42.52 -0.14 M28.48 22.11 C34.93 14.69, 41.38 7.27, 47.51 0.22 M28.48 22.11 C34.68 14.97, 40.89 7.84, 47.51 0.22 M34.12 21.71 C38.21 17.01, 42.3 12.31, 53.15 -0.17 M34.12 21.71 C38.77 16.37, 43.41 11.03, 53.15 -0.17 M39.11 22.07 C46.56 13.5, 54.02 4.93, 58.14 0.19 M39.11 22.07 C46.46 13.62, 53.81 5.16, 58.14 0.19 M44.75 21.68 C48.61 17.25, 52.46 12.81, 63.78 -0.21 M44.75 21.68 C52.1 13.23, 59.44 4.79, 63.78 -0.21 M49.74 22.04 C56.55 14.21, 63.35 6.38, 68.77 0.15 M49.74 22.04 C56.02 14.82, 62.29 7.6, 68.77 0.15 M55.38 21.65 C62.66 13.28, 69.94 4.91, 74.41 -0.24 M55.38 21.65 C61.49 14.63, 67.59 7.61, 74.41 -0.24 M60.37 22.01 C65.22 16.42, 70.08 10.84, 79.4 0.12 M60.37 22.01 C64.93 16.76, 69.5 11.51, 79.4 0.12 M66.02 21.61 C70.66 16.27, 75.31 10.92, 85.04 -0.28 M66.02 21.61 C71.9 14.84, 77.79 8.06, 85.04 -0.28 M71 21.97 C77.58 14.4, 84.17 6.83, 90.03 0.08 M71 21.97 C75.87 16.37, 80.73 10.77, 90.03 0.08 M76.65 21.58 C82.77 14.53, 88.89 7.48, 95.67 -0.31 M76.65 21.58 C81.79 15.66, 86.93 9.74, 95.67 -0.31 M81.63 21.94 C88.03 14.58, 94.42 7.22, 100.66 0.05 M81.63 21.94 C88.74 13.76, 95.85 5.58, 100.66 0.05 M87.28 21.54 C94.76 12.94, 102.24 4.33, 106.3 -0.34 M87.28 21.54 C94.45 13.29, 101.62 5.04, 106.3 -0.34 M92.26 21.9 C99.4 13.69, 106.54 5.48, 111.29 0.02 M92.26 21.9 C96.93 16.53, 101.6 11.16, 111.29 0.02 M97.91 21.51 C103.04 15.6, 108.17 9.7, 116.27 0.38 M97.91 21.51 C102.67 16.02, 107.44 10.54, 116.27 0.38 M102.89 21.87 C107.77 16.26, 112.64 10.65, 121.92 -0.02 M102.89 21.87 C110.11 13.57, 117.32 5.27, 121.92 -0.02 M108.54 21.47 C113.05 16.28, 117.56 11.09, 126.91 0.34 M108.54 21.47 C112.29 17.15, 116.05 12.82, 126.91 0.34 M113.52 21.83 C117.64 17.1, 121.75 12.37, 132.55 -0.05 M113.52 21.83 C119.99 14.39, 126.45 6.96, 132.55 -0.05 M119.17 21.44 C122.86 17.19, 126.55 12.94, 137.54 0.31 M119.17 21.44 C125.68 13.94, 132.2 6.44, 137.54 0.31 M124.15 21.8 C130.55 14.44, 136.94 7.09, 143.18 -0.09 M124.15 21.8 C130.77 14.18, 137.4 6.56, 143.18 -0.09 M129.14 22.16 C134.81 15.64, 140.47 9.12, 148.17 0.27 M129.14 22.16 C135.02 15.39, 140.9 8.63, 148.17 0.27 M134.78 21.76 C141.26 14.32, 147.73 6.87, 153.81 -0.12 M134.78 21.76 C140.13 15.62, 145.47 9.47, 153.81 -0.12 M139.77 22.12 C146.1 14.84, 152.43 7.56, 158.8 0.24 M139.77 22.12 C145.9 15.07, 152.04 8.01, 158.8 0.24 M145.41 21.73 C152.97 13.04, 160.52 4.35, 164.44 -0.16 M145.41 21.73 C150.58 15.79, 155.74 9.85, 164.44 -0.16 M150.4 22.09 C156.98 14.52, 163.55 6.96, 169.43 0.2 M150.4 22.09 C156.23 15.38, 162.06 8.67, 169.43 0.2 M156.04 21.69 C162.1 14.73, 168.16 7.76, 175.07 -0.19 M156.04 21.69 C161.93 14.92, 167.82 8.15, 175.07 -0.19 M161.03 22.05 C165.23 17.23, 169.42 12.4, 180.06 0.17 M161.03 22.05 C165.38 17.05, 169.74 12.04, 180.06 0.17 M166.67 21.66 C173.53 13.78, 180.38 5.89, 185.7 -0.23 M166.67 21.66 C171.26 16.39, 175.84 11.12, 185.7 -0.23 M171.66 22.02 C177.09 15.78, 182.51 9.53, 190.69 0.13 M171.66 22.02 C177.62 15.16, 183.58 8.3, 190.69 0.13 M177.3 21.63 C181.52 16.77, 185.74 11.92, 196.33 -0.26 M177.3 21.63 C184.29 13.58, 191.29 5.54, 196.33 -0.26 M182.29 21.99 C188.21 15.18, 194.12 8.38, 201.32 0.1 M182.29 21.99 C186.86 16.73, 191.44 11.46, 201.32 0.1 M187.93 21.59 C192.62 16.2, 197.31 10.8, 206.96 -0.3 M187.93 21.59 C192.65 16.17, 197.36 10.75, 206.96 -0.3 M192.92 21.95 C198.87 15.11, 204.82 8.26, 211.95 0.06 M192.92 21.95 C199.51 14.37, 206.09 6.8, 211.95 0.06 M198.56 21.56 C202.78 16.71, 206.99 11.87, 217.59 -0.33 M198.56 21.56 C204.2 15.08, 209.83 8.6, 217.59 -0.33 M203.55 21.92 C210.2 14.27, 216.85 6.61, 222.58 0.03 M203.55 21.92 C207.8 17.03, 212.05 12.13, 222.58 0.03 M209.19 21.52 C216.37 13.27, 223.55 5.01, 228.22 -0.36 M209.19 21.52 C216.49 13.13, 223.78 4.74, 228.22 -0.36 M214.18 21.88 C220.35 14.79, 226.52 7.69, 233.21 0 M214.18 21.88 C220.29 14.85, 226.4 7.82, 233.21 0 M219.82 21.49 C226.96 13.28, 234.09 5.07, 238.19 0.36 M219.82 21.49 C224.17 16.49, 228.52 11.49, 238.19 0.36 M224.81 21.85 C232.09 13.47, 239.38 5.09, 243.84 -0.04 M224.81 21.85 C231.37 14.3, 237.92 6.76, 243.84 -0.04 M230.45 21.45 C237.31 13.56, 244.17 5.68, 248.82 0.32 M230.45 21.45 C234.85 16.4, 239.24 11.34, 248.82 0.32 M235.44 21.81 C241.45 14.9, 247.45 7.99, 254.47 -0.07 M235.44 21.81 C240.29 16.23, 245.15 10.65, 254.47 -0.07 M241.08 21.42 C246.48 15.21, 251.88 9, 259.45 0.29 M241.08 21.42 C245.32 16.55, 249.56 11.67, 259.45 0.29 M246.07 21.78 C252.16 14.78, 258.24 7.78, 263.13 2.16 M246.07 21.78 C250.68 16.48, 255.29 11.18, 263.13 2.16 M251.06 22.14 C255.26 17.3, 259.46 12.47, 262.87 8.55 M251.06 22.14 C254.68 17.97, 258.3 13.81, 262.87 8.55 M256.7 21.74 C258.96 19.14, 261.23 16.54, 262.61 14.95 M256.7 21.74 C258.26 19.95, 259.82 18.16, 262.61 14.95 M-0.01 19.82 C-0.01 19.82, -0.01 19.82, -0.01 19.82 M-0.01 19.82 C-0.01 19.82, -0.01 19.82, -0.01 19.82 M6.39 20.08 C4.48 18.42, 2.56 16.75, 0.35 14.83 M6.39 20.08 C4.18 18.16, 1.97 16.24, 0.35 14.83 M12.04 19.69 C7.86 16.05, 3.68 12.42, -0.04 9.19 M12.04 19.69 C7.48 15.73, 2.93 11.77, -0.04 9.19 M18.43 19.95 C12.58 14.86, 6.72 9.77, 0.32 4.2 M18.43 19.95 C11.83 14.21, 5.23 8.48, 0.32 4.2 M24.08 19.56 C16.95 13.36, 9.82 7.16, 0.68 -0.78 M24.08 19.56 C18.36 14.58, 12.64 9.61, 0.68 -0.78 M30.47 19.82 C25.55 15.53, 20.62 11.25, 7.08 -0.52 M30.47 19.82 C23.45 13.71, 16.43 7.61, 7.08 -0.52 M36.87 20.08 C30.47 14.51, 24.07 8.95, 12.72 -0.92 M36.87 20.08 C28.61 12.9, 20.35 5.71, 12.72 -0.92 M42.51 19.68 C37.09 14.97, 31.67 10.26, 19.12 -0.65 M42.51 19.68 C36.14 14.14, 29.76 8.59, 19.12 -0.65 M48.91 19.94 C42.83 14.65, 36.74 9.36, 24.76 -1.05 M48.91 19.94 C42.94 14.76, 36.97 9.57, 24.76 -1.05 M54.56 19.55 C47.94 13.8, 41.32 8.04, 31.16 -0.79 M54.56 19.55 C49 14.73, 43.45 9.9, 31.16 -0.79 M60.95 19.81 C53.14 13.02, 45.33 6.23, 37.56 -0.53 M60.95 19.81 C51.76 11.82, 42.57 3.83, 37.56 -0.53 M67.35 20.07 C60 13.68, 52.65 7.29, 43.2 -0.92 M67.35 20.07 C62.39 15.76, 57.44 11.45, 43.2 -0.92 M72.99 19.68 C67.79 15.16, 62.59 10.63, 49.6 -0.66 M72.99 19.68 C66.7 14.21, 60.41 8.74, 49.6 -0.66 M79.39 19.94 C72.63 14.06, 65.86 8.17, 55.24 -1.05 M79.39 19.94 C73.49 14.81, 67.58 9.68, 55.24 -1.05 M85.04 19.55 C78.64 13.98, 72.24 8.42, 61.64 -0.79 M85.04 19.55 C79.87 15.05, 74.69 10.56, 61.64 -0.79 M91.43 19.81 C85.87 14.97, 80.31 10.14, 68.04 -0.53 M91.43 19.81 C84.91 14.14, 78.39 8.47, 68.04 -0.53 M97.83 20.07 C90.91 14.05, 83.99 8.03, 73.68 -0.93 M97.83 20.07 C91.77 14.8, 85.7 9.52, 73.68 -0.93 M103.47 19.67 C97.66 14.62, 91.84 9.56, 80.08 -0.66 M103.47 19.67 C96.73 13.81, 89.99 7.96, 80.08 -0.66 M109.87 19.94 C102.5 13.53, 95.14 7.13, 85.72 -1.06 M109.87 19.94 C104.61 15.36, 99.36 10.79, 85.72 -1.06 M115.51 19.54 C110.19 14.91, 104.86 10.28, 92.12 -0.8 M115.51 19.54 C108.28 13.25, 101.05 6.96, 92.12 -0.8 M121.91 19.8 C116.86 15.41, 111.81 11.02, 98.52 -0.54 M121.91 19.8 C116.41 15.02, 110.91 10.23, 98.52 -0.54 M128.31 20.06 C120.24 13.05, 112.17 6.04, 104.16 -0.93 M128.31 20.06 C122.65 15.14, 116.98 10.21, 104.16 -0.93 M133.95 19.67 C125.77 12.56, 117.59 5.44, 110.56 -0.67 M133.95 19.67 C127.53 14.09, 121.11 8.5, 110.56 -0.67 M140.35 19.93 C131.41 12.15, 122.46 4.38, 116.2 -1.06 M140.35 19.93 C135.2 15.45, 130.05 10.98, 116.2 -1.06 M145.99 19.54 C139.41 13.82, 132.83 8.1, 122.6 -0.8 M145.99 19.54 C137.51 12.16, 129.03 4.79, 122.6 -0.8 M152.39 19.8 C143.43 12.01, 134.47 4.22, 129 -0.54 M152.39 19.8 C146.54 14.71, 140.68 9.62, 129 -0.54 M158.79 20.06 C153.27 15.26, 147.75 10.46, 134.64 -0.94 M158.79 20.06 C149.55 12.02, 140.3 3.99, 134.64 -0.94 M164.43 19.66 C158.31 14.34, 152.18 9.01, 141.04 -0.67 M164.43 19.66 C159.59 15.45, 154.74 11.24, 141.04 -0.67 M170.83 19.93 C164.7 14.6, 158.57 9.27, 146.68 -1.07 M170.83 19.93 C164.2 14.16, 157.57 8.4, 146.68 -1.07 M176.47 19.53 C168.49 12.59, 160.51 5.66, 153.08 -0.81 M176.47 19.53 C171.76 15.43, 167.04 11.33, 153.08 -0.81 M182.87 19.79 C176.72 14.45, 170.58 9.1, 159.48 -0.55 M182.87 19.79 C177.4 15.04, 171.93 10.28, 159.48 -0.55 M189.27 20.05 C179.65 11.69, 170.03 3.33, 165.12 -0.94 M189.27 20.05 C184.26 15.7, 179.24 11.34, 165.12 -0.94 M194.91 19.66 C190.12 15.49, 185.33 11.33, 171.52 -0.68 M194.91 19.66 C187.6 13.3, 180.28 6.94, 171.52 -0.68 M201.31 19.92 C195.16 14.57, 189.01 9.22, 177.16 -1.07 M201.31 19.92 C195.15 14.57, 188.99 9.21, 177.16 -1.07 M206.95 19.53 C200.56 13.97, 194.17 8.41, 183.56 -0.81 M206.95 19.53 C201.82 15.07, 196.69 10.61, 183.56 -0.81 M213.35 19.79 C204.56 12.15, 195.77 4.51, 189.96 -0.55 M213.35 19.79 C207.95 15.1, 202.56 10.41, 189.96 -0.55 M219.75 20.05 C212.38 13.64, 205.01 7.24, 195.6 -0.94 M219.75 20.05 C212.06 13.37, 204.38 6.69, 195.6 -0.94 M225.39 19.65 C219.08 14.16, 212.76 8.67, 202 -0.68 M225.39 19.65 C218.91 14.02, 212.43 8.39, 202 -0.68 M231.79 19.92 C222.58 11.91, 213.38 3.91, 207.64 -1.08 M231.79 19.92 C226.23 15.08, 220.66 10.24, 207.64 -1.08 M237.43 19.52 C230.64 13.62, 223.85 7.72, 214.04 -0.82 M237.43 19.52 C228.24 11.53, 219.05 3.54, 214.04 -0.82 M243.83 19.78 C238.54 15.19, 233.26 10.59, 220.43 -0.56 M243.83 19.78 C238.39 15.05, 232.94 10.32, 220.43 -0.56 M250.23 20.04 C244.61 15.16, 238.98 10.27, 226.08 -0.95 M250.23 20.04 C244.58 15.14, 238.94 10.23, 226.08 -0.95 M255.87 19.65 C251.01 15.43, 246.15 11.2, 232.48 -0.69 M255.87 19.65 C249.82 14.39, 243.77 9.13, 232.48 -0.69 M260.76 18.6 C253.11 11.95, 245.46 5.3, 238.12 -1.08 M260.76 18.6 C253.72 12.48, 246.69 6.37, 238.12 -1.08 M261.12 13.61 C255.5 8.73, 249.88 3.84, 244.52 -0.82 M261.12 13.61 C256.18 9.32, 251.24 5.02, 244.52 -0.82 M260.73 7.97 C257.89 5.5, 255.05 3.03, 250.91 -0.56 M260.73 7.97 C256.88 4.63, 253.04 1.29, 250.91 -0.56 M261.09 2.98 C259.85 1.9, 258.61 0.83, 256.56 -0.95 M261.09 2.98 C259.3 1.43, 257.51 -0.13, 256.56 -0.95" stroke="#fab005" stroke-width="0.5" fill="none"></path><path d="M0 0 C75.02 0, 150.05 0, 260 0 M0 0 C78.53 0, 157.06 0, 260 0 M260 0 C260 5.76, 260 11.52, 260 19.83 M260 0 C260 6.61, 260 13.23, 260 19.83 M260 19.83 C160.68 19.83, 61.35 19.83, 0 19.83 M260 19.83 C184.8 19.83, 109.6 19.83, 0 19.83 M0 19.83 C0 11.95, 0 4.07, 0 0 M0 19.83 C0 14, 0 8.16, 0 0" stroke="#000000" stroke-width="1" fill="none"></path></g><g stroke-linecap="round" transform="translate(251 290) rotate(0 149.5 9.91306365966409)"><path d="M0 0 C0 0, 0 0, 0 0 M0 0 C0 0, 0 0, 0 0 M-0.26 6.4 C0.79 5.19, 1.84 3.98, 4.99 0.36 M-0.26 6.4 C1.56 4.3, 3.38 2.2, 4.99 0.36 M0.13 12.04 C3.28 8.42, 6.44 4.79, 10.63 -0.03 M0.13 12.04 C3.05 8.68, 5.98 5.32, 10.63 -0.03 M-0.13 18.44 C3.85 13.86, 7.83 9.29, 15.62 0.33 M-0.13 18.44 C4.51 13.1, 9.14 7.77, 15.62 0.33 M2.23 21.82 C9.79 13.12, 17.35 4.43, 21.26 -0.07 M2.23 21.82 C6.38 17.04, 10.53 12.27, 21.26 -0.07 M7.88 21.42 C15.05 13.18, 22.21 4.93, 26.25 0.29 M7.88 21.42 C12 16.68, 16.12 11.94, 26.25 0.29 M12.86 21.78 C19.83 13.77, 26.79 5.77, 31.89 -0.1 M12.86 21.78 C18.16 15.69, 23.47 9.59, 31.89 -0.1 M17.85 22.14 C23.55 15.58, 29.26 9.02, 36.88 0.26 M17.85 22.14 C24.97 13.96, 32.08 5.78, 36.88 0.26 M23.49 21.75 C30.55 13.64, 37.6 5.53, 42.52 -0.14 M23.49 21.75 C30.51 13.68, 37.52 5.61, 42.52 -0.14 M28.48 22.11 C34.64 15.03, 40.8 7.94, 47.51 0.22 M28.48 22.11 C32.74 17.21, 37 12.31, 47.51 0.22 M34.12 21.71 C38.54 16.63, 42.96 11.55, 53.15 -0.17 M34.12 21.71 C38.71 16.44, 43.29 11.17, 53.15 -0.17 M39.11 22.07 C44.08 16.36, 49.04 10.65, 58.14 0.19 M39.11 22.07 C44.8 15.53, 50.48 8.99, 58.14 0.19 M44.75 21.68 C49.09 16.69, 53.43 11.7, 63.78 -0.21 M44.75 21.68 C50.31 15.29, 55.86 8.9, 63.78 -0.21 M49.74 22.04 C56.72 14.01, 63.7 5.98, 68.77 0.15 M49.74 22.04 C56.72 14.01, 63.71 5.97, 68.77 0.15 M55.38 21.65 C60.92 15.28, 66.45 8.92, 74.41 -0.24 M55.38 21.65 C62.26 13.73, 69.14 5.82, 74.41 -0.24 M60.37 22.01 C67.09 14.28, 73.8 6.56, 79.4 0.12 M60.37 22.01 C64.95 16.74, 69.52 11.48, 79.4 0.12 M66.02 21.61 C70.02 17.01, 74.02 12.4, 85.04 -0.28 M66.02 21.61 C72.37 14.3, 78.72 7, 85.04 -0.28 M71 21.97 C78.36 13.51, 85.71 5.05, 90.03 0.08 M71 21.97 C78.13 13.77, 85.26 5.57, 90.03 0.08 M76.65 21.58 C81.07 16.48, 85.5 11.39, 95.67 -0.31 M76.65 21.58 C83.04 14.21, 89.44 6.85, 95.67 -0.31 M81.63 21.94 C87.18 15.55, 92.73 9.17, 100.66 0.05 M81.63 21.94 C86.76 16.04, 91.89 10.13, 100.66 0.05 M87.28 21.54 C92.22 15.86, 97.16 10.18, 106.3 -0.34 M87.28 21.54 C93.76 14.09, 100.24 6.63, 106.3 -0.34 M92.26 21.9 C98.9 14.27, 105.53 6.64, 111.29 0.02 M92.26 21.9 C97.37 16.03, 102.47 10.16, 111.29 0.02 M97.91 21.51 C102.49 16.23, 107.07 10.96, 116.27 0.38 M97.91 21.51 C104.55 13.87, 111.19 6.22, 116.27 0.38 M102.89 21.87 C108.48 15.43, 114.08 9, 121.92 -0.02 M102.89 21.87 C109.7 14.04, 116.5 6.21, 121.92 -0.02 M108.54 21.47 C112.52 16.89, 116.51 12.3, 126.91 0.34 M108.54 21.47 C113.28 16.01, 118.03 10.56, 126.91 0.34 M113.52 21.83 C119.61 14.83, 125.7 7.82, 132.55 -0.05 M113.52 21.83 C120.53 13.77, 127.55 5.7, 132.55 -0.05 M119.17 21.44 C123.44 16.52, 127.72 11.6, 137.54 0.31 M119.17 21.44 C125.29 14.39, 131.41 7.35, 137.54 0.31 M124.15 21.8 C129.4 15.76, 134.65 9.72, 143.18 -0.09 M124.15 21.8 C131.3 13.58, 138.44 5.36, 143.18 -0.09 M129.14 22.16 C133.4 17.26, 137.66 12.36, 148.17 0.27 M129.14 22.16 C135.48 14.87, 141.81 7.58, 148.17 0.27 M134.78 21.76 C139.86 15.92, 144.94 10.08, 153.81 -0.12 M134.78 21.76 C140.43 15.27, 146.08 8.77, 153.81 -0.12 M139.77 22.12 C146.88 13.94, 153.99 5.77, 158.8 0.24 M139.77 22.12 C144.48 16.7, 149.19 11.28, 158.8 0.24 M145.41 21.73 C150.25 16.17, 155.08 10.6, 164.44 -0.16 M145.41 21.73 C151.01 15.29, 156.61 8.84, 164.44 -0.16 M150.4 22.09 C156.52 15.05, 162.64 8.01, 169.43 0.2 M150.4 22.09 C156.32 15.28, 162.23 8.48, 169.43 0.2 M156.04 21.69 C160.91 16.1, 165.77 10.51, 175.07 -0.19 M156.04 21.69 C163.16 13.51, 170.27 5.32, 175.07 -0.19 M161.03 22.05 C167.95 14.09, 174.87 6.13, 180.06 0.17 M161.03 22.05 C164.85 17.66, 168.66 13.27, 180.06 0.17 M166.67 21.66 C173.24 14.11, 179.8 6.56, 185.7 -0.23 M166.67 21.66 C174 13.23, 181.33 4.8, 185.7 -0.23 M171.66 22.02 C176.45 16.51, 181.24 11, 190.69 0.13 M171.66 22.02 C176.19 16.81, 180.72 11.6, 190.69 0.13 M177.3 21.63 C182.11 16.1, 186.92 10.57, 196.33 -0.26 M177.3 21.63 C181.51 16.78, 185.73 11.94, 196.33 -0.26 M182.29 21.99 C189.79 13.36, 197.29 4.73, 201.32 0.1 M182.29 21.99 C189.68 13.49, 197.07 4.99, 201.32 0.1 M187.93 21.59 C194.87 13.61, 201.82 5.62, 206.96 -0.3 M187.93 21.59 C192.11 16.79, 196.28 11.99, 206.96 -0.3 M192.92 21.95 C197.79 16.35, 202.65 10.76, 211.95 0.06 M192.92 21.95 C197.87 16.25, 202.83 10.55, 211.95 0.06 M198.56 21.56 C204.73 14.46, 210.91 7.36, 217.59 -0.33 M198.56 21.56 C205.41 13.68, 212.26 5.8, 217.59 -0.33 M203.55 21.92 C210.34 14.11, 217.13 6.3, 222.58 0.03 M203.55 21.92 C209.39 15.2, 215.23 8.48, 222.58 0.03 M209.19 21.52 C213.57 16.49, 217.95 11.45, 228.22 -0.36 M209.19 21.52 C214.29 15.66, 219.38 9.8, 228.22 -0.36 M214.18 21.88 C219.41 15.87, 224.63 9.86, 233.21 0 M214.18 21.88 C218.45 16.98, 222.71 12.07, 233.21 0 M219.82 21.49 C224.18 16.47, 228.54 11.46, 238.19 0.36 M219.82 21.49 C223.7 17.03, 227.57 12.58, 238.19 0.36 M224.81 21.85 C229.43 16.54, 234.04 11.22, 243.84 -0.04 M224.81 21.85 C231.51 14.14, 238.22 6.42, 243.84 -0.04 M230.45 21.45 C237.01 13.91, 243.58 6.36, 248.82 0.32 M230.45 21.45 C235.99 15.09, 241.53 8.72, 248.82 0.32 M235.44 21.81 C242.1 14.15, 248.77 6.48, 254.47 -0.07 M235.44 21.81 C240.68 15.79, 245.92 9.76, 254.47 -0.07 M241.08 21.42 C245.82 15.97, 250.55 10.53, 259.45 0.29 M241.08 21.42 C246.5 15.18, 251.92 8.95, 259.45 0.29 M246.07 21.78 C252.6 14.27, 259.13 6.75, 265.1 -0.11 M246.07 21.78 C250.27 16.94, 254.48 12.11, 265.1 -0.11 M251.06 22.14 C256.05 16.39, 261.05 10.65, 270.08 0.25 M251.06 22.14 C258.51 13.57, 265.95 5, 270.08 0.25 M256.7 21.74 C260.96 16.85, 265.22 11.95, 275.73 -0.14 M256.7 21.74 C261.65 16.05, 266.61 10.35, 275.73 -0.14 M261.69 22.1 C268.38 14.4, 275.08 6.7, 280.71 0.22 M261.69 22.1 C266.14 16.99, 270.58 11.87, 280.71 0.22 M267.33 21.71 C272.09 16.24, 276.85 10.76, 286.36 -0.18 M267.33 21.71 C273.2 14.95, 279.07 8.2, 286.36 -0.18 M272.32 22.07 C279.21 14.14, 286.11 6.21, 291.34 0.18 M272.32 22.07 C278.2 15.3, 284.08 8.54, 291.34 0.18 M277.96 21.68 C284.37 14.31, 290.77 6.94, 296.99 -0.21 M277.96 21.68 C284.14 14.57, 290.32 7.46, 296.99 -0.21 M282.95 22.04 C289.8 14.16, 296.64 6.28, 300.66 1.66 M282.95 22.04 C289.11 14.94, 295.28 7.85, 300.66 1.66 M288.59 21.64 C291.76 17.99, 294.93 14.34, 301.06 7.3 M288.59 21.64 C292.47 17.17, 296.36 12.71, 301.06 7.3 M293.58 22 C296.27 18.9, 298.97 15.8, 300.79 13.7 M293.58 22 C295.93 19.3, 298.27 16.6, 300.79 13.7 M-0.01 19.82 C-0.01 19.82, -0.01 19.82, -0.01 19.82 M-0.01 19.82 C-0.01 19.82, -0.01 19.82, -0.01 19.82 M6.39 20.08 C4.41 18.36, 2.43 16.64, 0.35 14.83 M6.39 20.08 C4.83 18.72, 3.26 17.36, 0.35 14.83 M12.04 19.69 C7.84 16.04, 3.64 12.39, -0.04 9.19 M12.04 19.69 C9.31 17.32, 6.58 14.95, -0.04 9.19 M18.43 19.95 C12.79 15.04, 7.14 10.13, 0.32 4.2 M18.43 19.95 C14.6 16.62, 10.78 13.29, 0.32 4.2 M24.08 19.56 C15.98 12.52, 7.88 5.48, 0.68 -0.78 M24.08 19.56 C15.25 11.88, 6.42 4.21, 0.68 -0.78 M30.47 19.82 C24.8 14.88, 19.12 9.95, 7.08 -0.52 M30.47 19.82 C23.74 13.96, 17 8.11, 7.08 -0.52 M36.87 20.08 C31.52 15.43, 26.18 10.78, 12.72 -0.92 M36.87 20.08 C28.48 12.78, 20.09 5.49, 12.72 -0.92 M42.51 19.68 C35.63 13.7, 28.75 7.72, 19.12 -0.65 M42.51 19.68 C36.94 14.84, 31.37 9.99, 19.12 -0.65 M48.91 19.94 C43.47 15.21, 38.02 10.47, 24.76 -1.05 M48.91 19.94 C40.28 12.44, 31.64 4.93, 24.76 -1.05 M54.56 19.55 C47.62 13.52, 40.67 7.48, 31.16 -0.79 M54.56 19.55 C48.58 14.35, 42.6 9.16, 31.16 -0.79 M60.95 19.81 C54.71 14.38, 48.47 8.96, 37.56 -0.53 M60.95 19.81 C54.58 14.27, 48.2 8.72, 37.56 -0.53 M67.35 20.07 C59.22 13.01, 51.09 5.94, 43.2 -0.92 M67.35 20.07 C58.25 12.16, 49.15 4.25, 43.2 -0.92 M72.99 19.68 C65.74 13.38, 58.49 7.07, 49.6 -0.66 M72.99 19.68 C68.28 15.58, 63.56 11.47, 49.6 -0.66 M79.39 19.94 C70.78 12.45, 62.16 4.96, 55.24 -1.05 M79.39 19.94 C72.56 14, 65.72 8.05, 55.24 -1.05 M85.04 19.55 C76.25 11.91, 67.46 4.27, 61.64 -0.79 M85.04 19.55 C78.08 13.5, 71.12 7.45, 61.64 -0.79 M91.43 19.81 C83.11 12.57, 74.78 5.33, 68.04 -0.53 M91.43 19.81 C84.45 13.73, 77.46 7.66, 68.04 -0.53 M97.83 20.07 C89.6 12.92, 81.37 5.76, 73.68 -0.93 M97.83 20.07 C89.23 12.59, 80.63 5.12, 73.68 -0.93 M103.47 19.67 C94.37 11.76, 85.26 3.84, 80.08 -0.66 M103.47 19.67 C94.31 11.71, 85.14 3.74, 80.08 -0.66 M109.87 19.94 C101.69 12.82, 93.51 5.71, 85.72 -1.06 M109.87 19.94 C104.61 15.36, 99.35 10.79, 85.72 -1.06 M115.51 19.54 C106.9 12.05, 98.29 4.57, 92.12 -0.8 M115.51 19.54 C106.75 11.93, 97.99 4.31, 92.12 -0.8 M121.91 19.8 C113.51 12.49, 105.1 5.19, 98.52 -0.54 M121.91 19.8 C113.33 12.34, 104.76 4.89, 98.52 -0.54 M128.31 20.06 C122.02 14.6, 115.73 9.13, 104.16 -0.93 M128.31 20.06 C121 13.71, 113.7 7.36, 104.16 -0.93 M133.95 19.67 C128.15 14.62, 122.35 9.58, 110.56 -0.67 M133.95 19.67 C126.23 12.96, 118.51 6.24, 110.56 -0.67 M140.35 19.93 C133.35 13.84, 126.35 7.76, 116.2 -1.06 M140.35 19.93 C133.7 14.15, 127.05 8.37, 116.2 -1.06 M145.99 19.54 C138.81 13.29, 131.63 7.05, 122.6 -0.8 M145.99 19.54 C139.45 13.85, 132.91 8.16, 122.6 -0.8 M152.39 19.8 C144.51 12.95, 136.63 6.1, 129 -0.54 M152.39 19.8 C146.86 14.99, 141.33 10.18, 129 -0.54 M158.79 20.06 C151.67 13.87, 144.56 7.68, 134.64 -0.94 M158.79 20.06 C153.23 15.22, 147.67 10.39, 134.64 -0.94 M164.43 19.66 C156.54 12.8, 148.64 5.94, 141.04 -0.67 M164.43 19.66 C155.71 12.08, 146.99 4.5, 141.04 -0.67 M170.83 19.93 C165.39 15.19, 159.94 10.46, 146.68 -1.07 M170.83 19.93 C165.01 14.87, 159.19 9.81, 146.68 -1.07 M176.47 19.53 C169.81 13.74, 163.15 7.95, 153.08 -0.81 M176.47 19.53 C169.11 13.13, 161.74 6.72, 153.08 -0.81 M182.87 19.79 C174.21 12.26, 165.55 4.74, 159.48 -0.55 M182.87 19.79 C177.86 15.43, 172.84 11.07, 159.48 -0.55 M189.27 20.05 C183.78 15.28, 178.28 10.5, 165.12 -0.94 M189.27 20.05 C181.12 12.97, 172.97 5.89, 165.12 -0.94 M194.91 19.66 C188.93 14.46, 182.94 9.25, 171.52 -0.68 M194.91 19.66 C187.97 13.62, 181.02 7.58, 171.52 -0.68 M201.31 19.92 C194.77 14.24, 188.23 8.55, 177.16 -1.07 M201.31 19.92 C192.65 12.39, 183.99 4.86, 177.16 -1.07 M206.95 19.53 C200.73 14.12, 194.51 8.71, 183.56 -0.81 M206.95 19.53 C200.44 13.86, 193.92 8.19, 183.56 -0.81 M213.35 19.79 C204.55 12.14, 195.75 4.49, 189.96 -0.55 M213.35 19.79 C205.38 12.86, 197.42 5.94, 189.96 -0.55 M219.75 20.05 C213.96 15.02, 208.17 9.98, 195.6 -0.94 M219.75 20.05 C210.25 11.79, 200.75 3.53, 195.6 -0.94 M225.39 19.65 C216.94 12.31, 208.49 4.97, 202 -0.68 M225.39 19.65 C218.63 13.78, 211.87 7.9, 202 -0.68 M231.79 19.92 C225.19 14.18, 218.59 8.44, 207.64 -1.08 M231.79 19.92 C224.09 13.22, 216.38 6.52, 207.64 -1.08 M237.43 19.52 C230.42 13.42, 223.4 7.33, 214.04 -0.82 M237.43 19.52 C231.51 14.37, 225.58 9.22, 214.04 -0.82 M243.83 19.78 C236.38 13.31, 228.93 6.83, 220.43 -0.56 M243.83 19.78 C235.02 12.12, 226.21 4.46, 220.43 -0.56 M250.23 20.04 C242.44 13.28, 234.66 6.51, 226.08 -0.95 M250.23 20.04 C242.34 13.18, 234.44 6.32, 226.08 -0.95 M255.87 19.65 C246.9 11.85, 237.92 4.05, 232.48 -0.69 M255.87 19.65 C248.11 12.91, 240.36 6.16, 232.48 -0.69 M262.27 19.91 C257.08 15.4, 251.88 10.88, 238.12 -1.08 M262.27 19.91 C256.31 14.73, 250.36 9.56, 238.12 -1.08 M267.91 19.52 C260.11 12.74, 252.32 5.96, 244.52 -0.82 M267.91 19.52 C258.73 11.53, 249.54 3.55, 244.52 -0.82 M274.31 19.78 C269.15 15.29, 263.98 10.8, 250.91 -0.56 M274.31 19.78 C265.11 11.78, 255.9 3.78, 250.91 -0.56 M280.71 20.04 C273.74 13.99, 266.78 7.93, 256.56 -0.95 M280.71 20.04 C275.58 15.58, 270.44 11.12, 256.56 -0.95 M286.35 19.64 C280.78 14.8, 275.2 9.95, 262.96 -0.69 M286.35 19.64 C277.19 11.68, 268.02 3.71, 262.96 -0.69 M292.75 19.91 C287.29 15.16, 281.84 10.42, 268.6 -1.09 M292.75 19.91 C285.8 13.87, 278.86 7.83, 268.6 -1.09 M298.39 19.51 C293.18 14.98, 287.97 10.45, 275 -0.83 M298.39 19.51 C291.14 13.21, 283.9 6.91, 275 -0.83 M301.77 17.15 C294.05 10.44, 286.32 3.72, 281.39 -0.56 M301.77 17.15 C294.48 10.81, 287.18 4.47, 281.39 -0.56 M301.38 11.51 C295.85 6.7, 290.31 1.89, 287.04 -0.96 M301.38 11.51 C297.65 8.27, 293.93 5.03, 287.04 -0.96 M301.74 6.52 C299.77 4.81, 297.79 3.09, 293.43 -0.7 M301.74 6.52 C300.01 5.02, 298.29 3.52, 293.43 -0.7" stroke="#fab005" stroke-width="0.5" fill="none"></path><path d="M0 0 C70.75 0, 141.5 0, 299 0 M0 0 C104.82 0, 209.64 0, 299 0 M299 0 C299 5.7, 299 11.4, 299 19.83 M299 0 C299 5.38, 299 10.77, 299 19.83 M299 19.83 C196.2 19.83, 93.4 19.83, 0 19.83 M299 19.83 C196.12 19.83, 93.25 19.83, 0 19.83 M0 19.83 C0 15.8, 0 11.77, 0 0 M0 19.83 C0 12.1, 0 4.38, 0 0" stroke="#000000" stroke-width="1" fill="none"></path></g><g transform="translate(11 130) rotate(0 57.5 12.5)"><text x="0" y="18" font-family="Virgil, Segoe UI Emoji" font-size="20px" fill="#000000" text-anchor="start" style="white-space: pre;" direction="ltr">PageHeader</text></g><g stroke-linecap="round"><g transform="translate(250.92536621540785 137.8185014113982) rotate(0 -53.57071403707232 3.7326108634464674)"><path d="M-0.93 2.13 C-19.61 2.59, -92.8 3.06, -110.9 3.01 M3.76 0.82 C-14.08 1.74, -86.06 6.06, -105.25 6.64" stroke="#495057" stroke-width="2" fill="none"></path></g><g transform="translate(250.92536621540785 137.8185014113982) rotate(0 -53.57071403707232 3.7326108634464674)"><path d="M-74.52 -6.9 C-87 -1.19, -98.12 1.2, -104.53 5.15 M-76.98 -4.75 C-86.64 -0.82, -98.31 4.54, -104.97 5.36" stroke="#495057" stroke-width="2" fill="none"></path></g><g transform="translate(250.92536621540785 137.8185014113982) rotate(0 -53.57071403707232 3.7326108634464674)"><path d="M-73.56 13.6 C-86.41 12.3, -97.85 7.69, -104.53 5.15 M-76.02 15.75 C-86.27 11.55, -98.32 8.78, -104.97 5.36" stroke="#495057" stroke-width="2" fill="none"></path></g></g><g stroke-linecap="round"><g transform="translate(251 50) rotate(0 -45.3339959757775 -0.05230757208863679)"><path d="M0.4 -0.04 C-15.2 -0.46, -75.86 -0.25, -91.07 0.11 M-2.83 -2.53 C-17.72 -1.49, -70.35 1.17, -85.43 2.43" stroke="#495057" stroke-width="2" fill="none"></path></g><g transform="translate(251 50) rotate(0 -45.3339959757775 -0.05230757208863679)"><path d="M-58.04 -11.68 C-71.92 -6.58, -79.75 -3.18, -89.27 -0.52 M-56.84 -10.69 C-65.64 -8.89, -72.93 -4.1, -85.5 1.81" stroke="#495057" stroke-width="2" fill="none"></path></g><g transform="translate(251 50) rotate(0 -45.3339959757775 -0.05230757208863679)"><path d="M-56.69 8.79 C-71.48 5.91, -79.84 1.31, -89.27 -0.52 M-55.49 9.79 C-64.57 6.73, -72.18 6.66, -85.5 1.81" stroke="#495057" stroke-width="2" fill="none"></path></g></g><g transform="translate(10 36) rotate(0 68 12.5)"><text x="0" y="18" font-family="Virgil, Segoe UI Emoji" font-size="20px" fill="#000000" text-anchor="start" style="white-space: pre;" direction="ltr">SectionHeader</text></g></svg>