<?xml version="1.0" encoding="UTF-8" standalone="no"?>
<!-- Created with Inkscape (http://www.inkscape.org/) -->

<svg
   width="36.186855mm"
   height="24.146681mm"
   viewBox="0 0 36.186855 24.146681"
   version="1.1"
   id="svg1983"
   xml:space="preserve"
   inkscape:version="1.2 (dc2aedaf03, 2022-05-15)"
   sodipodi:docname="drawing.svg"
   inkscape:export-filename="..\..\..\..\Projects\Personal\react-report-int\example\public\drawing.svg"
   inkscape:export-xdpi="96"
   inkscape:export-ydpi="96"
   xmlns:inkscape="http://www.inkscape.org/namespaces/inkscape"
   xmlns:sodipodi="http://sodipodi.sourceforge.net/DTD/sodipodi-0.dtd"
   xmlns="http://www.w3.org/2000/svg"
   xmlns:svg="http://www.w3.org/2000/svg"><sodipodi:namedview
     id="namedview1985"
     pagecolor="#ffffff"
     bordercolor="#000000"
     borderopacity="0.25"
     inkscape:showpageshadow="2"
     inkscape:pageopacity="0.0"
     inkscape:pagecheckerboard="0"
     inkscape:deskcolor="#d1d1d1"
     inkscape:document-units="mm"
     showgrid="false"
     inkscape:zoom="4.3540635"
     inkscape:cx="9.6461617"
     inkscape:cy="89.456666"
     inkscape:window-width="1920"
     inkscape:window-height="1051"
     inkscape:window-x="-9"
     inkscape:window-y="-9"
     inkscape:window-maximized="1"
     inkscape:current-layer="g364"
     showguides="true"><sodipodi:guide
       position="17.390486,13.576368"
       orientation="0,-1"
       id="guide2882"
       inkscape:locked="false" /><sodipodi:guide
       position="27.23033,11.4709"
       orientation="0,-1"
       id="guide2884"
       inkscape:locked="false" /></sodipodi:namedview><defs
     id="defs1980" /><g
     id="g364"
     transform="translate(-17.199359)"><path
       style="opacity:1;fill:#000000;stroke-width:0.231"
       d="M 24.439719,24.14668 C 27.823947,13.674159 29.16333,0 29.16333,0 l 2.552212,4.73983 6.56284,0.12154 3.03834,-3.88909 5.811143,23.048227"
       id="path924"
       sodipodi:nodetypes="cccccc" /><path
       style="opacity:1;fill:none;fill-opacity:1;stroke:#000000;stroke-width:0.231;stroke-opacity:1"
       d="m 30.65634,15.688796 c -2.72641,-0.45365 -4.88723,-0.91353 -6.644617,-1.1702 -6.429302,-0.93898 -6.745957,-1.1615 -6.745957,-1.1615 v 0"
       id="path5030"
       sodipodi:nodetypes="cscc" /><path
       style="fill:none;fill-opacity:1;stroke:#000000;stroke-width:0.231;stroke-opacity:1"
       d="m 30.74721,15.063956 c -2.72641,-0.45365 -4.99757,-0.70152 -6.722472,-1.12462 -6.429302,-1.57704 -6.700382,-1.20708 -6.700382,-1.20708 v 0"
       id="path5030-0"
       sodipodi:nodetypes="cscc" /><path
       style="fill:none;fill-opacity:1;stroke:#000000;stroke-width:0.231;stroke-opacity:1"
       d="m 31.40571,16.386666 c -2.72641,-0.45365 -5.26154,-0.77368 -7.092776,-1.07525 -6.531916,-1.07567 -6.700382,-1.20708 -6.700382,-1.20708 v 0"
       id="path5030-7"
       sodipodi:nodetypes="cscc" /><path
       style="fill:none;fill-opacity:1;stroke:#000000;stroke-width:0.231;stroke-opacity:1"
       d="m 39.785255,15.848144 c 2.72641,-0.45365 4.88723,-0.91353 6.64462,-1.1702 6.4293,-0.93898 6.74595,-1.1615 6.74595,-1.1615 v 0"
       id="path5030-02"
       sodipodi:nodetypes="cscc" /><path
       style="fill:none;fill-opacity:1;stroke:#000000;stroke-width:0.231;stroke-opacity:1"
       d="m 39.663995,16.393074 c 2.72641,-0.45365 4.94971,-1.01686 6.72247,-1.12462 6.5045,-0.3954 6.70038,-1.20708 6.70038,-1.20708"
       id="path5030-0-1"
       sodipodi:nodetypes="csc" /><path
       style="fill:none;fill-opacity:1;stroke:#000000;stroke-width:0.231;stroke-opacity:1"
       d="m 39.522025,15.163564 c 2.72641,-0.45365 5.26154,-0.77368 7.09278,-1.07525 6.53191,-1.07567 6.70037,-1.20708 6.70037,-1.20708 v 0"
       id="path5030-7-5"
       sodipodi:nodetypes="cscc" /><path
       id="path10257-4"
       style="fill:#ffffff;fill-opacity:1;stroke:none;stroke-width:1.28091"
       d="m 36.508532,15.75722 c 0,0.54691 -0.55812,1.18158 -1.20167,1.18158 -0.64355,0 -1.21381,-0.62342 -1.21382,-1.17033 0,-0.54692 0.60668,-0.65269 1.25023,-0.65269 0.64356,0 1.16527,0.0945 1.16526,0.64144 z"
       sodipodi:nodetypes="sssss" /><path
       style="fill:#ffffff;stroke-width:0.37849"
       id="path612"
       sodipodi:type="arc"
       sodipodi:cx="39.391602"
       sodipodi:cy="11.107423"
       sodipodi:rx="1.8046875"
       sodipodi:ry="1.7832031"
       sodipodi:start="0"
       sodipodi:end="6.2819209"
       sodipodi:open="true"
       sodipodi:arc-type="chord"
       d="M 41.196289,11.107423 A 1.8046875,1.7832031 0 0 1 39.392172,12.890626 1.8046875,1.7832031 0 0 1 37.586914,11.10855 1.8046875,1.7832031 0 0 1 39.38989,9.3242205 1.8046875,1.7832031 0 0 1 41.196288,11.105168 Z" /><path
       style="fill:#ffffff;stroke-width:0.37849"
       id="path612-3"
       sodipodi:type="arc"
       sodipodi:cx="30.916016"
       sodipodi:cy="11.085938"
       sodipodi:rx="1.8046875"
       sodipodi:ry="1.7832031"
       sodipodi:start="0"
       sodipodi:end="6.2819209"
       sodipodi:open="true"
       sodipodi:arc-type="chord"
       d="m 32.720703,11.085938 a 1.8046875,1.7832031 0 0 1 -1.804117,1.783203 1.8046875,1.7832031 0 0 1 -1.805258,-1.782075 1.8046875,1.7832031 0 0 1 1.802976,-1.7843299 1.8046875,1.7832031 0 0 1 1.806398,1.7809479 z" /><path
       style="fill:#000000;stroke-width:0.244802"
       id="path666-1"
       sodipodi:type="arc"
       sodipodi:cx="30.612465"
       sodipodi:cy="11.650559"
       sodipodi:rx="1.0253686"
       sodipodi:ry="1.0312601"
       sodipodi:start="0"
       sodipodi:end="6.2819209"
       sodipodi:open="true"
       sodipodi:arc-type="chord"
       d="m 31.637833,11.650559 a 1.0253686,1.0312601 0 0 1 -1.025044,1.031261 1.0253686,1.0312601 0 0 1 -1.025692,-1.030609 1.0253686,1.0312601 0 0 1 1.024396,-1.031911 1.0253686,1.0312601 0 0 1 1.02634,1.029955 z" /><path
       style="fill:#000000;stroke-width:0.244802"
       id="path493"
       sodipodi:type="arc"
       sodipodi:cx="39.227699"
       sodipodi:cy="11.650559"
       sodipodi:rx="1.0253686"
       sodipodi:ry="1.0312601"
       sodipodi:start="0"
       sodipodi:end="6.2819209"
       sodipodi:open="true"
       sodipodi:arc-type="chord"
       d="m 40.253068,11.650559 a 1.0253686,1.0312601 0 0 1 -1.025045,1.031261 1.0253686,1.0312601 0 0 1 -1.025692,-1.030609 1.0253686,1.0312601 0 0 1 1.024396,-1.031911 1.0253686,1.0312601 0 0 1 1.02634,1.029955 z" /></g><g
     id="g390"
     style="display:none"
     transform="translate(-17.199359)"><path
       style="opacity:1;fill:#000000;stroke-width:0.231"
       d="m 18.954474,48.73513 c 0,0 -3.038351,-4.86136 -1.093806,-13.97641 C 19.80521,25.64367 29.16333,0 29.16333,0 l 2.552212,4.73983 6.56284,0.12154 3.03834,-3.88909 10.33039,29.53275 c 0,0 6.198233,20.782319 -2.43068,23.5776 -2.63169,0.852519 -8.620786,0.477432 -15.614865,0.485129 C 17.577198,54.585389 22.735993,54.495388 11.044793,54.268708 4.887268,54.184078 0.93464306,54.896985 0.78499015,52.735885 0.5784026,49.752606 15.866162,50.42163 18.954474,48.735132 Z"
       id="path366"
       sodipodi:nodetypes="cscccccsscscc" /><path
       style="opacity:1;fill:none;fill-opacity:1;stroke:#000000;stroke-width:0.231;stroke-opacity:1"
       d="m 30.65634,15.688796 c -2.72641,-0.45365 -4.88723,-0.91353 -6.644617,-1.1702 -6.429302,-0.93898 -6.745957,-1.1615 -6.745957,-1.1615 v 0"
       id="path368"
       sodipodi:nodetypes="cscc" /><path
       style="fill:none;fill-opacity:1;stroke:#000000;stroke-width:0.231;stroke-opacity:1"
       d="m 30.74721,15.063956 c -2.72641,-0.45365 -4.99757,-0.70152 -6.722472,-1.12462 -6.429302,-1.57704 -6.700382,-1.20708 -6.700382,-1.20708 v 0"
       id="path370"
       sodipodi:nodetypes="cscc" /><path
       style="fill:none;fill-opacity:1;stroke:#000000;stroke-width:0.231;stroke-opacity:1"
       d="m 31.40571,16.386666 c -2.72641,-0.45365 -5.26154,-0.77368 -7.092776,-1.07525 -6.531916,-1.07567 -6.700382,-1.20708 -6.700382,-1.20708 v 0"
       id="path372"
       sodipodi:nodetypes="cscc" /><path
       style="fill:none;fill-opacity:1;stroke:#000000;stroke-width:0.231;stroke-opacity:1"
       d="m 39.785255,15.848144 c 2.72641,-0.45365 4.88723,-0.91353 6.64462,-1.1702 6.4293,-0.93898 6.74595,-1.1615 6.74595,-1.1615 v 0"
       id="path374"
       sodipodi:nodetypes="cscc" /><path
       style="fill:none;fill-opacity:1;stroke:#000000;stroke-width:0.231;stroke-opacity:1"
       d="m 39.663995,16.393074 c 2.72641,-0.45365 4.94971,-1.01686 6.72247,-1.12462 6.5045,-0.3954 6.70038,-1.20708 6.70038,-1.20708"
       id="path376"
       sodipodi:nodetypes="csc" /><path
       style="fill:none;fill-opacity:1;stroke:#000000;stroke-width:0.231;stroke-opacity:1"
       d="m 39.522025,15.163564 c 2.72641,-0.45365 5.26154,-0.77368 7.09278,-1.07525 6.53191,-1.07567 6.70037,-1.20708 6.70037,-1.20708 v 0"
       id="path378"
       sodipodi:nodetypes="cscc" /><path
       id="path380"
       style="fill:#ffffff;fill-opacity:1;stroke:none;stroke-width:1.28091"
       d="m 36.508532,15.75722 c 0,0.54691 -0.55812,1.18158 -1.20167,1.18158 -0.64355,0 -1.21381,-0.62342 -1.21382,-1.17033 0,-0.54692 0.60668,-0.65269 1.25023,-0.65269 0.64356,0 1.16527,0.0945 1.16526,0.64144 z"
       sodipodi:nodetypes="sssss" /><path
       style="fill:#ffffff;stroke-width:0.37849"
       id="path382"
       sodipodi:type="arc"
       sodipodi:cx="39.391602"
       sodipodi:cy="11.107423"
       sodipodi:rx="1.8046875"
       sodipodi:ry="1.7832031"
       sodipodi:start="0"
       sodipodi:end="6.2819209"
       sodipodi:open="true"
       sodipodi:arc-type="chord"
       d="M 41.196289,11.107423 A 1.8046875,1.7832031 0 0 1 39.392172,12.890626 1.8046875,1.7832031 0 0 1 37.586914,11.10855 1.8046875,1.7832031 0 0 1 39.38989,9.3242205 1.8046875,1.7832031 0 0 1 41.196288,11.105168 Z" /><path
       style="fill:#000000;stroke-width:0.256612"
       id="path384"
       sodipodi:type="arc"
       sodipodi:cx="39.04924"
       sodipodi:cy="11.613729"
       sodipodi:rx="1.0219259"
       sodipodi:ry="1"
       sodipodi:start="0"
       sodipodi:end="6.2819209"
       sodipodi:open="true"
       sodipodi:arc-type="chord"
       d="m 40.071166,11.613729 a 1.0219259,1 0 0 1 -1.021603,0.999999 1.0219259,1 0 0 1 -1.022249,-0.999367 1.0219259,1 0 0 1 1.020957,-1.000632 1.0219259,1 0 0 1 1.022894,0.998735 z" /><path
       style="fill:#ffffff;stroke-width:0.37849"
       id="path386"
       sodipodi:type="arc"
       sodipodi:cx="30.916016"
       sodipodi:cy="11.085938"
       sodipodi:rx="1.8046875"
       sodipodi:ry="1.7832031"
       sodipodi:start="0"
       sodipodi:end="6.2819209"
       sodipodi:open="true"
       sodipodi:arc-type="chord"
       d="m 32.720703,11.085938 a 1.8046875,1.7832031 0 0 1 -1.804117,1.783203 1.8046875,1.7832031 0 0 1 -1.805258,-1.782075 1.8046875,1.7832031 0 0 1 1.802976,-1.7843299 1.8046875,1.7832031 0 0 1 1.806398,1.7809479 z" /><path
       style="fill:#000000;stroke-width:0.229458"
       id="path388"
       sodipodi:type="arc"
       sodipodi:cx="30.419106"
       sodipodi:cy="11.629075"
       sodipodi:rx="0.96091545"
       sodipodi:ry="0.96680701"
       sodipodi:start="0"
       sodipodi:end="6.2819209"
       sodipodi:open="true"
       sodipodi:arc-type="chord"
       d="m 31.380021,11.629075 a 0.96091545,0.96680701 0 0 1 -0.960612,0.966807 0.96091545,0.96680701 0 0 1 -0.961219,-0.966196 0.96091545,0.96680701 0 0 1 0.960004,-0.967418 0.96091545,0.96680701 0 0 1 0.961826,0.965585 z" /></g></svg>
