<svg version="1.1" xmlns="http://www.w3.org/2000/svg" viewBox="0 0 440 372.3666162932816" width="440" height="372.3666162932816">
  <g stroke-linecap="round"><g transform="translate(11.267029780894518 239.7977978450824) rotate(0 128.73297021910548 59.76107787251499)" fill-rule="evenodd"><path d="M0 0 C0 0, 0 0, 0 0 M0 0 C0 0, 0 0, 0 0 M0.02 6.35 C2.44 3.92, 2.99 2.98, 5.01 -0.76 M0.53 5.66 C2.54 3.53, 4.92 0.46, 5.89 -0.05 M-0.25 11.53 C2.96 7.73, 7.12 3.07, 11.14 -0.25 M0.51 11.98 C3.64 9.5, 4.9 6.32, 10.71 -1.18 M-0.39 19.44 C6.02 11.97, 11.95 1.97, 18.06 -0.86 M0.77 17.32 C7.16 10.46, 13.81 3.67, 17.67 -0.79 M-0.87 24.75 C8.39 13.51, 15.86 7.03, 20.85 -0.7 M1.02 24.07 C6.22 16.61, 14.65 7.24, 21.86 -1.09 M0.07 28.59 C4.55 25.18, 10.38 17.21, 25.31 -2.38 M1.53 29.04 C5.69 23.96, 11.12 17.94, 27.21 -0.13 M1.8 35.22 C6.35 27.37, 15.95 19.51, 27.37 7.8 M0.3 36.03 C6.64 29.73, 11.48 22.56, 27.29 6.28 M-0.65 43 C8.8 33.9, 18.74 20.19, 28.36 12.98 M1 42.21 C6.63 36.02, 11.4 29.52, 26.29 10.87 M-0.96 47.62 C8.23 38.98, 17.37 27.51, 24.89 16.26 M0.22 48.6 C8.74 39.4, 16.32 29.77, 26.45 18.66 M0.61 53.11 C8.46 48.4, 11.99 41.93, 26.16 23.98 M1.32 54.5 C9.12 43.44, 17.44 34.95, 27.2 23.63 M1.51 58.31 C11.83 49.25, 21.11 37.42, 24.94 29.15 M0.4 59.14 C10.17 49.39, 18.61 39.61, 27.7 29.4 M-0.29 67.67 C8.98 55.83, 15.61 48.49, 28.46 34.79 M0.8 65.92 C10.87 55.37, 20.03 42.74, 27.49 35.95 M55.51 3.21 C55.51 3.21, 55.51 3.21, 55.51 3.21 M55.51 3.21 C55.51 3.21, 55.51 3.21, 55.51 3.21 M1.46 71.34 C6.94 65.21, 13.97 58.72, 26.02 41.72 M2.15 72.46 C11.65 59.54, 22.68 48.56, 26.18 42.86 M54.76 9.88 C56.35 6.98, 59.05 5.62, 60.25 4.25 M55.39 9.38 C56.24 8.53, 57.24 6.78, 60.4 3.24 M2.18 76.65 C7.18 72.96, 11.15 65.5, 27.73 50.21 M1.05 77.98 C8.2 69.97, 14.71 62.09, 26.91 47.51 M56.56 14.35 C58.78 11.73, 62.82 8.97, 65.7 3.98 M55.61 15.94 C59.28 10.15, 63.78 6.62, 65.5 3.03 M1.09 81.78 C8.24 74.66, 15.41 67.41, 26.79 54.1 M1.6 84.01 C8.19 76.94, 12.36 69.65, 26.06 54.51 M54.4 21.25 C60.36 16.74, 63.39 11.27, 70.5 3.4 M55.99 22.5 C58.23 17.9, 61.91 14.1, 71.13 3.38 M-0.51 90.24 C10.81 78, 22.89 64.93, 27.03 59.54 M1.39 89.47 C8.4 81.29, 15.26 73.18, 27.16 59.78 M54.98 29.56 C58.84 24.29, 65.52 17.44, 74.95 1.98 M54.18 28.25 C61.37 20.52, 68.07 12.39, 76.11 4.02 M2 96.83 C12.78 83.6, 22.25 69.13, 30.29 61.22 M0.83 94.59 C13.17 82.82, 25.29 68.54, 32.18 60.85 M57.31 33.28 C63.83 22.55, 71.87 14.89, 81.38 4.33 M54.73 32.79 C65.32 21.45, 75.62 10.97, 82.34 4.39 M3.28 101.7 C10.26 92.61, 23.27 79.97, 37.21 59.21 M1.82 102.97 C14.54 88.37, 25.86 74.02, 38.37 59.63 M56.92 41.21 C66.49 24.51, 81.38 13.75, 86.86 2.87 M55.39 39.13 C63.48 29.54, 72.88 20.16, 85.98 4.04 M1.31 108.26 C15.99 93.38, 28.5 79.52, 41.74 58.86 M1.09 107.51 C16.35 89.11, 32.25 72.09, 42.76 60.34 M53.97 48.17 C67.7 35.34, 77.46 22.07, 94.46 2.84 M55.05 47.37 C69.63 30.08, 85.98 10.88, 94.68 1.35 M0.8 112.53 C11.22 104.21, 22.32 93.03, 47.15 58.81 M1.5 113.76 C19.95 94.6, 36.07 74.35, 48.16 59.55 M54.67 54.08 C65.26 40.48, 73.6 29.29, 93.46 7.86 M55.06 53.7 C64.01 41.31, 72.68 32.61, 93.73 7.12 M3.14 120.82 C37.75 80.22, 68.62 40.85, 93.43 14.26 M2.13 119.58 C24.5 95.06, 45.63 71.01, 94.6 13.39 M5.78 122.92 C33.53 87.42, 62.55 53.76, 92.63 20.91 M3.85 123.41 C24.55 97.92, 46.77 73.18, 93.43 19.55 M11.99 120.85 C42.83 85.26, 71.97 50.43, 94.37 26.49 M9.74 122.27 C35.72 90.73, 63.68 61.48, 94.33 25.13 M14.01 121.27 C33.21 101.28, 49.72 80.47, 95.41 30.03 M14.24 123.45 C32.31 103.84, 48.52 84.57, 94.17 31.91 M20.46 123.94 C36.24 100.17, 56.86 81.55, 93.52 38.13 M20.05 122.77 C47.3 90.19, 76.11 58.29, 93.87 38.39 M124.28 3.36 C124.28 3.36, 124.28 3.36, 124.28 3.36 M124.28 3.36 C124.28 3.36, 124.28 3.36, 124.28 3.36 M26.37 123.75 C40.15 106.64, 55.37 88, 95.82 44.18 M24.95 122.39 C42.83 102.25, 60.34 81.72, 93.59 44.23 M124 9.73 C125.41 7.41, 127.65 5.53, 130.43 2.18 M124.3 9.16 C126.15 7.21, 127.32 5.77, 129.72 2.6 M30.18 124.96 C50.84 100.5, 70.51 74.91, 95.76 49.53 M30.42 123.49 C54.9 95.11, 77.98 68.18, 93.85 50.58 M125.52 15.86 C129.98 9.55, 132.35 5.68, 135.39 4.15 M125.27 15.19 C128.39 10.53, 131.2 6.37, 134.64 3.86 M34.69 123.19 C50.02 109.75, 60.18 94.41, 92.73 54.68 M36.27 123.39 C49.06 107, 62.32 93.03, 94.42 56.07 M125.63 18.65 C130.28 15.79, 132.37 12.67, 139.73 4.03 M125.82 20.84 C129.38 15.71, 134.34 10.34, 141.5 3.36 M40.77 123.39 C64.15 98.89, 86.13 75.41, 94.84 62.75 M41.83 122.78 C57.86 103.19, 74.74 83.71, 94.22 60.92 M123.25 24.85 C129.64 21.68, 136.66 13.74, 145.03 3.34 M126.03 26.14 C132.28 19.38, 139.47 10.83, 145.9 2.92 M48.58 121.79 C64.57 103.05, 78.85 82.97, 98.77 62.35 M47.21 123.67 C56.87 111.46, 67.95 98.32, 101.26 61.92 M127.54 31.75 C134.15 22.19, 143.58 12.04, 152.71 0.41 M125.88 32.71 C132.64 23.77, 139.83 14.35, 152.77 2.19 M52.35 123.98 C70.04 102.49, 86.86 81.37, 104.78 63.24 M52.04 123.45 C67.68 106.6, 82.11 89.89, 105.53 62.03 M124.23 38.82 C131.32 29.98, 137.05 21.54, 151.53 6.16 M126.51 37.59 C132.6 29.19, 138.5 21.98, 152.15 7.57 M57.63 122.81 C72.32 102.53, 88.53 82.82, 111 59.2 M56.76 122.81 C75.86 103.3, 92.98 82.16, 111.42 61.25 M126.41 45.1 C134.58 34.55, 145.31 23.61, 152.08 14.73 M126.85 44.42 C134.99 34.26, 141.42 26.42, 153.33 12.69 M64.04 124.49 C76.29 106.7, 87.62 92.61, 115.63 63.33 M63.31 123.82 C75.58 108.53, 87.76 95.99, 115.83 61.92 M125.82 49.93 C134.48 42.02, 141.45 35.8, 151.72 17.39 M127 50.18 C132.91 43.75, 136.81 35.9, 153.84 18.32 M66.48 122.51 C80.32 108.63, 93.57 92.93, 122.18 62.02 M68.43 121.86 C80.98 107.21, 96.01 90.33, 121.44 60.75 M128.27 53.72 C130.86 49.64, 138.04 42.2, 151.83 24.45 M125.55 55.93 C134.34 44.77, 142.74 35.86, 152.76 26.34 M73.94 123.68 C97.16 97.65, 119.37 68.09, 152.48 30.83 M72.38 123.68 C100.5 92.2, 127.95 59.28, 153.73 30.59 M80.07 124.44 C105.44 92.09, 131.22 64.89, 152.85 35.91 M78.06 123.32 C99.78 97.31, 122 70.91, 153.63 36.33 M83.72 122.49 C107.29 91.75, 134.44 62.73, 154.08 40.82 M83.2 123.73 C99.83 104.2, 116.92 83.1, 154.34 42.86 M90.91 122.44 C101.26 106.22, 116.67 92.09, 152.5 49.84 M90 123.45 C110.43 97.33, 133.61 70.78, 152.76 47.98 M93.82 121.27 C112.95 104.39, 131.31 80.68, 155.03 52.49 M95.14 122.32 C115.17 100.14, 136.29 75.56, 153.92 53.44 M100.93 123.5 C120.18 100.82, 139.88 78.37, 155.53 61.97 M99.67 121.85 C120.65 98.96, 141.83 75.42, 153 60.67 M104.62 124.27 C117.31 108.51, 132.8 89.64, 158.17 60.19 M104.25 123.73 C120.45 107.41, 134.82 90.46, 160.36 61.1 M111.33 124.52 C126.25 104.2, 140.47 89.02, 165.91 58.3 M110.98 122.21 C124.79 104.89, 139.94 88.76, 165.81 60.06 M215.62 1.93 C215.62 1.93, 215.62 1.93, 215.62 1.93 M215.62 1.93 C215.62 1.93, 215.62 1.93, 215.62 1.93 M116.36 123.12 C131.65 106.57, 145.35 89.89, 171.67 61.92 M115.29 123.96 C129.08 108.33, 141.49 93.4, 170.23 60.97 M215.57 7.77 C216.73 5.16, 218.89 3.4, 220.6 1.37 M216.28 7.9 C217.5 6.02, 218.6 4.41, 221.12 1.68 M120.89 123.68 C135.3 106.07, 148.39 89.21, 173.92 58.38 M121.1 122.33 C143.05 97.92, 165.07 73.5, 175.86 60.68 M215.04 13.83 C218.23 10.82, 222.1 6.6, 225.92 3.08 M216.76 13.05 C220.03 10.02, 222.1 6.28, 225.59 2.07 M124.87 121.55 C136.12 108.46, 150.05 96.14, 182.21 58.93 M126.43 122.57 C137.15 109.09, 148.75 97.01, 180.18 60.22 M214.59 21.11 C222.85 14.19, 225.14 9.81, 232.3 2.91 M215.35 19.72 C220.34 14.43, 224.53 11.16, 231.67 2.45 M132.92 122.14 C147.36 105.25, 163.07 89.86, 185.41 58.12 M130.46 122.98 C148.6 105.17, 164.3 85.45, 185.46 59.93 M216.05 23.6 C221.71 17.5, 229.22 10.74, 236.17 3.65 M216.22 25.03 C220.91 18.16, 227.33 13.27, 236.27 2.65 M136.32 123.17 C148.81 109.02, 158.79 97.85, 189.11 61.36 M137.48 123.22 C147.59 111.21, 158.39 99.06, 190.18 61.07 M218.8 32.37 C227.88 19.53, 235.25 8.55, 243.79 3.22 M217.82 30.01 C225.72 20.83, 234.35 9.37, 243.43 0.86 M143.1 124.91 C155.35 108.04, 170.14 93.1, 193.53 61.55 M141.01 122.57 C162.25 99.47, 183.27 77.74, 194.89 62.39 M215.34 36.62 C223.76 29.15, 230.77 20.44, 245.63 2.47 M216.64 38.1 C222.31 29.54, 229.03 23.79, 247.93 1.55 M146.58 120.97 C166.46 101.64, 189.04 79.04, 199.62 62.45 M148.31 122.61 C160.21 107.79, 174.94 91.52, 200.36 61.57 M216.84 41.6 C226.3 31.87, 233.96 22.03, 253.44 -0.45 M217.28 42.81 C227.47 29.78, 240.31 17.49, 252.33 1.55 M152.15 124.25 C162.42 110.88, 174.26 97.7, 204.35 62.89 M153.21 123.29 C171.87 102.23, 190.05 79.64, 204.86 61.34 M217.2 49.12 C231.78 31.8, 246.91 15.8, 260.37 -1.57 M216.55 48.26 C235.18 30.09, 250.4 9.55, 259.03 0.51 M158.51 120.97 C171.12 110.69, 181.58 97.14, 212.03 60.98 M157.3 122.91 C177.09 100.9, 195.71 79.31, 211.42 61.78 M219 55.31 C230.11 41.85, 243.83 24.8, 259.03 7.69 M217.39 54.93 C226.55 42.32, 237.48 32.42, 258.39 5.74 M164.43 124.66 C184.5 98, 202.68 74.85, 259.65 11.11 M162.71 124.09 C190.15 93.38, 215.74 64.5, 259.27 13.29 M170.65 122.6 C199.46 87.19, 230.55 50.86, 258.88 18.02 M168.07 123.59 C189.69 98.4, 213.36 71.48, 260.08 19.69 M174.97 122.53 C197 95.92, 222.73 65.82, 258.1 26.58 M174.32 124.16 C195.25 98.83, 215.9 75.38, 258.98 25.16 M179.96 121.57 C196.18 102.52, 212.45 84.01, 260.74 32.7 M179.72 123.24 C199.96 99.16, 219.89 77.86, 259.58 30.42 M185.94 123.62 C207.78 96.15, 235.55 67.55, 259.91 37.2 M184.25 123.35 C211.63 91.66, 237.67 60.5, 258.24 37.27 M189.19 122.46 C215 92.35, 243.76 61.37, 259.84 41.68 M189.37 122.53 C211.81 97.17, 233.76 72.74, 259.26 43.71 M193.49 124.91 C210.55 106.64, 226.18 89.93, 258.81 47.86 M195.39 122.8 C208.97 105.1, 223.98 87.95, 259.42 48.6 M200.31 121.9 C212.63 108.75, 225.47 94, 260.06 57 M201.25 122.56 C222.31 99.67, 240.75 75.49, 258.63 56.43 M204.42 123.67 C221.81 103.35, 242.94 82.4, 261.23 61.74 M205.83 123.04 C226.37 98.55, 248.71 74.5, 259.04 60.44 M212 122.83 C224.62 109.39, 238.43 93.74, 258.02 69.26 M211.76 122.75 C224.64 105.82, 238.88 90.47, 258.37 67.07 M216.27 121.51 C231.32 104.44, 246.59 91.29, 257.63 73.1 M216.77 123.91 C231.37 104.78, 245.78 89.13, 259.09 73.19 M223.62 122.49 C234.84 110.33, 243.29 98.25, 257.67 80.61 M221.44 122.87 C234.66 108.26, 247.35 95.41, 258.99 78.7 M225.24 124.32 C231.47 114.55, 241.51 105.49, 257.1 84.25 M226.58 122.6 C236.03 111.08, 245.23 100.7, 259.74 85.34 M231.22 124.45 C238.42 112.16, 248.86 107.24, 257.64 93.52 M233 123.05 C239.33 114.81, 246.22 107.87, 260.13 91.74 M238.2 122.33 C244.06 113.62, 249.99 107.18, 259.47 98.06 M236.81 123.66 C245.57 114.06, 253.84 103.58, 259.31 97.97 M242.86 123.34 C244.7 120.64, 248.91 114.08, 258.62 103.52 M242.63 122.5 C247.15 118, 253.36 111.71, 257.97 104.68 M248.67 122.21 C249.12 121.68, 254.2 116.47, 258.13 110.85 M248.15 122.97 C252.51 119.83, 255.5 115.57, 258.99 109.84 M253.22 122.67 C254.96 120.82, 257.27 118.82, 258.56 116.41 M252.95 122.97 C255.15 121.11, 257.56 117.71, 259.39 116.82 M2.1 121.04 C2.1 121.04, 2.1 121.04, 2.1 121.04 M2.1 121.04 C2.1 121.04, 2.1 121.04, 2.1 121.04 M8.57 121.25 C6.45 119.71, 5.93 119.48, 0.98 115.02 M8.43 121.15 C5.5 119.08, 3.65 117.09, 2.07 115.26 M14.86 120.53 C9.78 118.81, 9.13 115.06, 1.72 111.35 M13.49 120.62 C10.67 118.34, 6.95 114.33, 2.15 109.67 M19.75 122.13 C12.68 114.54, 9.49 109.91, 1.35 105.99 M20.98 121.29 C15.69 116.23, 11.19 113.44, 1.3 104.07 M28.07 119.59 C22.45 115.04, 15.17 112.57, 2.05 100.88 M27.06 121.23 C17.46 112.54, 8.9 105.49, 2.21 99.63 M33.36 121.88 C22.48 109.95, 8.48 98.56, 0.46 96.02 M33.35 121.42 C20.03 111.3, 8.42 101.42, 2.25 94.68 M40.63 122.38 C29.43 110.95, 18.37 100.88, 1.34 89.51 M38.95 121.78 C24.73 109.24, 11.24 96.78, 1.68 88.44 M45.67 121.87 C28.85 108.34, 10.31 91.57, 0.16 84.99 M45.1 121.51 C28.04 105.71, 12.26 92.07, 1.96 83.38 M50.21 119.6 C39.23 109.47, 25.06 98.69, 1.64 78.77 M51.98 121.49 C38.93 110.99, 27.14 101.25, 2.02 77.63 M57.51 121.85 C40.47 107.52, 26.37 94.22, 1.92 73.56 M56.03 120.1 C40.21 106.63, 25.28 94.15, 2.16 72.01 M63.27 120.31 C46.35 105.64, 29.53 92.61, -0.53 66.33 M62.51 120.95 C46.35 106.72, 28.33 91.9, 0.54 67.27 M71.21 120.55 C51.67 103.14, 28.87 87.27, 1.13 62.05 M68.84 120.7 C41.88 99.38, 15.21 75.34, 1.02 61.07 M76.21 121.22 C44.86 97.85, 19.23 70.8, 0.82 56.82 M75.34 121.47 C52 102.3, 29.2 81.84, 1.49 56.46 M83.47 121.03 C61.69 102.64, 44.39 89.13, 2.1 49.04 M82.13 121.22 C64.94 106.06, 46.37 91.68, 0.11 50.38 M88.09 119.37 C60.62 96.29, 36.19 76.24, 0.36 45.16 M86.39 121.66 C63.94 99.32, 39.02 78.18, 1.24 46.63 M93.97 122.63 C59.22 91.45, 21.06 61.26, 1.62 39.48 M92.94 121.87 C65.06 95.07, 35.92 70.29, -0.11 41.13 M101.43 120.76 C73.06 99.16, 48.78 77.51, 27.12 58.92 M99.52 122.17 C76.99 99.72, 53.52 80.48, 26.02 57.85 M27.48 59.1 C17.57 50.28, 10.36 44.03, -0.49 36.27 M26.82 57.29 C19.46 51.31, 13.09 44.78, 0.38 35.5 M104.79 121.47 C86.07 105.32, 67.19 86.21, 31.49 55.28 M105.07 120.74 C89.86 106.95, 72.5 91.88, 32.88 57.86 M25.55 50.75 C18.96 48.37, 15.86 42.15, -0.21 29.28 M25.62 52.72 C18.72 45.8, 11.85 38.62, 0.22 29.71 M113.21 121.05 C96.89 107.09, 82.02 96.4, 38.95 56.85 M112.36 121.6 C85.63 97.93, 58.67 74.68, 39.41 57.86 M27.51 46.12 C20.81 39.39, 11.11 36.4, -1.48 23.74 M26.42 47.65 C19.67 41.08, 12.74 34.73, 0.6 24.32 M119.01 120.46 C93.97 99.15, 72.04 78.11, 45.41 58.5 M118.43 121.45 C98.34 105.18, 80.33 89.62, 45.13 57.33 M25.51 39.83 C22.63 36.9, 14.39 31.62, 1.47 19.81 M26.59 41.7 C21.34 35.01, 14.23 30.39, 0.86 19.88 M124.21 119.62 C96.74 96.41, 65.68 72.54, 51.99 57.37 M124.52 120.96 C101.87 102.81, 80.66 84.99, 52.23 58.04 M27.43 35.44 C19.28 27.41, 10.44 22.62, 2.09 15.32 M26.7 35.47 C16.38 27.04, 6.91 19.34, 0.49 13.63 M131.25 120.77 C111.47 106.57, 91.61 87.66, 51.68 53.72 M130.75 122.16 C109.59 101.82, 87.04 82.67, 52.22 52.97 M26.81 32.22 C20.18 23.84, 15.75 21.34, -1.22 6.42 M26.44 31.25 C15.41 22.21, 5.32 11.36, 0.42 8.15 M137.28 122.48 C111.63 103.16, 91.77 80.59, 50.75 48.6 M136.39 120.44 C111.01 100.01, 86.09 79.05, 51.38 47.84 M24.87 26.34 C15.81 17.07, 5.05 10.06, 0.6 1.53 M26.68 26.31 C17.78 18.37, 8.8 10.09, 0.7 3.35 M144.37 121.59 C116.25 98.21, 87.76 71.79, 50.9 44.75 M142.15 120.49 C109 91.85, 74.34 63.58, 52.86 42.15 M24.55 21.69 C17.01 12.64, 7.52 4.7, 2.59 -3.25 M25.43 19.65 C16.7 11.23, 6.11 3.29, 1.8 -2.16 M146.3 120.64 C111.92 88.01, 74.19 57.6, 51.45 36.61 M148.85 121.72 C118.59 95.47, 90.17 69.75, 52.96 37.11 M28.45 15.07 C17.83 7, 12.27 2.52, 6.21 -0.23 M25.86 15.23 C21.88 10.57, 17.75 6.17, 7.13 -1.17 M154.51 121.09 C112.48 86.91, 72.62 49.79, 51.47 31.56 M153.5 121.51 C116.83 87.08, 78.04 55.63, 53.12 32.9 M24.99 10.84 C24.25 5.42, 18.07 2.59, 11.45 -0.79 M26.29 8.8 C20.46 5.18, 16.29 0.34, 12.91 -2.31 M160.89 122.76 C116.88 84.89, 75.79 48.47, 52.45 29.33 M160.02 120.63 C136.67 100.05, 111.83 77.56, 52.71 28.08 M26.13 3.62 C24.56 2.11, 23 0.44, 17.57 -3.1 M26.38 4.66 C23.84 2.61, 21.4 0.19, 18.76 -2.85 M168.01 121.78 C148.48 104.71, 125.89 87.47, 95.55 57.32 M167.45 121.18 C150.4 106.01, 132.74 92.58, 96.26 58.93 M94.29 60.25 C78.99 43.12, 61.6 29.49, 53.72 21.69 M95.74 60.14 C85.67 51.3, 75.11 41.64, 53.58 21.79 M171.4 120.54 C147.16 100.7, 121.72 78.51, 101.15 59.67 M172.28 120.56 C151.33 101.88, 129.52 84.79, 100.94 58.47 M96.14 51.76 C77.86 39.87, 63.05 26.62, 51.25 17.89 M94.99 52.74 C80.49 41.9, 67.12 29.15, 53.79 16.8 M178.26 119.15 C154.62 102.33, 130.53 79.44, 107.28 60.48 M179.12 120.92 C160.42 103.94, 140.89 88.29, 107.07 59.74 M93.33 48.84 C81.99 33.64, 65.38 21.43, 53.95 12.01 M93.88 47.33 C84.25 38.49, 74.8 29.16, 52.42 11.61 M185.47 120.64 C159.29 97.69, 130.34 72.83, 113.42 60.08 M184.77 120.34 C163.21 99.91, 139.47 80.48, 113.88 58.03 M95.82 41.53 C83.67 32.82, 73.82 20.74, 53.17 7.66 M95.78 43.26 C86.06 34.99, 76.09 25.68, 53.53 5.54 M190.36 122.38 C175.92 106.11, 156.77 91.91, 118.73 59.71 M190.9 120.32 C165.42 99.67, 141.53 77.61, 119.76 59.56 M96.04 36.2 C80.76 26.24, 64.2 13.5, 52.66 2.77 M93.93 38.27 C85.64 29.83, 78 21.64, 54.09 1.28 M196.95 122.07 C178.73 104.95, 157.98 86.9, 124.83 60.96 M196.35 121.66 C182.19 106.03, 165.79 93.42, 127.01 58.95 M94.1 32.16 C87.16 23.88, 78.28 17.14, 57.13 -2.44 M94.77 33.08 C83.38 21.43, 71.31 12.37, 54.48 -3.17 M202.19 119.67 C183 100.93, 164.9 85.9, 123.97 54.5 M203.4 120.5 C179.85 100.74, 156.59 80.3, 126.04 53.93 M95.79 28.42 C86.66 20.63, 81.17 15.15, 63.49 -2.12 M93.88 26.12 C86.29 18.76, 76.66 10.86, 61.76 -3.13 M210.71 120.84 C190.87 105.39, 170.73 86.39, 126.68 49.11 M208.42 121.69 C183.21 98.41, 156.03 75.94, 125 48.34 M94.6 20.92 C87.92 13.51, 79.15 7.08, 67.8 -0.68 M95.99 20.78 C85.43 14.03, 76.06 5.21, 68.58 -1.17 M216.86 122.17 C183.48 93.15, 147.72 60.3, 125.37 41.97 M216 120.05 C188.98 98.6, 163.02 75.32, 125.41 42.5 M93.69 17.27 C86.98 11.14, 80.61 3.23, 72.55 -2.93 M94.98 16.19 C86.22 9.73, 79.21 3.31, 74.54 -3.21 M223.38 122.6 C187.74 90.93, 155.75 62.51, 125.91 37.24 M221.6 121.78 C201.42 103.58, 178.97 84.29, 125.69 37.72 M95.93 10.05 C91.1 5.85, 84.29 0.58, 81.21 -3.4 M95.92 10.41 C89.53 6.25, 84.67 1.3, 80.64 -1.88 M227.74 121.39 C201.4 97.71, 172.55 72.79, 155.53 58.33 M227.84 120.41 C211.04 105.38, 193.61 91.43, 155.11 58.56 M154.99 56.64 C151.29 50.73, 144.87 45.86, 124.16 31.18 M156.12 58.41 C146.71 50.65, 136.93 41.93, 125.28 31.06 M93.8 4.82 C92.46 2.43, 88.41 -0.47, 86.47 -2.19 M95.15 5.22 C92.09 2.62, 89.21 0.71, 85.88 -1.63 M234.58 119.53 C208.68 96.8, 184.26 74.46, 161.94 56.91 M234.44 120.25 C211.15 100.65, 188.67 82.36, 161.48 57.67 M155.06 54.01 C145.49 43.69, 133.83 35.05, 125.64 26.97 M154.41 52.67 C143.92 42.86, 130.17 30.95, 124.45 25.03 M240.32 118.83 C218.15 100.9, 195.28 85.1, 165.9 59.22 M239.07 121.66 C215.77 99.46, 190.61 78.9, 167.56 58.37 M153.21 47.15 C140.55 37.95, 128.34 24.13, 122.64 21.86 M154.62 47.34 C147 40.46, 139.11 33.31, 124.31 20.52 M245.51 122.68 C229.94 105.91, 216.26 92.94, 172.47 59.07 M245.4 120.42 C231.42 106.35, 214.27 93.19, 173.35 58.17 M153.63 42.05 C145.74 32.89, 134.94 25.26, 125.34 15.37 M155.28 41.79 C142.5 31.74, 130.96 21.99, 124.74 15.46 M254.21 121.25 C223.5 95.13, 196.58 71.51, 179.5 56.85 M252.99 120.37 C224.05 95.49, 193.99 71.82, 178.62 58.54 M155.95 36.18 C143.01 28.34, 133.61 17.09, 125.47 11.54 M153.56 36.93 C142.36 26.16, 130.31 16.28, 124.86 9.24 M259.14 118.99 C238.98 105.52, 222.17 91.18, 188.87 57.89 M257.58 121.69 C233.77 100.07, 209.16 79.93, 187.58 58.9 M155.26 31.99 C147.16 25.64, 137.55 17.78, 121.71 2.72 M154.52 31.67 C143.38 21.17, 129.63 8.59, 124.17 3.58 M257.93 115.41 C238.44 100.75, 220.27 83.27, 195.28 59.28 M259.29 115.63 C234.82 92.75, 209.87 72.82, 193.8 59.47 M155.06 26.25 C147.24 18.13, 140.18 13, 125.41 -0.43 M154.13 26.31 C147.66 18.36, 138.73 12.32, 124.37 -1.48 M257.99 112.21 C232.87 88.78, 211.78 69.44, 197.98 58.95 M257.43 109.64 C243.64 96.3, 228.46 82.84, 199.78 60.35 M151.82 18.03 C148.38 14.4, 142.73 10.71, 129.16 -1 M153.77 20.43 C146.1 12.89, 137.51 5.77, 129.8 -1.59 M256.35 106.75 C243.15 91.49, 229.62 79.45, 205.58 58.57 M258.47 104.9 C238.88 88.84, 220.5 72.02, 205.94 58.39 M151.91 14.05 C145.98 8.67, 140.51 1.04, 134.14 -2.28 M153.2 14.35 C146.28 8.16, 140.8 3.49, 136.92 -0.58 M259.76 100.09 C245.91 89.81, 236.63 79.86, 212.43 58.73 M258.02 100.31 C243.31 88.07, 229.53 75.57, 212.84 60.42 M153.32 9.76 C149.88 4.56, 146.07 0.85, 142.52 -1.7 M154.05 8.52 C150.94 6.67, 147.96 3.45, 142.57 -0.71 M258.63 94.25 C248.8 86.64, 236.49 74.97, 215.03 56.39 M258.84 93.73 C244.02 81.94, 229.03 69.52, 215.68 58.65 M153.52 3.57 C152.46 2.89, 150.89 1.45, 148.28 -0.83 M153.31 3.62 C151.55 1.77, 149.94 0.63, 149.1 -0.3 M257.07 90.91 C246.61 81.13, 238.07 70.85, 218.05 54.17 M258.85 88.76 C242.38 74.95, 227.75 62.87, 216.33 51.98 M258.45 82.27 C245.63 71.65, 232.09 62.15, 214.19 48.03 M257.54 84.68 C249.2 76.46, 241.47 67.78, 216.59 46.62 M258.48 79.04 C243.75 62.19, 224.42 49.68, 217.02 41.24 M258.74 78.3 C246.64 68.27, 234.62 56.74, 215.95 40.92 M257.91 71.7 C243.78 61.62, 232.09 49.45, 215.05 36.84 M257.5 72.5 C248.46 64.23, 236.33 54.6, 215.25 36.25 M257.5 67.27 C247.46 59.34, 236.55 49.5, 217.43 29.11 M257.89 66.92 C245.64 59.24, 234.73 49.26, 216.12 31.32 M256.97 63.65 C245.68 51.61, 231.59 37.03, 215.37 24.76 M257.53 63.69 C244.89 50.66, 230.44 37.1, 216.11 24.58 M257.79 57.53 C244.57 45.59, 233.6 39.6, 216.77 21.97 M258.18 56.56 C244.68 48.12, 234.51 37.57, 214.94 20.73 M258.14 50.72 C242.1 35.95, 222.81 24.49, 216.78 13.61 M258.33 52.62 C244.08 38.85, 229.24 26.56, 214.85 15.09 M259.71 46.07 C246.82 37.79, 238.57 28.26, 215.24 8.3 M257.68 45.49 C242.34 33.25, 227.24 18.67, 215.66 8.07 M258.63 41.82 C248.61 34.06, 240.6 24.29, 215.31 5.55 M257.78 40.98 C242.83 28.78, 227.94 14.57, 215.05 3.6 M256.3 35.46 C240.94 21.91, 226.07 8.28, 214.01 -1.1 M258.57 36.32 C240.28 20.55, 224.06 6.89, 214.93 -2.43 M258.32 30.16 C245.3 21.17, 233.23 9.96, 221.73 -1.71 M258.92 31.8 C244.24 18.38, 230.09 6.04, 220.48 -2.47 M257.31 26.57 C247.47 15.51, 235.61 6.83, 226.7 -2.61 M257.22 26.01 C250.44 18.32, 244.08 12.55, 226.39 -2.66 M259.8 21.27 C250.04 12.93, 244.53 8, 231.72 -3.42 M257.94 19.47 C249.03 13.06, 240.68 5.07, 233.28 -2.6 M257.14 14.6 C254.18 11.15, 246.63 7.12, 238.27 -0.64 M258.15 13.87 C252.64 11.26, 249.01 8.23, 239.44 -1.54 M256.58 9.1 C252.6 6.27, 248.04 0.54, 245.97 -2.85 M258.14 9.7 C254.43 6.76, 250.32 2.52, 244.35 -2.4 M259.01 5.14 C255.48 3.62, 253.88 0.32, 251.61 -1.37 M258.57 4.4 C255.6 2.62, 253.09 0.1, 250.76 -2.04" stroke="#868e96" stroke-width="0.5" fill="none"></path><path d="M1.93 1.58 C0.8 44.01, -0.44 89.83, 3.02 122.24 M0.65 -0.55 C-1.05 28.12, 0.75 57.47, 1.64 121.24 M2.33 121.6 C70.77 121.84, 140.11 119.82, 257.55 120.66 M2.04 121.29 C60.7 119.62, 119.28 119.66, 257.26 120.52 M258.52 122.57 C256.77 85.49, 256.9 52.56, 258.58 0.54 M257.91 121.99 C258.84 87.78, 259.01 52.75, 257.74 -0.7 M257.6 -1.95 C247.47 0.45, 234.98 -0.91, 211.66 -1.55 M258.73 -0.22 C244.71 0.62, 231.4 0.18, 214.09 -0.44 M214.47 -0.52 C212.09 18.29, 213.68 37.22, 216.19 57.68 M213.04 0.13 C214.81 13.72, 214.99 26.29, 214.6 59.42 M215.14 60.21 C208.08 60.62, 198.22 57.62, 188.32 59.4 M214.76 59.54 C204.41 60.11, 195.21 59.97, 187.77 59.68 M187.3 58.37 C178.18 61.19, 173.87 60.42, 151.8 59.84 M187.37 59.57 C177.87 59.77, 167.47 59.66, 152.83 60.36 M155.23 62.15 C153.74 46.62, 154.84 36.31, 149.42 1.27 M154.59 59.5 C152.47 44.26, 153.74 30.96, 150.78 0.92 M151.26 0.81 C141.65 2.51, 131.1 2.03, 122.9 0.89 M151.42 0.59 C144.19 0.6, 136.83 0.79, 122.05 0.55 M123.62 1.5 C123.9 22.13, 125.12 42.32, 124.43 58.58 M121.74 0.26 C122.21 14.45, 123.99 29.39, 125.69 61.14 M124.05 61.07 C118.6 58.51, 111.03 61.37, 95.83 58.61 M125.6 61.17 C118.52 60.99, 110.89 59.73, 94.19 60.39 M94.88 59.77 C93.55 39.99, 95.9 24.81, 95.16 2.78 M94 60.3 C94.93 35.86, 94.31 12.47, 93.87 2.19 M91.73 2.37 C80.37 -0.81, 69.23 0.11, 52.43 -1.09 M93.21 1.3 C77.28 0.52, 61.78 0.92, 52.17 0.45 M51.12 -1.36 C50.6 21.76, 52.03 42.22, 51.14 59.81 M52.16 0.35 C52.05 16.27, 52.98 30.58, 52.92 59.4 M52.09 58.38 C44.08 59.66, 33.19 59.83, 26.6 59.19 M51.68 58.44 C43.08 58.81, 33.71 58.96, 24.4 58.79 M26.48 59.25 C26.02 45.72, 23.21 30.97, 26.69 -2.23 M24.52 58.58 C24.48 36.36, 25.09 12.39, 25.68 -2.67 M23.69 -3.05 C18.67 -1.7, 9.23 -1.05, -1.27 -0.79 M25.74 -2.75 C18.84 -2.39, 14.31 -1.5, -0.71 -0.11 M0 0 C0 0, 0 0, 0 0 M0 0 C0 0, 0 0, 0 0" stroke="#000000" stroke-width="1" fill="none"></path></g></g><g stroke-linecap="round" transform="translate(108.82979401458897 221.30389651374344) rotate(0 10.056401462412055 34.34805174312828)"><path d="M0 0 C0 0, 0 0, 0 0 M0 0 C0 0, 0 0, 0 0 M0.06 7.07 C1.56 4.85, 3.21 1.75, 4.72 -0.09 M-0.19 6.19 C1.58 3.86, 3.54 1.91, 5.3 0.41 M0.37 13.45 C3.43 9.12, 7.26 4.67, 9.98 -0.7 M-0.49 12.64 C2 9.18, 4.65 5.39, 10.14 -0.53 M-0.32 17.17 C5.14 9.59, 13.2 4.18, 17.26 -1.58 M-0.52 17.72 C3.1 14.56, 5.53 11.43, 16.42 0.88 M-1.39 25.93 C9.93 15.89, 16.77 6.28, 19.32 -0.14 M-0.19 23.25 C7.23 16.54, 13.61 9.3, 20.02 0.09 M-1.12 29.65 C9.13 22.48, 17.5 9.77, 21.59 6.93 M-0.81 31.12 C8.89 20.57, 16.12 10.54, 20.54 7.21 M1.29 35.28 C6.6 29.95, 16 20.9, 21.44 12.83 M-1.15 37.5 C7.17 29.66, 13.27 20.55, 20.51 12.42 M0.92 42.35 C5.18 36.47, 9.31 32.29, 21.36 18.97 M0.82 41.84 C7.49 34.22, 16.62 24.94, 20.02 20 M-1.76 50.05 C5.85 43.97, 12.91 36.73, 21.36 24.03 M0.46 49.66 C7.54 40.8, 14.49 31.64, 20.3 25.1 M0.9 52.83 C7.89 47.21, 15.37 40.9, 22.12 31.14 M-0.55 53.85 C5.28 48.05, 9.37 43.04, 20.32 30.6 M-0.46 59.37 C2.71 53.74, 8.2 50.98, 22.73 35.44 M1.01 61.27 C5.1 55.47, 10.47 50.39, 21.71 36.36 M1.57 68.08 C6 60.39, 8.28 58.46, 20.54 43.02 M-1.11 68.01 C7.95 58.57, 15.75 48.5, 20.02 43.83 M0.23 72.06 C8.31 62.95, 10.32 57.49, 20.89 50.49 M1.83 69.99 C7.44 64.21, 13.98 57.45, 19.73 49.33 M7.83 68.45 C9.02 67.13, 14.39 62.03, 20.24 56.13 M8.09 70.02 C12.4 65.04, 16.38 61.13, 20.72 54.9 M13.64 70.49 C15.56 67.44, 19.35 64.23, 21.09 62.47 M13.02 71.11 C14.69 68.42, 17.94 64.9, 20.67 61.3 M18.27 69.91 C19.17 69.32, 20.19 68.31, 20.64 67.16 M18.37 70.46 C19.12 69.3, 19.91 68.24, 20.87 67.47 M-0.05 68.65 C-0.05 68.65, -0.05 68.65, -0.05 68.65 M-0.05 68.65 C-0.05 68.65, -0.05 68.65, -0.05 68.65 M6.44 69.23 C4.91 67.88, 3.51 67.07, 0.47 62.94 M6.48 69.14 C4.58 66.86, 1.96 65.35, 0.31 63.63 M11.75 67.7 C8.22 67.15, 3.62 62.29, 1.02 59.58 M12.43 67.83 C9.37 65.71, 5.03 63.35, -0.58 58.3 M17.52 68.16 C15.94 63.5, 10.42 60.81, 0.98 51.91 M17.82 68.52 C12.66 63.74, 8.43 59.28, 0.77 52.41 M22.6 67.37 C16.72 59.45, 10.04 55.26, -0.4 47.57 M20.81 66.55 C12.5 59.27, 5.44 52.18, 0.45 46.83 M23.23 60.88 C16.45 57.07, 7 51.95, 0.15 44.14 M22.5 60.63 C16.35 56.26, 9.88 51.21, -0.01 41.53 M21.12 56.05 C14.94 49.18, 9.8 46.19, -0.13 37.72 M21.56 55.33 C13.15 48.16, 5.05 41.55, -0.65 36.56 M21.51 50.17 C14.65 42.39, 8.41 37.25, 1.41 33.48 M21.74 50.8 C15.89 46.53, 10.55 40.42, -0.71 31.93 M20 45.27 C14.7 39.93, 11.3 33.19, -0.06 25.22 M22.03 45.4 C14.87 38.68, 10.35 34.3, -0.26 26.89 M21.74 38.35 C14.77 35.15, 11.08 28.13, -1.72 21.56 M21.17 39.51 C16.67 35.37, 8.69 28.38, 0.31 21.77 M20.5 32.92 C15.74 30.76, 9.46 24.04, -2.01 13.54 M22.01 34.81 C15.71 29.56, 9.74 24.66, 0.67 15.3 M21.83 29.16 C16.26 25.25, 8.4 16.54, -1.44 8.73 M22 30.12 C16.92 23.94, 9 18.4, 1.04 10.38 M22.17 23.56 C15.18 20.52, 11.98 13.51, 0.47 6.86 M21.6 24.72 C12.17 17.32, 4.91 9.26, 0.57 5.43 M23.99 19.02 C15.51 13.87, 12.7 10.64, 0.37 -2.02 M22.75 18.14 C16.39 14.03, 10.42 9.19, -0.17 0.21 M22.89 12.48 C13.99 9.98, 11.64 4.16, 4.96 -0.05 M21.26 13.49 C17.37 9.81, 13.5 5.8, 5.99 0.99 M22.47 8.77 C18.85 6.36, 15.22 1.37, 12.21 0.91 M21.53 8.91 C18.96 5.51, 17.29 4.35, 11.67 -0.48 M22.63 3.04 C20.73 2.68, 19.88 1.26, 18.17 0.26 M22.38 3.29 C20.72 1.98, 19.52 1.16, 18.53 0.16" stroke="#82c91e" stroke-width="0.5" fill="none"></path><path d="M-0.57 -0.42 C4.49 -1.27, 10.39 -0.14, 18.71 -1.9 M0.04 0.84 C6.44 -0.83, 10.01 -0.99, 19.71 0.43 M21.53 1.68 C18.02 22.38, 18.39 48.54, 21.62 70.64 M19.57 0.04 C20.79 22.99, 19.79 45.42, 20.48 68.48 M21.61 70.31 C16.55 70.83, 7.98 68.93, -0.31 68.9 M19.4 69.02 C14.11 68.68, 5.63 68.37, -0.91 69.28 M-0.6 68.51 C-1.11 53.54, 0.06 33.22, -0.68 0.19 M0.48 68.25 C-0.05 50.05, 0.04 29.94, -0.75 -0.98" stroke="#2b8a3e" stroke-width="1" fill="none"></path></g><g stroke-linecap="round" transform="translate(173.6377145501324 221.30389651374344) rotate(0 8.939023522143998 34.34805174312828)"><path d="M0 0 C0 0, 0 0, 0 0 M0 0 C0 0, 0 0, 0 0 M-0.28 7.02 C1.35 5.13, 3.07 2.31, 5.1 1.06 M-0.01 6.24 C0.99 4.51, 2.73 3.08, 4.67 0.66 M-1.18 11.06 C1.35 10.89, 4.36 7.1, 10.48 -1.05 M-0.01 12.7 C2.22 8.05, 4.98 5.38, 10.32 -0.61 M0.36 20.04 C5.57 15.1, 7.77 8.59, 13.96 2.18 M0.08 17.8 C5.38 11.76, 12.29 5.03, 15.16 -0.51 M1.56 22.92 C5.74 18.3, 13.75 8.28, 18.82 0.61 M-0.48 24.38 C7.05 17.34, 12.56 8.78, 19.14 2.08 M-1.26 29.55 C8.31 24.58, 12.79 14.88, 21.24 6.24 M0.89 30.83 C4.84 24.89, 10.58 19.91, 18.79 8.46 M-1.35 36.43 C6.79 26.22, 15.79 17.16, 20.86 13.31 M-0.32 37.32 C6.54 30, 14.09 20.49, 20.76 12.8 M1.34 41.6 C6.73 36.18, 11.35 30.29, 18.19 21.01 M0.7 42.76 C5.8 35.69, 12.5 28.88, 20.4 20.62 M-0.74 47.78 C7.12 41.65, 11.37 33.72, 20.19 24.55 M0.57 49.67 C6.61 40.25, 14.01 33.99, 18.74 25.56 M-0.98 53.97 C6.22 45.24, 15.61 37.87, 19.49 30.33 M0.74 55.43 C3.81 49.4, 9.2 44.71, 20.95 32.23 M1.24 62.36 C5.66 51.5, 13.67 45.62, 21.51 39.04 M0.68 60.86 C7.86 52.84, 15.74 43.34, 18.83 38.97 M-1.72 65.91 C7.73 58.91, 15.2 52.37, 18.2 45.29 M-1.09 67.56 C7.95 59.16, 15.15 49.98, 19.81 43.22 M3.37 69.24 C5.55 64.79, 11.41 60.31, 19.9 48.47 M1.46 70.42 C6.32 66.4, 10.18 61.41, 20.16 50.04 M7.77 70.06 C11.58 66.98, 17.7 59.92, 20.91 56.44 M8.26 70.7 C11.65 66.46, 13.78 62.63, 19.98 57.37 M11.96 70.8 C13.68 69.5, 16.18 67.56, 19.65 61.32 M13.05 70.19 C14.39 68.73, 16.36 66.54, 19.91 62.83 M-0.05 68.65 C-0.05 68.65, -0.05 68.65, -0.05 68.65 M-0.05 68.65 C-0.05 68.65, -0.05 68.65, -0.05 68.65 M5.81 68.57 C4.29 66.92, 3.47 66.89, 0.4 63.98 M6.55 69 C4.24 67.53, 3.03 66.23, 0.44 63.89 M11.61 68.52 C7.5 64.39, 3.1 61.78, -0.33 57.2 M11.88 69.07 C9.25 65.22, 4.86 62.9, 0.35 57.33 M19.6 67.55 C12.2 61.47, 2.63 58.32, -0.59 52.41 M18.08 69.13 C10.97 62.42, 5.08 56.01, -0.29 52.77 M16.06 64.12 C12.89 59.72, 11.71 54.37, 0.71 48.34 M18.29 63 C11.14 58.03, 3.57 52.02, -1.08 47.52 M18.69 59.29 C13.51 55.09, 11 53.02, 1.34 41.85 M19.34 58.1 C12.77 52.09, 4.83 47.41, 0.61 41.61 M17.26 52.01 C11.14 47.51, 6.62 43.45, -0.77 37.03 M18.5 52.52 C13.79 49.13, 8.89 43.28, -0.33 36.3 M18.71 46.53 C13.16 43.97, 8.76 38.57, -0.38 31.14 M17.93 48.12 C14.02 42.77, 7.67 38.67, -0.15 31.77 M18.21 40.04 C12.93 37.04, 7.21 34.53, -1.88 26.25 M17.13 41.94 C12.91 37.87, 8.61 33.24, 0.15 26.38 M18.35 36.74 C15.8 32.94, 11.54 31.54, -0.14 19.32 M17.39 35.94 C14.1 33.06, 9.26 29.45, -0.71 20.48 M16.23 31.52 C12.01 24.69, 4.26 16.95, -1.39 13.89 M18.17 30.35 C11 25.9, 7.19 21.15, 0.12 15.78 M18.61 28.05 C12.41 21.68, 5.57 16.94, -0.06 10.14 M17.62 25.47 C11.04 20.68, 4.78 15.67, 0.11 11.09 M17 22.43 C10.57 12.93, 5.63 9.94, 0.28 4.54 M16.94 20.98 C14.49 17.85, 9.38 13.15, -0.29 5.69 M18.81 17.29 C15.28 11.44, 8.87 10.65, 2.1 0 M18.87 15.76 C12.75 11.5, 9.06 8.05, 0.86 -0.88 M18.31 9.58 C14.69 7.93, 11 4.64, 7.47 -0.45 M18.03 9.41 C15.39 7.74, 12.54 6.24, 6.25 0.31 M17.54 4.59 C17.34 4.2, 15.67 2.35, 12.46 0.05 M17.99 5.02 C16.41 3.04, 14.37 1.67, 11.88 0.14" stroke="#7950f2" stroke-width="0.5" fill="none"></path><path d="M-1.44 -0.72 C7.82 1.07, 12.79 0.77, 19.15 1.5 M0.21 0.67 C4.81 0.4, 8.52 -0.46, 17.4 0.04 M17.26 0.73 C17.54 21, 16.19 45.43, 19.37 70.31 M17.91 -0.15 C18.66 26.48, 17.72 52.11, 17.16 69.02 M17.26 67.07 C11.8 67.66, 2.14 68.55, -0.54 68.53 M17.21 68.39 C14.11 68.45, 10.04 68.94, 0.43 68.29 M-1.12 67.2 C-2.27 47.4, 0.67 29.52, 1.28 -0.88 M-0.36 68.24 C0.03 45.11, 0.86 22.79, -0.2 0.91" stroke="#5f3dc4" stroke-width="1" fill="none"></path></g><g stroke-linecap="round" transform="translate(203.4344596239457 220.55897788689663) rotate(0 7.076726955030608 34.720511056551686)"><path d="M0 0 C0 0, 0 0, 0 0 M0 0 C0 0, 0 0, 0 0 M-0.99 6.46 C1.72 3.89, 4.18 2.32, 4.88 -0.14 M-0.65 6.47 C0.94 5.3, 2.47 3.63, 4.65 0.19 M1.6 13.43 C4.68 7.13, 7.35 3.32, 11.09 -1.5 M0.29 12.01 C3.52 8.54, 6.41 4.54, 11.02 0.21 M-1.49 20.19 C7.56 11.96, 10.35 4.85, 16.78 2.39 M-0.23 18.58 C5.53 12.28, 9.68 7.73, 14.98 1.41 M0.79 25.31 C5.62 18.45, 6.48 16, 16.66 7.27 M-0.58 24.28 C3.32 20.5, 6.53 16.27, 14.86 5.92 M1.32 30.54 C4.41 26.81, 8.25 23.63, 15.99 12.19 M0.99 31.12 C3.81 26.23, 8.45 18.97, 15.78 13.7 M1.58 38.84 C4.53 31.89, 5.06 30.39, 14.44 19.24 M0.63 36.5 C3.31 32.87, 5.58 28.43, 14.5 20.37 M-0.78 41.85 C3.56 36.68, 9.25 30.78, 13.96 27.06 M-0.61 42.03 C6 36.39, 9.57 31.68, 14.65 24.79 M-0.82 46.99 C4.19 42.22, 10.83 35.16, 13.9 29.96 M-0.34 48.33 C5.48 44.21, 8.76 38.33, 15.13 31.93 M-0.59 53.09 C5.79 46.56, 12.76 40.54, 16.79 37.53 M0.26 54.32 C4.2 49.53, 7.67 46.65, 15.19 38.12 M-1.22 61.29 C5.5 54.28, 12.68 47.28, 16.14 45.56 M-0.42 61.85 C5.19 56.62, 7.45 50.76, 15.61 43.66 M-1.27 66.64 C2.53 63.98, 5.84 56.82, 14.23 51.6 M0.61 66.91 C4.06 63.21, 6.72 59, 15.7 50.07 M0.49 70.96 C7.6 65.36, 10.64 62.8, 17.22 54.12 M1.42 70.28 C6.7 65.92, 10.61 60.71, 15.81 54.97 M6.16 72.25 C8.8 68.3, 11.14 66.09, 14.58 63.02 M7.01 71.21 C10.18 67.86, 12.89 64.32, 15.45 62.55 M12.87 71.09 C13.29 69.93, 14.59 68.49, 15.39 67.43 M12.63 70.5 C13.27 69.83, 14.09 69.17, 15.48 67.84 M0.33 69.73 C0.33 69.73, 0.33 69.73, 0.33 69.73 M0.33 69.73 C0.33 69.73, 0.33 69.73, 0.33 69.73 M6.09 68.66 C3.57 68.46, 2.33 67.02, 0.02 64.15 M5.84 68.97 C4.48 67.71, 2.75 66.7, -0.43 64.17 M11.52 69.31 C7.9 66.74, 5.2 63.59, 1.62 59.97 M12.29 68.86 C8.07 65.88, 5 62.03, -0.28 58.39 M16.17 66.15 C11.4 62.35, 7.6 59.76, 1.08 52.37 M14.88 66.98 C11.42 62.82, 6.39 57.94, 0.84 53.92 M15.3 63.04 C11.02 57.32, 7.55 53.91, -0.72 48.27 M16.75 61.96 C11.2 58.46, 5.82 53.82, -0.62 49.38 M16.2 58.56 C12.7 52.69, 8.28 49.48, 0.22 44.64 M15.99 55.68 C10.74 50.75, 3.88 46.37, -0.7 42.46 M17.5 51.63 C12.98 48.21, 9.84 46.96, 0.6 37.66 M16.98 51.63 C10.66 46.7, 3.66 41.22, 0.67 38.8 M15.85 44.34 C9.23 38.85, 4.89 33.56, 1.22 30.57 M16.55 45.32 C10.76 41.86, 5.91 37.28, -0.04 33.12 M17.05 40.06 C11.54 36.31, 1.76 29.86, 2.19 27.74 M16.45 40.07 C10.66 37.34, 5.63 32.17, 0.47 27.02 M15.16 35.1 C9.22 30.05, 7.18 25.79, -2.01 22.36 M15.72 36.33 C10.45 30.97, 6.19 26.17, 0.77 22.29 M15.64 28.78 C11.22 26.67, 7.6 23.56, 0.64 18.54 M15.21 29.51 C10.2 25.42, 4.7 20.75, 1.14 16.74 M14.47 23.13 C9.02 20.1, 4.13 16.61, -1.2 10.91 M15.95 25.28 C11.15 21.84, 8.74 19, -0.01 11.5 M17.28 20.93 C11.7 14.99, 7.64 11.3, 0.88 6.79 M15.65 19.37 C11.13 15.8, 4.14 9.75, 0.35 6.82 M14.45 13.42 C9.21 8.31, 5.53 2.22, -1.8 1.78 M15.08 14.91 C10.19 8.46, 3.98 3.24, 0.24 -0.57 M16.24 10.22 C14.21 5.02, 7.55 1.56, 2.37 -3.97 M16.47 8.3 C10.57 6.13, 6.42 0.96, 1.51 -1.85 M16.56 4.2 C14.18 2.79, 13.57 0.8, 9.44 -1.66 M16.65 4.44 C13.74 1.66, 11.29 -0.55, 9.14 -2.33" stroke="#fa5252" stroke-width="0.5" fill="none"></path><path d="M-0.82 0 C3.46 0.22, 7.25 -0.87, 14.32 0.76 M0.23 -0.7 C4.14 -0.43, 8.28 -0.32, 13.96 0.14 M14.16 -0.54 C13.43 16.78, 13.88 32.83, 15.09 68.66 M13.97 0.3 C14.39 25.03, 14.59 51.01, 14.75 69.58 M13.97 70.51 C10.01 69.49, 7.58 69.32, 1.21 68.32 M14.02 68.84 C10.05 69.59, 4.97 68.75, 0.65 69.46 M1.39 71.13 C-0.84 47.29, -1.68 28.79, 1.16 -1.79 M-0.24 69.53 C-1.03 54.52, 0.74 41.59, -0.78 -0.83" stroke="#d9480f" stroke-width="1" fill="none"></path></g><g stroke-linecap="round" transform="translate(210 30) rotate(0 110 70)"><path d="M0 0 C0 0, 0 0, 0 0 M0 0 C0 0, 0 0, 0 0 M-0.72 6.04 C2.1 4.23, 3.28 1.54, 5.38 0.53 M-0.06 6.58 C0.64 4.99, 1.69 3.5, 5.29 0.64 M-0.9 13.4 C3.84 10.07, 6.12 6.57, 9.41 -1.2 M0.39 12.05 C3.99 8.49, 6.36 4.91, 11.22 -0.59 M-0.66 20.3 C3.6 13.15, 9.25 4.51, 14.32 1.19 M-0.39 19.05 C5.14 12.25, 10.81 5.66, 14.81 0.62 M-0.98 23.38 C5.88 17.18, 9.67 10.59, 21.83 -0.54 M1.17 23.83 C7.96 14.55, 15.9 6.43, 21.7 0.6 M-0.04 28.58 C8.08 20.93, 18.84 11.02, 26.83 1.43 M0.66 30.19 C7.19 23.05, 11.97 16.01, 26.76 0.44 M0.88 36.75 C6.3 26.63, 15.57 19.11, 33.73 -0.11 M0.74 36.84 C12.83 22.46, 23.96 7.46, 31.59 -0.51 M0.05 43.37 C14.86 25.05, 28.87 7.57, 35.71 -0.6 M-0.16 42.17 C10.44 32.31, 19.04 21.63, 35.97 -0.29 M-1.82 49.97 C13.59 35.21, 26.6 18.36, 40.86 -0.62 M0.73 48.88 C14.98 32.27, 30.62 14.14, 41.72 0.06 M-0.09 55.96 C17.69 32.93, 37.6 14.01, 47.83 1.31 M-0.3 55.22 C11.34 43.05, 21.36 29.03, 47.96 0.98 M1.42 61.78 C10.05 49.54, 23.18 34.88, 51.94 -0.21 M-0.12 61.38 C12.81 47.38, 23.69 32.68, 52.96 0.77 M-0.12 68.75 C20.57 43.41, 39.06 19.59, 56.79 1.71 M0.35 66.69 C12.63 52.01, 25.69 38.38, 57.43 0.11 M0.41 74.46 C17.51 50.49, 39.87 30.59, 64.4 1.32 M0.76 72.33 C20.42 48.27, 43.16 22.97, 64.33 0.42 M-1.07 80.15 C18.66 60.84, 35.36 38.9, 66.85 -0.57 M-0.04 80 C21.48 53.71, 42.52 29.66, 68.22 0.35 M-0.33 86.59 C27.86 50.12, 59.36 16.69, 76.35 -1.54 M1.1 85.1 C21.08 61.21, 42.34 36.06, 75 0.16 M-1.23 93.19 C26.28 59.84, 53.47 27.53, 80.95 1.63 M0.95 91.18 C18.28 68.49, 37.75 46.23, 79.32 0.25 M1.75 97.86 C21.73 72.29, 43.47 46.98, 86.58 0.03 M-0.9 97.12 C21.21 70.97, 42.63 46.04, 84.3 -0.52 M-1.56 104.41 C18.46 80.38, 36.48 58.62, 88.73 -0.21 M0.5 103.84 C31.01 66.57, 63.16 30.23, 90.9 -0.27 M1.85 109.95 C29.83 73, 59.77 36.26, 94.57 1.16 M0.11 108.94 C31.3 71.92, 64.8 35.3, 95.71 0.22 M1.67 116.7 C36.29 76.74, 73.83 32.16, 102.54 1.68 M-0.01 115.94 C25.05 87.34, 49.14 59.06, 100.27 0.05 M-0.12 123.17 C25.2 95.21, 46.92 71.27, 104.5 -0.73 M0.67 122.68 C40.54 75.1, 79.84 30.86, 106.88 0.56 M0.23 128 C42.43 79.27, 85.65 30.67, 109.37 -0.6 M0.27 128.54 C38.7 83.89, 75.62 39.81, 111.9 -0.19 M-0.87 133.36 C45.81 83.42, 89.79 31.17, 116.56 -1.11 M1.12 133.07 C39.03 88.54, 77.04 46.15, 116.94 -0.23 M0.55 140.3 C26.26 107.33, 57.9 75.35, 122.93 1.35 M0.33 140.78 C38.9 98.05, 76.51 54.36, 121.41 0.96 M6.77 138.63 C41.43 98.97, 75.71 61.38, 125.62 0.56 M6.2 140.15 C42.55 97.4, 79.22 53.59, 127.16 1.21 M10.25 140.1 C49.51 94.84, 89.58 47.89, 131.61 0.27 M9.83 140.33 C40.32 106.18, 69.67 72.67, 131.59 0.78 M15.47 139.45 C39.72 112.53, 63.69 85.13, 137.26 1.41 M16.58 139.33 C58.78 89.65, 101.61 40.54, 137 0.84 M21.33 139.59 C53.72 105.71, 82.03 72.36, 142.49 1.17 M20.26 140.6 C53.25 100.8, 84.91 64.6, 142.37 -0.1 M27.28 138.65 C52.35 112.18, 77.13 81.25, 146.39 0.13 M26.82 139.4 C55.53 107.19, 83.66 74.95, 148.72 0.23 M32.95 141.21 C66.99 105.63, 96.48 64.79, 153.33 1.4 M31.77 139.28 C76.22 92.8, 119.43 42.72, 152.85 0.3 M36.24 141.32 C68.03 104.94, 98.09 69.6, 160.62 1.73 M37.89 140.47 C68.96 105.23, 99.27 68.43, 158.74 -0.74 M40.98 141.72 C86.36 89.19, 130.34 40.07, 164.59 -1.37 M42.65 140.37 C79.04 98.24, 116.54 57.05, 165.28 -0.69 M47.03 140.87 C70.81 110.28, 95.86 82.31, 168.25 1.51 M47.92 139.97 C80.2 103.91, 111.8 67.52, 169.64 0.19 M53.95 140.17 C85.75 106.16, 113.22 74.16, 175.4 -1.19 M53.35 140.26 C95.3 91.67, 135.31 46.14, 175.06 -0.42 M59.06 139.01 C88.67 106.34, 115.85 74.06, 178.26 1.11 M58.17 140.7 C87.08 108.55, 114.6 78.2, 180.16 -0.41 M65.11 141.95 C107.22 94.85, 148.21 45.09, 187.59 0.24 M64.49 139.65 C103.51 93.12, 144.1 46.32, 184.76 -0.87 M70.39 137.79 C107.46 98.05, 144.92 54.05, 192.33 0.45 M69.1 138.79 C100.43 104.03, 131.38 68.26, 191.19 0.4 M72.37 138.74 C123.72 84.88, 167.76 32.32, 197.68 1.5 M74.83 139.6 C123.11 85.42, 171.82 30.81, 196.09 -0.71 M81.14 140.29 C125.09 87.09, 166.19 39.82, 200.8 1.8 M79.65 140.48 C102.28 110.45, 127.89 82.6, 201.77 -0.12 M86.34 140.54 C112.33 109.08, 140.56 76.23, 208.87 1.51 M85.3 139.5 C117.64 105.54, 147.87 69.33, 207.94 -1.22 M88.07 139.67 C114.85 110.95, 140.91 81.35, 210.74 1.71 M89.87 141.06 C117.59 106.16, 148.05 71.16, 211.11 -0.34 M94.32 139.68 C127.43 104.7, 157.54 71.3, 219.05 -0.52 M94.96 139.09 C131.23 101.31, 166.64 60.38, 218.33 -0.38 M100.66 139.64 C130.14 105.02, 159.89 73.78, 220.55 0.58 M101.01 139.47 C136.19 99.54, 171.36 57.99, 221.26 1.2 M104.29 138.76 C144.25 100.34, 179.25 55.71, 222.22 6.5 M107.07 140.46 C137.86 100.6, 172.45 63.09, 221.9 6.75 M111.74 139.51 C141.32 104.69, 171.42 70.79, 222.79 12.63 M112.14 141.2 C155.59 88.46, 199.13 38.63, 221.86 13.87 M116.93 138.74 C141.13 109.48, 169.23 81.6, 220.3 19.39 M117 140.04 C148.91 103.25, 182.93 66.03, 221.6 19.87 M120.83 138.85 C157.66 101.66, 190.38 62.17, 219.74 26.82 M121.48 141.1 C153.87 101.48, 188.71 63.23, 221.76 25.74 M125.58 138.85 C162 101.92, 192.05 65.35, 222.5 30.52 M128.31 140.61 C148.34 116.72, 170.58 91.56, 222.23 31.28 M134.12 141.57 C161.22 109.7, 186.71 80.53, 221.22 36.96 M132.4 139.39 C152.34 116.48, 172.46 94.08, 220.8 37.82 M136.3 140.68 C156.81 115.25, 177.38 90.73, 222.77 42.87 M138.69 139.27 C166.28 108.09, 192.15 77.47, 221.75 44.89 M144.51 139.9 C160 121.11, 177.62 104.17, 221.69 51.16 M143.44 139.58 C167.65 112.85, 192.77 83.39, 220.96 49.42 M147.82 140.08 C169.03 113.44, 189.55 88.65, 219.8 57.98 M148.02 139.5 C176.17 107.99, 203.86 75.11, 221.31 56.2 M155.58 138.37 C176.24 115.36, 200.35 86.97, 219.68 60.63 M154.28 140.57 C181.58 108, 207.57 77.35, 221.73 63 M159.56 139.26 C182.08 112.44, 202.23 87.27, 223.58 68.92 M160.3 139.08 C180.98 115.56, 204.11 89.9, 221.89 67.32 M165.59 141.81 C175.79 128.42, 189.49 114.03, 220.35 72.6 M163.76 140.57 C186.92 115.42, 208.39 89.01, 220.71 75.06 M171.63 138.71 C182.17 127.47, 191.3 114.45, 222.84 81.12 M169.71 140.18 C182.24 125.77, 195.6 110.91, 221.61 79.69 M175.48 139.4 C189.92 123.03, 203.2 108.85, 219.59 86.89 M175.89 139.17 C189.42 122.86, 205.68 104.43, 221.71 86.72 M180.83 141.24 C195.4 124.75, 209.18 106.55, 220.29 93.05 M180.57 139.29 C194.7 124.41, 206.2 108.73, 221.09 92.85 M184.91 140.6 C199.6 124.6, 209.72 112.65, 222.64 96.88 M185.83 139.27 C194.69 130.82, 202.33 120.44, 221.33 98.69 M192.63 139.98 C204.03 125.06, 215.13 114.95, 223.33 105.22 M191.38 139.23 C199.63 130.79, 206.23 121.59, 222.1 105.43 M196.2 139.18 C202.64 130.48, 213.12 121.06, 223.43 110.26 M195.89 139.13 C201.05 134.18, 206.85 128.75, 222.34 110.03 M200.56 139.13 C206.67 135.7, 209.19 129.74, 220.06 116.75 M202.11 139.94 C208.01 132.1, 216.45 123.08, 221.56 117.66 M206.36 141.25 C210.08 134.83, 218.19 130.25, 219.89 121.79 M207.53 140.35 C211.82 135.22, 215.44 128.78, 221 122.89 M212.55 139.29 C215.54 135.49, 218.68 133.22, 221.88 129.98 M211.12 139.69 C215.45 136.19, 220.04 132.07, 222.09 128.55 M217.96 140.38 C219.11 138.54, 220.11 136.87, 221.18 135.13 M217.45 139.98 C218.95 138.31, 219.85 137.31, 221.5 135.5 M0.11 140.1 C0.11 140.1, 0.11 140.1, 0.11 140.1 M0.11 140.1 C0.11 140.1, 0.11 140.1, 0.11 140.1 M6.03 140.43 C4.43 137.82, 2.87 137.09, -0.5 134.26 M5.4 139.71 C4.3 138.89, 3.65 137.4, -0.48 134.13 M13.69 140.7 C8.48 136.17, 4.31 133.64, -1.14 128.16 M11.7 140.39 C7.48 135.72, 3.78 131.76, 0.09 129.46 M20.34 138.29 C11.16 132.37, 3.16 129.36, -0.34 125.37 M17.81 140.62 C10.42 135.09, 4.3 127.56, 0.39 123.19 M22.64 138.4 C14.72 130.95, 7.2 123.53, -0.7 119.78 M24.25 139.09 C14.51 132.38, 4.88 123.13, 0.27 119.24 M31.29 141.4 C19.06 132.82, 12.65 124.56, -2.2 113.28 M31.03 140.08 C22.67 132.19, 14.67 125.55, -0.87 112.54 M37.16 139.46 C27.8 132.62, 20.99 127.73, 1.89 107.48 M37.04 138.76 C26.01 131.71, 16.3 121.31, 0.22 108.22 M42.51 139.16 C26.15 127.54, 11.27 113.98, 0.37 103.93 M42.52 139.05 C27.49 126.89, 11.74 113.44, -0.1 103.46 M48.67 142.01 C35.53 129.72, 24.42 117.06, -0.8 99.17 M48.3 139.4 C31.89 124.76, 14.39 110.78, 0.48 97.92 M55.12 139.53 C36.48 123.89, 16.14 108.83, 0.62 91.87 M54.69 139.22 C34.4 124.27, 15.19 105.97, 1.04 92.1 M62.65 140.37 C45.83 124.81, 28.23 113.14, -1.19 87.36 M60.25 139.28 C39.05 121.77, 16.72 103.09, 0.72 87.23 M64.96 138.81 C42.98 120.48, 20.76 100.04, -1.28 79.97 M67.11 139.58 C51.4 125.29, 34.73 110.06, -0.68 82.91 M71.54 141.14 C54.28 125.16, 38.23 111.05, -1.02 76.92 M73.54 138.99 C51.7 121.12, 31.29 103.8, -0.2 76.37 M79.29 138.23 C48.79 112.13, 17.88 84.34, -1.23 72.71 M79.25 141.14 C49.86 114.52, 21.86 90.11, 0.91 72.05 M83.67 140.57 C56.67 115.87, 26.28 91.17, 0.66 64.98 M84.21 140.8 C54.35 110.59, 22.1 84.15, -0.29 64.91 M89.81 141.4 C67.14 121.55, 44.09 100.02, 1.56 60.91 M91.47 140.28 C57.33 109.79, 24.3 81.91, 0.15 60.01 M96.11 141.22 C69.9 113.33, 42.52 89.22, -0.49 57.03 M96.46 139.32 C71.16 116.82, 44.06 95.65, -0.39 55.76 M105.16 138.19 C81.43 121.7, 58.39 102.32, 0.6 49.69 M103.57 140.71 C78.03 118.47, 52.52 95.39, -0.48 49.61 M111.33 140.63 C79.94 113.33, 54.94 90.46, -2.17 42.85 M109.42 140.17 C81.8 114.12, 51.44 88.34, -0.18 45.19 M115.92 138.13 C70.38 97.53, 23.44 58, 2.03 38.5 M115.73 140.79 C73.15 102.71, 30.47 66.8, -0.35 40.05 M122.26 140.66 C77.37 101.82, 31.38 61.4, 0.66 32.53 M122.09 139.36 C86.72 108.05, 49.17 75.29, -0.19 34.8 M127.35 139.07 C83.1 101.38, 34.55 62.55, 0.73 29.09 M127.29 140.26 C79.86 97.01, 31.86 55.46, -0.64 28.83 M132.75 139.48 C99.69 109.19, 67.61 82.31, -0.32 24.47 M133.89 139.16 C90.93 101.1, 48.08 64.13, 0.19 23.52 M140.17 139.82 C105.79 108.74, 69.95 76.82, 0.24 17.51 M139.51 140.84 C101.61 104.54, 60.65 71.48, -0.42 17.84 M146.6 140.9 C112.39 112.36, 78.81 82.68, 1.29 13.41 M145.65 139.6 C100.05 98.19, 51.65 55.28, -1.25 11.65 M151.59 141.38 C110.76 105.57, 74.06 69.94, 0.71 6.29 M152.54 139.69 C117.41 109.02, 83.43 77.37, -0.5 7.31 M156.51 139.12 C100.28 86.36, 38.24 36.6, -1.3 2.31 M158.34 139.06 C103.54 88.96, 46.99 40.31, 0.34 2.71 M163.55 139.69 C104.95 88.36, 43.04 34.02, 0.9 -2.84 M164.02 139.18 C118.12 99.68, 71.8 58.9, 1.68 -1.08 M171.65 139.16 C124.55 101.2, 81.86 63.27, 7.63 -2.03 M171.8 140.6 C127.73 102.94, 85.53 64.88, 7.67 -0.87 M176.01 141.1 C110.61 83.65, 47.7 28.53, 14.79 -2.91 M175.81 140.17 C134.19 103.99, 94.37 67.18, 12.93 -2.14 M181.54 138.47 C151.14 110.22, 116.97 82.34, 18.47 -0.45 M182.23 140.3 C125.37 88.19, 67.15 37.56, 19.18 -0.87 M187.87 138.05 C130.21 88.44, 72.11 39.54, 26.82 -1.92 M188.87 139.57 C142.98 99.65, 97.32 59.75, 25.85 -2.22 M196.16 138.64 C135.58 85.77, 73.88 32.78, 31.96 -3.23 M195.14 140.03 C134.39 89.11, 74.24 36.3, 31.45 -2.62 M201.09 141.45 C154.4 98.6, 104.51 57.34, 36.86 -3.02 M200.73 139.59 C161.26 106.69, 121.57 71.87, 39.2 -1.02 M207.86 139.11 C156.51 96.28, 107.01 49.86, 44.44 -3.16 M206.69 139.52 C166.2 102.41, 123.4 65.63, 44.1 -1.74 M214.24 139.53 C170.23 101.84, 128.71 67.09, 50.08 -2.35 M212.88 139.9 C156.67 92, 100.07 44.39, 49.63 -1.67 M220.81 142.02 C178.2 104.35, 137.81 70.17, 54.62 -3.2 M219.19 139.49 C182.9 106.07, 144.45 71.88, 56.01 -1.43 M223.98 137.61 C171.01 92.3, 117.52 46.8, 64.09 -2.54 M221.81 137.22 C169.48 91.85, 116.17 44.78, 63.19 -1.52 M220.7 130.52 C172.75 86.99, 118.53 40.98, 67.76 -1.93 M221.22 132.2 C171.08 86.71, 120.11 41.36, 69.59 -1.28 M221.95 127.65 C168.97 78.08, 113.76 32.12, 76.51 -1.23 M223.11 126.06 C178.78 88.83, 135.25 51.08, 74.83 -1.76 M220.34 120.9 C186.11 91.32, 150.8 59.73, 82.56 -3.24 M221.1 120.11 C190.22 91.98, 157.13 64.49, 80.65 -1.72 M220.84 114.27 C181.46 76.25, 138.6 41.67, 88.38 -1.34 M222.95 115.46 C189.68 87.58, 158.6 60.31, 86.51 -1.55 M220.6 112.4 C175.19 72.24, 129.65 27.83, 94.52 -0.97 M221.54 109.97 C193.47 84.65, 163.18 58.8, 93.88 -1.72 M223.7 106.81 C188.28 79.54, 159.75 50.14, 99.08 -3.14 M223.3 105.93 C186.79 74.63, 149.56 42.82, 99.59 -0.9 M224.75 100.47 C175.34 59.49, 131.92 20.6, 104.79 -1.33 M223.57 99.94 C192.79 75.21, 161.71 48.56, 104.69 -1.53 M224.03 94.86 C185.75 61.85, 147.09 30.34, 110.21 -2.43 M221.37 95.3 C180.7 59.48, 140.62 24.53, 111.24 -1.45 M222.63 89.06 C186.92 57.91, 151.1 30.04, 117.3 -2.16 M222.24 90.46 C189.57 62.6, 156.61 34.39, 117.61 -2.06 M222.04 84.32 C193.75 57.73, 161.12 32.94, 122.32 -2.74 M221.53 84.79 C195.78 60.58, 168.3 38.38, 123.05 -2.58 M223.05 78.39 C190.65 52.72, 160.32 25.2, 131.46 -0.34 M223 78.32 C188.64 49.45, 153.47 19.5, 129.02 -2.25 M220.61 73.42 C194.42 48.67, 166.15 23.48, 135.91 -1.96 M221.33 72.92 C192.46 48.58, 162.76 22.34, 135.99 -1.93 M222.73 70.33 C205.18 54.12, 185.63 35.29, 143.08 -2.39 M222.72 67.97 C197.72 45.64, 172.97 24.81, 142.24 -1.66 M221.33 64.69 C193.43 38.21, 165.72 14.32, 148.13 -3.63 M221.45 63.58 C200.47 44.65, 181.14 27.84, 147.2 -2.84 M223.11 57.07 C210.22 46.8, 195.76 33.36, 152.93 -0.56 M222.41 58.22 C195.53 35.25, 169.1 12.57, 154 -2.53 M220.45 52.97 C206.02 40.34, 189.69 23.72, 161.61 -0.36 M221.72 51.99 C204.28 37.03, 185.84 20.28, 160.75 -1.62 M222.28 49.12 C204.83 31.65, 185.17 17.4, 167.72 -3.45 M223.25 48.22 C205.12 30.91, 188.37 15.81, 165.41 -2.41 M220.93 41.42 C203.67 25.69, 184.7 12.44, 173.37 -0.39 M223.16 40.72 C203.37 26.34, 186.71 10.77, 172.57 -2.22 M223.05 35.28 C206.38 21.08, 189.07 9.25, 176.83 -3.34 M222.55 37.45 C212.7 27.04, 202.16 17.46, 178.76 -1.52 M220.42 29.51 C207.83 21.31, 195.64 7.45, 183.41 -3.69 M221.92 31.7 C209.24 19.75, 197.39 10.69, 185.03 -2.27 M220.89 26.68 C214.41 17.31, 205.32 10.77, 189.1 0.46 M221.81 25.76 C210.58 15.34, 201.15 6.13, 190.24 -2.06 M223.23 21.02 C217.08 14.8, 209.6 9.06, 195.65 -0.57 M221.32 20.16 C216.13 14.66, 210.27 8.79, 195.89 -1.72 M223.98 16.77 C218.31 12.04, 216.22 9.4, 201.77 -1.01 M222.67 15.32 C216.78 11.08, 212.15 7.81, 202.94 -0.88 M220.55 8.22 C220.47 7.42, 213.6 4.46, 206.87 -2.94 M221.84 10.63 C217.86 6.93, 215.4 2.72, 209.03 -2.16 M221.81 5.02 C219.28 1.38, 217.36 0.34, 213.98 -2.12 M222.68 4.71 C221.21 2.89, 219.8 2.27, 215.13 -1.65" stroke="#ced4da" stroke-width="0.5" fill="none"></path><path d="M0.34 -1.1 C67.94 -2.98, 133.38 -1.58, 220.94 -0.39 M0.42 0.48 C76.11 0.3, 151.31 1.17, 220.19 0.48 M218.25 1.67 C221.52 53.83, 221.94 106.94, 218.67 140.92 M220.21 -0.93 C220.46 32.02, 218.93 63.32, 220.78 140.19 M221.09 138.51 C143.99 140.84, 63.84 140.01, -0.82 140.29 M220.41 139.45 C160.57 139.99, 99.95 139.8, -0.05 140.43 M-0.81 139.17 C-0.64 99.66, -0.27 63.22, 1.92 -1.81 M0.7 139.67 C1.21 100.92, -0.24 62.16, -0.03 -0.51" stroke="#000000" stroke-width="1" fill="none"></path></g><g stroke-linecap="round" transform="translate(230 50) rotate(0 90 10)"><path d="M0 0 C0 0, 0 0, 0 0 M0 0 C0 0, 0 0, 0 0 M-1.01 6.19 C2 4.17, 3.26 2.28, 4.67 -0.28 M-0.27 6.15 C1.35 4.41, 3.12 2.07, 4.86 0.47 M0.94 13.49 C2.54 8.32, 5.38 4.97, 11.8 0.68 M0.45 12.02 C3.16 7.15, 8.23 3.34, 11.36 0.2 M0.04 19.76 C5.04 14.04, 10.22 5.13, 14.3 1.36 M-0.08 19.01 C4.87 12.1, 9.28 7.12, 15.75 1.25 M2.32 23.82 C7.68 16.31, 13.29 7.11, 19.72 -0.68 M2.96 21.77 C7.39 16.23, 11.64 10.3, 20.6 -0.65 M9.1 21.58 C11.52 18.3, 18.41 11.62, 27.19 -1.52 M7.62 21.33 C12.41 17.15, 17.28 11.77, 26.03 -0.54 M13.1 23.49 C17.93 16.38, 24.63 11.58, 31.56 -1.7 M12.67 21.6 C19.47 14.43, 24.43 8.31, 32.43 0.06 M18.09 21.01 C26.08 15.01, 33.33 5.8, 35.39 1.17 M16.86 22.85 C25.62 13.5, 32.57 6.47, 35.95 -0.35 M21.76 21.49 C30.15 16.65, 35.88 6.69, 43.01 -0.51 M23.45 21.81 C31.58 13.25, 38.24 3.57, 42.31 -0.81 M27.36 23.3 C34.48 13.47, 41.24 5.6, 48.16 -1.19 M27.53 22.24 C34.77 14.93, 39.11 10.09, 48.11 0.53 M33.78 22.95 C39.87 11.98, 48.31 6.09, 52.13 0.94 M33.81 21.24 C41.51 14.41, 48.59 6.18, 52.67 -1.13 M39.23 22.24 C45.3 17.13, 48.15 9.69, 59.4 -0.91 M39.95 21.77 C45.77 14.34, 50.43 8.75, 57.29 1.16 M43.33 23.32 C49.37 15.77, 54.48 10.13, 63.71 0.98 M44.37 21.06 C52.01 13.55, 57.38 6.04, 63.11 0.57 M50.73 23.91 C56.5 11.99, 63.35 4.2, 67.73 0 M49.57 23.04 C55.8 15.22, 61.46 8.32, 68.41 0.92 M57.27 20.33 C60.06 14.01, 65.73 6.15, 73.18 -1.72 M55.94 20.79 C61.29 15.45, 65.85 8.79, 74.39 -0.89 M61.56 22.72 C66.39 14.13, 71.59 8.53, 80.44 1.87 M61.04 22.99 C65.39 15.9, 70.08 9.6, 78.53 -0.43 M67.14 22.06 C71.16 11.96, 80.16 5.71, 86.69 -0.19 M65.46 22.31 C73.2 13.96, 80.32 7.05, 84.4 0.66 M70.09 21.39 C79.21 13.04, 85.02 3.61, 89.52 -0.68 M70.12 21.9 C77.52 16.08, 82.12 8.78, 90.91 -0.82 M77.17 22.88 C83.35 17.02, 85.56 9.97, 97.07 0.85 M76.05 21.81 C83.72 12.88, 91.3 4.35, 96.21 -1.27 M81.42 22.96 C87.1 17.08, 90.81 8.43, 99.64 1.28 M81.76 21.42 C86.46 16.37, 92.68 9.81, 100.93 0.19 M88.3 23.47 C89.74 17.58, 94.13 12.19, 107.83 0.98 M86.98 21.87 C91.95 15.5, 96.04 12, 106.04 0.16 M91.31 22.77 C100.1 15.6, 107.51 7.11, 112.15 -0.99 M92.05 22.52 C99.18 13.89, 106.93 4.83, 112.14 -0.62 M97.46 23.6 C103.53 16.91, 110.56 8.35, 116.51 0.89 M97.01 22.13 C104.42 13.06, 112.35 4.33, 116.61 -0.09 M102.2 20.48 C109.05 13.25, 113.58 6.22, 121.1 -1.93 M102.24 21.52 C110.15 13.45, 117.64 4.84, 122.24 -0.16 M108.28 23.07 C113.33 15.28, 119.56 7.67, 125.32 -0.73 M107.03 22.32 C114.36 15.13, 121.3 6.19, 127.77 0 M115.24 20.05 C121.13 14.87, 125.51 5.07, 133.23 -1.67 M112.74 22.08 C118.77 15.23, 125.91 7.89, 133.09 -0.94 M119.06 22.25 C123.25 16.23, 129.51 10.07, 137.18 1.41 M118.11 22.78 C124.69 16.78, 130.77 8.98, 136.54 0.07 M122.26 21.77 C129.24 13.73, 140.22 5.8, 143.96 -2 M125.11 21.21 C131.53 14.7, 137.47 7.41, 142.71 0.82 M129.5 23.1 C137.59 15.92, 144.99 7.21, 146.36 0.15 M128.16 21.44 C133.62 17.38, 135.75 13.08, 147.77 0.35 M133.76 22.23 C139.65 14.95, 142.26 12.08, 153.38 1.55 M134.06 21.25 C140.21 15.47, 143.5 10.13, 153.27 -0.71 M139.94 21.85 C147.11 14.13, 153.86 6.98, 157.8 0.66 M139.22 22.58 C145.57 16.65, 150.92 9.07, 159.45 0.4 M146.96 22.35 C150.25 18.17, 153.75 10.96, 166.31 -0.18 M145.49 21.92 C150.43 16.45, 156.16 9.41, 165.09 -1.05 M151.43 21.07 C159 15.28, 164.37 8.98, 171.15 0.41 M149.49 22.81 C155.83 17.81, 160.04 12.39, 168.76 1.15 M157.74 23.33 C161.13 13.52, 169.66 6.44, 176.22 -2.07 M156.41 22.23 C159.53 17.05, 165.48 12.28, 174.67 0.63 M161.71 21.64 C165.22 14.28, 173.95 7.17, 180.73 1.17 M161.33 21.09 C166.37 15.99, 172.66 7.55, 179.99 0.85 M164.68 22.72 C170.59 15.87, 175.21 11.53, 179.38 6.1 M167.02 22.58 C169.83 18.62, 172.34 13.12, 180.74 6.31 M172.65 22.49 C175.04 17.12, 177.8 14.21, 180.76 12.8 M171.4 22.48 C174.25 18.96, 176.67 16.34, 180.15 12.83 M177.25 21.77 C178.11 20.84, 179.67 19.42, 179.93 19 M177.17 21.44 C177.8 20.93, 178.33 20.35, 179.82 18.49 M-0.09 19.92 C-0.09 19.92, -0.09 19.92, -0.09 19.92 M-0.09 19.92 C-0.09 19.92, -0.09 19.92, -0.09 19.92 M5.85 19.7 C3.79 18.46, 3.01 17.66, -0.51 15.53 M6.26 20.2 C4.4 18.94, 2.38 17.51, 0.34 14.79 M11.92 20.52 C7.41 18.63, 5.8 15.46, -1.32 9.28 M11.4 19.03 C8.22 17.69, 6.26 14.17, -0.28 9.52 M20.32 21.8 C14.45 14.83, 8.9 13.16, 2.08 4.79 M17.96 20.33 C13.3 16.21, 8.59 11.95, 0.34 5 M26.58 22.23 C20.09 16.76, 10.97 11.21, 0.01 0.23 M24.28 20.36 C16.3 13.17, 8.39 7.35, 0.98 -1.43 M28.82 20.27 C23.29 12.76, 15.8 9.38, 7.35 -0.8 M29.73 19.42 C21.01 12.96, 13.54 4.52, 7.56 -1.32 M38.25 19.52 C29.55 11, 19.68 6.51, 13.13 -0.36 M36.25 19.24 C28.61 13.98, 21.02 6.22, 12.43 -0.2 M42.69 21.49 C38.65 13.6, 33.7 11.91, 18.22 1.37 M41.46 20.62 C37.76 15.77, 31.74 10.32, 20 -0.78 M49.54 19.97 C40.76 14.73, 35.2 9.43, 24.89 -2.67 M49.25 19.15 C41.71 12.43, 33.41 5.79, 23.98 -0.27 M53.36 21.53 C48.07 16.9, 41.87 8.34, 31.72 0 M55.05 21.03 C45.99 11.91, 36.78 4.42, 31.97 -0.74 M59 20.65 C50.73 12.95, 44.55 5.65, 37.18 -2.09 M60.7 19.47 C54.61 14.14, 47.36 8.01, 36.77 -1.3 M68.73 18.79 C56.83 10.72, 49.44 2.13, 42.81 -1.28 M67.25 21.11 C58.76 13.2, 53.13 7.13, 43.19 -1.62 M73.86 20.93 C68.55 15.79, 61.2 9.7, 48.31 0.36 M72.23 19.89 C64.31 13.01, 55.43 4.73, 48.87 0.4 M77.63 21.96 C69.5 12.31, 63.69 7.58, 55.17 -0.52 M80.27 20.67 C75.07 15.11, 70.01 11.64, 55.57 -1.48 M86.8 19.17 C81.37 17.96, 77.66 12.41, 61.56 -2.08 M86.36 21.13 C76.85 13.08, 69.26 4.74, 61.75 -0.18 M90.82 19.38 C84.09 11.32, 76.88 4.89, 69.92 -0.82 M90.7 20.17 C85.12 15.55, 78.8 10.25, 67.89 -1.41 M96.92 22.04 C88.05 12.2, 83.62 6.64, 74.12 -0.49 M97.5 20.28 C90.8 14.31, 83.11 7.51, 73.28 -1.32 M101.75 19.72 C95.26 15.39, 88.43 5.55, 78.59 -0.94 M104.29 19.43 C96.8 14.99, 89.47 7.93, 80.86 -0.08 M110.26 20.52 C103.05 16.19, 100.92 9.83, 85.89 -1.65 M110.48 20.73 C102.33 14.43, 94.14 7.83, 86.49 0 M115.31 20.59 C107.76 14.94, 101.22 5.91, 91.67 0.67 M116.69 20.28 C107.47 12.42, 99.44 6.59, 91.59 0.11 M120.81 19.23 C113.52 13.56, 109.17 8.72, 100.2 0.62 M121.54 19.58 C115.77 15.5, 111.13 9.64, 98.34 -1.18 M128.84 21.98 C120.2 13.17, 114.85 9.25, 103.58 -0.81 M128.48 19.92 C120.06 11.58, 110.87 5.73, 104.59 -1.53 M135.24 21.12 C129.36 16.13, 124.57 9.98, 108.8 -1.14 M133.07 20.24 C127.35 14.9, 121.58 9.85, 110.64 -0.43 M140.58 18.12 C129.46 12.26, 123.28 6.74, 117.42 0.12 M139.61 20.83 C135.23 15.43, 129.52 9.86, 116.54 -1.35 M145.67 20.09 C140.55 15.9, 133.57 8.16, 124.41 -0.12 M146.37 21.15 C139.38 14.07, 132.38 8.21, 122.67 -0.05 M150.75 18.93 C145.6 12.32, 137.39 9.9, 129.76 -0.06 M152.46 20.23 C144.98 12.91, 135.09 5.69, 129.02 -0.71 M158.63 18.39 C152.26 12.84, 146.82 9.9, 133.65 -1.86 M158.63 21.11 C153.98 15.53, 147.64 10.34, 134.06 -1.6 M166.24 18.62 C160.15 15.18, 152.81 12.68, 139.56 -0.55 M164.57 20.66 C156.26 13.32, 149.31 6.71, 141.51 -0.59 M171.6 18.55 C162.26 10.43, 154.31 4.52, 145.86 0.44 M171.48 19.25 C164.22 14.84, 158.34 10.31, 145.65 -1.34 M177.38 20.39 C167.08 12.7, 161.84 5.28, 152.75 -0.26 M177.37 20.64 C169.52 12.25, 161.33 6.9, 153.9 -1.64 M180.51 19.45 C174.67 12.29, 166.11 6.19, 157.81 -1.48 M180.41 19.04 C176.19 14.03, 171.08 9.95, 160.14 0.49 M182.62 14.55 C174.85 9.39, 173.71 6.79, 163.18 -0.42 M180.91 12.87 C175.62 8.62, 171.76 4.77, 165.49 -0.84 M181.99 7.8 C176.72 4.58, 174.46 0.97, 170.95 -1.19 M181.43 7.83 C178.67 4.86, 175.15 2.75, 171.26 -0.83 M182 2.52 C179.37 1.77, 177.65 0.1, 177.18 -0.67 M181.79 3.03 C180.03 1.84, 178.57 0.29, 177.27 -0.93" stroke="#12b886" stroke-width="0.5" fill="none"></path><path d="M0.61 0.95 C55.74 3.05, 112.64 2.16, 178.19 -0.12 M1 -0.4 C62.57 -0.88, 125.37 -0.7, 180.74 0.96 M178.78 1.4 C179.3 6.04, 180.56 7.33, 181.85 19.94 M180.44 -0.38 C180.71 4.38, 179.34 10.14, 179.26 20.09 M178.35 20.32 C129.43 22.8, 77.79 21.63, 0 20.07 M179.47 19.43 C130.59 20.9, 81.87 20.15, -1 20.49 M1.54 21.01 C1.07 12.32, -0.22 5.51, -1.34 1.51 M-0.66 19.35 C0.98 13.32, 0.63 5.82, 0.1 -0.77" stroke="transparent" stroke-width="1" fill="none"></path></g><g stroke-linecap="round" transform="translate(230 86) rotate(0 90 27.5)"><path d="M0 0 C0 0, 0 0, 0 0 M0 0 C0 0, 0 0, 0 0 M0.07 5.92 C1.93 3.57, 3.84 1.5, 4.56 0.79 M-0.23 6.26 C1.31 4.87, 2.15 3.75, 4.85 0.61 M-1.29 12.54 C3.74 7.21, 5.06 6.05, 9.34 -0.05 M0.33 11.54 C2.38 10.17, 4.02 7.31, 9.92 -0.09 M-0.07 17.45 C3.96 13.91, 7.84 9.69, 16.72 0.24 M0.46 18.92 C5.07 14.66, 7.89 7.96, 15.38 1.09 M0.24 22.13 C7.89 17.62, 15.61 8.01, 19.34 0.79 M-0.33 24.81 C5.8 18.14, 11.14 11.62, 22.17 0.68 M0.94 31.69 C8.57 24.32, 14.67 13.42, 26.13 -1.66 M-0.71 31.23 C9.16 18.95, 18.69 8.72, 26.32 -0.32 M0.21 37.19 C7.89 24.4, 19.82 14.6, 33.57 -1.17 M-0.77 37.4 C5.38 28.64, 12.05 21.39, 31.3 0.55 M-0.14 42.81 C9.75 31.73, 20.04 19.79, 37.3 0.23 M0.59 42.51 C10.34 32.14, 18.19 22.9, 37.04 -0.24 M0.49 49.08 C16.17 31.05, 28.73 17.6, 42.5 -0.59 M0.06 48.53 C10.69 37.19, 19.95 26.02, 41.62 0.33 M-0.75 56.39 C11.82 42.88, 23.58 31.98, 47.71 -0.93 M0.99 55.46 C17.35 37.14, 33.19 17.62, 48.46 0.45 M4.27 56.95 C18.27 39.57, 35.08 20.01, 51.27 -1.47 M3.17 56.96 C18.58 40.66, 34.24 22.2, 53.97 -0.01 M7.86 55.62 C20.32 43.5, 32.88 28.71, 59.14 0.71 M7.31 56.86 C28.65 34.87, 46.4 13.49, 58.81 1.07 M14.32 56.87 C33.46 34.07, 54.83 12.33, 63.31 -1.1 M14.19 57.81 C32.37 35.64, 49.1 16.4, 63.52 0.64 M19.63 57.51 C27.02 44.6, 38.54 34.56, 69.67 -0.29 M19.61 57.74 C30 44.9, 41.56 31.41, 69.72 1.06 M24.62 56.7 C38.91 44.79, 50.47 28.61, 76.38 -2.09 M22.97 57.48 C34.15 45.59, 44.98 33.32, 73.81 0.58 M29.43 58.72 C39.27 42.63, 52.4 27.59, 77.72 -0.69 M28.92 57.29 C42.62 42.92, 54.92 29.38, 80.13 0.03 M33.33 55.92 C49.02 42.22, 65.11 23.31, 86.53 -0.37 M34.58 57.46 C47.02 42.87, 59.52 29.98, 84.68 -0.76 M41.09 55.56 C56.3 40.49, 70.31 22.22, 90.01 -0.59 M39.22 56.82 C56.72 40.44, 71.7 21.01, 90.31 -0.26 M46.9 58.7 C58.09 40.69, 75.19 25.59, 96.15 -1.18 M45.43 57.37 C58.98 41.41, 72.76 25.92, 96.37 -0.78 M52.72 59.06 C72.23 32.87, 91.74 10.93, 101.58 0.62 M50.85 56.79 C62.33 42.89, 75.72 29.7, 99.91 0.13 M56.14 57.9 C70.55 39.98, 89.11 22.45, 105.93 0.95 M55.29 57.02 C73.94 38.17, 90.53 18.16, 105.41 0.26 M60.77 58.91 C76.19 38.21, 95.91 19.19, 111.75 0.26 M60.49 56.83 C79.75 37.2, 95.8 17.74, 111.9 -0.73 M68.12 59.07 C76.47 46.6, 90.41 31.43, 118.2 -1.1 M67.26 58.37 C82.42 40.64, 96.77 24.22, 116.05 0.02 M71.98 55.51 C83.32 43.3, 94.75 31.67, 120.2 0.29 M71.17 57.72 C83.46 42.64, 95.77 28.05, 122.6 -0.61 M78.27 56.43 C95.04 37.49, 108.06 20.78, 127.59 2 M77.77 57.51 C87.81 45.6, 98.82 34.6, 126.85 1.07 M83.42 55.93 C98.57 40.73, 114.67 21.08, 130.88 -0.61 M82.24 57.41 C96.75 39.5, 111.02 22.49, 131.68 0.88 M86.29 56.91 C105.73 36.73, 124.48 13.12, 137.08 0.5 M88.62 56.73 C104.51 38.88, 122.09 18.33, 136.74 -0.63 M94.47 57.93 C114.16 32.32, 132.14 10.11, 144.09 0.91 M93.43 56.98 C111.35 35.94, 128.17 15.6, 144.14 0.3 M100.22 56.12 C115.25 38.73, 135.19 17.69, 148.6 -1.38 M98.93 58.44 C108.48 46.6, 119.62 34.46, 147.64 -0.7 M102.81 57.98 C124.67 36.67, 142.7 12.52, 152.42 0.91 M104.78 56.69 C115.36 45.04, 125.03 32.66, 154.33 0.35 M108.41 58.35 C119.95 44.96, 133.12 30.82, 158.41 -0.76 M109.2 57.21 C124.17 40.22, 138.62 24.14, 157.82 0.39 M116.45 55.21 C129.33 39.23, 147.23 19.19, 164.78 0.11 M114.69 57.93 C131.98 37.9, 149.18 16.94, 163.94 -0.12 M119.51 56.59 C137.52 38.46, 150.19 18.96, 169.05 -0.05 M119.23 57.79 C137.36 36.77, 153.5 18.06, 169.91 -0.67 M125.04 56.2 C137.51 45.28, 147.64 30.43, 174.38 -0.05 M125.25 58.04 C144.21 34.9, 163.18 14.41, 176.03 -0.09 M130.49 56.51 C144.26 42.74, 154.74 27.49, 181.43 1 M130.18 57.07 C144.74 39.48, 161.33 21.73, 180.87 -0.03 M134.51 55.95 C143.5 47.6, 153.73 38.33, 180.85 5.3 M134.86 57.22 C145.72 46.64, 154.78 34.69, 179.05 6.41 M142.64 56.46 C153.95 41.34, 170.36 23.84, 180.21 13.42 M140.58 58.09 C153.22 42.76, 167.74 28.44, 179.49 11.37 M147.16 58.43 C157.41 46.24, 166.29 31.49, 179.36 17.48 M146.28 57.1 C157.67 44.23, 168.93 32.16, 180.06 19.19 M149.54 55.5 C162.11 45, 175.36 32.84, 181.41 22.78 M152.26 58.05 C162.71 45.38, 172.85 32.83, 179.93 23.63 M156.24 57.52 C165.35 47.34, 170.49 41.69, 180.64 30.67 M157.3 57.71 C162.81 51.12, 169.29 44.2, 180.72 30.47 M161.11 57.35 C165.85 49.39, 174.81 45.42, 180.18 38.15 M162.42 58.32 C166.99 51.45, 171.58 46.96, 179.53 36.8 M165.3 57.8 C168.46 55.97, 173.97 50.78, 179.17 41.04 M168.03 58.24 C170.16 53.17, 173 49.34, 179.43 41.87 M172.09 57.97 C175.14 53.6, 178.88 50.41, 179.94 49.07 M173.21 56.85 C175.25 53.81, 177.6 51.59, 179.93 49.51 M-0.06 54.95 C-0.06 54.95, -0.06 54.95, -0.06 54.95 M-0.06 54.95 C-0.06 54.95, -0.06 54.95, -0.06 54.95 M6.38 54.61 C3.83 53.8, 1.39 50.96, 0.48 50.28 M6.47 55.47 C4.08 53.79, 2.84 52.19, -0.07 49.97 M12.67 54.78 C8.64 50.55, 5.32 48.18, -0.92 43.27 M12.35 54.72 C9.13 52.44, 6.91 50.92, 0.65 44.02 M19.99 53.2 C13.31 51.95, 9.23 44.49, 0.69 39.35 M18.31 54.67 C11.26 49.83, 4.93 44, 0.26 39.68 M23.78 52.86 C14.91 47.05, 5.08 38.99, -1.08 34.17 M23.84 55.57 C17.36 49.51, 11.91 43.27, -0.52 34.48 M28.95 53.3 C20.47 44.28, 9.31 37.05, 1.23 29.38 M30.64 54.79 C20.25 46.08, 9.04 37.65, 0.37 28.34 M36.84 53.98 C21.86 45.88, 9.1 31.61, 1.23 22.07 M37.6 55.34 C27.58 46.1, 17.13 38.84, -0.73 23.26 M40.81 53.19 C27.59 42.76, 11.53 30.24, 1.75 18.62 M41.58 54.36 C27.53 42.62, 13.44 29.81, -0.6 17.07 M49.64 54.84 C38.39 44.48, 25.8 32.06, -2.17 14.33 M48.07 55.66 C36.54 45.27, 25.69 35.75, -0.67 12.72 M55.34 52.74 C38.52 40.25, 24.51 28.91, -0.06 7.53 M54.39 53.68 C33.34 35.51, 12 16.49, -0.59 8.13 M60.37 56.78 C36.84 34.18, 15.87 15.79, 1.05 3.23 M60.15 55.31 C40.38 37.52, 18.82 19.64, 0.16 1.44 M65.4 57.14 C44.73 31.77, 19.73 13.21, 1.31 -3.45 M66.42 55.85 C49.93 41.57, 33.29 26.36, 2.3 -1.78 M72.77 55.2 C47.43 31.99, 23.85 13.16, 7.86 -3.01 M72.39 55.57 C54.67 37.47, 36.29 21.33, 7.87 -0.63 M77.87 54.32 C61.76 38.53, 42.63 26.69, 13.23 -0.61 M80.12 54.18 C65.25 43.27, 50.78 31.01, 13.87 -2.2 M85.68 56.83 C69.24 41.9, 53.73 26.62, 18.71 -2.68 M86.4 55.53 C67.98 39.46, 52.74 25.64, 19.09 -2.54 M90.23 54.85 C75.86 40.25, 56.92 25.01, 25.75 -0.62 M91.52 54.09 C65.56 31, 38.94 8.5, 26.65 -2.62 M97.96 57.13 C74.19 33.85, 49.57 14.81, 31.09 -0.68 M97.89 55.48 C73.75 34.65, 49.08 12.99, 32.56 -2.52 M103.53 53.35 C85.73 38.05, 64.26 19.17, 38.58 0.37 M103.25 54.49 C80.72 35.3, 56.04 15.53, 38.81 -1.49 M109.04 56.21 C85.48 32.39, 60.95 11.42, 42.61 -1.97 M109.15 54.83 C92.99 40.01, 77.32 26.88, 44.13 -1.37 M115.84 53.76 C94.47 35.95, 73.56 18.33, 51.46 -1.06 M116.06 55.12 C100.01 40.59, 83.23 25.63, 50.62 -2.09 M119.93 56.2 C104.67 36.83, 84.16 24.09, 55.17 -2.83 M122.1 55.47 C106.67 42.71, 91.58 29.34, 56.99 -1.72 M127.33 54.75 C108.79 37.45, 86.42 16.32, 60.69 -3.67 M127.74 55.92 C110.06 40.39, 94.63 24.89, 62.96 -2.59 M133.95 53.93 C118.04 42.58, 105.55 27.01, 67.74 -2.16 M132.96 54.48 C110.39 32.72, 84.62 12.68, 68.44 -1.4 M140.72 53.66 C119 32.87, 94.92 13.08, 76.17 -0.21 M139.72 54.91 C116.35 34.35, 91.2 12.18, 74.27 -2.64 M145.47 53.57 C128.47 40.37, 109.68 22.86, 81.35 -0.19 M147.09 54.72 C127.78 39.58, 110.89 24.44, 80.86 -2.06 M154.29 55.83 C133.73 39.73, 118.51 23.36, 86.07 -0.71 M152 55.66 C125.56 32.21, 100.53 10.2, 87.37 -2.74 M156.93 56.01 C140.41 41.34, 127.16 24.77, 91.6 -2.45 M157.9 54.27 C146.05 43.08, 132.13 32.03, 92.21 -1.21 M162.63 55.32 C142.98 33.31, 119.81 13.14, 97.65 0.12 M163.94 53.86 C141.2 34.19, 118.1 15.02, 100.16 -1.57 M171.32 54.8 C153.02 39.8, 134.65 23.36, 105.65 -2.45 M171.42 54.3 C147.08 33.05, 122.16 11.75, 105.08 -2.86 M177.41 55.52 C152.37 36.4, 127.09 13.24, 110.22 -3.71 M176.98 56.03 C158.42 38.62, 137.97 22.04, 110.62 -2.63 M179.71 52.2 C165.39 41.97, 148.76 26.79, 118.96 -1.04 M181.76 53.21 C161.33 36.72, 142.07 18.03, 117.37 -2.88 M180.04 47.32 C168.1 34.86, 151.56 21.46, 123.65 -1.53 M181.35 47.66 C165.65 34.27, 151.18 22.46, 123.34 -2.31 M179.91 42.61 C164.05 26.89, 145.01 13.98, 128.07 -1.7 M181.81 43.95 C167.81 31.56, 155.15 21.09, 129.1 -2.31 M179.32 35.42 C171.67 28.22, 161.54 17.66, 135.39 -0.64 M181.72 37.5 C166.51 24.71, 150.9 11.71, 136.5 -2.46 M179.68 32.15 C168.78 21.61, 156.06 8.88, 143.57 -1.18 M180.46 31.71 C169.05 21.16, 154.3 8.97, 141.36 -2 M179.64 28.54 C170.48 17.55, 160.66 6.68, 149.19 -1.63 M181.34 27.84 C169.57 15.95, 156.98 6.03, 148.62 -1.82 M182.51 20.48 C173.85 14.63, 165.14 7.27, 154.62 -1.61 M180.34 21.65 C174.06 16.3, 167.12 9.81, 154.84 -2.7 M179.64 14.87 C177.02 11.75, 171.56 9.55, 159.86 -1.79 M180.77 15.84 C175.85 10.02, 169.15 5.54, 161.33 -1.29 M182.23 9.92 C176.59 6.94, 173.14 3.44, 165.93 -1.06 M180.45 12.08 C175.59 7.35, 170.87 0.83, 166.85 -1.63 M180.93 5.58 C179.92 4.62, 176.63 2.35, 173.55 -1.71 M181.92 6.51 C178.61 4.43, 177.26 1.88, 172.38 -2.26" stroke="#12b886" stroke-width="0.5" fill="none"></path><path d="M1.03 0.44 C62.82 -0.78, 121.88 -0.83, 181.23 -0.41 M-0.51 -0.3 C70.14 0.37, 139.22 0.05, 180.14 -0.74 M181.93 -1.77 C180.89 16.44, 180.45 37.75, 181.33 53.78 M180.33 -0.03 C179.34 12.23, 181.07 25.15, 180.51 55.69 M180.87 55.84 C125.94 55.38, 69.73 55, -1.01 56.95 M180.62 54.33 C128.86 54.12, 76.59 55.46, -0.64 55.11 M1.34 55.38 C1.11 39.49, -0.64 21.21, 0.51 1.73 M-0.13 54.89 C-0.79 37.16, -1.05 18.74, -0.47 0.16" stroke="transparent" stroke-width="1" fill="none"></path></g><g stroke-linecap="round" transform="translate(230 150) rotate(0 90 2.5)"><path d="M0 0 C0 0, 0 0, 0 0 M0 0 C0 0, 0 0, 0 0 M0.63 5.08 C2.07 3.2, 4.18 1.35, 5.16 -0.07 M0.58 5.33 C1.73 3.82, 3.02 2.54, 5 0.19 M5.92 5.63 C7.48 3.29, 8.32 1.59, 11.04 0.3 M5.69 5.17 C8.04 3.4, 9.21 0.84, 10.62 -0.38 M11.3 4.94 C12.65 3.63, 13.6 3.11, 15.2 0.84 M10.86 5.93 C12.83 3.63, 14.11 2.08, 15.78 0.54 M16.04 5.17 C17.77 3.48, 19.64 0.29, 20.76 0.45 M16.53 5.24 C17.64 3.91, 18.7 2.44, 21.34 -0.01 M21.51 6.16 C22.31 3.77, 23.9 2.8, 25.89 0.66 M21.46 5.37 C22.93 4.31, 23.43 3.34, 26.2 0.34 M26.95 5.33 C28.63 3.21, 29.29 1.68, 32.21 -0.11 M27.53 5.24 C28.92 3.26, 30.76 1.36, 32 -0.08 M32.94 5.53 C33.96 3.04, 36.4 1.44, 37.01 -0.02 M32.51 5.23 C34.25 3.19, 35.58 1.58, 36.7 0.58 M38.53 5.22 C39.03 3.62, 40.75 0.97, 43.02 0.49 M37.69 5.48 C39.8 3.13, 41.59 1.22, 42.81 -0.31 M43.32 4.85 C43.56 4.25, 44.85 3.19, 47.88 -0.47 M42.78 5.79 C44.52 3.5, 45.9 1.96, 47.43 -0.11 M48.79 5.46 C49.89 4.37, 50.44 2.67, 52.47 -0.65 M48.54 5.35 C50.72 3.36, 52.01 0.59, 53.34 -0.35 M53.4 5.31 C54.65 4.3, 56.47 2.51, 58.78 0.12 M53.88 5.38 C55.66 3.15, 57.4 1.72, 58.26 0.19 M58.88 6.19 C59.53 3.94, 60.51 2.87, 64.34 -0.02 M58.51 6.21 C60.15 4.19, 60.8 2.86, 63.93 -0.44 M64.19 6.12 C65.29 2.71, 67.71 0.82, 68.12 -0.12 M64 5.22 C65.7 3.86, 66.97 2.42, 68.75 0.37 M68.37 5.13 C69.93 4.18, 70.61 3.12, 73.91 -0.39 M69.15 6.09 C70.9 3.71, 72.29 1.56, 74.17 -0.62 M74.12 5.92 C76.06 3.46, 77.85 2.3, 79.44 -0.15 M74.86 5.28 C76.38 3.4, 78.42 1.47, 79.56 -0.21 M79.2 5.76 C81.56 3.53, 84.12 0.48, 84.28 -0.78 M79.71 5.87 C81.61 3.41, 84.08 1.54, 85.39 -0.1 M86.08 5.54 C86.24 3.9, 87.98 2.52, 90.22 -0.22 M85.47 5.61 C86.73 4.06, 88.35 2.4, 90.36 0.37 M90.19 6.09 C92.72 2.93, 95.05 0.64, 95.71 -0.81 M90.57 5.43 C91.85 4.16, 93.2 2.24, 95.74 -0.28 M96.19 5.2 C97.7 4.28, 98.34 2.13, 100.31 -0.47 M96.26 5.02 C97.86 3.63, 99.37 1.93, 100.54 0.32 M101.25 5.88 C102.27 4.73, 102.6 2.64, 105.55 -0.78 M100.97 5.94 C102.66 3.26, 104.54 1.47, 106.64 -0.08 M106.41 5.97 C107.19 4.09, 108.57 2.17, 111.88 0.46 M107.03 5.22 C108.26 3.11, 110.13 1.57, 111.27 -0.31 M111.76 5.06 C113.24 3.64, 114.51 2.67, 115.65 0.64 M111.44 5.9 C112.42 4.75, 113.63 3.24, 116.49 0.15 M117.55 5.5 C119.69 2.67, 120.29 1.17, 122.42 -0.15 M117.64 5.24 C118.89 3.81, 120.18 1.92, 122.05 -0.26 M122.21 5.04 C123.57 3.89, 125.74 2.08, 126.59 0.41 M122.07 5.32 C123.87 4.59, 124.66 3.18, 126.66 0.21 M127.85 5.07 C129.11 4.28, 130.01 2.68, 133.21 -0.71 M127.98 4.95 C128.76 4.21, 129.94 2.67, 132.75 0.06 M132.52 5.91 C134.82 4.35, 136.2 1.75, 137.61 0.1 M132.72 5.92 C134.63 4.09, 135.99 1.89, 137.87 0.04 M138.59 5.35 C139.22 3.04, 140.6 2.98, 143.62 0.48 M138.73 5.01 C139.47 3.99, 141.31 2.41, 142.98 0.04 M143.57 5.07 C145.67 2.88, 146.54 1.9, 148.75 -0.11 M143.64 5.74 C145.25 3.65, 146.63 1.96, 148.07 0.4 M149.9 5.02 C149.85 3.96, 151.36 2.37, 153.99 -0.39 M149.19 4.82 C151.01 3.32, 152.97 1.1, 154.14 -0.47 M154.39 5.64 C155.28 4.71, 156.84 3.02, 158.87 0.75 M154.09 5.35 C155.79 3.75, 157.47 1.52, 158.79 0.07 M159.35 5 C161.55 3.46, 163.95 1.71, 164.2 0.01 M160.15 5.3 C161.34 2.87, 163.3 1.12, 164.52 -0.46 M164.92 5.24 C166.39 4.29, 168.15 2.45, 169.92 0.29 M165.13 5.82 C166.62 3.34, 168.34 1.35, 169.48 0.03 M169.67 6.39 C172.02 3.78, 173.56 1.99, 175.06 -0.56 M169.64 6.17 C170.96 4.07, 172.46 2.84, 174.93 -0.58 M176.08 5.82 C176.21 3.55, 177.83 2.49, 179.83 -0.3 M175.43 5.19 C176.97 3.9, 178.7 1.97, 180.37 -0.01 M-0.21 4.82 C-0.21 4.82, -0.21 4.82, -0.21 4.82 M-0.21 4.82 C-0.21 4.82, -0.21 4.82, -0.21 4.82 M5.52 4.85 C3.65 3.52, 1.5 0.82, 0.53 -0.77 M6.25 5.13 C4.51 3.75, 2.57 1.75, -0.23 -0.56 M12.29 5.06 C9.82 4, 8.69 1.69, 7.11 0.51 M11.98 4.55 C9.9 3.3, 8.14 1.53, 6.51 0.04 M18.99 5.18 C16.22 2.74, 13.76 1.08, 12.88 -0.39 M18.29 5.21 C16.2 3.37, 14.37 1.3, 12 -0.32 M24.97 5.36 C23.86 3.83, 22.03 3.2, 18.86 0.68 M24.67 5.1 C22.58 3.11, 20.43 1.76, 18.23 -0.04 M29.91 4.4 C28.18 3.35, 28.08 2.37, 25 -0.07 M30.07 4.51 C28.32 3.6, 27.29 2.25, 24 -0.23 M36.11 5.08 C34.97 4.17, 32.93 2.32, 31.34 -0.95 M36.89 5.07 C35.38 3.9, 33.65 2.33, 30.33 -0.02 M42.05 5.17 C40.72 4.06, 40.71 3.28, 36.48 -0.41 M41.98 4.55 C41.16 3.84, 39.64 2.37, 37.04 -0.17 M48.61 5.12 C47.26 3.62, 44.93 2.12, 42.95 0.21 M49.07 4.57 C47.36 3.66, 45.84 2.54, 42.84 -0.32 M54.47 4.79 C52.94 2.98, 52.52 1.55, 49.43 -0.14 M55.41 5.58 C53.33 3.71, 51.88 2.71, 49.39 -0.42 M60.01 4.98 C58.9 3.78, 57.83 1.68, 54.66 -0.76 M60.93 4.81 C59.25 3.64, 57.1 2.23, 54.66 -0.8 M66.85 4.69 C65.73 3.34, 63.27 2.44, 60.96 0.53 M67.04 4.91 C65.86 3.93, 64.28 2.62, 60.82 -0.51 M72.91 5.02 C71.25 3.43, 69.81 1.96, 67.66 -0.02 M73.02 4.72 C70.81 3.25, 69.04 1.69, 67.51 -0.13 M78.85 5.49 C77.46 3.43, 76.12 2.32, 73.78 -0.2 M79.3 4.71 C77.46 3.5, 75.86 1.81, 72.82 -0.64 M86.2 5.82 C83.8 3.7, 82.4 1.86, 78.84 -0.41 M85.24 4.88 C83.77 3.7, 82.44 2.58, 79.7 -0.1 M90.52 4.01 C89.77 2.31, 87.37 1.29, 84.56 0.03 M91.16 4.62 C90.09 3.62, 88.7 2.57, 85.36 -0.83 M98.31 4.97 C95.91 4.37, 93.57 1.98, 91.5 -0.98 M97.48 4.76 C95.95 3.63, 93.82 1.61, 91.48 0.18 M103.7 5.84 C103.41 4.58, 101.18 3.53, 97.39 0.38 M104.41 5.48 C101.9 3.91, 99.89 1.64, 97.61 0.47 M110.24 4.8 C106.7 2.56, 105.12 1.2, 102.93 0.21 M109.7 5.2 C108.12 3.81, 106.71 1.93, 103.6 -0.24 M115.88 5.12 C114.3 3.95, 113.17 2.59, 109.59 0.56 M115.85 5.13 C114.56 3.43, 112.02 2.26, 109.73 -0.21 M122.51 4.62 C120.51 2.48, 118.42 1.08, 116.3 -1.16 M121.93 4.88 C119.78 2.99, 117.75 1.98, 115.66 -0.15 M127.86 4.51 C126.03 3.28, 124.5 1.82, 122.6 -0.03 M128.19 4.66 C126.52 3.86, 125.26 2.54, 121.84 -0.21 M135.06 5.33 C132.72 4.06, 130.31 0.69, 128.58 -0.6 M134.22 5.69 C132.17 3.69, 130.35 1.49, 128.5 0.46 M140.78 4.52 C138.58 3.69, 136.7 1.97, 134.2 -0.09 M139.85 5.1 C137.73 3.04, 135.64 1.02, 134.13 -0.61 M145.87 5.22 C145.08 3.67, 142.6 1.57, 140.38 -0.31 M146.82 5.31 C144.27 3.44, 141.85 1.01, 140.35 0.17 M152.03 4.17 C150.3 2.67, 148.72 0.87, 145.62 -0.64 M152.13 4.78 C151.11 3.64, 149.42 1.97, 146.07 -0.77 M158.62 5.41 C157.33 3.3, 155.51 2.04, 152.42 -0.35 M158.3 5.08 C156.43 3.24, 154.35 1.57, 152.16 0.06 M165.66 4.9 C162.56 2.78, 160.43 1.1, 159.14 0.5 M165.13 5.63 C163.64 4.1, 161.65 2.57, 158.76 -0.02 M170.13 4.16 C167.61 2.64, 166.62 0.42, 164.18 0.26 M170.55 5.07 C168.94 3.5, 167.68 2.25, 164.6 -0.5 M176.52 4.68 C175.31 4.57, 173.45 2.8, 170.24 -0.32 M177.15 4.96 C175.04 3.51, 172.53 1.08, 171.07 -0.35 M180.89 3.93 C180.01 2.43, 177.28 0.98, 176.28 -0.55 M180.88 3.37 C179.6 2.2, 178.52 0.89, 176.44 -0.72" stroke="#12b886" stroke-width="0.5" fill="none"></path><path d="M1.53 1.33 C61.4 -1.84, 125.62 -1.05, 180.66 -0.05 M-0.26 0.51 C40.8 -1.62, 80 -2.2, 180.43 0.42 M180.22 -0.25 C180.52 1.87, 180.27 3.76, 180.31 4.67 M180.21 -0.16 C180 1.91, 180.21 3.81, 180.17 5.05 M180.24 5.51 C113.04 5.55, 42.86 4.41, -0.27 4.77 M180.34 4.53 C139.16 2.63, 97.06 2.88, -0.7 5.01 M-0.2 4.52 C0.45 3.48, 0.44 2.61, -0.17 -0.12 M0.08 4.97 C0.14 3.57, 0.11 1.93, 0.11 -0.15" stroke="transparent" stroke-width="1" fill="none"></path></g><g stroke-linecap="round"><g transform="translate(291.6685251359095 86.27849879580458) rotate(0 -11.81749269371278 17.602958734339154)" fill-rule="evenodd"><path d="M-1.44 0.61 L3.63 4.67 L-16.65 20.53 L4.5 26.71 L5.45 37.39 L-28.13 26.12 L-28.29 13.8 L-1.34 0.28" stroke="none" stroke-width="0" fill="#000000" fill-rule="evenodd"></path><path d="M-0.42 -0.62 C1.21 2.23, 3.27 4.45, 4.07 6.86 M0.28 -0.39 C1.75 1.62, 3.36 4.29, 4.88 6.78 M5.95 6.88 C-1.96 13.57, -14.36 18.12, -17.08 17.81 M4.6 7.35 C-1.19 10.72, -7.58 14.56, -19.07 19.17 M-20.31 18.88 C-11.05 21.84, -1.35 25.06, 4.97 28.6 M-17.87 19.04 C-13.16 21.31, -7.71 23.2, 6.03 27.28 M5.55 28.1 C5.49 29.74, 4.47 33.51, 4.07 35.79 M5.97 27.93 C5.7 29.34, 4.87 31.85, 3.35 35.37 M5.04 35.82 C-6.1 33.49, -19.25 28.04, -29.45 23.74 M4.41 34.73 C-8.08 32.46, -17.63 28.11, -29.67 24.67 M-29.61 23.84 C-28.08 21.37, -29.29 18.3, -28.23 14.01 M-29.16 24.97 C-28.92 21.11, -28.92 18.53, -29.37 14.1 M-28.05 12.57 C-19.43 8.22, -8.05 3.06, 1.19 1.04 M-29.45 13.64 C-23.18 11.97, -16.59 8.2, -0.67 0.25 M0 0 C0 0, 0 0, 0 0 M0 0 C0 0, 0 0, 0 0" stroke="#000000" stroke-width="1" fill="none"></path></g></g><g stroke-linecap="round"><g transform="translate(342.27552354490126 87.37136412872451) rotate(0 11.994251237223239 17.4250009698128)" fill-rule="evenodd"><path d="M0.61 -1.26 L-7.14 8.38 L20.19 18 L-7.47 29.31 L-2.13 36.61 L32.04 25.69 L30.1 13.13 L0.28 1.04" stroke="none" stroke-width="0" fill="#000000" fill-rule="evenodd"></path><path d="M-0.63 -0.5 C-2.13 2.49, -4.14 4.32, -4.95 6.73 M-0.4 0.22 C-2.12 2.61, -3.25 4.54, -5.02 6.99 M-4.93 8.58 C6.08 9.94, 14.98 17.81, 17.46 19.03 M-4.47 6.78 C1.44 9.81, 7.84 12.45, 18.82 20.05 M18.54 18.92 C9.64 23.08, 0.85 23.89, -5.59 25.65 M18.69 19.93 C10.52 23.09, 2.25 24.82, -6.9 28.07 M-6.08 27.62 C-6.15 30.64, -4.15 34.2, -3.72 35.11 M-6.25 27.64 C-6.05 29.74, -4.72 31.81, -4.15 35.72 M-3.69 36.61 C8.56 30.7, 17.47 28.34, 29.67 25.52 M-4.79 34.78 C7.38 32.66, 17.26 28.23, 30.6 24.96 M29.76 25.82 C30.64 22.22, 30.81 20.95, 30.3 14.72 M30.89 25.09 C30.41 21.65, 31.2 17.71, 30.39 14.72 M28.86 14.15 C18.5 10.44, 7.39 5.51, 1.04 -1.76 M29.93 14.24 C22.39 10.33, 12.68 5.24, 0.25 0.25 M0 0 C0 0, 0 0, 0 0 M0 0 C0 0, 0 0, 0 0" stroke="#000000" stroke-width="1" fill="none"></path></g></g><g stroke-linecap="round"><g transform="translate(300.6903149393172 142.91074619077312) rotate(0 15.925047230787982 -38.910746145322605)" fill-rule="evenodd"><path d="M-1.96 -0.9 L19.97 -76.33 L32.43 -78.65 L11.43 1.95 L-0.89 0.49" stroke="none" stroke-width="0" fill="#228be6" fill-rule="evenodd"></path><path d="M-1.19 -0.13 C4.73 -16.02, 7.41 -31.41, 22.09 -77.43 M0.51 -0.98 C8.27 -28.04, 15.54 -56.98, 22.72 -77.42 M22.96 -77.22 C24.67 -77.48, 29.87 -79.31, 32.46 -78.83 M21.97 -77.92 C25.33 -77.78, 28.52 -78.62, 33.02 -77.89 M32.02 -78.6 C25.48 -50.96, 16.08 -23.1, 9.61 0.78 M33.04 -78.48 C29.34 -61.62, 23.95 -45.25, 12.04 1.09 M11.6 -0.71 C6.93 0.6, 3.03 0.39, -0.66 -0.17 M11.63 -0.03 C8.41 0.78, 5.19 -0.11, 0.17 0.07 M0 0 C0 0, 0 0, 0 0 M0 0 C0 0, 0 0, 0 0" stroke="#000000" stroke-width="1" fill="none"></path></g></g><g stroke-linecap="round" transform="translate(210 10) rotate(0 110 10)"><path d="M1.5 -0.5 C67.59 -2.85, 133.26 -3.29, 218.66 0.27 M-0.01 0.74 C80.03 -0.97, 160.65 -1.37, 220.61 0.81 M220.14 -0.45 C218.73 4.02, 219.67 9.3, 221.27 21.17 M219.03 -0.14 C220.35 7.23, 220.67 14.19, 219.36 20.76 M218.78 19.62 C171.94 19.83, 124.77 20.71, 0.38 18.47 M220.66 20.47 C167.43 21.55, 114.14 21.36, 0.04 20.07 M1.35 19.67 C0.36 14.26, -1.36 4.53, 0.7 0.86 M0.22 20.98 C-0.84 13.68, 0.54 8.06, 0.34 0.1" stroke="#000000" stroke-width="1" fill="none"></path></g><g stroke-linecap="round"><g transform="translate(270 19) rotate(0 50.08402851969004 -0.01565069583057266)"><path d="M-3.31 -2.37 C32.04 -2.38, 63.87 -4.54, 103.48 2.65 M1.45 -1.88 C39.8 0.05, 77.12 1.31, 101.35 0.64" stroke="#868e96" stroke-width="4" fill="none"></path></g></g><g stroke-linecap="round"><g transform="translate(50 218.00000000000023) rotate(0 80 -50.53571428571422)"><path d="M0 0 C5.94 -15.11, 8.96 -73.94, 35.63 -90.64 C62.3 -107.33, 139.27 -98.59, 160 -100.18 M0 0 C5.94 -15.11, 8.96 -73.94, 35.63 -90.64 C62.3 -107.33, 139.27 -98.59, 160 -100.18" stroke="#000000" stroke-width="1" fill="none"></path></g></g><g stroke-linecap="round" transform="translate(41.78711759850694 219.069140633208) rotate(0 7.449186268453332 35.465429683395996)"><path d="M0 0 C0 0, 0 0, 0 0 M0 0 C0 0, 0 0, 0 0 M-0.71 5.8 C0.42 3.98, 3.09 2.92, 5.5 0.01 M-0.4 6.22 C1.45 4.29, 3.57 2.67, 4.91 0.72 M0.3 12.1 C3.19 8.39, 7.76 2.48, 11.28 1.3 M-0.51 11.78 C2.87 8.84, 6.6 5.28, 10.77 -0.46 M-0.18 19.99 C4.65 14.42, 9.68 6.54, 15.91 2.09 M0.51 18.03 C3.7 12.89, 8.78 8.46, 14.84 1.08 M-1.38 22.85 C2.2 22.18, 6.39 16.96, 15.16 5.46 M0.09 24.9 C3.4 18.49, 7.37 14.56, 14.96 6.01 M0.49 32.08 C5.71 27.14, 7.9 20.63, 14.09 14.22 M0.21 29.84 C5.51 23.8, 12.42 17.08, 15.29 11.53 M1.04 35.72 C3.88 32.65, 10.55 24.17, 14.36 17.93 M-1.01 37.17 C5.23 31.68, 9.41 24.65, 14.68 19.4 M-1.13 41.59 C6.92 38.32, 9.88 30.37, 16.78 23.57 M1.02 42.87 C3.85 38.29, 8.43 34.65, 14.33 25.78 M-1.21 48.47 C5.2 40.31, 12.43 33.28, 16.4 30.64 M-0.18 49.36 C5.12 43.81, 11.14 36.05, 16.3 30.12 M1.47 53.64 C5.73 49.59, 9.19 45.05, 13.73 38.33 M0.84 54.8 C4.53 49.44, 9.78 44.3, 15.94 37.94 M-0.6 59.82 C5.94 55.23, 8.85 48.84, 16.38 41.12 M0.71 61.72 C5.4 53.88, 11.44 49.18, 14.94 42.13 M-1.5 66.77 C4.28 59.61, 12.3 53.82, 15.03 47.65 M0.22 68.22 C2.45 63.1, 7.03 59.33, 16.49 49.55 M2.03 73.65 C4.7 64.84, 10.96 60.97, 17.05 56.37 M1.47 72.15 C6.53 66.49, 12.35 59.36, 14.37 56.29 M5.41 70.84 C10.36 67.9, 13.89 65.27, 14.31 62.21 M5.86 71.99 C10.25 68.23, 13.43 63.95, 15.43 60.76 M11.81 71.76 C12.15 70.79, 13.59 69.81, 15.39 67.12 M11.23 72.12 C12.4 71.25, 13.26 70.1, 15.47 67.59 M0.35 71.24 C0.35 71.24, 0.35 71.24, 0.35 71.24 M0.35 71.24 C0.35 71.24, 0.35 71.24, 0.35 71.24 M5.43 70.92 C4.14 70.23, 3.41 69, -0.27 64.81 M6.22 70.47 C4.3 69.57, 2.83 68.19, -0.08 65.91 M11.58 70.03 C10.99 68.76, 5.27 65.7, -0.2 62.06 M12.34 70.89 C9.73 68.93, 7.59 66.18, -0.27 61.28 M15.18 68.54 C11 64.09, 8.56 63.68, 0.16 55.76 M17.03 69.6 C10.84 65.57, 7.36 61.94, 0.26 55.53 M15.66 63.76 C10.25 58.34, 4.47 54.84, -0.02 48.95 M15.99 64.45 C12.48 59.44, 6.79 56.35, 0.83 49.11 M17.71 57.53 C10.87 51.96, 1.89 49.31, -0.98 43.71 M16.19 59.12 C9.64 52.91, 4.34 47, -0.68 44.07 M14.16 54.11 C11.47 50.14, 10.8 45.23, 1.08 40.3 M16.4 52.98 C10.11 48.76, 3.41 43.51, -0.71 39.48 M16.79 49.27 C11.93 45.34, 9.72 43.54, 0.95 33.15 M17.45 48.09 C11.41 42.55, 4 38.33, 0.22 32.9 M15.37 41.99 C9.87 38.07, 6 34.57, -0.4 28.98 M16.6 42.5 C12.48 39.63, 8.17 34.3, 0.04 28.26 M16.81 36.52 C11.66 34.31, 7.66 29.26, -0.76 22.44 M16.03 38.11 C12.55 33.13, 6.65 29.42, -0.53 23.07 M16.31 30.03 C11.69 27.58, 6.62 25.63, -1.51 18.2 M15.23 31.93 C11.59 28.34, 7.85 24.2, 0.52 18.33 M16.45 26.73 C14.24 23.21, 10.32 22.11, -0.53 10.62 M15.49 25.93 C12.57 23.36, 8.1 20.06, -1.1 11.78 M14.34 21.51 C11.01 15.46, 4.13 8.48, -1.02 5.85 M16.27 20.34 C9.84 16.51, 6.75 12.39, 0.49 7.73 M16.72 18.04 C10.96 12.07, 4.58 7.72, -0.44 1.43 M15.72 15.46 C9.67 11.12, 3.92 6.55, -0.28 2.39 M15.86 13.08 C10.6 4.62, 6.83 2.65, 2.16 -2.2 M15.8 11.62 C14.07 9.11, 9.69 5.03, 1.59 -1.04 M16.65 6.53 C15.07 3.62, 11.91 3.5, 9.12 -1.54 M16.68 5.69 C13.73 3.69, 12.12 2.15, 8.44 -2.02" stroke="#fd7e14" stroke-width="0.5" fill="none"></path><path d="M-1.1 -0.06 C3.75 0.05, 9.22 -0.51, 15.67 0.34 M0.51 0.06 C3.78 0.26, 7.87 0.43, 14.44 -0.29 M14.77 1.18 C15.57 16.68, 15.36 33.65, 14.33 70.52 M14.85 -0.7 C13.51 15.25, 13.63 31.98, 14.93 71.77 M13.7 70.33 C9.68 71.53, 2.09 71.28, 1.06 72.18 M15.07 71.49 C12.34 71.08, 8.87 70.37, -0.4 70.96 M-0.61 71.66 C-0.52 47.44, -1.86 27.38, 1.49 1.61 M0.03 70.78 C-0.59 44.54, -1.54 17.31, -0.71 0.32" stroke="#e67700" stroke-width="1" fill="none"></path></g><g stroke-linecap="round"><g transform="translate(118.53303203916789 220.41012455525424) rotate(0 43.5605309152229 -35.20506227762712)"><path d="M0 0 C0.54 -8.03, -12.03 -36.44, 3.22 -48.18 C18.46 -59.91, 76.76 -66.7, 91.47 -70.41 M0 0 C0.54 -8.03, -12.03 -36.44, 3.22 -48.18 C18.46 -59.91, 76.76 -66.7, 91.47 -70.41" stroke="#000000" stroke-width="1" fill="none"></path></g></g><g stroke-linecap="round"><g transform="translate(184 229.84949360381188) rotate(0 37.4670878512959 -34.34949360381188)"><path d="M0 -8.85 C1.08 -13.68, -3.78 -33.06, 6.46 -37.81 C16.69 -42.57, 49.96 -33.68, 61.41 -37.36 C72.85 -41.03, 72.85 -56.1, 75.14 -59.85 M0 -8.85 C1.08 -13.68, -3.78 -33.06, 6.46 -37.81 C16.69 -42.57, 49.96 -33.68, 61.41 -37.36 C72.85 -41.03, 72.85 -56.1, 75.14 -59.85" stroke="#000000" stroke-width="1" fill="none"></path></g></g><g stroke-linecap="round"><g transform="translate(210 220) rotate(0 70 -25)"><path d="M0 0 C3.33 -1.67, 0.68 -6.97, 20 -10 C39.32 -13.03, 95.93 -11.54, 115.93 -18.2 C135.93 -24.87, 135.99 -44.7, 140 -50 M0 0 C3.33 -1.67, 0.68 -6.97, 20 -10 C39.32 -13.03, 95.93 -11.54, 115.93 -18.2 C135.93 -24.87, 135.99 -44.7, 140 -50" stroke="#000000" stroke-width="1" fill="none"></path></g></g></svg>