<svg version="1.1" xmlns="http://www.w3.org/2000/svg" viewBox="0 0 380 322.3498104501739" width="760" height="644.6996209003478">
  <g stroke-linecap="round" transform="translate(10.479354060482137 10) rotate(0 178.69713339265388 151.17490522508695)"><path d="M0.8 0.64 C105.69 -1.55, 211.91 -1.35, 356.58 -0.11 M0 0.19 C72.24 -1.47, 144.19 -1.1, 357.25 0.38 M358.37 -1.41 C359.58 85.97, 358.42 172.08, 357.13 302.03 M358.02 0.22 C356.99 79.94, 356.72 159.53, 357.64 301.85 M358.57 301.91 C273.72 299.36, 189.99 301.12, -0.39 302.61 M357.51 302.91 C269.76 302.99, 180.72 303.17, -0.01 302.72 M-0.48 301.39 C-0.68 189, -0.14 76.28, 0.85 1.03 M0.46 302.39 C2.33 194.37, 1.51 86.18, 0.2 0.66" stroke="#000000" stroke-width="1" fill="none"></path></g><g stroke-linecap="round"><g transform="translate(10.311100020315507 38.864445179525774) rotate(0 179.6888999796845 0.6622765021585337)"><path d="M0.75 0.6 C60.69 0.46, 299.85 0.02, 359.69 -0.05 M-0.31 -0.13 C59.43 -0.14, 298.67 1.18, 358.54 1.45" stroke="#000000" stroke-width="1" fill="none"></path></g></g><g stroke-linecap="round" transform="translate(25.74741221555246 21.937666304393815) rotate(0 6.989426612712236 6.989426612712236)"><path d="M13.98 6.99 C13.98 7.39, 13.94 7.8, 13.87 8.2 C13.8 8.6, 13.7 9, 13.56 9.38 C13.42 9.76, 13.24 10.13, 13.04 10.48 C12.84 10.83, 12.6 11.17, 12.34 11.48 C12.08 11.79, 11.79 12.08, 11.48 12.34 C11.17 12.6, 10.83 12.84, 10.48 13.04 C10.13 13.24, 9.76 13.42, 9.38 13.56 C9 13.7, 8.6 13.8, 8.2 13.87 C7.8 13.94, 7.39 13.98, 6.99 13.98 C6.58 13.98, 6.17 13.94, 5.78 13.87 C5.38 13.8, 4.98 13.7, 4.6 13.56 C4.22 13.42, 3.85 13.24, 3.49 13.04 C3.14 12.84, 2.81 12.6, 2.5 12.34 C2.19 12.08, 1.9 11.79, 1.64 11.48 C1.38 11.17, 1.14 10.83, 0.94 10.48 C0.73 10.13, 0.56 9.76, 0.42 9.38 C0.28 9, 0.18 8.6, 0.11 8.2 C0.04 7.8, 0 7.39, 0 6.99 C0 6.58, 0.04 6.17, 0.11 5.78 C0.18 5.38, 0.28 4.98, 0.42 4.6 C0.56 4.22, 0.73 3.85, 0.94 3.49 C1.14 3.14, 1.38 2.81, 1.64 2.5 C1.9 2.19, 2.19 1.9, 2.5 1.64 C2.81 1.38, 3.14 1.14, 3.49 0.94 C3.85 0.73, 4.22 0.56, 4.6 0.42 C4.98 0.28, 5.38 0.18, 5.78 0.11 C6.17 0.04, 6.58 0, 6.99 0 C7.39 0, 7.8 0.04, 8.2 0.11 C8.6 0.18, 9 0.28, 9.38 0.42 C9.76 0.56, 10.13 0.73, 10.48 0.94 C10.83 1.14, 11.17 1.38, 11.48 1.64 C11.79 1.9, 12.08 2.19, 12.34 2.5 C12.6 2.81, 12.84 3.14, 13.04 3.49 C13.24 3.85, 13.42 4.22, 13.56 4.6 C13.7 4.98, 13.8 5.38, 13.87 5.78 C13.94 6.17, 13.96 6.79, 13.98 6.99 C14 7.19, 14 6.79, 13.98 6.99" stroke="none" stroke-width="0" fill="#fa5252"></path><path d="M13.98 6.99 C13.98 7.39, 13.94 7.8, 13.87 8.2 C13.8 8.6, 13.7 9, 13.56 9.38 C13.42 9.76, 13.24 10.13, 13.04 10.48 C12.84 10.83, 12.6 11.17, 12.34 11.48 C12.08 11.79, 11.79 12.08, 11.48 12.34 C11.17 12.6, 10.83 12.84, 10.48 13.04 C10.13 13.24, 9.76 13.42, 9.38 13.56 C9 13.7, 8.6 13.8, 8.2 13.87 C7.8 13.94, 7.39 13.98, 6.99 13.98 C6.58 13.98, 6.17 13.94, 5.78 13.87 C5.38 13.8, 4.98 13.7, 4.6 13.56 C4.22 13.42, 3.85 13.24, 3.49 13.04 C3.14 12.84, 2.81 12.6, 2.5 12.34 C2.19 12.08, 1.9 11.79, 1.64 11.48 C1.38 11.17, 1.14 10.83, 0.94 10.48 C0.73 10.13, 0.56 9.76, 0.42 9.38 C0.28 9, 0.18 8.6, 0.11 8.2 C0.04 7.8, 0 7.39, 0 6.99 C0 6.58, 0.04 6.17, 0.11 5.78 C0.18 5.38, 0.28 4.98, 0.42 4.6 C0.56 4.22, 0.73 3.85, 0.94 3.49 C1.14 3.14, 1.38 2.81, 1.64 2.5 C1.9 2.19, 2.19 1.9, 2.5 1.64 C2.81 1.38, 3.14 1.14, 3.49 0.94 C3.85 0.73, 4.22 0.56, 4.6 0.42 C4.98 0.28, 5.38 0.18, 5.78 0.11 C6.17 0.04, 6.58 0, 6.99 0 C7.39 0, 7.8 0.04, 8.2 0.11 C8.6 0.18, 9 0.28, 9.38 0.42 C9.76 0.56, 10.13 0.73, 10.48 0.94 C10.83 1.14, 11.17 1.38, 11.48 1.64 C11.79 1.9, 12.08 2.19, 12.34 2.5 C12.6 2.81, 12.84 3.14, 13.04 3.49 C13.24 3.85, 13.42 4.22, 13.56 4.6 C13.7 4.98, 13.8 5.38, 13.87 5.78 C13.94 6.17, 13.96 6.79, 13.98 6.99 C14 7.19, 14 6.79, 13.98 6.99" stroke="#000000" stroke-width="1" fill="none"></path></g><g stroke-linecap="round" transform="translate(54.428351017966406 21.937666304393815) rotate(0 6.989426612712236 6.989426612712236)"><path d="M13.98 6.99 C13.98 7.39, 13.94 7.8, 13.87 8.2 C13.8 8.6, 13.7 9, 13.56 9.38 C13.42 9.76, 13.24 10.13, 13.04 10.48 C12.84 10.83, 12.6 11.17, 12.34 11.48 C12.08 11.79, 11.79 12.08, 11.48 12.34 C11.17 12.6, 10.83 12.84, 10.48 13.04 C10.13 13.24, 9.76 13.42, 9.38 13.56 C9 13.7, 8.6 13.8, 8.2 13.87 C7.8 13.94, 7.39 13.98, 6.99 13.98 C6.58 13.98, 6.17 13.94, 5.78 13.87 C5.38 13.8, 4.98 13.7, 4.6 13.56 C4.22 13.42, 3.85 13.24, 3.49 13.04 C3.14 12.84, 2.81 12.6, 2.5 12.34 C2.19 12.08, 1.9 11.79, 1.64 11.48 C1.38 11.17, 1.14 10.83, 0.94 10.48 C0.73 10.13, 0.56 9.76, 0.42 9.38 C0.28 9, 0.18 8.6, 0.11 8.2 C0.04 7.8, 0 7.39, 0 6.99 C0 6.58, 0.04 6.17, 0.11 5.78 C0.18 5.38, 0.28 4.98, 0.42 4.6 C0.56 4.22, 0.73 3.85, 0.94 3.49 C1.14 3.14, 1.38 2.81, 1.64 2.5 C1.9 2.19, 2.19 1.9, 2.5 1.64 C2.81 1.38, 3.14 1.14, 3.49 0.94 C3.85 0.73, 4.22 0.56, 4.6 0.42 C4.98 0.28, 5.38 0.18, 5.78 0.11 C6.17 0.04, 6.58 0, 6.99 0 C7.39 0, 7.8 0.04, 8.2 0.11 C8.6 0.18, 9 0.28, 9.38 0.42 C9.76 0.56, 10.13 0.73, 10.48 0.94 C10.83 1.14, 11.17 1.38, 11.48 1.64 C11.79 1.9, 12.08 2.19, 12.34 2.5 C12.6 2.81, 12.84 3.14, 13.04 3.49 C13.24 3.85, 13.42 4.22, 13.56 4.6 C13.7 4.98, 13.8 5.38, 13.87 5.78 C13.94 6.17, 13.96 6.79, 13.98 6.99 C14 7.19, 14 6.79, 13.98 6.99" stroke="none" stroke-width="0" fill="#fab005"></path><path d="M13.98 6.99 C13.98 7.39, 13.94 7.8, 13.87 8.2 C13.8 8.6, 13.7 9, 13.56 9.38 C13.42 9.76, 13.24 10.13, 13.04 10.48 C12.84 10.83, 12.6 11.17, 12.34 11.48 C12.08 11.79, 11.79 12.08, 11.48 12.34 C11.17 12.6, 10.83 12.84, 10.48 13.04 C10.13 13.24, 9.76 13.42, 9.38 13.56 C9 13.7, 8.6 13.8, 8.2 13.87 C7.8 13.94, 7.39 13.98, 6.99 13.98 C6.58 13.98, 6.17 13.94, 5.78 13.87 C5.38 13.8, 4.98 13.7, 4.6 13.56 C4.22 13.42, 3.85 13.24, 3.49 13.04 C3.14 12.84, 2.81 12.6, 2.5 12.34 C2.19 12.08, 1.9 11.79, 1.64 11.48 C1.38 11.17, 1.14 10.83, 0.94 10.48 C0.73 10.13, 0.56 9.76, 0.42 9.38 C0.28 9, 0.18 8.6, 0.11 8.2 C0.04 7.8, 0 7.39, 0 6.99 C0 6.58, 0.04 6.17, 0.11 5.78 C0.18 5.38, 0.28 4.98, 0.42 4.6 C0.56 4.22, 0.73 3.85, 0.94 3.49 C1.14 3.14, 1.38 2.81, 1.64 2.5 C1.9 2.19, 2.19 1.9, 2.5 1.64 C2.81 1.38, 3.14 1.14, 3.49 0.94 C3.85 0.73, 4.22 0.56, 4.6 0.42 C4.98 0.28, 5.38 0.18, 5.78 0.11 C6.17 0.04, 6.58 0, 6.99 0 C7.39 0, 7.8 0.04, 8.2 0.11 C8.6 0.18, 9 0.28, 9.38 0.42 C9.76 0.56, 10.13 0.73, 10.48 0.94 C10.83 1.14, 11.17 1.38, 11.48 1.64 C11.79 1.9, 12.08 2.19, 12.34 2.5 C12.6 2.81, 12.84 3.14, 13.04 3.49 C13.24 3.85, 13.42 4.22, 13.56 4.6 C13.7 4.98, 13.8 5.38, 13.87 5.78 C13.94 6.17, 13.96 6.79, 13.98 6.99 C14 7.19, 14 6.79, 13.98 6.99" stroke="#000000" stroke-width="1" fill="none"></path></g><g stroke-linecap="round" transform="translate(84.36891075199514 21.937666304393815) rotate(0 6.989426612712236 6.989426612712236)"><path d="M13.98 6.99 C13.98 7.39, 13.94 7.8, 13.87 8.2 C13.8 8.6, 13.7 9, 13.56 9.38 C13.42 9.76, 13.24 10.13, 13.04 10.48 C12.84 10.83, 12.6 11.17, 12.34 11.48 C12.08 11.79, 11.79 12.08, 11.48 12.34 C11.17 12.6, 10.83 12.84, 10.48 13.04 C10.13 13.24, 9.76 13.42, 9.38 13.56 C9 13.7, 8.6 13.8, 8.2 13.87 C7.8 13.94, 7.39 13.98, 6.99 13.98 C6.58 13.98, 6.17 13.94, 5.78 13.87 C5.38 13.8, 4.98 13.7, 4.6 13.56 C4.22 13.42, 3.85 13.24, 3.49 13.04 C3.14 12.84, 2.81 12.6, 2.5 12.34 C2.19 12.08, 1.9 11.79, 1.64 11.48 C1.38 11.17, 1.14 10.83, 0.94 10.48 C0.73 10.13, 0.56 9.76, 0.42 9.38 C0.28 9, 0.18 8.6, 0.11 8.2 C0.04 7.8, 0 7.39, 0 6.99 C0 6.58, 0.04 6.17, 0.11 5.78 C0.18 5.38, 0.28 4.98, 0.42 4.6 C0.56 4.22, 0.73 3.85, 0.94 3.49 C1.14 3.14, 1.38 2.81, 1.64 2.5 C1.9 2.19, 2.19 1.9, 2.5 1.64 C2.81 1.38, 3.14 1.14, 3.49 0.94 C3.85 0.73, 4.22 0.56, 4.6 0.42 C4.98 0.28, 5.38 0.18, 5.78 0.11 C6.17 0.04, 6.58 0, 6.99 0 C7.39 0, 7.8 0.04, 8.2 0.11 C8.6 0.18, 9 0.28, 9.38 0.42 C9.76 0.56, 10.13 0.73, 10.48 0.94 C10.83 1.14, 11.17 1.38, 11.48 1.64 C11.79 1.9, 12.08 2.19, 12.34 2.5 C12.6 2.81, 12.84 3.14, 13.04 3.49 C13.24 3.85, 13.42 4.22, 13.56 4.6 C13.7 4.98, 13.8 5.38, 13.87 5.78 C13.94 6.17, 13.96 6.79, 13.98 6.99 C14 7.19, 14 6.79, 13.98 6.99" stroke="none" stroke-width="0" fill="#40c057"></path><path d="M13.98 6.99 C13.98 7.39, 13.94 7.8, 13.87 8.2 C13.8 8.6, 13.7 9, 13.56 9.38 C13.42 9.76, 13.24 10.13, 13.04 10.48 C12.84 10.83, 12.6 11.17, 12.34 11.48 C12.08 11.79, 11.79 12.08, 11.48 12.34 C11.17 12.6, 10.83 12.84, 10.48 13.04 C10.13 13.24, 9.76 13.42, 9.38 13.56 C9 13.7, 8.6 13.8, 8.2 13.87 C7.8 13.94, 7.39 13.98, 6.99 13.98 C6.58 13.98, 6.17 13.94, 5.78 13.87 C5.38 13.8, 4.98 13.7, 4.6 13.56 C4.22 13.42, 3.85 13.24, 3.49 13.04 C3.14 12.84, 2.81 12.6, 2.5 12.34 C2.19 12.08, 1.9 11.79, 1.64 11.48 C1.38 11.17, 1.14 10.83, 0.94 10.48 C0.73 10.13, 0.56 9.76, 0.42 9.38 C0.28 9, 0.18 8.6, 0.11 8.2 C0.04 7.8, 0 7.39, 0 6.99 C0 6.58, 0.04 6.17, 0.11 5.78 C0.18 5.38, 0.28 4.98, 0.42 4.6 C0.56 4.22, 0.73 3.85, 0.94 3.49 C1.14 3.14, 1.38 2.81, 1.64 2.5 C1.9 2.19, 2.19 1.9, 2.5 1.64 C2.81 1.38, 3.14 1.14, 3.49 0.94 C3.85 0.73, 4.22 0.56, 4.6 0.42 C4.98 0.28, 5.38 0.18, 5.78 0.11 C6.17 0.04, 6.58 0, 6.99 0 C7.39 0, 7.8 0.04, 8.2 0.11 C8.6 0.18, 9 0.28, 9.38 0.42 C9.76 0.56, 10.13 0.73, 10.48 0.94 C10.83 1.14, 11.17 1.38, 11.48 1.64 C11.79 1.9, 12.08 2.19, 12.34 2.5 C12.6 2.81, 12.84 3.14, 13.04 3.49 C13.24 3.85, 13.42 4.22, 13.56 4.6 C13.7 4.98, 13.8 5.38, 13.87 5.78 C13.94 6.17, 13.96 6.79, 13.98 6.99 C14 7.19, 14 6.79, 13.98 6.99" stroke="#000000" stroke-width="1" fill="none"></path></g><g stroke-linecap="round"><g transform="translate(264.5195167191123 72.8426263988556) rotate(0 -11.247471495241484 16.367727664572726)" fill-rule="evenodd"><path d="M0.25 0.5 L5.74 8.02 L-18.47 18.26 L5.75 27.02 L4.18 33.52 L-26.97 23.21 L-25.9 15.72 L-1.31 0.56" stroke="none" stroke-width="0" fill="#000000" fill-rule="evenodd"></path><path d="M0.73 -0.15 C1.85 2.3, 3.74 4.57, 4.22 6.35 M0.36 0.14 C1.41 1.91, 3.08 3.79, 4.63 6.09 M5.26 7.14 C-2.64 12.41, -10.85 14.97, -15.55 19 M5.04 6.25 C-3.08 10.42, -9.57 13.32, -18.4 18.93 M-18.6 17.47 C-11.13 22.35, -5.89 23.66, 6.64 24.28 M-17.53 18.92 C-10.41 21.03, -3.84 22.54, 6.15 26.87 M5.58 26.91 C5.52 28.26, 4.2 31.8, 3.93 33.63 M5.57 25.83 C4.71 29.07, 3.99 31.76, 3.36 34.03 M2.74 34.23 C-1.93 32.58, -11.11 29.76, -29.14 22.57 M3.56 33.54 C-4.11 31.37, -11.5 28.42, -27 23.01 M-28.38 22.75 C-27.25 21.26, -27.29 18.38, -28.28 14.18 M-27.38 23.28 C-27.37 20.12, -27.84 17.6, -27.73 13.47 M-25.73 14.99 C-22.31 9.05, -13.02 6.48, -1.26 -1.49 M-27.83 14.68 C-19.35 9.15, -11.69 5.96, -0.93 -0.47 M0 0 C0 0, 0 0, 0 0 M0 0 C0 0, 0 0, 0 0" stroke="#000000" stroke-width="1" fill="none"></path></g></g><g stroke-linecap="round"><g transform="translate(312.67068621139083 73.82622670272144) rotate(0 11.128275825719243 17.421950073254834)" fill-rule="evenodd"><path d="M0.5 1.09 L-3.21 5.33 L17.93 18.58 L-5.48 26.87 L-4.06 34.59 L28.84 25.43 L31.21 12.45 L0.56 -0.12" stroke="none" stroke-width="0" fill="#000000" fill-rule="evenodd"></path><path d="M-0.15 -0.03 C-2.05 2.62, -4.22 4.66, -4.89 6.21 M0.15 0.04 C-1.63 2.77, -3.38 4.72, -5.14 6.48 M-4.09 6.66 C2.08 8.7, 5.63 13.76, 18.67 19.13 M-4.98 5.49 C4.56 10.92, 12.86 15.29, 18.6 18.22 M17.14 19.42 C12.7 20.99, 4.92 23.71, -8.23 26.28 M18.59 18.73 C9.77 20.76, 0.5 24.1, -5.64 26.42 M-5.59 26.51 C-5.75 28.81, -3.69 32.3, -3.95 34.28 M-6.68 25.87 C-5.5 27.99, -4.86 30.01, -3.54 33.55 M-3.35 35.36 C4.87 31.06, 11.83 27.92, 28.2 22.64 M-4.03 33.95 C3.12 32.33, 9.36 30.44, 28.65 22.85 M28.39 24 C29.06 21.75, 28.37 18.6, 29.67 14.05 M28.92 23.87 C29.05 21.37, 29.79 19.55, 28.96 13.42 M30.48 12.68 C21.13 12.81, 15.18 6.63, -1.49 -0.52 M30.17 14.57 C18.73 10.04, 9.61 3.67, -0.47 0.87 M0 0 C0 0, 0 0, 0 0 M0 0 C0 0, 0 0, 0 0" stroke="#000000" stroke-width="1" fill="none"></path></g></g><g stroke-linecap="round"><g transform="translate(273.02898926357193 126.67262468245099) rotate(0 15.736243410024827 -37.03481694757693)" fill-rule="evenodd"><path d="M0.67 -1.36 L19.07 -73.61 L30.91 -73.68 L9.25 -0.98 L0.84 0.59" stroke="none" stroke-width="0" fill="#228be6" fill-rule="evenodd"></path><path d="M-0.08 -0.34 C7.27 -28.82, 13.9 -55.91, 20.54 -72.98 M0.09 0.35 C7.98 -27.09, 14.69 -55.79, 21.23 -75.16 M21.01 -73.53 C24.69 -74.45, 29.91 -74.33, 31.43 -73.35 M20.4 -74.34 C23.95 -74.88, 26.91 -74.31, 30.95 -74.43 M31.88 -72.83 C26.56 -57.15, 22.65 -43.82, 11.03 1.09 M31.19 -74.51 C25.44 -56.12, 21.02 -35.53, 11.17 0.9 M11.37 -0.36 C7.6 1.2, 5.49 -0.12, 0.59 -0.46 M10.49 0.41 C7.98 0.23, 5.36 0.24, -0.41 -0.4 M0 0 C0 0, 0 0, 0 0 M0 0 C0 0, 0 0, 0 0" stroke="#000000" stroke-width="1" fill="none"></path></g></g><g stroke-linecap="round"><g transform="translate(258.1689690981241 142.95212800596278) rotate(0 -15.401273229148728 32.34664071985276)" fill-rule="evenodd"><path d="M1.21 -0.75 L-15.09 0.64 L-17.09 23.5 L-31.03 32.6 L-15.22 41.33 L-16.15 63.69 L0.95 67.05 L2.85 56.82 L-9.52 56.81 L-12.43 36.6 L-17.78 32.34 L-12.79 26.47 L-11.19 9.13 L3.08 7.21 L-1.88 0.67" stroke="none" stroke-width="0" fill="#000000" fill-rule="evenodd"></path><path d="M0.17 -0.47 C-6.82 -1.78, -10.44 -1.44, -15.84 -1.91 M0.62 0.06 C-3.43 0.17, -8.45 -0.24, -15.38 -0.98 M-15.96 -1.79 C-17.4 7.39, -14.41 15.02, -14.31 24.76 M-16.23 -0.96 C-14.63 6.45, -15.78 13.07, -16.16 24.71 M-15 24.25 C-18.57 25.8, -21.83 26.71, -33.81 32.05 M-15.24 24.99 C-19.8 26.61, -24.91 28.68, -33.37 32.15 M-32.13 33.45 C-27.68 35.9, -23.25 35.32, -16.72 40.22 M-32.63 32.77 C-29.36 33.49, -24.2 35.97, -16.22 39.1 M-16.37 38.69 C-13.57 48.91, -16.71 56.98, -16.86 64.69 M-16.14 40.52 C-15.69 49.16, -15.93 59.71, -15.02 65.21 M-16.73 66.6 C-10.79 63.37, -6.27 66.46, 2.75 66.04 M-16.16 65.6 C-8.8 64.59, -3.81 64.41, 1.18 64.35 M2.32 64.54 C1.3 63.39, 1.61 60.64, 1.97 58.32 M1.76 65.25 C1.94 62.29, 1.96 59.51, 2.12 58.28 M3.01 56.77 C-1.11 57.27, -3.93 57.45, -9.37 57.81 M1.18 58.05 C-1.07 58.1, -4.56 58.34, -10.42 57.36 M-10.22 56.58 C-10.7 55.25, -10.98 51.7, -11.66 39.38 M-10.63 58.36 C-10.98 53.04, -10.82 49.37, -10.45 39.01 M-10.69 39.14 C-13.74 36.71, -16.06 35.52, -18.14 34.48 M-11.71 38.07 C-12.77 37.39, -15.09 36.18, -18.12 34.25 M-18.98 33.38 C-15.48 31.39, -14.82 30.27, -12.43 28.24 M-18.67 34.01 C-17.26 32.6, -16.2 31.49, -12.53 28.24 M-12.21 28.41 C-14.2 22.43, -12.29 15.64, -12.85 7.74 M-12.58 28.74 C-11.15 21.93, -12.77 16.73, -11.46 7.75 M-10.85 7.5 C-8.27 8.03, -3.85 6.96, 2.21 6.07 M-12.4 7.03 C-9.39 6.69, -6.16 6.75, 1.33 6.97 M0.71 6.91 C1.67 4.66, 0.8 4.43, 0.58 -0.54 M1.37 6.93 C0.85 5.1, 0.62 3.33, -0.11 0.08 M0 0 C0 0, 0 0, 0 0 M0 0 C0 0, 0 0, 0 0" stroke="#000000" stroke-width="1" fill="none"></path></g></g><g stroke-linecap="round"><g transform="translate(355.2752993387371 142.04344709818474) rotate(180 -15.066471218185825 32.37802749408138)" fill-rule="evenodd"><path d="M-0.75 0.65 L-14.47 -1.99 L-17.51 26.7 L-32.3 32.55 L-13.61 38.8 L-16.75 64.26 L3.73 66.17 L0.68 58.98 L-11.68 56.85 L-13.17 39.16 L-20.22 33.39 L-13.73 29.02 L-10.36 9.02 L1.67 5.06 L0.67 -0.08" stroke="none" stroke-width="0" fill="#000000" fill-rule="evenodd"></path><path d="M-0.47 -1.48 C-6.04 0.06, -10.08 -0.45, -17.01 -1.51 M0.06 0.41 C-3.42 -0.79, -7.36 0.18, -16.08 -0.67 M-16.89 -2.33 C-15.36 8.77, -15.36 17.02, -16.24 24.35 M-16.06 0.25 C-15.15 9.1, -15.1 18.95, -16.29 24.31 M-16.75 25.93 C-19.96 27.62, -23.89 26.88, -32.86 31.71 M-16.01 25.54 C-21.67 27.16, -26.8 29.03, -32.75 32.46 M-31.45 32.06 C-26.53 33.21, -24.66 34.89, -14.72 38.34 M-32.14 31.64 C-29.35 34.38, -24.9 34.63, -15.85 40.24 M-16.26 41.55 C-15.29 44.31, -16.61 49.87, -15.76 67.09 M-14.42 39.1 C-16.11 48.08, -15.74 58.36, -15.23 64.99 M-13.84 64.72 C-10.23 64.44, -0.44 66.2, 2.72 65.84 M-14.84 65.77 C-10.16 65.05, -4.53 64.65, 1.04 65.25 M1.23 64.63 C2.36 62.53, 1.88 60.45, 2.18 58.54 M1.94 65.22 C1.75 63.44, 1.74 61.84, 2.14 57.7 M0.63 57.92 C-2.91 58.12, -6.78 59.24, -10.68 57.68 M1.91 58.52 C-1.73 58.36, -5.17 57.95, -11.13 57.34 M-11.91 58.12 C-9.43 50.44, -9.31 42.49, -10.39 36.53 M-10.13 57.54 C-11.47 53.28, -11.35 49.67, -10.76 38.75 M-10.62 38.42 C-13.69 37.28, -15.52 36.28, -18.07 33.6 M-11.7 38.79 C-13.65 36.74, -16.14 35.86, -18.3 34.19 M-19.17 34.89 C-17.43 31.83, -14.83 30.59, -11.97 27.25 M-18.54 33.92 C-17.28 32.34, -15.72 30.99, -11.96 28.02 M-11.8 26.14 C-11.9 20.47, -12.6 12.2, -11.75 6.75 M-11.47 29.03 C-12.66 21.4, -12.25 16.72, -11.74 7.3 M-11.99 7.21 C-6.23 7.34, -2.13 7.72, 0.52 5.75 M-12.45 7.22 C-8.86 7.51, -4.77 7.09, 1.42 6.44 M1.37 7.59 C0.18 4.34, 0.98 2.14, -0.54 -0.13 M1.38 6.82 C1.04 4.6, 0.75 2.09, 0.08 -0.33 M0 0 C0 0, 0 0, 0 0 M0 0 C0 0, 0 0, 0 0" stroke="#000000" stroke-width="1" fill="none"></path></g></g><g stroke-linecap="round" transform="translate(258.585533176657 168.47672888501143) rotate(0 32.270903024093286 8.067725756023378)"><path d="M1 -1.03 L63.62 1.95 L64.46 14.94 L-1.4 14.61" stroke="none" stroke-width="0" fill="#228be6"></path><path d="M-1.89 -1.83 C14.3 -0.93, 27.9 -1.43, 63.43 -1.31 M0.53 0.35 C20.44 -0.03, 43.27 -0.49, 64.49 0.13 M63.17 0.32 C65.56 5.07, 65.68 9.1, 63.8 17.53 M65.26 0.4 C64.25 5.86, 64.12 10.39, 63.78 15.34 M65.28 15.26 C51.73 14.29, 35.6 15.35, -0.8 16.51 M64.84 15.42 C39.77 15.45, 15.06 15.63, 0.03 15.83 M-0.32 17.28 C-1.01 9.89, -1.23 6.67, -1.1 -1.42 M-0.69 15.67 C0.37 10.9, -0.74 4.75, 0.55 -0.56" stroke="#000000" stroke-width="1" fill="none"></path></g><g stroke-linecap="round"><g transform="translate(259.9343939924652 231.97555579231903) rotate(0 -8.653404624970904 33.12533267372146)" fill-rule="evenodd"><path d="M1.69 1.39 L-19.29 1.02 L-16.97 65.04 L2.35 67.8 L2.83 56.17 L-13.69 59.31 L-11.31 8.49 L3.7 9.14 L1.11 -1.14" stroke="none" stroke-width="0" fill="#000000" fill-rule="evenodd"></path><path d="M1.84 -1.23 C-7.87 0.47, -13.62 0.09, -20.36 -1.64 M-0.23 -0.39 C-6.4 -0.19, -12.02 0.25, -18.7 0.38 M-20.55 0.22 C-18.34 25.94, -18.71 53.02, -18.41 66.02 M-17.66 -0.75 C-19.32 19.59, -17.75 40.03, -17.87 66.94 M-18.01 67.5 C-10.36 66.37, -2.54 65.47, 0.67 66.84 M-18 65.26 C-12.74 65.75, -8.46 66.73, 1.7 67.89 M3.25 66.15 C2.64 65.46, 3.25 61.6, 2.27 58.48 M2.28 67.17 C2.48 64.83, 2.3 61.97, 2.02 58.18 M2.28 57.41 C-2.31 59.24, -8.42 58.17, -11.12 59.91 M2.78 57.55 C-3.46 57.87, -9.19 58.93, -12.11 58.64 M-14.33 60.36 C-12.72 42.07, -11.16 24.18, -13.97 7.03 M-12.04 58.36 C-13.37 37.74, -12.46 17.53, -12.88 7.07 M-12.36 6.46 C-6.84 7.68, -1.19 8, 0.98 8.49 M-11.87 7.23 C-7.2 7.87, -0.77 7.68, 2.67 7.59 M2.24 7.51 C1.33 5.91, 1.25 3.23, 0.64 0.22 M2.12 7.54 C1.82 6.16, 1.52 4.8, -0.28 -0.29 M0 0 C0 0, 0 0, 0 0 M0 0 C0 0, 0 0, 0 0" stroke="#000000" stroke-width="1" fill="none"></path></g></g><g stroke-linecap="round"><g transform="translate(340.7011698893716 232.32425322571248) rotate(180 -8.37298728330802 32.89299488481174)" fill-rule="evenodd"><path d="M1.39 -0.65 L-17.39 0.63 L-19 66.14 L3.2 67.42 L0.49 56.98 L-12.18 60.17 L-11.93 9.14 L3.7 8.97 L-1.14 1.91" stroke="none" stroke-width="0" fill="#000000" fill-rule="evenodd"></path><path d="M-1.23 -1.36 C-3.93 -0.46, -8.85 -1.65, -20.04 -0.22 M-0.39 -0.79 C-5.09 -0.91, -9.55 -0.23, -18.03 0.67 M-18.18 -0.24 C-18.53 18.82, -17.64 38.69, -18.02 66.21 M-19.15 -0.88 C-18.07 17.52, -17.35 33.87, -17.1 66.69 M-16.54 66.64 C-9.9 67.76, -3.06 65.12, 2.25 65.7 M-18.78 66.57 C-13.24 66.36, -7.12 65.94, 3.3 66.69 M1.55 67.15 C3.24 65.94, 1.75 63.23, 2.8 58.02 M2.58 67.07 C2.82 64.27, 2.54 61.38, 2.5 58.29 M1.73 58.45 C-2.01 57.7, -8.71 60.12, -11.58 60.31 M1.87 58.1 C-1.82 58.52, -4.71 59.03, -12.84 59.16 M-11.13 59.09 C-12.1 42.09, -13.02 20.41, -13.4 9.81 M-13.12 58.38 C-13.18 41.27, -13.12 22.55, -13.35 8.35 M-13.97 8.37 C-6.78 8.77, -0.61 6.4, 3.05 9.04 M-13.2 7.56 C-7.01 8.18, -1.57 7.97, 2.15 7.77 M2.08 7.51 C1.83 5.34, 0.55 2.92, 0.22 -0.66 M2.1 7.73 C1.94 6.18, 1.77 4.02, -0.29 -0.38 M0 0 C0 0, 0 0, 0 0 M0 0 C0 0, 0 0, 0 0" stroke="#000000" stroke-width="1" fill="none"></path></g></g><g stroke-linecap="round" transform="translate(258.3944029070831 264.00516288287554) rotate(0 8.205425874640014 8.205425874640014)"><path d="M8.66 -0.33 C10.16 -0.4, 10.79 0.67, 12.2 1.63 C13.61 2.58, 16.55 3.52, 17.12 5.4 C17.69 7.27, 16.46 11.25, 15.64 12.85 C14.82 14.45, 13.89 14.4, 12.21 15 C10.54 15.6, 7.44 16.86, 5.6 16.46 C3.77 16.06, 2.13 14.19, 1.21 12.59 C0.28 10.99, -0.26 8.56, 0.03 6.85 C0.32 5.13, 1.43 3.48, 2.96 2.29 C4.48 1.1, 8.18 0.19, 9.2 -0.31 C10.23 -0.81, 9.23 -0.99, 9.11 -0.73 M9.82 0.67 C11.71 0.96, 14.94 1.33, 15.96 2.98 C16.97 4.63, 16.12 8.47, 15.93 10.56 C15.75 12.65, 16.19 14.45, 14.85 15.53 C13.5 16.61, 9.66 17.34, 7.86 17.03 C6.06 16.73, 5.32 15.05, 4.04 13.69 C2.77 12.33, 0.7 10.37, 0.21 8.89 C-0.27 7.41, 0.21 6.25, 1.14 4.79 C2.08 3.33, 4.18 0.71, 5.82 0.12 C7.47 -0.46, 10.4 1.44, 11 1.28 C11.61 1.12, 9.4 -0.83, 9.46 -0.84" stroke="none" stroke-width="0" fill="#228be6"></path><path d="M8.8 -0.61 C10.51 -0.5, 13.29 1.23, 14.56 2.67 C15.82 4.11, 16.46 6.38, 16.37 8.05 C16.28 9.72, 15.18 11.47, 14.02 12.7 C12.86 13.93, 11.01 15.02, 9.42 15.44 C7.83 15.86, 5.84 15.79, 4.46 15.2 C3.08 14.61, 1.78 13.52, 1.12 11.9 C0.46 10.29, 0.15 7.26, 0.5 5.49 C0.85 3.72, 1.61 2.18, 3.22 1.28 C4.83 0.39, 8.99 0.21, 10.15 0.11 C11.31 0.02, 10.26 0.57, 10.18 0.71 M9.67 -0.77 C11.29 -1.07, 11.24 0.41, 12.52 1.77 C13.79 3.13, 16.86 5.46, 17.32 7.4 C17.77 9.34, 16.18 11.73, 15.25 13.39 C14.32 15.05, 13.34 16.96, 11.73 17.36 C10.12 17.76, 7.19 16.57, 5.58 15.78 C3.97 14.99, 2.99 13.98, 2.07 12.63 C1.14 11.28, 0.06 9.69, 0.05 7.68 C0.03 5.68, 0.63 2.05, 1.96 0.6 C3.3 -0.84, 7.12 -0.81, 8.07 -1 C9.01 -1.18, 7.67 -0.57, 7.65 -0.5" stroke="#000000" stroke-width="1" fill="none"></path></g><g stroke-linecap="round" transform="translate(283.54905276861246 264.00516288287554) rotate(0 8.205425874640014 8.205425874640014)"><path d="M8.04 -0.96 C9.83 -1.02, 12.36 1.61, 13.57 2.95 C14.79 4.29, 14.91 5.36, 15.33 7.08 C15.76 8.81, 17 11.83, 16.13 13.28 C15.25 14.73, 11.83 15.38, 10.08 15.79 C8.34 16.2, 7.17 16.36, 5.65 15.75 C4.13 15.14, 1.92 13.59, 0.95 12.13 C-0.02 10.66, -0.55 8.52, -0.18 6.94 C0.19 5.37, 1.66 3.78, 3.16 2.67 C4.67 1.56, 7.87 0.65, 8.84 0.29 C9.8 -0.08, 8.85 0.3, 8.95 0.49 M6.74 1.12 C8.26 0.69, 9.54 -0.33, 11.29 0.49 C13.03 1.31, 16.2 4.47, 17.22 6.02 C18.24 7.57, 18.08 8.15, 17.42 9.78 C16.76 11.41, 15.17 14.72, 13.28 15.82 C11.38 16.91, 8.1 16.62, 6.04 16.33 C3.98 16.03, 1.89 15.2, 0.93 14.06 C-0.04 12.92, 0.21 11.22, 0.24 9.49 C0.27 7.77, -0.07 5.43, 1.11 3.72 C2.3 2, 6.69 -0.44, 7.35 -0.82 C8.02 -1.2, 5.22 1.12, 5.11 1.44" stroke="none" stroke-width="0" fill="#228be6"></path><path d="M6.17 0.11 C7.71 -0.11, 10.51 0.3, 12.1 1.13 C13.69 1.97, 15.24 3.47, 15.72 5.12 C16.21 6.76, 15.75 9.24, 15.02 11.02 C14.28 12.8, 12.73 14.83, 11.32 15.82 C9.91 16.8, 8 17.33, 6.58 16.92 C5.16 16.51, 3.87 14.98, 2.81 13.34 C1.74 11.71, 0.27 8.86, 0.18 7.11 C0.08 5.35, 0.97 4.06, 2.24 2.82 C3.52 1.58, 6.67 0.14, 7.83 -0.34 C8.98 -0.83, 9.16 -0.28, 9.17 -0.09 M5.69 -0.77 C7.1 -1.3, 10.08 1, 11.87 1.97 C13.66 2.94, 15.54 3.45, 16.42 5.03 C17.29 6.6, 17.51 9.69, 17.11 11.41 C16.71 13.12, 15.73 14.34, 14.04 15.32 C12.35 16.3, 8.9 17.58, 6.97 17.3 C5.04 17.03, 3.47 15.27, 2.45 13.65 C1.44 12.03, 1.25 9.34, 0.91 7.57 C0.56 5.81, -0.37 4.38, 0.39 3.05 C1.15 1.73, 4.55 0.13, 5.46 -0.36 C6.36 -0.85, 5.86 -0.22, 5.82 0.1" stroke="#000000" stroke-width="1" fill="none"></path></g><g stroke-linecap="round" transform="translate(308.88316004267244 264.00516288287554) rotate(0 8.205425874640014 8.205425874640014)"><path d="M4.3 0.51 C5.83 -0.3, 9.95 -1.27, 11.79 -0.54 C13.64 0.19, 14.48 3.34, 15.37 4.88 C16.26 6.43, 17.46 7.07, 17.13 8.72 C16.8 10.38, 14.89 13.54, 13.41 14.81 C11.92 16.08, 9.97 16.44, 8.24 16.34 C6.51 16.25, 4.3 15.32, 3.01 14.24 C1.72 13.16, 0.67 11.59, 0.48 9.87 C0.3 8.15, 0.87 5.68, 1.89 3.92 C2.9 2.15, 5.62 -0.16, 6.58 -0.71 C7.54 -1.27, 7.55 0.38, 7.64 0.59 M8.71 -0.67 C10.42 -0.68, 11.32 1.7, 12.73 3.11 C14.14 4.51, 16.87 6.18, 17.19 7.76 C17.51 9.34, 15.49 11.44, 14.64 12.59 C13.79 13.74, 13.58 14.28, 12.1 14.65 C10.62 15.01, 7.52 15.09, 5.77 14.8 C4.02 14.51, 2.4 14.25, 1.6 12.89 C0.8 11.53, 0.72 8.25, 0.97 6.62 C1.22 5, 2.14 4.46, 3.11 3.14 C4.08 1.82, 5.82 -0.84, 6.78 -1.32 C7.74 -1.79, 8.69 -0.27, 8.88 0.3" stroke="none" stroke-width="0" fill="#228be6"></path><path d="M9.07 -0.28 C10.89 -0.13, 12.92 1.09, 14.07 2.26 C15.22 3.44, 15.87 5.13, 15.97 6.79 C16.08 8.44, 15.61 10.61, 14.72 12.17 C13.83 13.72, 12.2 15.37, 10.62 16.1 C9.05 16.84, 6.92 17.29, 5.26 16.56 C3.61 15.82, 1.66 13.45, 0.68 11.72 C-0.3 9.99, -1.13 7.91, -0.64 6.17 C-0.15 4.43, 1.9 2.24, 3.62 1.28 C5.34 0.32, 8.52 0.53, 9.69 0.41 C10.86 0.29, 10.61 0.51, 10.63 0.54 M10 0.33 C11.54 1.03, 15.28 2.96, 16.32 4.68 C17.36 6.4, 16.58 8.8, 16.23 10.67 C15.89 12.54, 15.53 14.97, 14.23 15.9 C12.93 16.84, 10.15 16.45, 8.44 16.27 C6.72 16.1, 5.33 15.79, 3.94 14.84 C2.54 13.89, 0.69 12.58, 0.05 10.58 C-0.58 8.58, -0.75 4.67, 0.11 2.83 C0.97 0.99, 3.5 0.02, 5.21 -0.48 C6.93 -0.99, 9.51 -0.14, 10.41 -0.19 C11.32 -0.24, 10.52 -0.86, 10.66 -0.8" stroke="#000000" stroke-width="1" fill="none"></path></g><g stroke-linecap="round" transform="translate(29.019433913897956 67.05830174169546) rotate(0 85.58745261254353 26.151721631610485)"><path d="M0 0 C0 0, 0 0, 0 0 M0 0 C0 0, 0 0, 0 0 M-0.27 6.88 C0.78 5.23, 2.81 2.75, 4.69 0.12 M-0.59 6.76 C1.57 4.78, 3.44 2.88, 5.19 0.31 M-1 11.35 C2.59 7.85, 8.26 3.82, 11.75 0.56 M-0.63 11.43 C2.24 8.52, 5.41 5.71, 10 -0.22 M0.65 17.31 C2.33 14.3, 9.47 11.08, 17.18 2.24 M0.37 18.17 C3.78 15.24, 6.36 11.05, 16.48 1.05 M0.07 23.15 C7.1 15.2, 16.06 6.81, 19.3 -0.86 M0.28 24.24 C5.35 18.02, 11.25 11.1, 21.38 0.16 M-0.97 28.68 C9.82 19.63, 16.72 11.48, 26.2 -0.64 M-0.41 29.51 C10.23 17.97, 20.76 6.32, 25.57 1.18 M0.89 37.26 C12.88 21.95, 24.46 11.26, 30.32 1.8 M0.37 37.1 C9.62 26.83, 17.55 16.49, 31.24 -0.13 M-0.49 41.71 C6.66 34.31, 14.22 22.93, 36.69 0.13 M1 43.1 C11.43 29.96, 22.12 16.94, 36.45 0.32 M-1.5 48.37 C15.45 29.28, 33.48 13.99, 43.34 0.58 M0.14 49.37 C10.86 36.73, 23.24 23.41, 43.28 0.46 M0.27 54.16 C13.11 41.15, 21.43 27.01, 49.26 1.82 M1.48 52.38 C14.67 39.15, 26.84 23.15, 48.46 0.75 M6.03 54.37 C23.7 33.2, 42.05 12.35, 54.83 0.67 M6.49 53.84 C22.79 34.9, 37.95 16.93, 53.54 -0.34 M11.63 54.3 C21.56 42.7, 33.7 27.25, 57.75 0.02 M11.95 54.06 C27.9 36.73, 43.46 17.83, 57.56 0.38 M17.32 53.22 C29.35 37.84, 44.12 24.38, 65.47 -1.47 M16.46 52.73 C30 39.33, 43.23 23.82, 63.18 0.3 M21.01 55.01 C33.41 40.25, 44.33 28.38, 67.18 -1.43 M21.39 53.34 C37.02 36.97, 50.01 20.35, 69.35 -0.29 M28.09 52.68 C45.97 31.47, 65 11.07, 74.17 -0.09 M27.41 52.41 C40.77 39.5, 52.66 25.43, 73.49 -0.7 M33.3 54.18 C46.27 41.41, 57.97 25.41, 79.83 -0.38 M32.13 53.22 C48.94 34.31, 63.25 16.61, 80.09 0.85 M39.24 54.25 C55.14 35.36, 68.93 17.19, 84.05 -2.17 M39.27 54.3 C50.24 38.32, 64.67 23.67, 84.92 0.72 M42.24 52.2 C58.4 32.83, 78.44 14.84, 89.18 1.58 M44.3 53.07 C60.9 34.11, 78.84 12.28, 89.66 0.53 M50.87 51.73 C59.07 44.09, 69.73 32.26, 96.45 -1.4 M49.61 52.43 C62.91 36.91, 78.78 19.24, 96.06 -1.29 M55.8 54.75 C65.09 39.43, 76.55 27.11, 101.93 1.15 M54.17 54.35 C67.16 37.4, 80.78 21.99, 100.59 -0.91 M60.3 53.19 C73.18 37.26, 85.41 22.37, 104.93 -0.19 M60.66 52.45 C77.54 32.71, 95.03 12.42, 106.62 0.53 M66.15 54.81 C78.72 33.68, 96.2 19.59, 111.99 -0.69 M65.16 53.63 C81.32 34.41, 97.06 16, 111.05 -0.53 M72.09 54.99 C83.32 39.34, 93.29 26.42, 116.62 1.08 M70.27 52.62 C82.75 39.23, 95.58 23.07, 115.82 0.31 M75.72 54.6 C91.11 32.96, 112.07 11.66, 122.51 -0.69 M74.81 53.61 C91.19 34.35, 108.61 16.31, 121.85 0.23 M79.99 51.76 C94.58 37.9, 108 23.97, 128.81 -0.95 M80.94 52.8 C92.76 39.19, 105.66 25.43, 125.97 1.03 M87.11 51.67 C95.58 40.49, 108.31 28.11, 131.85 0.71 M85.82 54.07 C99.41 37.54, 112.48 23.18, 133.44 0.52 M92.98 54.41 C108.01 34.1, 127.34 15.03, 139.09 1.91 M90.8 53.48 C108.1 33.89, 124.56 14.33, 137.57 0.04 M97.16 52.81 C109.51 36.75, 124.45 23.74, 143.57 1.31 M97.02 52.93 C107.98 40.98, 121.8 26.15, 142.91 -0.89 M101.28 52.15 C114.48 39.55, 127.6 22.65, 149.87 0.38 M102.63 52.73 C113.42 39.86, 123.89 27.98, 148.89 1.03 M106.95 52.11 C124.61 34.34, 142.37 13.22, 152.48 -0.77 M106.39 53.2 C124.27 33.65, 143.03 12.61, 152.99 -0.6 M114.28 54.46 C125.99 38.28, 138.78 22.14, 157.81 -1.55 M112.86 53.25 C127.62 36.32, 141.92 19.58, 158.37 -0.19 M119.75 52.95 C135.19 33.43, 153.83 11.68, 162.58 -1.15 M118.04 54 C132.3 38.28, 146.03 22.46, 165.06 0.37 M122.65 53.09 C135.21 38.32, 150.85 24.22, 167.78 -0.61 M122.54 53.34 C136.95 35.3, 151.85 18.68, 169.57 -0.68 M127.05 53.97 C146.11 34.14, 161.77 15.93, 171.14 3.11 M129.22 53.57 C138.76 40.93, 150.81 29.18, 172.15 1.88 M131.57 52.83 C146.13 42.4, 157.68 29.17, 172.33 7.3 M133.71 54.68 C146.21 41.32, 155.83 28.65, 173.65 8.12 M138.57 55.11 C151.95 38.33, 164.31 23.54, 172.05 14.49 M139.33 54.24 C151.9 38.05, 163.69 24.93, 173.37 14.7 M145.43 54.52 C154.24 43.86, 163.63 32.57, 172.71 19.77 M145.04 54.26 C154.49 43.05, 163.47 31.35, 173.41 20.08 M148.26 51.58 C156.15 45.25, 165.9 35.93, 173.51 26.41 M148.91 53.47 C154.7 48.12, 159.79 42.44, 172.53 26.83 M153.87 53.49 C161.87 45.38, 167.78 39.67, 171.72 31.88 M154.84 53.99 C161.41 46.25, 168.46 37.3, 173.1 33.43 M160.25 51.87 C166.69 46.86, 170.72 43.71, 172.41 36.39 M160.64 52.83 C164.77 47.85, 168.17 45.2, 173.58 37.69 M164.79 54.25 C167.88 51.16, 168.37 50.45, 173.96 44.7 M164.99 54.21 C167.45 51.06, 170.21 48.01, 173.81 44.4 M-0.24 52.1 C-0.24 52.1, -0.24 52.1, -0.24 52.1 M-0.24 52.1 C-0.24 52.1, -0.24 52.1, -0.24 52.1 M6.07 52.97 C4.92 51.5, 1.68 49.55, -0.09 46.91 M6.16 52.28 C4.41 51.02, 2.9 49.58, -0.05 46.89 M13.61 51.86 C7.39 47.14, 4.02 44.65, -1.63 42.9 M12.81 52.17 C8.09 49.09, 4.05 44.42, 0.14 40.72 M19.5 53.07 C13.95 46.25, 9.16 45.32, 1.69 34.75 M18.1 52.1 C10.34 45.37, 4.45 39.32, -0.62 37.23 M23.24 53.17 C17.54 45.95, 7.91 37.78, 0.68 30.5 M24.89 53.17 C15.95 44.66, 9.54 39.6, -0.26 30.66 M29 50.78 C22.53 44.63, 11.52 37.71, 2.05 24.56 M30.85 52.78 C23.06 45.08, 17.09 40.68, -0.31 26.12 M37.79 53.24 C27.11 43.65, 20.43 37.68, 0.41 20.75 M37.19 51.71 C25.22 41.93, 15.1 33.02, -0.7 19.28 M43.59 53.68 C27.46 38.64, 10.85 24.99, -0.7 13.58 M43.34 52.06 C28.33 39.06, 13.43 25.69, -0.68 15.04 M46.71 52.82 C28.88 34.74, 11.09 19.03, -1.7 8.83 M48.12 52.82 C36.6 41.67, 24.94 31.59, -0.98 8.92 M53.36 50.75 C40.59 42.3, 27.41 28.98, -1.71 4.61 M55.9 52.41 C37.93 38.92, 22.44 22.96, -0.88 3.88 M61.46 50.11 C42.21 35.22, 26.02 22.19, 1.31 0.58 M60.21 51.71 C39.51 33.13, 18.22 14.12, 0.44 0.33 M67.91 51.2 C53.17 38.42, 38.95 27.84, 6.86 1.65 M67.74 51.88 C49.6 37.52, 31.71 20.66, 5.84 -0.43 M74.48 51.21 C61.04 42.8, 48.99 29.66, 13.41 -1.32 M73.88 53.37 C54.48 36.74, 34.89 20.8, 12.54 -0.63 M79.26 51.91 C66.77 39.86, 54.57 30.2, 18.78 -1.25 M78.97 52.49 C62.48 36.95, 44.37 22.48, 18.1 -0.09 M86.15 53.56 C65.16 33.23, 45.49 17.09, 25.94 1.04 M85.42 52.93 C70.11 38.27, 54.77 26.37, 25.06 -1.48 M92.7 52.01 C78.59 42, 64.39 28.14, 32.27 -2.03 M90.34 51.83 C71.26 35.29, 50.59 17.13, 29.86 0.55 M99.37 51.84 C79.78 36.67, 60.16 17.42, 37.49 0.36 M98.52 52.58 C76.5 33.37, 54.04 15.15, 37.46 -0.66 M105.44 51.56 C88.44 41.22, 72.39 27.17, 41.05 -0.75 M105 52.81 C80.32 33.21, 57.42 11.63, 42.51 -0.18 M110.46 53.36 C85.29 32.3, 62.91 13.28, 49.63 1.65 M110.27 51.98 C89.59 34.92, 69.56 16.67, 49.56 -0.96 M117.69 50.95 C99.72 36.3, 78.83 21.93, 55.04 -2.2 M116.45 51.93 C96.51 35.48, 77.2 17.64, 54.61 -0.81 M120 52.72 C107.69 42.61, 95.44 30.47, 61.42 0.17 M120.89 51.89 C107.98 39.86, 92.05 27.91, 61.11 -0.58 M127.11 52.82 C111.7 37.58, 97.82 25.89, 67.16 -1.24 M128.13 52.3 C106.52 32.8, 87.02 15.7, 67.57 -1.13 M135.5 54.42 C117.19 40.4, 102.11 23.59, 72.37 0.81 M133.51 51.84 C117.13 38, 99.47 21.04, 73.73 -0.8 M139.85 53.43 C123.58 39.68, 110.83 24.11, 80.28 0.61 M139.35 51.98 C119.98 35.55, 100.63 18.02, 79.71 0.21 M146.47 52.32 C132 39.59, 117.29 26.54, 85.2 0.72 M146.11 52.51 C128.25 35.69, 109.18 20.25, 84.67 -0.25 M153.26 53.32 C131.01 33.17, 110.73 17.67, 93.73 1.05 M153.04 51.62 C132.67 35.78, 114.34 19.15, 91.74 -1.35 M158.88 51.5 C144.24 40.02, 127.85 22.63, 96.63 0.02 M159.1 52.65 C145 41.92, 133.44 30.71, 98.61 0.68 M166.68 51.97 C146.5 34.1, 122.95 17.52, 102.33 0.42 M165.57 52.15 C142.35 34.18, 119.78 13.11, 104.75 0.09 M170.15 51.67 C156.44 40.82, 143.95 28.31, 108.32 1.13 M171.27 51.45 C148.78 34.53, 128.35 14.94, 109.56 0.24 M173.36 48.54 C161.37 40.92, 147.4 27.32, 115.1 0.35 M173.64 50.53 C152.08 29.05, 129.79 10.34, 115.99 -1.48 M174.88 45.96 C160.11 31.36, 146.67 19.14, 121.4 -1.3 M174.47 44.35 C155.94 29.13, 136.1 11.32, 122.48 0.26 M175.04 39.84 C158.49 23.4, 141.56 9.08, 130.05 -1.61 M173.83 38.64 C162.68 29.62, 151.47 18.32, 128.6 -0.3 M175 31.9 C160.59 24.35, 149.55 9.93, 135.49 -0.97 M172.83 33.02 C161.8 23.2, 149.65 13.09, 135.19 -1.45 M175.01 27.39 C166.29 21.63, 156.1 11.19, 141.14 -0.59 M174.71 29.46 C164.55 22.15, 157.28 13.47, 141.58 -0.45 M171.59 21.65 C162.26 13.68, 155.03 4.35, 147.4 -1.3 M173.57 22.63 C163.71 14.36, 154.38 7.18, 146.15 -1.51 M172.72 19.15 C167.24 15.09, 162.36 11.11, 152.81 1.53 M174.43 17.71 C166.87 10.99, 158.8 6.39, 153.34 -0.96 M174.91 12.07 C166.19 7.4, 163.92 4.5, 158.01 -0.76 M174.01 12.77 C170.19 8.82, 165.74 4.96, 158.27 0.7 M174.44 7.33 C170.36 4.9, 168.21 2.21, 163.68 -0.53 M174.42 6.94 C169.84 3.75, 166.81 0.77, 165.33 -1.06" stroke="#40c057" stroke-width="0.5" fill="none"></path><path d="M1.79 1.97 C63.97 -1.08, 131.18 0.12, 170 0.91 M-0.12 -0.32 C38.12 0, 75.75 0.45, 171.85 0.62 M172.37 -0.68 C173.04 16.49, 171.08 35.03, 172.64 51.9 M170.96 0.89 C170.05 17.58, 170.9 36.34, 170.81 52.84 M171.72 51.57 C108.02 51.25, 46.1 49.86, 1.5 51.6 M171.92 52.27 C113.89 52.61, 56.64 52.58, -0.48 53.1 M-1.81 50.81 C-0.55 32.02, -1.22 9.84, 0.88 0.77 M-0.69 53.12 C-1.13 36.25, -0.07 22.95, -0.75 0.31" stroke="transparent" stroke-width="1" fill="none"></path></g><g stroke-linecap="round" transform="translate(29.019433913897956 136.47923552742486) rotate(0 85.58745261254353 9.509716956949319)"><path d="M0 0 C0 0, 0 0, 0 0 M0 0 C0 0, 0 0, 0 0 M-0.08 6.18 C1.25 4.04, 3.45 3.24, 5.65 0.96 M-0.09 6.06 C1.43 3.75, 3.66 1.35, 4.95 0.57 M-0.75 13.28 C3.11 6.89, 5.06 4.11, 9.49 0.43 M-0.37 11.29 C2.12 9.4, 4.96 5.53, 10.63 0.75 M-1.63 19.66 C6.42 12.87, 10.35 6.43, 17.54 -0.64 M0.18 18.31 C5.15 11.25, 11.38 4.3, 15.1 1.27 M2.18 21.05 C9.24 16.35, 11.77 10.57, 22.32 -0.31 M3.15 20.09 C7.77 14.22, 12.95 8.87, 20.67 -0.4 M9.55 22.3 C14.73 13.82, 17.87 8.36, 24.61 1.81 M8.51 21.22 C12.82 17.38, 15.94 13.05, 25.66 0.92 M13.15 19.39 C20.02 14.11, 28.06 5.9, 32.42 -1.29 M12.67 21 C20.37 13.67, 25.51 6.24, 32.43 -0.95 M18.43 19.49 C22.23 18.09, 28.45 11.35, 36.55 -0.1 M19.19 20.77 C22.82 15.76, 26.88 11.31, 36.09 1.19 M23.4 19.75 C28.77 13.82, 38.22 4.65, 43.07 1.21 M23.41 21.54 C29.62 14.25, 34.94 9.65, 42.63 -0.44 M28.59 21.2 C34.35 16.77, 34.96 13.83, 49.27 0.61 M30 21.56 C32.28 16.18, 37.78 11.25, 47.57 0.01 M35.47 20.48 C40.3 14.39, 46.45 9.26, 52.06 0.04 M34.22 20.96 C39.01 15.96, 43.77 10.17, 54.13 -0.48 M40.41 19.69 C45.5 16.2, 50.68 10.33, 59.92 1.2 M39.5 21.28 C46.01 15.42, 50.11 9.15, 57.9 0.93 M44.46 22.96 C49 13, 56.01 6.86, 65.37 -0.64 M43.95 20.88 C51.8 13.17, 59.14 6.2, 62.95 0.41 M50.54 22.48 C55.99 15.33, 57.59 14.12, 68.85 -0.79 M51.36 20.73 C55.96 15.42, 60.51 8.9, 68.54 0.13 M54.68 22.61 C61.74 13.8, 65.69 9.4, 75.22 0.61 M55.05 21.28 C61.51 14.28, 69.21 6.75, 75.23 -0.19 M61.8 22.38 C67.95 13.65, 70.91 10.04, 77.64 -1.54 M61.43 20.8 C65.72 16.06, 70.81 10.52, 79.58 -0.63 M65.66 23.37 C73.77 16.37, 80.33 5.91, 86.04 0.49 M66.64 21.98 C73.25 12.12, 80.43 3.17, 84.25 0.44 M73.27 19.47 C75.85 16.59, 81.31 7.23, 91.07 -0.94 M70.69 21.51 C74.99 17.62, 78.62 12.68, 90.74 1.03 M76.83 20.73 C83.61 15.65, 87.16 5.91, 96.5 1 M76.13 20.69 C81.84 17.56, 85.91 11.12, 95.45 -0.91 M82.2 23.13 C86.66 14.33, 95.64 6.85, 99.18 -0.61 M82.24 20.99 C86.54 15.95, 92.19 9.77, 100.4 -0.89 M88.82 20.44 C93.1 16.41, 98.01 7.43, 105.47 -0.59 M87.6 20.71 C92.54 16.61, 97.35 9.45, 105.38 -0.3 M94.12 22 C99.42 13.79, 107.36 4.72, 111.18 -1.88 M92.34 20.47 C99.27 14.04, 107.9 5.85, 110.58 0.2 M97.49 20.55 C100.95 16.6, 104.84 10.73, 117.37 -0.96 M98.73 21.94 C101.42 17.18, 106.4 11.55, 116.1 1.04 M104.72 22.02 C107.09 14.99, 112.49 9.7, 121.53 0.2 M103.38 21.3 C111.51 12.17, 117.45 4.61, 121.92 0.52 M107.92 21.38 C113.64 14.05, 120.55 5.49, 126.83 0.22 M107.87 21.92 C115.57 14.69, 120.35 6.38, 126.78 0.75 M113.95 20.4 C120.52 14.49, 126.15 8.21, 131.89 -1.15 M114.91 21.91 C120.18 13.68, 128.49 4.87, 132.72 0.89 M120.39 19.53 C124.36 12.26, 132.56 5.27, 136.73 -1.18 M119.01 20.77 C122.95 17.27, 126.64 12.14, 136.74 0.83 M123.96 19.64 C129.6 14.77, 135.8 4.96, 145.16 1.59 M124.6 20.89 C130.92 14.46, 135.25 8.36, 143.92 -0.28 M128.43 21.89 C135.89 16.53, 138.68 11.44, 146.8 1.24 M130.75 22.23 C134.22 15.43, 138.87 9.57, 149.12 -0.37 M137.12 21.51 C143.16 10.96, 149.72 2.78, 155.45 0.2 M135.27 21.88 C142.69 14.69, 148.67 7.17, 154.1 0.07 M140.77 19.63 C145.96 15.82, 150.78 9.62, 159.03 -0.84 M141.38 20.66 C145.45 15.76, 151.8 7.47, 159.19 -0.36 M146.02 21.07 C151.98 14.88, 158.79 9.17, 166.07 0.77 M145.87 20.69 C153.06 12.11, 160.47 3.54, 164.45 0.58 M151.35 22.19 C158.22 12.37, 164.21 5.64, 167.59 -0.45 M151.78 22.02 C154.84 16.37, 158.97 13.37, 169.35 0.41 M154.82 21.41 C163.97 16.45, 168.09 7.43, 173.6 3.9 M155.85 20.94 C162.65 13.37, 168.64 7.46, 173.89 2.76 M161.38 19.5 C165.23 16.81, 172.01 13.15, 174.24 6.35 M162.42 20.91 C166.77 15.88, 171.38 10.82, 173.59 7.25 M167.27 21.15 C169.43 19.44, 171.81 17.12, 172.24 13.95 M166.72 21.9 C168.29 19.69, 170.8 17.43, 173.28 14.58 M-0.36 18.71 C-0.36 18.71, -0.36 18.71, -0.36 18.71 M-0.36 18.71 C-0.36 18.71, -0.36 18.71, -0.36 18.71 M5.41 19.29 C3.06 16.4, 1.78 15.03, 0.47 13.47 M6.05 18.77 C3.94 16.78, 1.31 15.18, -0.36 14.08 M13.57 19.45 C10.79 16.79, 7.1 13.9, 1.22 8.95 M12.73 18.54 C9.61 16.74, 6.03 14.96, -0.17 9.28 M18.04 20.18 C12.21 13.99, 5.28 9.43, -1.9 3.22 M17.21 19.39 C11.08 12.09, 4.36 7.13, -0.49 2.84 M24.71 19.36 C14.34 10.62, 9.57 3.43, 1.64 -1.42 M24.58 18.1 C18.27 13.09, 9.99 6.91, 0.26 -1.7 M29.6 18.79 C22.09 10.36, 13.59 4.2, 7.84 0.43 M30.2 19.66 C25.32 13.47, 19.49 9.5, 8.35 -1.87 M35.85 19.5 C26.71 11.88, 20.01 4.2, 13.7 -1.5 M37.27 19.7 C28.4 12.99, 21.3 5.76, 12.42 -0.68 M43.8 20.99 C37.06 13.29, 26.57 6.1, 19.99 -0.12 M42.58 19.36 C37.23 15.07, 32.67 10.13, 18.66 -0.8 M50.53 17.05 C40.67 10.75, 30.48 1.72, 23.81 -0.42 M48.62 19.78 C43.61 13.14, 37.12 9.02, 25.1 -2.13 M55.25 17.5 C48.37 15.22, 46.08 8.26, 29.88 -0.34 M54.79 19.74 C45.42 10.45, 35.94 3.6, 31.6 -1.97 M59.24 17.44 C51.94 13.27, 46.87 4.9, 36.42 0.39 M60.01 19.57 C51.97 11.64, 43.4 3.19, 37.44 -0.04 M67.05 18.28 C58.01 13.25, 49.86 4.64, 42.59 0.09 M67.66 18.1 C59.03 12.27, 52.09 5.19, 43.52 -1.88 M74.43 21.01 C64.77 13.63, 58.57 8.55, 49.96 0.85 M74.22 18.55 C66.75 12.56, 60.87 7.24, 49.49 -1.29 M77.76 19.92 C73.17 11.94, 67.32 6.87, 54.41 -2.21 M78.42 18.2 C73.07 12.99, 67.19 8.18, 56.4 -2.38 M85.51 18.43 C80.26 15.03, 72.36 6.56, 63.34 0.1 M85.42 18.87 C79.61 14.72, 74.12 9.48, 61.66 -0.66 M92.15 20.29 C82.17 10.05, 72.45 4.49, 67.61 0.29 M90.43 17.93 C86.29 15.03, 80.78 10.34, 67.62 -1.08 M97.38 20.63 C91.03 14.17, 82.21 8.16, 74.94 -0.08 M96.67 18.21 C93.56 15.18, 87.34 10.78, 74.78 -0.46 M103.99 21.19 C96.59 13.86, 91.52 7.5, 81.42 -2.55 M102.95 18.92 C94.43 11.55, 86 3.82, 79.93 -0.94 M109.38 18.13 C104.02 12.06, 95.64 7.87, 85.35 -0.63 M109.91 18.26 C100.49 11.96, 93.64 4.51, 85.8 -0.93 M114.97 19.75 C107.98 11.61, 99.66 4.88, 90.53 -0.64 M115.13 18.96 C108.47 12.42, 99.14 4.8, 92.99 -1.34 M122.86 20.43 C115.97 12.66, 110.69 9.84, 100.13 -2.56 M122.51 18.94 C115.97 15.08, 109.91 9.47, 99.58 -0.51 M129.29 18.34 C123.87 15.9, 117.02 10.89, 104.12 -0.23 M127.49 18.89 C119.82 11.77, 109.5 3.24, 105.34 -1.71 M136.1 19.3 C127.24 14.09, 118.61 5.02, 112.79 0.44 M135.17 18.81 C128.22 13.79, 121.4 6.72, 110.85 -1.53 M140.6 19.95 C132.15 13.37, 123.53 5.54, 116.58 -1.32 M139.97 19.03 C135.88 15.24, 129.43 11.17, 116.16 -1.89 M146.86 18.8 C138.71 13.06, 129.95 5.87, 123.35 -0.08 M145.53 20.03 C141.03 13.09, 135.03 8.54, 123.74 -1.21 M151.53 19.51 C144.36 11.15, 137.02 7.34, 130.27 -2.97 M152.39 19.46 C142.92 10.83, 134.71 3.02, 129.05 -0.42 M159.37 18.59 C148.52 11.54, 141.44 2.63, 133.27 0.07 M158.1 18.7 C151.74 12.68, 144.31 5.06, 135.78 -1.34 M164.66 19.26 C160.39 12.51, 152.1 10.48, 142.5 0.1 M164.45 18.4 C160.23 14.85, 155.79 10.22, 141.95 -0.21 M171.09 20.62 C164.81 12.1, 157.85 9.01, 148.23 0.36 M170.03 18.52 C161.89 11.96, 154.44 5.52, 147.62 -0.6 M174.03 16.08 C167.22 9.04, 158.47 4.14, 152.07 -0.62 M174.23 16.51 C167.8 11.3, 161.3 4.59, 152.73 -1.61 M173.62 11.19 C167.02 8.54, 163.42 1.67, 160.79 -1.75 M173.1 10.03 C168.47 7.18, 164.7 3.81, 160.72 -0.89 M172.9 5.28 C173.15 4.92, 170.77 1.98, 165.92 -0.62 M174.02 5.53 C171.01 3.84, 167.81 1.34, 165.3 -1.73" stroke="#40c057" stroke-width="0.5" fill="none"></path><path d="M-1.56 -0.65 C54.71 -1.02, 107.91 -0.46, 171.91 -0.35 M0.16 0.7 C65.03 -0.47, 130.39 -0.32, 171.14 -0.23 M172.06 -0.72 C170.94 7.13, 173 13.31, 170.13 18.87 M171.75 0.92 C170.66 6.12, 170.76 11.08, 171.05 18.3 M171.92 20.61 C133.48 19.91, 96.67 19.34, 1.42 20.93 M172.11 19.54 C107.9 19.48, 44.47 20.25, 0.15 18.55 M-0.22 20.13 C0.58 13.23, 1.46 8.49, -1.84 0.45 M-0.14 18.32 C-0.03 11.13, -0.58 3.91, -0.21 -0.32" stroke="transparent" stroke-width="1" fill="none"></path></g><g stroke-linecap="round" transform="translate(29.019433913897956 165.1554713111882) rotate(0 85.58745261254353 9.509716956949319)"><path d="M0 0 C0 0, 0 0, 0 0 M0 0 C0 0, 0 0, 0 0 M0.16 6.37 C1.69 5.15, 2.04 3.92, 4.96 -0.4 M-0.15 6.19 C0.63 4.99, 1.86 3.35, 4.64 0.52 M1.71 12.9 C4.03 10.63, 4.13 7.14, 11.52 0.76 M-0.25 12.72 C3.64 9.21, 6.06 5.24, 10.12 -0.11 M1.76 16.99 C1.91 13.14, 7.15 9.32, 17.58 0.36 M-0.25 18.43 C5.05 12.87, 10.14 5.95, 15.03 -0.16 M2.22 21.56 C6.59 15.81, 12.17 13.18, 22.13 -0.89 M3.65 20.17 C5.87 17.82, 10.91 12.45, 22.19 0.5 M9.14 23 C12.02 16.69, 19.08 6.42, 25.62 1.55 M7.29 21.76 C13.04 14.52, 18.77 7.7, 26.83 -0.02 M11.82 19.8 C18.24 15.32, 23.12 8.07, 31.21 1.63 M13.34 20.36 C19.67 13.55, 27.37 5.3, 31.84 -0.79 M20.37 22.6 C24.39 16.49, 27.82 8.76, 34.95 0.77 M19.18 21.22 C25.72 14.65, 30.55 7.3, 37.31 -0.4 M23.55 19 C32.28 15.06, 36.5 5.8, 44.24 -0.34 M24.35 20.27 C29.26 16.45, 33.45 11.21, 41.69 -0.41 M28.7 21.34 C37.29 14.83, 42.69 6.15, 47.7 0.06 M29.24 20.75 C35.71 14.06, 41.05 6.98, 47.42 0.26 M34.17 20.57 C40.53 13.71, 47.56 5.36, 53.69 0.62 M35.29 20.76 C40.15 14.05, 46.49 6.88, 54.12 -0.11 M41.26 22.01 C46.89 13.93, 50.27 10.3, 56.2 -1.3 M39.55 21.9 C43.53 16.7, 47.66 10.42, 58.24 -0.4 M45.99 19.94 C50.03 12.29, 58.68 7.11, 65.29 -1.8 M44.28 21.56 C50.1 15.54, 55.42 9.74, 64.18 -0.08 M50.35 21.67 C55.12 15.85, 59.56 11.02, 69.02 -0.69 M50.82 21.8 C53.09 16.38, 57.48 12.1, 68 0.4 M55.49 21.58 C61.89 13.9, 68.39 8.44, 75.93 -1.62 M54.56 21.22 C60.73 17.03, 65.23 10.34, 74.52 0.15 M59.52 21.68 C66.35 11.99, 73.36 8.31, 80.93 1.73 M61.41 22.22 C68.43 13.73, 76.49 4.68, 79.05 -0.48 M67.44 21.47 C69.67 18.3, 76.43 10.1, 83.77 1.42 M65.5 20.69 C70.38 16.71, 74.34 11.3, 84.47 0.61 M73.55 21.68 C76.46 15.29, 79.95 10.82, 90.93 1.13 M72.31 20.53 C76.17 15.61, 79.22 11.16, 90.91 0.94 M75.45 22.15 C84.81 14.93, 90.23 7.98, 94.15 -0.12 M76.32 21.27 C83.68 12.64, 90.75 5.28, 94.95 -0.02 M80.41 21.58 C86.43 15.09, 94.81 7.55, 100.25 1.93 M82.17 20.69 C86.68 17.47, 90.73 11.09, 101.22 0.77 M87.36 23.41 C95.05 13.12, 102.4 6.79, 105.65 0.55 M86.33 22.36 C92.79 14.38, 98.21 7.62, 105.58 0.52 M93.29 19.58 C100.25 13.76, 106.64 3.87, 110.3 -0.15 M92.25 20.29 C97.04 15.88, 102.75 11.28, 110.77 0.2 M99.23 20.36 C105.16 13.44, 112.2 7.57, 115.42 -0.68 M98.01 22.48 C103.55 15.36, 109.04 8.87, 116.92 -0.12 M104.63 22.16 C109.6 14.98, 111.29 11.32, 120.75 -0.11 M103.49 21.53 C107.58 16.25, 112.69 10.43, 122.48 0.55 M109.35 21.36 C111.74 17.89, 116.01 12.08, 127.77 0.05 M107.99 22.25 C115.97 14.62, 122.32 7.4, 126.16 1.03 M116.06 22.08 C122.45 14.96, 128.81 3.76, 131.47 -1.68 M113.43 20.21 C120.48 13.82, 126.43 6.35, 132.43 0.23 M120.21 22.06 C124.51 17.37, 128.14 8.96, 136.29 1.15 M120 21.39 C123.58 15.31, 128.12 10.8, 138.16 -0.18 M124.43 20.38 C131.22 15.68, 132.8 10.72, 144.55 0.69 M125.29 20.74 C130.23 16.37, 135.29 10.88, 142.81 -0.23 M128.52 23.39 C132.8 15.67, 140.08 11.91, 148.42 -1.4 M129.96 21.77 C134.16 14.99, 139.84 10.55, 149.06 0.98 M135.83 20.39 C141.18 11.36, 149.3 3.6, 154.3 -0.15 M134.9 21.15 C140.92 13.84, 148.14 6.82, 152.98 0.82 M139.22 21.56 C143.79 14.47, 150.68 9.73, 158.83 0.6 M140.89 22.32 C147.48 14.19, 153.23 5.83, 158.67 -0.19 M147.54 21.7 C150.13 13.76, 157.62 9.04, 165.25 -2.09 M145.74 20.06 C152.46 13.26, 159.12 7.83, 164.43 -0.88 M151.47 22.08 C155 15.43, 161.78 7.16, 171.41 1.67 M151.97 22.11 C156.04 14.39, 162.63 7.12, 169.41 -0.75 M157.42 22.96 C159.1 16.16, 164.27 9.59, 172.18 2.55 M155.28 22.47 C162.7 14.33, 170.06 5.79, 173.82 1.8 M160.75 21.67 C165.23 16.36, 171.94 9.84, 174.59 8.1 M161.54 21.3 C166.35 16.67, 170.89 11.3, 172.88 8.31 M167.6 21.25 C168.72 18.72, 171.5 17.38, 172.36 15.05 M166.64 21.7 C169.16 18.75, 171.47 16.34, 173.29 13.74 M-0.36 18.71 C-0.36 18.71, -0.36 18.71, -0.36 18.71 M-0.36 18.71 C-0.36 18.71, -0.36 18.71, -0.36 18.71 M6.77 18.52 C3.69 17.12, 3.06 15.97, 0.62 13.8 M6.09 18.74 C4.05 17.62, 2.2 15.19, 0.05 13.69 M13.53 19.71 C8.7 15.3, 6.78 15.41, 0.38 9.15 M12.49 19.97 C9.37 16.05, 5.55 14.23, 0.45 8.35 M17.57 19.96 C12.83 13.42, 5.52 8, -1.71 1.84 M17.99 18.73 C11.98 12.36, 4 5.48, 0.72 3.05 M23.56 20.18 C18.48 14.29, 13.46 9.81, 1 -2.61 M25.18 18.59 C18.61 12.7, 11.89 9.03, 2.03 -1.35 M28.34 19.62 C20.9 11, 12.25 4.62, 5.7 -0.97 M30.06 18.88 C23.39 12.68, 18.21 8.44, 6.71 -0.36 M37.91 19.57 C28.97 15.29, 25.49 10.19, 14.83 -0.79 M37.01 18.22 C31.2 13.11, 24.6 9.1, 12.82 -0.73 M43.55 20.77 C36.44 10.33, 28.8 3.32, 20.62 -1.31 M43.46 18.77 C35.64 13.98, 29.7 8.34, 20.39 -1.8 M47.32 17.17 C41.64 11.67, 33.13 3.62, 23.75 -0.93 M49.01 19.75 C40.18 10.96, 31.35 4.29, 24.81 -2.13 M53.5 19.68 C51.36 13.04, 42.52 8.3, 30.56 -0.04 M55.64 20 C46.02 11.68, 37.17 4.78, 31.71 -0.67 M62.48 19.44 C53.59 12.35, 45.09 4.35, 36.94 0.1 M61.33 19.01 C54.96 13.01, 50.65 8.44, 37.67 -0.71 M66 18.85 C58.03 10.11, 51.51 6.36, 41.8 -0.78 M67.98 18.73 C60.42 13.8, 56.22 8.34, 43.3 -2.36 M73.04 18.79 C64.48 11.64, 56.8 6.77, 50.52 -2.24 M73.05 18.59 C64.42 11.1, 55.99 3.82, 49.46 -1.98 M77.31 18.42 C72.52 14.69, 69.31 9.68, 56.85 0.12 M79.71 18.07 C71.43 12.31, 65.43 6.84, 54.89 -1.14 M86.63 20.94 C81.76 15.89, 77.17 12.42, 62.12 -2.27 M86.07 18.23 C79.27 14.37, 72.39 7.55, 62.13 -0.86 M90.9 18.81 C85.71 15.51, 80 10.62, 69.17 0.24 M91.73 17.75 C84.29 13.5, 78.65 8.07, 69.14 -0.51 M99.32 18.84 C93.08 13.66, 86.79 11.75, 73.79 -0.66 M96.76 19.73 C88.78 11.31, 78.91 3.46, 73.51 -1.33 M104.25 19.38 C97.2 12.31, 90.41 6.81, 82.19 -1.5 M104.32 19.75 C95.37 12.65, 88.8 5.27, 79.59 -0.83 M110.69 20.09 C102.74 13.25, 92 5.02, 86.85 -1.8 M109.83 19.37 C102.03 10.75, 92.54 4.42, 87.1 -0.77 M115.75 17.77 C110.36 11.54, 102.53 8.22, 91.81 -2.97 M115.13 18.72 C108.49 14.58, 103.22 7.64, 92.15 -0.37 M123.27 18.2 C116.02 14.41, 110.66 7.71, 100.55 0.85 M122.89 20.16 C114.8 12.2, 106.54 6.08, 99.77 -0.27 M127.31 19.93 C120.35 13.88, 118.12 9.15, 105.42 0.61 M128.74 18.86 C120.11 13.01, 113.8 5.75, 105.15 -0.98 M133.55 20.03 C126.5 13.84, 118.37 5.77, 111.12 0.13 M134.45 18.29 C128.14 12.9, 121.35 8.18, 111.78 -0.3 M139.26 19.37 C134.69 12.62, 129.78 9.33, 116.6 -0.69 M140.59 18.33 C133.92 13.72, 127.61 9.82, 117.05 -2.37 M146.49 19.65 C138.8 13.08, 129.66 5.92, 122.27 -2.84 M145.41 20 C139.49 13.29, 132.71 7.88, 122.27 -1.75 M153.96 20.59 C144.73 11.57, 138.62 5.72, 127.91 -0.89 M153.53 19.56 C145.88 12.12, 138.75 6.84, 130.2 -0.49 M158.54 17.78 C148.42 12.51, 140.07 3.26, 136.15 -3.33 M159.05 17.99 C153.47 14.25, 147.46 9.14, 135.3 -1.53 M166.68 18.38 C157.03 12.86, 148.66 6.43, 141.88 -2.68 M165.77 19.62 C158.25 14.19, 151.36 7.78, 140.83 -1.15 M172.34 20.41 C163.35 14.38, 156.86 6.67, 148.17 -2.34 M170.8 19.07 C162.53 12.88, 156.49 6.32, 147.55 -0.98 M173.17 17.15 C168.48 11.33, 159.33 3.89, 151.51 0.5 M173.44 16.53 C168.75 11.11, 163.22 6.67, 152.58 -1.11 M173.69 9.14 C168.5 8.04, 164.87 3.96, 161.51 -0.03 M174.09 11.25 C169.44 7.69, 164.88 2.57, 160.07 -0.23 M173.16 6.1 C170.7 4.38, 170.12 1.93, 166.48 -0.72 M174.2 5.73 C172.18 4.4, 169.13 2.19, 166.04 -1.52" stroke="#40c057" stroke-width="0.5" fill="none"></path><path d="M-0.47 1.93 C46.98 -0.34, 91.96 -0.7, 170.78 -0.43 M-0.08 0.08 C66.18 1.48, 133.7 1.91, 170.71 0.27 M169.73 -1.57 C172.47 4.34, 171.75 11.54, 170.73 20.44 M172.08 0.65 C170.8 6.41, 172.15 11.79, 170.89 18.16 M170.23 17.73 C133.5 20.05, 93.83 20.45, 0.7 17.64 M171.41 19.84 C105.16 17.67, 40.5 16.63, -0.19 18.36 M-0.63 20.68 C-1.32 16.56, 0.44 9.79, 1.54 1.88 M0.46 19.08 C-0.07 13.2, -0.04 6.3, 0.06 -0.01" stroke="transparent" stroke-width="1" fill="none"></path></g><g stroke-linecap="round" transform="translate(29.019433913897956 204.19433913898638) rotate(0 85.58745261254353 38.03886782779705)"><path d="M0 0 C0 0, 0 0, 0 0 M0 0 C0 0, 0 0, 0 0 M-0.29 5.63 C0.93 3.95, 2.74 2.51, 4.56 -0.27 M-0.61 6.55 C1 4.49, 2.68 3.5, 5.2 0.67 M1.02 12.84 C3.95 7.97, 10.08 1.64, 11.99 1.35 M-0.38 11.96 C3.63 7.51, 7.49 3.83, 10.05 -0.82 M1.83 18.47 C4.35 12.77, 9.2 8.75, 15.6 0.57 M-0.72 17.95 C4.01 13.23, 9.41 6.56, 15.87 0.3 M1.14 23.26 C3.44 18.45, 9.08 13.26, 19.47 -1.43 M1.19 24.65 C8.46 15.43, 15.83 5.99, 22.05 -0.85 M-0.62 31.74 C10.89 19.81, 21.33 5.65, 26.92 -1.02 M0.58 30.16 C7.65 20.83, 16.39 11.7, 25.63 0.2 M-0.94 38.61 C10.36 26.35, 18.3 15.12, 30.55 -0.95 M-0.31 36.19 C9.05 25.54, 18.37 15.39, 32.5 0.31 M-1.79 43.04 C13.54 27.52, 25.54 15.69, 36.54 1.78 M0.57 41.86 C14.24 27.83, 27.02 11.58, 35.88 1.13 M1.59 48.72 C14.86 31.4, 34.17 12.08, 41.07 1.77 M-0.96 48.65 C14.98 31.14, 29.6 14, 42.52 0.7 M0.46 54.4 C17.1 37.11, 31.32 17.69, 46.3 1.01 M0.18 54.6 C14.24 38.46, 28.36 23.43, 47.31 0.03 M0.55 61.75 C15.87 44.43, 32.57 26.77, 52.76 -1.33 M0.98 61.02 C17.05 41.19, 33.85 22.72, 53.49 0.67 M-2.19 65.87 C12.4 50.76, 29.11 34.71, 59.29 -1.02 M-0.15 66.77 C21.39 44.55, 40.4 21.34, 57.27 -0.61 M1.65 71.4 C13.35 58.14, 28.3 39.32, 63.53 0.97 M0.54 73.13 C15.35 54.36, 31.7 35.96, 63.97 -0.33 M2.1 76.29 C20.85 54.86, 44.11 30.29, 69.8 -1.69 M1.08 77.38 C19.36 58.21, 36.97 38.27, 68.73 0.37 M8.36 76.11 C24.17 57, 41.97 32.67, 73.56 1.15 M6.95 77.88 C32.2 49.09, 57.11 19.05, 74.63 -0.74 M14.01 78.71 C28.34 58.89, 41.11 45.64, 81.34 -0.12 M12.13 76.5 C38 45.23, 64.69 16.04, 79.33 -0.3 M16.19 79.16 C40.98 47.43, 68.57 18.73, 83.21 -1.01 M16.89 78.35 C40.76 50.79, 65.54 24.58, 85.27 0.11 M23.36 78.86 C37.29 57.39, 56.41 41.22, 88.65 0.86 M23.34 78.68 C37.05 62.2, 49.9 46.44, 90.31 0.72 M26.57 77.61 C53.55 48.81, 74.65 20.89, 95.07 -0.44 M27.38 77.71 C41.92 61.48, 55.5 44.84, 95.87 -0.99 M32.67 79.67 C51.7 54.14, 73.24 30.07, 99.67 0.69 M33.65 78.51 C59.62 47.27, 84.27 18.16, 101.59 0.4 M38.08 78.29 C56.21 56.67, 73.93 34.05, 107.95 -0.82 M38.01 78.26 C56.68 59.49, 71.69 39.82, 105.52 -0.17 M42.73 77.59 C65.35 50.67, 90.27 24.63, 109.58 -0.89 M43.2 77.94 C63.45 53.71, 82.61 32.44, 110.71 0.31 M48.5 76.3 C66.83 55.31, 84.2 36.22, 118.22 0.24 M50 76.86 C70.5 52.58, 92.93 27.8, 116.8 1.33 M53.18 77.63 C69.77 58.23, 86.34 41, 122.75 -1.88 M54.91 78.28 C78.89 48.19, 104.65 20.4, 121.86 -0.37 M60.85 77.03 C83.78 51.16, 104.66 24.41, 128.45 2.12 M59.24 78.01 C83.95 49.13, 107.37 22.74, 127.41 1.12 M63.9 76.05 C90.89 47.53, 115.1 17.69, 130.81 0.01 M64.85 77.96 C83.22 56.56, 101.23 36.18, 132.86 0.14 M69.37 78.14 C94.58 47.3, 122.45 22.47, 137.45 -0.23 M71.24 76.8 C85.04 60.11, 100.99 43.31, 137.2 1.16 M76.98 78.43 C96.04 55.06, 116.06 30.95, 142.57 1.37 M75.23 77.51 C99.57 47.59, 126.58 18.05, 144.17 -0.75 M81.5 75.58 C98 55.05, 118.07 36.19, 148.89 -1.36 M82.14 77.96 C98.96 57.53, 115.44 38, 147.86 -0.22 M86.73 77.58 C100.69 61.29, 114.78 44.4, 154.08 -0.97 M85.4 78.56 C102.67 57.33, 120.72 37.42, 153.9 -1.05 M91.91 77.58 C109.81 59.09, 127.06 39.54, 160.69 1.47 M91.75 76.79 C115.66 49.61, 139.25 23.84, 159.16 -0.58 M97.68 75.65 C114.88 55.59, 129.93 36.35, 162.61 0.14 M96.85 76.86 C110.89 61.36, 124.82 44.44, 164.81 -1.14 M104.49 78.65 C126.86 49.26, 150.55 24.95, 170.97 -1.69 M102.49 76.23 C121.01 56.58, 141.06 35.1, 170.06 -0.38 M106.57 78.02 C127.8 59, 145.1 34.51, 174.66 2.38 M108.21 77.27 C130.07 51.97, 151.61 25.97, 173.31 1.48 M114.35 77.58 C133.73 55.95, 149.22 32.87, 173.5 7.99 M112.45 77.81 C135.12 52.65, 156.47 27.98, 173.08 7.59 M116.39 79.38 C133.45 61.98, 147.71 43.54, 173.37 14.99 M118.25 76.76 C131.17 60.3, 146.85 44.81, 173.86 14.19 M121.82 75.45 C139.91 58.86, 156.17 40.87, 174.82 18.84 M124.34 76.68 C141.72 57.31, 158.98 36.71, 172.41 19.82 M130.29 77.68 C140.88 63.53, 153.22 50.36, 172.2 26.14 M128.87 77.41 C145.18 58.82, 162.54 38.7, 173.67 25.61 M134.43 77.6 C141.6 68.64, 148.79 58.26, 174.95 32.71 M134.52 76.6 C144.94 66.49, 153.65 54.39, 173.67 33.15 M137.71 76.19 C151.76 64.07, 160.98 52.97, 173.29 40.1 M140.14 77.4 C147.76 66.91, 156.84 56.25, 174.04 37.8 M144.29 76.44 C152.53 67.31, 162.08 59.34, 172.23 45.48 M145.32 77.69 C151.16 71.4, 157.32 62.72, 173.7 44.33 M148.24 77.41 C156.05 69.43, 163.33 62.68, 173.33 50.15 M149.25 78.02 C154.99 70.62, 160.35 65, 173.28 50.19 M156.71 78.35 C160.91 69.6, 169.49 62.36, 171.89 57.59 M154.7 78.41 C159.39 73.56, 162 69.1, 174.14 57.43 M161.69 77.18 C162.92 72.94, 164.54 72.39, 172.25 61.68 M161.47 76.72 C165.63 72.24, 169.92 65.91, 172.32 63.5 M164.78 78.08 C168.67 74.05, 169.06 73.21, 174.61 68.73 M165.42 77.36 C167.48 75.42, 170.12 72.13, 173.68 69.27 M0.07 76.14 C0.07 76.14, 0.07 76.14, 0.07 76.14 M0.07 76.14 C0.07 76.14, 0.07 76.14, 0.07 76.14 M6.01 76.89 C3.66 74.14, 1.56 73.17, -0.04 70.17 M6.34 76.52 C5.26 75.08, 3.57 73.67, -0.35 70.33 M10.67 76.48 C8.54 75.03, 6.76 73.11, -0.33 64.39 M11.86 75.22 C8.86 72.43, 4.8 69.86, -0.14 64.98 M19.03 75.14 C14.85 71.53, 7.47 67.06, -1.62 58.65 M17.97 75.41 C13.31 71.47, 10.52 67.59, -0.56 59.01 M25.35 77.5 C16.73 68.33, 10.91 64.51, -1.51 53.14 M23.4 76.24 C17.63 70.69, 12.7 66.79, 0.93 55.36 M30.62 75.11 C19.12 68.36, 8.5 59.33, -1.35 50.07 M30.63 76.52 C18.91 66.06, 7.42 56.28, 0.42 49.95 M37.67 77.63 C21.64 65.65, 9.04 52.99, -1.93 42.44 M37.65 76.87 C26.51 67.69, 17.91 59.67, -0.09 44.76 M42.3 76.72 C33.08 67.2, 21.47 55.83, 1.89 39.56 M42.02 76.05 C30.52 65.23, 17.86 54.75, 0.4 39.26 M50.69 75.88 C37.24 67.08, 23.63 55.58, 1.01 32.24 M48.09 76.56 C33.77 62.48, 17.32 49.48, 0.56 34.37 M55.36 75.58 C34.81 58.22, 10.98 40.26, 1.39 29.89 M55.61 76.61 C43.1 65.83, 31.75 55.1, -0.36 29.35 M60.32 74.41 C47.01 65.07, 35.35 51.65, -0.83 21.05 M60.66 77.01 C36.54 55.54, 13.32 34.4, -0.67 23.12 M69.06 78.23 C45.66 58.97, 22.91 39.37, 1.9 18.46 M68.28 77.11 C50.51 61.82, 35.15 47.06, 0.74 17.09 M73.93 77.99 C51.73 57.65, 31.99 40.78, -0.32 11.65 M73.66 76.4 C48.54 53.59, 23.28 32.57, 0.27 12.54 M79.63 77.51 C47.38 49.77, 16.42 22.3, -1.61 7.96 M80.28 77.08 C60.36 61.45, 42.31 44.13, 0.5 7.44 M85.11 76.69 C64.81 59.5, 47.21 43.83, -1.15 1.13 M85.56 75.02 C61.69 55.2, 37.74 34.35, 0.11 1.78 M90.77 74.55 C62.07 51.81, 33.78 22.86, 3.54 -2.34 M90.78 75.64 C66.69 53.86, 40.73 32.7, 2.32 -2.22 M96.42 76.49 C75.43 55.65, 51.71 39.39, 8.53 -1.95 M98.71 76.9 C81.01 59.9, 62.78 44.81, 7.51 -2.18 M104.66 74.05 C69.11 48.29, 38.69 19.88, 11.83 -1.32 M103.81 75.85 C79.81 53.25, 55.07 33.34, 13.32 -1.82 M110.39 74.7 C78.32 50.81, 49.02 25.19, 20.96 -1.89 M109.34 76.23 C78.9 49.24, 48.2 22.48, 20.94 -1.91 M116.68 75.04 C82.4 47.84, 47.69 18.59, 26.31 -3.64 M116.06 76.41 C85.16 48.79, 53.03 22.09, 26.13 -1.24 M120.02 77.88 C87.5 45.73, 55.93 17.24, 32.35 -2.05 M121.09 76.28 C103.33 59.68, 86.14 43.22, 31.25 -2.73 M130.2 77.46 C101.93 50.29, 74.32 29.14, 39.56 -0.84 M128.6 77.24 C93.42 46.94, 58.97 15.56, 38.83 -2.44 M135.77 77.22 C101.26 49.45, 72.81 22.96, 43.89 -0.23 M134.97 75.76 C101.7 47.23, 69.2 19.35, 43.73 -3.04 M139.52 77.58 C105.23 47.55, 75.43 20.06, 50.16 -3.14 M140.91 75.94 C108.78 48.09, 78.8 20.05, 50.38 -2.21 M144.33 75.17 C115.21 50.66, 80.57 23.36, 56.01 -1.96 M145.15 76.5 C127.57 59.3, 106.43 41.94, 55.31 -2.65 M152.45 77.89 C129.32 57.9, 108.01 35.17, 61.12 -1.52 M152.33 76.66 C119.18 47.47, 85.19 18.63, 62.16 -1.26 M159.36 76.14 C137.66 58.8, 119.01 41.67, 67.09 -1.82 M158.68 77.1 C132.17 53.46, 108.26 31.96, 68.28 -1.11 M165.26 74.55 C138.31 53.36, 114.03 31.11, 74.94 -0.32 M164.12 76.53 C145.27 59.42, 127.52 42.45, 73.91 -1.87 M172.47 77.83 C147.38 51.14, 121.72 31.68, 80.5 -0.08 M171.5 75.28 C144.26 52.7, 119.03 31.9, 80.35 -1.3 M174.4 73.33 C149.15 53.8, 125.69 34.02, 88.35 -2.61 M174.15 72.64 C155.77 55.47, 136.97 39.12, 87.55 -2.19 M174.71 69.35 C141 39.78, 107.89 10.22, 95.05 -0.77 M172.89 68.99 C153.33 50.19, 133.59 34.61, 94.1 -2.56 M174.53 63.7 C154.7 46.61, 133.92 28.69, 99.02 -3.53 M173.9 63.09 C144.78 37.21, 115.64 12.39, 98.85 -2.62 M175.65 59.52 C151.24 37.43, 130.02 21.33, 104.04 -0.26 M173.61 57.73 C158.59 43.72, 144.72 31.43, 105.03 -2.25 M174.65 52.49 C158.73 38.54, 143.66 28.11, 112.62 -2.89 M173.6 51.68 C156.7 34.98, 138.19 20.51, 111.49 -1.4 M172.12 47.85 C157.66 32.71, 139.81 17.19, 117.98 -0.69 M173.54 46.52 C154.09 28.82, 134.24 13.08, 117.25 -2.13 M171.87 40.98 C156.05 27.87, 138.27 11.47, 125.25 -3.26 M173.06 41.98 C157.26 26.1, 140.43 11.63, 124.53 -1.71 M174.1 34.47 C156.65 20.58, 141.41 9.96, 131.37 -3.23 M174.69 36.82 C163.72 27.46, 156.02 19.4, 129.29 -2.69 M174.56 30.7 C164.26 24.06, 155.25 15.04, 134.52 -2.57 M173.73 30.14 C160.92 19.18, 148.77 10.2, 136.44 -1.27 M173.81 24.83 C167.22 20.27, 159.67 15.46, 141.63 -0.74 M173.21 26.23 C164.33 18.8, 157.41 9.59, 142.02 -2.79 M172.3 21.47 C167.47 11.74, 156.7 6.34, 146.23 -3.5 M173.71 19.93 C165.16 13.43, 158.98 6.91, 146.81 -2.69 M175.68 15.64 C170.92 11.95, 165.57 7.34, 155.71 -3.85 M174.37 15.46 C170.04 11.18, 163.92 6.79, 154.26 -2.7 M173.8 9.41 C169.64 4.96, 166.65 3.48, 161.07 -2.61 M172.81 9.7 C170.41 7.5, 168.03 4.84, 160.2 -1.8 M174.03 4.67 C170.09 2.09, 168.51 -0.39, 165.55 -1.82 M173.65 4.88 C171.58 2.89, 169.72 0.45, 166.41 -1.93" stroke="#40c057" stroke-width="0.5" fill="none"></path><path d="M-0.39 -0.43 C49.72 -1.21, 94.78 0.49, 171.34 -0.73 M-0.47 0.27 C60.12 -2.35, 120.85 -2.42, 170.35 0.75 M170.7 1.5 C171.4 21.07, 172.88 42.19, 172.53 75.11 M170.88 -0.91 C171.14 28.76, 172.04 57.33, 170.53 76.52 M171.87 74.7 C114.85 75.42, 53.34 77.55, 1.63 74.57 M170.99 75.42 C113.78 74.2, 57.69 74.49, 0.87 75.32 M1.61 78.05 C0.07 45.56, 1.6 17.04, 0.13 -0.24 M0.07 76.07 C0.68 51.92, 0.8 29.06, -0.17 -0.37" stroke="transparent" stroke-width="1" fill="none"></path></g><g stroke-linecap="round"><g transform="translate(48.91971629104955 87.0212614401621) rotate(0 8.59679426278774 -0.09136987142267117)"><path d="M-0.88 -1.04 C2.2 -0.77, 14.77 0.77, 18.07 0.85" stroke="#ffdb1c" stroke-width="2.5" fill="none" stroke-dasharray="8 10"></path></g></g><g stroke-linecap="round"><g transform="translate(86.96053841209687 106.11300790753603) rotate(0 17.85134372165703 -0.7595447631682646)"><path d="M-0.88 0.63 C5.04 0.39, 30.31 -1.96, 36.59 -2.15" stroke="#ffdb1c" stroke-width="2.5" fill="none" stroke-dasharray="8 10"></path></g></g><g stroke-linecap="round"><g transform="translate(163.320536118797 86.58324765493307) rotate(0 9.757201968094705 0.2391734582644176)"><path d="M-1.17 0.36 C1.96 0.44, 15.12 1.06, 18.33 1.06 M0.42 -0.5 C3.98 -0.77, 17.33 -0.3, 20.68 -0.5" stroke="#ffdb1c" stroke-width="4" fill="none"></path></g></g><g stroke-linecap="round"><g transform="translate(40.159133923789796 147.53349916321304) rotate(0 9.880042259216793 -0.05464654915965639)"><path d="M1.14 0.28 C4.31 0.03, 16.49 -0.52, 19.49 -0.65 M0.27 -0.62 C3.3 -0.8, 15.76 0.35, 18.79 0.54" stroke="#ffdb1c" stroke-width="2" fill="none"></path></g></g><g stroke-linecap="round"><g transform="translate(42.78260908736502 212.6844988422372) rotate(0 9.868601411244299 -0.4992073165529973)"><path d="M0.66 -0.05 C3.97 -0.33, 17.11 -1.06, 20.19 -0.91 M-0.45 -1.12 C2.77 -1.34, 16.71 0.13, 19.85 0.14" stroke="#ffdb1c" stroke-width="2" fill="none"></path></g></g><g stroke-linecap="round"><g transform="translate(42.079497442084175 265.8319844190412) rotate(0 9.424789760521094 -0.1546918894225655)"><path d="M1.12 0.42 C4.41 0.53, 15.53 0.85, 18.6 0.72 M0.25 -0.4 C3.44 -0.64, 14.3 -1.21, 17.43 -1.03" stroke="#ffdb1c" stroke-width="4" fill="none"></path></g></g><g stroke-linecap="round"><g transform="translate(105.34647400526774 223.77104713774975) rotate(0 9.088537872841925 -0.3388685460358829)"><path d="M-0.25 -0.57 C2.79 -0.66, 15.33 -0.06, 18.43 -0.1" stroke="#ffdb1c" stroke-width="4.5" fill="none" stroke-dasharray="8 12"></path></g></g><g stroke-linecap="round"><g transform="translate(133.10756517226218 223.8169862413904) rotate(0 8.700911017925023 0.5331181997701151)"><path d="M0.05 -0.73 C3.27 -0.6, 15.43 0.02, 18.79 0.13 M-1.38 1.51 C1.7 1.9, 14.14 1.79, 17.71 1.74" stroke="#ffdb1c" stroke-width="2" fill="none"></path></g></g><g stroke-linecap="round"><g transform="translate(133.3979260630931 255.72019868015036) rotate(0 9.922963938832709 -0.6275442744232578)"><path d="M-0.74 -0.42 C2.19 -0.49, 15.11 -0.67, 18.27 -0.73 M1.07 -1.68 C4.32 -1.58, 17.31 0.12, 20.59 0.43" stroke="#ffdb1c" stroke-width="2" fill="none"></path></g></g></svg>