<svg version="1.1" xmlns="http://www.w3.org/2000/svg" viewBox="12.9 0 261 27.111121283637658" height="27.111121283637658">
  <g stroke-linecap="round" transform="translate(10 10) rotate(0 131.9999525282118 3.555560641818829)"><path d="M3.72 8.02 C5.23 7.96, 5.33 4.81, 10.07 0.33 M2.82 8.46 C6.06 5.93, 7.94 3.32, 10.1 -0.09 M8.72 8.19 C8.85 5.86, 11.83 4.83, 15.81 0.37 M7.29 9.3 C9.53 7.01, 12.03 4.21, 15.57 0.4 M12.71 9 C16.53 4.65, 18.68 2.35, 20.21 -1.21 M13.37 8.97 C16.62 6.04, 19.44 2.12, 21.47 -0.59 M18.98 8.16 C21.17 7.11, 23.08 3.84, 27.29 -0.9 M18.66 9.62 C19.85 6.99, 21.91 5.19, 25.75 0.11 M22.97 9.99 C26.62 6.61, 28 3.27, 31.76 -0.9 M23.7 9.11 C26.56 4.83, 30.54 1.16, 32.15 -0.58 M28.11 8.64 C32.07 6.86, 33.47 2.93, 36.07 -0.74 M29.12 9.15 C30.33 6.84, 32.93 5.03, 37.17 0.41 M34.25 9.12 C35.62 8.6, 36.56 5.86, 43.09 0.32 M33.62 9.09 C35.47 8, 38.21 5.42, 42.41 -0.08 M39.79 9.35 C41.88 5.58, 45.3 3.01, 46.48 -0.53 M39.27 9.32 C42.18 6.42, 43.19 4.36, 47.63 -0.25 M45.49 9.09 C47.72 5.47, 51.55 2.04, 52.6 0.29 M45.11 9.86 C47.08 6.78, 48.85 4.15, 53.47 0.41 M50.72 8.87 C52.36 6.12, 53.65 3.71, 58.85 -0.98 M50.62 8.69 C52.93 6.73, 55.95 3.26, 57.96 0 M54.32 10.67 C57.04 6.63, 58.99 4.3, 62.9 -0.66 M54.84 9.29 C57.38 6.5, 60.2 4.02, 64.4 0.43 M61.43 8.24 C62.96 5.67, 66.75 2.83, 68.38 -0.97 M61.43 9.51 C62.51 6.29, 65.37 3.97, 69.02 -0.15 M66.48 10.64 C68.64 6.86, 71.07 5.02, 74.28 -0.79 M65.41 10.16 C68.74 7.36, 70.43 4.2, 73.95 0.34 M72.72 9.74 C73.58 7.4, 74.36 4.17, 78.31 1.3 M72.08 8.78 C73.04 7.6, 75.03 4.99, 79.87 0.23 M75.65 9.06 C77.63 6.94, 79.49 5.67, 86 -0.89 M76.18 9.85 C78.4 6.88, 79.61 6.06, 85.11 -0.68 M82.03 8.52 C82.76 7.63, 85.88 4.87, 89.12 -0.11 M82.08 9.61 C85.11 6.46, 86.62 3.35, 89.64 0.06 M88.13 10.62 C88.75 7.63, 90.58 5.15, 94.97 -0.39 M86.57 10.08 C90.83 6.1, 93.32 1.43, 95.4 -0.04 M91.83 8.18 C95.51 6.84, 97.4 4.43, 99.73 -0.91 M93.06 8.65 C94.38 7.33, 96.64 4.28, 100.47 0.51 M98.11 10.31 C101.87 6.09, 104.8 2.51, 107.46 -1.25 M97.94 9.8 C101.55 5.76, 103.6 1.65, 106.58 -0.26 M103.64 9.98 C104.75 8.12, 107.61 5.22, 111.11 0.27 M103.4 8.64 C105.47 6.15, 108.95 3.09, 110.91 -0.44 M107.3 10.28 C111.35 6.51, 114.86 3.53, 116.37 -0.64 M107.87 9.68 C111.1 6.86, 113.76 3.61, 116.81 0.33 M114.44 9.23 C116.14 4.78, 119.33 2.74, 122.68 0.65 M113.58 9.47 C116.93 5.14, 119.8 2.06, 121.37 -0.2 M118.05 8.52 C122.1 6.78, 123.24 3.5, 126 -0.79 M119.56 9.03 C120.48 6.39, 123.53 4.09, 126.78 -0.07 M125.02 8.51 C126.61 5.64, 128.52 4.73, 133.48 -0.71 M124.43 8.74 C127.65 5.34, 130.68 2.17, 132.27 -0.52 M129.9 9.51 C132.04 7.73, 134.03 4.09, 138.53 -0.1 M130.16 9.89 C133.05 6.21, 136.19 2.64, 137.22 -0.23 M136.44 9.24 C137.3 7, 141.17 2.11, 143.43 0.74 M135.29 9.57 C138.83 5.5, 141.04 1.57, 143.45 0.22 M140.89 8.87 C142.09 7.1, 144.05 4.57, 148.75 -0.18 M139.86 9.39 C142.46 6.04, 145.23 3.25, 148.68 0.43 M146.39 8.11 C146.61 7.53, 149.59 4.67, 154.45 -0.63 M145.85 9.2 C148.08 6.23, 151.2 3.12, 153.6 -0.7 M151.08 8.85 C152.48 6.3, 156.4 3.22, 158.86 1.04 M151.28 9.85 C152.93 7.27, 155.86 3.69, 159.01 0.8 M157.06 8.52 C158.61 5.3, 162.63 2.71, 164.56 -0.17 M156.05 9.99 C158.36 6.79, 160.64 4.67, 164.42 -0.18 M161.39 9.97 C164.19 6.17, 167.65 2.97, 170.13 0.88 M161.66 9.82 C162.8 7.28, 165.14 5.23, 170.02 -0.07 M166.46 9.62 C169.98 6.52, 173.12 3.97, 176.23 -1.05 M166.96 9.64 C169.93 5.73, 172.53 1.7, 175.28 -0.77 M172.36 9.8 C174.46 7.16, 176.81 2.24, 179.25 0.32 M171.88 9.48 C175.1 6.13, 178.04 3.38, 179.63 -0.06 M176.17 8.68 C180.61 6.89, 182.25 2.48, 185.28 -0.76 M177.32 10.23 C179.91 5.98, 182.21 3.3, 186.1 -0.18 M183 8.98 C185.27 6.91, 189.09 2.45, 191.58 0.39 M182.23 8.83 C184.2 6.74, 186.59 3.97, 190.9 0.73 M187.35 10.16 C189.4 8.23, 192.03 4.74, 197.46 0.07 M188.21 9.32 C189.71 7.02, 192.55 4.72, 196.89 -0.87 M194.35 9.99 C196.31 6.56, 198.44 3.26, 200.69 0.98 M193.05 9.49 C194.86 7.45, 197.22 4.61, 201.8 0.47 M198.83 9.47 C200.46 7.76, 202.06 4.15, 206.45 -1.09 M197.8 9.12 C200.43 6.84, 203.55 3.75, 207.01 -0.24 M203.5 8.78 C206.58 7.46, 208.35 3.71, 211.24 -0.36 M204.09 9.29 C206.17 6.69, 208.37 4.48, 211.84 -0.12 M208.4 9.88 C212.43 5.54, 214.58 5.07, 218.54 0.44 M208.52 9.39 C212.25 6.91, 215.31 3.42, 217.17 -0.46 M214.38 7.93 C216.95 5.45, 219.21 2.23, 223.29 -0.04 M215.14 8.9 C216.34 6.8, 218.86 4.23, 222.66 0.39 M219.3 8.23 C222.6 6.78, 223.84 5.23, 227.93 -0.34 M219.92 9.37 C222.27 5.52, 225.28 3.07, 228.74 0 M224.56 8.32 C228.5 6.89, 229.12 3.44, 233.57 0.82 M225.4 8.8 C227.4 6.9, 229.8 3.97, 232.63 -0.03 M231.1 9.22 C232.37 6.28, 233.47 4.72, 238.18 -0.41 M230.57 9.71 C231.77 6.65, 234.53 4.45, 238.56 0.02 M236.07 7.84 C239.29 6.85, 241.71 3.7, 243.83 -0.09 M236.54 8.7 C237.93 6.1, 240.1 3.74, 243.43 -0.3 M241.24 8.53 C241.61 7.22, 243.54 6.31, 248.01 1.36 M241.39 9.35 C243.58 5.44, 246.39 2.1, 248.82 -0.14 M246.95 9.87 C250.03 5.62, 251.15 2.67, 254.9 -0.18 M246 9.32 C250.15 5.07, 253.18 1.84, 254.7 -0.44 M251.09 9.51 C253.4 6.28, 256.44 2.17, 258.76 0.68 M251.13 9.74 C253.7 6.72, 256.41 4.15, 259.59 -0.07 M257.32 9.95 C259.8 6.82, 263.11 4.23, 264.73 0.35 M257.29 9.39 C260.14 5.71, 262.21 3.36, 263.96 1.02" stroke="#868e96" stroke-width="0.5" fill="none"></path><path d="M0.92 0.2 C75.77 -1.12, 149.51 0.24, 263.49 -0.16 M-0.4 0.57 C77.65 0.39, 155.3 0.97, 264.38 0.77 M263.8 0.43 C264.05 1.95, 263.37 5.05, 264.2 7.78 M264.23 -0.17 C264.19 1.45, 263.97 3.28, 264.01 7 M263.9 6.67 C164.13 10.19, 63.5 9.14, 0.65 6.82 M264.08 7.37 C164.81 5.25, 66.89 5.02, -0.6 7.31 M-0.38 7.44 C-0.69 5.54, -0.15 4.26, -0.57 0.71 M-0.02 6.85 C-0.34 5.23, 0.2 3.26, -0.16 0.28" stroke="transparent" stroke-width="1" fill="none"></path></g></svg>