<svg version="1.1" xmlns="http://www.w3.org/2000/svg" viewBox="0 0 567.6555415946457 271.72521905675535" width="1135.3110831892914" height="543.4504381135107">
  <g stroke-linecap="round" transform="translate(10 53) rotate(0 135.3408953352888 89.99999999999994)"><path d="M1.33 0.27 C92.03 -0.38, 184.58 1.12, 270.7 1.39 M-0.74 -0.57 C67.14 0.5, 133.66 1.91, 271.04 0.63 M272.08 0.94 C271.63 49.57, 269.99 98.43, 270.96 181.56 M270.68 -0.94 C269.03 51.02, 270.38 103.56, 270.91 180.64 M269.53 181.37 C203.62 181.27, 135.23 181.17, 0.72 179.78 M270.55 180.2 C196.17 182.01, 121.5 181.53, -0.69 180.69 M1.65 178.73 C-2.43 140.61, -1.32 104.35, 0.7 -0.64 M0.16 180.88 C-1.47 131.98, -0.92 84.92, -0.64 -0.23" stroke="#000000" stroke-width="1" fill="none"></path></g><g stroke-linecap="round"><g transform="translate(9.899626889536194 74.86818596496369) rotate(0 136.30018459747257 0.1368371355627005)"><path d="M1.02 0.21 C46.33 0.16, 227.22 -0.45, 272.5 -0.35 M0.1 -0.73 C45.18 -0.6, 226.14 1.07, 271.44 1" stroke="#000000" stroke-width="1" fill="none"></path></g></g><g stroke-linecap="round" transform="translate(21.563658697299388 62.04130030055103) rotate(0 5.293623001585615 5.293623001585615)"><path d="M10.59 5.29 C10.59 5.6, 10.56 5.91, 10.51 6.21 C10.45 6.51, 10.37 6.82, 10.27 7.1 C10.16 7.39, 10.03 7.68, 9.88 7.94 C9.72 8.21, 9.55 8.46, 9.35 8.7 C9.15 8.93, 8.93 9.15, 8.7 9.35 C8.46 9.55, 8.21 9.72, 7.94 9.88 C7.68 10.03, 7.39 10.16, 7.1 10.27 C6.82 10.37, 6.51 10.45, 6.21 10.51 C5.91 10.56, 5.6 10.59, 5.29 10.59 C4.99 10.59, 4.68 10.56, 4.37 10.51 C4.07 10.45, 3.77 10.37, 3.48 10.27 C3.2 10.16, 2.91 10.03, 2.65 9.88 C2.38 9.72, 2.13 9.55, 1.89 9.35 C1.66 9.15, 1.44 8.93, 1.24 8.7 C1.04 8.46, 0.86 8.21, 0.71 7.94 C0.56 7.68, 0.42 7.39, 0.32 7.1 C0.21 6.82, 0.13 6.51, 0.08 6.21 C0.03 5.91, 0 5.6, 0 5.29 C0 4.99, 0.03 4.68, 0.08 4.37 C0.13 4.07, 0.21 3.77, 0.32 3.48 C0.42 3.2, 0.56 2.91, 0.71 2.65 C0.86 2.38, 1.04 2.13, 1.24 1.89 C1.44 1.66, 1.66 1.44, 1.89 1.24 C2.13 1.04, 2.38 0.86, 2.65 0.71 C2.91 0.56, 3.2 0.42, 3.48 0.32 C3.77 0.21, 4.07 0.13, 4.37 0.08 C4.68 0.03, 4.99 0, 5.29 0 C5.6 0, 5.91 0.03, 6.21 0.08 C6.51 0.13, 6.82 0.21, 7.1 0.32 C7.39 0.42, 7.68 0.56, 7.94 0.71 C8.21 0.86, 8.46 1.04, 8.7 1.24 C8.93 1.44, 9.15 1.66, 9.35 1.89 C9.55 2.13, 9.72 2.38, 9.88 2.65 C10.03 2.91, 10.16 3.2, 10.27 3.48 C10.37 3.77, 10.45 4.07, 10.51 4.37 C10.56 4.68, 10.57 5.14, 10.59 5.29 C10.6 5.45, 10.6 5.14, 10.59 5.29" stroke="none" stroke-width="0" fill="#fa5252"></path><path d="M10.59 5.29 C10.59 5.6, 10.56 5.91, 10.51 6.21 C10.45 6.51, 10.37 6.82, 10.27 7.1 C10.16 7.39, 10.03 7.68, 9.88 7.94 C9.72 8.21, 9.55 8.46, 9.35 8.7 C9.15 8.93, 8.93 9.15, 8.7 9.35 C8.46 9.55, 8.21 9.72, 7.94 9.88 C7.68 10.03, 7.39 10.16, 7.1 10.27 C6.82 10.37, 6.51 10.45, 6.21 10.51 C5.91 10.56, 5.6 10.59, 5.29 10.59 C4.99 10.59, 4.68 10.56, 4.37 10.51 C4.07 10.45, 3.77 10.37, 3.48 10.27 C3.2 10.16, 2.91 10.03, 2.65 9.88 C2.38 9.72, 2.13 9.55, 1.89 9.35 C1.66 9.15, 1.44 8.93, 1.24 8.7 C1.04 8.46, 0.86 8.21, 0.71 7.94 C0.56 7.68, 0.42 7.39, 0.32 7.1 C0.21 6.82, 0.13 6.51, 0.08 6.21 C0.03 5.91, 0 5.6, 0 5.29 C0 4.99, 0.03 4.68, 0.08 4.37 C0.13 4.07, 0.21 3.77, 0.32 3.48 C0.42 3.2, 0.56 2.91, 0.71 2.65 C0.86 2.38, 1.04 2.13, 1.24 1.89 C1.44 1.66, 1.66 1.44, 1.89 1.24 C2.13 1.04, 2.38 0.86, 2.65 0.71 C2.91 0.56, 3.2 0.42, 3.48 0.32 C3.77 0.21, 4.07 0.13, 4.37 0.08 C4.68 0.03, 4.99 0, 5.29 0 C5.6 0, 5.91 0.03, 6.21 0.08 C6.51 0.13, 6.82 0.21, 7.1 0.32 C7.39 0.42, 7.68 0.56, 7.94 0.71 C8.21 0.86, 8.46 1.04, 8.7 1.24 C8.93 1.44, 9.15 1.66, 9.35 1.89 C9.55 2.13, 9.72 2.38, 9.88 2.65 C10.03 2.91, 10.16 3.2, 10.27 3.48 C10.37 3.77, 10.45 4.07, 10.51 4.37 C10.56 4.68, 10.57 5.14, 10.59 5.29 C10.6 5.45, 10.6 5.14, 10.59 5.29" stroke="#000000" stroke-width="1" fill="none"></path></g><g stroke-linecap="round" transform="translate(43.285909428910486 62.04130030055103) rotate(0 5.293623001585615 5.293623001585615)"><path d="M10.59 5.29 C10.59 5.6, 10.56 5.91, 10.51 6.21 C10.45 6.51, 10.37 6.82, 10.27 7.1 C10.16 7.39, 10.03 7.68, 9.88 7.94 C9.72 8.21, 9.55 8.46, 9.35 8.7 C9.15 8.93, 8.93 9.15, 8.7 9.35 C8.46 9.55, 8.21 9.72, 7.94 9.88 C7.68 10.03, 7.39 10.16, 7.1 10.27 C6.82 10.37, 6.51 10.45, 6.21 10.51 C5.91 10.56, 5.6 10.59, 5.29 10.59 C4.99 10.59, 4.68 10.56, 4.37 10.51 C4.07 10.45, 3.77 10.37, 3.48 10.27 C3.2 10.16, 2.91 10.03, 2.65 9.88 C2.38 9.72, 2.13 9.55, 1.89 9.35 C1.66 9.15, 1.44 8.93, 1.24 8.7 C1.04 8.46, 0.86 8.21, 0.71 7.94 C0.56 7.68, 0.42 7.39, 0.32 7.1 C0.21 6.82, 0.13 6.51, 0.08 6.21 C0.03 5.91, 0 5.6, 0 5.29 C0 4.99, 0.03 4.68, 0.08 4.37 C0.13 4.07, 0.21 3.77, 0.32 3.48 C0.42 3.2, 0.56 2.91, 0.71 2.65 C0.86 2.38, 1.04 2.13, 1.24 1.89 C1.44 1.66, 1.66 1.44, 1.89 1.24 C2.13 1.04, 2.38 0.86, 2.65 0.71 C2.91 0.56, 3.2 0.42, 3.48 0.32 C3.77 0.21, 4.07 0.13, 4.37 0.08 C4.68 0.03, 4.99 0, 5.29 0 C5.6 0, 5.91 0.03, 6.21 0.08 C6.51 0.13, 6.82 0.21, 7.1 0.32 C7.39 0.42, 7.68 0.56, 7.94 0.71 C8.21 0.86, 8.46 1.04, 8.7 1.24 C8.93 1.44, 9.15 1.66, 9.35 1.89 C9.55 2.13, 9.72 2.38, 9.88 2.65 C10.03 2.91, 10.16 3.2, 10.27 3.48 C10.37 3.77, 10.45 4.07, 10.51 4.37 C10.56 4.68, 10.57 5.14, 10.59 5.29 C10.6 5.45, 10.6 5.14, 10.59 5.29" stroke="none" stroke-width="0" fill="#fab005"></path><path d="M10.59 5.29 C10.59 5.6, 10.56 5.91, 10.51 6.21 C10.45 6.51, 10.37 6.82, 10.27 7.1 C10.16 7.39, 10.03 7.68, 9.88 7.94 C9.72 8.21, 9.55 8.46, 9.35 8.7 C9.15 8.93, 8.93 9.15, 8.7 9.35 C8.46 9.55, 8.21 9.72, 7.94 9.88 C7.68 10.03, 7.39 10.16, 7.1 10.27 C6.82 10.37, 6.51 10.45, 6.21 10.51 C5.91 10.56, 5.6 10.59, 5.29 10.59 C4.99 10.59, 4.68 10.56, 4.37 10.51 C4.07 10.45, 3.77 10.37, 3.48 10.27 C3.2 10.16, 2.91 10.03, 2.65 9.88 C2.38 9.72, 2.13 9.55, 1.89 9.35 C1.66 9.15, 1.44 8.93, 1.24 8.7 C1.04 8.46, 0.86 8.21, 0.71 7.94 C0.56 7.68, 0.42 7.39, 0.32 7.1 C0.21 6.82, 0.13 6.51, 0.08 6.21 C0.03 5.91, 0 5.6, 0 5.29 C0 4.99, 0.03 4.68, 0.08 4.37 C0.13 4.07, 0.21 3.77, 0.32 3.48 C0.42 3.2, 0.56 2.91, 0.71 2.65 C0.86 2.38, 1.04 2.13, 1.24 1.89 C1.44 1.66, 1.66 1.44, 1.89 1.24 C2.13 1.04, 2.38 0.86, 2.65 0.71 C2.91 0.56, 3.2 0.42, 3.48 0.32 C3.77 0.21, 4.07 0.13, 4.37 0.08 C4.68 0.03, 4.99 0, 5.29 0 C5.6 0, 5.91 0.03, 6.21 0.08 C6.51 0.13, 6.82 0.21, 7.1 0.32 C7.39 0.42, 7.68 0.56, 7.94 0.71 C8.21 0.86, 8.46 1.04, 8.7 1.24 C8.93 1.44, 9.15 1.66, 9.35 1.89 C9.55 2.13, 9.72 2.38, 9.88 2.65 C10.03 2.91, 10.16 3.2, 10.27 3.48 C10.37 3.77, 10.45 4.07, 10.51 4.37 C10.56 4.68, 10.57 5.14, 10.59 5.29 C10.6 5.45, 10.6 5.14, 10.59 5.29" stroke="#000000" stroke-width="1" fill="none"></path></g><g stroke-linecap="round" transform="translate(65.96216664865744 62.04130030055103) rotate(0 5.293623001585615 5.293623001585615)"><path d="M10.59 5.29 C10.59 5.6, 10.56 5.91, 10.51 6.21 C10.45 6.51, 10.37 6.82, 10.27 7.1 C10.16 7.39, 10.03 7.68, 9.88 7.94 C9.72 8.21, 9.55 8.46, 9.35 8.7 C9.15 8.93, 8.93 9.15, 8.7 9.35 C8.46 9.55, 8.21 9.72, 7.94 9.88 C7.68 10.03, 7.39 10.16, 7.1 10.27 C6.82 10.37, 6.51 10.45, 6.21 10.51 C5.91 10.56, 5.6 10.59, 5.29 10.59 C4.99 10.59, 4.68 10.56, 4.37 10.51 C4.07 10.45, 3.77 10.37, 3.48 10.27 C3.2 10.16, 2.91 10.03, 2.65 9.88 C2.38 9.72, 2.13 9.55, 1.89 9.35 C1.66 9.15, 1.44 8.93, 1.24 8.7 C1.04 8.46, 0.86 8.21, 0.71 7.94 C0.56 7.68, 0.42 7.39, 0.32 7.1 C0.21 6.82, 0.13 6.51, 0.08 6.21 C0.03 5.91, 0 5.6, 0 5.29 C0 4.99, 0.03 4.68, 0.08 4.37 C0.13 4.07, 0.21 3.77, 0.32 3.48 C0.42 3.2, 0.56 2.91, 0.71 2.65 C0.86 2.38, 1.04 2.13, 1.24 1.89 C1.44 1.66, 1.66 1.44, 1.89 1.24 C2.13 1.04, 2.38 0.86, 2.65 0.71 C2.91 0.56, 3.2 0.42, 3.48 0.32 C3.77 0.21, 4.07 0.13, 4.37 0.08 C4.68 0.03, 4.99 0, 5.29 0 C5.6 0, 5.91 0.03, 6.21 0.08 C6.51 0.13, 6.82 0.21, 7.1 0.32 C7.39 0.42, 7.68 0.56, 7.94 0.71 C8.21 0.86, 8.46 1.04, 8.7 1.24 C8.93 1.44, 9.15 1.66, 9.35 1.89 C9.55 2.13, 9.72 2.38, 9.88 2.65 C10.03 2.91, 10.16 3.2, 10.27 3.48 C10.37 3.77, 10.45 4.07, 10.51 4.37 C10.56 4.68, 10.57 5.14, 10.59 5.29 C10.6 5.45, 10.6 5.14, 10.59 5.29" stroke="none" stroke-width="0" fill="#40c057"></path><path d="M10.59 5.29 C10.59 5.6, 10.56 5.91, 10.51 6.21 C10.45 6.51, 10.37 6.82, 10.27 7.1 C10.16 7.39, 10.03 7.68, 9.88 7.94 C9.72 8.21, 9.55 8.46, 9.35 8.7 C9.15 8.93, 8.93 9.15, 8.7 9.35 C8.46 9.55, 8.21 9.72, 7.94 9.88 C7.68 10.03, 7.39 10.16, 7.1 10.27 C6.82 10.37, 6.51 10.45, 6.21 10.51 C5.91 10.56, 5.6 10.59, 5.29 10.59 C4.99 10.59, 4.68 10.56, 4.37 10.51 C4.07 10.45, 3.77 10.37, 3.48 10.27 C3.2 10.16, 2.91 10.03, 2.65 9.88 C2.38 9.72, 2.13 9.55, 1.89 9.35 C1.66 9.15, 1.44 8.93, 1.24 8.7 C1.04 8.46, 0.86 8.21, 0.71 7.94 C0.56 7.68, 0.42 7.39, 0.32 7.1 C0.21 6.82, 0.13 6.51, 0.08 6.21 C0.03 5.91, 0 5.6, 0 5.29 C0 4.99, 0.03 4.68, 0.08 4.37 C0.13 4.07, 0.21 3.77, 0.32 3.48 C0.42 3.2, 0.56 2.91, 0.71 2.65 C0.86 2.38, 1.04 2.13, 1.24 1.89 C1.44 1.66, 1.66 1.44, 1.89 1.24 C2.13 1.04, 2.38 0.86, 2.65 0.71 C2.91 0.56, 3.2 0.42, 3.48 0.32 C3.77 0.21, 4.07 0.13, 4.37 0.08 C4.68 0.03, 4.99 0, 5.29 0 C5.6 0, 5.91 0.03, 6.21 0.08 C6.51 0.13, 6.82 0.21, 7.1 0.32 C7.39 0.42, 7.68 0.56, 7.94 0.71 C8.21 0.86, 8.46 1.04, 8.7 1.24 C8.93 1.44, 9.15 1.66, 9.35 1.89 C9.55 2.13, 9.72 2.38, 9.88 2.65 C10.03 2.91, 10.16 3.2, 10.27 3.48 C10.37 3.77, 10.45 4.07, 10.51 4.37 C10.56 4.68, 10.57 5.14, 10.59 5.29 C10.6 5.45, 10.6 5.14, 10.59 5.29" stroke="#000000" stroke-width="1" fill="none"></path></g><g stroke-linecap="round" transform="translate(28.22631117627475 89) rotate(0 116.57445934264626 38.82101197943314)"><path d="M0 0 C0 0, 0 0, 0 0 M0 0 C0 0, 0 0, 0 0 M0.04 6.57 C2.04 5.17, 2.43 2.87, 5.42 -0.03 M-0.61 6.34 C1.21 5.3, 2.33 3.45, 4.7 -0.03 M0.48 12.65 C3.59 7.35, 8.73 1.19, 9.05 0.94 M-0.43 12.26 C2.59 9.26, 4.45 6.07, 11.23 -0.69 M1.7 20.02 C4.91 12.68, 8.09 7.8, 14.67 -0.87 M-0.86 18.05 C4.52 12.55, 10.95 5.07, 14.68 1.15 M-0.49 25.9 C6.43 20.46, 7.96 14.95, 22.79 -1.04 M-0.65 23.69 C7.23 15.99, 12.62 8.63, 20.73 0.3 M0.98 31.71 C9.39 18.67, 19.03 8.55, 25.18 2.04 M-0.25 29.64 C8.17 21.52, 16.49 12.62, 26.36 0.7 M-1.79 38.09 C5.37 26.57, 13.74 19.49, 29.89 0.28 M-0.6 37.73 C6.82 28.93, 14.63 20.02, 32.34 0.21 M-0.4 44.25 C12.12 28.6, 20.74 19.79, 36.78 -0.95 M-0.81 42.07 C9.65 33.07, 16.66 22.15, 36.61 1.03 M0.94 47.06 C14.65 31.01, 30.01 13.79, 43.81 -0.05 M0.33 49.82 C10.14 38.59, 18.3 27.06, 41.93 0.22 M-0.83 52.68 C18.74 34.86, 33.4 17.28, 46.98 -0.19 M-0.66 54.53 C13.98 38.81, 29.02 21.9, 47.08 0.31 M0.27 59.45 C14.54 42.58, 31.24 25.24, 54.69 1.45 M-0.74 60.72 C13.06 45.99, 25.28 33.22, 52.57 -0.19 M0.94 65.49 C21.49 42.81, 44.06 16.16, 59.59 0.64 M0.71 67.15 C17.13 45.67, 36.37 25.32, 57.77 -0.16 M-0.22 71.85 C16.93 53.83, 29.92 36.74, 65 0.94 M0.31 73.65 C22.18 46.67, 44.32 21.36, 64.67 0.63 M1.09 76.85 C22.48 50.88, 49.54 23.82, 68.75 0.57 M-0.17 79.18 C17.26 60.62, 33.77 41.07, 69.01 0.11 M7.24 76.72 C23.49 60.98, 41.29 38.07, 73.54 -0.71 M5.83 78.13 C30.47 51.18, 53.39 23.48, 74 0.46 M10.7 78.04 C32.95 52.71, 59.14 27.33, 78.88 1.3 M11.09 78.47 C35.97 51.91, 59.49 25.16, 79.48 0.72 M17.54 77.52 C34.22 56.4, 55.02 35.32, 83.39 -1.95 M17.33 79.19 C39.21 52.94, 62.32 27.82, 85.64 -0.73 M22.75 78.19 C37.97 61.06, 53.84 43.65, 88.74 -0.8 M21.89 78.19 C38.78 61.08, 54.44 41.22, 90.2 0.47 M28.57 76.19 C49.36 56.43, 66.65 33.58, 93.96 -0.56 M27.36 78.77 C48.22 53.72, 71.6 27.31, 96.06 -0.84 M32.41 79.77 C58.31 52.11, 82.3 25.3, 99.39 1.37 M32.79 78.3 C58.37 48.71, 84.41 18.4, 100.54 -0.71 M37.16 80.04 C62.15 51.37, 82.68 24.73, 104.97 -1.62 M37.4 78.68 C55.57 57.3, 71.6 38.36, 107.03 0.4 M43.14 77.95 C57.5 59.9, 77.66 40.74, 110.2 1.56 M43.72 78.96 C59.92 61.26, 75.48 41.93, 112.21 0.28 M50.43 79.09 C63.59 60.97, 79.15 45.09, 115.8 -0.75 M49.3 77.88 C74.91 49.62, 98.53 20.06, 117.03 0.17 M54.74 76.61 C74.09 54.84, 95.05 31.31, 122.88 0.23 M53.92 78.45 C72.84 54.96, 92.27 34.14, 121.26 -0.32 M57.81 78.05 C75.47 57.73, 93.71 39.36, 128.1 0.82 M59.23 78.5 C75.18 58.13, 91.04 40.77, 127.86 -0.46 M63.29 80.28 C87.17 49.41, 113.53 22.83, 133.41 0.51 M63.99 79.25 C80.23 60.84, 96.58 42.71, 132.09 0.91 M71.07 76.3 C89.17 54.25, 111.46 31.3, 137.88 0.84 M69.72 77.83 C94.37 50.99, 119.25 21.91, 136.67 -0.01 M73.2 78.19 C95.44 59.26, 112.11 35.59, 144.11 0.24 M75.89 77.94 C100.13 47.22, 128.14 17.28, 143.44 0.52 M80.25 79.92 C92.72 60.48, 107.93 44.89, 150.1 0.97 M79.63 78.3 C101.42 54.99, 123.61 31.1, 148.62 0.41 M85.19 80.26 C109.49 54.37, 129.35 28.09, 155.61 -0.07 M84.9 79.31 C103.84 57.11, 123.43 34.76, 154.41 0.24 M89.75 77.67 C109.78 58.54, 128.41 36.73, 158.05 -0.43 M92.18 77.51 C104.62 62.9, 119.8 46.82, 158.23 -0.14 M96.3 77.12 C112.3 60.31, 127.57 40.85, 162.84 -1.23 M95.65 78.26 C113.26 58.46, 132.18 37.99, 164.41 -1.06 M101.59 77.76 C124.34 51.77, 149.25 22.56, 171.32 -0.3 M100.26 78.96 C119.9 57.08, 140.11 34.99, 169.35 -0.46 M107.86 80.04 C133.1 46.56, 160.67 18.5, 175.06 -1.33 M106.12 77.89 C126.11 55.9, 144.73 35.63, 175.22 0.66 M110.07 76.82 C132.44 54.32, 151.7 32.9, 179.81 1.08 M111.08 79.05 C130.15 57.94, 147.51 36.85, 179.17 0.81 M117.55 77.01 C142.3 51.19, 169.44 20.34, 183.83 0.2 M117.64 77.43 C140 53.07, 161.32 27.15, 184.96 0.57 M121.88 80.44 C138.18 62.77, 150.44 47.82, 189.76 0.13 M122.22 79.6 C139.2 59.82, 154.78 41.39, 190.22 -0.82 M127.31 76.72 C140.47 61.3, 156.52 46.61, 195.03 -1.39 M128.85 78.26 C153.35 47.61, 179.16 17.77, 196.09 -0.97 M134.61 80.13 C157.94 49.8, 183.41 19.14, 199.69 1.96 M132.28 78.82 C156.82 49.95, 181.42 22.58, 200.4 0.32 M139.44 76.5 C161.68 49.05, 189.65 18.52, 208.83 -0.12 M137.77 77.93 C157.97 57.86, 175.17 36.91, 207.41 -0.46 M144.23 78.08 C171.55 47.44, 196.6 16.24, 212.44 0.37 M144.19 78.09 C164.78 53.08, 186.84 26.95, 212.93 0.07 M148.54 78.41 C174.64 50.78, 199.33 23.26, 215.76 0.62 M149.75 78.16 C175.87 48.97, 201.55 17.46, 218.06 -1.25 M152.97 79.2 C169.18 63.25, 183.14 47.85, 223.18 1.85 M155.21 77.95 C177.86 52.83, 199.67 24.4, 222.37 0.41 M161.5 77.19 C181.61 54.91, 198.92 32.29, 228.61 0.18 M159.49 78.79 C186.35 47.38, 213.22 16.18, 227.55 0.47 M165.4 79.05 C184.74 53.97, 206.38 31.88, 231.36 1.55 M164.96 78.08 C187.72 52.54, 211 27.89, 232.65 -0.52 M169.56 76.25 C192.71 50.09, 215.75 23.13, 232.61 7.35 M171.03 77.85 C192.22 54.19, 213.99 29.16, 233.81 6.47 M176.39 79.91 C190.35 58.77, 207.95 41.91, 234.29 11.43 M175.4 79.33 C195.24 57.04, 212.64 35.71, 232.52 11.66 M180.23 79.7 C202.07 57.64, 221.04 33.48, 234.51 17.34 M181.73 77.5 C196.38 60.87, 212.96 43.03, 232.31 19.37 M187.15 78.71 C197.65 63.24, 213.12 47.51, 234.54 23.94 M186.84 77.69 C199.61 62.56, 213.57 48.37, 233.07 23.31 M193.37 76.33 C205.37 61.09, 219.65 48.41, 234.66 32.24 M192.35 78.08 C205.56 60.39, 221.17 43.94, 234.19 31.15 M197.15 79.11 C211.67 61.36, 223.64 45.15, 231.88 37.07 M195.92 78.32 C207.96 66.37, 218.19 55.63, 233.61 37.81 M201.13 79.64 C212.96 68.88, 223.2 54.05, 235.11 42.14 M202.93 78.06 C208.01 69.75, 214.95 62.89, 234.3 42.27 M208.23 79.44 C212.53 71.21, 219.7 66.32, 232.33 47.24 M207.64 77.54 C215.93 69, 221.86 60.68, 232.72 48.42 M211.33 80.55 C218.58 74.49, 222.58 66.68, 232.25 55.8 M212.25 78.85 C220.31 69.96, 227.28 60.16, 233.86 54.31 M216.5 76.69 C223.48 71.3, 228.39 66.63, 232.26 61.81 M217.33 78.81 C220.71 74.35, 225.33 70.45, 232.4 60.8 M222.33 79.97 C225.49 76.11, 229.37 71.42, 232.31 65.9 M222.55 77.97 C226.65 73.75, 231.16 69.84, 233.56 66.92 M228.63 78.39 C229.93 76.36, 232.49 74.55, 233.24 72.67 M228.73 78.45 C230.37 77.11, 231.42 75.42, 233.09 72.66" stroke="#40c057" stroke-width="0.5" fill="none"></path><path d="M-0.13 -0.1 C60.13 0.47, 121.64 0.71, 232.75 -0.49 M-0.33 0.33 C50.52 0.71, 102.24 -0.1, 232.3 -0.58 M234.41 -0.42 C233.85 23.22, 232.53 47.4, 234.85 76.22 M233.7 0.3 C234.68 16.43, 234.62 33.59, 233.19 78.24 M233.06 76.19 C177.02 79.22, 119.93 77.62, 0.07 78.05 M233.26 77.35 C159.11 78.7, 83.98 79.27, -0.1 78.15 M0.79 77.72 C0.24 52.52, -0.58 29.41, 0.16 -1.85 M0.17 78.63 C0.54 51.82, 0.99 23.45, -0.18 -0.81" stroke="#000000" stroke-width="1" fill="none"></path></g><g stroke-linecap="round" transform="translate(28.368743061708187 182.17042875063908) rotate(0 116.81562846914579 7.696703261694097)"><path d="M0 0 C0 0, 0 0, 0 0 M0 0 C0 0, 0 0, 0 0 M0.37 6.64 C1.18 3.36, 3.48 1.5, 4.94 0.67 M-0.44 6.4 C1.43 4.74, 3.18 3.17, 4.8 0.34 M0.01 11.98 C2.52 7.62, 9.01 4.34, 12.01 -1.54 M0.75 11.72 C2.82 9.49, 4.76 6.43, 10.85 -0.74 M0.98 18.64 C2.59 14.28, 7.48 10.02, 15.32 -1.66 M1.35 17.46 C7.64 11.52, 12.41 4.26, 15.23 0.24 M7.57 16.06 C9.11 11.49, 12.52 9.02, 21.27 -1.24 M6 17.31 C9.29 14.15, 13.42 10.63, 20.58 0.53 M12.22 17.59 C15.49 9.85, 23.94 3.14, 25.36 -0.9 M12.35 16.3 C15.8 13.29, 18.64 8.36, 25.81 0.79 M17.25 15.94 C20.35 10.72, 24.56 8.8, 32.55 1.13 M18.35 17.48 C21.11 12.03, 25.47 5.72, 31.31 0.28 M22.52 14.88 C24.61 15.35, 27.64 10.72, 37.22 -0.21 M21.78 16.9 C27.1 12.01, 32.87 4.6, 36.38 1.16 M27.55 16.27 C30.56 10.76, 38.46 7.4, 41.28 -1.75 M28.02 15.99 C32.43 10.94, 35.93 6.66, 43.01 -1.05 M31.18 15.29 C39.23 12.69, 44.39 5.15, 45.82 -0.9 M33.44 16.02 C35.94 11.8, 40.81 8.46, 47.2 0.91 M37.64 15.48 C40.83 11.83, 45.06 8.09, 53.22 -0.55 M39.14 16.52 C42.55 11.4, 45.48 7.98, 52.78 0.53 M44.23 15.93 C47.51 10.16, 55.75 2.87, 58.77 2.04 M44.3 17.76 C47.79 11.74, 50.86 9.2, 58.7 -0.07 M47.39 18.33 C56.62 9.79, 58.08 2.55, 64.82 -1.61 M50 17.11 C53.03 11.51, 57.63 7.58, 62.88 0.33 M54.37 18.19 C59.78 11.98, 64.38 4.02, 68.37 -0.09 M54.49 17.56 C60.09 9.33, 64.53 3.88, 69.46 0.47 M61.34 15.88 C62.83 12.55, 69.73 8.51, 75.23 1.04 M59.06 16.11 C65.2 10.29, 69.19 6.66, 74.7 -0.97 M65 15.8 C68.01 12.17, 73.9 7.57, 79.61 -1.65 M65.3 16.22 C68.34 12.08, 71.69 8.35, 80.22 1.11 M68.72 17.49 C74.31 11.45, 79.58 8.6, 86.27 1.68 M70.93 16.23 C75.32 10.89, 78.51 6.37, 84.82 0.62 M74.18 14.79 C79.91 15, 80.8 9.22, 90.15 1.28 M75.15 15.86 C81.35 10.6, 85.97 4.99, 89.85 0.77 M79.45 14.88 C84.89 11.7, 88.11 10.05, 94.46 -1.09 M80.38 16.54 C86.32 10.04, 90.96 6.48, 94.95 0.46 M86.68 17.5 C89.17 14.25, 90.85 11.2, 102.34 -1.03 M85.64 15.96 C91.19 11.57, 96.83 5.65, 101.42 0.74 M91.49 18.77 C95.39 12.31, 98.59 9.76, 106.99 -0.37 M91.67 17.18 C95.23 12.91, 100.85 6.75, 105.97 -0.75 M97.95 18.59 C98.99 13.88, 105.58 7.68, 111.25 -0.03 M97.53 17.34 C102.16 10.23, 106.61 4.88, 112.11 0.63 M101.44 16 C106.58 13.9, 110.37 10.38, 117.11 -0.18 M101.2 16.38 C108.32 11.1, 113.3 3.38, 117.25 -0.23 M106.14 17.04 C112.76 11.43, 116.96 8.13, 120.6 -0.83 M106.72 16.17 C113.47 9.4, 117.77 4.21, 121.31 0.4 M112.64 17.92 C117.93 11.16, 122.18 3.64, 126.7 1.51 M111.53 16.99 C115.14 13.13, 118.76 8.55, 127.3 -0.1 M120.07 16.11 C123.07 11.51, 128.33 2.84, 130.8 1.74 M118.27 15.95 C123.44 10.82, 128.79 2.83, 132.51 0.36 M121.75 17.49 C127.36 12.94, 132.41 6.84, 138.36 1.28 M124.07 17.44 C127.16 11.81, 129.82 8.74, 137.8 1.12 M127.26 15.42 C132.8 10.74, 136.71 7.19, 142.98 -0.81 M128.4 15.53 C131 12.92, 135.94 10.07, 143.39 -0.86 M134.12 17.94 C140.59 10.08, 141.99 3.89, 150.06 -0.69 M134.36 16.49 C138.18 12.54, 142.45 5.23, 148.24 -0.5 M137.9 14.86 C143.13 10.47, 149.39 4.36, 154.92 1.34 M138.49 17.11 C144.15 11.67, 150.16 5.6, 153.79 -0.25 M143.82 16.86 C148.63 12.28, 153.9 4.92, 158.43 0.05 M144.11 17.26 C148.76 10.76, 154.88 5.71, 159.3 0.45 M148.89 14.65 C155.76 11.3, 155.76 8.5, 165.12 0.31 M149.07 16.23 C153.63 11.89, 156.74 8.61, 163.68 -0.48 M153.56 18.1 C157.15 13.08, 159.69 10.64, 170.8 0.29 M155.16 17.22 C159.62 11.32, 162.99 7.76, 168.78 0.74 M159.8 15.33 C164.49 10.43, 171.06 2.81, 176.73 -1.47 M159.83 15.77 C165.48 12.3, 168.77 5.71, 175.21 0.13 M166.77 15.87 C168.62 11.02, 176.05 4.89, 181.18 1.12 M165.55 16.17 C169.16 10.62, 174.7 5.61, 179.65 0.45 M172.91 17.74 C173.85 12.43, 181.07 8.21, 185.62 0.77 M171.61 15.95 C174.24 12.15, 177.23 10.05, 186.67 -0.41 M175.57 18.65 C179.53 11.6, 182.91 11.15, 190.28 -0.04 M175.44 16.26 C179.09 14.02, 183.03 9.5, 190.04 1.04 M181.15 15.05 C185.1 14.17, 190.09 6.37, 196.33 -1.92 M182.42 16.34 C185.32 11.51, 188.66 7.77, 196.52 0.29 M188.73 17.28 C191.86 12.75, 194.01 7.41, 201.48 -1.48 M187.17 15.97 C191.75 12.79, 194.82 7.39, 201.22 -0.7 M192.18 16.71 C193.92 13.06, 197.26 7.9, 206.11 -0.17 M193.4 15.86 C195.86 11.89, 197.63 9.16, 207.37 -1.07 M195.76 16.86 C201.26 9.67, 210.68 3.71, 212.87 -1.16 M197.2 16.15 C202.77 10.58, 207.98 4.67, 211.64 -0.64 M204.31 16.51 C208.76 9.93, 211.6 5.23, 216.86 -2.27 M202.87 16.77 C208.49 9.7, 214.94 3.53, 217.98 0.55 M206.82 16.84 C211.86 13.05, 213.71 11.59, 221.2 -0.75 M208.2 15.97 C212.62 11.34, 218.72 5.47, 222.89 0.69 M213.91 17.3 C219.67 10.07, 224.43 7.39, 227.19 -2.24 M213.65 17.42 C218.04 11.67, 222.22 7.67, 227.28 0.57 M220.76 14.97 C222.35 12.49, 228.58 4.97, 233.93 -1.58 M218.95 16.96 C222.22 13.01, 225.2 8.36, 233.73 0.11 M222.08 16.03 C226.2 13.18, 228.41 9.73, 237.71 3.23 M223.68 17.23 C226.37 12.49, 229.44 9.25, 235.74 1.78 M229.26 15.88 C231.85 13.91, 233.68 12.06, 237.37 7.91 M228.86 16.79 C232.4 13.78, 234.55 9.77, 236.74 8.17 M-0.07 15.33 C-0.07 15.33, -0.07 15.33, -0.07 15.33 M-0.07 15.33 C-0.07 15.33, -0.07 15.33, -0.07 15.33 M6.38 15.48 C4.5 13.19, 1.58 12.17, 0.83 10.86 M6.18 15.47 C5.11 14.46, 3.24 13.13, 0.47 10.07 M11.05 14.85 C8.67 10.3, 2.73 7.07, -0.1 6.18 M12.56 15.44 C9.5 11.82, 5.98 9.16, 0.49 5.16 M18.52 17.42 C12.41 9.8, 2.96 2.97, 0.5 -0.46 M17.75 16.26 C11.19 9.71, 4.22 2.65, -0.29 -0.88 M23.63 15.49 C18.39 11.67, 17.4 6.98, 8.56 0.71 M23.97 14.78 C17.3 10.81, 11.59 5.1, 7.16 -0.98 M31.76 15.82 C24.24 9.18, 15.28 1.05, 12.51 -1.54 M30.02 15.92 C23.64 9.48, 15.85 2.33, 12.91 -0.11 M35.19 14.97 C32.48 9.82, 29.07 5.44, 17.43 -1.71 M37.13 16.56 C31.52 12.25, 27.81 8.14, 18.6 -0.11 M40.49 15.8 C37.55 11.85, 33.4 8.24, 22.49 -1.89 M42.39 15.51 C35.54 9.07, 30.57 3.77, 24.78 -0.99 M47.4 13.81 C42.62 12.32, 38.11 6.6, 31.97 -1.43 M49.35 15.15 C44.4 12.81, 40.9 8.74, 31.54 -1.24 M56.45 17.66 C49.23 9.94, 45.69 6.38, 38.78 -0.33 M55.32 15.29 C48.26 9.98, 40.87 3.76, 37.78 0.02 M60.09 16.3 C55.65 11.77, 52.65 7.97, 43.62 -0.24 M60.19 15.56 C56.97 12.25, 53.45 8.96, 42.01 -0.57 M65.8 14.02 C63.87 10.68, 55.01 6.02, 50.12 -1.32 M67.22 15.85 C62.16 11.41, 55.94 5.59, 49.22 -0.17 M71.76 15.03 C69.11 13.45, 64.89 8.64, 56.46 -1.67 M72.37 16.14 C68.68 11.42, 64.59 7.99, 54.16 0.05 M77.66 13.79 C74.33 9.41, 68.34 6.02, 62.23 0.96 M78.87 16.15 C71.93 8.95, 66.39 5.1, 61.88 0.66 M84.38 15.57 C83.27 13.69, 75.85 9.37, 68.06 1.77 M86.51 15.24 C80.65 10.82, 75.76 7.55, 67.09 -0.23 M93.07 15.53 C88.35 10.51, 83.13 9.59, 74.75 -0.02 M90.48 14.78 C84.78 8.86, 76.97 3.52, 72.91 -0.56 M96.33 13.82 C91.56 10.61, 85.43 6.43, 78.39 -2.1 M98.16 14.58 C91.51 9.72, 84.03 4.15, 79.76 0.11 M101.77 16.12 C98.54 10.91, 90.3 2.39, 86 -2.49 M102.42 14.72 C97.98 10.46, 92.86 7.62, 84.61 0.41 M110.94 15.98 C105.89 11.02, 96.96 4.87, 90.38 -1.21 M110.23 15.22 C104.97 11.93, 101.41 8.06, 91.58 -1.1 M114.92 15.4 C109.98 9.78, 107.32 8.21, 97.75 0.3 M115.95 15.91 C109.89 10.99, 103.49 4.27, 97.22 -0.16 M121.47 15.88 C114.21 9.44, 112.29 4.89, 102.88 -1.79 M122.09 14.86 C114.94 10.17, 107.78 3.86, 103.34 -0.33 M130.13 17.56 C126.38 13.71, 119.29 9.05, 108.2 1.46 M128.23 14.71 C121.21 9.35, 113.87 3.88, 109.85 -0.64 M135.87 15.69 C129.07 9.45, 123.2 4.65, 115.43 0.22 M134.23 14.59 C126.7 9.77, 119.09 3.37, 116 0.29 M139.96 15.07 C134.06 8.96, 129.44 5.85, 120.48 0.35 M140.85 15.75 C134.27 9.54, 127.36 5.29, 123.03 -0.09 M145.55 14.53 C143.82 14.28, 139.99 7.72, 129.03 -0.15 M147.06 15.46 C139.8 9.75, 132.87 4.74, 129.42 -0.38 M152.87 14.05 C146.81 9.95, 139.66 2.22, 135.69 0.02 M152.8 15.37 C146.66 11.26, 141.01 5.45, 133.71 -0.87 M158.31 13.87 C153.93 10.5, 149.21 7.61, 139.1 0.48 M157.88 15.94 C153.11 11.08, 149.77 7.17, 141.35 -1.1 M166.05 14.95 C158.43 12.4, 155.34 6.38, 145.57 -0.21 M165.21 14.26 C159.29 9.94, 153.53 5.58, 145.97 -0.01 M170.93 13.45 C165.39 12.34, 160.83 5.54, 151.98 -2.24 M171.42 15.77 C163.87 9.38, 156.16 3.15, 151.98 -0.31 M178.1 17.18 C169.31 10.1, 165.53 3.39, 157.34 0 M178.14 16.08 C171.15 10.81, 167.72 6.24, 159.83 -0.54 M182.11 16.7 C176.15 11.38, 174.93 6.69, 165.98 1.01 M182.81 15.39 C176.42 8.57, 170.15 4.09, 164.88 -0.77 M190.07 16.47 C183.77 8.82, 177.19 2.16, 170.63 -0.71 M189.53 14.9 C184.34 11.02, 178.24 5.25, 170.18 -0.1 M193.24 15.33 C188.51 10.22, 185.62 9.01, 176.08 -2.15 M194.32 14.61 C191.51 11.28, 185.62 6.7, 175.79 -0.89 M201.94 16.88 C194.44 8.85, 186.29 4.04, 182.02 -1.39 M201.75 15.07 C193.5 9.86, 186.31 2.17, 183.34 -1.03 M209.15 14.02 C201.26 9.65, 197.22 6.41, 190.7 -1.12 M208.16 15.2 C204.68 12.74, 199.79 9.17, 189.35 -0.1 M213.64 16.07 C208.53 10.29, 206.51 8.66, 194.03 -1.46 M212.55 14.66 C208.19 9.84, 202.04 5.37, 196.02 -0.97 M219.1 15.81 C212.13 9.21, 206.35 4.43, 200.7 -0.96 M219.39 16.33 C216.15 12.79, 212.36 7.46, 202.1 0.58 M225.76 14.06 C218.7 9.46, 213.64 5.74, 207.85 0 M225.88 16.07 C219.38 9.81, 214.1 5.76, 208.11 -0.24 M233.28 14.02 C224.92 9.89, 217.79 4.68, 211.88 1.55 M232.54 14.47 C225.78 9.17, 217.25 4.34, 213 0.41 M233.34 11.19 C228.39 10.04, 222.22 3.03, 220.13 0.86 M235.53 14.06 C231.21 8.47, 226.86 5.62, 219.39 0.87 M235.52 6.98 C233.13 4.79, 229.94 3.32, 225.86 -0.63 M235.94 7.75 C233.25 6, 230.11 3.39, 226.15 0.07 M235.02 2.25 C234.35 1.33, 233.06 0.66, 232.03 0.11 M234.89 2.58 C234 1.51, 233 0.66, 232.14 -0.27" stroke="#15aabf" stroke-width="0.5" fill="none"></path><path d="M-0.46 0.4 C86.83 -1.91, 174.55 -1.98, 232.5 0.51 M-0.01 -0.08 C62.85 0.67, 125.21 0.86, 233.06 0.26 M233.07 -0.24 C232.98 4.85, 233.08 9.25, 234.81 14.65 M234.23 -0.73 C234.01 2.92, 233.56 6.24, 233.16 15.93 M235.29 16.02 C144.61 14.29, 55.02 12.87, 1.19 14.77 M234.28 15.93 C162.42 13.49, 91.26 14.38, -0.57 14.76 M-0.12 16.33 C0.17 10.18, 0.23 5.78, -1.45 0.8 M-0.61 15.2 C0.21 10.99, -0.24 6.03, -0.46 -0.22" stroke="#000000" stroke-width="1" fill="none"></path></g><g stroke-linecap="round" transform="translate(28 202.35735497994528) rotate(0 46.58521437531971 7.7642023958866275)"><path d="M0 0 C0 0, 0 0, 0 0 M0 0 C0 0, 0 0, 0 0 M-0.88 5.72 C0.43 4.92, 1.93 4.06, 4.9 0.04 M-0.11 6.48 C1.66 4.92, 2.61 2.89, 5.21 0.17 M-1.26 11.81 C3.75 10.24, 6.01 5.39, 9.49 -1.58 M0.31 12.35 C3.88 7.35, 8.51 1.89, 9.84 0.45 M-0.21 17.49 C4.83 12.94, 6.99 7.82, 17.11 -1.3 M2.1 17.72 C5.57 11.85, 9.04 7.25, 15.14 -0.27 M5.36 15.76 C10.17 11.65, 16.98 3.65, 19.38 1.59 M6.45 17.45 C10.78 13.74, 12.37 10.03, 22.02 -0.56 M9.97 16.11 C17.38 10.51, 19.73 5.49, 25.19 1.02 M12.3 17.51 C17 10.42, 22.32 4.78, 25.71 1.16 M16.94 14.82 C22.04 11.93, 27 7.57, 32.11 0.71 M16.69 17.11 C19.89 11.82, 23.68 8.73, 30.89 0.09 M21.75 18.57 C25.2 13.6, 29.39 8.93, 37.78 0.88 M22.18 17.72 C27.26 11.22, 30.43 8.13, 36.83 -0.35 M26.2 15.56 C33.23 13.26, 33.58 7.17, 41.98 1.41 M28.62 15.54 C33.12 10.18, 38.44 4.28, 43.16 -0.09 M33.98 18.62 C37.22 13.59, 37.9 8.5, 46.32 0.94 M32.52 15.88 C39.05 10.7, 43.08 5.7, 47.24 0.01 M36.85 16.37 C41.56 12.25, 47.56 6.13, 52.3 0 M38.85 15.68 C42.36 11.49, 47.03 7.05, 53.92 0.64 M42.21 16.32 C48.37 11.43, 51.12 10.86, 56.97 0.16 M44.3 15.86 C49.17 11, 54.94 4.01, 58.87 0.42 M51.27 15.99 C51.9 9.75, 59.31 4.77, 63.05 -0.9 M49.17 15.82 C53.49 11.98, 55.61 8.47, 64.39 0.37 M54.67 18.05 C59.08 10.19, 64.01 4.83, 70.55 1.82 M54.61 15.86 C58.46 10.95, 65.1 5.34, 68.76 0.36 M58.55 17.43 C64.55 14.33, 67.74 9.56, 74.9 -0.34 M60.51 15.6 C63.55 13.29, 67.57 7.44, 73.98 -0.47 M64.27 16.49 C71.44 10.49, 75.14 3.55, 78.57 1.52 M64.73 16.44 C69.21 11.4, 75.58 6.45, 79.14 0.71 M69.79 16.81 C76.47 12.45, 81.73 7, 85.2 0.93 M70.31 16.74 C73.3 12.4, 78.28 8.1, 84.22 -1.11 M76.64 18.65 C79.25 11.16, 85.33 7.1, 91.24 -0.82 M76.07 16.49 C78.96 13.08, 82.27 9.7, 89.38 -0.36 M80.76 16.27 C84.02 14.84, 86.08 8.8, 94.7 1.97 M81.15 16.05 C85.38 13.08, 88.07 8.5, 93.5 1.07 M86.12 17.42 C87.89 14.6, 92.74 9.66, 95.26 6.16 M86.22 17.05 C89.76 13.48, 92.76 10.28, 94.34 7.27 M91.39 16.89 C92.54 15.82, 93.87 14.12, 94.43 12.86 M91.1 17.25 C92.49 15.69, 93.31 14.38, 94.33 13.08 M-0.14 15.41 C-0.14 15.41, -0.14 15.41, -0.14 15.41 M-0.14 15.41 C-0.14 15.41, -0.14 15.41, -0.14 15.41 M6.78 16.03 C5.48 15, 3.78 12.97, 0.95 10.63 M6.6 15.86 C5.12 14.26, 4.18 13.21, 0.12 10.19 M12.86 14.9 C8.63 12.07, 1.98 6.88, 1.04 4.45 M12.32 14.53 C7.79 12.08, 4.06 9.1, 0.21 4.87 M18.75 15.5 C12.83 9.38, 7.79 7.85, -1.14 -0.81 M17.54 15.52 C13.53 11.01, 10.03 7.44, 0.78 0.03 M24.5 16.65 C19.94 10.03, 13.86 9.78, 8.49 -1.56 M24.18 16.71 C17.25 9.48, 11.52 4.69, 7.01 0.33 M29.69 17.02 C25.74 13.06, 22.96 9.2, 11.31 1.58 M30.89 14.53 C24.14 10.92, 19.26 6.58, 12.4 -0.08 M36.25 15.24 C29.17 11.17, 23.57 3.47, 16.88 -0.72 M35.86 15.55 C32.95 11.86, 27.33 6.3, 19.09 0.08 M44.27 14.35 C33.68 7.96, 30.34 2.31, 24.8 0.74 M42.21 16.22 C37.96 11.04, 34.94 7.97, 25.23 -0.13 M46.86 16.12 C41.9 11.57, 38.78 7.08, 31.57 0.07 M48.58 16.48 C44.03 11.28, 37.45 5.57, 31.56 -0.19 M53.82 17.67 C48.48 12.42, 44.81 6.87, 38.26 0.77 M54.44 15.64 C50.58 12.45, 46.08 7.7, 36.69 -0.29 M62.73 14.48 C55.3 12.63, 54.13 9.22, 41.58 -1.1 M60.86 14.79 C56.34 11.81, 51.67 7.62, 41.91 -0.88 M66.11 15.52 C60.98 12.85, 59.49 7.85, 49.04 -1.89 M67.41 15.19 C59.89 10.93, 53.41 4.85, 50.05 -0.34 M70.98 15.8 C66.91 10.27, 64.56 5.18, 54.59 -1.8 M73.37 16.13 C65.55 8.17, 59.08 3.25, 54.74 -1.05 M77.83 14.71 C75.83 9.12, 70.27 7.68, 61.45 1.48 M78.38 14.61 C74 10.04, 68.08 6.32, 61.02 0.23 M84.16 16.57 C82.27 13.06, 75.79 8.51, 65.76 1.32 M85.69 15.16 C78.9 10.68, 73.22 3.92, 66.61 0.25 M91.63 13.72 C86.27 11.82, 79.32 5.29, 71.71 1.24 M91.01 16.3 C88.01 12.14, 83.17 9.6, 72.72 -0.36 M94.97 15.63 C92.63 8.71, 88.05 5.45, 78.66 -2 M95.04 12.93 C91.34 10.53, 88.94 8.49, 78.93 -0.66 M96.01 8.08 C91.41 3.94, 87.63 0.58, 84.91 -1.41 M95.53 8.54 C91.27 4.76, 87.66 1.11, 84.7 0.12 M95 3.17 C93.7 1.63, 92.5 0.76, 91.17 -0.11 M95.49 2.84 C93.74 1.79, 92.66 0.4, 91.86 -0.2" stroke="#15aabf" stroke-width="0.5" fill="none"></path><path d="M-0.37 -1.64 C30.74 -1.94, 59.55 0.39, 92.56 -0.55 M-0.08 -0.06 C23.79 0.26, 48.39 0.4, 92.93 -0.29 M92.56 0.61 C92.6 4.13, 94.31 6.02, 91.62 14.46 M93.66 -0.16 C93.33 4.69, 92.82 9.74, 93.83 14.98 M94.27 16.12 C74.33 14.78, 53.83 15.14, 0.09 16.71 M93.12 14.67 C70.72 16.31, 47.7 15.37, 0.04 15.77 M0.21 14.99 C0.28 10.34, -1.45 6.45, -0.19 0.93 M0.31 15.56 C-0.02 10.26, -0.34 5.77, 0.06 -0.72" stroke="#000000" stroke-width="1" fill="none"></path></g><g stroke-linecap="round" transform="translate(369 57.92094991923295) rotate(0 91.26760563380196 20.28169014084483)"><path d="M2.7 2.35 C2.7 2.35, 2.7 2.35, 2.7 2.35 M2.7 2.35 C2.7 2.35, 2.7 2.35, 2.7 2.35 M0.47 11.01 C2.33 8.81, 4.91 6.04, 10.31 -0.31 M0.47 11.01 C3.16 8.32, 6.02 4.34, 10.31 -0.31 M0.86 16.65 C2.83 11.89, 7.89 7.39, 13.33 2.31 M0.86 16.65 C5.37 11.82, 9.35 5.34, 13.33 2.31 M1.26 22.29 C6.51 13.15, 13.85 5.59, 18.32 2.67 M1.26 22.29 C4.96 17.8, 10.57 12.15, 18.32 2.67 M1 28.69 C10.44 20.78, 18.15 10.05, 23.96 2.28 M1 28.69 C8.68 21.8, 14.42 13.46, 23.96 2.28 M0.74 35.09 C10.4 22.96, 23.24 7.41, 28.95 2.64 M0.74 35.09 C8.62 27.71, 14.65 19.11, 28.95 2.64 M3.75 37.71 C11.88 28.77, 22.94 14.58, 33.93 3 M3.75 37.71 C14.26 26.41, 25.62 13.95, 33.93 3 M6.77 40.34 C17.75 26.87, 30.9 13.48, 39.58 2.6 M6.77 40.34 C16.65 28.93, 26.87 18.63, 39.58 2.6 M11.76 40.7 C17.02 35.07, 25.28 25.58, 44.56 2.96 M11.76 40.7 C23.07 28.06, 36.64 13.69, 44.56 2.96 M17.4 40.3 C30.05 25.26, 42.6 13.44, 50.21 2.57 M17.4 40.3 C24.44 31.79, 33.18 21.99, 50.21 2.57 M22.39 40.66 C35.26 26.92, 49.76 11.75, 55.19 2.93 M22.39 40.66 C31.06 31.04, 40.97 20.43, 55.19 2.93 M27.38 41.02 C37.68 32.6, 46.28 19.66, 60.84 2.53 M27.38 41.02 C36.91 30.86, 47.37 20.46, 60.84 2.53 M33.02 40.63 C43.05 29.87, 50.99 21.83, 65.82 2.89 M33.02 40.63 C44.05 28.27, 54.97 16.07, 65.82 2.89 M38.01 40.99 C49.25 28.28, 58.38 16.71, 71.47 2.5 M38.01 40.99 C52.13 26.01, 64.71 9.54, 71.47 2.5 M43.65 40.6 C54.4 31.3, 65.25 17.06, 76.45 2.86 M43.65 40.6 C51.04 33.77, 57.38 25.09, 76.45 2.86 M48.64 40.96 C63.42 24.85, 73.59 12.19, 82.1 2.47 M48.64 40.96 C61.74 26.07, 74.28 12.47, 82.1 2.47 M54.28 40.56 C63.41 31.71, 70.89 21.55, 87.08 2.83 M54.28 40.56 C63.66 28.6, 74.98 16.21, 87.08 2.83 M59.27 40.92 C72.34 29.12, 80.48 15.81, 92.07 3.19 M59.27 40.92 C71.27 26.32, 84.48 11.64, 92.07 3.19 M64.91 40.53 C72.48 28.8, 83.79 21, 97.71 2.79 M64.91 40.53 C75.73 27.7, 86.28 16.01, 97.71 2.79 M69.9 40.89 C83.63 25.45, 97.99 10.01, 102.7 3.15 M69.9 40.89 C81.06 29.03, 91.12 16.84, 102.7 3.15 M74.89 41.25 C84.6 28.17, 95.63 19.46, 108.34 2.76 M74.89 41.25 C82.26 33.51, 87.45 26.7, 108.34 2.76 M80.53 40.85 C91.71 28.65, 98.76 19.03, 113.33 3.12 M80.53 40.85 C93.09 25.95, 105.91 12.2, 113.33 3.12 M85.52 41.21 C100.38 24.49, 109.96 10.56, 118.97 2.72 M85.52 41.21 C99.05 25.74, 112.05 10.8, 118.97 2.72 M91.16 40.82 C98.39 31.21, 105.1 24.64, 123.96 3.08 M91.16 40.82 C97.97 32.41, 106.84 23.86, 123.96 3.08 M96.15 41.18 C110.39 24.3, 123.66 10.01, 129.6 2.69 M96.15 41.18 C103.13 33.48, 111.21 23.41, 129.6 2.69 M101.79 40.78 C110.21 32.65, 116.91 23.03, 134.59 3.05 M101.79 40.78 C114.06 27.05, 126.38 12.65, 134.59 3.05 M106.78 41.14 C119.31 28.4, 130.21 16.04, 139.58 3.41 M106.78 41.14 C117.38 29.02, 127.44 18.84, 139.58 3.41 M112.42 40.75 C120.63 33.8, 127.33 26.45, 145.22 3.01 M112.42 40.75 C123.22 28.43, 134.15 16.65, 145.22 3.01 M117.41 41.11 C130.7 25.09, 142.79 13.1, 150.21 3.37 M117.41 41.11 C129.58 28.09, 141.13 14.48, 150.21 3.37 M123.05 40.71 C129.43 31.63, 135.24 27.11, 155.85 2.98 M123.05 40.71 C132.56 29.02, 141.79 17.28, 155.85 2.98 M128.04 41.07 C139.07 30.26, 147.84 16.72, 160.84 3.34 M128.04 41.07 C138.65 27.66, 149.77 15.53, 160.84 3.34 M133.02 41.43 C139.64 33.43, 147.79 22.65, 166.48 2.94 M133.02 41.43 C145.73 27.5, 157.66 10.96, 166.48 2.94 M138.67 41.04 C149.77 28.67, 164.13 15.45, 171.47 3.3 M138.67 41.04 C149.09 28.88, 158.38 17.07, 171.47 3.3 M143.65 41.4 C152.07 32.82, 158.64 24.47, 178.42 1.4 M143.65 41.4 C157.87 26.22, 171.25 9.23, 178.42 1.4 M149.3 41 C159.95 29.77, 166.34 21.13, 180.79 4.78 M149.3 41 C156.69 31.87, 164.14 22.84, 180.79 4.78 M154.28 41.37 C162.66 31.41, 174.04 18.03, 183.81 7.4 M154.28 41.37 C164.22 30.27, 174.53 17.56, 183.81 7.4 M159.93 40.97 C166.65 34.71, 173.3 26.87, 183.54 13.8 M159.93 40.97 C169.31 30.71, 178.51 21.3, 183.54 13.8 M164.91 41.33 C171.25 37.08, 174.68 30.22, 183.94 19.44 M164.91 41.33 C170.65 36.27, 175.08 29.27, 183.94 19.44 M170.56 40.94 C175.11 36.28, 182.06 28.02, 183.68 25.84 M170.56 40.94 C173.25 37.48, 176.45 34.2, 183.68 25.84 M174.23 42.81 C175.91 39.39, 179.73 37.71, 184.07 31.48 M174.23 42.81 C176.75 39.2, 180.61 35.1, 184.07 31.48 M6.08 40.26 C6.08 40.26, 6.08 40.26, 6.08 40.26 M6.08 40.26 C6.08 40.26, 6.08 40.26, 6.08 40.26 M11.72 39.86 C7.39 35.68, 4.19 34.66, 2.67 31.99 M11.72 39.86 C8.41 37.03, 5.91 34.63, 2.67 31.99 M18.12 40.12 C12.84 35.69, 9.05 33.29, 3.03 27 M18.12 40.12 C13.29 35.67, 8.9 31.58, 3.03 27 M23.76 39.73 C16.94 35.21, 16.06 33.36, 2.63 21.36 M23.76 39.73 C17.62 33.11, 8.98 27.09, 2.63 21.36 M30.16 39.99 C22.74 30.13, 10.53 22.82, 2.24 15.72 M30.16 39.99 C22.8 32.89, 15.51 27.49, 2.24 15.72 M36.56 40.25 C25.28 31.57, 14.92 20.51, 1.09 9.42 M36.56 40.25 C22.46 28.03, 9.81 15.27, 1.09 9.42 M42.2 39.86 C29.36 29.18, 14.62 14.65, 2.2 5.09 M42.2 39.86 C31.67 30.89, 22.09 22.4, 2.2 5.09 M48.6 40.12 C41.24 31.59, 31.79 23.15, 4.07 1.41 M48.6 40.12 C30.42 24.86, 14.75 11.34, 4.07 1.41 M55 40.38 C37.19 26.61, 17.36 10.46, 8.21 -0.3 M55 40.38 C45.42 31.67, 35.01 22.98, 8.21 -0.3 M60.64 39.99 C42.72 22.71, 22.54 7.98, 12.34 -2 M60.64 39.99 C49.69 29.76, 39.75 21.55, 12.34 -2 M67.04 40.25 C56.01 28.45, 43.2 18.6, 17.98 -2.4 M67.04 40.25 C48.37 23.84, 28.44 7.36, 17.98 -2.4 M73.44 40.51 C56.45 26.43, 42 12.11, 24.38 -2.14 M73.44 40.51 C54.2 24.76, 34.62 8.28, 24.38 -2.14 M79.08 40.11 C64.96 29.4, 56.22 17.5, 30.78 -1.87 M79.08 40.11 C66.05 27.28, 51.57 16.17, 30.78 -1.87 M85.48 40.38 C74.14 29.27, 64.71 21.04, 36.42 -2.27 M85.48 40.38 C67.17 24.39, 48.76 8.17, 36.42 -2.27 M91.12 39.98 C71.04 24.42, 54.05 5.46, 42.82 -2.01 M91.12 39.98 C76.96 28.86, 63.87 16.06, 42.82 -2.01 M97.52 40.24 C82.74 26.59, 71.94 16.39, 48.46 -2.4 M97.52 40.24 C84.45 28.3, 73.57 18.01, 48.46 -2.4 M103.92 40.5 C87.33 27.14, 71.66 12.47, 54.86 -2.14 M103.92 40.5 C89.91 27.67, 76.36 17.72, 54.86 -2.14 M109.56 40.11 C96.74 30.7, 84.25 21.63, 61.26 -1.88 M109.56 40.11 C97.27 29.19, 86.16 19.1, 61.26 -1.88 M115.96 40.37 C101.27 27.99, 84.73 11.81, 66.9 -2.27 M115.96 40.37 C105.98 30.42, 93.57 21.18, 66.9 -2.27 M122.36 40.63 C111.18 31.02, 98.12 19.16, 73.3 -2.01 M122.36 40.63 C112.33 30.8, 101.72 21.8, 73.3 -2.01 M128 40.24 C116.01 29.46, 108.03 20.89, 79.7 -1.75 M128 40.24 C108.75 25.1, 91.27 8.37, 79.7 -1.75 M134.4 40.5 C115.51 25.97, 97.2 8.77, 85.34 -2.14 M134.4 40.5 C118.57 25.7, 100.97 10.95, 85.34 -2.14 M140.79 40.76 C129.27 31.07, 117.73 23.95, 91.74 -1.88 M140.79 40.76 C125.85 28.14, 112.43 16.32, 91.74 -1.88 M146.44 40.37 C131.86 27.75, 116.63 16.12, 98.14 -1.62 M146.44 40.37 C134.2 28.5, 122.53 18.16, 98.14 -1.62 M152.84 40.63 C141.33 28.61, 127.89 18.67, 103.78 -2.02 M152.84 40.63 C136.74 25.58, 119.2 12.49, 103.78 -2.02 M158.48 40.23 C140.67 21.52, 121.89 4.82, 110.18 -1.76 M158.48 40.23 C143.54 26.63, 127.35 13.13, 110.18 -1.76 M164.88 40.49 C150.07 29.57, 136.35 17.02, 115.82 -2.15 M164.88 40.49 C152.4 30.69, 140.22 20.07, 115.82 -2.15 M171.27 40.76 C159.54 28.35, 142.7 16.12, 122.22 -1.89 M171.27 40.76 C155.7 27.95, 140.48 13.38, 122.22 -1.89 M174.65 38.39 C159.78 23.27, 143.33 9.05, 128.62 -1.63 M174.65 38.39 C165.1 31.06, 155.51 21.7, 128.62 -1.63 M179.54 37.34 C167.76 25.94, 152.84 14.89, 134.26 -2.02 M179.54 37.34 C162.11 21.66, 143.65 6.29, 134.26 -2.02 M182.17 34.32 C166.35 22.69, 151.84 7.01, 140.66 -1.76 M182.17 34.32 C170.68 23.61, 159.02 14.96, 140.66 -1.76 M182.53 29.34 C169.83 20.12, 157.85 10.04, 147.05 -1.5 M182.53 29.34 C171.99 20.73, 162.97 11.27, 147.05 -1.5 M182.13 23.69 C174.47 13.68, 161.77 8.35, 152.7 -1.89 M182.13 23.69 C175.28 18.45, 169.04 12.75, 152.7 -1.89 M182.49 18.71 C174.8 14.44, 167.93 8.53, 159.09 -1.63 M182.49 18.71 C174.92 12.33, 167.05 5.63, 159.09 -1.63 M182.1 13.06 C176.47 10.87, 174.41 6.13, 165.49 -1.37 M182.1 13.06 C177.36 9.57, 173.13 5.61, 165.49 -1.37 M182.46 8.08 C180.84 6.75, 177.43 3.6, 171.14 -1.76 M182.46 8.08 C180.64 5.63, 178.08 4.69, 171.14 -1.76" stroke="#868e96" stroke-width="0.5" fill="none"></path><path d="M10.14 0 M10.14 0 C72.7 -0.34, 136.96 -1.94, 172.39 0 M10.14 0 C67.44 -0.42, 124.35 -0.53, 172.39 0 M172.39 0 C179.73 1.92, 182.48 3.29, 182.54 10.14 M172.39 0 C177 -2.28, 181.22 1.67, 182.54 10.14 M182.54 10.14 C183.92 17.31, 182.17 25.61, 182.54 30.42 M182.54 10.14 C182.28 18.31, 183.38 24.8, 182.54 30.42 M182.54 30.42 C180.55 39.03, 177.79 38.8, 172.39 40.56 M182.54 30.42 C184.55 38.12, 181.31 41.73, 172.39 40.56 M172.39 40.56 C127.82 38.26, 82.69 39.28, 10.14 40.56 M172.39 40.56 C134.15 40.54, 95.35 39.69, 10.14 40.56 M10.14 40.56 C4.83 42.56, 0.25 38.88, 0 30.42 M10.14 40.56 C2.98 41.17, -0.76 35.71, 0 30.42 M0 30.42 C0.41 25.44, 0.41 18.97, 0 10.14 M0 30.42 C1.05 26.95, -0.81 22.73, 0 10.14 M0 10.14 C-1.57 4.56, 5.03 0.22, 10.14 0 M0 10.14 C0.16 1.2, 4.64 -0.61, 10.14 0" stroke="#000000" stroke-width="1" fill="none"></path></g><g stroke-linecap="round" transform="translate(521.1126760563393 68.06179498965503) rotate(0 10.140845070422415 10.140845070422415)"><path d="M8.37 0.13 C10.24 -0.44, 12.93 -0.39, 14.83 0.72 C16.74 1.83, 19.04 4.69, 19.8 6.79 C20.55 8.89, 20.03 11.42, 19.36 13.29 C18.7 15.16, 17.64 16.99, 15.82 18.01 C14 19.03, 10.53 19.38, 8.44 19.4 C6.35 19.42, 4.62 19.41, 3.28 18.13 C1.94 16.86, 0.75 14.06, 0.39 11.76 C0.04 9.47, -0.57 6.46, 1.13 4.37 C2.83 2.27, 8.67 -0.15, 10.61 -0.81 C12.55 -1.48, 12.93 0.01, 12.77 0.37 M13.42 0.85 C15.41 1.23, 18.94 3.15, 20.29 5.12 C21.63 7.08, 22.03 10.33, 21.5 12.66 C20.97 14.99, 19.18 17.83, 17.09 19.09 C15 20.35, 11.22 20.52, 8.96 20.23 C6.7 19.95, 5.23 18.62, 3.51 17.38 C1.8 16.14, -0.9 15, -1.32 12.79 C-1.74 10.59, -0.45 6.42, 0.99 4.15 C2.44 1.89, 5.04 -0.16, 7.34 -0.79 C9.65 -1.43, 13.68 0.18, 14.83 0.34 C15.98 0.49, 14.29 0.1, 14.25 0.13" stroke="none" stroke-width="0" fill="#228be6"></path><path d="M12.2 0.01 C14.18 0.59, 16.92 2.78, 18.13 4.63 C19.33 6.48, 19.46 8.93, 19.43 11.13 C19.41 13.33, 19.42 16.34, 17.98 17.85 C16.53 19.37, 13.09 20.12, 10.76 20.23 C8.42 20.33, 5.7 19.75, 3.99 18.5 C2.28 17.25, 1.01 14.68, 0.48 12.73 C-0.06 10.77, 0.03 8.66, 0.78 6.77 C1.54 4.87, 3.03 2.28, 5.03 1.37 C7.03 0.47, 11.06 1.19, 12.79 1.32 C14.52 1.46, 15.37 1.98, 15.39 2.17 M9 0.32 C10.7 0.03, 11.97 1.17, 13.75 1.98 C15.54 2.79, 18.71 3.21, 19.7 5.18 C20.68 7.15, 20.26 11.39, 19.68 13.82 C19.09 16.26, 17.82 18.68, 16.17 19.79 C14.53 20.9, 12.2 20.77, 9.84 20.47 C7.47 20.18, 3.69 19.49, 2 18.04 C0.31 16.58, -0.44 14.03, -0.32 11.74 C-0.2 9.44, 1.56 6, 2.72 4.26 C3.88 2.53, 5.62 1.79, 6.63 1.35 C7.64 0.91, 8.4 1.6, 8.77 1.61" stroke="#000000" stroke-width="1" fill="none"></path></g><g stroke-linecap="round"><g transform="translate(378.95523171064997 68.55623308956547) rotate(0 29.795960910292706 0.1230128214922388)"><path d="M-0.83 0.07 C9.17 0.26, 50.3 1.12, 60.42 1.19 M0.94 -0.94 C10.71 -1.06, 49.03 -0.2, 59.25 -0.3" stroke="#000000" stroke-width="1" fill="none"></path></g></g><g stroke-linecap="round"><g transform="translate(378.1167223690404 77.8928773273251) rotate(0 30.50256384131535 0.5606812197574982)"><path d="M-0.71 0.69 C9.41 0.82, 51.52 -0.1, 61.72 -0.16 M1.11 0 C11.07 0.41, 51.49 0.99, 61.23 1.29" stroke="#000000" stroke-width="1" fill="none"></path></g></g><g stroke-linecap="round"><g transform="translate(440.974369234601 88.06151170551652) rotate(0 -31.00309639392458 0.1995872566150183)"><path d="M-1.01 0.59 C-11.32 0.33, -51.54 -0.21, -61.42 -0.45 M0.66 -0.15 C-9.89 0.27, -52.44 0.83, -62.66 0.85" stroke="#000000" stroke-width="1" fill="none"></path></g></g><g stroke-linecap="round" transform="translate(369 108.6251752713456) rotate(0 91.26760563380196 20.28169014084483)"><path d="M2.7 2.35 C2.7 2.35, 2.7 2.35, 2.7 2.35 M2.7 2.35 C2.7 2.35, 2.7 2.35, 2.7 2.35 M0.47 11.01 C1.87 9.45, 4.43 6.31, 10.31 -0.31 M0.47 11.01 C4.08 6.6, 7.76 2.93, 10.31 -0.31 M0.86 16.65 C4.56 11.52, 10.35 6.48, 13.33 2.31 M0.86 16.65 C4.49 10.88, 10.22 7.03, 13.33 2.31 M1.26 22.29 C7.44 13.43, 12.89 9.09, 18.32 2.67 M1.26 22.29 C8.38 14.91, 14.3 8.55, 18.32 2.67 M1 28.69 C5.89 23.72, 10.11 17.58, 23.96 2.28 M1 28.69 C5.88 22.67, 13.02 15.71, 23.96 2.28 M0.74 35.09 C12.19 20.58, 21.96 8.09, 28.95 2.64 M0.74 35.09 C6.43 27.68, 12.46 20.9, 28.95 2.64 M3.75 37.71 C13.33 25.45, 22.85 18.43, 33.93 3 M3.75 37.71 C12.82 28.58, 20.45 18.42, 33.93 3 M6.77 40.34 C19.52 26.72, 28.47 16.95, 39.58 2.6 M6.77 40.34 C15.72 31.56, 22.36 22.19, 39.58 2.6 M11.76 40.7 C21.2 30.48, 30.5 19.02, 44.56 2.96 M11.76 40.7 C20.27 32.07, 27.72 23.96, 44.56 2.96 M17.4 40.3 C27.43 31.15, 35.29 20, 50.21 2.57 M17.4 40.3 C27.87 28.52, 38.67 16.54, 50.21 2.57 M22.39 40.66 C34.8 28.72, 43.05 18.04, 55.19 2.93 M22.39 40.66 C32.62 30.17, 41.36 19.02, 55.19 2.93 M27.38 41.02 C36.83 30.06, 43.43 19.67, 60.84 2.53 M27.38 41.02 C37.51 31.22, 45.25 20.48, 60.84 2.53 M33.02 40.63 C41.82 32.27, 49.77 21.47, 65.82 2.89 M33.02 40.63 C41.46 31.33, 48.87 21.91, 65.82 2.89 M38.01 40.99 C45.56 31.05, 56.63 19.97, 71.47 2.5 M38.01 40.99 C48.66 27.36, 60.21 15.48, 71.47 2.5 M43.65 40.6 C51.9 31.74, 55.1 22.89, 76.45 2.86 M43.65 40.6 C50.9 31.55, 59.19 23.82, 76.45 2.86 M48.64 40.96 C60.41 27.56, 76.39 9.62, 82.1 2.47 M48.64 40.96 C60.88 27.81, 72.26 12.63, 82.1 2.47 M54.28 40.56 C64.19 28.79, 73.85 18.22, 87.08 2.83 M54.28 40.56 C67.34 25.63, 80.04 12.28, 87.08 2.83 M59.27 40.92 C65.9 32.05, 77.63 19.31, 92.07 3.19 M59.27 40.92 C70.19 28.18, 80 17.96, 92.07 3.19 M64.91 40.53 C72.43 34.59, 79.2 23.29, 97.71 2.79 M64.91 40.53 C72.25 31.84, 81 22.56, 97.71 2.79 M69.9 40.89 C80.96 29.16, 89.18 20.04, 102.7 3.15 M69.9 40.89 C76.76 32.94, 84.68 23.35, 102.7 3.15 M74.89 41.25 C88.95 27.64, 98.24 14.09, 108.34 2.76 M74.89 41.25 C83.24 31.44, 93.27 20.55, 108.34 2.76 M80.53 40.85 C91.13 28.15, 106.08 14.58, 113.33 3.12 M80.53 40.85 C88.49 32.43, 96.31 23.2, 113.33 3.12 M85.52 41.21 C90.91 31.92, 102.15 26.07, 118.97 2.72 M85.52 41.21 C93.31 32.39, 99.1 25.31, 118.97 2.72 M91.16 40.82 C101.05 29.79, 108.31 20.02, 123.96 3.08 M91.16 40.82 C102.35 29.35, 113.44 15.37, 123.96 3.08 M96.15 41.18 C108.21 27.54, 116.18 15.55, 129.6 2.69 M96.15 41.18 C107.43 27.61, 117.62 14.94, 129.6 2.69 M101.79 40.78 C110.88 29.39, 120.63 20.38, 134.59 3.05 M101.79 40.78 C107.63 33.82, 115.53 26.04, 134.59 3.05 M106.78 41.14 C115.14 33.05, 121.08 23.47, 139.58 3.41 M106.78 41.14 C115.58 32.22, 123.03 20.82, 139.58 3.41 M112.42 40.75 C120.29 33.63, 126.38 25.68, 145.22 3.01 M112.42 40.75 C120.98 31.74, 128.91 22.34, 145.22 3.01 M117.41 41.11 C124.88 33.47, 132.57 25.22, 150.21 3.37 M117.41 41.11 C126.86 30.49, 133.74 21.39, 150.21 3.37 M123.05 40.71 C131.44 31.93, 142.06 20.67, 155.85 2.98 M123.05 40.71 C132.31 28.68, 143.22 17.55, 155.85 2.98 M128.04 41.07 C140.9 24.6, 154.2 10.64, 160.84 3.34 M128.04 41.07 C140.62 26.54, 151.6 12.9, 160.84 3.34 M133.02 41.43 C144.06 26.93, 157.02 17.66, 166.48 2.94 M133.02 41.43 C143.74 27.09, 156.31 15.36, 166.48 2.94 M138.67 41.04 C153.45 28.09, 164.35 9.58, 171.47 3.3 M138.67 41.04 C150.62 25.96, 163.02 11.97, 171.47 3.3 M143.65 41.4 C151.32 32.41, 161.79 24.13, 178.42 1.4 M143.65 41.4 C156.89 25.69, 169.16 11.76, 178.42 1.4 M149.3 41 C154.41 34.56, 160.69 25.36, 180.79 4.78 M149.3 41 C158.54 29.37, 169 18.75, 180.79 4.78 M154.28 41.37 C165.23 28.32, 177.24 16.16, 183.81 7.4 M154.28 41.37 C163.19 30.55, 173.07 18.45, 183.81 7.4 M159.93 40.97 C165.09 35.71, 171.44 27.6, 183.54 13.8 M159.93 40.97 C168.2 32.85, 174.38 24.38, 183.54 13.8 M164.91 41.33 C171.17 34.16, 177.45 24.85, 183.94 19.44 M164.91 41.33 C171.75 32.81, 179.9 25.63, 183.94 19.44 M170.56 40.94 C176.99 34.04, 178.07 31.96, 183.68 25.84 M170.56 40.94 C176.08 34.9, 180.33 29.6, 183.68 25.84 M174.23 42.81 C177.14 40.81, 180.25 36.89, 184.07 31.48 M174.23 42.81 C176.55 39.85, 178.94 38.33, 184.07 31.48 M6.08 40.26 C6.08 40.26, 6.08 40.26, 6.08 40.26 M6.08 40.26 C6.08 40.26, 6.08 40.26, 6.08 40.26 M11.72 39.86 C8.52 38.32, 5.95 35.72, 2.67 31.99 M11.72 39.86 C9.26 37.41, 7.27 35.67, 2.67 31.99 M18.12 40.12 C11.43 35.13, 6.78 30.77, 3.03 27 M18.12 40.12 C15 36.89, 9.41 33.46, 3.03 27 M23.76 39.73 C19.67 36.27, 12.33 27.38, 2.63 21.36 M23.76 39.73 C17.33 34.61, 12.38 30.72, 2.63 21.36 M30.16 39.99 C22.73 33.42, 17.98 28.55, 2.24 15.72 M30.16 39.99 C21.46 32.6, 11.78 24.68, 2.24 15.72 M36.56 40.25 C27.69 31.67, 17.61 21.18, 1.09 9.42 M36.56 40.25 C28.78 32.04, 19.72 24.66, 1.09 9.42 M42.2 39.86 C29.4 28, 13.52 15.81, 2.2 5.09 M42.2 39.86 C28.24 27.38, 12.34 13.5, 2.2 5.09 M48.6 40.12 C38.03 29.31, 25.61 20.25, 4.07 1.41 M48.6 40.12 C31.69 24.68, 14.63 8.68, 4.07 1.41 M55 40.38 C35.49 26.38, 17.71 9.35, 8.21 -0.3 M55 40.38 C43.9 31.54, 32.77 21.43, 8.21 -0.3 M60.64 39.99 C48.19 30.36, 33.81 18.59, 12.34 -2 M60.64 39.99 C50.25 30.45, 39.24 21.95, 12.34 -2 M67.04 40.25 C55.21 29.04, 44.49 19.33, 17.98 -2.4 M67.04 40.25 C54.49 30.67, 42.78 18.46, 17.98 -2.4 M73.44 40.51 C56.97 24.86, 42.77 13.32, 24.38 -2.14 M73.44 40.51 C58.04 28.78, 43 15.52, 24.38 -2.14 M79.08 40.11 C70.09 29.43, 56.42 20.89, 30.78 -1.87 M79.08 40.11 C67.35 29.97, 56.08 20.58, 30.78 -1.87 M85.48 40.38 C73.49 28.37, 61.94 19.53, 36.42 -2.27 M85.48 40.38 C69.91 26.4, 53.81 11.39, 36.42 -2.27 M91.12 39.98 C82.18 30.81, 71.02 22.67, 42.82 -2.01 M91.12 39.98 C80.19 30.87, 69.28 21.65, 42.82 -2.01 M97.52 40.24 C87.08 29.09, 72.58 19.5, 48.46 -2.4 M97.52 40.24 C86.39 28.58, 73.38 17.93, 48.46 -2.4 M103.92 40.5 C83.53 22.22, 65.16 6.69, 54.86 -2.14 M103.92 40.5 C90.26 29.29, 77.2 16.5, 54.86 -2.14 M109.56 40.11 C89.44 25.85, 71.44 6.26, 61.26 -1.88 M109.56 40.11 C95.37 26.95, 80.24 13.09, 61.26 -1.88 M115.96 40.37 C97.74 23.58, 76.61 7.1, 66.9 -2.27 M115.96 40.37 C97.26 24.28, 79.2 8.99, 66.9 -2.27 M122.36 40.63 C111.84 32.08, 97.85 23.25, 73.3 -2.01 M122.36 40.63 C110.94 29.76, 98.49 19.61, 73.3 -2.01 M128 40.24 C112.62 24.24, 97.42 13.13, 79.7 -1.75 M128 40.24 C113.99 28.13, 99.07 14.23, 79.7 -1.75 M134.4 40.5 C116.19 25.43, 97.28 8.2, 85.34 -2.14 M134.4 40.5 C122.77 30.6, 110.43 21.14, 85.34 -2.14 M140.79 40.76 C120.76 25.75, 103.22 9, 91.74 -1.88 M140.79 40.76 C127.04 28.4, 113.74 16.51, 91.74 -1.88 M146.44 40.37 C128.63 26.27, 112.16 11.13, 98.14 -1.62 M146.44 40.37 C136.89 30.6, 126.46 22.67, 98.14 -1.62 M152.84 40.63 C141.99 31.34, 133.75 22.42, 103.78 -2.02 M152.84 40.63 C140.35 31.24, 130.47 20.14, 103.78 -2.02 M158.48 40.23 C147.93 27.56, 134.33 19.79, 110.18 -1.76 M158.48 40.23 C142.18 25.7, 126.69 12.71, 110.18 -1.76 M164.88 40.49 C151.21 30.21, 139.21 19.56, 115.82 -2.15 M164.88 40.49 C148.64 27.43, 132.34 12.39, 115.82 -2.15 M171.27 40.76 C153.8 25.94, 140.18 13.51, 122.22 -1.89 M171.27 40.76 C158.26 29.23, 146.25 18.16, 122.22 -1.89 M174.65 38.39 C158.39 21.9, 139.36 11.11, 128.62 -1.63 M174.65 38.39 C161.39 27.07, 147.68 15.51, 128.62 -1.63 M179.54 37.34 C167.98 28.59, 161.23 19.76, 134.26 -2.02 M179.54 37.34 C162.21 21.87, 147.36 8.95, 134.26 -2.02 M182.17 34.32 C170.08 23, 156.19 10.56, 140.66 -1.76 M182.17 34.32 C172.17 26.69, 163.31 17.3, 140.66 -1.76 M182.53 29.34 C170.05 20.61, 160.58 9.84, 147.05 -1.5 M182.53 29.34 C173.84 20.87, 164.33 12.75, 147.05 -1.5 M182.13 23.69 C172.74 18.07, 165.72 11.56, 152.7 -1.89 M182.13 23.69 C174.52 17.61, 167.03 10.84, 152.7 -1.89 M182.49 18.71 C172.44 12.31, 164.82 3.69, 159.09 -1.63 M182.49 18.71 C175.65 13.15, 168.89 7.82, 159.09 -1.63 M182.1 13.06 C176.99 8.31, 171.7 3.72, 165.49 -1.37 M182.1 13.06 C177.89 9.92, 173.12 5.78, 165.49 -1.37 M182.46 8.08 C178.5 4.62, 173.31 2.13, 171.14 -1.76 M182.46 8.08 C180.36 6.76, 178.48 4.58, 171.14 -1.76" stroke="#868e96" stroke-width="0.5" fill="none"></path><path d="M10.14 0 M10.14 0 C65.58 -1.54, 121.92 -0.62, 172.39 0 M10.14 0 C55.68 0.4, 99.76 2.3, 172.39 0 M172.39 0 C179.1 -0.09, 180.66 1.4, 182.54 10.14 M172.39 0 C177.84 -1.71, 183.34 4.14, 182.54 10.14 M182.54 10.14 C182.24 16.5, 184.03 17.67, 182.54 30.42 M182.54 10.14 C183.5 16.07, 181.52 23.5, 182.54 30.42 M182.54 30.42 C181.17 35.42, 180.9 41.38, 172.39 40.56 M182.54 30.42 C184.69 38.35, 178.56 38.4, 172.39 40.56 M172.39 40.56 C136.24 39.82, 100.36 39.26, 10.14 40.56 M172.39 40.56 C128.7 41.05, 86.42 42.39, 10.14 40.56 M10.14 40.56 C3.63 42.26, -0.34 37.71, 0 30.42 M10.14 40.56 C2.62 39.09, 0.05 36.28, 0 30.42 M0 30.42 C0.3 24.17, -1.91 15.08, 0 10.14 M0 30.42 C-1.12 23.16, -0.97 15.15, 0 10.14 M0 10.14 C1.65 3.6, 3.52 -1.9, 10.14 0 M0 10.14 C1.26 2.77, 3.29 -1.66, 10.14 0" stroke="#000000" stroke-width="1" fill="none"></path></g><g stroke-linecap="round" transform="translate(521.1126760563393 118.76602034176813) rotate(0 10.140845070422415 10.140845070422415)"><path d="M6.43 1.21 C8.24 0.57, 11.01 -0.14, 13.18 0.57 C15.35 1.29, 18.35 3.6, 19.46 5.52 C20.58 7.45, 20.24 9.93, 19.89 12.13 C19.53 14.33, 19.06 17.4, 17.32 18.72 C15.57 20.04, 11.61 20.28, 9.41 20.04 C7.2 19.81, 5.58 18.76, 4.11 17.29 C2.63 15.82, 0.9 13.38, 0.53 11.2 C0.16 9.03, 0.67 6.16, 1.86 4.22 C3.06 2.29, 6.42 0.1, 7.71 -0.39 C8.99 -0.87, 9.57 1, 9.56 1.33 M14.17 -0.12 C16.13 0.71, 18.55 5.52, 19.53 7.62 C20.51 9.73, 20.55 10.47, 20.06 12.51 C19.56 14.55, 18.35 18.33, 16.56 19.84 C14.77 21.36, 11.38 22.22, 9.31 21.59 C7.25 20.95, 5.7 17.7, 4.17 16.05 C2.64 14.4, 0.66 13.88, 0.14 11.69 C-0.39 9.5, -0.11 5.01, 1.01 2.92 C2.14 0.83, 4.46 -0.33, 6.87 -0.84 C9.28 -1.35, 14.32 -0.5, 15.48 -0.16 C16.64 0.18, 14.04 0.97, 13.83 1.2" stroke="none" stroke-width="0" fill="#228be6"></path><path d="M15.66 1.17 C17.47 2.09, 17.81 4.37, 18.54 6.24 C19.26 8.11, 20.55 10.51, 20.02 12.41 C19.49 14.31, 17.11 16.29, 15.35 17.66 C13.58 19.03, 11.61 20.82, 9.43 20.65 C7.26 20.48, 3.88 18.33, 2.28 16.64 C0.67 14.94, -0.29 12.48, -0.22 10.49 C-0.14 8.51, 1.28 6.34, 2.73 4.71 C4.17 3.08, 6.5 1.08, 8.47 0.71 C10.44 0.34, 13.15 2.22, 14.55 2.49 C15.94 2.76, 16.74 2.23, 16.84 2.33 M10.7 0.66 C13.1 0.53, 16.31 0.17, 17.88 1.46 C19.45 2.75, 20.08 6.15, 20.11 8.39 C20.15 10.63, 19.24 12.94, 18.09 14.9 C16.93 16.86, 15.35 19.47, 13.18 20.13 C11.01 20.79, 7.18 19.74, 5.08 18.86 C2.98 17.98, 1.25 16.96, 0.59 14.83 C-0.07 12.71, 0.28 8.17, 1.13 6.1 C1.99 4.04, 3.93 3.41, 5.72 2.44 C7.5 1.47, 10.95 0.64, 11.84 0.27 C12.73 -0.1, 11.24 0.17, 11.05 0.21" stroke="#000000" stroke-width="1" fill="none"></path></g><g stroke-linecap="round"><g transform="translate(378.9634574105312 119.33309059570183) rotate(0 30.056904013129326 0.21643468067054528)"><path d="M-0.24 1.13 C9.63 1.13, 49.99 -0.52, 60.36 -0.69 M1.83 0.67 C11.41 0.88, 49.16 0.35, 59.15 0.48" stroke="#000000" stroke-width="1" fill="none"></path></g></g><g stroke-linecap="round"><g transform="translate(378.13037599981817 128.26469623600315) rotate(0 31.379006002806477 -0.3321205113782071)"><path d="M1.13 -0.49 C11.27 -0.26, 50.19 1.23, 60.15 1.12 M0.26 -1.79 C10.86 -1.85, 52.51 -0.64, 62.5 -0.41" stroke="#000000" stroke-width="1" fill="none"></path></g></g><g stroke-linecap="round"><g transform="translate(441.01078428613346 138.4962172333071) rotate(0 -29.31045957306435 0.5613624467274576)"><path d="M-0.49 -0.69 C-10.4 -0.87, -49.48 -0.05, -59.72 0.09 M1.46 1.56 C-8.49 2.11, -49.89 1.68, -60.08 1.67" stroke="#000000" stroke-width="1" fill="none"></path></g></g><g stroke-linecap="round" transform="translate(369 159.32940062345847) rotate(0 91.26760563380196 20.28169014084483)"><path d="M2.7 2.35 C2.7 2.35, 2.7 2.35, 2.7 2.35 M2.7 2.35 C2.7 2.35, 2.7 2.35, 2.7 2.35 M0.47 11.01 C3.68 7.15, 8.34 2.94, 10.31 -0.31 M0.47 11.01 C4.24 7.07, 8.12 1.75, 10.31 -0.31 M0.86 16.65 C5.65 11.78, 8.76 8.39, 13.33 2.31 M0.86 16.65 C6.05 12.09, 10.31 6.21, 13.33 2.31 M1.26 22.29 C3.99 19.23, 9.91 12.99, 18.32 2.67 M1.26 22.29 C7.73 15.92, 12.06 9.14, 18.32 2.67 M1 28.69 C9.66 18.32, 17.14 10.06, 23.96 2.28 M1 28.69 C11.29 18.14, 20.42 6.68, 23.96 2.28 M0.74 35.09 C9.47 22.52, 18.74 14.17, 28.95 2.64 M0.74 35.09 C9.94 24.32, 18.93 13.58, 28.95 2.64 M3.75 37.71 C16.4 26.03, 26.5 11.42, 33.93 3 M3.75 37.71 C15.25 24.18, 26.62 11.13, 33.93 3 M6.77 40.34 C15.23 31.83, 23.16 20.9, 39.58 2.6 M6.77 40.34 C14.52 30.71, 24.13 18.88, 39.58 2.6 M11.76 40.7 C25.86 24.31, 36.06 9.12, 44.56 2.96 M11.76 40.7 C24.84 26.78, 36.53 11.94, 44.56 2.96 M17.4 40.3 C24.73 31.72, 34.6 19.02, 50.21 2.57 M17.4 40.3 C30.25 26.11, 41.63 12.64, 50.21 2.57 M22.39 40.66 C32.97 29.33, 44.57 14.18, 55.19 2.93 M22.39 40.66 C34.69 26.4, 47.38 11.68, 55.19 2.93 M27.38 41.02 C39.52 24.69, 52.2 11.4, 60.84 2.53 M27.38 41.02 C38.28 27.9, 49.79 14.77, 60.84 2.53 M33.02 40.63 C41.66 30.63, 48.32 22.03, 65.82 2.89 M33.02 40.63 C41.7 30.02, 49.89 20.76, 65.82 2.89 M38.01 40.99 C48.69 29.33, 55.95 22.19, 71.47 2.5 M38.01 40.99 C49.85 28.1, 60.51 14.81, 71.47 2.5 M43.65 40.6 C54.44 23.92, 67.88 11.47, 76.45 2.86 M43.65 40.6 C56.46 27.43, 68.39 14.27, 76.45 2.86 M48.64 40.96 C59.31 29.51, 67.92 20.79, 82.1 2.47 M48.64 40.96 C57.53 29.3, 67.56 19.25, 82.1 2.47 M54.28 40.56 C64.97 28.71, 76.86 14.8, 87.08 2.83 M54.28 40.56 C64.74 29.61, 73.9 18.48, 87.08 2.83 M59.27 40.92 C73.05 25.32, 83.86 11.98, 92.07 3.19 M59.27 40.92 C67.38 32.24, 75.01 21.15, 92.07 3.19 M64.91 40.53 C73 29.51, 78.8 22.21, 97.71 2.79 M64.91 40.53 C73.11 31.5, 79.15 24.38, 97.71 2.79 M69.9 40.89 C79.15 31.37, 85.99 21.21, 102.7 3.15 M69.9 40.89 C81.41 27.37, 93.74 14.32, 102.7 3.15 M74.89 41.25 C79.83 34.57, 88.54 26.5, 108.34 2.76 M74.89 41.25 C85.13 30.28, 95.8 18.76, 108.34 2.76 M80.53 40.85 C91.24 31.98, 97 20.92, 113.33 3.12 M80.53 40.85 C88.74 31.57, 94.64 24.32, 113.33 3.12 M85.52 41.21 C94.43 35.54, 97.74 27.48, 118.97 2.72 M85.52 41.21 C92.16 33.3, 100.76 23.75, 118.97 2.72 M91.16 40.82 C96.49 33.42, 105 23.64, 123.96 3.08 M91.16 40.82 C103.48 26.22, 114.47 14.36, 123.96 3.08 M96.15 41.18 C101.07 32.77, 109.95 24.66, 129.6 2.69 M96.15 41.18 C108.56 25.59, 122.26 11.44, 129.6 2.69 M101.79 40.78 C113.2 29.25, 119.24 17.44, 134.59 3.05 M101.79 40.78 C114.24 27.63, 124.77 14.41, 134.59 3.05 M106.78 41.14 C116.13 29.14, 124.7 19.93, 139.58 3.41 M106.78 41.14 C113.53 31.29, 121.37 23.56, 139.58 3.41 M112.42 40.75 C123.27 29.2, 132.31 16.93, 145.22 3.01 M112.42 40.75 C121.52 30.56, 128.55 21.31, 145.22 3.01 M117.41 41.11 C124.83 33.81, 129.81 27.61, 150.21 3.37 M117.41 41.11 C125.92 30.49, 136.57 18.59, 150.21 3.37 M123.05 40.71 C130.92 33.16, 138.59 22.62, 155.85 2.98 M123.05 40.71 C132.45 30.35, 142.49 20.58, 155.85 2.98 M128.04 41.07 C139.64 27.98, 151.73 15.44, 160.84 3.34 M128.04 41.07 C133.81 33.13, 141.61 25.44, 160.84 3.34 M133.02 41.43 C145.78 30.81, 156.03 16.8, 166.48 2.94 M133.02 41.43 C146.91 27.17, 160.24 11.41, 166.48 2.94 M138.67 41.04 C150.78 24.58, 164.75 12.39, 171.47 3.3 M138.67 41.04 C146.65 31.22, 155.36 21.95, 171.47 3.3 M143.65 41.4 C156.02 30.94, 166.06 19.09, 178.42 1.4 M143.65 41.4 C156.45 26.94, 168.74 12.18, 178.42 1.4 M149.3 41 C156.1 30.91, 165.2 22.19, 180.79 4.78 M149.3 41 C158.03 31.53, 166.54 21.55, 180.79 4.78 M154.28 41.37 C166.65 28.35, 177.2 14.44, 183.81 7.4 M154.28 41.37 C166.08 26.75, 177.27 14.1, 183.81 7.4 M159.93 40.97 C169.6 29.74, 176.84 22.68, 183.54 13.8 M159.93 40.97 C165.96 33.77, 173.42 26.32, 183.54 13.8 M164.91 41.33 C171.63 31.85, 181.06 25.47, 183.94 19.44 M164.91 41.33 C173.32 33.58, 180.7 23.75, 183.94 19.44 M170.56 40.94 C173.27 37.47, 181.37 30.47, 183.68 25.84 M170.56 40.94 C173.95 36.87, 177.69 31.77, 183.68 25.84 M174.23 42.81 C177.4 39.97, 178.67 35.04, 184.07 31.48 M174.23 42.81 C177.35 40.11, 180.43 36.1, 184.07 31.48 M6.08 40.26 C6.08 40.26, 6.08 40.26, 6.08 40.26 M6.08 40.26 C6.08 40.26, 6.08 40.26, 6.08 40.26 M11.72 39.86 C9.81 39.25, 7.22 35.52, 2.67 31.99 M11.72 39.86 C9.56 37.68, 8.22 35.84, 2.67 31.99 M18.12 40.12 C14.98 38.02, 9.78 34.01, 3.03 27 M18.12 40.12 C12.81 36.53, 9.03 31.41, 3.03 27 M23.76 39.73 C18.41 33.22, 11.03 31.34, 2.63 21.36 M23.76 39.73 C18.39 35.76, 11.56 30.72, 2.63 21.36 M30.16 39.99 C24.02 33.52, 19.29 30.04, 2.24 15.72 M30.16 39.99 C23.22 35.08, 15.9 28.25, 2.24 15.72 M36.56 40.25 C25.21 27.74, 9.37 17.01, 1.09 9.42 M36.56 40.25 C26.05 30.28, 15.03 21.93, 1.09 9.42 M42.2 39.86 C25.7 25.97, 12.35 12.42, 2.2 5.09 M42.2 39.86 C30.11 29.38, 19.62 21.63, 2.2 5.09 M48.6 40.12 C36.73 29.91, 23.89 15.29, 4.07 1.41 M48.6 40.12 C40.17 31.86, 30.95 24.35, 4.07 1.41 M55 40.38 C36.04 24.87, 18.8 11.24, 8.21 -0.3 M55 40.38 C39.1 27.05, 21.14 12.64, 8.21 -0.3 M60.64 39.99 C45.66 29.12, 32.49 16.31, 12.34 -2 M60.64 39.99 C49.54 31.46, 38.96 22.24, 12.34 -2 M67.04 40.25 C56.68 29.94, 41.74 20.28, 17.98 -2.4 M67.04 40.25 C50.06 24.6, 32.93 9.72, 17.98 -2.4 M73.44 40.51 C62.04 30.14, 47.1 17.42, 24.38 -2.14 M73.44 40.51 C54.52 25.39, 35.69 7.78, 24.38 -2.14 M79.08 40.11 C63.06 27.01, 46.85 14.47, 30.78 -1.87 M79.08 40.11 C67.8 30.67, 57.53 21.09, 30.78 -1.87 M85.48 40.38 C76.28 32.49, 64.6 22.96, 36.42 -2.27 M85.48 40.38 C71.01 26.42, 54.08 13.56, 36.42 -2.27 M91.12 39.98 C72.45 23.72, 53.27 6.86, 42.82 -2.01 M91.12 39.98 C71.78 23.46, 52.3 5.94, 42.82 -2.01 M97.52 40.24 C85.7 31.75, 75.12 20.72, 48.46 -2.4 M97.52 40.24 C87.32 30.8, 78.09 22, 48.46 -2.4 M103.92 40.5 C89.74 27.75, 75.69 14.68, 54.86 -2.14 M103.92 40.5 C93.77 31.72, 85.25 23.08, 54.86 -2.14 M109.56 40.11 C93.13 25.33, 78.49 12.11, 61.26 -1.88 M109.56 40.11 C97.2 28.41, 85.28 19.06, 61.26 -1.88 M115.96 40.37 C96.37 23.7, 81.21 10.9, 66.9 -2.27 M115.96 40.37 C103.91 30.2, 91.88 20.58, 66.9 -2.27 M122.36 40.63 C101.49 26.09, 83.12 9.23, 73.3 -2.01 M122.36 40.63 C109.59 29.08, 98.97 18.76, 73.3 -2.01 M128 40.24 C119.6 32.99, 108.11 22, 79.7 -1.75 M128 40.24 C109.26 23.22, 89.96 6.93, 79.7 -1.75 M134.4 40.5 C116.34 24.75, 95.41 10.18, 85.34 -2.14 M134.4 40.5 C118.27 27.56, 104.66 13.63, 85.34 -2.14 M140.79 40.76 C127.96 30.9, 115.08 17.09, 91.74 -1.88 M140.79 40.76 C128.48 29.6, 116.49 18.81, 91.74 -1.88 M146.44 40.37 C132.05 28.46, 117.49 16.31, 98.14 -1.62 M146.44 40.37 C135.87 31.04, 125.43 22.85, 98.14 -1.62 M152.84 40.63 C141.57 29.12, 127.39 19.83, 103.78 -2.02 M152.84 40.63 C141.24 29.76, 126.87 19.33, 103.78 -2.02 M158.48 40.23 C148.17 31.9, 138.1 23.07, 110.18 -1.76 M158.48 40.23 C146.13 29.15, 133.62 17.89, 110.18 -1.76 M164.88 40.49 C146.83 25.95, 131.1 10.1, 115.82 -2.15 M164.88 40.49 C146.66 24.84, 129.02 10.31, 115.82 -2.15 M171.27 40.76 C158.87 29.03, 144.91 17.18, 122.22 -1.89 M171.27 40.76 C154.08 24.34, 136.39 9.91, 122.22 -1.89 M174.65 38.39 C162.2 30.83, 153.41 20.4, 128.62 -1.63 M174.65 38.39 C156.2 22.35, 137.43 7.11, 128.62 -1.63 M179.54 37.34 C168.09 25.33, 154.12 13.96, 134.26 -2.02 M179.54 37.34 C170.3 28.52, 159.38 18.94, 134.26 -2.02 M182.17 34.32 C165.57 18.38, 148.65 5.7, 140.66 -1.76 M182.17 34.32 C171.96 25.32, 161.18 15.6, 140.66 -1.76 M182.53 29.34 C170.53 18.4, 158.18 7.5, 147.05 -1.5 M182.53 29.34 C171.04 18.58, 158.84 9.88, 147.05 -1.5 M182.13 23.69 C174.52 19.23, 169.08 12.37, 152.7 -1.89 M182.13 23.69 C171.87 15.04, 162.68 5.61, 152.7 -1.89 M182.49 18.71 C174.35 11.95, 164.8 3.77, 159.09 -1.63 M182.49 18.71 C174.35 12.44, 167.67 4.79, 159.09 -1.63 M182.1 13.06 C175.65 7.12, 169.45 2.19, 165.49 -1.37 M182.1 13.06 C175.58 7.93, 171.03 3.72, 165.49 -1.37 M182.46 8.08 C177.02 5.24, 173.02 2.18, 171.14 -1.76 M182.46 8.08 C180.22 6.22, 176.96 2.86, 171.14 -1.76" stroke="#868e96" stroke-width="0.5" fill="none"></path><path d="M10.14 0 M10.14 0 C62.5 0.67, 112.4 2.29, 172.39 0 M10.14 0 C45.75 2.48, 80.75 1.47, 172.39 0 M172.39 0 C177.28 -1.98, 181.39 1.9, 182.54 10.14 M172.39 0 C179.96 0.76, 180.72 4.9, 182.54 10.14 M182.54 10.14 C183.86 15.17, 182.62 22.86, 182.54 30.42 M182.54 10.14 C181.74 18.57, 182.05 24.27, 182.54 30.42 M182.54 30.42 C184.28 38, 181.03 41.58, 172.39 40.56 M182.54 30.42 C181.94 35.02, 177.27 40.45, 172.39 40.56 M172.39 40.56 C130.38 40.09, 90.26 40.82, 10.14 40.56 M172.39 40.56 C116.14 41, 58.57 40.85, 10.14 40.56 M10.14 40.56 C3.04 41.09, -0.66 35.9, 0 30.42 M10.14 40.56 C3.43 39.66, 1.11 37.56, 0 30.42 M0 30.42 C-1.91 21.97, 1.79 17.8, 0 10.14 M0 30.42 C-0.6 23.5, 1.01 15.5, 0 10.14 M0 10.14 C0.14 1.48, 4.48 -0.53, 10.14 0 M0 10.14 C-0.1 1.72, 5.19 -0.21, 10.14 0" stroke="#000000" stroke-width="1" fill="none"></path></g><g stroke-linecap="round" transform="translate(521.1126760563393 169.47024569387963) rotate(0 10.140845070422415 10.140845070422415)"><path d="M13.82 0.04 C15.97 0.5, 17.94 2.44, 19.06 4.24 C20.18 6.03, 20.87 8.69, 20.53 10.79 C20.19 12.9, 18.5 15.12, 17.03 16.86 C15.55 18.61, 13.92 20.98, 11.7 21.26 C9.48 21.54, 5.48 20.05, 3.73 18.54 C1.98 17.04, 1.49 14.48, 1.21 12.25 C0.92 10.03, 1.34 7.09, 2.03 5.2 C2.71 3.3, 2.98 1.48, 5.34 0.86 C7.69 0.24, 14.28 1.05, 16.14 1.47 C17.99 1.9, 16.59 3.25, 16.48 3.41 M14.76 2.06 C16.26 2.84, 17.72 3.31, 18.41 4.94 C19.1 6.58, 19.21 9.83, 18.89 11.89 C18.57 13.95, 18.29 15.95, 16.5 17.33 C14.72 18.7, 10.5 20.3, 8.21 20.14 C5.92 19.98, 4.25 17.72, 2.76 16.36 C1.26 15.01, -0.6 13.92, -0.76 12 C-0.92 10.07, 0.33 6.58, 1.78 4.82 C3.23 3.06, 6.04 2.03, 7.94 1.45 C9.83 0.87, 12.11 1.49, 13.15 1.36 C14.2 1.23, 13.83 0.41, 14.21 0.68" stroke="none" stroke-width="0" fill="#228be6"></path><path d="M12.12 0.04 C14.36 0.55, 17.43 2.81, 18.9 4.64 C20.36 6.47, 21.29 8.83, 20.91 11.04 C20.53 13.26, 18.08 16.4, 16.61 17.94 C15.14 19.48, 14.06 20.04, 12.09 20.27 C10.13 20.51, 6.74 20.69, 4.83 19.35 C2.92 18.01, 1.36 14.44, 0.63 12.22 C-0.09 10, -0.4 7.82, 0.47 6.04 C1.35 4.25, 3.89 2.45, 5.89 1.52 C7.89 0.6, 11.15 0.58, 12.48 0.48 C13.82 0.39, 13.92 0.73, 13.91 0.95 M10.45 0.41 C12.78 0.26, 16.09 -0.15, 17.96 1.39 C19.82 2.93, 21.39 7.21, 21.63 9.64 C21.87 12.08, 20.83 14.32, 19.4 16.02 C17.96 17.72, 15.29 19.38, 13.03 19.85 C10.76 20.32, 7.59 19.9, 5.82 18.85 C4.06 17.8, 3.51 15.42, 2.43 13.53 C1.35 11.65, -0.72 9.62, -0.65 7.55 C-0.58 5.47, 0.77 2.53, 2.86 1.09 C4.95 -0.35, 10.6 -1.06, 11.89 -1.11 C13.17 -1.17, 10.71 0.47, 10.56 0.78" stroke="#000000" stroke-width="1" fill="none"></path></g><g stroke-linecap="round"><g transform="translate(378.95934688991565 170.15752176432397) rotate(0 29.875084921555015 0.10434113746975981)"><path d="M0.61 0.53 C10.72 0.64, 50.29 -0.4, 60.29 -0.53 M-0.54 -0.24 C9.41 0.13, 49.01 0.54, 59.05 0.73" stroke="#000000" stroke-width="1" fill="none"></path></g></g><g stroke-linecap="round"><g transform="translate(378.11756099512877 179.10000814708883) rotate(0 29.83283311743793 0.5767774155484631)"><path d="M0.53 -0.56 C10.78 -0.71, 50.31 -0.51, 60.32 -0.28 M-0.65 1.76 C9.49 1.74, 49.03 1.58, 59.09 1.11" stroke="#000000" stroke-width="1" fill="none"></path></g></g><g stroke-linecap="round"><g transform="translate(440.9805888598721 189.2397865760172) rotate(0 -30.437138010058902 0.6222466984341963)"><path d="M-0.56 -0.53 C-10.85 -0.66, -51.22 -0.46, -61.13 -0.24 M1.35 1.81 C-9.18 1.82, -51.94 1.66, -62.22 1.16" stroke="#000000" stroke-width="1" fill="none"></path></g></g><g stroke-linecap="round"><g transform="translate(465.90040232525416 199.7551295066728) rotate(0 0.06802044887081138 10.905143367146934)"><path d="M0.71 0.96 C0.73 4.61, 0.24 18.3, 0.32 21.38 M-0.38 0.43 C-0.5 3.8, -0.69 16.52, -0.47 19.84" stroke="#000000" stroke-width="2" fill="none"></path></g></g><g stroke-linecap="round"><g transform="translate(373.9392409238317 230.36869343083208) rotate(0 91.41669888757741 -0.02770470455288887)"><path d="M-0.88 0.59 C29.52 0.62, 150.97 -0.54, 181.53 -0.65 M0.85 -0.14 C31.7 0.1, 153.58 0.31, 183.72 0.55" stroke="#000000" stroke-width="2" fill="none"></path></g></g><g stroke-linecap="round" transform="translate(426.08978873238993 217.63925977838812) rotate(0 40.563380281689774 10.140845070422415)"><path d="M-1.19 -1.82 L80.65 1.74 L80.96 20.85 L2 20.42" stroke="none" stroke-width="0" fill="#868e96"></path><path d="M-1.36 0.16 C27.81 -2.14, 51.45 -2.09, 79.66 0.99 M-0.03 -0.52 C17.03 0.85, 34.98 0.5, 81.25 0.77 M80.38 1.65 C82.5 4.96, 81.14 7.01, 80.38 19.93 M80.39 -0.09 C81.75 4.14, 80.79 10.3, 82 19.41 M82.94 20.56 C55.48 20.81, 33.1 21.6, 1.46 20.78 M81.61 20.49 C52.13 19.95, 21.54 21.12, -0.73 21.07 M-0.21 19.26 C-0.87 12.09, -1.84 4.02, -0.85 -0.34 M0.06 19.36 C-0.24 13.36, -0.53 4.62, 0.27 -0.41" stroke="#000000" stroke-width="1" fill="none"></path></g><g stroke-linecap="round"><g transform="translate(287.1633681304752 9.964668777435918) rotate(0 37.77334762342281 125.89794075094176)"><path d="M1.79 1.62 C13.73 43.19, 59.14 210.3, 70.89 251.76 M-0.68 0.04 C12.21 42.12, 64.42 207.3, 76.23 248.23" stroke="#ffdb1c" stroke-width="4" fill="none"></path></g></g></svg>