<svg version="1.1" xmlns="http://www.w3.org/2000/svg" viewBox="0 0 501.48345091439205 560">
  <g stroke-linecap="round" transform="translate(150.87549045309424 10) rotate(0 170.28570992606 200)"><path d="M1.24 0.42 C93.98 0.82, 191.02 0.77, 340.28 -0.62 M0.3 -0.25 C116.26 1.29, 233.21 1.06, 340.26 0.29 M340.37 -0.12 C341.96 92.32, 340.33 186.1, 340.51 398.96 M340.17 0.35 C339.75 134.81, 339.33 271.07, 341.12 399.51 M341.83 399.61 C230.84 400.6, 122.53 400.36, -1.09 399.37 M340.71 399.66 C231.88 399.59, 122.79 399.23, 0.6 399.89 M-0.34 399.73 C-0.33 247.47, 0.91 92.62, -0.86 -0.08 M0.06 400.41 C2.04 288.31, 2.34 175.73, 0.37 0.1" stroke="#000000" stroke-width="1" fill="none"></path></g><g stroke-linecap="round" transform="translate(170.87549045309424 30) rotate(0 150.1435091444887 20)"><path d="M0 0 C0 0, 0 0, 0 0 M0 0 C0 0, 0 0, 0 0 M-0.26 6.4 C1.25 4.66, 2.77 2.92, 4.99 0.36 M-0.26 6.4 C1.41 4.47, 3.09 2.54, 4.99 0.36 M0.13 12.04 C3.74 7.9, 7.34 3.75, 10.63 -0.03 M0.13 12.04 C2.9 8.86, 5.66 5.68, 10.63 -0.03 M-0.13 18.44 C6.12 11.25, 12.37 4.06, 15.62 0.33 M-0.13 18.44 C5.1 12.42, 10.33 6.41, 15.62 0.33 M0.27 24.08 C5.16 18.45, 10.05 12.82, 21.26 -0.07 M0.27 24.08 C5.8 17.72, 11.33 11.35, 21.26 -0.07 M0 30.48 C5.28 24.42, 10.55 18.35, 26.25 0.29 M0 30.48 C6.89 22.56, 13.77 14.65, 26.25 0.29 M-0.26 36.88 C7.84 27.56, 15.94 18.24, 31.89 -0.1 M-0.26 36.88 C11.34 23.53, 22.95 10.19, 31.89 -0.1 M1.45 41.01 C14.85 25.6, 28.25 10.19, 36.88 0.26 M1.45 41.01 C15.04 25.38, 28.62 9.75, 36.88 0.26 M6.44 41.37 C15.43 31.02, 24.43 20.68, 42.52 -0.14 M6.44 41.37 C17.53 28.61, 28.62 15.85, 42.52 -0.14 M12.08 40.98 C20.94 30.78, 29.8 20.59, 47.51 0.22 M12.08 40.98 C20.09 31.76, 28.1 22.55, 47.51 0.22 M17.07 41.34 C28.55 28.12, 40.04 14.91, 53.15 -0.17 M17.07 41.34 C28.31 28.41, 39.55 15.48, 53.15 -0.17 M22.71 40.94 C36.24 25.38, 49.76 9.82, 58.14 0.19 M22.71 40.94 C36.05 25.6, 49.39 10.26, 58.14 0.19 M27.7 41.3 C41.99 24.86, 56.29 8.42, 63.78 -0.21 M27.7 41.3 C36.27 31.44, 44.84 21.58, 63.78 -0.21 M33.34 40.91 C46.88 25.33, 60.42 9.76, 68.77 0.15 M33.34 40.91 C43.16 29.61, 52.99 18.31, 68.77 0.15 M38.33 41.27 C47.83 30.33, 57.34 19.4, 74.41 -0.24 M38.33 41.27 C45.78 32.7, 53.23 24.12, 74.41 -0.24 M43.97 40.87 C54.73 28.49, 65.5 16.11, 79.4 0.12 M43.97 40.87 C52.03 31.61, 60.08 22.34, 79.4 0.12 M48.96 41.23 C61.4 26.92, 73.84 12.61, 85.04 -0.28 M48.96 41.23 C63.22 24.82, 77.49 8.41, 85.04 -0.28 M54.6 40.84 C63.21 30.93, 71.83 21.02, 90.03 0.08 M54.6 40.84 C68.13 25.27, 81.67 9.7, 90.03 0.08 M59.59 41.2 C70.71 28.4, 81.84 15.6, 95.67 -0.31 M59.59 41.2 C68.15 31.34, 76.72 21.49, 95.67 -0.31 M65.23 40.8 C77.28 26.94, 89.34 13.07, 100.66 0.05 M65.23 40.8 C77.72 26.43, 90.21 12.06, 100.66 0.05 M70.22 41.16 C79.82 30.11, 89.43 19.06, 106.3 -0.34 M70.22 41.16 C78.23 31.94, 86.25 22.72, 106.3 -0.34 M75.2 41.52 C88.88 25.79, 102.56 10.06, 111.29 0.02 M75.2 41.52 C82.67 32.94, 90.13 24.36, 111.29 0.02 M80.85 41.13 C94.1 25.88, 107.36 10.63, 116.27 0.38 M80.85 41.13 C91.32 29.09, 101.79 17.04, 116.27 0.38 M85.83 41.49 C99.81 25.42, 113.78 9.34, 121.92 -0.02 M85.83 41.49 C95.52 30.34, 105.21 19.2, 121.92 -0.02 M91.48 41.1 C99.68 31.65, 107.89 22.21, 126.91 0.34 M91.48 41.1 C100.67 30.52, 109.86 19.95, 126.91 0.34 M96.46 41.46 C104.98 31.66, 113.5 21.86, 132.55 -0.05 M96.46 41.46 C107.94 28.26, 119.41 15.05, 132.55 -0.05 M102.11 41.06 C112.1 29.57, 122.08 18.08, 137.54 0.31 M102.11 41.06 C115.3 25.89, 128.49 10.71, 137.54 0.31 M107.09 41.42 C115.78 31.42, 124.47 21.43, 143.18 -0.09 M107.09 41.42 C121.23 25.16, 135.36 8.91, 143.18 -0.09 M112.74 41.03 C120.25 32.38, 127.76 23.74, 148.17 0.27 M112.74 41.03 C125.09 26.82, 137.44 12.61, 148.17 0.27 M117.73 41.39 C130.73 26.43, 143.73 11.47, 153.81 -0.12 M117.73 41.39 C131.51 25.53, 145.3 9.67, 153.81 -0.12 M123.37 40.99 C135.87 26.61, 148.37 12.23, 158.8 0.24 M123.37 40.99 C136.09 26.35, 148.82 11.72, 158.8 0.24 M128.36 41.35 C142.69 24.87, 157.02 8.38, 164.44 -0.16 M128.36 41.35 C136.95 31.46, 145.55 21.57, 164.44 -0.16 M134 40.96 C143.87 29.6, 153.74 18.25, 169.43 0.2 M134 40.96 C142.18 31.54, 150.37 22.13, 169.43 0.2 M138.99 41.32 C153.34 24.81, 167.69 8.29, 175.07 -0.19 M138.99 41.32 C152.17 26.15, 165.35 10.99, 175.07 -0.19 M144.63 40.92 C151.99 32.45, 159.36 23.98, 180.06 0.17 M144.63 40.92 C153.4 30.84, 162.17 20.75, 180.06 0.17 M149.62 41.28 C158.72 30.81, 167.82 20.34, 185.7 -0.23 M149.62 41.28 C157.73 31.95, 165.84 22.62, 185.7 -0.23 M155.26 40.89 C162.43 32.64, 169.6 24.39, 190.69 0.13 M155.26 40.89 C167.59 26.7, 179.92 12.51, 190.69 0.13 M160.25 41.25 C170.88 29.02, 181.51 16.79, 196.33 -0.26 M160.25 41.25 C172.31 27.37, 184.37 13.5, 196.33 -0.26 M165.89 40.85 C178.93 25.85, 191.97 10.85, 201.32 0.1 M165.89 40.85 C177.53 27.46, 189.18 14.06, 201.32 0.1 M170.88 41.21 C181.79 28.66, 192.7 16.11, 206.96 -0.3 M170.88 41.21 C180.54 30.1, 190.2 18.99, 206.96 -0.3 M176.52 40.82 C185.54 30.45, 194.55 20.07, 211.95 0.06 M176.52 40.82 C185.07 30.99, 193.62 21.15, 211.95 0.06 M181.51 41.18 C192.22 28.85, 202.94 16.53, 217.59 -0.33 M181.51 41.18 C190.72 30.58, 199.93 19.98, 217.59 -0.33 M187.15 40.78 C196.18 30.4, 205.2 20.01, 222.58 0.03 M187.15 40.78 C201.11 24.72, 215.08 8.65, 222.58 0.03 M192.14 41.14 C204.53 26.89, 216.92 12.63, 228.22 -0.36 M192.14 41.14 C205.97 25.23, 219.81 9.31, 228.22 -0.36 M197.12 41.5 C204.56 32.95, 211.99 24.4, 233.21 0 M197.12 41.5 C209.82 26.9, 222.52 12.29, 233.21 0 M202.77 41.11 C215.19 26.81, 227.62 12.51, 238.19 0.36 M202.77 41.11 C216.75 25.02, 230.74 8.93, 238.19 0.36 M207.75 41.47 C221.79 25.33, 235.82 9.18, 243.84 -0.04 M207.75 41.47 C219.85 27.55, 231.96 13.63, 243.84 -0.04 M213.4 41.08 C223.02 30, 232.64 18.93, 248.82 0.32 M213.4 41.08 C223.61 29.33, 233.82 17.58, 248.82 0.32 M218.38 41.44 C230.22 27.82, 242.06 14.2, 254.47 -0.07 M218.38 41.44 C226.38 32.24, 234.37 23.05, 254.47 -0.07 M224.03 41.04 C234.74 28.72, 245.45 16.4, 259.45 0.29 M224.03 41.04 C235.33 28.04, 246.64 15.03, 259.45 0.29 M229.01 41.4 C243.14 25.15, 257.27 8.89, 265.1 -0.11 M229.01 41.4 C241.41 27.14, 253.81 12.87, 265.1 -0.11 M234.66 41.01 C244.68 29.47, 254.71 17.94, 270.08 0.25 M234.66 41.01 C248.78 24.76, 262.91 8.51, 270.08 0.25 M239.64 41.37 C253.78 25.11, 267.91 8.85, 275.73 -0.14 M239.64 41.37 C250.16 29.27, 260.67 17.18, 275.73 -0.14 M245.29 40.97 C255.83 28.84, 266.37 16.71, 280.71 0.22 M245.29 40.97 C255.73 28.96, 266.17 16.95, 280.71 0.22 M250.27 41.33 C264.13 25.4, 277.98 9.46, 286.36 -0.18 M250.27 41.33 C261.47 28.45, 272.68 15.56, 286.36 -0.18 M255.92 40.94 C265.61 29.78, 275.31 18.63, 291.34 0.18 M255.92 40.94 C264.1 31.52, 272.29 22.1, 291.34 0.18 M260.9 41.3 C270.57 30.18, 280.24 19.05, 296.99 -0.21 M260.9 41.3 C271.83 28.72, 282.76 16.15, 296.99 -0.21 M266.55 40.9 C279.85 25.59, 293.16 10.28, 301.32 0.9 M266.55 40.9 C276.56 29.38, 286.58 17.86, 301.32 0.9 M271.53 41.26 C282.96 28.12, 294.38 14.98, 301.06 7.3 M271.53 41.26 C278.24 33.55, 284.94 25.84, 301.06 7.3 M277.18 40.87 C283 34.17, 288.82 27.48, 301.45 12.94 M277.18 40.87 C282.08 35.23, 286.98 29.59, 301.45 12.94 M282.16 41.23 C288.4 34.05, 294.65 26.87, 301.19 19.34 M282.16 41.23 C287.82 34.72, 293.49 28.2, 301.19 19.34 M287.81 40.83 C291.99 36.02, 296.18 31.21, 301.58 24.99 M287.81 40.83 C292.84 35.04, 297.87 29.25, 301.58 24.99 M292.79 41.19 C295.54 38.04, 298.28 34.88, 301.32 31.38 M292.79 41.19 C296.08 37.42, 299.36 33.64, 301.32 31.38 M298.44 40.8 C299.16 39.96, 299.89 39.13, 301.06 37.78 M298.44 40.8 C299.03 40.11, 299.63 39.43, 301.06 37.78" stroke="#15aabf" stroke-width="0.5" fill="none"></path><path d="M0 0 C62.53 0, 125.06 0, 300.29 0 M0 0 C110.75 0, 221.5 0, 300.29 0 M300.29 0 C300.29 10.66, 300.29 21.31, 300.29 40 M300.29 0 C300.29 9.21, 300.29 18.43, 300.29 40 M300.29 40 C188.92 40, 77.55 40, 0 40 M300.29 40 C232 40, 163.72 40, 0 40 M0 40 C0 30.34, 0 20.67, 0 0 M0 40 C0 31.77, 0 23.55, 0 0" stroke="#000000" stroke-width="1" fill="none"></path></g><g stroke-linecap="round" transform="translate(210 90) rotate(0 110 9.91306365966409)"><path d="M0 0 C0 0, 0 0, 0 0 M0 0 C0 0, 0 0, 0 0 M-0.26 6.4 C1.45 4.43, 3.17 2.45, 4.99 0.36 M-0.26 6.4 C1.64 4.21, 3.54 2.02, 4.99 0.36 M0.13 12.04 C3.02 8.72, 5.91 5.39, 10.63 -0.03 M0.13 12.04 C2.99 8.76, 5.84 5.47, 10.63 -0.03 M-0.13 18.44 C4.8 12.77, 9.73 7.1, 15.62 0.33 M-0.13 18.44 C5.43 12.05, 10.99 5.65, 15.62 0.33 M2.23 21.82 C6.46 16.96, 10.69 12.09, 21.26 -0.07 M2.23 21.82 C6.23 17.22, 10.23 12.62, 21.26 -0.07 M7.88 21.42 C12.48 16.13, 17.08 10.84, 26.25 0.29 M7.88 21.42 C12.5 16.11, 17.12 10.79, 26.25 0.29 M12.86 21.78 C18.09 15.77, 23.32 9.76, 31.89 -0.1 M12.86 21.78 C19.05 14.66, 25.24 7.54, 31.89 -0.1 M17.85 22.14 C24.75 14.21, 31.65 6.27, 36.88 0.26 M17.85 22.14 C24.65 14.32, 31.45 6.5, 36.88 0.26 M23.49 21.75 C29.87 14.41, 36.25 7.08, 42.52 -0.14 M23.49 21.75 C30.9 13.23, 38.3 4.72, 42.52 -0.14 M28.48 22.11 C34.75 14.89, 41.02 7.68, 47.51 0.22 M28.48 22.11 C32.55 17.42, 36.63 12.74, 47.51 0.22 M34.12 21.71 C41.01 13.8, 47.89 5.88, 53.15 -0.17 M34.12 21.71 C38.24 16.98, 42.36 12.24, 53.15 -0.17 M39.11 22.07 C44.59 15.77, 50.07 9.47, 58.14 0.19 M39.11 22.07 C43.07 17.52, 47.04 12.96, 58.14 0.19 M44.75 21.68 C51.77 13.61, 58.79 5.54, 63.78 -0.21 M44.75 21.68 C49.82 15.85, 54.89 10.02, 63.78 -0.21 M49.74 22.04 C54.12 17, 58.51 11.96, 68.77 0.15 M49.74 22.04 C56.8 13.92, 63.85 5.81, 68.77 0.15 M55.38 21.65 C59.71 16.67, 64.04 11.69, 74.41 -0.24 M55.38 21.65 C59.98 16.36, 64.58 11.07, 74.41 -0.24 M60.37 22.01 C64.28 17.5, 68.2 13, 79.4 0.12 M60.37 22.01 C67.53 13.77, 74.69 5.53, 79.4 0.12 M66.02 21.61 C71.05 15.82, 76.08 10.03, 85.04 -0.28 M66.02 21.61 C71.5 15.3, 76.99 8.99, 85.04 -0.28 M71 21.97 C77.07 14.99, 83.14 8, 90.03 0.08 M71 21.97 C77.53 14.46, 84.06 6.95, 90.03 0.08 M76.65 21.58 C81.66 15.81, 86.67 10.05, 95.67 -0.31 M76.65 21.58 C84.19 12.89, 91.74 4.21, 95.67 -0.31 M81.63 21.94 C87.95 14.67, 94.27 7.4, 100.66 0.05 M81.63 21.94 C86.07 16.84, 90.5 11.73, 100.66 0.05 M87.28 21.54 C92.29 15.77, 97.3 10.01, 106.3 -0.34 M87.28 21.54 C91.1 17.15, 94.92 12.75, 106.3 -0.34 M92.26 21.9 C97.25 16.16, 102.24 10.42, 111.29 0.02 M92.26 21.9 C97.06 16.39, 101.85 10.87, 111.29 0.02 M97.91 21.51 C104.53 13.88, 111.16 6.25, 116.27 0.38 M97.91 21.51 C104.85 13.52, 111.8 5.52, 116.27 0.38 M102.89 21.87 C110.19 13.47, 117.48 5.08, 121.92 -0.02 M102.89 21.87 C107.63 16.41, 112.38 10.96, 121.92 -0.02 M108.54 21.47 C114.18 14.98, 119.83 8.48, 126.91 0.34 M108.54 21.47 C113.13 16.19, 117.72 10.9, 126.91 0.34 M113.52 21.83 C117.82 16.88, 122.13 11.93, 132.55 -0.05 M113.52 21.83 C119.58 14.87, 125.64 7.9, 132.55 -0.05 M119.17 21.44 C124.89 14.86, 130.61 8.27, 137.54 0.31 M119.17 21.44 C126.18 13.37, 133.19 5.3, 137.54 0.31 M124.15 21.8 C131.32 13.56, 138.48 5.32, 143.18 -0.09 M124.15 21.8 C131.69 13.13, 139.23 4.46, 143.18 -0.09 M129.14 22.16 C133.66 16.96, 138.18 11.76, 148.17 0.27 M129.14 22.16 C136.41 13.79, 143.68 5.43, 148.17 0.27 M134.78 21.76 C140.06 15.7, 145.33 9.63, 153.81 -0.12 M134.78 21.76 C139.79 16, 144.81 10.23, 153.81 -0.12 M139.77 22.12 C143.7 17.6, 147.63 13.08, 158.8 0.24 M139.77 22.12 C145.55 15.47, 151.33 8.83, 158.8 0.24 M145.41 21.73 C149.74 16.75, 154.06 11.78, 164.44 -0.16 M145.41 21.73 C151.97 14.18, 158.53 6.64, 164.44 -0.16 M150.4 22.09 C157.92 13.44, 165.44 4.78, 169.43 0.2 M150.4 22.09 C155.03 16.77, 159.65 11.45, 169.43 0.2 M156.04 21.69 C163.31 13.33, 170.58 4.97, 175.07 -0.19 M156.04 21.69 C161.91 14.95, 167.78 8.2, 175.07 -0.19 M161.03 22.05 C165.55 16.86, 170.06 11.66, 180.06 0.17 M161.03 22.05 C167.5 14.61, 173.98 7.16, 180.06 0.17 M166.67 21.66 C173.38 13.94, 180.09 6.23, 185.7 -0.23 M166.67 21.66 C171.74 15.83, 176.8 10.01, 185.7 -0.23 M171.66 22.02 C175.89 17.16, 180.11 12.29, 190.69 0.13 M171.66 22.02 C178.87 13.72, 186.08 5.43, 190.69 0.13 M177.3 21.63 C181.24 17.1, 185.17 12.57, 196.33 -0.26 M177.3 21.63 C184.42 13.44, 191.54 5.25, 196.33 -0.26 M182.29 21.99 C187.91 15.52, 193.54 9.05, 201.32 0.1 M182.29 21.99 C189.66 13.51, 197.02 5.04, 201.32 0.1 M187.93 21.59 C193.04 15.71, 198.15 9.84, 206.96 -0.3 M187.93 21.59 C192.34 16.52, 196.75 11.45, 206.96 -0.3 M192.92 21.95 C197.86 16.27, 202.79 10.59, 211.95 0.06 M192.92 21.95 C197.41 16.78, 201.9 11.62, 211.95 0.06 M198.56 21.56 C204.61 14.6, 210.66 7.64, 217.59 -0.33 M198.56 21.56 C203.93 15.39, 209.29 9.22, 217.59 -0.33 M203.55 21.92 C210.15 14.33, 216.74 6.74, 221.26 1.54 M203.55 21.92 C207.82 17.01, 212.08 12.1, 221.26 1.54 M209.19 21.52 C214.07 15.91, 218.96 10.29, 221.66 7.18 M209.19 21.52 C211.84 18.48, 214.48 15.44, 221.66 7.18 M214.18 21.88 C216.7 18.99, 219.21 16.09, 221.4 13.58 M214.18 21.88 C216.78 18.89, 219.38 15.9, 221.4 13.58 M-0.01 19.82 C-0.01 19.82, -0.01 19.82, -0.01 19.82 M-0.01 19.82 C-0.01 19.82, -0.01 19.82, -0.01 19.82 M6.39 20.08 C4.22 18.2, 2.06 16.31, 0.35 14.83 M6.39 20.08 C3.99 18, 1.6 15.91, 0.35 14.83 M12.04 19.69 C9.16 17.19, 6.28 14.69, -0.04 9.19 M12.04 19.69 C8.67 16.76, 5.31 13.84, -0.04 9.19 M18.43 19.95 C14.25 16.31, 10.06 12.67, 0.32 4.2 M18.43 19.95 C11.23 13.69, 4.02 7.42, 0.32 4.2 M24.08 19.56 C15.53 12.12, 6.98 4.69, 0.68 -0.78 M24.08 19.56 C19.21 15.33, 14.35 11.1, 0.68 -0.78 M30.47 19.82 C24.68 14.78, 18.89 9.75, 7.08 -0.52 M30.47 19.82 C24.57 14.69, 18.67 9.55, 7.08 -0.52 M36.87 20.08 C31.44 15.36, 26.01 10.64, 12.72 -0.92 M36.87 20.08 C31.98 15.83, 27.09 11.58, 12.72 -0.92 M42.51 19.68 C34.37 12.6, 26.23 5.52, 19.12 -0.65 M42.51 19.68 C35.62 13.69, 28.73 7.7, 19.12 -0.65 M48.91 19.94 C40.84 12.93, 32.77 5.91, 24.76 -1.05 M48.91 19.94 C40.02 12.22, 31.13 4.49, 24.76 -1.05 M54.56 19.55 C46.87 12.87, 39.17 6.18, 31.16 -0.79 M54.56 19.55 C47.48 13.4, 40.41 7.25, 31.16 -0.79 M60.95 19.81 C54.69 14.37, 48.43 8.92, 37.56 -0.53 M60.95 19.81 C55 14.64, 49.04 9.46, 37.56 -0.53 M67.35 20.07 C61.52 15.01, 55.7 9.94, 43.2 -0.92 M67.35 20.07 C60.18 13.84, 53.01 7.6, 43.2 -0.92 M72.99 19.68 C67.02 14.49, 61.05 9.29, 49.6 -0.66 M72.99 19.68 C67.03 14.5, 61.07 9.31, 49.6 -0.66 M79.39 19.94 C69.87 11.66, 60.35 3.39, 55.24 -1.05 M79.39 19.94 C71.1 12.73, 62.8 5.52, 55.24 -1.05 M85.04 19.55 C76.06 11.75, 67.09 3.95, 61.64 -0.79 M85.04 19.55 C80.21 15.36, 75.39 11.16, 61.64 -0.79 M91.43 19.81 C83.2 12.65, 74.96 5.49, 68.04 -0.53 M91.43 19.81 C83.22 12.67, 75.02 5.54, 68.04 -0.53 M97.83 20.07 C88.3 11.78, 78.76 3.49, 73.68 -0.93 M97.83 20.07 C88.44 11.9, 79.04 3.74, 73.68 -0.93 M103.47 19.67 C95.63 12.85, 87.78 6.03, 80.08 -0.66 M103.47 19.67 C97.12 14.15, 90.76 8.62, 80.08 -0.66 M109.87 19.94 C102.91 13.88, 95.95 7.83, 85.72 -1.06 M109.87 19.94 C101.95 13.05, 94.03 6.16, 85.72 -1.06 M115.51 19.54 C110.33 15.04, 105.15 10.53, 92.12 -0.8 M115.51 19.54 C108.44 13.39, 101.37 7.24, 92.12 -0.8 M121.91 19.8 C114.45 13.31, 106.98 6.82, 98.52 -0.54 M121.91 19.8 C112.75 11.84, 103.59 3.87, 98.52 -0.54 M128.31 20.06 C120.01 12.85, 111.71 5.63, 104.16 -0.93 M128.31 20.06 C121.47 14.12, 114.64 8.18, 104.16 -0.93 M133.95 19.67 C124.63 11.56, 115.3 3.45, 110.56 -0.67 M133.95 19.67 C124.79 11.7, 115.63 3.74, 110.56 -0.67 M140.35 19.93 C133.31 13.81, 126.28 7.7, 116.2 -1.06 M140.35 19.93 C133.16 13.68, 125.98 7.43, 116.2 -1.06 M145.99 19.54 C139.1 13.54, 132.2 7.55, 122.6 -0.8 M145.99 19.54 C137.01 11.73, 128.03 3.92, 122.6 -0.8 M152.39 19.8 C145.13 13.48, 137.87 7.17, 129 -0.54 M152.39 19.8 C145.99 14.23, 139.58 8.66, 129 -0.54 M158.79 20.06 C153.21 15.21, 147.63 10.36, 134.64 -0.94 M158.79 20.06 C152.32 14.43, 145.85 8.81, 134.64 -0.94 M164.43 19.66 C157.35 13.5, 150.26 7.34, 141.04 -0.67 M164.43 19.66 C155.48 11.88, 146.52 4.1, 141.04 -0.67 M170.83 19.93 C163.88 13.88, 156.92 7.83, 146.68 -1.07 M170.83 19.93 C161.49 11.8, 152.14 3.68, 146.68 -1.07 M176.47 19.53 C171.16 14.91, 165.85 10.29, 153.08 -0.81 M176.47 19.53 C170.86 14.65, 165.25 9.78, 153.08 -0.81 M182.87 19.79 C178.15 15.69, 173.43 11.58, 159.48 -0.55 M182.87 19.79 C175.2 13.12, 167.52 6.45, 159.48 -0.55 M189.27 20.05 C182.08 13.81, 174.9 7.56, 165.12 -0.94 M189.27 20.05 C181.93 13.68, 174.6 7.3, 165.12 -0.94 M194.91 19.66 C186.36 12.23, 177.81 4.8, 171.52 -0.68 M194.91 19.66 C187.38 13.11, 179.85 6.57, 171.52 -0.68 M201.31 19.92 C192.01 11.84, 182.71 3.75, 177.16 -1.07 M201.31 19.92 C194.61 14.1, 187.91 8.28, 177.16 -1.07 M206.95 19.53 C201.63 14.9, 196.31 10.27, 183.56 -0.81 M206.95 19.53 C201.27 14.58, 195.58 9.64, 183.56 -0.81 M213.35 19.79 C208.28 15.38, 203.21 10.97, 189.96 -0.55 M213.35 19.79 C206.17 13.55, 198.99 7.31, 189.96 -0.55 M219.75 20.05 C212.67 13.89, 205.58 7.74, 195.6 -0.94 M219.75 20.05 C214.69 15.65, 209.62 11.25, 195.6 -0.94 M222.37 17.03 C214.71 10.37, 207.06 3.72, 202 -0.68 M222.37 17.03 C214.58 10.26, 206.79 3.48, 202 -0.68 M222.73 12.04 C217.84 7.79, 212.95 3.53, 207.64 -1.08 M222.73 12.04 C216.94 7.01, 211.14 1.97, 207.64 -1.08 M222.34 6.4 C219.83 4.22, 217.33 2.04, 214.04 -0.82 M222.34 6.4 C219.53 3.96, 216.73 1.52, 214.04 -0.82" stroke="#fd7e14" stroke-width="0.5" fill="none"></path><path d="M0 0 C64.31 0, 128.63 0, 220 0 M0 0 C57.88 0, 115.76 0, 220 0 M220 0 C220 7.76, 220 15.52, 220 19.83 M220 0 C220 6.44, 220 12.89, 220 19.83 M220 19.83 C138.2 19.83, 56.41 19.83, 0 19.83 M220 19.83 C162.68 19.83, 105.36 19.83, 0 19.83 M0 19.83 C0 13.42, 0 7.01, 0 0 M0 19.83 C0 15.39, 0 10.96, 0 0" stroke="#000000" stroke-width="1" fill="none"></path></g><g stroke-linecap="round" transform="translate(210 116) rotate(0 40.29200509463408 10)"><path d="M0 0 C0 0, 0 0, 0 0 M0 0 C0 0, 0 0, 0 0 M-0.26 6.4 C1.63 4.22, 3.52 2.05, 4.99 0.36 M-0.26 6.4 C1.84 3.98, 3.94 1.57, 4.99 0.36 M0.13 12.04 C2.91 8.84, 5.69 5.65, 10.63 -0.03 M0.13 12.04 C2.48 9.34, 4.82 6.65, 10.63 -0.03 M-0.13 18.44 C5.95 11.44, 12.04 4.44, 15.62 0.33 M-0.13 18.44 C4.85 12.71, 9.83 6.98, 15.62 0.33 M2.23 21.82 C7.97 15.22, 13.7 8.63, 21.26 -0.07 M2.23 21.82 C7.69 15.54, 13.14 9.27, 21.26 -0.07 M7.22 22.18 C11.53 17.22, 15.84 12.26, 26.25 0.29 M7.22 22.18 C13.56 14.88, 19.9 7.59, 26.25 0.29 M12.86 21.78 C17.75 16.16, 22.64 10.54, 31.89 -0.1 M12.86 21.78 C16.83 17.22, 20.8 12.65, 31.89 -0.1 M17.85 22.14 C21.7 17.72, 25.54 13.3, 36.88 0.26 M17.85 22.14 C25.1 13.81, 32.35 5.47, 36.88 0.26 M23.49 21.75 C27.77 16.83, 32.05 11.91, 42.52 -0.14 M23.49 21.75 C31.05 13.05, 38.62 4.35, 42.52 -0.14 M28.48 22.11 C33.77 16.02, 39.06 9.94, 47.51 0.22 M28.48 22.11 C33.16 16.73, 37.83 11.35, 47.51 0.22 M34.12 21.71 C40.63 14.23, 47.14 6.74, 53.15 -0.17 M34.12 21.71 C40.17 14.76, 46.21 7.81, 53.15 -0.17 M39.11 22.07 C44.12 16.32, 49.12 10.56, 58.14 0.19 M39.11 22.07 C46.16 13.97, 53.2 5.87, 58.14 0.19 M44.75 21.68 C52.17 13.15, 59.58 4.63, 63.78 -0.21 M44.75 21.68 C50.27 15.33, 55.79 8.99, 63.78 -0.21 M49.74 22.04 C53.74 17.44, 57.74 12.84, 68.77 0.15 M49.74 22.04 C54.57 16.49, 59.39 10.94, 68.77 0.15 M55.38 21.65 C62.84 13.07, 70.29 4.5, 74.41 -0.24 M55.38 21.65 C60.93 15.26, 66.48 8.88, 74.41 -0.24 M60.37 22.01 C64.47 17.29, 68.58 12.57, 79.4 0.12 M60.37 22.01 C65.14 16.52, 69.91 11.03, 79.4 0.12 M66.02 21.61 C69.71 17.36, 73.4 13.11, 83.07 1.99 M66.02 21.61 C72.09 14.63, 78.16 7.64, 83.07 1.99 M71 21.97 C73.59 18.99, 76.18 16.01, 82.81 8.39 M71 21.97 C75.41 16.9, 79.82 11.83, 82.81 8.39 M76.65 21.58 C79.12 18.73, 81.58 15.89, 83.21 14.03 M76.65 21.58 C79.09 18.77, 81.53 15.96, 83.21 14.03 M-0.09 19.92 C-0.09 19.92, -0.09 19.92, -0.09 19.92 M-0.09 19.92 C-0.09 19.92, -0.09 19.92, -0.09 19.92 M6.31 20.18 C4.94 18.99, 3.56 17.8, 0.27 14.93 M6.31 20.18 C4.58 18.68, 2.85 17.17, 0.27 14.93 M11.95 19.79 C9.51 17.67, 7.08 15.55, -0.13 9.29 M11.95 19.79 C8.07 16.42, 4.19 13.05, -0.13 9.29 M18.35 20.05 C11.69 14.26, 5.02 8.47, 0.23 4.3 M18.35 20.05 C12.9 15.31, 7.45 10.57, 0.23 4.3 M24.74 20.31 C18.01 14.45, 11.27 8.59, 0.59 -0.68 M24.74 20.31 C18.69 15.05, 12.64 9.79, 0.59 -0.68 M30.39 19.92 C24.73 15, 19.07 10.07, 6.99 -0.42 M30.39 19.92 C23.99 14.35, 17.59 8.79, 6.99 -0.42 M36.79 20.18 C28.26 12.77, 19.74 5.36, 12.64 -0.82 M36.79 20.18 C29.21 13.59, 21.64 7.01, 12.64 -0.82 M42.43 19.78 C34.55 12.94, 26.68 6.09, 19.03 -0.56 M42.43 19.78 C34.97 13.3, 27.51 6.81, 19.03 -0.56 M48.83 20.04 C39.59 12.02, 30.36 3.99, 24.68 -0.95 M48.83 20.04 C43.93 15.79, 39.03 11.53, 24.68 -0.95 M55.22 20.31 C45.99 12.28, 36.75 4.25, 31.07 -0.69 M55.22 20.31 C50.2 15.94, 45.18 11.58, 31.07 -0.69 M60.87 19.91 C52.22 12.39, 43.57 4.88, 37.47 -0.43 M60.87 19.91 C54.62 14.48, 48.37 9.04, 37.47 -0.43 M67.27 20.17 C58.72 12.74, 50.17 5.31, 43.11 -0.82 M67.27 20.17 C58.39 12.46, 49.51 4.74, 43.11 -0.82 M72.91 19.78 C64.46 12.43, 56 5.08, 49.51 -0.56 M72.91 19.78 C65.61 13.44, 58.32 7.09, 49.51 -0.56 M79.31 20.04 C72.8 14.38, 66.28 8.72, 55.16 -0.95 M79.31 20.04 C72.51 14.13, 65.72 8.23, 55.16 -0.95 M82.69 17.68 C77.46 13.13, 72.22 8.58, 61.55 -0.69 M82.69 17.68 C74.27 10.36, 65.86 3.05, 61.55 -0.69 M82.29 12.03 C76.68 7.16, 71.07 2.28, 67.95 -0.43 M82.29 12.03 C78.15 8.44, 74.02 4.84, 67.95 -0.43 M82.65 7.05 C79.37 4.2, 76.09 1.34, 73.59 -0.83 M82.65 7.05 C80.44 5.13, 78.23 3.21, 73.59 -0.83" stroke="#fd7e14" stroke-width="0.5" fill="none"></path><path d="M0 0 C31.71 0, 63.41 0, 80.58 0 M0 0 C27.85 0, 55.7 0, 80.58 0 M80.58 0 C80.58 5.64, 80.58 11.28, 80.58 20 M80.58 0 C80.58 4.58, 80.58 9.16, 80.58 20 M80.58 20 C48.77 20, 16.96 20, 0 20 M80.58 20 C54.76 20, 28.93 20, 0 20 M0 20 C0 14.6, 0 9.21, 0 0 M0 20 C0 13.8, 0 7.6, 0 0" stroke="#000000" stroke-width="1" fill="none"></path></g><g transform="translate(151.1478830656779 430.25449959253865) rotate(0 167.63635808771278 -2.772718949751379)" stroke="none"><path fill="transparent" d="M 0,-1.56 Q 0,-1.56 2.09,-1.53 4.18,-1.51 6.68,-1.69 9.18,-1.87 12.40,-1.94 15.62,-2.01 19.49,-2.03 23.37,-2.06 27.31,-2.06 31.25,-2.07 34.39,-2.07 37.53,-2.07 41.13,-2.27 44.73,-2.48 48.17,-2.56 51.62,-2.65 54.13,-2.69 56.64,-2.72 59.38,-2.74 62.12,-2.75 66.01,-2.76 69.89,-2.76 74.05,-2.76 78.21,-2.76 82.91,-2.76 87.60,-2.77 92.31,-2.77 97.03,-2.77 101.96,-2.76 106.89,-2.76 110.45,-2.76 114.01,-2.76 116.56,-2.76 119.12,-2.76 121.12,-2.59 123.12,-2.42 124.84,-2.19 126.55,-1.96 128.59,-1.99 130.63,-2.02 141.53,-2.33 152.43,-2.64 163.39,-2.75 174.35,-2.85 183.58,-3.09 192.82,-3.32 202.40,-3.61 211.97,-3.91 220.83,-4.44 229.69,-4.97 235.99,-5.19 242.29,-5.41 247.24,-5.71 252.20,-6.01 256.63,-6.13 261.07,-6.25 264.59,-6.51 268.10,-6.77 271.05,-7.08 274.00,-7.40 276.34,-7.53 278.69,-7.67 280.31,-7.82 281.93,-7.97 283.25,-8.10 284.58,-8.23 285.76,-8.11 286.94,-7.99 288.58,-7.72 290.23,-7.44 292.00,-7.10 293.76,-6.76 295.65,-6.58 297.53,-6.40 299.19,-6.37 300.84,-6.33 301.97,-6.39 303.09,-6.44 304.19,-6.50 305.29,-6.56 307.17,-6.68 309.06,-6.79 310.32,-6.81 311.59,-6.84 312.97,-6.64 314.36,-6.44 315.82,-6.41 317.28,-6.38 318.68,-6.35 320.08,-6.31 321.31,-6.31 322.54,-6.32 323.69,-6.33 324.84,-6.34 326.91,-6.15 328.98,-5.95 330.35,-5.36 331.73,-4.78 333.51,-4.25 335.30,-3.73 335.71,-3.52 336.13,-3.31 336.45,-2.97 336.78,-2.64 336.98,-2.22 337.18,-1.81 337.24,-1.34 337.30,-0.88 337.21,-0.43 337.12,0.02 336.88,0.42 336.65,0.82 336.30,1.13 335.95,1.44 335.52,1.62 335.09,1.80 334.63,1.83 334.17,1.86 333.72,1.75 333.27,1.63 332.88,1.38 332.49,1.12 332.20,0.76 331.91,0.39 331.76,-0.04 331.60,-0.48 331.59,-0.94 331.58,-1.40 331.72,-1.85 331.87,-2.29 332.14,-2.67 332.42,-3.04 332.80,-3.31 333.18,-3.58 333.62,-3.71 334.07,-3.84 334.53,-3.82 335.00,-3.81 335.43,-3.64 335.87,-3.48 336.23,-3.18 336.59,-2.89 336.83,-2.49 337.08,-2.10 337.19,-1.65 337.29,-1.19 337.25,-0.73 337.21,-0.27 337.02,0.15 336.83,0.57 336.52,0.92 336.21,1.26 335.80,1.48 335.39,1.71 334.93,1.79 334.48,1.87 334.02,1.81 333.56,1.74 333.56,1.74 333.56,1.74 331.53,1.05 329.51,0.37 328.53,-0.05 327.54,-0.48 326.19,-0.70 324.83,-0.93 323.67,-0.95 322.51,-0.97 321.27,-0.98 320.02,-1.00 317.50,-1.08 314.99,-1.15 313.28,-1.52 311.57,-1.88 310.31,-1.91 309.05,-1.93 307.15,-2.06 305.24,-2.19 304.12,-2.27 303.00,-2.35 301.85,-2.46 300.71,-2.56 298.99,-2.65 297.27,-2.74 295.16,-2.84 293.04,-2.95 291.30,-3.27 289.55,-3.60 287.09,-4.19 284.63,-4.78 283.33,-4.86 282.04,-4.94 280.44,-4.97 278.84,-5.01 276.57,-4.87 274.29,-4.73 271.30,-4.40 268.31,-4.08 264.73,-3.80 261.15,-3.53 256.76,-3.39 252.37,-3.25 247.38,-2.93 242.40,-2.60 236.13,-2.35 229.87,-2.09 220.97,-1.51 212.07,-0.93 202.49,-0.57 192.92,-0.20 183.66,0.11 174.40,0.44 163.48,0.67 152.56,0.90 141.51,1.38 130.46,1.86 128.23,1.47 126.00,1.08 124.41,0.72 122.82,0.35 120.97,0.10 119.12,-0.14 116.56,-0.13 114.01,-0.13 110.45,-0.13 106.89,-0.13 101.96,-0.13 97.03,-0.13 92.31,-0.13 87.60,-0.13 82.91,-0.13 78.21,-0.13 74.05,-0.12 69.90,-0.12 66.02,-0.11 62.14,-0.10 59.41,-0.08 56.68,-0.06 54.19,-0.02 51.69,0.01 48.29,0.10 44.88,0.19 41.21,0.41 37.54,0.63 34.40,0.65 31.27,0.66 27.33,0.69 23.39,0.71 19.55,0.77 15.70,0.82 12.56,0.92 9.42,1.03 6.80,1.27 4.18,1.51 2.09,1.53 0,1.56 -0.18,1.54 -0.37,1.51 -0.55,1.45 -0.72,1.38 -0.88,1.27 -1.03,1.17 -1.16,1.03 -1.28,0.88 -1.37,0.72 -1.46,0.55 -1.50,0.37 -1.55,0.18 -1.55,-0.00 -1.55,-0.18 -1.50,-0.37 -1.46,-0.55 -1.37,-0.72 -1.28,-0.88 -1.16,-1.03 -1.03,-1.17 -0.88,-1.27 -0.72,-1.38 -0.55,-1.45 -0.37,-1.51 -0.18,-1.54 0.00,-1.56 0.00,-1.56 L 0,-1.56 Z"></path></g><g stroke-linecap="round"><g transform="translate(150.87549045309424 430) rotate(0 170.4172464891492 -0.506959784215951)"><path d="M0.6 -0.29 C70.29 -0.51, 140.92 -1.56, 340.61 -0.51 M0.23 -0.32 C88.49 -0.93, 176.6 0.12, 339.88 -0.07" stroke="#000000" stroke-width="1" fill="none"></path></g></g><g stroke-linecap="round"><g transform="translate(490.87549045309424 430) rotate(0 -0.6676401504819296 49.531889929599174)"><path d="M0.54 -0.26 C0.35 16.4, -0.33 83.87, -0.56 100.51 M-0.64 -1.44 C-1.09 14.8, -2.18 81.64, -1.8 98.65" stroke="#000000" stroke-width="1" fill="none"></path></g></g><g stroke-linecap="round"><g transform="translate(150.87549045309424 430) rotate(0 0.24693532101809978 39.52990347892046)"><path d="M0.84 -1.37 C-0.91 28.49, -0.93 54.35, 1.37 80.43 M-0.67 0.3 C0.53 26.54, -0.48 54.07, -0.88 79.2" stroke="#000000" stroke-width="1" fill="none"></path></g></g><g stroke-linecap="round" transform="translate(210 178) rotate(0 110.29200509463408 9.91306365966409)"><path d="M0 0 C0 0, 0 0, 0 0 M0 0 C0 0, 0 0, 0 0 M-0.26 6.4 C1.67 4.17, 3.6 1.95, 4.99 0.36 M-0.26 6.4 C1.23 4.69, 2.71 2.98, 4.99 0.36 M0.13 12.04 C3.11 8.61, 6.09 5.19, 10.63 -0.03 M0.13 12.04 C2.4 9.43, 4.67 6.83, 10.63 -0.03 M-0.13 18.44 C4.32 13.33, 8.76 8.21, 15.62 0.33 M-0.13 18.44 C5.95 11.45, 12.03 4.45, 15.62 0.33 M2.23 21.82 C8.19 14.97, 14.14 8.13, 21.26 -0.07 M2.23 21.82 C7.12 16.2, 12 10.58, 21.26 -0.07 M7.88 21.42 C14.14 14.22, 20.39 7.02, 26.25 0.29 M7.88 21.42 C14.19 14.16, 20.5 6.9, 26.25 0.29 M12.86 21.78 C18.76 15, 24.65 8.22, 31.89 -0.1 M12.86 21.78 C17.68 16.25, 22.49 10.71, 31.89 -0.1 M17.85 22.14 C23.65 15.47, 29.45 8.8, 36.88 0.26 M17.85 22.14 C23.91 15.18, 29.96 8.21, 36.88 0.26 M23.49 21.75 C29.48 14.87, 35.46 7.99, 42.52 -0.14 M23.49 21.75 C28.03 16.53, 32.57 11.31, 42.52 -0.14 M28.48 22.11 C35.95 13.52, 43.42 4.92, 47.51 0.22 M28.48 22.11 C34.49 15.2, 40.49 8.3, 47.51 0.22 M34.12 21.71 C38.36 16.85, 42.59 11.98, 53.15 -0.17 M34.12 21.71 C39.66 15.34, 45.2 8.97, 53.15 -0.17 M39.11 22.07 C44.39 16, 49.68 9.92, 58.14 0.19 M39.11 22.07 C46.44 13.65, 53.76 5.22, 58.14 0.19 M44.75 21.68 C52.1 13.24, 59.44 4.79, 63.78 -0.21 M44.75 21.68 C51.07 14.41, 57.39 7.14, 63.78 -0.21 M49.74 22.04 C55.26 15.69, 60.79 9.33, 68.77 0.15 M49.74 22.04 C53.93 17.22, 58.12 12.41, 68.77 0.15 M55.38 21.65 C59.44 16.98, 63.49 12.32, 74.41 -0.24 M55.38 21.65 C61.6 14.5, 67.81 7.35, 74.41 -0.24 M60.37 22.01 C64.5 17.26, 68.63 12.51, 79.4 0.12 M60.37 22.01 C67.17 14.18, 73.98 6.35, 79.4 0.12 M66.02 21.61 C73.03 13.55, 80.04 5.48, 85.04 -0.28 M66.02 21.61 C71.41 15.4, 76.8 9.2, 85.04 -0.28 M71 21.97 C76.71 15.4, 82.43 8.83, 90.03 0.08 M71 21.97 C78.2 13.69, 85.4 5.41, 90.03 0.08 M76.65 21.58 C83.74 13.41, 90.84 5.25, 95.67 -0.31 M76.65 21.58 C81.51 15.98, 86.37 10.39, 95.67 -0.31 M81.63 21.94 C86.18 16.7, 90.73 11.47, 100.66 0.05 M81.63 21.94 C87.47 15.22, 93.3 8.51, 100.66 0.05 M87.28 21.54 C91.15 17.08, 95.03 12.62, 106.3 -0.34 M87.28 21.54 C93.72 14.13, 100.17 6.71, 106.3 -0.34 M92.26 21.9 C99.66 13.39, 107.06 4.88, 111.29 0.02 M92.26 21.9 C96.28 17.28, 100.3 12.65, 111.29 0.02 M97.91 21.51 C103.31 15.29, 108.71 9.08, 116.27 0.38 M97.91 21.51 C102.93 15.72, 107.96 9.94, 116.27 0.38 M102.89 21.87 C109.75 13.97, 116.61 6.08, 121.92 -0.02 M102.89 21.87 C106.77 17.41, 110.65 12.95, 121.92 -0.02 M108.54 21.47 C114.66 14.43, 120.78 7.39, 126.91 0.34 M108.54 21.47 C113.02 16.31, 117.5 11.16, 126.91 0.34 M113.52 21.83 C117.75 16.97, 121.98 12.1, 132.55 -0.05 M113.52 21.83 C118.09 16.58, 122.66 11.32, 132.55 -0.05 M119.17 21.44 C124.07 15.79, 128.98 10.15, 137.54 0.31 M119.17 21.44 C124.26 15.57, 129.36 9.71, 137.54 0.31 M124.15 21.8 C129.82 15.28, 135.49 8.76, 143.18 -0.09 M124.15 21.8 C130.24 14.8, 136.32 7.8, 143.18 -0.09 M129.14 22.16 C134.81 15.64, 140.48 9.11, 148.17 0.27 M129.14 22.16 C133.81 16.79, 138.48 11.41, 148.17 0.27 M134.78 21.76 C141.77 13.72, 148.76 5.68, 153.81 -0.12 M134.78 21.76 C140.22 15.5, 145.67 9.24, 153.81 -0.12 M139.77 22.12 C145.17 15.91, 150.58 9.69, 158.8 0.24 M139.77 22.12 C144.77 16.37, 149.78 10.61, 158.8 0.24 M145.41 21.73 C150.5 15.88, 155.58 10.03, 164.44 -0.16 M145.41 21.73 C149.71 16.79, 154 11.84, 164.44 -0.16 M150.4 22.09 C156.86 14.65, 163.33 7.22, 169.43 0.2 M150.4 22.09 C155.9 15.76, 161.4 9.44, 169.43 0.2 M156.04 21.69 C161.56 15.34, 167.08 8.99, 175.07 -0.19 M156.04 21.69 C161.18 15.79, 166.31 9.88, 175.07 -0.19 M161.03 22.05 C165.52 16.89, 170.01 11.73, 180.06 0.17 M161.03 22.05 C167.24 14.92, 173.44 7.78, 180.06 0.17 M166.67 21.66 C174 13.23, 181.33 4.8, 185.7 -0.23 M166.67 21.66 C174.15 13.06, 181.63 4.46, 185.7 -0.23 M171.66 22.02 C179.26 13.27, 186.87 4.53, 190.69 0.13 M171.66 22.02 C175.86 17.19, 180.06 12.35, 190.69 0.13 M177.3 21.63 C184.1 13.81, 190.9 5.99, 196.33 -0.26 M177.3 21.63 C181.36 16.96, 185.41 12.3, 196.33 -0.26 M182.29 21.99 C188.27 15.11, 194.25 8.23, 201.32 0.1 M182.29 21.99 C187.3 16.23, 192.3 10.47, 201.32 0.1 M187.93 21.59 C193.03 15.73, 198.13 9.86, 206.96 -0.3 M187.93 21.59 C195.4 13, 202.86 4.42, 206.96 -0.3 M192.92 21.95 C198.99 14.96, 205.07 7.98, 211.95 0.06 M192.92 21.95 C200.28 13.48, 207.65 5.01, 211.95 0.06 M198.56 21.56 C203.03 16.41, 207.51 11.27, 217.59 -0.33 M198.56 21.56 C203.06 16.38, 207.56 11.21, 217.59 -0.33 M203.55 21.92 C207.42 17.47, 211.28 13.02, 221.92 0.79 M203.55 21.92 C210.35 14.1, 217.15 6.28, 221.92 0.79 M209.19 21.52 C212.09 18.19, 214.98 14.86, 221.66 7.18 M209.19 21.52 C212.87 17.29, 216.55 13.06, 221.66 7.18 M214.18 21.88 C216.07 19.71, 217.96 17.54, 222.05 12.83 M214.18 21.88 C216.02 19.77, 217.86 17.65, 222.05 12.83 M-0.01 19.82 C-0.01 19.82, -0.01 19.82, -0.01 19.82 M-0.01 19.82 C-0.01 19.82, -0.01 19.82, -0.01 19.82 M6.39 20.08 C4.48 18.42, 2.58 16.77, 0.35 14.83 M6.39 20.08 C4.93 18.81, 3.46 17.53, 0.35 14.83 M12.04 19.69 C8.48 16.6, 4.93 13.51, -0.04 9.19 M12.04 19.69 C8.75 16.83, 5.46 13.98, -0.04 9.19 M18.43 19.95 C14.75 16.75, 11.07 13.55, 0.32 4.2 M18.43 19.95 C12.87 15.12, 7.32 10.29, 0.32 4.2 M24.08 19.56 C15 11.66, 5.92 3.77, 0.68 -0.78 M24.08 19.56 C16.86 13.28, 9.64 7.01, 0.68 -0.78 M30.47 19.82 C22.93 13.26, 15.4 6.71, 7.08 -0.52 M30.47 19.82 C21.63 12.13, 12.79 4.44, 7.08 -0.52 M36.87 20.08 C27.93 12.3, 18.99 4.53, 12.72 -0.92 M36.87 20.08 C27.34 11.79, 17.81 3.51, 12.72 -0.92 M42.51 19.68 C34.32 12.56, 26.12 5.44, 19.12 -0.65 M42.51 19.68 C36.6 14.54, 30.69 9.4, 19.12 -0.65 M48.91 19.94 C41.76 13.73, 34.61 7.51, 24.76 -1.05 M48.91 19.94 C41.69 13.66, 34.46 7.38, 24.76 -1.05 M54.56 19.55 C49.4 15.06, 44.24 10.58, 31.16 -0.79 M54.56 19.55 C45.87 12, 37.18 4.45, 31.16 -0.79 M60.95 19.81 C54.47 14.18, 47.99 8.54, 37.56 -0.53 M60.95 19.81 C55.48 15.05, 50.01 10.3, 37.56 -0.53 M67.35 20.07 C59.56 13.3, 51.77 6.53, 43.2 -0.92 M67.35 20.07 C62.1 15.51, 56.85 10.95, 43.2 -0.92 M72.99 19.68 C66.43 13.97, 59.87 8.27, 49.6 -0.66 M72.99 19.68 C67.04 14.5, 61.08 9.32, 49.6 -0.66 M79.39 19.94 C72.09 13.59, 64.79 7.24, 55.24 -1.05 M79.39 19.94 C71.69 13.25, 64 6.56, 55.24 -1.05 M85.04 19.55 C77.3 12.82, 69.56 6.09, 61.64 -0.79 M85.04 19.55 C78.93 14.24, 72.83 8.94, 61.64 -0.79 M91.43 19.81 C85.31 14.48, 79.19 9.16, 68.04 -0.53 M91.43 19.81 C85.66 14.79, 79.88 9.77, 68.04 -0.53 M97.83 20.07 C90.4 13.61, 82.97 7.15, 73.68 -0.93 M97.83 20.07 C88.27 11.76, 78.72 3.45, 73.68 -0.93 M103.47 19.67 C95.07 12.37, 86.67 5.07, 80.08 -0.66 M103.47 19.67 C98.41 15.27, 93.34 10.86, 80.08 -0.66 M109.87 19.94 C101.47 12.63, 93.07 5.33, 85.72 -1.06 M109.87 19.94 C103.92 14.76, 97.97 9.59, 85.72 -1.06 M115.51 19.54 C110.63 15.29, 105.74 11.04, 92.12 -0.8 M115.51 19.54 C108.8 13.7, 102.08 7.86, 92.12 -0.8 M121.91 19.8 C116.21 14.84, 110.5 9.88, 98.52 -0.54 M121.91 19.8 C116.21 14.85, 110.51 9.89, 98.52 -0.54 M128.31 20.06 C121.5 14.14, 114.68 8.22, 104.16 -0.93 M128.31 20.06 C119.59 12.48, 110.87 4.9, 104.16 -0.93 M133.95 19.67 C128.23 14.69, 122.51 9.72, 110.56 -0.67 M133.95 19.67 C127.82 14.34, 121.69 9.01, 110.56 -0.67 M140.35 19.93 C132.97 13.51, 125.59 7.1, 116.2 -1.06 M140.35 19.93 C131.06 11.86, 121.78 3.78, 116.2 -1.06 M145.99 19.54 C140.02 14.34, 134.04 9.14, 122.6 -0.8 M145.99 19.54 C140.86 15.07, 135.72 10.6, 122.6 -0.8 M152.39 19.8 C146.24 14.45, 140.09 9.1, 129 -0.54 M152.39 19.8 C144.25 12.72, 136.11 5.64, 129 -0.54 M158.79 20.06 C153.05 15.07, 147.31 10.08, 134.64 -0.94 M158.79 20.06 C152.06 14.21, 145.34 8.37, 134.64 -0.94 M164.43 19.66 C155.23 11.66, 146.03 3.67, 141.04 -0.67 M164.43 19.66 C157.76 13.87, 151.09 8.07, 141.04 -0.67 M170.83 19.93 C165.78 15.54, 160.73 11.15, 146.68 -1.07 M170.83 19.93 C164.93 14.79, 159.02 9.66, 146.68 -1.07 M176.47 19.53 C167.28 11.54, 158.09 3.55, 153.08 -0.81 M176.47 19.53 C170.07 13.97, 163.67 8.4, 153.08 -0.81 M182.87 19.79 C177.18 14.84, 171.48 9.89, 159.48 -0.55 M182.87 19.79 C174.28 12.33, 165.7 4.86, 159.48 -0.55 M189.27 20.05 C184.12 15.58, 178.97 11.1, 165.12 -0.94 M189.27 20.05 C183.6 15.12, 177.93 10.19, 165.12 -0.94 M194.91 19.66 C188.57 14.15, 182.24 8.64, 171.52 -0.68 M194.91 19.66 C186.97 12.75, 179.03 5.85, 171.52 -0.68 M201.31 19.92 C194.95 14.4, 188.6 8.87, 177.16 -1.07 M201.31 19.92 C193.24 12.91, 185.18 5.9, 177.16 -1.07 M206.95 19.53 C200.45 13.87, 193.94 8.22, 183.56 -0.81 M206.95 19.53 C199.96 13.45, 192.97 7.37, 183.56 -0.81 M213.35 19.79 C208.51 15.58, 203.66 11.37, 189.96 -0.55 M213.35 19.79 C204.46 12.06, 195.58 4.34, 189.96 -0.55 M219.75 20.05 C212.32 13.59, 204.9 7.14, 195.6 -0.94 M219.75 20.05 C214.3 15.31, 208.85 10.57, 195.6 -0.94 M222.37 17.03 C214.92 10.55, 207.47 4.08, 202 -0.68 M222.37 17.03 C217.78 13.04, 213.2 9.05, 202 -0.68 M222.73 12.04 C218.84 8.66, 214.94 5.27, 207.64 -1.08 M222.73 12.04 C217.53 7.52, 212.32 3, 207.64 -1.08 M223.09 7.06 C220.23 4.57, 217.37 2.08, 214.04 -0.82 M223.09 7.06 C219.78 4.17, 216.46 1.29, 214.04 -0.82" stroke="#fab005" stroke-width="0.5" fill="none"></path><path d="M0 0 C55.9 0, 111.8 0, 220.58 0 M0 0 C75.82 0, 151.65 0, 220.58 0 M220.58 0 C220.58 4.14, 220.58 8.27, 220.58 19.83 M220.58 0 C220.58 4.23, 220.58 8.46, 220.58 19.83 M220.58 19.83 C164.77 19.83, 108.95 19.83, 0 19.83 M220.58 19.83 C157.95 19.83, 95.31 19.83, 0 19.83 M0 19.83 C0 14.01, 0 8.2, 0 0 M0 19.83 C0 13.54, 0 7.25, 0 0" stroke="#000000" stroke-width="1" fill="none"></path></g><g stroke-linecap="round" transform="translate(210 150) rotate(0 110 9.91306365966409)"><path d="M0 0 C0 0, 0 0, 0 0 M0 0 C0 0, 0 0, 0 0 M-0.26 6.4 C1.2 4.72, 2.65 3.05, 4.99 0.36 M-0.26 6.4 C1.31 4.59, 2.88 2.78, 4.99 0.36 M0.13 12.04 C4.01 7.58, 7.88 3.12, 10.63 -0.03 M0.13 12.04 C2.59 9.21, 5.06 6.38, 10.63 -0.03 M-0.13 18.44 C3.44 14.33, 7.02 10.22, 15.62 0.33 M-0.13 18.44 C4.47 13.15, 9.06 7.87, 15.62 0.33 M2.23 21.82 C8.61 14.48, 14.99 7.15, 21.26 -0.07 M2.23 21.82 C8.83 14.23, 15.43 6.63, 21.26 -0.07 M7.88 21.42 C12.81 15.75, 17.74 10.07, 26.25 0.29 M7.88 21.42 C11.84 16.87, 15.8 12.31, 26.25 0.29 M12.86 21.78 C19.14 14.57, 25.41 7.35, 31.89 -0.1 M12.86 21.78 C17.01 17.02, 21.15 12.26, 31.89 -0.1 M17.85 22.14 C25.2 13.69, 32.55 5.24, 36.88 0.26 M17.85 22.14 C24.29 14.73, 30.74 7.32, 36.88 0.26 M23.49 21.75 C29.37 14.99, 35.24 8.24, 42.52 -0.14 M23.49 21.75 C30.96 13.16, 38.43 4.56, 42.52 -0.14 M28.48 22.11 C32.43 17.57, 36.38 13.02, 47.51 0.22 M28.48 22.11 C35.8 13.69, 43.12 5.27, 47.51 0.22 M34.12 21.71 C39.29 15.77, 44.46 9.83, 53.15 -0.17 M34.12 21.71 C39.33 15.72, 44.54 9.73, 53.15 -0.17 M39.11 22.07 C42.99 17.61, 46.88 13.14, 58.14 0.19 M39.11 22.07 C45.47 14.76, 51.83 7.44, 58.14 0.19 M44.75 21.68 C49.73 15.95, 54.71 10.23, 63.78 -0.21 M44.75 21.68 C50.83 14.69, 56.91 7.69, 63.78 -0.21 M49.74 22.04 C55.27 15.68, 60.81 9.31, 68.77 0.15 M49.74 22.04 C54 17.15, 58.25 12.25, 68.77 0.15 M55.38 21.65 C62.35 13.64, 69.31 5.63, 74.41 -0.24 M55.38 21.65 C60.03 16.3, 64.68 10.95, 74.41 -0.24 M60.37 22.01 C64.68 17.04, 69 12.08, 79.4 0.12 M60.37 22.01 C66.94 14.45, 73.51 6.89, 79.4 0.12 M66.02 21.61 C72.01 14.71, 78.01 7.81, 85.04 -0.28 M66.02 21.61 C70.18 16.82, 74.35 12.03, 85.04 -0.28 M71 21.97 C75.08 17.28, 79.15 12.59, 90.03 0.08 M71 21.97 C75.73 16.53, 80.46 11.1, 90.03 0.08 M76.65 21.58 C82.05 15.36, 87.45 9.15, 95.67 -0.31 M76.65 21.58 C81.79 15.65, 86.94 9.73, 95.67 -0.31 M81.63 21.94 C87.34 15.37, 93.05 8.81, 100.66 0.05 M81.63 21.94 C88.06 14.54, 94.5 7.14, 100.66 0.05 M87.28 21.54 C92.8 15.18, 98.33 8.83, 106.3 -0.34 M87.28 21.54 C92.65 15.36, 98.02 9.18, 106.3 -0.34 M92.26 21.9 C99.38 13.72, 106.49 5.53, 111.29 0.02 M92.26 21.9 C97.51 15.87, 102.75 9.83, 111.29 0.02 M97.91 21.51 C105.19 13.12, 112.48 4.74, 116.27 0.38 M97.91 21.51 C105.14 13.18, 112.38 4.86, 116.27 0.38 M102.89 21.87 C109.93 13.77, 116.98 5.66, 121.92 -0.02 M102.89 21.87 C110.1 13.57, 117.31 5.28, 121.92 -0.02 M108.54 21.47 C114.2 14.95, 119.87 8.43, 126.91 0.34 M108.54 21.47 C112.23 17.22, 115.93 12.97, 126.91 0.34 M113.52 21.83 C118.59 16.01, 123.65 10.18, 132.55 -0.05 M113.52 21.83 C117.74 16.98, 121.97 12.12, 132.55 -0.05 M119.17 21.44 C126.06 13.51, 132.95 5.58, 137.54 0.31 M119.17 21.44 C125.71 13.92, 132.24 6.39, 137.54 0.31 M124.15 21.8 C129.54 15.6, 134.93 9.4, 143.18 -0.09 M124.15 21.8 C128.61 16.67, 133.08 11.53, 143.18 -0.09 M129.14 22.16 C136.57 13.61, 143.99 5.07, 148.17 0.27 M129.14 22.16 C136.12 14.13, 143.1 6.1, 148.17 0.27 M134.78 21.76 C140.24 15.49, 145.7 9.21, 153.81 -0.12 M134.78 21.76 C140.55 15.13, 146.32 8.49, 153.81 -0.12 M139.77 22.12 C147.2 13.57, 154.64 5.02, 158.8 0.24 M139.77 22.12 C147.34 13.41, 154.91 4.7, 158.8 0.24 M145.41 21.73 C152.75 13.29, 160.08 4.85, 164.44 -0.16 M145.41 21.73 C152.47 13.61, 159.53 5.49, 164.44 -0.16 M150.4 22.09 C155.29 16.46, 160.19 10.83, 169.43 0.2 M150.4 22.09 C155.55 16.17, 160.69 10.25, 169.43 0.2 M156.04 21.69 C162.36 14.43, 168.68 7.16, 175.07 -0.19 M156.04 21.69 C160.54 16.52, 165.04 11.35, 175.07 -0.19 M161.03 22.05 C167.01 15.18, 172.99 8.3, 180.06 0.17 M161.03 22.05 C166 16.33, 170.98 10.61, 180.06 0.17 M166.67 21.66 C172.82 14.59, 178.96 7.53, 185.7 -0.23 M166.67 21.66 C173.42 13.9, 180.17 6.13, 185.7 -0.23 M171.66 22.02 C177.94 14.8, 184.22 7.57, 190.69 0.13 M171.66 22.02 C177.44 15.37, 183.22 8.72, 190.69 0.13 M177.3 21.63 C184.88 12.91, 192.45 4.2, 196.33 -0.26 M177.3 21.63 C181.82 16.43, 186.34 11.23, 196.33 -0.26 M182.29 21.99 C188.32 15.05, 194.34 8.12, 201.32 0.1 M182.29 21.99 C189.66 13.5, 197.04 5.02, 201.32 0.1 M187.93 21.59 C192.53 16.31, 197.12 11.02, 206.96 -0.3 M187.93 21.59 C192.73 16.07, 197.53 10.55, 206.96 -0.3 M192.92 21.95 C199.2 14.73, 205.48 7.5, 211.95 0.06 M192.92 21.95 C199.74 14.11, 206.55 6.27, 211.95 0.06 M198.56 21.56 C205.81 13.22, 213.05 4.89, 217.59 -0.33 M198.56 21.56 C202.81 16.67, 207.05 11.79, 217.59 -0.33 M203.55 21.92 C208.33 16.42, 213.1 10.93, 221.26 1.54 M203.55 21.92 C209.18 15.44, 214.82 8.96, 221.26 1.54 M209.19 21.52 C214.02 15.97, 218.85 10.41, 221.66 7.18 M209.19 21.52 C212.06 18.22, 214.93 14.92, 221.66 7.18 M214.18 21.88 C216.19 19.57, 218.2 17.26, 221.4 13.58 M214.18 21.88 C215.8 20.01, 217.43 18.15, 221.4 13.58 M-0.01 19.82 C-0.01 19.82, -0.01 19.82, -0.01 19.82 M-0.01 19.82 C-0.01 19.82, -0.01 19.82, -0.01 19.82 M6.39 20.08 C4.32 18.28, 2.24 16.48, 0.35 14.83 M6.39 20.08 C4.62 18.54, 2.84 17, 0.35 14.83 M12.04 19.69 C8.33 16.47, 4.63 13.25, -0.04 9.19 M12.04 19.69 C7.76 15.97, 3.48 12.25, -0.04 9.19 M18.43 19.95 C13.07 15.29, 7.71 10.63, 0.32 4.2 M18.43 19.95 C11.27 13.72, 4.1 7.49, 0.32 4.2 M24.08 19.56 C15.16 11.8, 6.24 4.05, 0.68 -0.78 M24.08 19.56 C16.74 13.18, 9.41 6.81, 0.68 -0.78 M30.47 19.82 C25.56 15.55, 20.65 11.27, 7.08 -0.52 M30.47 19.82 C24.46 14.59, 18.45 9.36, 7.08 -0.52 M36.87 20.08 C30.94 14.92, 25 9.76, 12.72 -0.92 M36.87 20.08 C27.41 11.85, 17.95 3.63, 12.72 -0.92 M42.51 19.68 C37.74 15.53, 32.97 11.39, 19.12 -0.65 M42.51 19.68 C36.4 14.37, 30.28 9.05, 19.12 -0.65 M48.91 19.94 C41.89 13.84, 34.87 7.73, 24.76 -1.05 M48.91 19.94 C40.44 12.58, 31.96 5.21, 24.76 -1.05 M54.56 19.55 C48.94 14.67, 43.33 9.79, 31.16 -0.79 M54.56 19.55 C48.74 14.5, 42.93 9.44, 31.16 -0.79 M60.95 19.81 C52.76 12.69, 44.56 5.56, 37.56 -0.53 M60.95 19.81 C56.07 15.57, 51.2 11.33, 37.56 -0.53 M67.35 20.07 C59.54 13.28, 51.72 6.49, 43.2 -0.92 M67.35 20.07 C59.77 13.48, 52.19 6.89, 43.2 -0.92 M72.99 19.68 C65.94 13.54, 58.88 7.41, 49.6 -0.66 M72.99 19.68 C67.41 14.83, 61.83 9.98, 49.6 -0.66 M79.39 19.94 C72.04 13.55, 64.69 7.16, 55.24 -1.05 M79.39 19.94 C74.33 15.54, 69.26 11.13, 55.24 -1.05 M85.04 19.55 C78.8 14.13, 72.57 8.71, 61.64 -0.79 M85.04 19.55 C76.35 12, 67.67 4.45, 61.64 -0.79 M91.43 19.81 C84.98 14.2, 78.53 8.59, 68.04 -0.53 M91.43 19.81 C83.38 12.8, 75.32 5.8, 68.04 -0.53 M97.83 20.07 C92.76 15.66, 87.7 11.26, 73.68 -0.93 M97.83 20.07 C88.35 11.83, 78.87 3.58, 73.68 -0.93 M103.47 19.67 C94.71 12.06, 85.95 4.44, 80.08 -0.66 M103.47 19.67 C94.53 11.9, 85.58 4.12, 80.08 -0.66 M109.87 19.94 C101.65 12.79, 93.42 5.64, 85.72 -1.06 M109.87 19.94 C101.52 12.67, 93.17 5.41, 85.72 -1.06 M115.51 19.54 C106.59 11.78, 97.66 4.02, 92.12 -0.8 M115.51 19.54 C109.8 14.57, 104.08 9.6, 92.12 -0.8 M121.91 19.8 C114.63 13.47, 107.35 7.14, 98.52 -0.54 M121.91 19.8 C114.2 13.1, 106.49 6.39, 98.52 -0.54 M128.31 20.06 C120.55 13.32, 112.79 6.57, 104.16 -0.93 M128.31 20.06 C120.88 13.61, 113.46 7.15, 104.16 -0.93 M133.95 19.67 C128.84 15.23, 123.73 10.78, 110.56 -0.67 M133.95 19.67 C126.95 13.58, 119.95 7.5, 110.56 -0.67 M140.35 19.93 C134.02 14.43, 127.69 8.92, 116.2 -1.06 M140.35 19.93 C135.4 15.63, 130.45 11.32, 116.2 -1.06 M145.99 19.54 C141.26 15.42, 136.53 11.31, 122.6 -0.8 M145.99 19.54 C139.77 14.13, 133.55 8.72, 122.6 -0.8 M152.39 19.8 C145 13.37, 137.6 6.94, 129 -0.54 M152.39 19.8 C147.09 15.19, 141.78 10.58, 129 -0.54 M158.79 20.06 C152.84 14.89, 146.89 9.71, 134.64 -0.94 M158.79 20.06 C151.6 13.81, 144.41 7.56, 134.64 -0.94 M164.43 19.66 C158.85 14.81, 153.26 9.95, 141.04 -0.67 M164.43 19.66 C156.99 13.19, 149.55 6.73, 141.04 -0.67 M170.83 19.93 C161.69 11.98, 152.54 4.03, 146.68 -1.07 M170.83 19.93 C163.15 13.25, 155.47 6.57, 146.68 -1.07 M176.47 19.53 C171.1 14.86, 165.73 10.19, 153.08 -0.81 M176.47 19.53 C169.89 13.81, 163.31 8.09, 153.08 -0.81 M182.87 19.79 C176.54 14.29, 170.22 8.79, 159.48 -0.55 M182.87 19.79 C175.68 13.54, 168.48 7.28, 159.48 -0.55 M189.27 20.05 C181.25 13.08, 173.22 6.1, 165.12 -0.94 M189.27 20.05 C180.22 12.19, 171.17 4.32, 165.12 -0.94 M194.91 19.66 C189.37 14.84, 183.83 10.03, 171.52 -0.68 M194.91 19.66 C187.84 13.51, 180.77 7.36, 171.52 -0.68 M201.31 19.92 C195.67 15.02, 190.04 10.12, 177.16 -1.07 M201.31 19.92 C193.75 13.35, 186.2 6.78, 177.16 -1.07 M206.95 19.53 C201.42 14.71, 195.88 9.9, 183.56 -0.81 M206.95 19.53 C197.71 11.49, 188.46 3.45, 183.56 -0.81 M213.35 19.79 C207.18 14.42, 201 9.06, 189.96 -0.55 M213.35 19.79 C207.12 14.37, 200.88 8.95, 189.96 -0.55 M219.75 20.05 C213.17 14.33, 206.58 8.6, 195.6 -0.94 M219.75 20.05 C211.66 13.01, 203.56 5.98, 195.6 -0.94 M222.37 17.03 C214.26 9.98, 206.15 2.92, 202 -0.68 M222.37 17.03 C217.02 12.38, 211.67 7.72, 202 -0.68 M222.73 12.04 C216.83 6.91, 210.93 1.78, 207.64 -1.08 M222.73 12.04 C217.8 7.75, 212.86 3.46, 207.64 -1.08 M222.34 6.4 C220.22 4.56, 218.11 2.72, 214.04 -0.82 M222.34 6.4 C219.14 3.62, 215.95 0.85, 214.04 -0.82" stroke="#fab005" stroke-width="0.5" fill="none"></path><path d="M0 0 C75.28 0, 150.55 0, 220 0 M0 0 C51.32 0, 102.64 0, 220 0 M220 0 C220 6.71, 220 13.42, 220 19.83 M220 0 C220 6.36, 220 12.71, 220 19.83 M220 19.83 C149.79 19.83, 79.58 19.83, 0 19.83 M220 19.83 C135.77 19.83, 51.55 19.83, 0 19.83 M0 19.83 C0 14.27, 0 8.72, 0 0 M0 19.83 C0 15.31, 0 10.8, 0 0" stroke="#000000" stroke-width="1" fill="none"></path></g><g stroke-linecap="round" transform="translate(170 450) rotate(0 150.1435091444887 20)"><path d="M0 0 C0 0, 0 0, 0 0 M0 0 C0 0, 0 0, 0 0 M-0.26 6.4 C1.25 4.66, 2.75 2.93, 4.99 0.36 M-0.26 6.4 C1.64 4.22, 3.53 2.03, 4.99 0.36 M0.13 12.04 C3.85 7.76, 7.58 3.48, 10.63 -0.03 M0.13 12.04 C3.61 8.05, 7.08 4.05, 10.63 -0.03 M-0.13 18.44 C4.11 13.57, 8.34 8.7, 15.62 0.33 M-0.13 18.44 C6.15 11.21, 12.43 3.99, 15.62 0.33 M0.27 24.08 C6.32 17.12, 12.37 10.16, 21.26 -0.07 M0.27 24.08 C5.54 18.02, 10.81 11.96, 21.26 -0.07 M0 30.48 C8.52 20.68, 17.04 10.89, 26.25 0.29 M0 30.48 C10.18 18.78, 20.35 7.07, 26.25 0.29 M-0.26 36.88 C9.56 25.58, 19.38 14.29, 31.89 -0.1 M-0.26 36.88 C11.38 23.49, 23.02 10.1, 31.89 -0.1 M1.45 41.01 C13.4 27.27, 25.35 13.52, 36.88 0.26 M1.45 41.01 C9.17 32.14, 16.88 23.26, 36.88 0.26 M6.44 41.37 C16.09 30.27, 25.74 19.17, 42.52 -0.14 M6.44 41.37 C18.2 27.84, 29.96 14.31, 42.52 -0.14 M12.08 40.98 C20.82 30.92, 29.56 20.87, 47.51 0.22 M12.08 40.98 C19.99 31.88, 27.89 22.79, 47.51 0.22 M17.07 41.34 C27.6 29.22, 38.14 17.1, 53.15 -0.17 M17.07 41.34 C26.04 31.02, 35 20.7, 53.15 -0.17 M22.71 40.94 C31.52 30.81, 40.32 20.68, 58.14 0.19 M22.71 40.94 C36.23 25.39, 49.74 9.85, 58.14 0.19 M27.7 41.3 C40.43 26.65, 53.17 12, 63.78 -0.21 M27.7 41.3 C37.77 29.71, 47.85 18.12, 63.78 -0.21 M33.34 40.91 C47.33 24.81, 61.32 8.72, 68.77 0.15 M33.34 40.91 C44.47 28.1, 55.6 15.3, 68.77 0.15 M38.33 41.27 C48.45 29.62, 58.57 17.98, 74.41 -0.24 M38.33 41.27 C45.95 32.49, 53.58 23.72, 74.41 -0.24 M43.97 40.87 C57.93 24.81, 71.9 8.75, 79.4 0.12 M43.97 40.87 C54.11 29.21, 64.25 17.54, 79.4 0.12 M48.96 41.23 C61.99 26.24, 75.02 11.25, 85.04 -0.28 M48.96 41.23 C59.13 29.53, 69.3 17.83, 85.04 -0.28 M54.6 40.84 C62.06 32.25, 69.53 23.67, 90.03 0.08 M54.6 40.84 C61.92 32.41, 69.25 23.99, 90.03 0.08 M59.59 41.2 C71.77 27.19, 83.95 13.17, 95.67 -0.31 M59.59 41.2 C73 25.77, 86.41 10.34, 95.67 -0.31 M65.23 40.8 C74.63 29.99, 84.03 19.17, 100.66 0.05 M65.23 40.8 C73.31 31.51, 81.39 22.21, 100.66 0.05 M70.22 41.16 C77.75 32.5, 85.27 23.85, 106.3 -0.34 M70.22 41.16 C77.62 32.65, 85.02 24.14, 106.3 -0.34 M75.2 41.52 C83.7 31.76, 92.19 21.99, 111.29 0.02 M75.2 41.52 C87.72 27.12, 100.24 12.72, 111.29 0.02 M80.85 41.13 C88.98 31.78, 97.11 22.42, 116.27 0.38 M80.85 41.13 C93.27 26.84, 105.68 12.56, 116.27 0.38 M85.83 41.49 C94.99 30.96, 104.15 20.43, 121.92 -0.02 M85.83 41.49 C93.17 33.06, 100.5 24.62, 121.92 -0.02 M91.48 41.1 C102.52 28.4, 113.56 15.7, 126.91 0.34 M91.48 41.1 C99.27 32.13, 107.06 23.17, 126.91 0.34 M96.46 41.46 C107.66 28.58, 118.85 15.7, 132.55 -0.05 M96.46 41.46 C106.6 29.8, 116.73 18.14, 132.55 -0.05 M102.11 41.06 C110 31.99, 117.89 22.91, 137.54 0.31 M102.11 41.06 C111.64 30.1, 121.17 19.13, 137.54 0.31 M107.09 41.42 C116.14 31.02, 125.18 20.62, 143.18 -0.09 M107.09 41.42 C118.19 28.66, 129.29 15.89, 143.18 -0.09 M112.74 41.03 C126.43 25.27, 140.13 9.52, 148.17 0.27 M112.74 41.03 C126.82 24.83, 140.89 8.64, 148.17 0.27 M117.73 41.39 C131.32 25.74, 144.92 10.1, 153.81 -0.12 M117.73 41.39 C126.91 30.82, 136.1 20.25, 153.81 -0.12 M123.37 40.99 C133.41 29.44, 143.46 17.88, 158.8 0.24 M123.37 40.99 C135.7 26.8, 148.04 12.61, 158.8 0.24 M128.36 41.35 C137.28 31.08, 146.21 20.82, 164.44 -0.16 M128.36 41.35 C140.52 27.35, 152.69 13.35, 164.44 -0.16 M134 40.96 C142.85 30.77, 151.71 20.58, 169.43 0.2 M134 40.96 C144.93 28.38, 155.86 15.8, 169.43 0.2 M138.99 41.32 C148.97 29.84, 158.95 18.35, 175.07 -0.19 M138.99 41.32 C146.72 32.42, 154.45 23.52, 175.07 -0.19 M144.63 40.92 C154.5 29.57, 164.36 18.22, 180.06 0.17 M144.63 40.92 C155.59 28.32, 166.54 15.71, 180.06 0.17 M149.62 41.28 C161.72 27.36, 173.82 13.44, 185.7 -0.23 M149.62 41.28 C163.63 25.16, 177.65 9.03, 185.7 -0.23 M155.26 40.89 C162.99 32, 170.71 23.11, 190.69 0.13 M155.26 40.89 C163.22 31.73, 171.18 22.57, 190.69 0.13 M160.25 41.25 C172.91 26.68, 185.57 12.12, 196.33 -0.26 M160.25 41.25 C167.68 32.69, 175.12 24.14, 196.33 -0.26 M165.89 40.85 C179.14 25.61, 192.39 10.37, 201.32 0.1 M165.89 40.85 C179.11 25.64, 192.34 10.43, 201.32 0.1 M170.88 41.21 C181.92 28.5, 192.97 15.79, 206.96 -0.3 M170.88 41.21 C180.16 30.53, 189.44 19.86, 206.96 -0.3 M176.52 40.82 C187.41 28.29, 198.3 15.76, 211.95 0.06 M176.52 40.82 C187.74 27.91, 198.97 14.99, 211.95 0.06 M181.51 41.18 C190.2 31.17, 198.9 21.17, 217.59 -0.33 M181.51 41.18 C195.07 25.57, 208.64 9.97, 217.59 -0.33 M187.15 40.78 C195.52 31.15, 203.89 21.52, 222.58 0.03 M187.15 40.78 C196.4 30.14, 205.66 19.49, 222.58 0.03 M192.14 41.14 C201.2 30.72, 210.26 20.3, 228.22 -0.36 M192.14 41.14 C200.79 31.19, 209.43 21.24, 228.22 -0.36 M197.12 41.5 C205.58 31.77, 214.04 22.04, 233.21 0 M197.12 41.5 C206.36 30.88, 215.6 20.25, 233.21 0 M202.77 41.11 C212.99 29.35, 223.21 17.59, 238.19 0.36 M202.77 41.11 C215.87 26.03, 228.98 10.95, 238.19 0.36 M207.75 41.47 C216.12 31.84, 224.49 22.21, 243.84 -0.04 M207.75 41.47 C221.98 25.1, 236.21 8.73, 243.84 -0.04 M213.4 41.08 C226.21 26.34, 239.02 11.6, 248.82 0.32 M213.4 41.08 C225.15 27.55, 236.91 14.02, 248.82 0.32 M218.38 41.44 C226.16 32.5, 233.93 23.55, 254.47 -0.07 M218.38 41.44 C226.08 32.58, 233.78 23.73, 254.47 -0.07 M224.03 41.04 C235.89 27.4, 247.75 13.75, 259.45 0.29 M224.03 41.04 C235.87 27.41, 247.72 13.79, 259.45 0.29 M229.01 41.4 C237.22 31.96, 245.42 22.53, 265.1 -0.11 M229.01 41.4 C239.61 29.21, 250.21 17.02, 265.1 -0.11 M234.66 41.01 C246.31 27.6, 257.97 14.19, 270.08 0.25 M234.66 41.01 C242.8 31.63, 250.95 22.26, 270.08 0.25 M239.64 41.37 C252.88 26.14, 266.11 10.92, 275.73 -0.14 M239.64 41.37 C249.02 30.58, 258.4 19.79, 275.73 -0.14 M245.29 40.97 C256.67 27.88, 268.05 14.79, 280.71 0.22 M245.29 40.97 C256.45 28.13, 267.62 15.29, 280.71 0.22 M250.27 41.33 C264.3 25.19, 278.33 9.05, 286.36 -0.18 M250.27 41.33 C263.99 25.55, 277.72 9.76, 286.36 -0.18 M255.92 40.94 C268.13 26.89, 280.34 12.84, 291.34 0.18 M255.92 40.94 C267.61 27.49, 279.3 14.04, 291.34 0.18 M260.9 41.3 C271.91 28.64, 282.91 15.98, 296.99 -0.21 M260.9 41.3 C274.14 26.07, 287.37 10.85, 296.99 -0.21 M266.55 40.9 C276.6 29.34, 286.65 17.77, 301.32 0.9 M266.55 40.9 C275.53 30.57, 284.52 20.23, 301.32 0.9 M271.53 41.26 C282.84 28.26, 294.14 15.26, 301.06 7.3 M271.53 41.26 C282.61 28.52, 293.69 15.77, 301.06 7.3 M277.18 40.87 C284.46 32.48, 291.75 24.1, 301.45 12.94 M277.18 40.87 C285.14 31.71, 293.1 22.55, 301.45 12.94 M282.16 41.23 C288.75 33.65, 295.35 26.06, 301.19 19.34 M282.16 41.23 C286.07 36.74, 289.97 32.25, 301.19 19.34 M287.81 40.83 C293.04 34.81, 298.28 28.79, 301.58 24.99 M287.81 40.83 C290.7 37.5, 293.6 34.17, 301.58 24.99 M292.79 41.19 C296 37.51, 299.2 33.82, 301.32 31.38 M292.79 41.19 C295.35 38.25, 297.91 35.31, 301.32 31.38 M298.44 40.8 C299.45 39.63, 300.47 38.46, 301.06 37.78 M298.44 40.8 C299.01 40.13, 299.59 39.47, 301.06 37.78" stroke="#15aabf" stroke-width="0.5" fill="none"></path><path d="M0 0 C85.1 0, 170.21 0, 300.29 0 M0 0 C105.6 0, 211.21 0, 300.29 0 M300.29 0 C300.29 11.71, 300.29 23.42, 300.29 40 M300.29 0 C300.29 15.94, 300.29 31.89, 300.29 40 M300.29 40 C188.31 40, 76.32 40, 0 40 M300.29 40 C230.07 40, 159.86 40, 0 40 M0 40 C0 25.92, 0 11.84, 0 0 M0 40 C0 30.84, 0 21.69, 0 0" stroke="#000000" stroke-width="1" fill="none"></path></g><g stroke-linecap="round" transform="translate(450 90) rotate(0 20 120)"><path d="M0 0 C0 0, 0 0, 0 0 M0 0 C0 0, 0 0, 0 0 M0.02 10.58 C4.33 7.9, 8.16 3.31, 12.18 1.18 M-0.36 12.76 C3.85 7.9, 7.81 2.8, 11.38 0.2 M-0.87 23.47 C10.35 14.59, 16.35 6.92, 22.66 -1.75 M-0.19 23.11 C5.5 18.44, 11.59 11.14, 22.05 0.09 M0.47 37.78 C8.86 25.69, 18.68 14.53, 32.06 1.24 M-0.77 36.74 C8.13 28.81, 15.46 18.03, 30.9 -0.09 M-2.08 50.19 C10.72 37.29, 18.2 25.55, 40.53 0.89 M0.15 49.5 C13.02 34.44, 26.34 18.25, 40.43 1.39 M-1.77 61.06 C13.95 46.51, 25.8 30.92, 42.85 13.49 M-0.14 61.44 C16.07 42.66, 31.04 24.1, 41.9 13.26 M0.35 74.32 C13.67 55.02, 32.35 36.89, 41.14 25.3 M0.87 72.42 C16.65 53.69, 33.99 35.85, 40.82 24.55 M-0.45 85.46 C10.22 72.72, 17.53 62.81, 43.42 37.95 M-0.19 85.18 C15.98 67.23, 32.76 47.91, 42.28 37.14 M-0.52 97.58 C9.35 83.57, 24.05 72.91, 40.82 49.9 M0.48 98.51 C10.72 84.81, 21.2 72.29, 41.12 50.29 M-0.43 109.54 C7.14 100.25, 15.46 89.84, 43.03 60.66 M0.04 110.56 C11.61 94.46, 24.2 80.43, 42.2 62.05 M-0.15 123.82 C10.76 112.69, 16.95 99.88, 43.06 74.59 M0.71 121.81 C14.74 105.31, 29.41 88.07, 42.06 74.12 M0.29 134.7 C16.22 113.96, 34.74 97.15, 40.63 85.09 M0.03 134.35 C11.24 121.66, 20.99 110.53, 41.19 87.23 M0.93 144.27 C16.61 126.98, 30.5 109.67, 42.26 98.65 M-0.16 145.08 C12.37 131.51, 24.87 116.43, 40.98 98.26 M-2.06 158.48 C7.37 148.34, 18.16 134.85, 41.38 110.84 M-0.78 158.77 C14.82 142.13, 28.19 127, 40.71 111.37 M-0.96 171.3 C13.9 153.76, 29.95 138.78, 41.69 122.52 M0.75 171.5 C11.78 158.92, 22.74 146.7, 41.77 123.36 M0.27 184.55 C9.21 170.37, 18.89 163.33, 41.96 135.64 M0.21 183.47 C14.4 165.72, 30.26 146.13, 41.4 134.58 M1.37 196.12 C6.93 186.97, 16.69 176.61, 43.46 145.48 M0.82 194.43 C16.37 177.76, 31.2 158.86, 40.87 148.26 M1.91 207.95 C13.85 193.68, 23.12 179.49, 41.96 160.6 M0.22 206.78 C16.32 189.66, 32.04 170, 42.5 159.67 M1.34 218.09 C9.76 205.75, 20.52 193.61, 39.93 170.94 M-0.6 220.69 C8.12 209.98, 18.04 199.06, 40.63 171.24 M-1.6 232.86 C8.88 220.32, 22.55 207.47, 41.84 183.95 M-0.99 231.48 C8.97 221.24, 19.94 210.16, 41.82 183.9 M1.85 240.42 C15.59 225.95, 27.2 211.47, 42.99 196.45 M2.97 242.25 C12.14 229.02, 24.44 215.46, 40.6 196.01 M12.55 239.95 C24.36 228.36, 33.61 215.11, 40.89 206.79 M13.36 242.2 C19.42 233.43, 26.41 226.19, 41.68 208.68 M23.8 240.34 C28.5 231.76, 37.53 223.51, 43.39 218.91 M23.7 242.43 C27.19 237.48, 31.4 232.38, 40.94 220.96 M33.8 240.77 C35.51 238.21, 38.04 234.99, 40.88 233.81 M34.07 241.27 C36.51 238.76, 38.85 235.1, 40.7 233.02 M-0.34 239.7 C-0.34 239.7, -0.34 239.7, -0.34 239.7 M-0.34 239.7 C-0.34 239.7, -0.34 239.7, -0.34 239.7 M13.31 240.89 C7.39 235.54, 2.64 232.42, 0.36 229.68 M12.46 240.21 C6.83 234.98, 2.59 230.84, -0.43 228.74 M23.94 239.39 C18.98 233.49, 11.75 229.99, 0.48 219.59 M24.17 239.94 C18.54 234.44, 10.44 228.14, 0.89 218.81 M35.69 240.46 C30.41 234.13, 20.26 223.59, 0.23 207.52 M37.01 239.39 C22.92 227.89, 8.36 214.97, 1.27 208.68 M43.09 237.5 C26.79 223.29, 11.89 209.6, 1.9 195.85 M43.85 234.96 C34.69 227.82, 26.12 219.76, 0.41 197.28 M42.82 224.18 C34.3 216.78, 23 206.52, -1.56 186.5 M44.97 225.48 C32.74 215.36, 23.09 206.49, -0.19 187.44 M43.72 213.69 C35.24 204.81, 25.62 198.78, -0.88 176.99 M44.75 214.53 C34.88 206.25, 26.06 200.39, 1.12 176.92 M45.35 202.21 C29.09 191.11, 13.91 178.87, -1.75 167.62 M43.19 203 C31.07 192.39, 19.14 181.05, -0.21 166.74 M42.34 194.75 C27.87 181.58, 15.45 167.94, -0.05 156.79 M43.08 194.08 C27.62 178.45, 11.02 165.12, 0.65 155.58 M45.12 184.4 C29.82 169.9, 15.55 156.35, -1.1 144.22 M43.6 183.6 C31.28 171.16, 17.97 160.85, -0.41 144.13 M44.68 171.55 C34.24 160.5, 19.93 150.91, 1.07 134.18 M43.98 172.42 C31.59 162.14, 21.74 151.96, -0.85 133.52 M45.31 163.16 C31.91 151.08, 21.37 143.61, 0.5 122.78 M43.11 160.8 C31.09 150.39, 17.7 137.93, 0.17 123.62 M45.36 152.04 C30.4 142.64, 19.33 130.68, 0.03 113.19 M43.16 150.78 C33.63 140.9, 22.19 130.71, -0.62 113.46 M41.97 140.05 C28.29 123.34, 11.12 110.28, 0.05 102.91 M43.21 140.56 C28.96 126.4, 13.29 114.29, -0.94 101.62 M43.86 129.35 C26.41 114.15, 10.24 100.8, -0.74 90.99 M42.89 128.86 C34.98 121.89, 25.1 113.86, 0.64 90.56 M44.04 117.71 C28.38 104.16, 13.58 91.11, -0.59 81.33 M43.96 119.3 C27.48 105.42, 12.65 91.81, 0.34 81.02 M44.56 109.69 C27.56 91.65, 7.53 78.36, -1.94 69.88 M44 108.78 C26.12 92.5, 8.98 79.28, 0.79 70.39 M45.3 95.95 C27.86 84.29, 15.1 73.13, 1.32 59.9 M43.98 97.84 C31.47 87.58, 20.03 76.54, 0.65 59.11 M44.69 88.43 C29.92 75.36, 17.62 66.32, 0.6 49.26 M43.9 87.08 C28.19 73.9, 14.15 61.39, 0.25 49 M44.45 75.68 C32.66 68.06, 23.29 58.05, 1.39 37.6 M44.43 75.47 C30.41 64.55, 17.65 52.87, -0.8 37.65 M42.37 66.04 C31.27 52.25, 17.44 40.63, -0.05 29.68 M42.53 66.77 C26.04 50.27, 9.68 35.53, 0.02 26.83 M45.03 54.93 C30.19 42.07, 11.3 28.46, 0.11 18.54 M43.06 55.9 C31.98 43.73, 19.54 34.41, -0.24 16.82 M44.58 44.11 C26.66 27.75, 8.23 12.77, -1.98 4.8 M44.41 45.28 C25.42 29.61, 9.88 13.99, -0.35 6.8 M44.23 33.54 C30.34 22.26, 19.71 12.98, 1.13 -2.11 M44.92 33.93 C32 24.52, 19.63 13.93, 0.93 -2.79 M43.96 22.05 C35.74 15.92, 26.12 7.8, 11.97 -2.11 M43.4 23.14 C31.61 14.32, 21.16 2.74, 13.58 -3.29 M45.83 14.49 C38.26 6.65, 33.88 2.76, 26.29 -0.91 M43.37 12.84 C39.32 8.64, 34.96 4.99, 25.23 -3.08" stroke="#82c91e" stroke-width="1" fill="none"></path><path d="M0.68 1.22 C14.74 1.46, 26.68 -0.12, 38.28 -0.52 M-0.2 -0.51 C14.45 -0.16, 26.62 1.17, 39.48 0.66 M40.56 0.87 C40.43 61.61, 40.83 127.61, 39.73 241.08 M40.5 0.4 C41.88 94.53, 41.61 190.1, 39.75 239.87 M40.35 238.77 C25.3 240.57, 14.81 238.55, 0 241.78 M40.73 239.51 C30.67 239.16, 20.68 240.21, 0.38 239.98 M1.3 240.3 C2.85 177.67, 2.02 111.9, -0.16 -0.84 M-0.78 240.51 C0.16 192.09, 0.07 143.91, -0.15 -0.64" stroke="#000000" stroke-width="2" fill="none"></path></g><g stroke-linecap="round" transform="translate(150 90) rotate(0 20 120)"><path d="M0 0 C0 0, 0 0, 0 0 M0 0 C0 0, 0 0, 0 0 M0.98 13.23 C0.68 10.71, 5.76 6.8, 10.54 -1.28 M0.24 11.64 C3.17 9.27, 5.79 5.96, 10.8 -0.51 M1 22.95 C3.14 18.8, 10.82 13.47, 21.48 -0.73 M0.45 24.87 C7.99 15.33, 16.39 5.97, 20.82 -0.29 M1.39 38.17 C11.46 24.78, 21.05 10.49, 33.37 -0.15 M-1.23 36.1 C9.6 25.51, 17.66 14.82, 32.53 0.09 M1.53 46.98 C9.27 38.45, 20.21 25.45, 39.22 1.33 M-1.04 49.51 C15.44 30.16, 31.5 12.06, 41.66 0.83 M1.4 60.49 C15.07 43.36, 28.96 24.99, 43.05 14.76 M-0.32 61.81 C12.69 48.14, 23.73 33.69, 40.86 13.27 M1.22 73.38 C12.37 58.63, 24.18 44.81, 40.23 25.13 M0.82 73.46 C16.84 55.09, 32.33 35.04, 41 25.08 M1.5 83.9 C16.69 68.32, 34.94 48.84, 40.04 36.84 M0.39 85.83 C16.85 66.42, 32.62 48.3, 42.55 36.75 M-0.85 97.89 C15.34 80.54, 30.12 60.98, 42.85 51.08 M-0.43 98.33 C10.58 86.24, 22.28 73.08, 41.73 50.18 M-1.16 108.96 C11.32 94.95, 22.15 82.77, 39.61 62.13 M0.87 109.76 C13.12 93.13, 27.1 78.39, 40.77 62.03 M1.84 122.34 C8.06 110.62, 17.88 100.62, 40.56 73.09 M-0.1 121.19 C12.56 106.79, 27.03 91.08, 41.59 74.63 M1.4 135.06 C10.04 121.78, 21.43 108.8, 42.68 88.11 M-0.41 133.36 C14.53 119.41, 27.64 103.89, 42.05 87.34 M-1.22 147.97 C15.15 131.13, 29.21 111.06, 41.75 100.45 M1.14 145.78 C14.04 130.57, 26.6 115.06, 40.92 97.66 M-0.58 157.76 C13.89 145.93, 23.38 131.95, 40.45 112.39 M-1.01 157.86 C17.33 139.07, 33.49 120.88, 40.84 110.38 M0.28 169.15 C10.9 160.55, 20.54 148.7, 39.71 123.57 M-0.87 170.28 C12.63 155.23, 25.45 141.23, 40.6 122.92 M-1.35 182.71 C17.5 162.91, 30.51 144.88, 39.58 134.69 M0.69 181.89 C9.94 172.61, 19.38 161.02, 40.79 136.25 M-0.47 195.09 C9.54 184.15, 19.58 171.98, 42.54 147.76 M0.27 195.06 C12.98 179.17, 26.87 164.52, 42.07 148.24 M-0.27 206.97 C15.12 188.69, 31.02 171.6, 41.65 158.11 M0.88 206.81 C16.96 189.6, 31.03 170.98, 42.13 158.78 M-0.05 219.14 C9.05 207.26, 19.36 197.34, 40.61 170.42 M-1.1 219.94 C12 207.85, 21.96 194.3, 40.68 172.91 M0.18 232.69 C13.41 215.13, 24.09 199.79, 41.14 182.89 M0.34 232.39 C16.7 214.66, 32.4 195.88, 41.67 184.2 M2.45 242.53 C10.62 229.69, 18.25 219.95, 39.79 195.09 M2.5 241.88 C13.01 228.38, 23.76 216.68, 41 195.63 M12.84 242.58 C20.21 233.36, 25.34 226.49, 43.33 208.13 M12.84 242.25 C21.12 232.5, 27.96 223.86, 40.74 208.94 M21.91 240.48 C28.18 237.75, 30.4 231.81, 40.84 220.69 M24.25 241.21 C29.51 234.04, 35.32 225.89, 42.16 219.8 M33.42 241.53 C35.75 238.69, 38.26 235.74, 40.39 233.1 M34.14 241.53 C35.91 238.85, 38.78 236.48, 40.84 233.01 M-0.34 239.7 C-0.34 239.7, -0.34 239.7, -0.34 239.7 M-0.34 239.7 C-0.34 239.7, -0.34 239.7, -0.34 239.7 M14.06 239.29 C6.54 237.26, 1.51 232.8, -0.22 230.57 M12.66 239.46 C7.51 235.06, 2.64 231.8, -0.07 229.14 M23.67 238.49 C15.85 232.31, 10.44 228.09, 0.84 219.54 M23.71 239.31 C20.45 235.79, 13.9 231.2, 1.21 219.88 M34.66 239.27 C26.89 230.65, 18.58 222.39, 1.27 209.87 M35.86 240.45 C28.34 231.77, 18.17 223.24, -0.15 209.41 M42.92 237.52 C28.17 219.4, 9.79 206.29, 0.51 198.84 M43.37 235.78 C34.05 227.11, 25.64 219.99, 1.01 197.37 M42.42 225.66 C30.7 216.85, 19.11 206.35, 0.75 187.13 M43.9 224.75 C30.17 215.2, 18.06 202.74, -0.46 187.2 M43.2 215.61 C29.77 203.06, 13.34 187.5, 0.51 174.99 M43.23 215.56 C33.29 206.37, 23.42 195.9, 0.48 177.29 M42.1 202.32 C34.12 193.84, 24.17 183.89, -0.65 165.49 M44.7 203.74 C28.73 190.78, 12.44 176.97, 0.65 165.29 M42.99 193.55 C36.49 186.86, 24.35 175.99, -1.35 155.77 M44.5 193.08 C29.17 180.36, 16.22 169.07, 0.25 154.49 M45.55 181.12 C31.65 171.79, 14.44 160.51, -1.67 144.3 M43.17 182.06 C29.98 171, 18.13 159.63, 0.56 144.23 M42.03 172.18 C31.38 163.27, 24.17 152.47, 1.61 134.1 M43.32 172.16 C29.85 161.06, 17.12 148.36, -0.51 134.24 M41.96 160.45 C34.99 153.62, 24.79 145.26, -0.21 124.04 M43.22 162.26 C31.43 150.2, 20.65 140.59, -0.75 123.03 M44.94 149.48 C28.27 135.71, 11.99 121.72, 0.95 112.03 M44.41 151.04 C31.92 140.92, 18.97 129.83, -0.06 112.27 M45.37 139.87 C29.55 128.89, 15.06 112.84, -1.27 102.32 M43.36 139.3 C35 133.07, 24.81 124.02, -0.78 103.12 M45.21 128.56 C28.17 113.05, 8.51 99.43, 1.08 92.72 M43.04 130.39 C27.64 115.36, 10.38 100.83, -0.1 90.7 M42.71 120.05 C28.26 105.72, 9.2 88.83, -1 81.86 M44.62 118.56 C29.05 106.14, 13.15 92.65, -0.44 80.37 M45.2 109.65 C29.42 94.06, 12.48 81.43, -0.69 68.46 M43.03 107.34 C27.98 92.85, 10.27 79.35, 0.23 70.15 M41.79 98.76 C32.05 88.71, 23.89 77.54, 1.36 58.52 M42.63 97.9 C28.64 87.22, 15.3 73.69, -0.08 59.08 M44.16 86.1 C31.05 74.47, 16.94 62.35, -2.17 48.66 M42.79 87.45 C28.83 75.48, 15.78 61.7, 0.36 49.63 M43.28 74.94 C31.34 64.74, 17.37 52.17, -0.58 37.28 M43.56 75.59 C35.28 69.26, 23.88 60.55, 0.51 38.01 M42.19 64.38 C30.36 53.35, 15.45 41.69, -0.33 27.87 M43.27 66.71 C32.78 55.17, 20.88 46.34, 0.28 28.6 M44.73 56.61 C34.57 45.46, 26.43 39.04, -0.34 16.24 M44.15 54.34 C33.86 47.04, 25 40.86, 0.09 16.32 M44.3 44.11 C33.91 35.65, 20.39 22.61, 0.77 5.75 M43.99 43.55 C28.59 31.93, 15.76 20.19, 0.54 6.98 M45.34 33.61 C34.48 25.66, 23.82 18.88, 3.72 -3.41 M44.47 33.97 C33.4 26.03, 24.08 17.16, 2.27 -2.38 M45.09 22.67 C35.65 15.92, 25.09 7.33, 12.28 -0.43 M43.79 23.51 C37.31 18.19, 29.74 10.95, 14.6 -2.45 M42.88 14.9 C36.72 9.61, 32.99 4.93, 27.45 -4.25 M44.85 12.74 C37.17 7.35, 31.15 1.16, 26.56 -2.99" stroke="#82c91e" stroke-width="1" fill="none"></path><path d="M-1.46 -1.4 C15.09 0.5, 28.71 1.24, 40.67 -1.92 M-0.13 -0.93 C10.69 1.01, 23.11 0.76, 39.76 0.39 M38.36 0.1 C39.44 68.22, 39.49 136.34, 41.26 241.48 M40.18 0.32 C40.47 89.83, 41.54 179.49, 39.37 239.26 M41.36 238.55 C28.83 238.41, 18.56 240.42, 0.66 239.88 M40.01 239.05 C23.52 241.21, 7.95 240.72, -0.33 239.74 M-0.35 238.81 C-1.53 144.93, 1.07 50.57, -0.05 1.01 M-0.41 239.78 C1.3 150.35, 1.59 62.6, 0.61 -0.8" stroke="#000000" stroke-width="2" fill="none"></path></g><g stroke-linecap="round" transform="translate(170 350) rotate(0 150.1435091444887 20)"><path d="M0 0 C0 0, 0 0, 0 0 M0 0 C0 0, 0 0, 0 0 M-0.26 6.4 C0.9 5.06, 2.07 3.72, 4.99 0.36 M-0.26 6.4 C1.71 4.13, 3.68 1.87, 4.99 0.36 M0.13 12.04 C3.87 7.74, 7.61 3.44, 10.63 -0.03 M0.13 12.04 C3.11 8.62, 6.08 5.2, 10.63 -0.03 M-0.13 18.44 C3.56 14.19, 7.26 9.94, 15.62 0.33 M-0.13 18.44 C6.02 11.37, 12.16 4.3, 15.62 0.33 M0.27 24.08 C7.97 15.22, 15.67 6.37, 21.26 -0.07 M0.27 24.08 C6.29 17.15, 12.31 10.23, 21.26 -0.07 M0 30.48 C7.96 21.32, 15.92 12.17, 26.25 0.29 M0 30.48 C10.26 18.68, 20.51 6.89, 26.25 0.29 M-0.26 36.88 C12.54 22.16, 25.33 7.44, 31.89 -0.1 M-0.26 36.88 C12.14 22.62, 24.53 8.36, 31.89 -0.1 M1.45 41.01 C14.59 25.89, 27.73 10.78, 36.88 0.26 M1.45 41.01 C10.56 30.53, 19.67 20.05, 36.88 0.26 M6.44 41.37 C16.2 30.14, 25.96 18.91, 42.52 -0.14 M6.44 41.37 C18.42 27.59, 30.4 13.8, 42.52 -0.14 M12.08 40.98 C20.45 31.34, 28.83 21.71, 47.51 0.22 M12.08 40.98 C23.21 28.17, 34.34 15.36, 47.51 0.22 M17.07 41.34 C26.5 30.49, 35.93 19.64, 53.15 -0.17 M17.07 41.34 C28.72 27.93, 40.37 14.53, 53.15 -0.17 M22.71 40.94 C35.28 26.48, 47.84 12.03, 58.14 0.19 M22.71 40.94 C34.4 27.49, 46.1 14.04, 58.14 0.19 M27.7 41.3 C38.66 28.69, 49.63 16.07, 63.78 -0.21 M27.7 41.3 C42.06 24.78, 56.42 8.26, 63.78 -0.21 M33.34 40.91 C41.75 31.23, 50.17 21.55, 68.77 0.15 M33.34 40.91 C44.56 28, 55.79 15.09, 68.77 0.15 M38.33 41.27 C52.31 25.18, 66.3 9.09, 74.41 -0.24 M38.33 41.27 C47.04 31.24, 55.76 21.22, 74.41 -0.24 M43.97 40.87 C52.91 30.59, 61.85 20.31, 79.4 0.12 M43.97 40.87 C55.67 27.42, 67.36 13.97, 79.4 0.12 M48.96 41.23 C61.89 26.36, 74.81 11.49, 85.04 -0.28 M48.96 41.23 C62.7 25.42, 76.44 9.62, 85.04 -0.28 M54.6 40.84 C62.51 31.75, 70.41 22.65, 90.03 0.08 M54.6 40.84 C64.15 29.85, 73.7 18.87, 90.03 0.08 M59.59 41.2 C71.06 28, 82.54 14.8, 95.67 -0.31 M59.59 41.2 C73.57 25.12, 87.55 9.03, 95.67 -0.31 M65.23 40.8 C73.38 31.43, 81.53 22.05, 100.66 0.05 M65.23 40.8 C75.09 29.46, 84.96 18.11, 100.66 0.05 M70.22 41.16 C78.34 31.82, 86.46 22.48, 106.3 -0.34 M70.22 41.16 C80.19 29.69, 90.17 18.21, 106.3 -0.34 M75.2 41.52 C82.77 32.82, 90.33 24.12, 111.29 0.02 M75.2 41.52 C87.6 27.26, 100 13, 111.29 0.02 M80.85 41.13 C91.26 29.15, 101.68 17.16, 116.27 0.38 M80.85 41.13 C91.72 28.62, 102.59 16.12, 116.27 0.38 M85.83 41.49 C98.62 26.78, 111.41 12.06, 121.92 -0.02 M85.83 41.49 C96.51 29.2, 107.19 16.92, 121.92 -0.02 M91.48 41.1 C105.49 24.97, 119.51 8.85, 126.91 0.34 M91.48 41.1 C104.98 25.56, 118.48 10.03, 126.91 0.34 M96.46 41.46 C107.77 28.44, 119.08 15.43, 132.55 -0.05 M96.46 41.46 C104.04 32.74, 111.62 24.02, 132.55 -0.05 M102.11 41.06 C111.21 30.58, 120.32 20.11, 137.54 0.31 M102.11 41.06 C110.81 31.05, 119.52 21.03, 137.54 0.31 M107.09 41.42 C121.23 25.16, 135.37 8.89, 143.18 -0.09 M107.09 41.42 C114.46 32.95, 121.82 24.49, 143.18 -0.09 M112.74 41.03 C122 30.37, 131.26 19.71, 148.17 0.27 M112.74 41.03 C123.04 29.17, 133.34 17.32, 148.17 0.27 M117.73 41.39 C130.39 26.82, 143.05 12.25, 153.81 -0.12 M117.73 41.39 C126.38 31.43, 135.04 21.47, 153.81 -0.12 M123.37 40.99 C132.17 30.86, 140.98 20.74, 158.8 0.24 M123.37 40.99 C135.78 26.72, 148.19 12.44, 158.8 0.24 M128.36 41.35 C135.88 32.7, 143.4 24.04, 164.44 -0.16 M128.36 41.35 C140.03 27.92, 151.7 14.49, 164.44 -0.16 M134 40.96 C145.12 28.16, 156.24 15.37, 169.43 0.2 M134 40.96 C144.69 28.66, 155.37 16.37, 169.43 0.2 M138.99 41.32 C147.59 31.42, 156.2 21.51, 175.07 -0.19 M138.99 41.32 C149.97 28.68, 160.95 16.05, 175.07 -0.19 M144.63 40.92 C152.06 32.37, 159.49 23.82, 180.06 0.17 M144.63 40.92 C154.07 30.06, 163.51 19.2, 180.06 0.17 M149.62 41.28 C163.01 25.88, 176.4 10.48, 185.7 -0.23 M149.62 41.28 C159.56 29.84, 169.51 18.4, 185.7 -0.23 M155.26 40.89 C167.46 26.85, 179.66 12.82, 190.69 0.13 M155.26 40.89 C162.69 32.34, 170.12 23.79, 190.69 0.13 M160.25 41.25 C174.41 24.95, 188.58 8.65, 196.33 -0.26 M160.25 41.25 C173.76 25.7, 187.27 10.16, 196.33 -0.26 M165.89 40.85 C179.43 25.27, 192.98 9.69, 201.32 0.1 M165.89 40.85 C177.95 26.98, 190.02 13.1, 201.32 0.1 M170.88 41.21 C183.36 26.86, 195.84 12.5, 206.96 -0.3 M170.88 41.21 C184.64 25.38, 198.41 9.54, 206.96 -0.3 M176.52 40.82 C185.17 30.86, 193.83 20.91, 211.95 0.06 M176.52 40.82 C187.55 28.13, 198.57 15.45, 211.95 0.06 M181.51 41.18 C193.4 27.49, 205.3 13.81, 217.59 -0.33 M181.51 41.18 C193.1 27.84, 204.7 14.5, 217.59 -0.33 M187.15 40.78 C198.04 28.25, 208.93 15.72, 222.58 0.03 M187.15 40.78 C194.89 31.88, 202.63 22.98, 222.58 0.03 M192.14 41.14 C202.93 28.72, 213.73 16.3, 228.22 -0.36 M192.14 41.14 C201.6 30.26, 211.06 19.38, 228.22 -0.36 M197.12 41.5 C204.52 32.99, 211.92 24.48, 233.21 0 M197.12 41.5 C204.42 33.11, 211.72 24.72, 233.21 0 M202.77 41.11 C212.19 30.27, 221.61 19.43, 238.19 0.36 M202.77 41.11 C213.96 28.23, 225.16 15.35, 238.19 0.36 M207.75 41.47 C215.93 32.06, 224.11 22.65, 243.84 -0.04 M207.75 41.47 C216.64 31.24, 225.54 21.01, 243.84 -0.04 M213.4 41.08 C223.94 28.94, 234.49 16.81, 248.82 0.32 M213.4 41.08 C221.85 31.35, 230.31 21.62, 248.82 0.32 M218.38 41.44 C229.86 28.23, 241.34 15.03, 254.47 -0.07 M218.38 41.44 C232.05 25.72, 245.71 10, 254.47 -0.07 M224.03 41.04 C235.3 28.08, 246.57 15.11, 259.45 0.29 M224.03 41.04 C232.16 31.68, 240.3 22.32, 259.45 0.29 M229.01 41.4 C239.17 29.72, 249.32 18.04, 265.1 -0.11 M229.01 41.4 C238.77 30.18, 248.53 18.95, 265.1 -0.11 M234.66 41.01 C245.55 28.47, 256.44 15.94, 270.08 0.25 M234.66 41.01 C246.43 27.47, 258.2 13.93, 270.08 0.25 M239.64 41.37 C253.17 25.81, 266.69 10.25, 275.73 -0.14 M239.64 41.37 C248.19 31.54, 256.73 21.71, 275.73 -0.14 M245.29 40.97 C256 28.65, 266.71 16.33, 280.71 0.22 M245.29 40.97 C253.55 31.46, 261.82 21.95, 280.71 0.22 M250.27 41.33 C261.56 28.34, 272.85 15.36, 286.36 -0.18 M250.27 41.33 C258.81 31.51, 267.35 21.69, 286.36 -0.18 M255.92 40.94 C269.92 24.83, 283.92 8.73, 291.34 0.18 M255.92 40.94 C265.26 30.18, 274.61 19.43, 291.34 0.18 M260.9 41.3 C270.52 30.24, 280.14 19.17, 296.99 -0.21 M260.9 41.3 C270.74 29.98, 280.58 18.67, 296.99 -0.21 M266.55 40.9 C278.2 27.5, 289.85 14.1, 301.32 0.9 M266.55 40.9 C280.39 24.98, 294.24 9.05, 301.32 0.9 M271.53 41.26 C279.29 32.34, 287.04 23.42, 301.06 7.3 M271.53 41.26 C283.08 27.98, 294.63 14.7, 301.06 7.3 M277.18 40.87 C285.12 31.73, 293.06 22.6, 301.45 12.94 M277.18 40.87 C283.36 33.76, 289.54 26.65, 301.45 12.94 M282.16 41.23 C289.48 32.81, 296.8 24.39, 301.19 19.34 M282.16 41.23 C287.53 35.05, 292.9 28.87, 301.19 19.34 M287.81 40.83 C291.01 37.14, 294.22 33.46, 301.58 24.99 M287.81 40.83 C291.87 36.16, 295.94 31.48, 301.58 24.99 M292.79 41.19 C295.97 37.54, 299.14 33.89, 301.32 31.38 M292.79 41.19 C295.18 38.45, 297.57 35.7, 301.32 31.38 M298.44 40.8 C299.41 39.68, 300.38 38.57, 301.06 37.78 M298.44 40.8 C299.03 40.12, 299.62 39.44, 301.06 37.78" stroke="#4c6ef5" stroke-width="0.5" fill="none"></path><path d="M0 0 C84.79 0, 169.59 0, 300.29 0 M0 0 C112.3 0, 224.6 0, 300.29 0 M300.29 0 C300.29 11.03, 300.29 22.06, 300.29 40 M300.29 0 C300.29 15.87, 300.29 31.74, 300.29 40 M300.29 40 C181.98 40, 63.67 40, 0 40 M300.29 40 C189.13 40, 77.98 40, 0 40 M0 40 C0 24.84, 0 9.68, 0 0 M0 40 C0 27.66, 0 15.32, 0 0" stroke="#000000" stroke-width="1" fill="none"></path></g><g stroke-linecap="round" transform="translate(450 510) rotate(0 20 20)"><path d="M0 0 C0 0, 0 0, 0 0 M0 0 C0 0, 0 0, 0 0 M0.63 12.55 C3.26 7.82, 8.49 2.72, 9.57 -1.23 M0.55 12.43 C2.72 8.57, 5.83 6.15, 10.55 -0.22 M1.69 24.82 C6.17 16.23, 12.69 10, 22.48 -1.88 M-0.25 24.59 C6.28 17.28, 11.29 10.56, 21.42 0.37 M-0.84 36.89 C10.14 23.16, 19.15 12.77, 30.75 -0.22 M-0.2 36.6 C8.01 27.45, 15.93 17.07, 31.83 -0.04 M4.68 42.98 C16.17 31.49, 28.76 15.04, 40.65 2.46 M4.8 43.21 C14.96 33.5, 25.33 21.17, 40.24 1.33 M15.08 44.55 C20.3 37.53, 28.99 29.61, 41.48 15.33 M14.55 43.12 C24.14 33.2, 32.54 24.04, 42.22 14.22 M23.94 43.17 C27.19 39.56, 32.68 36.99, 41.64 25.72 M24.93 42.97 C29.13 39.69, 34.15 35.04, 41.7 24.55 M35.73 44.3 C37.96 41.55, 39.21 41.07, 42.23 37.15 M36.22 43.48 C37.91 41.78, 39.58 39.87, 41.89 37.28 M-0.18 39.84 C-0.18 39.84, -0.18 39.84, -0.18 39.84 M-0.18 39.84 C-0.18 39.84, -0.18 39.84, -0.18 39.84 M11.68 38.51 C5.64 35.23, 2.04 32.75, -0.97 28.59 M12.02 39.08 C7.79 34.94, 3 31.85, -0.25 29.14 M23.63 38.57 C16.62 31.68, 4.53 22.63, -0.27 19.6 M25.15 40.85 C17.3 33.17, 8.08 26.17, -1.05 17.98 M38.55 39.54 C28.18 31.64, 15.28 22.61, 1.14 6.92 M35.86 40.52 C27.47 32.77, 18.17 23.61, -0.52 8.45 M42.92 35.65 C31.3 22.81, 17.41 14.16, -0.13 -3.2 M43.54 36.13 C34.1 25.38, 22.23 16.34, 1.42 -1.13 M42.85 23.35 C33.99 18.92, 27.95 11.11, 11.58 -1.22 M42.61 25.54 C34.5 15.69, 25.21 7.37, 13.04 -1.48 M42.79 13.54 C38.05 10.87, 32.24 5.07, 24.36 -2.86 M44.17 13.89 C36.98 9.32, 29.2 3.35, 25.29 -1.59 M44.15 3.72 C42.32 2.39, 39.39 0.11, 38.22 -1.83 M43.9 4.17 C42.53 2.62, 40.97 1.46, 38.19 -1.24" stroke="#82c91e" stroke-width="1" fill="none"></path><path d="M-1.97 -0.74 C11.33 -2.09, 20.59 -1.41, 41.85 -0.95 M0.08 -0.75 C8.66 -0.82, 16.7 0.65, 40.19 0.3 M40.29 -1.79 C39.12 10.12, 41.21 23.96, 41.74 41.17 M40 -0.08 C39.49 11.07, 39.46 21.22, 39.35 40.81 M39.71 41.92 C29.04 38.82, 15.69 41.24, -1.27 38.46 M39.69 39.96 C28.34 40.54, 17.82 39.79, -0.89 39.7 M0.37 41.44 C1.56 30.16, 0.11 21.33, 1.4 0.36 M0.45 40.27 C-0.95 25.62, -1.06 13.13, -0.68 0.87" stroke="#000000" stroke-width="2" fill="none"></path></g><g stroke-linecap="round" transform="translate(150 510) rotate(0 20 20)"><path d="M0 0 C0 0, 0 0, 0 0 M0 0 C0 0, 0 0, 0 0 M0.64 11.48 C4.02 8.55, 7.04 2.25, 9.43 -0.46 M0.53 11.86 C3.98 7.43, 8.87 2.68, 10.44 -0.36 M1.01 24.67 C6.08 17.08, 13.51 8.12, 19.45 -0.58 M0.77 24.47 C7.66 15.15, 15.11 7, 21.7 0.29 M-0.24 36.83 C11.16 20.46, 25.95 6.46, 31.77 -0.89 M-0.53 36.53 C7.64 27.24, 14.56 19.18, 31.96 0.14 M3.82 43.32 C16.25 32.17, 23.76 19.49, 42.3 0.79 M4.05 43.89 C14.32 34.41, 21.93 23.02, 41.17 0.9 M16.05 42.47 C27.1 32.52, 37.25 19.72, 43.25 13.84 M14.62 44.41 C23.95 33.49, 34.08 22.57, 42.15 12.42 M25.33 41.7 C28.63 40.41, 32.96 36.35, 41.74 24.33 M25.14 43.03 C30.18 39.85, 33.85 34.95, 40.57 25.1 M37.12 43.71 C37.31 42.09, 39.75 41.15, 41.26 37.68 M36.31 43.34 C37.74 41.97, 38.97 41.12, 41.39 37.58 M-0.18 39.84 C-0.18 39.84, -0.18 39.84, -0.18 39.84 M-0.18 39.84 C-0.18 39.84, -0.18 39.84, -0.18 39.84 M10.66 38.11 C8 36.04, 5.99 32.75, -0.83 30.48 M11.23 40.26 C7.22 36.56, 4.07 32.68, -0.29 29.8 M22.99 41.65 C15.08 30.77, 4.95 24.15, 0.77 19.1 M25.28 41.06 C16.64 32.96, 8.52 25.33, -0.85 18.35 M36.14 41.82 C26.46 29.76, 15.13 22.42, -1.32 6.85 M37.12 39.82 C27.97 30.65, 16.78 22.34, 0.22 8.01 M43.73 35.99 C30.78 25.57, 22.61 15.24, -0.64 -2.44 M44.21 36.21 C32.67 25.92, 22.48 17.91, 1.42 -1.69 M42.02 23.38 C35.32 17.54, 25.57 7.42, 13.51 -1.12 M44.21 25.34 C34.55 18.73, 26.9 10.9, 13.25 -1.3 M42.91 14.64 C40.93 10.55, 35.56 5.37, 24.04 -0.3 M43.26 14.68 C37.58 7.36, 30.18 1.87, 25.31 -1.26 M43.68 4.41 C42.11 1.72, 39.52 0.69, 37.34 -1.55 M44.14 4.09 C41.67 1.97, 39.47 0.2, 37.93 -1.22" stroke="#82c91e" stroke-width="1" fill="none"></path><path d="M-0.74 1.87 C7.44 2.05, 17.38 2.24, 39.05 -1.94 M-0.75 0.53 C9.43 0.41, 21.28 0.16, 40.3 -0.15 M38.21 -0.63 C38.75 10.91, 41.19 20.63, 41.17 39.3 M39.92 -0.58 C40.36 12.11, 39.9 24.79, 40.81 40.08 M41.92 41.36 C27.31 40.26, 18.45 38.67, -1.54 39.43 M39.96 39.21 C25.61 39.43, 9.97 38.98, -0.3 39.23 M1.44 41.33 C-0.57 30.24, -0.5 22.14, 0.36 0.71 M0.27 39.42 C-1.02 23.64, -0.1 7.99, 0.87 -0.73" stroke="#000000" stroke-width="2" fill="none"></path></g><g transform="translate(10 30) rotate(0 55.5 12.5)"><text x="0" y="18" font-family="Virgil, Segoe UI Emoji" font-size="20px" fill="#000000" text-anchor="start" style="white-space: pre;" direction="ltr">PageStatic</text></g><g stroke-linecap="round"><g transform="translate(150 210) rotate(0 -42.200962959130266 -65.8143999935046)"><path d="M-1.48 -0.88 C-13.56 -1.39, -58.19 19.41, -72.25 -3.15 C-86.31 -25.71, -83.22 -114.06, -85.86 -136.25 M2.91 -3.83 C-8.32 -3.93, -52.05 22.84, -67.08 0 C-82.12 -22.83, -83.76 -117.28, -87.31 -140.86" stroke="#495057" stroke-width="2" fill="none"></path></g><g transform="translate(150 210) rotate(0 -42.200962959130266 -65.8143999935046)"><path d="M-75.97 -116.88 C-79.8 -121.17, -79.98 -132.75, -84.94 -141.83 M-72.88 -115.33 C-80.12 -124.52, -86.23 -134.96, -86.01 -139.18" stroke="#495057" stroke-width="2" fill="none"></path></g><g transform="translate(150 210) rotate(0 -42.200962959130266 -65.8143999935046)"><path d="M-96.41 -115.15 C-93.97 -119.75, -87.88 -131.87, -84.94 -141.83 M-93.33 -113.59 C-92.58 -123.32, -90.68 -134.43, -86.01 -139.18" stroke="#495057" stroke-width="2" fill="none"></path></g></g></svg>