<svg version="1.1" xmlns="http://www.w3.org/2000/svg" viewBox="0 0 561.4698234007319 600">
  <g stroke-linecap="round" transform="translate(170.96817353671395 10) rotate(0 170.28570992606024 200)"><path d="M-0.88 -0.64 C109.23 -2.49, 220.44 -1.29, 339.58 0.86 M-0.25 -0.14 C132.06 -1.22, 265.24 -1.86, 340.39 0.44 M340.44 -0.22 C340.41 133.44, 339.06 267.5, 339.92 399.32 M340.85 0.5 C338.2 128.86, 338.56 258.24, 340.2 400.12 M339.36 399.35 C239.79 399.42, 141.68 399.05, 0.41 401.09 M341.08 400.15 C269.24 400.63, 197.79 399.9, -0.45 399.99 M-0.62 399.51 C1.89 289.03, 3.12 178.25, -0.98 0.68 M0.18 400.42 C0.95 297.2, 1.02 194.19, -0.39 -0.19" stroke="#000000" stroke-width="1" fill="none"></path></g><g stroke-linecap="round" transform="translate(190.96817353671395 30) rotate(0 150.1435091444887 20)"><path d="M0 0 C0 0, 0 0, 0 0 M0 0 C0 0, 0 0, 0 0 M-0.26 6.4 C1.33 4.56, 2.93 2.73, 4.99 0.36 M-0.26 6.4 C0.89 5.07, 2.04 3.75, 4.99 0.36 M0.13 12.04 C2.45 9.38, 4.77 6.71, 10.63 -0.03 M0.13 12.04 C3.47 8.2, 6.8 4.37, 10.63 -0.03 M-0.13 18.44 C5.85 11.57, 11.82 4.69, 15.62 0.33 M-0.13 18.44 C3.94 13.76, 8 9.09, 15.62 0.33 M0.27 24.08 C4.97 18.67, 9.67 13.26, 21.26 -0.07 M0.27 24.08 C7.31 15.98, 14.35 7.87, 21.26 -0.07 M0 30.48 C10.38 18.55, 20.75 6.61, 26.25 0.29 M0 30.48 C7.83 21.48, 15.66 12.47, 26.25 0.29 M-0.26 36.88 C7.17 28.33, 14.6 19.78, 31.89 -0.1 M-0.26 36.88 C7.7 27.73, 15.65 18.58, 31.89 -0.1 M1.45 41.01 C10.88 30.16, 20.31 19.32, 36.88 0.26 M1.45 41.01 C13.41 27.25, 25.37 13.5, 36.88 0.26 M6.44 41.37 C18.41 27.59, 30.39 13.82, 42.52 -0.14 M6.44 41.37 C16.4 29.91, 26.36 18.45, 42.52 -0.14 M12.08 40.98 C21.18 30.51, 30.27 20.05, 47.51 0.22 M12.08 40.98 C20 31.86, 27.92 22.75, 47.51 0.22 M17.07 41.34 C30.28 26.14, 43.49 10.94, 53.15 -0.17 M17.07 41.34 C27.68 29.13, 38.29 16.93, 53.15 -0.17 M22.71 40.94 C36.25 25.37, 49.78 9.8, 58.14 0.19 M22.71 40.94 C31.71 30.58, 40.72 20.23, 58.14 0.19 M27.7 41.3 C39.38 27.87, 51.05 14.43, 63.78 -0.21 M27.7 41.3 C35.78 32, 43.86 22.7, 63.78 -0.21 M33.34 40.91 C40.67 32.48, 48 24.05, 68.77 0.15 M33.34 40.91 C46.69 25.55, 60.04 10.2, 68.77 0.15 M38.33 41.27 C50.75 26.97, 63.18 12.68, 74.41 -0.24 M38.33 41.27 C46.94 31.36, 55.55 21.45, 74.41 -0.24 M43.97 40.87 C52.68 30.85, 61.4 20.82, 79.4 0.12 M43.97 40.87 C57.76 25.01, 71.55 9.15, 79.4 0.12 M48.96 41.23 C60.44 28.03, 71.92 14.82, 85.04 -0.28 M48.96 41.23 C61.97 26.26, 74.99 11.29, 85.04 -0.28 M54.6 40.84 C67.51 25.99, 80.41 11.15, 90.03 0.08 M54.6 40.84 C66.61 27.02, 78.62 13.21, 90.03 0.08 M59.59 41.2 C69.86 29.38, 80.13 17.56, 95.67 -0.31 M59.59 41.2 C69.07 30.29, 78.55 19.39, 95.67 -0.31 M65.23 40.8 C78.57 25.46, 91.92 10.11, 100.66 0.05 M65.23 40.8 C76.7 27.61, 88.18 14.41, 100.66 0.05 M70.22 41.16 C78.66 31.45, 87.11 21.74, 106.3 -0.34 M70.22 41.16 C79.87 30.07, 89.51 18.97, 106.3 -0.34 M75.2 41.52 C84.15 31.24, 93.09 20.95, 111.29 0.02 M75.2 41.52 C85.72 29.43, 96.24 17.33, 111.29 0.02 M80.85 41.13 C91.68 28.66, 102.52 16.2, 116.27 0.38 M80.85 41.13 C93.15 26.97, 105.46 12.82, 116.27 0.38 M85.83 41.49 C96.4 29.34, 106.96 17.18, 121.92 -0.02 M85.83 41.49 C94.47 31.55, 103.11 21.61, 121.92 -0.02 M91.48 41.1 C105.3 25.2, 119.12 9.3, 126.91 0.34 M91.48 41.1 C103 27.84, 114.52 14.58, 126.91 0.34 M96.46 41.46 C110.04 25.84, 123.62 10.22, 132.55 -0.05 M96.46 41.46 C104.24 32.51, 112.01 23.57, 132.55 -0.05 M102.11 41.06 C113.68 27.75, 125.25 14.44, 137.54 0.31 M102.11 41.06 C111.81 29.9, 121.51 18.74, 137.54 0.31 M107.09 41.42 C118.4 28.42, 129.7 15.42, 143.18 -0.09 M107.09 41.42 C118.54 28.25, 129.99 15.09, 143.18 -0.09 M112.74 41.03 C123.55 28.59, 134.36 16.16, 148.17 0.27 M112.74 41.03 C123.92 28.16, 135.1 15.3, 148.17 0.27 M117.73 41.39 C127.41 30.25, 137.09 19.11, 153.81 -0.12 M117.73 41.39 C128.27 29.25, 138.82 17.12, 153.81 -0.12 M123.37 40.99 C132.78 30.17, 142.19 19.34, 158.8 0.24 M123.37 40.99 C131.28 31.89, 139.2 22.78, 158.8 0.24 M128.36 41.35 C141.22 26.55, 154.09 11.75, 164.44 -0.16 M128.36 41.35 C140.56 27.31, 152.77 13.26, 164.44 -0.16 M134 40.96 C144.55 28.82, 155.1 16.68, 169.43 0.2 M134 40.96 C141.78 32, 149.57 23.05, 169.43 0.2 M138.99 41.32 C147.74 31.24, 156.5 21.16, 175.07 -0.19 M138.99 41.32 C149.92 28.74, 160.86 16.15, 175.07 -0.19 M144.63 40.92 C153.19 31.07, 161.75 21.22, 180.06 0.17 M144.63 40.92 C157.99 25.55, 171.36 10.17, 180.06 0.17 M149.62 41.28 C161.95 27.1, 174.28 12.91, 185.7 -0.23 M149.62 41.28 C159.87 29.49, 170.12 17.69, 185.7 -0.23 M155.26 40.89 C165.42 29.19, 175.59 17.5, 190.69 0.13 M155.26 40.89 C163.01 31.97, 170.76 23.06, 190.69 0.13 M160.25 41.25 C168.12 32.19, 176 23.12, 196.33 -0.26 M160.25 41.25 C168.52 31.73, 176.79 22.22, 196.33 -0.26 M165.89 40.85 C179.12 25.63, 192.36 10.41, 201.32 0.1 M165.89 40.85 C177.11 27.94, 188.33 15.03, 201.32 0.1 M170.88 41.21 C184.85 25.13, 198.83 9.05, 206.96 -0.3 M170.88 41.21 C183 27.27, 195.12 13.33, 206.96 -0.3 M176.52 40.82 C190.38 24.87, 204.24 8.93, 211.95 0.06 M176.52 40.82 C186.94 28.84, 197.35 16.85, 211.95 0.06 M181.51 41.18 C192.83 28.16, 204.15 15.13, 217.59 -0.33 M181.51 41.18 C190.59 30.72, 199.68 20.27, 217.59 -0.33 M187.15 40.78 C200.61 25.3, 214.07 9.81, 222.58 0.03 M187.15 40.78 C195.05 31.69, 202.96 22.6, 222.58 0.03 M192.14 41.14 C199.79 32.33, 207.45 23.52, 228.22 -0.36 M192.14 41.14 C202.05 29.74, 211.96 18.33, 228.22 -0.36 M197.12 41.5 C209.01 27.83, 220.91 14.15, 233.21 0 M197.12 41.5 C205.31 32.09, 213.49 22.68, 233.21 0 M202.77 41.11 C211.54 31.01, 220.32 20.91, 238.19 0.36 M202.77 41.11 C215.25 26.75, 227.73 12.4, 238.19 0.36 M207.75 41.47 C221.46 25.71, 235.16 9.94, 243.84 -0.04 M207.75 41.47 C217.77 29.95, 227.79 18.43, 243.84 -0.04 M213.4 41.08 C225.27 27.42, 237.14 13.76, 248.82 0.32 M213.4 41.08 C223.39 29.58, 233.38 18.09, 248.82 0.32 M218.38 41.44 C226.34 32.28, 234.3 23.13, 254.47 -0.07 M218.38 41.44 C232.75 24.91, 247.12 8.38, 254.47 -0.07 M224.03 41.04 C236.04 27.22, 248.06 13.39, 259.45 0.29 M224.03 41.04 C235.07 28.34, 246.11 15.63, 259.45 0.29 M229.01 41.4 C239.53 29.3, 250.06 17.19, 265.1 -0.11 M229.01 41.4 C238.44 30.55, 247.88 19.7, 265.1 -0.11 M234.66 41.01 C244.39 29.81, 254.13 18.61, 270.08 0.25 M234.66 41.01 C246.67 27.19, 258.68 13.37, 270.08 0.25 M239.64 41.37 C253.46 25.47, 267.27 9.58, 275.73 -0.14 M239.64 41.37 C253.7 25.19, 267.76 9.02, 275.73 -0.14 M245.29 40.97 C256.15 28.47, 267.02 15.97, 280.71 0.22 M245.29 40.97 C256.32 28.28, 267.36 15.58, 280.71 0.22 M250.27 41.33 C258.72 31.61, 267.18 21.89, 286.36 -0.18 M250.27 41.33 C263.11 26.56, 275.95 11.8, 286.36 -0.18 M255.92 40.94 C268.31 26.68, 280.71 12.41, 291.34 0.18 M255.92 40.94 C263.95 31.69, 271.99 22.45, 291.34 0.18 M260.9 41.3 C273.01 27.37, 285.11 13.45, 296.99 -0.21 M260.9 41.3 C274.7 25.43, 288.49 9.56, 296.99 -0.21 M266.55 40.9 C275.91 30.14, 285.27 19.37, 301.32 0.9 M266.55 40.9 C278.12 27.59, 289.69 14.28, 301.32 0.9 M271.53 41.26 C281.17 30.18, 290.81 19.09, 301.06 7.3 M271.53 41.26 C281.63 29.65, 291.73 18.03, 301.06 7.3 M277.18 40.87 C283.96 33.07, 290.74 25.27, 301.45 12.94 M277.18 40.87 C285.11 31.74, 293.05 22.61, 301.45 12.94 M282.16 41.23 C289.72 32.54, 297.27 23.85, 301.19 19.34 M282.16 41.23 C288.96 33.41, 295.76 25.58, 301.19 19.34 M287.81 40.83 C292.56 35.36, 297.32 29.89, 301.58 24.99 M287.81 40.83 C292.72 35.18, 297.64 29.52, 301.58 24.99 M292.79 41.19 C295.24 38.38, 297.69 35.56, 301.32 31.38 M292.79 41.19 C294.51 39.22, 296.23 37.24, 301.32 31.38 M298.44 40.8 C299.44 39.65, 300.44 38.5, 301.06 37.78 M298.44 40.8 C299.01 40.13, 299.59 39.47, 301.06 37.78" stroke="#15aabf" stroke-width="0.5" fill="none"></path><path d="M0 0 C115.66 0, 231.32 0, 300.29 0 M0 0 C105.68 0, 211.37 0, 300.29 0 M300.29 0 C300.29 10.53, 300.29 21.07, 300.29 40 M300.29 0 C300.29 8.23, 300.29 16.47, 300.29 40 M300.29 40 C235.38 40, 170.48 40, 0 40 M300.29 40 C203.13 40, 105.97 40, 0 40 M0 40 C0 31.87, 0 23.73, 0 0 M0 40 C0 30.62, 0 21.24, 0 0" stroke="#000000" stroke-width="1" fill="none"></path></g><g stroke-linecap="round" transform="translate(190.96817353671395 350) rotate(0 150 24.16670566134985)"><path d="M0 0 C0 0, 0 0, 0 0 M0 0 C0 0, 0 0, 0 0 M-0.26 6.4 C1.24 4.67, 2.75 2.94, 4.99 0.36 M-0.26 6.4 C1.48 4.39, 3.22 2.39, 4.99 0.36 M0.13 12.04 C2.83 8.94, 5.52 5.84, 10.63 -0.03 M0.13 12.04 C4.02 7.56, 7.92 3.09, 10.63 -0.03 M-0.13 18.44 C4.25 13.4, 8.63 8.36, 15.62 0.33 M-0.13 18.44 C4.55 13.05, 9.23 7.67, 15.62 0.33 M0.27 24.08 C7.59 15.65, 14.92 7.22, 21.26 -0.07 M0.27 24.08 C8.65 14.44, 17.03 4.8, 21.26 -0.07 M0 30.48 C5.79 23.83, 11.57 17.18, 26.25 0.29 M0 30.48 C9.49 19.57, 18.97 8.66, 26.25 0.29 M-0.26 36.88 C9.28 25.91, 18.81 14.94, 31.89 -0.1 M-0.26 36.88 C11.48 23.38, 23.22 9.88, 31.89 -0.1 M0.14 42.52 C12.46 28.35, 24.78 14.17, 36.88 0.26 M0.14 42.52 C14.43 26.08, 28.72 9.64, 36.88 0.26 M0.53 48.16 C15.11 31.39, 29.69 14.62, 42.52 -0.14 M0.53 48.16 C13.47 33.28, 26.41 18.39, 42.52 -0.14 M5.52 48.52 C17.95 34.23, 30.38 19.93, 47.51 0.22 M5.52 48.52 C22.1 29.44, 38.69 10.37, 47.51 0.22 M10.51 48.88 C27.5 29.33, 44.5 9.78, 53.15 -0.17 M10.51 48.88 C19.82 38.17, 29.13 27.46, 53.15 -0.17 M16.15 48.49 C25.59 37.62, 35.04 26.76, 58.14 0.19 M16.15 48.49 C30.61 31.86, 45.06 15.23, 58.14 0.19 M21.14 48.85 C38.12 29.31, 55.1 9.78, 63.78 -0.21 M21.14 48.85 C31.18 37.3, 41.22 25.74, 63.78 -0.21 M26.78 48.45 C39.16 34.22, 51.53 19.98, 68.77 0.15 M26.78 48.45 C41.55 31.47, 56.31 14.48, 68.77 0.15 M31.77 48.81 C46.43 31.94, 61.1 15.07, 74.41 -0.24 M31.77 48.81 C42.4 36.58, 53.04 24.35, 74.41 -0.24 M37.41 48.42 C51.19 32.57, 64.97 16.71, 79.4 0.12 M37.41 48.42 C49.25 34.8, 61.09 21.18, 79.4 0.12 M42.4 48.78 C54.48 34.88, 66.56 20.99, 85.04 -0.28 M42.4 48.78 C55.18 34.07, 67.97 19.36, 85.04 -0.28 M48.04 48.39 C64.75 29.17, 81.45 9.95, 90.03 0.08 M48.04 48.39 C62.74 31.48, 77.44 14.56, 90.03 0.08 M53.03 48.75 C66.42 33.34, 79.8 17.94, 95.67 -0.31 M53.03 48.75 C69.09 30.26, 85.16 11.78, 95.67 -0.31 M58.67 48.35 C68.18 37.41, 77.69 26.47, 100.66 0.05 M58.67 48.35 C72.14 32.85, 85.61 17.36, 100.66 0.05 M63.66 48.71 C80.02 29.89, 96.38 11.07, 106.3 -0.34 M63.66 48.71 C73.04 37.92, 82.42 27.12, 106.3 -0.34 M69.3 48.32 C85.53 29.64, 101.77 10.97, 111.29 0.02 M69.3 48.32 C82.28 33.39, 95.25 18.46, 111.29 0.02 M74.29 48.68 C86.46 34.67, 98.63 20.67, 116.27 0.38 M74.29 48.68 C87.7 33.25, 101.11 17.82, 116.27 0.38 M79.93 48.28 C92.57 33.74, 105.21 19.21, 121.92 -0.02 M79.93 48.28 C95.87 29.95, 111.8 11.62, 121.92 -0.02 M84.92 48.64 C96.69 35.09, 108.47 21.55, 126.91 0.34 M84.92 48.64 C98.13 33.44, 111.35 18.24, 126.91 0.34 M90.56 48.25 C100.73 36.55, 110.9 24.85, 132.55 -0.05 M90.56 48.25 C105.14 31.48, 119.72 14.71, 132.55 -0.05 M95.55 48.61 C106.17 36.39, 116.79 24.17, 137.54 0.31 M95.55 48.61 C112.17 29.48, 128.8 10.36, 137.54 0.31 M101.19 48.21 C115.17 32.13, 129.15 16.05, 143.18 -0.09 M101.19 48.21 C117.01 30.01, 132.84 11.81, 143.18 -0.09 M106.18 48.57 C121.09 31.42, 136 14.27, 148.17 0.27 M106.18 48.57 C118.89 33.95, 131.6 19.32, 148.17 0.27 M111.82 48.18 C126.34 31.47, 140.86 14.77, 153.81 -0.12 M111.82 48.18 C127.92 29.66, 144.02 11.14, 153.81 -0.12 M116.81 48.54 C132.95 29.97, 149.1 11.39, 158.8 0.24 M116.81 48.54 C130.46 32.83, 144.11 17.13, 158.8 0.24 M121.79 48.9 C134.74 34, 147.69 19.11, 164.44 -0.16 M121.79 48.9 C131.67 37.54, 141.55 26.18, 164.44 -0.16 M127.44 48.5 C143.76 29.72, 160.09 10.94, 169.43 0.2 M127.44 48.5 C140.16 33.87, 152.87 19.24, 169.43 0.2 M132.42 48.86 C144.32 35.18, 156.21 21.5, 175.07 -0.19 M132.42 48.86 C146.77 32.37, 161.11 15.87, 175.07 -0.19 M138.07 48.47 C149.22 35.64, 160.38 22.8, 180.06 0.17 M138.07 48.47 C147.55 37.56, 157.03 26.65, 180.06 0.17 M143.05 48.83 C159.87 29.49, 176.68 10.15, 185.7 -0.23 M143.05 48.83 C154.24 35.96, 165.43 23.08, 185.7 -0.23 M148.7 48.44 C163.93 30.91, 179.16 13.39, 190.69 0.13 M148.7 48.44 C158.52 37.14, 168.33 25.85, 190.69 0.13 M153.68 48.8 C163.17 37.88, 172.66 26.97, 196.33 -0.26 M153.68 48.8 C167.53 32.87, 181.38 16.94, 196.33 -0.26 M159.33 48.4 C170.99 34.98, 182.65 21.57, 201.32 0.1 M159.33 48.4 C168.43 37.93, 177.52 27.47, 201.32 0.1 M164.31 48.76 C180.78 29.82, 197.25 10.88, 206.96 -0.3 M164.31 48.76 C180.87 29.72, 197.42 10.68, 206.96 -0.3 M169.96 48.37 C180.8 35.89, 191.65 23.42, 211.95 0.06 M169.96 48.37 C178.96 38.02, 187.95 27.67, 211.95 0.06 M174.94 48.73 C190.21 31.17, 205.47 13.61, 217.59 -0.33 M174.94 48.73 C186.35 35.61, 197.75 22.49, 217.59 -0.33 M180.59 48.33 C189.07 38.58, 197.55 28.82, 222.58 0.03 M180.59 48.33 C189.68 37.88, 198.77 27.42, 222.58 0.03 M185.58 48.69 C196.68 35.91, 207.79 23.13, 228.22 -0.36 M185.58 48.69 C199.54 32.63, 213.5 16.57, 228.22 -0.36 M191.22 48.3 C201.99 35.9, 212.76 23.51, 233.21 0 M191.22 48.3 C206.46 30.76, 221.71 13.22, 233.21 0 M196.21 48.66 C207.39 35.79, 218.58 22.91, 238.19 0.36 M196.21 48.66 C208.09 34.99, 219.97 21.31, 238.19 0.36 M201.85 48.26 C211.07 37.65, 220.29 27.05, 243.84 -0.04 M201.85 48.26 C216.29 31.65, 230.73 15.04, 243.84 -0.04 M206.84 48.62 C223.57 29.37, 240.3 10.12, 248.82 0.32 M206.84 48.62 C223.59 29.34, 240.35 10.07, 248.82 0.32 M212.48 48.23 C226.71 31.86, 240.94 15.49, 254.47 -0.07 M212.48 48.23 C229.23 28.96, 245.98 9.69, 254.47 -0.07 M217.47 48.59 C231.29 32.68, 245.12 16.77, 259.45 0.29 M217.47 48.59 C229.66 34.56, 241.86 20.53, 259.45 0.29 M223.11 48.19 C236.21 33.13, 249.3 18.06, 265.1 -0.11 M223.11 48.19 C236.45 32.84, 249.8 17.49, 265.1 -0.11 M228.1 48.55 C244.12 30.12, 260.14 11.69, 270.08 0.25 M228.1 48.55 C241.61 33, 255.13 17.45, 270.08 0.25 M233.74 48.16 C245.77 34.32, 257.8 20.49, 275.73 -0.14 M233.74 48.16 C243.84 36.54, 253.94 24.92, 275.73 -0.14 M238.73 48.52 C252.49 32.68, 266.26 16.85, 280.71 0.22 M238.73 48.52 C247.48 38.45, 256.22 28.39, 280.71 0.22 M243.71 48.88 C254.81 36.12, 265.9 23.36, 286.36 -0.18 M243.71 48.88 C254.67 36.28, 265.63 23.67, 286.36 -0.18 M249.36 48.48 C265.77 29.61, 282.18 10.73, 291.34 0.18 M249.36 48.48 C258.37 38.12, 267.38 27.75, 291.34 0.18 M254.34 48.84 C266.31 35.08, 278.27 21.31, 296.99 -0.21 M254.34 48.84 C263.16 38.7, 271.98 28.56, 296.99 -0.21 M259.99 48.45 C270.04 36.89, 280.09 25.32, 301.32 0.9 M259.99 48.45 C274.68 31.55, 289.38 14.64, 301.32 0.9 M264.97 48.81 C273.83 38.62, 282.69 28.43, 301.06 7.3 M264.97 48.81 C275.07 37.19, 285.18 25.57, 301.06 7.3 M270.62 48.42 C277.02 41.05, 283.42 33.69, 301.45 12.94 M270.62 48.42 C282.82 34.37, 295.03 20.33, 301.45 12.94 M275.6 48.78 C283.34 39.87, 291.08 30.97, 301.19 19.34 M275.6 48.78 C281.14 42.41, 286.67 36.04, 301.19 19.34 M281.25 48.38 C286.3 42.57, 291.35 36.76, 300.93 25.74 M281.25 48.38 C286.18 42.71, 291.11 37.03, 300.93 25.74 M286.23 48.74 C289.99 44.41, 293.76 40.09, 301.32 31.38 M286.23 48.74 C290.85 43.44, 295.46 38.13, 301.32 31.38 M291.88 48.35 C293.83 46.1, 295.79 43.85, 301.06 37.78 M291.88 48.35 C295.41 44.28, 298.94 40.22, 301.06 37.78 M296.86 48.71 C298.39 46.95, 299.93 45.18, 301.46 43.42 M296.86 48.71 C298.64 46.66, 300.43 44.61, 301.46 43.42" stroke="#228be6" stroke-width="0.5" fill="none"></path><path d="M0 0 C115.77 0, 231.53 0, 300 0 M0 0 C108.35 0, 216.7 0, 300 0 M300 0 C300 15.14, 300 30.28, 300 48.33 M300 0 C300 18.75, 300 37.5, 300 48.33 M300 48.33 C210.63 48.33, 121.27 48.33, 0 48.33 M300 48.33 C205.04 48.33, 110.08 48.33, 0 48.33 M0 48.33 C0 35.17, 0 22.01, 0 0 M0 48.33 C0 31.4, 0 14.46, 0 0" stroke="#000000" stroke-width="1" fill="none"></path></g><g stroke-linecap="round" transform="translate(191.44310069974563 98) rotate(0 150.45412588810586 9.91306365966409)"><path d="M0 0 C0 0, 0 0, 0 0 M0 0 C0 0, 0 0, 0 0 M-0.26 6.4 C0.88 5.09, 2.02 3.78, 4.99 0.36 M-0.26 6.4 C1.72 4.11, 3.71 1.83, 4.99 0.36 M0.13 12.04 C3.12 8.6, 6.12 5.16, 10.63 -0.03 M0.13 12.04 C2.95 8.81, 5.76 5.57, 10.63 -0.03 M-0.13 18.44 C3.9 13.81, 7.93 9.17, 15.62 0.33 M-0.13 18.44 C3.38 14.4, 6.89 10.37, 15.62 0.33 M2.23 21.82 C7.08 16.24, 11.93 10.67, 21.26 -0.07 M2.23 21.82 C9.02 14.01, 15.8 6.21, 21.26 -0.07 M7.88 21.42 C11.63 17.11, 15.38 12.8, 26.25 0.29 M7.88 21.42 C12.22 16.43, 16.57 11.43, 26.25 0.29 M12.86 21.78 C19.01 14.72, 25.15 7.65, 31.89 -0.1 M12.86 21.78 C20.14 13.42, 27.41 5.05, 31.89 -0.1 M17.85 22.14 C22.17 17.18, 26.49 12.21, 36.88 0.26 M17.85 22.14 C24.84 14.1, 31.83 6.06, 36.88 0.26 M23.49 21.75 C27.85 16.73, 32.21 11.72, 42.52 -0.14 M23.49 21.75 C29.54 14.79, 35.58 7.84, 42.52 -0.14 M28.48 22.11 C33.03 16.88, 37.58 11.64, 47.51 0.22 M28.48 22.11 C32.53 17.45, 36.58 12.79, 47.51 0.22 M34.12 21.71 C39.14 15.95, 44.15 10.18, 53.15 -0.17 M34.12 21.71 C41.46 13.28, 48.79 4.84, 53.15 -0.17 M39.11 22.07 C44.92 15.39, 50.74 8.7, 58.14 0.19 M39.11 22.07 C43.31 17.24, 47.52 12.4, 58.14 0.19 M44.75 21.68 C49.81 15.87, 54.86 10.05, 63.78 -0.21 M44.75 21.68 C49.67 16.03, 54.58 10.38, 63.78 -0.21 M49.74 22.04 C54.32 16.77, 58.91 11.5, 68.77 0.15 M49.74 22.04 C55.24 15.71, 60.74 9.39, 68.77 0.15 M55.38 21.65 C59.67 16.71, 63.96 11.78, 74.41 -0.24 M55.38 21.65 C60.3 15.99, 65.22 10.33, 74.41 -0.24 M60.37 22.01 C64.37 17.41, 68.37 12.81, 79.4 0.12 M60.37 22.01 C67.31 14.02, 74.25 6.04, 79.4 0.12 M66.02 21.61 C71.4 15.42, 76.78 9.23, 85.04 -0.28 M66.02 21.61 C72.85 13.75, 79.68 5.89, 85.04 -0.28 M71 21.97 C77.24 14.79, 83.49 7.61, 90.03 0.08 M71 21.97 C75.68 16.59, 80.36 11.2, 90.03 0.08 M76.65 21.58 C82.88 14.41, 89.11 7.24, 95.67 -0.31 M76.65 21.58 C83.93 13.2, 91.21 4.82, 95.67 -0.31 M81.63 21.94 C86.57 16.25, 91.51 10.57, 100.66 0.05 M81.63 21.94 C88.87 13.61, 96.1 5.29, 100.66 0.05 M87.28 21.54 C94.88 12.8, 102.48 4.05, 106.3 -0.34 M87.28 21.54 C91.12 17.12, 94.96 12.7, 106.3 -0.34 M92.26 21.9 C96.44 17.1, 100.62 12.29, 111.29 0.02 M92.26 21.9 C97.31 16.1, 102.35 10.3, 111.29 0.02 M97.91 21.51 C103.21 15.41, 108.51 9.31, 116.27 0.38 M97.91 21.51 C104.14 14.33, 110.38 7.16, 116.27 0.38 M102.89 21.87 C109.99 13.71, 117.08 5.55, 121.92 -0.02 M102.89 21.87 C107.62 16.43, 112.35 10.99, 121.92 -0.02 M108.54 21.47 C114.68 14.4, 120.83 7.33, 126.91 0.34 M108.54 21.47 C115.3 13.7, 122.06 5.92, 126.91 0.34 M113.52 21.83 C117.98 16.71, 122.43 11.59, 132.55 -0.05 M113.52 21.83 C119.76 14.66, 125.99 7.49, 132.55 -0.05 M119.17 21.44 C123.34 16.63, 127.52 11.82, 137.54 0.31 M119.17 21.44 C124.86 14.89, 130.56 8.33, 137.54 0.31 M124.15 21.8 C129.26 15.93, 134.36 10.05, 143.18 -0.09 M124.15 21.8 C130.82 14.12, 137.5 6.45, 143.18 -0.09 M129.14 22.16 C133.08 17.63, 137.01 13.1, 148.17 0.27 M129.14 22.16 C133.67 16.94, 138.21 11.73, 148.17 0.27 M134.78 21.76 C140.31 15.41, 145.83 9.05, 153.81 -0.12 M134.78 21.76 C138.87 17.06, 142.96 12.36, 153.81 -0.12 M139.77 22.12 C144.77 16.37, 149.77 10.62, 158.8 0.24 M139.77 22.12 C145.01 16.09, 150.25 10.06, 158.8 0.24 M145.41 21.73 C150.45 15.93, 155.5 10.13, 164.44 -0.16 M145.41 21.73 C150.52 15.86, 155.62 9.99, 164.44 -0.16 M150.4 22.09 C156.77 14.76, 163.14 7.43, 169.43 0.2 M150.4 22.09 C157.9 13.46, 165.4 4.83, 169.43 0.2 M156.04 21.69 C161.89 14.97, 167.73 8.25, 175.07 -0.19 M156.04 21.69 C161.9 14.95, 167.77 8.21, 175.07 -0.19 M161.03 22.05 C166.99 15.2, 172.95 8.35, 180.06 0.17 M161.03 22.05 C165.16 17.3, 169.29 12.55, 180.06 0.17 M166.67 21.66 C172.03 15.5, 177.38 9.34, 185.7 -0.23 M166.67 21.66 C173.95 13.29, 181.22 4.93, 185.7 -0.23 M171.66 22.02 C176.18 16.82, 180.69 11.63, 190.69 0.13 M171.66 22.02 C175.79 17.27, 179.92 12.52, 190.69 0.13 M177.3 21.63 C181.17 17.18, 185.03 12.74, 196.33 -0.26 M177.3 21.63 C184.69 13.13, 192.08 4.63, 196.33 -0.26 M182.29 21.99 C187.95 15.47, 193.61 8.96, 201.32 0.1 M182.29 21.99 C188.31 15.06, 194.33 8.14, 201.32 0.1 M187.93 21.59 C192.44 16.41, 196.94 11.23, 206.96 -0.3 M187.93 21.59 C193.15 15.59, 198.36 9.59, 206.96 -0.3 M192.92 21.95 C197.36 16.85, 201.8 11.74, 211.95 0.06 M192.92 21.95 C198.4 15.65, 203.87 9.35, 211.95 0.06 M198.56 21.56 C204.21 15.06, 209.87 8.55, 217.59 -0.33 M198.56 21.56 C203.07 16.37, 207.58 11.18, 217.59 -0.33 M203.55 21.92 C209.92 14.59, 216.28 7.27, 222.58 0.03 M203.55 21.92 C210.29 14.16, 217.03 6.41, 222.58 0.03 M209.19 21.52 C213.93 16.07, 218.67 10.62, 228.22 -0.36 M209.19 21.52 C215.38 14.41, 221.56 7.3, 228.22 -0.36 M214.18 21.88 C218.77 16.6, 223.36 11.32, 233.21 0 M214.18 21.88 C221.56 13.39, 228.95 4.9, 233.21 0 M219.82 21.49 C225.48 14.98, 231.13 8.48, 238.19 0.36 M219.82 21.49 C224.15 16.51, 228.47 11.54, 238.19 0.36 M224.81 21.85 C231.34 14.34, 237.86 6.83, 243.84 -0.04 M224.81 21.85 C230.75 15.02, 236.68 8.19, 243.84 -0.04 M230.45 21.45 C234.82 16.43, 239.19 11.4, 248.82 0.32 M230.45 21.45 C236.26 14.77, 242.07 8.09, 248.82 0.32 M235.44 21.81 C242.67 13.5, 249.9 5.18, 254.47 -0.07 M235.44 21.81 C241.13 15.27, 246.81 8.73, 254.47 -0.07 M241.08 21.42 C247.59 13.94, 254.09 6.46, 259.45 0.29 M241.08 21.42 C247.78 13.71, 254.48 6.01, 259.45 0.29 M246.07 21.78 C250.67 16.49, 255.27 11.2, 265.1 -0.11 M246.07 21.78 C253.13 13.66, 260.19 5.53, 265.1 -0.11 M251.06 22.14 C257.17 15.11, 263.28 8.07, 270.08 0.25 M251.06 22.14 C255.41 17.13, 259.76 12.12, 270.08 0.25 M256.7 21.74 C263.71 13.69, 270.71 5.63, 275.73 -0.14 M256.7 21.74 C260.53 17.33, 264.37 12.93, 275.73 -0.14 M261.69 22.1 C268.43 14.35, 275.18 6.59, 280.71 0.22 M261.69 22.1 C265.61 17.59, 269.53 13.08, 280.71 0.22 M267.33 21.71 C273.98 14.07, 280.62 6.42, 286.36 -0.18 M267.33 21.71 C273.28 14.87, 279.23 8.03, 286.36 -0.18 M272.32 22.07 C276.47 17.29, 280.63 12.51, 291.34 0.18 M272.32 22.07 C276.96 16.72, 281.61 11.38, 291.34 0.18 M277.96 21.68 C284.14 14.57, 290.32 7.46, 296.99 -0.21 M277.96 21.68 C283.23 15.61, 288.51 9.54, 296.99 -0.21 M282.95 22.04 C287.14 17.22, 291.32 12.4, 301.32 0.9 M282.95 22.04 C289.21 14.83, 295.47 7.63, 301.32 0.9 M288.59 21.64 C293.64 15.84, 298.68 10.03, 301.71 6.55 M288.59 21.64 C292.76 16.84, 296.93 12.04, 301.71 6.55 M293.58 22 C295.53 19.76, 297.48 17.51, 301.45 12.94 M293.58 22 C296.28 18.89, 298.99 15.77, 301.45 12.94 M299.22 21.61 C300.19 20.49, 301.15 19.38, 301.85 18.59 M299.22 21.61 C300.03 20.68, 300.83 19.75, 301.85 18.59 M-0.01 19.82 C-0.01 19.82, -0.01 19.82, -0.01 19.82 M-0.01 19.82 C-0.01 19.82, -0.01 19.82, -0.01 19.82 M6.39 20.08 C4.78 18.69, 3.18 17.29, 0.35 14.83 M6.39 20.08 C4.17 18.15, 1.95 16.22, 0.35 14.83 M12.04 19.69 C8.07 16.24, 4.1 12.79, -0.04 9.19 M12.04 19.69 C8.31 16.45, 4.58 13.21, -0.04 9.19 M18.43 19.95 C14.49 16.52, 10.54 13.09, 0.32 4.2 M18.43 19.95 C13.49 15.65, 8.54 11.35, 0.32 4.2 M24.08 19.56 C17.78 14.09, 11.49 8.62, 0.68 -0.78 M24.08 19.56 C19.03 15.17, 13.98 10.78, 0.68 -0.78 M30.47 19.82 C23.15 13.45, 15.82 7.08, 7.08 -0.52 M30.47 19.82 C24.75 14.84, 19.03 9.87, 7.08 -0.52 M36.87 20.08 C27.72 12.12, 18.56 4.16, 12.72 -0.92 M36.87 20.08 C29.15 13.36, 21.42 6.65, 12.72 -0.92 M42.51 19.68 C33.34 11.71, 24.17 3.74, 19.12 -0.65 M42.51 19.68 C34.2 12.45, 25.88 5.22, 19.12 -0.65 M48.91 19.94 C42.3 14.19, 35.68 8.44, 24.76 -1.05 M48.91 19.94 C41.22 13.26, 33.54 6.58, 24.76 -1.05 M54.56 19.55 C48.85 14.59, 43.14 9.62, 31.16 -0.79 M54.56 19.55 C46.87 12.87, 39.19 6.19, 31.16 -0.79 M60.95 19.81 C53.51 13.34, 46.06 6.87, 37.56 -0.53 M60.95 19.81 C52.56 12.51, 44.16 5.21, 37.56 -0.53 M67.35 20.07 C62.3 15.68, 57.24 11.29, 43.2 -0.92 M67.35 20.07 C59.23 13.02, 51.12 5.96, 43.2 -0.92 M72.99 19.68 C67.69 15.06, 62.38 10.45, 49.6 -0.66 M72.99 19.68 C67.4 14.81, 61.8 9.94, 49.6 -0.66 M79.39 19.94 C70.27 12.01, 61.16 4.09, 55.24 -1.05 M79.39 19.94 C74.54 15.72, 69.68 11.5, 55.24 -1.05 M85.04 19.55 C78.84 14.16, 72.65 8.78, 61.64 -0.79 M85.04 19.55 C80.19 15.33, 75.35 11.12, 61.64 -0.79 M91.43 19.81 C82.34 11.9, 73.25 4, 68.04 -0.53 M91.43 19.81 C82.17 11.75, 72.9 3.7, 68.04 -0.53 M97.83 20.07 C91.88 14.89, 85.92 9.71, 73.68 -0.93 M97.83 20.07 C89.14 12.51, 80.45 4.96, 73.68 -0.93 M103.47 19.67 C98.03 14.94, 92.59 10.22, 80.08 -0.66 M103.47 19.67 C97.77 14.72, 92.07 9.76, 80.08 -0.66 M109.87 19.94 C101.72 12.85, 93.58 5.77, 85.72 -1.06 M109.87 19.94 C103.94 14.78, 98.01 9.63, 85.72 -1.06 M115.51 19.54 C109.69 14.48, 103.87 9.42, 92.12 -0.8 M115.51 19.54 C108.11 13.1, 100.7 6.66, 92.12 -0.8 M121.91 19.8 C116.02 14.68, 110.13 9.56, 98.52 -0.54 M121.91 19.8 C115.8 14.48, 109.68 9.17, 98.52 -0.54 M128.31 20.06 C120.4 13.18, 112.48 6.31, 104.16 -0.93 M128.31 20.06 C122.57 15.08, 116.84 10.09, 104.16 -0.93 M133.95 19.67 C127.99 14.49, 122.03 9.3, 110.56 -0.67 M133.95 19.67 C127.98 14.47, 122 9.28, 110.56 -0.67 M140.35 19.93 C132.9 13.45, 125.44 6.97, 116.2 -1.06 M140.35 19.93 C133.61 14.07, 126.87 8.21, 116.2 -1.06 M145.99 19.54 C137.54 12.19, 129.09 4.84, 122.6 -0.8 M145.99 19.54 C138.39 12.92, 130.78 6.31, 122.6 -0.8 M152.39 19.8 C143.46 12.03, 134.53 4.27, 129 -0.54 M152.39 19.8 C143.88 12.4, 135.37 5, 129 -0.54 M158.79 20.06 C150.68 13.01, 142.56 5.95, 134.64 -0.94 M158.79 20.06 C153.52 15.48, 148.25 10.9, 134.64 -0.94 M164.43 19.66 C157.72 13.83, 151.02 8, 141.04 -0.67 M164.43 19.66 C158.24 14.28, 152.06 8.9, 141.04 -0.67 M170.83 19.93 C163.74 13.76, 156.64 7.59, 146.68 -1.07 M170.83 19.93 C162.81 12.95, 154.78 5.98, 146.68 -1.07 M176.47 19.53 C169.14 13.15, 161.8 6.78, 153.08 -0.81 M176.47 19.53 C171.71 15.39, 166.94 11.24, 153.08 -0.81 M182.87 19.79 C175.87 13.7, 168.86 7.61, 159.48 -0.55 M182.87 19.79 C175.5 13.39, 168.13 6.98, 159.48 -0.55 M189.27 20.05 C181.98 13.72, 174.69 7.38, 165.12 -0.94 M189.27 20.05 C183.13 14.71, 176.98 9.37, 165.12 -0.94 M194.91 19.66 C186.3 12.18, 177.7 4.69, 171.52 -0.68 M194.91 19.66 C188.74 14.29, 182.56 8.92, 171.52 -0.68 M201.31 19.92 C195.47 14.85, 189.64 9.77, 177.16 -1.07 M201.31 19.92 C193.13 12.81, 184.94 5.69, 177.16 -1.07 M206.95 19.53 C200.77 14.16, 194.6 8.78, 183.56 -0.81 M206.95 19.53 C199.3 12.88, 191.65 6.23, 183.56 -0.81 M213.35 19.79 C206.97 14.24, 200.58 8.69, 189.96 -0.55 M213.35 19.79 C207.97 15.11, 202.6 10.44, 189.96 -0.55 M219.75 20.05 C212.44 13.69, 205.13 7.34, 195.6 -0.94 M219.75 20.05 C212.46 13.72, 205.18 7.38, 195.6 -0.94 M225.39 19.65 C218.72 13.86, 212.05 8.06, 202 -0.68 M225.39 19.65 C217.2 12.54, 209.01 5.42, 202 -0.68 M231.79 19.92 C223.37 12.6, 214.95 5.28, 207.64 -1.08 M231.79 19.92 C226.1 14.97, 220.41 10.02, 207.64 -1.08 M237.43 19.52 C229.98 13.05, 222.54 6.57, 214.04 -0.82 M237.43 19.52 C228.73 11.95, 220.02 4.39, 214.04 -0.82 M243.83 19.78 C238.76 15.38, 233.69 10.97, 220.43 -0.56 M243.83 19.78 C238.53 15.18, 233.23 10.57, 220.43 -0.56 M250.23 20.04 C241.48 12.44, 232.72 4.83, 226.08 -0.95 M250.23 20.04 C244.95 15.45, 239.66 10.86, 226.08 -0.95 M255.87 19.65 C249.52 14.12, 243.16 8.6, 232.48 -0.69 M255.87 19.65 C250.68 15.14, 245.49 10.62, 232.48 -0.69 M262.27 19.91 C253.64 12.41, 245.02 4.91, 238.12 -1.08 M262.27 19.91 C255.93 14.4, 249.59 8.89, 238.12 -1.08 M267.91 19.52 C262.56 14.87, 257.22 10.22, 244.52 -0.82 M267.91 19.52 C262.77 15.05, 257.63 10.58, 244.52 -0.82 M274.31 19.78 C265.13 11.8, 255.95 3.82, 250.91 -0.56 M274.31 19.78 C266.68 13.15, 259.05 6.51, 250.91 -0.56 M280.71 20.04 C272.2 12.65, 263.7 5.25, 256.56 -0.95 M280.71 20.04 C274.25 14.43, 267.79 8.81, 256.56 -0.95 M286.35 19.64 C279.14 13.38, 271.94 7.11, 262.96 -0.69 M286.35 19.64 C279.75 13.91, 273.15 8.17, 262.96 -0.69 M292.75 19.91 C286.54 14.5, 280.32 9.1, 268.6 -1.09 M292.75 19.91 C286.41 14.39, 280.07 8.88, 268.6 -1.09 M298.39 19.51 C291.52 13.53, 284.64 7.56, 275 -0.83 M298.39 19.51 C292.46 14.36, 286.53 9.2, 275 -0.83 M302.53 17.8 C296 12.13, 289.48 6.46, 281.39 -0.56 M302.53 17.8 C295.07 11.32, 287.6 4.83, 281.39 -0.56 M302.89 12.82 C298.29 8.83, 293.7 4.83, 287.04 -0.96 M302.89 12.82 C299.52 9.89, 296.15 6.96, 287.04 -0.96 M302.49 7.17 C300.49 5.43, 298.48 3.69, 293.43 -0.7 M302.49 7.17 C299.44 4.53, 296.4 1.88, 293.43 -0.7 M302.85 2.19 C301.4 0.92, 299.94 -0.34, 299.08 -1.09 M302.85 2.19 C301.41 0.93, 299.97 -0.32, 299.08 -1.09" stroke="#fd7e14" stroke-width="0.5" fill="none"></path><path d="M0 0 C65.36 0, 130.72 0, 300.91 0 M0 0 C74.47 0, 148.95 0, 300.91 0 M300.91 0 C300.91 7.12, 300.91 14.25, 300.91 19.83 M300.91 0 C300.91 5.11, 300.91 10.21, 300.91 19.83 M300.91 19.83 C231.38 19.83, 161.85 19.83, 0 19.83 M300.91 19.83 C222.36 19.83, 143.81 19.83, 0 19.83 M0 19.83 C0 14.41, 0 8.99, 0 0 M0 19.83 C0 15.74, 0 11.66, 0 0" stroke="#000000" stroke-width="1" fill="none"></path></g><g stroke-linecap="round" transform="translate(191.96817353671395 186.8261273193284) rotate(0 130 9.91306365966409)"><path d="M0 0 C0 0, 0 0, 0 0 M0 0 C0 0, 0 0, 0 0 M-0.26 6.4 C1.22 4.7, 2.69 3, 4.99 0.36 M-0.26 6.4 C1.62 4.24, 3.49 2.08, 4.99 0.36 M0.13 12.04 C2.99 8.76, 5.84 5.48, 10.63 -0.03 M0.13 12.04 C3.44 8.24, 6.75 4.43, 10.63 -0.03 M-0.13 18.44 C6.07 11.31, 12.26 4.19, 15.62 0.33 M-0.13 18.44 C4.65 12.95, 9.42 7.45, 15.62 0.33 M2.23 21.82 C8.37 14.76, 14.51 7.69, 21.26 -0.07 M2.23 21.82 C7.6 15.64, 12.97 9.47, 21.26 -0.07 M7.88 21.42 C15.02 13.2, 22.17 4.99, 26.25 0.29 M7.88 21.42 C13.53 14.92, 19.19 8.41, 26.25 0.29 M12.86 21.78 C18.09 15.77, 23.32 9.76, 31.89 -0.1 M12.86 21.78 C17.32 16.65, 21.79 11.52, 31.89 -0.1 M17.85 22.14 C23.86 15.24, 29.86 8.33, 36.88 0.26 M17.85 22.14 C21.88 17.51, 25.91 12.87, 36.88 0.26 M23.49 21.75 C27.31 17.36, 31.12 12.98, 42.52 -0.14 M23.49 21.75 C30.86 13.28, 38.22 4.8, 42.52 -0.14 M28.48 22.11 C33.64 16.18, 38.8 10.24, 47.51 0.22 M28.48 22.11 C32.37 17.63, 36.26 13.16, 47.51 0.22 M34.12 21.71 C38.36 16.84, 42.59 11.97, 53.15 -0.17 M34.12 21.71 C39.93 15.04, 45.73 8.37, 53.15 -0.17 M39.11 22.07 C42.97 17.63, 46.84 13.19, 58.14 0.19 M39.11 22.07 C43.41 17.13, 47.71 12.18, 58.14 0.19 M44.75 21.68 C50.72 14.81, 56.69 7.95, 63.78 -0.21 M44.75 21.68 C50.51 15.06, 56.27 8.43, 63.78 -0.21 M49.74 22.04 C55.62 15.27, 61.5 8.51, 68.77 0.15 M49.74 22.04 C56.71 14.02, 63.68 6.01, 68.77 0.15 M55.38 21.65 C61.03 15.15, 66.67 8.66, 74.41 -0.24 M55.38 21.65 C60.05 16.28, 64.72 10.91, 74.41 -0.24 M60.37 22.01 C64.88 16.82, 69.39 11.63, 79.4 0.12 M60.37 22.01 C65.41 16.21, 70.45 10.41, 79.4 0.12 M66.02 21.61 C70.66 16.27, 75.3 10.93, 85.04 -0.28 M66.02 21.61 C72.63 14.01, 79.24 6.4, 85.04 -0.28 M71 21.97 C76.41 15.75, 81.82 9.53, 90.03 0.08 M71 21.97 C76.94 15.14, 82.87 8.32, 90.03 0.08 M76.65 21.58 C81.94 15.49, 87.23 9.4, 95.67 -0.31 M76.65 21.58 C83.77 13.39, 90.88 5.2, 95.67 -0.31 M81.63 21.94 C89.22 13.21, 96.81 4.48, 100.66 0.05 M81.63 21.94 C86.33 16.53, 91.04 11.12, 100.66 0.05 M87.28 21.54 C94.36 13.4, 101.44 5.25, 106.3 -0.34 M87.28 21.54 C91.85 16.28, 96.42 11.02, 106.3 -0.34 M92.26 21.9 C99.45 13.63, 106.64 5.36, 111.29 0.02 M92.26 21.9 C99.12 14.02, 105.97 6.13, 111.29 0.02 M97.91 21.51 C104.31 14.14, 110.71 6.78, 116.27 0.38 M97.91 21.51 C101.77 17.06, 105.64 12.61, 116.27 0.38 M102.89 21.87 C108.02 15.97, 113.15 10.07, 121.92 -0.02 M102.89 21.87 C108.44 15.49, 113.98 9.11, 121.92 -0.02 M108.54 21.47 C113.68 15.56, 118.82 9.65, 126.91 0.34 M108.54 21.47 C114.04 15.14, 119.55 8.8, 126.91 0.34 M113.52 21.83 C120.59 13.71, 127.65 5.58, 132.55 -0.05 M113.52 21.83 C117.9 16.8, 122.28 11.76, 132.55 -0.05 M119.17 21.44 C124.47 15.34, 129.77 9.23, 137.54 0.31 M119.17 21.44 C124.18 15.67, 129.2 9.9, 137.54 0.31 M124.15 21.8 C128.54 16.75, 132.93 11.7, 143.18 -0.09 M124.15 21.8 C130.17 14.87, 136.19 7.95, 143.18 -0.09 M129.14 22.16 C135.76 14.54, 142.38 6.92, 148.17 0.27 M129.14 22.16 C133.8 16.8, 138.46 11.44, 148.17 0.27 M134.78 21.76 C139.45 16.39, 144.12 11.02, 153.81 -0.12 M134.78 21.76 C139.35 16.51, 143.92 11.25, 153.81 -0.12 M139.77 22.12 C145.1 15.99, 150.43 9.86, 158.8 0.24 M139.77 22.12 C145.1 15.99, 150.44 9.85, 158.8 0.24 M145.41 21.73 C150.42 15.97, 155.43 10.21, 164.44 -0.16 M145.41 21.73 C150 16.45, 154.58 11.18, 164.44 -0.16 M150.4 22.09 C157.21 14.25, 164.03 6.41, 169.43 0.2 M150.4 22.09 C157.9 13.46, 165.4 4.83, 169.43 0.2 M156.04 21.69 C163.31 13.34, 170.57 4.98, 175.07 -0.19 M156.04 21.69 C161.92 14.93, 167.8 8.17, 175.07 -0.19 M161.03 22.05 C166.82 15.4, 172.61 8.74, 180.06 0.17 M161.03 22.05 C167.71 14.37, 174.4 6.68, 180.06 0.17 M166.67 21.66 C173.31 14.03, 179.94 6.4, 185.7 -0.23 M166.67 21.66 C173.98 13.26, 181.28 4.85, 185.7 -0.23 M171.66 22.02 C177.2 15.65, 182.74 9.27, 190.69 0.13 M171.66 22.02 C176.73 16.19, 181.8 10.35, 190.69 0.13 M177.3 21.63 C184.18 13.71, 191.06 5.8, 196.33 -0.26 M177.3 21.63 C184.07 13.84, 190.84 6.06, 196.33 -0.26 M182.29 21.99 C188.79 14.5, 195.3 7.02, 201.32 0.1 M182.29 21.99 C186.18 17.51, 190.08 13.03, 201.32 0.1 M187.93 21.59 C193.03 15.72, 198.13 9.86, 206.96 -0.3 M187.93 21.59 C192.95 15.81, 197.98 10.04, 206.96 -0.3 M192.92 21.95 C199.17 14.76, 205.43 7.56, 211.95 0.06 M192.92 21.95 C200.16 13.62, 207.4 5.29, 211.95 0.06 M198.56 21.56 C205.52 13.55, 212.49 5.54, 217.59 -0.33 M198.56 21.56 C204.25 15.02, 209.93 8.48, 217.59 -0.33 M203.55 21.92 C210.68 13.72, 217.8 5.52, 222.58 0.03 M203.55 21.92 C210.38 14.06, 217.22 6.2, 222.58 0.03 M209.19 21.52 C213.05 17.08, 216.91 12.65, 228.22 -0.36 M209.19 21.52 C216.8 12.77, 224.4 4.02, 228.22 -0.36 M214.18 21.88 C218.97 16.37, 223.76 10.86, 233.21 0 M214.18 21.88 C219.03 16.3, 223.89 10.71, 233.21 0 M219.82 21.49 C226.73 13.54, 233.65 5.59, 238.19 0.36 M219.82 21.49 C224.54 16.06, 229.26 10.63, 238.19 0.36 M224.81 21.85 C232.1 13.46, 239.4 5.07, 243.84 -0.04 M224.81 21.85 C231.15 14.55, 237.5 7.25, 243.84 -0.04 M230.45 21.45 C236.59 14.4, 242.72 7.34, 248.82 0.32 M230.45 21.45 C236.15 14.9, 241.85 8.35, 248.82 0.32 M235.44 21.81 C240.04 16.52, 244.64 11.23, 254.47 -0.07 M235.44 21.81 C239.42 17.24, 243.39 12.67, 254.47 -0.07 M241.08 21.42 C247.95 13.52, 254.81 5.63, 259.45 0.29 M241.08 21.42 C247.5 14.04, 253.91 6.66, 259.45 0.29 M246.07 21.78 C252.04 14.92, 258 8.05, 263.13 2.16 M246.07 21.78 C250.27 16.94, 254.48 12.11, 263.13 2.16 M251.06 22.14 C253.93 18.84, 256.8 15.54, 262.87 8.55 M251.06 22.14 C254.76 17.88, 258.47 13.61, 262.87 8.55 M256.7 21.74 C258.35 19.84, 260.01 17.94, 262.61 14.95 M256.7 21.74 C258.83 19.29, 260.96 16.84, 262.61 14.95 M-0.01 19.82 C-0.01 19.82, -0.01 19.82, -0.01 19.82 M-0.01 19.82 C-0.01 19.82, -0.01 19.82, -0.01 19.82 M6.39 20.08 C4.85 18.75, 3.32 17.41, 0.35 14.83 M6.39 20.08 C5.08 18.95, 3.77 17.81, 0.35 14.83 M12.04 19.69 C8.28 16.42, 4.52 13.16, -0.04 9.19 M12.04 19.69 C8.06 16.23, 4.08 12.77, -0.04 9.19 M18.43 19.95 C12.14 14.48, 5.86 9.02, 0.32 4.2 M18.43 19.95 C14.28 16.34, 10.13 12.73, 0.32 4.2 M24.08 19.56 C18.11 14.37, 12.14 9.18, 0.68 -0.78 M24.08 19.56 C19.16 15.28, 14.24 11, 0.68 -0.78 M30.47 19.82 C23.93 14.13, 17.38 8.44, 7.08 -0.52 M30.47 19.82 C21.98 12.43, 13.48 5.04, 7.08 -0.52 M36.87 20.08 C29.16 13.37, 21.44 6.67, 12.72 -0.92 M36.87 20.08 C30.21 14.28, 23.54 8.49, 12.72 -0.92 M42.51 19.68 C37.25 15.1, 31.98 10.52, 19.12 -0.65 M42.51 19.68 C34.72 12.9, 26.92 6.12, 19.12 -0.65 M48.91 19.94 C41.63 13.61, 34.35 7.28, 24.76 -1.05 M48.91 19.94 C43.68 15.4, 38.45 10.85, 24.76 -1.05 M54.56 19.55 C49.74 15.36, 44.91 11.17, 31.16 -0.79 M54.56 19.55 C49.77 15.39, 44.99 11.23, 31.16 -0.79 M60.95 19.81 C55.12 14.74, 49.29 9.67, 37.56 -0.53 M60.95 19.81 C54.59 14.28, 48.22 8.74, 37.56 -0.53 M67.35 20.07 C60.23 13.88, 53.1 7.69, 43.2 -0.92 M67.35 20.07 C57.89 11.85, 48.43 3.63, 43.2 -0.92 M72.99 19.68 C66.91 14.39, 60.82 9.1, 49.6 -0.66 M72.99 19.68 C67.56 14.96, 62.13 10.24, 49.6 -0.66 M79.39 19.94 C74.21 15.43, 69.02 10.92, 55.24 -1.05 M79.39 19.94 C73.13 14.49, 66.86 9.05, 55.24 -1.05 M85.04 19.55 C78.44 13.81, 71.84 8.08, 61.64 -0.79 M85.04 19.55 C79.5 14.73, 73.97 9.92, 61.64 -0.79 M91.43 19.81 C83.53 12.93, 75.62 6.06, 68.04 -0.53 M91.43 19.81 C83.88 13.24, 76.32 6.67, 68.04 -0.53 M97.83 20.07 C90.29 13.51, 82.75 6.96, 73.68 -0.93 M97.83 20.07 C88.77 12.19, 79.71 4.31, 73.68 -0.93 M103.47 19.67 C96.75 13.83, 90.04 7.99, 80.08 -0.66 M103.47 19.67 C97.7 14.65, 91.93 9.63, 80.08 -0.66 M109.87 19.94 C100.24 11.57, 90.62 3.2, 85.72 -1.06 M109.87 19.94 C102.92 13.89, 95.96 7.84, 85.72 -1.06 M115.51 19.54 C107.67 12.72, 99.83 5.91, 92.12 -0.8 M115.51 19.54 C109.76 14.54, 104.01 9.54, 92.12 -0.8 M121.91 19.8 C116.32 14.94, 110.74 10.09, 98.52 -0.54 M121.91 19.8 C113.38 12.38, 104.85 4.97, 98.52 -0.54 M128.31 20.06 C123.37 15.77, 118.43 11.47, 104.16 -0.93 M128.31 20.06 C121.42 14.08, 114.53 8.09, 104.16 -0.93 M133.95 19.67 C125.05 11.93, 116.14 4.19, 110.56 -0.67 M133.95 19.67 C125.88 12.65, 117.8 5.62, 110.56 -0.67 M140.35 19.93 C133.88 14.3, 127.4 8.67, 116.2 -1.06 M140.35 19.93 C133.6 14.06, 126.85 8.19, 116.2 -1.06 M145.99 19.54 C140.81 15.03, 135.63 10.53, 122.6 -0.8 M145.99 19.54 C138.52 13.04, 131.05 6.54, 122.6 -0.8 M152.39 19.8 C144.24 12.71, 136.1 5.63, 129 -0.54 M152.39 19.8 C145.52 13.83, 138.66 7.86, 129 -0.54 M158.79 20.06 C153.74 15.67, 148.69 11.28, 134.64 -0.94 M158.79 20.06 C150.89 13.19, 142.99 6.32, 134.64 -0.94 M164.43 19.66 C157 13.2, 149.56 6.74, 141.04 -0.67 M164.43 19.66 C156.42 12.7, 148.42 5.74, 141.04 -0.67 M170.83 19.93 C165.01 14.86, 159.18 9.8, 146.68 -1.07 M170.83 19.93 C162.18 12.41, 153.53 4.89, 146.68 -1.07 M176.47 19.53 C169.47 13.44, 162.47 7.36, 153.08 -0.81 M176.47 19.53 C167.34 11.59, 158.2 3.65, 153.08 -0.81 M182.87 19.79 C176.66 14.4, 170.45 9, 159.48 -0.55 M182.87 19.79 C174.63 12.63, 166.39 5.46, 159.48 -0.55 M189.27 20.05 C182.86 14.48, 176.44 8.9, 165.12 -0.94 M189.27 20.05 C180.74 12.64, 172.22 5.23, 165.12 -0.94 M194.91 19.66 C188.38 13.98, 181.84 8.3, 171.52 -0.68 M194.91 19.66 C185.57 11.54, 176.22 3.41, 171.52 -0.68 M201.31 19.92 C195.53 14.9, 189.76 9.88, 177.16 -1.07 M201.31 19.92 C194.19 13.73, 187.07 7.54, 177.16 -1.07 M206.95 19.53 C199.22 12.8, 191.48 6.07, 183.56 -0.81 M206.95 19.53 C199.01 12.62, 191.07 5.72, 183.56 -0.81 M213.35 19.79 C206.5 13.83, 199.65 7.88, 189.96 -0.55 M213.35 19.79 C207.96 15.1, 202.56 10.41, 189.96 -0.55 M219.75 20.05 C212.09 13.39, 204.43 6.73, 195.6 -0.94 M219.75 20.05 C211 12.44, 202.25 4.84, 195.6 -0.94 M225.39 19.65 C217.23 12.56, 209.06 5.46, 202 -0.68 M225.39 19.65 C217.78 13.04, 210.17 6.42, 202 -0.68 M231.79 19.92 C222.46 11.81, 213.13 3.7, 207.64 -1.08 M231.79 19.92 C226.78 15.56, 221.77 11.2, 207.64 -1.08 M237.43 19.52 C228.53 11.78, 219.63 4.05, 214.04 -0.82 M237.43 19.52 C230.56 13.55, 223.69 7.58, 214.04 -0.82 M243.83 19.78 C235.97 12.95, 228.12 6.12, 220.43 -0.56 M243.83 19.78 C235.29 12.36, 226.74 4.93, 220.43 -0.56 M250.23 20.04 C245.16 15.64, 240.09 11.23, 226.08 -0.95 M250.23 20.04 C245.38 15.83, 240.54 11.62, 226.08 -0.95 M255.87 19.65 C250.88 15.31, 245.88 10.97, 232.48 -0.69 M255.87 19.65 C249.44 14.06, 243 8.46, 232.48 -0.69 M260.76 18.6 C253.74 12.5, 246.72 6.39, 238.12 -1.08 M260.76 18.6 C254.85 13.46, 248.95 8.33, 238.12 -1.08 M261.12 13.61 C255.86 9.04, 250.6 4.47, 244.52 -0.82 M261.12 13.61 C255.69 8.89, 250.26 4.17, 244.52 -0.82 M260.73 7.97 C258.73 6.23, 256.73 4.5, 250.91 -0.56 M260.73 7.97 C258.38 5.93, 256.03 3.88, 250.91 -0.56 M261.09 2.98 C259.3 1.43, 257.52 -0.12, 256.56 -0.95 M261.09 2.98 C259.9 1.95, 258.72 0.93, 256.56 -0.95" stroke="#fab005" stroke-width="0.5" fill="none"></path><path d="M0 0 C90.74 0, 181.47 0, 260 0 M0 0 C59.38 0, 118.76 0, 260 0 M260 0 C260 7.28, 260 14.57, 260 19.83 M260 0 C260 4.67, 260 9.33, 260 19.83 M260 19.83 C199.53 19.83, 139.06 19.83, 0 19.83 M260 19.83 C200.69 19.83, 141.39 19.83, 0 19.83 M0 19.83 C0 14.76, 0 9.7, 0 0 M0 19.83 C0 12.26, 0 4.69, 0 0" stroke="#000000" stroke-width="1" fill="none"></path></g><g stroke-linecap="round" transform="translate(191.96817353671395 158.8261273193284) rotate(0 149.5 9.91306365966409)"><path d="M0 0 C0 0, 0 0, 0 0 M0 0 C0 0, 0 0, 0 0 M-0.26 6.4 C1.48 4.39, 3.22 2.39, 4.99 0.36 M-0.26 6.4 C1.09 4.85, 2.43 3.3, 4.99 0.36 M0.13 12.04 C4.02 7.56, 7.92 3.09, 10.63 -0.03 M0.13 12.04 C3.05 8.68, 5.97 5.32, 10.63 -0.03 M-0.13 18.44 C4.55 13.05, 9.23 7.67, 15.62 0.33 M-0.13 18.44 C5.37 12.12, 10.86 5.8, 15.62 0.33 M2.23 21.82 C9.83 13.08, 17.42 4.34, 21.26 -0.07 M2.23 21.82 C6.43 17, 10.62 12.17, 21.26 -0.07 M7.88 21.42 C14.51 13.79, 21.15 6.15, 26.25 0.29 M7.88 21.42 C13.33 15.16, 18.77 8.89, 26.25 0.29 M12.86 21.78 C19.81 13.79, 26.76 5.8, 31.89 -0.1 M12.86 21.78 C19.24 14.44, 25.63 7.1, 31.89 -0.1 M17.85 22.14 C25.25 13.63, 32.65 5.12, 36.88 0.26 M17.85 22.14 C24.46 14.54, 31.06 6.94, 36.88 0.26 M23.49 21.75 C29.36 15, 35.22 8.26, 42.52 -0.14 M23.49 21.75 C29.13 15.27, 34.76 8.79, 42.52 -0.14 M28.48 22.11 C36 13.46, 43.51 4.82, 47.51 0.22 M28.48 22.11 C36.06 13.39, 43.65 4.66, 47.51 0.22 M34.12 21.71 C38.28 16.93, 42.43 12.15, 53.15 -0.17 M34.12 21.71 C38.4 16.79, 42.68 11.87, 53.15 -0.17 M39.11 22.07 C45.66 14.54, 52.21 7, 58.14 0.19 M39.11 22.07 C46.69 13.36, 54.27 4.64, 58.14 0.19 M44.75 21.68 C49.24 16.53, 53.72 11.37, 63.78 -0.21 M44.75 21.68 C50.36 15.23, 55.97 8.78, 63.78 -0.21 M49.74 22.04 C56.43 14.34, 63.12 6.65, 68.77 0.15 M49.74 22.04 C56.29 14.51, 62.83 6.98, 68.77 0.15 M55.38 21.65 C60.13 16.19, 64.87 10.73, 74.41 -0.24 M55.38 21.65 C61.63 14.46, 67.87 7.28, 74.41 -0.24 M60.37 22.01 C65.74 15.83, 71.1 9.66, 79.4 0.12 M60.37 22.01 C65.76 15.8, 71.15 9.6, 79.4 0.12 M66.02 21.61 C71.72 15.05, 77.42 8.49, 85.04 -0.28 M66.02 21.61 C73.59 12.9, 81.16 4.19, 85.04 -0.28 M71 21.97 C77.66 14.31, 84.32 6.65, 90.03 0.08 M71 21.97 C76.98 15.1, 82.95 8.23, 90.03 0.08 M76.65 21.58 C83.81 13.33, 90.98 5.08, 95.67 -0.31 M76.65 21.58 C80.95 16.62, 85.26 11.66, 95.67 -0.31 M81.63 21.94 C87.74 14.91, 93.84 7.89, 100.66 0.05 M81.63 21.94 C88.93 13.54, 96.23 5.14, 100.66 0.05 M87.28 21.54 C91.46 16.73, 95.65 11.91, 106.3 -0.34 M87.28 21.54 C94.63 13.08, 101.99 4.62, 106.3 -0.34 M92.26 21.9 C98.14 15.14, 104.02 8.37, 111.29 0.02 M92.26 21.9 C97.78 15.56, 103.29 9.21, 111.29 0.02 M97.91 21.51 C103.77 14.76, 109.64 8.01, 116.27 0.38 M97.91 21.51 C103.43 15.15, 108.96 8.79, 116.27 0.38 M102.89 21.87 C110.11 13.56, 117.33 5.25, 121.92 -0.02 M102.89 21.87 C108.23 15.73, 113.57 9.59, 121.92 -0.02 M108.54 21.47 C114.32 14.82, 120.1 8.17, 126.91 0.34 M108.54 21.47 C112.98 16.35, 117.43 11.24, 126.91 0.34 M113.52 21.83 C120.13 14.23, 126.73 6.63, 132.55 -0.05 M113.52 21.83 C118.34 16.3, 123.15 10.76, 132.55 -0.05 M119.17 21.44 C126.44 13.07, 133.71 4.7, 137.54 0.31 M119.17 21.44 C125.28 14.4, 131.4 7.37, 137.54 0.31 M124.15 21.8 C131.32 13.55, 138.49 5.3, 143.18 -0.09 M124.15 21.8 C130.91 14.03, 137.67 6.25, 143.18 -0.09 M129.14 22.16 C134.9 15.53, 140.66 8.9, 148.17 0.27 M129.14 22.16 C135.72 14.59, 142.3 7.02, 148.17 0.27 M134.78 21.76 C142.08 13.37, 149.37 4.98, 153.81 -0.12 M134.78 21.76 C142.1 13.35, 149.41 4.93, 153.81 -0.12 M139.77 22.12 C145.96 15.01, 152.14 7.89, 158.8 0.24 M139.77 22.12 C145.55 15.48, 151.32 8.83, 158.8 0.24 M145.41 21.73 C149.82 16.66, 154.22 11.59, 164.44 -0.16 M145.41 21.73 C152.81 13.22, 160.21 4.71, 164.44 -0.16 M150.4 22.09 C156.16 15.46, 161.93 8.83, 169.43 0.2 M150.4 22.09 C155.71 15.99, 161.01 9.88, 169.43 0.2 M156.04 21.69 C162.44 14.33, 168.84 6.97, 175.07 -0.19 M156.04 21.69 C161.1 15.88, 166.15 10.06, 175.07 -0.19 M161.03 22.05 C165.33 17.11, 169.62 12.17, 180.06 0.17 M161.03 22.05 C168.53 13.43, 176.03 4.8, 180.06 0.17 M166.67 21.66 C171.67 15.92, 176.66 10.17, 185.7 -0.23 M166.67 21.66 C173.58 13.72, 180.48 5.78, 185.7 -0.23 M171.66 22.02 C176.11 16.9, 180.56 11.79, 190.69 0.13 M171.66 22.02 C175.89 17.15, 180.13 12.28, 190.69 0.13 M177.3 21.63 C183.48 14.52, 189.66 7.41, 196.33 -0.26 M177.3 21.63 C182.59 15.55, 187.87 9.47, 196.33 -0.26 M182.29 21.99 C186.41 17.24, 190.53 12.5, 201.32 0.1 M182.29 21.99 C189.64 13.53, 196.98 5.08, 201.32 0.1 M187.93 21.59 C195.32 13.1, 202.7 4.6, 206.96 -0.3 M187.93 21.59 C192.85 15.94, 197.76 10.29, 206.96 -0.3 M192.92 21.95 C197 17.26, 201.07 12.57, 211.95 0.06 M192.92 21.95 C199.73 14.12, 206.54 6.28, 211.95 0.06 M198.56 21.56 C203.65 15.7, 208.74 9.85, 217.59 -0.33 M198.56 21.56 C202.41 17.14, 206.25 12.71, 217.59 -0.33 M203.55 21.92 C207.67 17.18, 211.79 12.44, 222.58 0.03 M203.55 21.92 C208.51 16.22, 213.46 10.51, 222.58 0.03 M209.19 21.52 C215.42 14.36, 221.65 7.19, 228.22 -0.36 M209.19 21.52 C214.07 15.91, 218.96 10.29, 228.22 -0.36 M214.18 21.88 C221.09 13.94, 228 5.99, 233.21 0 M214.18 21.88 C219.25 16.05, 224.32 10.22, 233.21 0 M219.82 21.49 C225.02 15.51, 230.22 9.52, 238.19 0.36 M219.82 21.49 C223.86 16.85, 227.89 12.21, 238.19 0.36 M224.81 21.85 C231.35 14.32, 237.9 6.79, 243.84 -0.04 M224.81 21.85 C232.39 13.12, 239.98 4.4, 243.84 -0.04 M230.45 21.45 C237.79 13.02, 245.12 4.58, 248.82 0.32 M230.45 21.45 C236.68 14.29, 242.9 7.13, 248.82 0.32 M235.44 21.81 C243.03 13.08, 250.62 4.35, 254.47 -0.07 M235.44 21.81 C241.71 14.6, 247.97 7.4, 254.47 -0.07 M241.08 21.42 C246.42 15.28, 251.76 9.14, 259.45 0.29 M241.08 21.42 C246.81 14.83, 252.54 8.24, 259.45 0.29 M246.07 21.78 C252.12 14.82, 258.16 7.87, 265.1 -0.11 M246.07 21.78 C253.33 13.43, 260.59 5.08, 265.1 -0.11 M251.06 22.14 C257.18 15.09, 263.31 8.05, 270.08 0.25 M251.06 22.14 C256.51 15.87, 261.96 9.6, 270.08 0.25 M256.7 21.74 C261.28 16.48, 265.85 11.21, 275.73 -0.14 M256.7 21.74 C262.94 14.57, 269.18 7.39, 275.73 -0.14 M261.69 22.1 C265.65 17.54, 269.62 12.98, 280.71 0.22 M261.69 22.1 C266.64 16.41, 271.59 10.72, 280.71 0.22 M267.33 21.71 C272.22 16.09, 277.11 10.46, 286.36 -0.18 M267.33 21.71 C274.77 13.16, 282.2 4.6, 286.36 -0.18 M272.32 22.07 C276.4 17.37, 280.48 12.67, 291.34 0.18 M272.32 22.07 C277.66 15.93, 283 9.79, 291.34 0.18 M277.96 21.68 C281.89 17.15, 285.83 12.62, 296.99 -0.21 M277.96 21.68 C282.59 16.35, 287.21 11.03, 296.99 -0.21 M282.95 22.04 C289.25 14.79, 295.54 7.55, 300.66 1.66 M282.95 22.04 C287.3 17.03, 291.65 12.03, 300.66 1.66 M288.59 21.64 C292.08 17.63, 295.57 13.61, 301.06 7.3 M288.59 21.64 C291.18 18.66, 293.77 15.69, 301.06 7.3 M293.58 22 C296.44 18.71, 299.29 15.43, 300.79 13.7 M293.58 22 C295.76 19.49, 297.94 16.98, 300.79 13.7 M-0.01 19.82 C-0.01 19.82, -0.01 19.82, -0.01 19.82 M-0.01 19.82 C-0.01 19.82, -0.01 19.82, -0.01 19.82 M6.39 20.08 C4.88 18.77, 3.37 17.45, 0.35 14.83 M6.39 20.08 C4.89 18.77, 3.38 17.47, 0.35 14.83 M12.04 19.69 C8.34 16.48, 4.65 13.27, -0.04 9.19 M12.04 19.69 C9.46 17.45, 6.89 15.22, -0.04 9.19 M18.43 19.95 C11.47 13.89, 4.5 7.84, 0.32 4.2 M18.43 19.95 C12.39 14.7, 6.35 9.45, 0.32 4.2 M24.08 19.56 C15 11.67, 5.93 3.78, 0.68 -0.78 M24.08 19.56 C15.9 12.45, 7.73 5.34, 0.68 -0.78 M30.47 19.82 C25.5 15.49, 20.53 11.17, 7.08 -0.52 M30.47 19.82 C24.56 14.68, 18.65 9.54, 7.08 -0.52 M36.87 20.08 C30.77 14.77, 24.66 9.46, 12.72 -0.92 M36.87 20.08 C27.49 11.92, 18.11 3.77, 12.72 -0.92 M42.51 19.68 C35.51 13.59, 28.5 7.5, 19.12 -0.65 M42.51 19.68 C34.22 12.47, 25.92 5.26, 19.12 -0.65 M48.91 19.94 C43.11 14.9, 37.31 9.86, 24.76 -1.05 M48.91 19.94 C41.6 13.59, 34.29 7.23, 24.76 -1.05 M54.56 19.55 C46.13 12.23, 37.71 4.91, 31.16 -0.79 M54.56 19.55 C49.01 14.73, 43.46 9.91, 31.16 -0.79 M60.95 19.81 C55.34 14.93, 49.72 10.04, 37.56 -0.53 M60.95 19.81 C53.58 13.4, 46.21 7, 37.56 -0.53 M67.35 20.07 C61.09 14.63, 54.83 9.19, 43.2 -0.92 M67.35 20.07 C58.96 12.78, 50.57 5.48, 43.2 -0.92 M72.99 19.68 C66.16 13.73, 59.32 7.79, 49.6 -0.66 M72.99 19.68 C66.02 13.62, 59.05 7.56, 49.6 -0.66 M79.39 19.94 C74.28 15.5, 69.17 11.05, 55.24 -1.05 M79.39 19.94 C70.13 11.89, 60.87 3.84, 55.24 -1.05 M85.04 19.55 C75.99 11.69, 66.95 3.83, 61.64 -0.79 M85.04 19.55 C76.28 11.94, 67.53 4.33, 61.64 -0.79 M91.43 19.81 C82.49 12.03, 73.54 4.25, 68.04 -0.53 M91.43 19.81 C84.58 13.85, 77.72 7.89, 68.04 -0.53 M97.83 20.07 C91.49 14.56, 85.15 9.05, 73.68 -0.93 M97.83 20.07 C90.19 13.43, 82.55 6.79, 73.68 -0.93 M103.47 19.67 C96.78 13.85, 90.08 8.03, 80.08 -0.66 M103.47 19.67 C97.08 14.11, 90.68 8.55, 80.08 -0.66 M109.87 19.94 C104.79 15.52, 99.71 11.1, 85.72 -1.06 M109.87 19.94 C101.49 12.65, 93.11 5.37, 85.72 -1.06 M115.51 19.54 C106.43 11.65, 97.35 3.75, 92.12 -0.8 M115.51 19.54 C106.8 11.96, 98.08 4.39, 92.12 -0.8 M121.91 19.8 C115.6 14.31, 109.29 8.83, 98.52 -0.54 M121.91 19.8 C113.98 12.91, 106.05 6.01, 98.52 -0.54 M128.31 20.06 C121 13.71, 113.69 7.35, 104.16 -0.93 M128.31 20.06 C121.35 14.02, 114.4 7.97, 104.16 -0.93 M133.95 19.67 C128.55 14.98, 123.16 10.28, 110.56 -0.67 M133.95 19.67 C128.93 15.3, 123.9 10.93, 110.56 -0.67 M140.35 19.93 C130.81 11.64, 121.28 3.35, 116.2 -1.06 M140.35 19.93 C131.48 12.22, 122.6 4.5, 116.2 -1.06 M145.99 19.54 C140.54 14.8, 135.09 10.06, 122.6 -0.8 M145.99 19.54 C137.87 12.47, 129.75 5.41, 122.6 -0.8 M152.39 19.8 C143.51 12.08, 134.63 4.36, 129 -0.54 M152.39 19.8 C147.51 15.56, 142.64 11.32, 129 -0.54 M158.79 20.06 C149.94 12.37, 141.1 4.68, 134.64 -0.94 M158.79 20.06 C150.12 12.53, 141.46 4.99, 134.64 -0.94 M164.43 19.66 C156.91 13.12, 149.38 6.58, 141.04 -0.67 M164.43 19.66 C158.38 14.4, 152.32 9.14, 141.04 -0.67 M170.83 19.93 C164.29 14.24, 157.76 8.56, 146.68 -1.07 M170.83 19.93 C163.05 13.16, 155.26 6.39, 146.68 -1.07 M176.47 19.53 C170.96 14.74, 165.44 9.94, 153.08 -0.81 M176.47 19.53 C171.42 15.14, 166.36 10.74, 153.08 -0.81 M182.87 19.79 C175.01 12.96, 167.16 6.13, 159.48 -0.55 M182.87 19.79 C174.44 12.46, 166.01 5.14, 159.48 -0.55 M189.27 20.05 C182.34 14.03, 175.41 8.01, 165.12 -0.94 M189.27 20.05 C183.76 15.27, 178.26 10.48, 165.12 -0.94 M194.91 19.66 C187.85 13.52, 180.8 7.39, 171.52 -0.68 M194.91 19.66 C189.17 14.67, 183.42 9.67, 171.52 -0.68 M201.31 19.92 C191.89 11.74, 182.48 3.55, 177.16 -1.07 M201.31 19.92 C194.25 13.79, 187.2 7.65, 177.16 -1.07 M206.95 19.53 C200.92 14.28, 194.88 9.03, 183.56 -0.81 M206.95 19.53 C202.26 15.45, 197.57 11.37, 183.56 -0.81 M213.35 19.79 C208.45 15.53, 203.54 11.26, 189.96 -0.55 M213.35 19.79 C207.36 14.58, 201.36 9.37, 189.96 -0.55 M219.75 20.05 C213.84 14.91, 207.93 9.77, 195.6 -0.94 M219.75 20.05 C212.55 13.79, 205.35 7.53, 195.6 -0.94 M225.39 19.65 C216.95 12.32, 208.51 4.98, 202 -0.68 M225.39 19.65 C220.29 15.22, 215.2 10.79, 202 -0.68 M231.79 19.92 C225.71 14.63, 219.63 9.35, 207.64 -1.08 M231.79 19.92 C225.49 14.44, 219.2 8.97, 207.64 -1.08 M237.43 19.52 C232.56 15.28, 227.68 11.05, 214.04 -0.82 M237.43 19.52 C229.84 12.92, 222.24 6.31, 214.04 -0.82 M243.83 19.78 C238.72 15.34, 233.6 10.89, 220.43 -0.56 M243.83 19.78 C237.72 14.47, 231.61 9.16, 220.43 -0.56 M250.23 20.04 C243.78 14.44, 237.32 8.83, 226.08 -0.95 M250.23 20.04 C241.18 12.18, 232.14 4.32, 226.08 -0.95 M255.87 19.65 C250.36 14.86, 244.85 10.07, 232.48 -0.69 M255.87 19.65 C248.34 13.1, 240.8 6.55, 232.48 -0.69 M262.27 19.91 C257.39 15.67, 252.51 11.43, 238.12 -1.08 M262.27 19.91 C257.08 15.4, 251.9 10.89, 238.12 -1.08 M267.91 19.52 C259.91 12.56, 251.91 5.6, 244.52 -0.82 M267.91 19.52 C260.52 13.09, 253.12 6.66, 244.52 -0.82 M274.31 19.78 C268.98 15.14, 263.65 10.51, 250.91 -0.56 M274.31 19.78 C266.28 12.8, 258.25 5.82, 250.91 -0.56 M280.71 20.04 C272.78 13.15, 264.85 6.26, 256.56 -0.95 M280.71 20.04 C271.87 12.36, 263.03 4.67, 256.56 -0.95 M286.35 19.64 C279.11 13.35, 271.88 7.06, 262.96 -0.69 M286.35 19.64 C279.16 13.39, 271.96 7.13, 262.96 -0.69 M292.75 19.91 C284.69 12.9, 276.62 5.89, 268.6 -1.09 M292.75 19.91 C286.85 14.78, 280.95 9.65, 268.6 -1.09 M298.39 19.51 C289.94 12.16, 281.48 4.81, 275 -0.83 M298.39 19.51 C291.25 13.3, 284.1 7.09, 275 -0.83 M301.77 17.15 C296.7 12.74, 291.64 8.34, 281.39 -0.56 M301.77 17.15 C294.16 10.53, 286.55 3.91, 281.39 -0.56 M301.38 11.51 C297.81 8.4, 294.24 5.3, 287.04 -0.96 M301.38 11.51 C295.86 6.71, 290.35 1.92, 287.04 -0.96 M301.74 6.52 C299.14 4.26, 296.55 2.01, 293.43 -0.7 M301.74 6.52 C299.85 4.88, 297.97 3.25, 293.43 -0.7" stroke="#fab005" stroke-width="0.5" fill="none"></path><path d="M0 0 C107.99 0, 215.98 0, 299 0 M0 0 C93.66 0, 187.31 0, 299 0 M299 0 C299 7.69, 299 15.38, 299 19.83 M299 0 C299 5.91, 299 11.81, 299 19.83 M299 19.83 C204.35 19.83, 109.71 19.83, 0 19.83 M299 19.83 C217.56 19.83, 136.13 19.83, 0 19.83 M0 19.83 C0 12.88, 0 5.93, 0 0 M0 19.83 C0 15.42, 0 11.01, 0 0" stroke="#000000" stroke-width="1" fill="none"></path></g><g stroke-linecap="round" transform="translate(190.96817353671395 124) rotate(0 60 10)"><path d="M0 0 C0 0, 0 0, 0 0 M0 0 C0 0, 0 0, 0 0 M-0.26 6.4 C1.56 4.3, 3.38 2.21, 4.99 0.36 M-0.26 6.4 C1.37 4.52, 3 2.64, 4.99 0.36 M0.13 12.04 C2.76 9.02, 5.39 5.99, 10.63 -0.03 M0.13 12.04 C3.85 7.77, 7.56 3.49, 10.63 -0.03 M-0.13 18.44 C5.68 11.76, 11.49 5.07, 15.62 0.33 M-0.13 18.44 C4.88 12.68, 9.89 6.91, 15.62 0.33 M2.23 21.82 C9.02 14.02, 15.8 6.22, 21.26 -0.07 M2.23 21.82 C8.61 14.49, 14.98 7.15, 21.26 -0.07 M7.22 22.18 C11.42 17.35, 15.61 12.53, 26.25 0.29 M7.22 22.18 C13.55 14.89, 19.89 7.61, 26.25 0.29 M12.86 21.78 C17.08 16.93, 21.3 12.08, 31.89 -0.1 M12.86 21.78 C19.28 14.41, 25.69 7.03, 31.89 -0.1 M17.85 22.14 C24.96 13.96, 32.07 5.78, 36.88 0.26 M17.85 22.14 C24.88 14.05, 31.92 5.96, 36.88 0.26 M23.49 21.75 C30.03 14.22, 36.57 6.7, 42.52 -0.14 M23.49 21.75 C30.15 14.09, 36.81 6.44, 42.52 -0.14 M28.48 22.11 C35.17 14.41, 41.86 6.72, 47.51 0.22 M28.48 22.11 C35.97 13.5, 43.45 4.89, 47.51 0.22 M34.12 21.71 C39.27 15.79, 44.42 9.87, 53.15 -0.17 M34.12 21.71 C40.09 14.86, 46.05 8, 53.15 -0.17 M39.11 22.07 C45.33 14.93, 51.54 7.78, 58.14 0.19 M39.11 22.07 C45.18 15.09, 51.25 8.11, 58.14 0.19 M44.75 21.68 C52.36 12.94, 59.96 4.19, 63.78 -0.21 M44.75 21.68 C50.79 14.73, 56.83 7.79, 63.78 -0.21 M49.74 22.04 C55.86 15, 61.98 7.97, 68.77 0.15 M49.74 22.04 C53.76 17.41, 57.79 12.78, 68.77 0.15 M55.38 21.65 C62.58 13.36, 69.78 5.08, 74.41 -0.24 M55.38 21.65 C59.22 17.23, 63.06 12.82, 74.41 -0.24 M60.37 22.01 C64.35 17.43, 68.32 12.86, 79.4 0.12 M60.37 22.01 C65.8 15.76, 71.23 9.52, 79.4 0.12 M66.02 21.61 C71.82 14.94, 77.62 8.27, 85.04 -0.28 M66.02 21.61 C72.79 13.81, 79.57 6.02, 85.04 -0.28 M71 21.97 C76.93 15.16, 82.85 8.34, 90.03 0.08 M71 21.97 C76.82 15.28, 82.63 8.6, 90.03 0.08 M76.65 21.58 C82.86 14.43, 89.07 7.28, 95.67 -0.31 M76.65 21.58 C82.75 14.55, 88.86 7.53, 95.67 -0.31 M81.63 21.94 C85.47 17.52, 89.31 13.11, 100.66 0.05 M81.63 21.94 C89 13.47, 96.36 5, 100.66 0.05 M87.28 21.54 C91.86 16.26, 96.45 10.99, 106.3 -0.34 M87.28 21.54 C94.61 13.11, 101.94 4.67, 106.3 -0.34 M92.26 21.9 C98.02 15.28, 103.77 8.66, 111.29 0.02 M92.26 21.9 C99.77 13.27, 107.27 4.63, 111.29 0.02 M97.25 22.26 C102.89 15.78, 108.52 9.29, 116.27 0.38 M97.25 22.26 C104.66 13.73, 112.08 5.21, 116.27 0.38 M102.89 21.87 C108.15 15.82, 113.41 9.76, 121.26 0.74 M102.89 21.87 C109.19 14.62, 115.49 7.37, 121.26 0.74 M107.88 22.23 C112.99 16.35, 118.1 10.47, 121 7.13 M107.88 22.23 C112.12 17.34, 116.37 12.46, 121 7.13 M113.52 21.83 C115.7 19.33, 117.87 16.83, 121.4 12.78 M113.52 21.83 C116.65 18.24, 119.78 14.64, 121.4 12.78 M-0.09 19.92 C-0.09 19.92, -0.09 19.92, -0.09 19.92 M-0.09 19.92 C-0.09 19.92, -0.09 19.92, -0.09 19.92 M6.31 20.18 C4.83 18.9, 3.36 17.62, 0.27 14.93 M6.31 20.18 C4.66 18.75, 3.02 17.33, 0.27 14.93 M11.95 19.79 C7.95 16.31, 3.94 12.83, -0.13 9.29 M11.95 19.79 C8.46 16.75, 4.96 13.72, -0.13 9.29 M18.35 20.05 C14.48 16.69, 10.62 13.33, 0.23 4.3 M18.35 20.05 C14.14 16.39, 9.94 12.74, 0.23 4.3 M24.74 20.31 C19.3 15.58, 13.86 10.85, 0.59 -0.68 M24.74 20.31 C18.69 15.04, 12.63 9.78, 0.59 -0.68 M30.39 19.92 C24.39 14.7, 18.4 9.49, 6.99 -0.42 M30.39 19.92 C23.54 13.96, 16.7 8.01, 6.99 -0.42 M36.79 20.18 C30.8 14.97, 24.81 9.76, 12.64 -0.82 M36.79 20.18 C31.92 15.95, 27.06 11.72, 12.64 -0.82 M42.43 19.78 C35.51 13.77, 28.6 7.76, 19.03 -0.56 M42.43 19.78 C37.32 15.34, 32.22 10.91, 19.03 -0.56 M48.83 20.04 C40.44 12.76, 32.06 5.47, 24.68 -0.95 M48.83 20.04 C42.05 14.15, 35.26 8.25, 24.68 -0.95 M55.22 20.31 C47.88 13.92, 40.54 7.54, 31.07 -0.69 M55.22 20.31 C47.4 13.51, 39.58 6.71, 31.07 -0.69 M60.87 19.91 C53.37 13.39, 45.87 6.88, 37.47 -0.43 M60.87 19.91 C52.01 12.21, 43.14 4.5, 37.47 -0.43 M67.27 20.17 C59.92 13.79, 52.58 7.41, 43.11 -0.82 M67.27 20.17 C60.64 14.42, 54.02 8.66, 43.11 -0.82 M72.91 19.78 C67.87 15.4, 62.83 11.01, 49.51 -0.56 M72.91 19.78 C65.06 12.96, 57.22 6.14, 49.51 -0.56 M79.31 20.04 C70.41 12.3, 61.51 4.57, 55.16 -0.95 M79.31 20.04 C72.44 14.07, 65.58 8.1, 55.16 -0.95 M85.7 20.3 C77.73 13.37, 69.76 6.44, 61.55 -0.69 M85.7 20.3 C77.49 13.16, 69.28 6.02, 61.55 -0.69 M91.35 19.91 C86.2 15.43, 81.05 10.96, 67.95 -0.43 M91.35 19.91 C83.89 13.42, 76.43 6.94, 67.95 -0.43 M97.74 20.17 C92.63 15.72, 87.52 11.28, 73.59 -0.83 M97.74 20.17 C89.7 13.17, 81.66 6.18, 73.59 -0.83 M103.39 19.77 C97.98 15.07, 92.57 10.37, 79.99 -0.56 M103.39 19.77 C96.54 13.82, 89.69 7.87, 79.99 -0.56 M109.79 20.03 C103.55 14.62, 97.32 9.2, 85.63 -0.96 M109.79 20.03 C104.86 15.75, 99.93 11.47, 85.63 -0.96 M116.18 20.3 C110.76 15.58, 105.33 10.86, 92.03 -0.7 M116.18 20.3 C109.64 14.61, 103.11 8.93, 92.03 -0.7 M121.07 19.25 C113.9 13.01, 106.73 6.78, 98.43 -0.44 M121.07 19.25 C112.17 11.51, 103.28 3.78, 98.43 -0.44 M120.68 13.6 C116.14 9.66, 111.61 5.72, 104.07 -0.83 M120.68 13.6 C116.23 9.74, 111.78 5.87, 104.07 -0.83 M121.04 8.62 C118.02 5.99, 115 3.37, 110.47 -0.57 M121.04 8.62 C117.98 5.96, 114.92 3.3, 110.47 -0.57 M120.64 2.97 C119.29 1.79, 117.93 0.62, 116.11 -0.96 M120.64 2.97 C119.52 1.99, 118.39 1.01, 116.11 -0.96" stroke="#fd7e14" stroke-width="0.5" fill="none"></path><path d="M0 0 C31.44 0, 62.89 0, 120 0 M0 0 C34.61 0, 69.22 0, 120 0 M120 0 C120 6.98, 120 13.97, 120 20 M120 0 C120 4.17, 120 8.35, 120 20 M120 20 C74.88 20, 29.76 20, 0 20 M120 20 C90.54 20, 61.07 20, 0 20 M0 20 C0 13.38, 0 6.76, 0 0 M0 20 C0 15.08, 0 10.16, 0 0" stroke="#000000" stroke-width="1" fill="none"></path></g><g stroke-linecap="round"><g transform="translate(130.96817353671395 230) rotate(0 210.2650037124754 -0.005795104801677553)"><path d="M0.03 0.85 C70.23 0.53, 350.64 -0.56, 420.5 -0.86" stroke="#000000" stroke-width="2.5" fill="none" stroke-dasharray="8 10"></path></g></g><g stroke-linecap="round" transform="translate(191 510) rotate(0 150 40)"><path d="M0 0 C0 0, 0 0, 0 0 M0 0 C0 0, 0 0, 0 0 M-0.26 6.4 C1.32 4.58, 2.9 2.77, 4.99 0.36 M-0.26 6.4 C1.44 4.44, 3.15 2.48, 4.99 0.36 M0.13 12.04 C2.52 9.29, 4.91 6.55, 10.63 -0.03 M0.13 12.04 C3.26 8.45, 6.38 4.85, 10.63 -0.03 M-0.13 18.44 C3.63 14.12, 7.39 9.79, 15.62 0.33 M-0.13 18.44 C5.74 11.69, 11.61 4.94, 15.62 0.33 M0.27 24.08 C7.03 16.3, 13.79 8.52, 21.26 -0.07 M0.27 24.08 C4.5 19.21, 8.73 14.35, 21.26 -0.07 M0 30.48 C6.9 22.55, 13.79 14.62, 26.25 0.29 M0 30.48 C7.57 21.77, 15.15 13.06, 26.25 0.29 M-0.26 36.88 C10.73 24.24, 21.71 11.6, 31.89 -0.1 M-0.26 36.88 C9.1 26.12, 18.45 15.35, 31.89 -0.1 M0.14 42.52 C8.87 32.47, 17.61 22.42, 36.88 0.26 M0.14 42.52 C11.89 29.01, 23.63 15.49, 36.88 0.26 M-0.12 48.92 C13.78 32.92, 27.68 16.93, 42.52 -0.14 M-0.12 48.92 C10.05 37.22, 20.22 25.51, 42.52 -0.14 M0.27 54.56 C18.16 33.98, 36.05 13.4, 47.51 0.22 M0.27 54.56 C17.48 34.77, 34.68 14.97, 47.51 0.22 M0.01 60.96 C14.09 44.76, 28.17 28.57, 53.15 -0.17 M0.01 60.96 C19.51 38.53, 39 16.1, 53.15 -0.17 M-0.25 67.36 C14.38 50.53, 29 33.7, 58.14 0.19 M-0.25 67.36 C21.33 42.53, 42.91 17.7, 58.14 0.19 M0.14 73 C19.12 51.17, 38.1 29.33, 63.78 -0.21 M0.14 73 C15.97 54.8, 31.79 36.59, 63.78 -0.21 M-0.12 79.4 C25.22 50.25, 50.56 21.1, 68.77 0.15 M-0.12 79.4 C22.85 52.97, 45.82 26.55, 68.77 0.15 M2.9 82.02 C25.49 56.04, 48.07 30.06, 74.41 -0.24 M2.9 82.02 C24.82 56.81, 46.74 31.59, 74.41 -0.24 M7.89 82.38 C36.18 49.83, 64.47 17.29, 79.4 0.12 M7.89 82.38 C29.59 57.42, 51.29 32.45, 79.4 0.12 M13.53 81.99 C39.1 52.57, 64.67 23.16, 85.04 -0.28 M13.53 81.99 C28.77 64.46, 44.01 46.92, 85.04 -0.28 M18.52 82.35 C43.45 53.66, 68.39 24.98, 90.03 0.08 M18.52 82.35 C45.5 51.31, 72.48 20.27, 90.03 0.08 M24.16 81.95 C39.41 64.42, 54.65 46.88, 95.67 -0.31 M24.16 81.95 C44.98 58, 65.8 34.06, 95.67 -0.31 M29.15 82.31 C57.17 50.07, 85.2 17.83, 100.66 0.05 M29.15 82.31 C50.79 57.42, 72.43 32.52, 100.66 0.05 M34.13 82.67 C50.2 64.19, 66.27 45.71, 106.3 -0.34 M34.13 82.67 C56.74 56.67, 79.34 30.67, 106.3 -0.34 M39.78 82.28 C56.94 62.53, 74.11 42.78, 111.29 0.02 M39.78 82.28 C59.59 59.48, 79.41 36.69, 111.29 0.02 M44.76 82.64 C64.48 59.96, 84.2 37.28, 116.27 0.38 M44.76 82.64 C66.36 57.8, 87.95 32.96, 116.27 0.38 M50.41 82.24 C76.01 52.79, 101.61 23.34, 121.92 -0.02 M50.41 82.24 C75.32 53.59, 100.23 24.93, 121.92 -0.02 M55.39 82.6 C70.58 65.14, 85.76 47.68, 126.91 0.34 M55.39 82.6 C79 55.45, 102.6 28.3, 126.91 0.34 M61.04 82.21 C86.83 52.54, 112.62 22.87, 132.55 -0.05 M61.04 82.21 C76.34 64.6, 91.65 47, 132.55 -0.05 M66.02 82.57 C81.91 64.29, 97.8 46.01, 137.54 0.31 M66.02 82.57 C88.92 56.23, 111.82 29.88, 137.54 0.31 M71.67 82.18 C86.88 64.67, 102.1 47.17, 143.18 -0.09 M71.67 82.18 C87.53 63.93, 103.39 45.68, 143.18 -0.09 M76.65 82.54 C94.19 62.36, 111.73 42.18, 148.17 0.27 M76.65 82.54 C94.18 62.38, 111.7 42.22, 148.17 0.27 M82.3 82.14 C98.69 63.28, 115.09 44.42, 153.81 -0.12 M82.3 82.14 C108.71 51.76, 135.12 21.37, 153.81 -0.12 M87.28 82.5 C113.84 51.95, 140.39 21.41, 158.8 0.24 M87.28 82.5 C110.69 55.58, 134.09 28.66, 158.8 0.24 M92.93 82.11 C112.59 59.49, 132.25 36.88, 164.44 -0.16 M92.93 82.11 C114.69 57.07, 136.45 32.04, 164.44 -0.16 M97.91 82.47 C115.1 62.7, 132.28 42.93, 169.43 0.2 M97.91 82.47 C115.03 62.77, 132.15 43.08, 169.43 0.2 M103.56 82.07 C129.63 52.08, 155.7 22.09, 175.07 -0.19 M103.56 82.07 C126.75 55.39, 149.95 28.71, 175.07 -0.19 M108.55 82.43 C125.84 62.53, 143.14 42.63, 180.06 0.17 M108.55 82.43 C130.3 57.41, 152.05 32.38, 180.06 0.17 M114.19 82.04 C133.01 60.39, 151.83 38.74, 185.7 -0.23 M114.19 82.04 C141.16 51.01, 168.12 19.99, 185.7 -0.23 M119.18 82.4 C141.78 56.39, 164.39 30.39, 190.69 0.13 M119.18 82.4 C140.22 58.18, 161.27 33.97, 190.69 0.13 M124.82 82 C145.23 58.52, 165.64 35.04, 196.33 -0.26 M124.82 82 C143.43 60.59, 162.04 39.18, 196.33 -0.26 M129.81 82.36 C155.03 53.35, 180.25 24.34, 201.32 0.1 M129.81 82.36 C146.43 63.24, 163.05 44.12, 201.32 0.1 M135.45 81.97 C156.64 57.6, 177.82 33.22, 206.96 -0.3 M135.45 81.97 C151.28 63.75, 167.12 45.53, 206.96 -0.3 M140.44 82.33 C168.43 50.12, 196.43 17.92, 211.95 0.06 M140.44 82.33 C168.4 50.15, 196.37 17.98, 211.95 0.06 M146.08 81.93 C168.28 56.39, 190.49 30.84, 217.59 -0.33 M146.08 81.93 C171.7 52.46, 197.33 22.98, 217.59 -0.33 M151.07 82.29 C166.97 64, 182.87 45.7, 222.58 0.03 M151.07 82.29 C172.02 58.18, 192.98 34.07, 222.58 0.03 M156.05 82.65 C177.2 58.33, 198.35 34, 228.22 -0.36 M156.05 82.65 C171.82 64.51, 187.6 46.37, 228.22 -0.36 M161.7 82.26 C189.24 50.57, 216.79 18.88, 233.21 0 M161.7 82.26 C183.93 56.68, 206.17 31.09, 233.21 0 M166.68 82.62 C192.33 53.12, 217.97 23.62, 238.19 0.36 M166.68 82.62 C195.27 49.73, 223.86 16.84, 238.19 0.36 M172.33 82.22 C198.77 51.8, 225.21 21.38, 243.84 -0.04 M172.33 82.22 C191.45 60.22, 210.58 38.22, 243.84 -0.04 M177.31 82.58 C203.92 51.97, 230.54 21.36, 248.82 0.32 M177.31 82.58 C202.32 53.82, 227.33 25.05, 248.82 0.32 M182.96 82.19 C198.4 64.42, 213.84 46.66, 254.47 -0.07 M182.96 82.19 C199.78 62.84, 216.6 43.49, 254.47 -0.07 M187.94 82.55 C212.86 53.89, 237.78 25.22, 259.45 0.29 M187.94 82.55 C214.11 52.45, 240.28 22.35, 259.45 0.29 M193.59 82.16 C216.01 56.36, 238.44 30.56, 265.1 -0.11 M193.59 82.16 C217.67 54.45, 241.76 26.74, 265.1 -0.11 M198.57 82.52 C216.62 61.75, 234.67 40.99, 270.08 0.25 M198.57 82.52 C226.9 49.93, 255.23 17.34, 270.08 0.25 M204.22 82.12 C218.7 65.46, 233.18 48.8, 275.73 -0.14 M204.22 82.12 C228.89 53.74, 253.56 25.36, 275.73 -0.14 M209.2 82.48 C237.72 49.68, 266.24 16.87, 280.71 0.22 M209.2 82.48 C226.22 62.91, 243.24 43.33, 280.71 0.22 M214.85 82.09 C241.49 51.43, 268.14 20.78, 286.36 -0.18 M214.85 82.09 C235.04 58.85, 255.24 35.62, 286.36 -0.18 M219.83 82.45 C237.89 61.68, 255.95 40.9, 291.34 0.18 M219.83 82.45 C244.08 54.55, 268.33 26.66, 291.34 0.18 M225.48 82.05 C244.33 60.36, 263.19 38.67, 296.99 -0.21 M225.48 82.05 C241.33 63.82, 257.18 45.58, 296.99 -0.21 M230.46 82.41 C246.64 63.8, 262.82 45.18, 301.32 0.9 M230.46 82.41 C258.6 50.04, 286.74 17.67, 301.32 0.9 M236.11 82.02 C253.36 62.17, 270.6 42.33, 301.06 7.3 M236.11 82.02 C254.65 60.69, 273.19 39.36, 301.06 7.3 M241.09 82.38 C258.67 62.16, 276.25 41.94, 301.45 12.94 M241.09 82.38 C262.81 57.39, 284.53 32.41, 301.45 12.94 M246.74 81.98 C264.06 62.05, 281.38 42.13, 301.19 19.34 M246.74 81.98 C260.16 66.55, 273.58 51.11, 301.19 19.34 M251.72 82.34 C269.24 62.2, 286.75 42.05, 300.93 25.74 M251.72 82.34 C262.78 69.62, 273.84 56.9, 300.93 25.74 M257.37 81.95 C271.05 66.21, 284.73 50.48, 301.32 31.38 M257.37 81.95 C271.75 65.4, 286.14 48.85, 301.32 31.38 M262.35 82.31 C273.48 69.51, 284.6 56.72, 301.06 37.78 M262.35 82.31 C271.63 71.64, 280.9 60.97, 301.06 37.78 M267.34 82.67 C277.05 71.5, 286.76 60.33, 301.46 43.42 M267.34 82.67 C274.18 74.8, 281.02 66.93, 301.46 43.42 M272.98 82.27 C281.45 72.53, 289.93 62.79, 301.19 49.82 M272.98 82.27 C281.5 72.47, 290.02 62.67, 301.19 49.82 M277.97 82.63 C283.21 76.6, 288.45 70.57, 300.93 56.22 M277.97 82.63 C286.9 72.36, 295.83 62.08, 300.93 56.22 M283.61 82.24 C289.98 74.91, 296.35 67.59, 301.33 61.86 M283.61 82.24 C289.98 74.91, 296.35 67.58, 301.33 61.86 M288.6 82.6 C292.12 78.56, 295.63 74.51, 301.07 68.26 M288.6 82.6 C291.91 78.8, 295.21 74.99, 301.07 68.26 M294.24 82.21 C296.99 79.05, 299.73 75.89, 301.46 73.9 M294.24 82.21 C295.76 80.46, 297.28 78.72, 301.46 73.9" stroke="#868e96" stroke-width="0.5" fill="none"></path><path d="M0 0 C103.27 0, 206.54 0, 300 0 M0 0 C96.54 0, 193.08 0, 300 0 M300 0 C300 29.95, 300 59.91, 300 80 M300 0 C300 23.37, 300 46.74, 300 80 M300 80 C239 80, 178 80, 0 80 M300 80 C238.4 80, 176.79 80, 0 80 M0 80 C0 53.25, 0 26.5, 0 0 M0 80 C0 52.23, 0 24.45, 0 0" stroke="transparent" stroke-width="1" fill="none"></path></g><g transform="translate(171.2405661492985 430.25449959253865) rotate(0 167.63635808771278 -2.772718949751379)" stroke="none"><path fill="transparent" d="M 0,-1.56 Q 0,-1.56 2.09,-1.53 4.18,-1.51 6.68,-1.69 9.18,-1.87 12.40,-1.94 15.62,-2.01 19.49,-2.03 23.37,-2.06 27.31,-2.06 31.25,-2.07 34.39,-2.07 37.53,-2.07 41.13,-2.27 44.73,-2.48 48.17,-2.56 51.62,-2.65 54.13,-2.69 56.64,-2.72 59.38,-2.74 62.12,-2.75 66.01,-2.76 69.89,-2.76 74.05,-2.76 78.21,-2.76 82.91,-2.76 87.60,-2.77 92.31,-2.77 97.03,-2.77 101.96,-2.76 106.89,-2.76 110.45,-2.76 114.01,-2.76 116.56,-2.76 119.12,-2.76 121.12,-2.59 123.12,-2.42 124.84,-2.19 126.55,-1.96 128.59,-1.99 130.63,-2.02 141.53,-2.33 152.43,-2.64 163.39,-2.75 174.35,-2.85 183.58,-3.09 192.82,-3.32 202.40,-3.61 211.97,-3.91 220.83,-4.44 229.69,-4.97 235.99,-5.19 242.29,-5.41 247.24,-5.71 252.20,-6.01 256.63,-6.13 261.07,-6.25 264.59,-6.51 268.10,-6.77 271.05,-7.08 274.00,-7.40 276.34,-7.53 278.69,-7.67 280.31,-7.82 281.93,-7.97 283.25,-8.10 284.58,-8.23 285.76,-8.11 286.94,-7.99 288.58,-7.72 290.23,-7.44 292.00,-7.10 293.76,-6.76 295.65,-6.58 297.53,-6.40 299.19,-6.37 300.84,-6.33 301.97,-6.39 303.09,-6.44 304.19,-6.50 305.29,-6.56 307.17,-6.68 309.06,-6.79 310.32,-6.81 311.59,-6.84 312.97,-6.64 314.36,-6.44 315.82,-6.41 317.28,-6.38 318.68,-6.35 320.08,-6.31 321.31,-6.31 322.54,-6.32 323.69,-6.33 324.84,-6.34 326.91,-6.15 328.98,-5.95 330.35,-5.36 331.73,-4.78 333.51,-4.25 335.30,-3.73 335.71,-3.52 336.13,-3.31 336.45,-2.97 336.78,-2.64 336.98,-2.22 337.18,-1.81 337.24,-1.34 337.30,-0.88 337.21,-0.43 337.12,0.02 336.88,0.42 336.65,0.82 336.30,1.13 335.95,1.44 335.52,1.62 335.09,1.80 334.63,1.83 334.17,1.86 333.72,1.75 333.27,1.63 332.88,1.38 332.49,1.12 332.20,0.76 331.91,0.39 331.76,-0.04 331.60,-0.48 331.59,-0.94 331.58,-1.40 331.72,-1.85 331.87,-2.29 332.14,-2.67 332.42,-3.04 332.80,-3.31 333.18,-3.58 333.62,-3.71 334.07,-3.84 334.53,-3.82 335.00,-3.81 335.43,-3.64 335.87,-3.48 336.23,-3.18 336.59,-2.89 336.83,-2.49 337.08,-2.10 337.19,-1.65 337.29,-1.19 337.25,-0.73 337.21,-0.27 337.02,0.15 336.83,0.57 336.52,0.92 336.21,1.26 335.80,1.48 335.39,1.71 334.93,1.79 334.48,1.87 334.02,1.81 333.56,1.74 333.56,1.74 333.56,1.74 331.53,1.05 329.51,0.37 328.53,-0.05 327.54,-0.48 326.19,-0.70 324.83,-0.93 323.67,-0.95 322.51,-0.97 321.27,-0.98 320.02,-1.00 317.50,-1.08 314.99,-1.15 313.28,-1.52 311.57,-1.88 310.31,-1.91 309.05,-1.93 307.15,-2.06 305.24,-2.19 304.12,-2.27 303.00,-2.35 301.85,-2.46 300.71,-2.56 298.99,-2.65 297.27,-2.74 295.16,-2.84 293.04,-2.95 291.30,-3.27 289.55,-3.60 287.09,-4.19 284.63,-4.78 283.33,-4.86 282.04,-4.94 280.44,-4.97 278.84,-5.01 276.57,-4.87 274.29,-4.73 271.30,-4.40 268.31,-4.08 264.73,-3.80 261.15,-3.53 256.76,-3.39 252.37,-3.25 247.38,-2.93 242.40,-2.60 236.13,-2.35 229.87,-2.09 220.97,-1.51 212.07,-0.93 202.49,-0.57 192.92,-0.20 183.66,0.11 174.40,0.44 163.48,0.67 152.56,0.90 141.51,1.38 130.46,1.86 128.23,1.47 126.00,1.08 124.41,0.72 122.82,0.35 120.97,0.10 119.12,-0.14 116.56,-0.13 114.01,-0.13 110.45,-0.13 106.89,-0.13 101.96,-0.13 97.03,-0.13 92.31,-0.13 87.60,-0.13 82.91,-0.13 78.21,-0.13 74.05,-0.12 69.90,-0.12 66.02,-0.11 62.14,-0.10 59.41,-0.08 56.68,-0.06 54.19,-0.02 51.69,0.01 48.29,0.10 44.88,0.19 41.21,0.41 37.54,0.63 34.40,0.65 31.27,0.66 27.33,0.69 23.39,0.71 19.55,0.77 15.70,0.82 12.56,0.92 9.42,1.03 6.80,1.27 4.18,1.51 2.09,1.53 0,1.56 -0.18,1.54 -0.37,1.51 -0.55,1.45 -0.72,1.38 -0.88,1.27 -1.03,1.17 -1.16,1.03 -1.28,0.88 -1.37,0.72 -1.46,0.55 -1.50,0.37 -1.55,0.18 -1.55,-0.00 -1.55,-0.18 -1.50,-0.37 -1.46,-0.55 -1.37,-0.72 -1.28,-0.88 -1.16,-1.03 -1.03,-1.17 -0.88,-1.27 -0.72,-1.38 -0.55,-1.45 -0.37,-1.51 -0.18,-1.54 0.00,-1.56 0.00,-1.56 L 0,-1.56 Z"></path></g><g stroke-linecap="round"><g transform="translate(170.96817353671395 430) rotate(0 169.93661794444097 0.23111552180694162)"><path d="M-0.58 -0.4 C121.46 -0.54, 245.98 0.41, 340.45 0.95 M-0.01 -0.49 C94.12 0.29, 189.04 0.14, 340.07 0.35" stroke="#000000" stroke-width="1" fill="none"></path></g></g><g stroke-linecap="round"><g transform="translate(510.96817353671395 430) rotate(0 -0.45310969857496275 60.52689793584875)"><path d="M0.41 0.86 C0.24 20.64, -0.12 99.65, -0.23 119.51 M-0.84 0.26 C-1.26 20.13, -1.25 100.62, -1.31 120.79" stroke="#000000" stroke-width="1" fill="none"></path></g></g><g stroke-linecap="round" transform="translate(190.96817353671395 450) rotate(0 150.1435091444887 20)"><path d="M0 0 C0 0, 0 0, 0 0 M0 0 C0 0, 0 0, 0 0 M-0.26 6.4 C1.32 4.58, 2.89 2.77, 4.99 0.36 M-0.26 6.4 C1.49 4.39, 3.24 2.37, 4.99 0.36 M0.13 12.04 C3.19 8.52, 6.25 5, 10.63 -0.03 M0.13 12.04 C3.32 8.37, 6.51 4.7, 10.63 -0.03 M-0.13 18.44 C6.14 11.23, 12.4 4.03, 15.62 0.33 M-0.13 18.44 C5.24 12.26, 10.61 6.08, 15.62 0.33 M0.27 24.08 C8.64 14.45, 17.02 4.81, 21.26 -0.07 M0.27 24.08 C5.69 17.84, 11.12 11.6, 21.26 -0.07 M0 30.48 C7.16 22.24, 14.32 14.01, 26.25 0.29 M0 30.48 C8.28 20.96, 16.56 11.43, 26.25 0.29 M-0.26 36.88 C8.75 26.52, 17.76 16.16, 31.89 -0.1 M-0.26 36.88 C12.12 22.64, 24.49 8.41, 31.89 -0.1 M1.45 41.01 C13.81 26.79, 26.17 12.58, 36.88 0.26 M1.45 41.01 C9.15 32.15, 16.86 23.29, 36.88 0.26 M6.44 41.37 C19.36 26.51, 32.28 11.65, 42.52 -0.14 M6.44 41.37 C13.93 32.75, 21.43 24.12, 42.52 -0.14 M12.08 40.98 C23.52 27.82, 34.96 14.66, 47.51 0.22 M12.08 40.98 C21.29 30.38, 30.5 19.79, 47.51 0.22 M17.07 41.34 C27.12 29.77, 37.18 18.2, 53.15 -0.17 M17.07 41.34 C29.81 26.68, 42.55 12.02, 53.15 -0.17 M22.71 40.94 C32.11 30.13, 41.51 19.31, 58.14 0.19 M22.71 40.94 C30.05 32.5, 37.39 24.05, 58.14 0.19 M27.7 41.3 C35.34 32.51, 42.98 23.72, 63.78 -0.21 M27.7 41.3 C36.67 30.98, 45.64 20.67, 63.78 -0.21 M33.34 40.91 C44.68 27.86, 56.02 14.82, 68.77 0.15 M33.34 40.91 C43.1 29.69, 52.85 18.46, 68.77 0.15 M38.33 41.27 C50.97 26.73, 63.61 12.19, 74.41 -0.24 M38.33 41.27 C46.39 31.99, 54.45 22.72, 74.41 -0.24 M43.97 40.87 C51.21 32.55, 58.45 24.22, 79.4 0.12 M43.97 40.87 C52.18 31.43, 60.39 21.98, 79.4 0.12 M48.96 41.23 C56.56 32.49, 64.16 23.74, 85.04 -0.28 M48.96 41.23 C56.48 32.58, 64 23.93, 85.04 -0.28 M54.6 40.84 C65.54 28.26, 76.48 15.67, 90.03 0.08 M54.6 40.84 C65.07 28.79, 75.55 16.74, 90.03 0.08 M59.59 41.2 C71.6 27.38, 83.61 13.56, 95.67 -0.31 M59.59 41.2 C68.1 31.41, 76.61 21.62, 95.67 -0.31 M65.23 40.8 C79.31 24.61, 93.39 8.41, 100.66 0.05 M65.23 40.8 C73.64 31.13, 82.05 21.45, 100.66 0.05 M70.22 41.16 C83.94 25.38, 97.67 9.59, 106.3 -0.34 M70.22 41.16 C82.48 27.06, 94.74 12.96, 106.3 -0.34 M75.2 41.52 C86.32 28.74, 97.44 15.95, 111.29 0.02 M75.2 41.52 C85.29 29.92, 95.37 18.33, 111.29 0.02 M80.85 41.13 C89.34 31.36, 97.84 21.59, 116.27 0.38 M80.85 41.13 C89.9 30.72, 98.95 20.3, 116.27 0.38 M85.83 41.49 C94.92 31.04, 104 20.6, 121.92 -0.02 M85.83 41.49 C100.1 25.08, 114.37 8.66, 121.92 -0.02 M91.48 41.1 C102.86 28, 114.25 14.9, 126.91 0.34 M91.48 41.1 C102.82 28.04, 114.17 14.99, 126.91 0.34 M96.46 41.46 C107.74 28.48, 119.02 15.51, 132.55 -0.05 M96.46 41.46 C104.07 32.71, 111.67 23.97, 132.55 -0.05 M102.11 41.06 C111.28 30.51, 120.45 19.96, 137.54 0.31 M102.11 41.06 C115.3 25.88, 128.5 10.7, 137.54 0.31 M107.09 41.42 C119.68 26.95, 132.26 12.47, 143.18 -0.09 M107.09 41.42 C117.99 28.88, 128.89 16.35, 143.18 -0.09 M112.74 41.03 C120.15 32.49, 127.57 23.96, 148.17 0.27 M112.74 41.03 C121.68 30.74, 130.62 20.46, 148.17 0.27 M117.73 41.39 C128.24 29.29, 138.76 17.19, 153.81 -0.12 M117.73 41.39 C128.48 29.01, 139.23 16.64, 153.81 -0.12 M123.37 40.99 C135.89 26.59, 148.4 12.19, 158.8 0.24 M123.37 40.99 C134.05 28.7, 144.74 16.41, 158.8 0.24 M128.36 41.35 C137.21 31.16, 146.07 20.97, 164.44 -0.16 M128.36 41.35 C142.02 25.64, 155.68 9.92, 164.44 -0.16 M134 40.96 C147.99 24.87, 161.97 8.77, 169.43 0.2 M134 40.96 C143.34 30.22, 152.67 19.47, 169.43 0.2 M138.99 41.32 C153.02 25.17, 167.06 9.02, 175.07 -0.19 M138.99 41.32 C152.53 25.74, 166.07 10.15, 175.07 -0.19 M144.63 40.92 C153.88 30.28, 163.14 19.63, 180.06 0.17 M144.63 40.92 C158.2 25.31, 171.77 9.7, 180.06 0.17 M149.62 41.28 C159.5 29.92, 169.38 18.55, 185.7 -0.23 M149.62 41.28 C159.41 30.02, 169.2 18.75, 185.7 -0.23 M155.26 40.89 C162.46 32.6, 169.67 24.31, 190.69 0.13 M155.26 40.89 C166.12 28.4, 176.98 15.9, 190.69 0.13 M160.25 41.25 C171.97 27.76, 183.69 14.28, 196.33 -0.26 M160.25 41.25 C171.12 28.74, 182 16.22, 196.33 -0.26 M165.89 40.85 C176.36 28.8, 186.84 16.75, 201.32 0.1 M165.89 40.85 C179.42 25.29, 192.95 9.73, 201.32 0.1 M170.88 41.21 C183.16 27.08, 195.45 12.94, 206.96 -0.3 M170.88 41.21 C179.96 30.76, 189.04 20.32, 206.96 -0.3 M176.52 40.82 C188.41 27.14, 200.3 13.46, 211.95 0.06 M176.52 40.82 C189.23 26.2, 201.93 11.58, 211.95 0.06 M181.51 41.18 C195.69 24.87, 209.87 8.55, 217.59 -0.33 M181.51 41.18 C194.5 26.23, 207.49 11.29, 217.59 -0.33 M187.15 40.78 C199.36 26.74, 211.57 12.69, 222.58 0.03 M187.15 40.78 C197.35 29.04, 207.56 17.3, 222.58 0.03 M192.14 41.14 C203.95 27.55, 215.77 13.95, 228.22 -0.36 M192.14 41.14 C199.92 32.19, 207.71 23.23, 228.22 -0.36 M197.12 41.5 C206.77 30.41, 216.41 19.32, 233.21 0 M197.12 41.5 C205.16 32.26, 213.19 23.02, 233.21 0 M202.77 41.11 C212.08 30.39, 221.4 19.68, 238.19 0.36 M202.77 41.11 C211.98 30.51, 221.19 19.92, 238.19 0.36 M207.75 41.47 C217.55 30.2, 227.34 18.94, 243.84 -0.04 M207.75 41.47 C219.18 28.32, 230.61 15.18, 243.84 -0.04 M213.4 41.08 C223.72 29.19, 234.05 17.31, 248.82 0.32 M213.4 41.08 C223.49 29.46, 233.59 17.84, 248.82 0.32 M218.38 41.44 C227.36 31.11, 236.33 20.79, 254.47 -0.07 M218.38 41.44 C230.15 27.9, 241.91 14.37, 254.47 -0.07 M224.03 41.04 C237.45 25.6, 250.88 10.15, 259.45 0.29 M224.03 41.04 C235.9 27.39, 247.77 13.73, 259.45 0.29 M229.01 41.4 C240.34 28.37, 251.67 15.34, 265.1 -0.11 M229.01 41.4 C240.12 28.62, 251.23 15.85, 265.1 -0.11 M234.66 41.01 C244.03 30.23, 253.39 19.45, 270.08 0.25 M234.66 41.01 C241.94 32.63, 249.23 24.25, 270.08 0.25 M239.64 41.37 C250.67 28.68, 261.69 16, 275.73 -0.14 M239.64 41.37 C251.23 28.04, 262.82 14.71, 275.73 -0.14 M245.29 40.97 C258.06 26.28, 270.83 11.59, 280.71 0.22 M245.29 40.97 C257.47 26.95, 269.66 12.93, 280.71 0.22 M250.27 41.33 C260.57 29.49, 270.86 17.65, 286.36 -0.18 M250.27 41.33 C262.05 27.78, 273.83 14.23, 286.36 -0.18 M255.92 40.94 C264.88 30.62, 273.85 20.31, 291.34 0.18 M255.92 40.94 C268.28 26.72, 280.64 12.5, 291.34 0.18 M260.9 41.3 C269.51 31.4, 278.11 21.5, 296.99 -0.21 M260.9 41.3 C271.21 29.44, 281.52 17.58, 296.99 -0.21 M266.55 40.9 C273.56 32.83, 280.58 24.76, 301.32 0.9 M266.55 40.9 C275.96 30.08, 285.37 19.25, 301.32 0.9 M271.53 41.26 C282.56 28.57, 293.6 15.88, 301.06 7.3 M271.53 41.26 C279.28 32.35, 287.04 23.43, 301.06 7.3 M277.18 40.87 C282.99 34.19, 288.8 27.5, 301.45 12.94 M277.18 40.87 C284.73 32.18, 292.28 23.49, 301.45 12.94 M282.16 41.23 C286.41 36.35, 290.65 31.47, 301.19 19.34 M282.16 41.23 C288.29 34.18, 294.42 27.13, 301.19 19.34 M287.81 40.83 C291.56 36.52, 295.31 32.21, 301.58 24.99 M287.81 40.83 C292.27 35.7, 296.73 30.57, 301.58 24.99 M292.79 41.19 C295.71 37.84, 298.63 34.48, 301.32 31.38 M292.79 41.19 C294.77 38.93, 296.74 36.66, 301.32 31.38 M298.44 40.8 C299.43 39.65, 300.43 38.51, 301.06 37.78 M298.44 40.8 C299.26 39.85, 300.08 38.91, 301.06 37.78" stroke="#15aabf" stroke-width="0.5" fill="none"></path><path d="M0 0 C71.18 0, 142.36 0, 300.29 0 M0 0 C74.76 0, 149.51 0, 300.29 0 M300.29 0 C300.29 12.46, 300.29 24.91, 300.29 40 M300.29 0 C300.29 9.18, 300.29 18.36, 300.29 40 M300.29 40 C232.8 40, 165.32 40, 0 40 M300.29 40 C204.3 40, 108.31 40, 0 40 M0 40 C0 26.78, 0 13.56, 0 0 M0 40 C0 28.72, 0 17.44, 0 0" stroke="#000000" stroke-width="1" fill="none"></path></g><g stroke-linecap="round"><g transform="translate(170.96817353671395 430) rotate(0 -0.17283962403871556 49.293616727460176)"><path d="M0.71 -0.66 C0.35 38.8, -1.05 78.91, 0.19 98.59 M-0.7 -0.06 C-1.37 20.83, -1.19 39.15, 0.55 99.25" stroke="#000000" stroke-width="1" fill="none"></path></g></g><g stroke-linecap="round"><g transform="translate(112.1267573845198 199.15275420155376) rotate(0 10.881579459644854 10.518612327054143)"><path d="M1.96 0.3 C3.38 3.56, 7.22 6.94, 18.74 20.74 M0.86 0.39 C6.84 5.75, 12.31 13.1, 20.91 19.06" stroke="#000000" stroke-width="2" fill="none"></path></g></g><g stroke-linecap="round"><g transform="translate(132.1267573845198 219.15275420155376) rotate(0 10.34844428487122 -9.161854587960988)"><path d="M-1.02 -1.26 C6.28 -5.08, 9.89 -8.95, 21.71 -19.23 M0.57 0.91 C6.32 -7.06, 14.97 -13.73, 19.32 -19.13" stroke="#000000" stroke-width="2" fill="none"></path></g></g><g stroke-linecap="round"><g transform="translate(112.1267573845198 199.15275420155376) rotate(0 20.036346076773498 0.42957076261757265)"><path d="M0.22 -0.7 C7.21 -0.6, 34.49 0.8, 41.2 1.03 M-1.13 1.55 C5.88 1.3, 34.04 -0.08, 40.88 -0.55" stroke="#000000" stroke-width="2" fill="none"></path></g></g><g transform="translate(10 216) rotate(0 53 12.5)"><text x="0" y="18" font-family="Virgil, Segoe UI Emoji" font-size="20px" fill="#000000" text-anchor="start" style="white-space: pre;" direction="ltr">PageBreak</text></g></svg>