<svg version="1.1" xmlns="http://www.w3.org/2000/svg" viewBox="0 0 531 580.9689528301358">
  <g stroke-linecap="round" transform="translate(10 170.96895283013578) rotate(0 170.28570992606024 200)"><path d="M0.65 1.16 C131.77 -1.09, 264.52 -1.49, 341.25 0.59 M-0.54 -0.53 C77.87 -1.22, 154.79 -1.93, 340.36 -0.18 M340.88 -1.06 C343.36 143.75, 341.58 285.97, 339.89 400.22 M340.11 0.24 C337.99 85.35, 337.94 170.63, 340.48 399.78 M341.69 398.84 C228.27 400.7, 115.33 401.6, -1.29 399.96 M340.8 399.55 C235.36 399.61, 129.09 400.09, 0.66 399.83 M1.13 400.83 C0.01 240.74, 1.39 81.31, -0.8 -0.12 M-0.36 400.28 C1.43 292.09, 0.74 184.37, 0.54 -0.57" stroke="#000000" stroke-width="1" fill="none"></path></g><g stroke-linecap="round" transform="translate(28.548234410583973 450.9689528301358) rotate(0 150.1435091444887 50)"><path d="M0 0 C0 0, 0 0, 0 0 M0 0 C0 0, 0 0, 0 0 M1.5 12.52 C4.65 7.57, 6.38 3.79, 11.28 1.41 M-0.58 12.33 C3.28 8.61, 7.95 4.01, 10.13 0.29 M1.73 24.42 C7.56 17.24, 14.02 11.04, 20.62 0.62 M-0.62 24.87 C9.06 14.84, 16.67 4.88, 21.54 -1.04 M-1.15 37.97 C10.77 24.17, 21.12 14.16, 30.73 -1.6 M0.41 36.03 C9.46 25.33, 20.14 12.65, 31.33 0.32 M-0.35 47.38 C11.68 36.12, 21.94 24.14, 43.65 0.89 M0.34 48.08 C11 37.16, 21.19 25.31, 42.53 -0.74 M1.66 59.88 C16.51 41.79, 30.78 24.2, 53.05 -2.08 M-0.98 60.72 C19.98 38.17, 40.08 14.19, 52.7 -0.76 M0.88 71.96 C19.66 50.92, 38.85 27.26, 65.18 -1.38 M0.36 72.57 C18.47 52.31, 36.62 31.92, 63.45 0.73 M-0.14 85.48 C23.92 55.07, 51.26 30.09, 75.58 -1.28 M-0.69 84.27 C20.17 60.54, 42.2 36.32, 74.03 -0.36 M-0.21 99.58 C19.05 75.16, 42.46 50.26, 85.83 -0.24 M-1.18 97.62 C29.5 62.43, 59.56 27.92, 85.01 -0.37 M5.15 104.96 C30.67 74.43, 56.8 44.77, 96.35 0.36 M5.33 102.9 C30.3 74.68, 55.45 46.54, 95.82 0.51 M13.33 104.41 C44.9 70, 77.85 30.6, 107.09 -0.56 M15.34 104.59 C46.72 67.85, 78.77 31.3, 106.47 0.63 M24.67 106.1 C44.9 83.5, 61.6 62.84, 117.65 0.26 M26.25 103.71 C61.09 64.55, 96.4 23.65, 116.46 -0.01 M37.09 103.95 C70.92 64.97, 103.28 29.27, 126.66 -1.37 M35.9 105.44 C73.41 63.67, 108.3 23.84, 127.03 -0.39 M48.21 103.98 C63.67 85.81, 85.17 63.95, 136.59 -1.31 M47.56 104.44 C79.17 68.29, 110.11 32.15, 136.88 0.41 M59.47 104.27 C86.25 73.97, 109.73 43.05, 149.11 1.17 M56.94 104.05 C83.77 74.67, 108.11 46.75, 148.38 0.61 M68.85 106.21 C90.31 78.48, 114.81 50.63, 157.2 -0.67 M67.76 104.64 C95.16 73.98, 123.07 41.71, 158.59 0.81 M79.64 105.79 C117.65 62.21, 150.89 19.87, 169.88 -1.7 M79.41 103.96 C99.33 80.95, 118.87 59.47, 168.83 0.39 M89.2 104.78 C124.41 62.44, 159.13 23.35, 181.01 -1.77 M88.56 103.55 C110 81.85, 129.95 58.41, 180.34 -0.1 M101.66 106.05 C133.05 65.74, 164.57 26.84, 189.98 1.62 M100.78 105.12 C125.67 75.19, 151.4 46.07, 189.89 -0.62 M112.75 104.78 C138.69 70.69, 164.78 42.45, 202.47 0.54 M110.21 104.87 C144.92 64.56, 177.8 27.38, 201.42 0.82 M122.46 103.72 C154.43 66.06, 187.97 29.01, 211.26 -0.14 M121.11 103.94 C154.19 64.23, 188.22 27.03, 211.65 0.46 M131.87 104.44 C163.94 70.65, 191.89 38.35, 220.88 0.55 M131.56 104.71 C152.66 81.42, 172.68 59.16, 221.71 -0.82 M143.83 102.59 C162.83 78.53, 182.22 57.09, 232.46 -1.12 M143.02 103.25 C164.22 79.01, 185.58 53.21, 232.76 0.91 M151.79 103.12 C175.91 75.38, 200.32 47.74, 244.41 1.69 M154 103.63 C180.27 73.23, 207.47 43.09, 243.63 -1.01 M164.46 103.57 C183.24 81.8, 205.7 57.57, 253.2 1.65 M163.68 104.33 C189.34 73.66, 216.3 43.62, 254.43 0.5 M174.64 105.29 C206.31 68.09, 243.2 29.95, 266.11 0.49 M175.49 104.62 C208.55 65.42, 240.34 25.91, 264.17 0.72 M183.9 104.71 C209.82 73.12, 238.85 43.32, 273.98 0.27 M184.82 104.9 C218.75 66.12, 250.45 28.98, 276.41 -0.59 M195.4 104.57 C227.97 68.2, 261.53 29.12, 287.92 -1.38 M196.56 103.11 C216.08 80.55, 239.2 54.87, 286.87 -0.73 M206.58 105.17 C226.18 82.76, 242.53 59.22, 296.14 -0.02 M206.76 103.1 C237.66 69.78, 268.08 34.96, 297.06 0.25 M217.94 103.66 C250.15 64.5, 284.82 24.75, 305.36 2.64 M216.27 102.99 C250.71 66.28, 282.27 28.76, 304.59 3.75 M225.79 105.25 C246.61 84.01, 262.41 61.35, 304.17 14.98 M228.35 103.53 C252.67 73.99, 278.06 45.08, 303.47 15.93 M239 102.44 C255.63 79.58, 274.91 60.21, 303.66 29.08 M238.28 104.54 C255.82 83.33, 275.1 62.87, 305.54 28.54 M247.07 103.1 C265.14 86.52, 276.53 73.56, 303.08 41.94 M248.37 103.97 C267.78 81.89, 287.18 61.26, 305.03 41.16 M259.53 102.63 C272.9 86.94, 289.65 68.61, 304.45 51.35 M258.15 105.29 C271.03 91.05, 284.54 77.57, 304.05 52.24 M270.77 103.78 C276.36 92.81, 287.57 83.3, 305.38 63.68 M270.11 104.37 C282.43 89, 295.06 75.92, 304.27 64.05 M279.35 104.83 C285.77 97.05, 295.2 89.45, 306.45 78.11 M279.95 104.88 C289.62 93.7, 297.36 84.18, 305.21 75.98 M292.16 103.68 C295.23 101.15, 297.36 98.65, 303.29 86.66 M291.48 105.39 C295 99.39, 298.44 96.73, 305.13 87.73 M0.3 100.26 C0.3 100.26, 0.3 100.26, 0.3 100.26 M0.3 100.26 C0.3 100.26, 0.3 100.26, 0.3 100.26 M12.31 99.54 C8.35 96.61, 7.96 95.57, 1.6 90.51 M11.93 99.33 C8.31 95.87, 3.64 93.61, 0.16 89.92 M22.84 99.24 C15.67 94.28, 12.14 88.91, 1.46 79.96 M24.92 99.51 C15.34 92.67, 5.32 84.49, 0.77 78.98 M35.2 101.08 C29.94 91.27, 20.33 83.84, 0.81 68.55 M37.18 100.64 C24.38 88.77, 11.7 80.13, -0.12 68.77 M49.04 101.4 C35.26 87.54, 21.65 77.15, 2.14 57.35 M47.62 99.22 C33.38 87.34, 19.08 74.17, 0.04 58.06 M61.58 100.4 C37.76 82.56, 16.8 61.92, -0.85 47.56 M61.93 99.75 C45.68 86.5, 30.29 73.85, 0.37 48.08 M73.33 98.64 C56.1 84.7, 34.48 68.31, 1.84 35.91 M73.06 100.3 C52.38 80.64, 30.97 62.98, 0.14 36.93 M85.37 100.21 C59.08 74.33, 29.13 51.72, 1.3 25.98 M85.38 100.8 C59.25 78.36, 32.4 55, 0.43 26.03 M97.07 101.38 C74.33 80.06, 48.01 58.45, -1.62 15.41 M97.3 100.81 C60.01 67.25, 25.29 35.8, -0.3 14.42 M107.61 98.47 C71.08 62.46, 28.9 30.22, 0.51 3.16 M109.65 100.54 C86.57 82.22, 65.07 62.68, -0.55 5.19 M121.5 99.78 C83.03 64.8, 40.23 29.25, 1.43 -4.6 M122.02 99.87 C75.25 60.99, 30.36 20.88, 2.89 -3.57 M134.25 98.24 C105.45 74.42, 74.03 47.6, 13.98 -3.28 M133.42 100.14 C106.72 76.97, 77.82 52.53, 14.5 -4.33 M145.73 98.52 C117.78 73.82, 86.26 50.67, 28.68 -2.33 M146.4 100.42 C120.36 78.83, 94.53 54.99, 27.58 -3.58 M157.83 101.75 C111.77 60.11, 65.8 20.19, 39.43 -4.35 M157.68 99.27 C111.73 59.83, 65.79 19.74, 40.8 -3.7 M172.01 101.35 C126.21 60.86, 84.67 22.47, 52.17 -4.34 M170.48 99.79 C145.47 77.37, 118.05 53.98, 51.69 -3.17 M182.78 98.98 C154.82 73.39, 120.68 46.14, 62.16 -2.5 M182.97 100.63 C152.67 72.68, 121.2 46.4, 64.87 -4.21 M195.45 101.15 C157.51 67.11, 116.73 32.85, 75.7 -3.64 M194.83 99.76 C150.85 62.46, 109.34 26.41, 76.58 -3.06 M207.4 98.41 C162.23 65.6, 121.43 28.31, 87.65 -5.22 M207.41 100.75 C170.48 68.29, 133.22 37.29, 87.12 -2.92 M217.79 97.97 C192.5 75.14, 166.79 53.67, 98.94 -1.5 M218.35 100.57 C186.22 72.48, 155.93 45.36, 101.18 -2.93 M233.11 99.61 C200.07 68.97, 168.74 43.36, 114.28 -2.88 M231.93 100.57 C203.86 76.25, 177.99 53.54, 112.5 -2.42 M244.65 99.59 C214.85 76.51, 189.51 50.42, 123.45 -4.71 M243.5 99.54 C219.98 76.69, 193.82 56.75, 123.98 -2.61 M254.24 99.28 C225.64 74.53, 195.83 50.27, 135.03 -2.68 M256.03 99.45 C214.06 64.06, 171.04 27.08, 136.28 -2.84 M267.52 100.31 C224.16 63.63, 181.98 25.44, 149.91 -4.92 M268.29 99.77 C233.54 69.53, 197.98 39.12, 148.27 -3.55 M279.69 101.27 C239.59 62.22, 197.82 25.17, 162.78 -4.08 M279.48 99.23 C247.67 71.28, 216.62 43.38, 161.3 -3.24 M293 101.52 C261.33 74.27, 231.06 45.67, 171.87 -4.7 M291.57 98.81 C258.47 70.93, 223.5 40.86, 173.92 -2.75 M303.26 98.56 C262.67 63.04, 222.15 26.13, 184.25 -4.04 M302.66 98.19 C277.49 75.32, 251.64 52.34, 185.95 -2.89 M301.51 88.6 C275.5 63.46, 248.95 38.19, 197.51 -3.45 M301.63 87.48 C261.56 51.98, 220.96 16.12, 197.12 -2.75 M301.5 77.51 C279.55 56.55, 261.31 40.45, 209.31 -4.43 M302.36 77.3 C278.89 55.6, 253.95 35.04, 209.44 -4.62 M301.19 64.46 C273.61 41.52, 246.03 16.46, 222.88 -4.8 M302.22 65.48 C283.91 49.75, 264.63 33.38, 223.59 -3.02 M301.35 53.69 C283.44 41.5, 267.66 26.73, 236.71 -1.99 M301.46 56.04 C281.7 37.01, 261.51 18.43, 235.54 -2.86 M302.33 45.74 C283.79 26.51, 260.97 11.86, 245.9 -1.91 M300.91 43.51 C284.7 29.18, 267.22 14.34, 246.64 -3.22 M301.5 33.41 C287.03 20.11, 271.93 7.82, 259.81 -2.3 M302.27 33.98 C287.54 20.92, 275.05 9.57, 258.32 -3.54 M303.06 22.33 C288.24 12.36, 277.61 1.45, 271.63 -4.83 M302.79 22.86 C290.68 14.56, 281.09 4.37, 270.39 -4.62 M303.24 14.16 C296.47 10.84, 294.21 3.24, 283.86 -3.2 M303.39 13.15 C295.91 7.8, 289.96 1.8, 283.45 -3.55 M303.23 2.88 C299.29 0.52, 296.77 -1.24, 294.95 -2.95 M302.85 2.88 C300.26 0.41, 297.73 -0.96, 295.63 -3.64" stroke="#228be6" stroke-width="1" fill="none"></path><path d="M-0.87 1.39 C101.82 2.32, 203.18 3.4, 300.32 1.04 M-0.58 0.49 C103.31 1.71, 204.99 1.36, 300.32 -0.66 M302.04 -0.18 C298.9 24.01, 300.77 48.61, 301.76 101 M299.84 0.17 C300.37 35.11, 301.97 69.26, 300.73 99.37 M299.17 100.85 C204.5 98.3, 110.07 99.59, 0.91 98.57 M300.11 99.43 C217.46 99.14, 133.86 99.41, 0.44 99.29 M0.08 100.21 C-1.6 61.8, -2.23 23.03, 1.49 -1.31 M-0.01 100.76 C0.71 68.26, 1.25 38.01, -0.03 -0.72" stroke="#000000" stroke-width="2" fill="none"></path></g><g stroke-linecap="round" transform="translate(29.023161573615653 190.96895283013578) rotate(0 150.45412588810586 9.91306365966409)"><path d="M0 0 C0 0, 0 0, 0 0 M0 0 C0 0, 0 0, 0 0 M-0.26 6.4 C1.23 4.69, 2.72 2.97, 4.99 0.36 M-0.26 6.4 C0.91 5.05, 2.08 3.71, 4.99 0.36 M0.13 12.04 C3.27 8.43, 6.41 4.82, 10.63 -0.03 M0.13 12.04 C3.89 7.72, 7.65 3.4, 10.63 -0.03 M-0.13 18.44 C3.28 14.52, 6.69 10.6, 15.62 0.33 M-0.13 18.44 C3.69 14.05, 7.51 9.66, 15.62 0.33 M2.23 21.82 C6.65 16.74, 11.06 11.67, 21.26 -0.07 M2.23 21.82 C9.19 13.82, 16.14 5.82, 21.26 -0.07 M7.88 21.42 C14.88 13.37, 21.88 5.32, 26.25 0.29 M7.88 21.42 C11.68 17.05, 15.49 12.67, 26.25 0.29 M12.86 21.78 C20.04 13.53, 27.21 5.28, 31.89 -0.1 M12.86 21.78 C16.69 17.38, 20.52 12.98, 31.89 -0.1 M17.85 22.14 C22.59 16.7, 27.32 11.25, 36.88 0.26 M17.85 22.14 C23.5 15.64, 29.15 9.14, 36.88 0.26 M23.49 21.75 C30.68 13.48, 37.86 5.22, 42.52 -0.14 M23.49 21.75 C29.64 14.68, 35.79 7.6, 42.52 -0.14 M28.48 22.11 C34.86 14.78, 41.23 7.44, 47.51 0.22 M28.48 22.11 C35.11 14.48, 41.74 6.85, 47.51 0.22 M34.12 21.71 C40.22 14.7, 46.32 7.69, 53.15 -0.17 M34.12 21.71 C38.81 16.33, 43.49 10.94, 53.15 -0.17 M39.11 22.07 C46.69 13.35, 54.27 4.63, 58.14 0.19 M39.11 22.07 C43.95 16.51, 48.79 10.94, 58.14 0.19 M44.75 21.68 C51.15 14.32, 57.55 6.96, 63.78 -0.21 M44.75 21.68 C51.24 14.22, 57.72 6.76, 63.78 -0.21 M49.74 22.04 C54.34 16.75, 58.94 11.46, 68.77 0.15 M49.74 22.04 C56.66 14.08, 63.58 6.13, 68.77 0.15 M55.38 21.65 C62.99 12.89, 70.6 4.14, 74.41 -0.24 M55.38 21.65 C59.84 16.52, 64.3 11.39, 74.41 -0.24 M60.37 22.01 C66.29 15.19, 72.22 8.38, 79.4 0.12 M60.37 22.01 C65.72 15.85, 71.07 9.7, 79.4 0.12 M66.02 21.61 C72.28 14.4, 78.54 7.2, 85.04 -0.28 M66.02 21.61 C70.01 17.01, 74.01 12.42, 85.04 -0.28 M71 21.97 C76.66 15.46, 82.31 8.96, 90.03 0.08 M71 21.97 C76.11 16.09, 81.22 10.22, 90.03 0.08 M76.65 21.58 C84 13.12, 91.35 4.66, 95.67 -0.31 M76.65 21.58 C80.59 17.04, 84.53 12.5, 95.67 -0.31 M81.63 21.94 C87.98 14.64, 94.32 7.34, 100.66 0.05 M81.63 21.94 C86.26 16.61, 90.89 11.28, 100.66 0.05 M87.28 21.54 C92.55 15.47, 97.83 9.4, 106.3 -0.34 M87.28 21.54 C91.5 16.68, 95.73 11.82, 106.3 -0.34 M92.26 21.9 C99.83 13.2, 107.4 4.49, 111.29 0.02 M92.26 21.9 C99.49 13.59, 106.71 5.28, 111.29 0.02 M97.91 21.51 C104.36 14.08, 110.82 6.65, 116.27 0.38 M97.91 21.51 C103.53 15.03, 109.16 8.56, 116.27 0.38 M102.89 21.87 C108.81 15.05, 114.74 8.24, 121.92 -0.02 M102.89 21.87 C108.75 15.13, 114.6 8.4, 121.92 -0.02 M108.54 21.47 C112.25 17.2, 115.96 12.93, 126.91 0.34 M108.54 21.47 C115.3 13.69, 122.07 5.9, 126.91 0.34 M113.52 21.83 C119.98 14.41, 126.43 6.98, 132.55 -0.05 M113.52 21.83 C119.49 14.96, 125.46 8.1, 132.55 -0.05 M119.17 21.44 C124.05 15.82, 128.94 10.2, 137.54 0.31 M119.17 21.44 C126.01 13.56, 132.86 5.68, 137.54 0.31 M124.15 21.8 C131.58 13.25, 139.01 4.7, 143.18 -0.09 M124.15 21.8 C130.63 14.34, 137.11 6.89, 143.18 -0.09 M129.14 22.16 C133.4 17.25, 137.66 12.35, 148.17 0.27 M129.14 22.16 C135.62 14.71, 142.09 7.26, 148.17 0.27 M134.78 21.76 C138.93 17, 143.07 12.23, 153.81 -0.12 M134.78 21.76 C142.15 13.29, 149.51 4.82, 153.81 -0.12 M139.77 22.12 C143.59 17.73, 147.41 13.33, 158.8 0.24 M139.77 22.12 C146.4 14.5, 153.02 6.88, 158.8 0.24 M145.41 21.73 C149.55 16.97, 153.69 12.21, 164.44 -0.16 M145.41 21.73 C151.28 14.98, 157.14 8.24, 164.44 -0.16 M150.4 22.09 C157.34 14.11, 164.27 6.13, 169.43 0.2 M150.4 22.09 C156.67 14.88, 162.94 7.66, 169.43 0.2 M156.04 21.69 C160.41 16.67, 164.78 11.65, 175.07 -0.19 M156.04 21.69 C160.15 16.97, 164.25 12.25, 175.07 -0.19 M161.03 22.05 C167.26 14.89, 173.49 7.73, 180.06 0.17 M161.03 22.05 C166.24 16.06, 171.46 10.06, 180.06 0.17 M166.67 21.66 C173.11 14.26, 179.54 6.86, 185.7 -0.23 M166.67 21.66 C171.95 15.59, 177.22 9.52, 185.7 -0.23 M171.66 22.02 C178.22 14.47, 184.78 6.93, 190.69 0.13 M171.66 22.02 C175.98 17.05, 180.31 12.07, 190.69 0.13 M177.3 21.63 C182.45 15.7, 187.6 9.78, 196.33 -0.26 M177.3 21.63 C183.33 14.7, 189.35 7.77, 196.33 -0.26 M182.29 21.99 C188.31 15.06, 194.33 8.13, 201.32 0.1 M182.29 21.99 C187.83 15.61, 193.38 9.23, 201.32 0.1 M187.93 21.59 C195.52 12.87, 203.1 4.14, 206.96 -0.3 M187.93 21.59 C192 16.91, 196.07 12.23, 206.96 -0.3 M192.92 21.95 C200.26 13.51, 207.6 5.07, 211.95 0.06 M192.92 21.95 C197.2 17.03, 201.47 12.11, 211.95 0.06 M198.56 21.56 C204.98 14.18, 211.39 6.8, 217.59 -0.33 M198.56 21.56 C204.38 14.87, 210.2 8.18, 217.59 -0.33 M203.55 21.92 C210.01 14.49, 216.47 7.06, 222.58 0.03 M203.55 21.92 C208.15 16.62, 212.76 11.33, 222.58 0.03 M209.19 21.52 C215.76 13.97, 222.32 6.42, 228.22 -0.36 M209.19 21.52 C216.51 13.1, 223.83 4.69, 228.22 -0.36 M214.18 21.88 C218.15 17.32, 222.11 12.75, 233.21 0 M214.18 21.88 C218.24 17.21, 222.31 12.53, 233.21 0 M219.82 21.49 C225.79 14.62, 231.76 7.75, 238.19 0.36 M219.82 21.49 C225.33 15.16, 230.83 8.82, 238.19 0.36 M224.81 21.85 C229.9 16, 234.98 10.15, 243.84 -0.04 M224.81 21.85 C229.89 16.01, 234.97 10.16, 243.84 -0.04 M230.45 21.45 C234.56 16.73, 238.66 12.01, 248.82 0.32 M230.45 21.45 C236.99 13.93, 243.53 6.41, 248.82 0.32 M235.44 21.81 C239.9 16.69, 244.35 11.56, 254.47 -0.07 M235.44 21.81 C242.77 13.38, 250.1 4.95, 254.47 -0.07 M241.08 21.42 C245.32 16.55, 249.55 11.68, 259.45 0.29 M241.08 21.42 C246.87 14.77, 252.65 8.12, 259.45 0.29 M246.07 21.78 C251.23 15.84, 256.39 9.91, 265.1 -0.11 M246.07 21.78 C250.03 17.23, 253.98 12.68, 265.1 -0.11 M251.06 22.14 C258.29 13.82, 265.52 5.5, 270.08 0.25 M251.06 22.14 C258.55 13.52, 266.05 4.89, 270.08 0.25 M256.7 21.74 C264 13.34, 271.31 4.94, 275.73 -0.14 M256.7 21.74 C261.09 16.69, 265.49 11.64, 275.73 -0.14 M261.69 22.1 C268.34 14.45, 274.99 6.8, 280.71 0.22 M261.69 22.1 C266.78 16.25, 271.87 10.39, 280.71 0.22 M267.33 21.71 C271.55 16.85, 275.78 11.99, 286.36 -0.18 M267.33 21.71 C271.25 17.2, 275.18 12.68, 286.36 -0.18 M272.32 22.07 C277.28 16.36, 282.24 10.65, 291.34 0.18 M272.32 22.07 C277.37 16.26, 282.42 10.45, 291.34 0.18 M277.96 21.68 C283.26 15.57, 288.57 9.47, 296.99 -0.21 M277.96 21.68 C284.47 14.19, 290.98 6.7, 296.99 -0.21 M282.95 22.04 C288.07 16.15, 293.18 10.26, 301.32 0.9 M282.95 22.04 C289.82 14.13, 296.7 6.22, 301.32 0.9 M288.59 21.64 C292.41 17.25, 296.23 12.85, 301.71 6.55 M288.59 21.64 C292.57 17.06, 296.55 12.49, 301.71 6.55 M293.58 22 C295.25 20.08, 296.91 18.16, 301.45 12.94 M293.58 22 C295.44 19.86, 297.3 17.72, 301.45 12.94 M299.22 21.61 C299.85 20.88, 300.48 20.16, 301.85 18.59 M299.22 21.61 C299.77 20.97, 300.32 20.34, 301.85 18.59 M-0.01 19.82 C-0.01 19.82, -0.01 19.82, -0.01 19.82 M-0.01 19.82 C-0.01 19.82, -0.01 19.82, -0.01 19.82 M6.39 20.08 C4.28 18.25, 2.17 16.42, 0.35 14.83 M6.39 20.08 C4.94 18.82, 3.49 17.56, 0.35 14.83 M12.04 19.69 C8.66 16.76, 5.29 13.82, -0.04 9.19 M12.04 19.69 C8.73 16.81, 5.42 13.94, -0.04 9.19 M18.43 19.95 C13.21 15.41, 8 10.88, 0.32 4.2 M18.43 19.95 C14.32 16.38, 10.22 12.81, 0.32 4.2 M24.08 19.56 C18.22 14.47, 12.37 9.38, 0.68 -0.78 M24.08 19.56 C19.04 15.17, 14 10.79, 0.68 -0.78 M30.47 19.82 C21.86 12.33, 13.25 4.85, 7.08 -0.52 M30.47 19.82 C24.41 14.55, 18.35 9.28, 7.08 -0.52 M36.87 20.08 C31.81 15.68, 26.76 11.29, 12.72 -0.92 M36.87 20.08 C30.99 14.96, 25.1 9.85, 12.72 -0.92 M42.51 19.68 C34.45 12.67, 26.38 5.66, 19.12 -0.65 M42.51 19.68 C35.89 13.93, 29.27 8.17, 19.12 -0.65 M48.91 19.94 C39.62 11.86, 30.32 3.78, 24.76 -1.05 M48.91 19.94 C42.09 14.01, 35.26 8.08, 24.76 -1.05 M54.56 19.55 C49.45 15.12, 44.35 10.68, 31.16 -0.79 M54.56 19.55 C47.52 13.43, 40.48 7.31, 31.16 -0.79 M60.95 19.81 C55.15 14.77, 49.35 9.73, 37.56 -0.53 M60.95 19.81 C53.64 13.46, 46.33 7.1, 37.56 -0.53 M67.35 20.07 C61.77 15.22, 56.19 10.37, 43.2 -0.92 M67.35 20.07 C58.4 12.29, 49.45 4.51, 43.2 -0.92 M72.99 19.68 C65.65 13.3, 58.31 6.91, 49.6 -0.66 M72.99 19.68 C64.35 12.16, 55.71 4.65, 49.6 -0.66 M79.39 19.94 C72.86 14.26, 66.32 8.58, 55.24 -1.05 M79.39 19.94 C74.4 15.6, 69.4 11.25, 55.24 -1.05 M85.04 19.55 C77.05 12.61, 69.07 5.67, 61.64 -0.79 M85.04 19.55 C76.93 12.5, 68.82 5.45, 61.64 -0.79 M91.43 19.81 C85.17 14.36, 78.9 8.91, 68.04 -0.53 M91.43 19.81 C82.53 12.07, 73.63 4.33, 68.04 -0.53 M97.83 20.07 C89.79 13.08, 81.75 6.09, 73.68 -0.93 M97.83 20.07 C88.35 11.83, 78.88 3.59, 73.68 -0.93 M103.47 19.67 C94.19 11.6, 84.9 3.53, 80.08 -0.66 M103.47 19.67 C96.02 13.19, 88.56 6.71, 80.08 -0.66 M109.87 19.94 C101.77 12.9, 93.68 5.86, 85.72 -1.06 M109.87 19.94 C102.33 13.38, 94.79 6.82, 85.72 -1.06 M115.51 19.54 C109.05 13.92, 102.59 8.3, 92.12 -0.8 M115.51 19.54 C108.39 13.35, 101.26 7.15, 92.12 -0.8 M121.91 19.8 C116.34 14.95, 110.76 10.11, 98.52 -0.54 M121.91 19.8 C113.31 12.32, 104.71 4.85, 98.52 -0.54 M128.31 20.06 C119.43 12.34, 110.54 4.62, 104.16 -0.93 M128.31 20.06 C121.6 14.23, 114.9 8.4, 104.16 -0.93 M133.95 19.67 C125.15 12.02, 116.35 4.37, 110.56 -0.67 M133.95 19.67 C127.49 14.05, 121.03 8.43, 110.56 -0.67 M140.35 19.93 C131.23 12.01, 122.12 4.08, 116.2 -1.06 M140.35 19.93 C134.7 15.02, 129.05 10.11, 116.2 -1.06 M145.99 19.54 C138.36 12.9, 130.73 6.27, 122.6 -0.8 M145.99 19.54 C141.04 15.23, 136.08 10.92, 122.6 -0.8 M152.39 19.8 C146.43 14.62, 140.48 9.44, 129 -0.54 M152.39 19.8 C147.12 15.22, 141.85 10.64, 129 -0.54 M158.79 20.06 C151.3 13.55, 143.82 7.04, 134.64 -0.94 M158.79 20.06 C153.84 15.76, 148.9 11.46, 134.64 -0.94 M164.43 19.66 C155.25 11.68, 146.06 3.7, 141.04 -0.67 M164.43 19.66 C156.01 12.34, 147.59 5.02, 141.04 -0.67 M170.83 19.93 C161.35 11.68, 151.87 3.44, 146.68 -1.07 M170.83 19.93 C162.59 12.76, 154.34 5.59, 146.68 -1.07 M176.47 19.53 C171.13 14.89, 165.79 10.24, 153.08 -0.81 M176.47 19.53 C171.73 15.41, 166.98 11.28, 153.08 -0.81 M182.87 19.79 C176.25 14.04, 169.63 8.28, 159.48 -0.55 M182.87 19.79 C174.35 12.38, 165.83 4.97, 159.48 -0.55 M189.27 20.05 C183.41 14.96, 177.55 9.87, 165.12 -0.94 M189.27 20.05 C180.23 12.19, 171.19 4.34, 165.12 -0.94 M194.91 19.66 C187.11 12.87, 179.3 6.09, 171.52 -0.68 M194.91 19.66 C188.54 14.12, 182.16 8.58, 171.52 -0.68 M201.31 19.92 C192.62 12.36, 183.92 4.81, 177.16 -1.07 M201.31 19.92 C192.82 12.54, 184.32 5.15, 177.16 -1.07 M206.95 19.53 C198.98 12.59, 191 5.66, 183.56 -0.81 M206.95 19.53 C199.44 12.99, 191.93 6.46, 183.56 -0.81 M213.35 19.79 C205.19 12.7, 197.03 5.6, 189.96 -0.55 M213.35 19.79 C207.07 14.33, 200.8 8.88, 189.96 -0.55 M219.75 20.05 C211.41 12.8, 203.07 5.55, 195.6 -0.94 M219.75 20.05 C214.4 15.4, 209.04 10.74, 195.6 -0.94 M225.39 19.65 C220.23 15.16, 215.06 10.67, 202 -0.68 M225.39 19.65 C218.06 13.28, 210.72 6.9, 202 -0.68 M231.79 19.92 C226.23 15.08, 220.66 10.25, 207.64 -1.08 M231.79 19.92 C223.54 12.74, 215.28 5.57, 207.64 -1.08 M237.43 19.52 C232.01 14.8, 226.58 10.09, 214.04 -0.82 M237.43 19.52 C229.64 12.75, 221.84 5.97, 214.04 -0.82 M243.83 19.78 C236.26 13.2, 228.68 6.61, 220.43 -0.56 M243.83 19.78 C236.69 13.57, 229.54 7.36, 220.43 -0.56 M250.23 20.04 C243.42 14.13, 236.62 8.22, 226.08 -0.95 M250.23 20.04 C244.69 15.23, 239.15 10.41, 226.08 -0.95 M255.87 19.65 C246.58 11.58, 237.3 3.5, 232.48 -0.69 M255.87 19.65 C246.69 11.67, 237.5 3.68, 232.48 -0.69 M262.27 19.91 C254.7 13.33, 247.13 6.75, 238.12 -1.08 M262.27 19.91 C253.56 12.34, 244.86 4.77, 238.12 -1.08 M267.91 19.52 C261.71 14.12, 255.51 8.73, 244.52 -0.82 M267.91 19.52 C259.96 12.6, 252.01 5.69, 244.52 -0.82 M274.31 19.78 C266.96 13.39, 259.62 7.01, 250.91 -0.56 M274.31 19.78 C266.33 12.84, 258.35 5.91, 250.91 -0.56 M280.71 20.04 C271.36 11.91, 262.01 3.79, 256.56 -0.95 M280.71 20.04 C272.5 12.9, 264.29 5.76, 256.56 -0.95 M286.35 19.64 C279 13.25, 271.65 6.86, 262.96 -0.69 M286.35 19.64 C280.7 14.73, 275.04 9.82, 262.96 -0.69 M292.75 19.91 C286.34 14.33, 279.93 8.76, 268.6 -1.09 M292.75 19.91 C286.91 14.83, 281.07 9.76, 268.6 -1.09 M298.39 19.51 C289.3 11.61, 280.21 3.71, 275 -0.83 M298.39 19.51 C289.28 11.59, 280.16 3.67, 275 -0.83 M302.53 17.8 C297.31 13.27, 292.1 8.74, 281.39 -0.56 M302.53 17.8 C295.12 11.37, 287.72 4.93, 281.39 -0.56 M302.89 12.82 C298.84 9.3, 294.79 5.78, 287.04 -0.96 M302.89 12.82 C297.05 7.75, 291.22 2.68, 287.04 -0.96 M302.49 7.17 C299.59 4.65, 296.68 2.12, 293.43 -0.7 M302.49 7.17 C300.43 5.39, 298.37 3.6, 293.43 -0.7 M302.85 2.19 C301.81 1.28, 300.76 0.37, 299.08 -1.09 M302.85 2.19 C302.03 1.48, 301.22 0.77, 299.08 -1.09" stroke="#fd7e14" stroke-width="0.5" fill="none"></path><path d="M0 0 C118.99 0, 237.97 0, 300.91 0 M0 0 C109.75 0, 219.5 0, 300.91 0 M300.91 0 C300.91 4.89, 300.91 9.79, 300.91 19.83 M300.91 0 C300.91 7.52, 300.91 15.04, 300.91 19.83 M300.91 19.83 C206.29 19.83, 111.68 19.83, 0 19.83 M300.91 19.83 C218.08 19.83, 135.26 19.83, 0 19.83 M0 19.83 C0 12.79, 0 5.75, 0 0 M0 19.83 C0 15.38, 0 10.93, 0 0" stroke="#000000" stroke-width="1" fill="none"></path></g><g stroke-linecap="round" transform="translate(28.548234410583973 216.96895283013578) rotate(0 60 10)"><path d="M0 0 C0 0, 0 0, 0 0 M0 0 C0 0, 0 0, 0 0 M-0.26 6.4 C1.33 4.56, 2.93 2.73, 4.99 0.36 M-0.26 6.4 C1.55 4.32, 3.36 2.23, 4.99 0.36 M0.13 12.04 C3.38 8.31, 6.63 4.57, 10.63 -0.03 M0.13 12.04 C3.05 8.69, 5.96 5.34, 10.63 -0.03 M-0.13 18.44 C3.57 14.19, 7.26 9.94, 15.62 0.33 M-0.13 18.44 C4.94 12.61, 10.01 6.78, 15.62 0.33 M2.23 21.82 C7.78 15.44, 13.32 9.07, 21.26 -0.07 M2.23 21.82 C9.08 13.94, 15.93 6.06, 21.26 -0.07 M7.22 22.18 C11.87 16.83, 16.51 11.49, 26.25 0.29 M7.22 22.18 C14.62 13.66, 22.02 5.15, 26.25 0.29 M12.86 21.78 C19.99 13.59, 27.11 5.4, 31.89 -0.1 M12.86 21.78 C19.7 13.92, 26.54 6.06, 31.89 -0.1 M17.85 22.14 C22.44 16.87, 27.02 11.59, 36.88 0.26 M17.85 22.14 C21.87 17.52, 25.89 12.9, 36.88 0.26 M23.49 21.75 C28.15 16.39, 32.81 11.03, 42.52 -0.14 M23.49 21.75 C29.44 14.9, 35.39 8.06, 42.52 -0.14 M28.48 22.11 C35.89 13.58, 43.3 5.06, 47.51 0.22 M28.48 22.11 C34.14 15.6, 39.79 9.1, 47.51 0.22 M34.12 21.71 C38.79 16.34, 43.46 10.97, 53.15 -0.17 M34.12 21.71 C39.85 15.13, 45.58 8.54, 53.15 -0.17 M39.11 22.07 C45.02 15.28, 50.93 8.48, 58.14 0.19 M39.11 22.07 C46.72 13.32, 54.33 4.57, 58.14 0.19 M44.75 21.68 C51.89 13.47, 59.02 5.27, 63.78 -0.21 M44.75 21.68 C49.48 16.24, 54.21 10.8, 63.78 -0.21 M49.74 22.04 C55.09 15.88, 60.44 9.73, 68.77 0.15 M49.74 22.04 C55.75 15.13, 61.75 8.22, 68.77 0.15 M55.38 21.65 C60.88 15.33, 66.37 9.01, 74.41 -0.24 M55.38 21.65 C61.54 14.56, 67.7 7.48, 74.41 -0.24 M60.37 22.01 C64.84 16.87, 69.31 11.73, 79.4 0.12 M60.37 22.01 C65.79 15.78, 71.2 9.55, 79.4 0.12 M66.02 21.61 C71.69 15.09, 77.36 8.56, 85.04 -0.28 M66.02 21.61 C72.45 14.2, 78.89 6.8, 85.04 -0.28 M71 21.97 C77.87 14.07, 84.73 6.18, 90.03 0.08 M71 21.97 C78.43 13.43, 85.86 4.88, 90.03 0.08 M76.65 21.58 C83.7 13.46, 90.76 5.34, 95.67 -0.31 M76.65 21.58 C83.27 13.95, 89.9 6.32, 95.67 -0.31 M81.63 21.94 C87.44 15.26, 93.24 8.59, 100.66 0.05 M81.63 21.94 C88.5 14.04, 95.36 6.14, 100.66 0.05 M87.28 21.54 C93.57 14.3, 99.86 7.06, 106.3 -0.34 M87.28 21.54 C92.1 15.99, 96.92 10.45, 106.3 -0.34 M92.26 21.9 C99.29 13.81, 106.32 5.73, 111.29 0.02 M92.26 21.9 C99.25 13.86, 106.24 5.82, 111.29 0.02 M97.25 22.26 C102.16 16.61, 107.07 10.96, 116.27 0.38 M97.25 22.26 C104.79 13.58, 112.34 4.9, 116.27 0.38 M102.89 21.87 C108.63 15.26, 114.38 8.66, 121.26 0.74 M102.89 21.87 C107.03 17.11, 111.16 12.36, 121.26 0.74 M107.88 22.23 C111.68 17.86, 115.47 13.49, 121 7.13 M107.88 22.23 C112.67 16.72, 117.45 11.22, 121 7.13 M113.52 21.83 C116.27 18.67, 119.02 15.51, 121.4 12.78 M113.52 21.83 C116.61 18.28, 119.71 14.72, 121.4 12.78 M-0.09 19.92 C-0.09 19.92, -0.09 19.92, -0.09 19.92 M-0.09 19.92 C-0.09 19.92, -0.09 19.92, -0.09 19.92 M6.31 20.18 C4.2 18.35, 2.09 16.52, 0.27 14.93 M6.31 20.18 C4.05 18.22, 1.8 16.26, 0.27 14.93 M11.95 19.79 C8.44 16.74, 4.94 13.69, -0.13 9.29 M11.95 19.79 C7.8 16.18, 3.65 12.58, -0.13 9.29 M18.35 20.05 C14 16.27, 9.65 12.48, 0.23 4.3 M18.35 20.05 C12.68 15.12, 7.02 10.2, 0.23 4.3 M24.74 20.31 C19.58 15.82, 14.41 11.32, 0.59 -0.68 M24.74 20.31 C16.37 13.03, 8 5.75, 0.59 -0.68 M30.39 19.92 C25.58 15.73, 20.76 11.55, 6.99 -0.42 M30.39 19.92 C25.67 15.82, 20.96 11.72, 6.99 -0.42 M36.79 20.18 C28.34 12.83, 19.89 5.49, 12.64 -0.82 M36.79 20.18 C28.07 12.6, 19.36 5.03, 12.64 -0.82 M42.43 19.78 C35.76 13.99, 29.09 8.19, 19.03 -0.56 M42.43 19.78 C36.03 14.22, 29.64 8.66, 19.03 -0.56 M48.83 20.04 C41.21 13.42, 33.59 6.8, 24.68 -0.95 M48.83 20.04 C39.38 11.83, 29.94 3.62, 24.68 -0.95 M55.22 20.31 C46.19 12.46, 37.16 4.61, 31.07 -0.69 M55.22 20.31 C50.25 15.98, 45.28 11.66, 31.07 -0.69 M60.87 19.91 C51.87 12.09, 42.87 4.27, 37.47 -0.43 M60.87 19.91 C54.14 14.06, 47.42 8.22, 37.47 -0.43 M67.27 20.17 C61.84 15.46, 56.42 10.74, 43.11 -0.82 M67.27 20.17 C59.52 13.44, 51.78 6.71, 43.11 -0.82 M72.91 19.78 C66.18 13.93, 59.46 8.08, 49.51 -0.56 M72.91 19.78 C64.88 12.8, 56.86 5.82, 49.51 -0.56 M79.31 20.04 C73.38 14.89, 67.46 9.74, 55.16 -0.95 M79.31 20.04 C70.07 12.01, 60.83 3.97, 55.16 -0.95 M85.7 20.3 C80.62 15.88, 75.53 11.45, 61.55 -0.69 M85.7 20.3 C78.58 14.11, 71.46 7.92, 61.55 -0.69 M91.35 19.91 C84.32 13.8, 77.29 7.69, 67.95 -0.43 M91.35 19.91 C86.65 15.82, 81.96 11.74, 67.95 -0.43 M97.74 20.17 C88.16 11.84, 78.58 3.51, 73.59 -0.83 M97.74 20.17 C89.93 13.37, 82.11 6.58, 73.59 -0.83 M103.39 19.77 C96.11 13.45, 88.84 7.12, 79.99 -0.56 M103.39 19.77 C98.06 15.14, 92.74 10.51, 79.99 -0.56 M109.79 20.03 C101.46 12.8, 93.13 5.56, 85.63 -0.96 M109.79 20.03 C103.65 14.7, 97.52 9.37, 85.63 -0.96 M116.18 20.3 C110.05 14.97, 103.92 9.63, 92.03 -0.7 M116.18 20.3 C107.5 12.74, 98.81 5.19, 92.03 -0.7 M121.07 19.25 C116.32 15.12, 111.57 10.99, 98.43 -0.44 M121.07 19.25 C113.05 12.27, 105.03 5.3, 98.43 -0.44 M120.68 13.6 C114.66 8.37, 108.64 3.14, 104.07 -0.83 M120.68 13.6 C115.08 8.74, 109.48 3.87, 104.07 -0.83 M121.04 8.62 C118.89 6.75, 116.74 4.88, 110.47 -0.57 M121.04 8.62 C117.49 5.53, 113.94 2.44, 110.47 -0.57 M120.64 2.97 C119.16 1.69, 117.69 0.4, 116.11 -0.96 M120.64 2.97 C119.09 1.62, 117.53 0.27, 116.11 -0.96" stroke="#fd7e14" stroke-width="0.5" fill="none"></path><path d="M0 0 C41.85 0, 83.69 0, 120 0 M0 0 C26.28 0, 52.56 0, 120 0 M120 0 C120 6.54, 120 13.09, 120 20 M120 0 C120 4.37, 120 8.74, 120 20 M120 20 C73.94 20, 27.89 20, 0 20 M120 20 C79.83 20, 39.65 20, 0 20 M0 20 C0 12, 0 4, 0 0 M0 20 C0 15.28, 0 10.55, 0 0" stroke="#000000" stroke-width="1" fill="none"></path></g><g stroke-linecap="round"><g transform="translate(9.556176881385909 151.4615505663662) rotate(0 170.34645684620477 0.47629969925310434)"><path d="M0.44 1.22 C81.79 2.17, 165.16 -0.17, 338.92 0.24 M0.57 -0.49 C70.76 -0.03, 141.06 -0.81, 340.25 0.66" stroke="#000000" stroke-width="1" fill="none"></path></g></g><g stroke-linecap="round" transform="translate(30 30.968952830135777) rotate(0 150.1435091444887 50)"><path d="M0 0 C0 0, 0 0, 0 0 M0 0 C0 0, 0 0, 0 0 M1.32 11.58 C3.32 7.33, 8.31 4.67, 11.27 -0.89 M-0.35 12.81 C5.02 7.49, 8.05 2.77, 10.58 0.41 M1.53 24.47 C9.39 16.43, 14.9 6.96, 23.04 -0.01 M0.9 24.28 C7.3 15.8, 14.26 7.42, 21.58 0.03 M0.13 36.57 C10.78 26.23, 20.38 10.33, 32.25 -1.22 M-0.97 37.33 C11.19 22.93, 22.85 10.07, 31.56 -0.75 M0 49.36 C13.45 34.11, 30.07 16.91, 41.35 0.22 M0.79 48.66 C9.84 38.22, 18.42 27.09, 42.37 -0.56 M1.1 59.24 C15.82 40.83, 31.63 22.27, 54.67 -0.88 M-0.22 61.44 C19.3 38.95, 37.76 17.24, 53.2 -0.36 M0.09 73.69 C22.87 45.91, 47.86 18.56, 63.38 -0.68 M0.5 72.88 C20.67 50.25, 39.62 28.24, 64.13 -0.96 M-1.57 83.27 C19.44 65.61, 38.3 41.64, 74.17 1.02 M-0.63 85.32 C25.49 57.91, 49.91 28.91, 73.78 -0.64 M-1.52 97.58 C19.36 74.83, 35.86 56.48, 86.05 -0.04 M-0.29 97.38 C31.98 61.58, 63 26.18, 84.91 -0.77 M4.13 103.54 C23.13 81.57, 43.58 60.55, 95.1 -1.29 M5.2 103.32 C36.32 68.93, 66.59 34.76, 96.11 0.55 M14.45 105.89 C42.61 73.14, 68.1 45.43, 107.18 -2.09 M14.43 104.68 C49.56 64.27, 84.44 25.66, 105.33 -1.14 M25.67 104.51 C50.12 74.87, 78.84 44.84, 118.06 0.29 M25.78 104.7 C48.41 78.52, 71.6 51.71, 116.94 0.5 M37.88 102.79 C60.39 78.22, 83.17 48.48, 128.79 -1.14 M36.95 103.88 C55.52 82.55, 74.7 59.51, 125.91 -0.05 M45.13 105.96 C67.91 82.12, 85.51 56.95, 138.48 0.74 M47.96 105.36 C83.05 63.77, 118.13 21.31, 137.54 0.72 M59.5 105.05 C80.15 76.36, 108.23 47.16, 147.73 -0.66 M58.09 104.04 C88.92 69.8, 120.51 33.82, 147.69 0.71 M67.9 104.18 C90.34 77.51, 108.59 54.07, 158.68 -1.59 M67.55 105 C99.95 67.93, 129.85 34.24, 159.77 -0.63 M80.78 103.77 C106.68 68.78, 137 35.03, 167.79 -0.74 M79.09 103.84 C107.24 72.19, 135.54 38.42, 170.33 0.04 M88.92 103.84 C123.13 65.31, 159.97 22.42, 178.54 0.03 M89.62 105.04 C115.62 76.48, 141.53 46.39, 180.71 0.34 M100.11 103.19 C118.32 77.89, 139.87 57.55, 190.26 -1.07 M99.82 104.39 C128.64 70.2, 156.64 36.12, 190.68 0.54 M111.98 102.73 C145.3 64.75, 181.69 23.02, 202.79 1.46 M111.78 103.3 C136.52 75.6, 161.73 46.6, 202.02 -0.07 M120.71 104.66 C147.27 75.22, 174.44 41.81, 213.32 -0.26 M120.64 103.25 C155.03 66.25, 188.28 27.95, 212.18 -0.78 M133.77 103.76 C153.73 80.63, 172.89 55.74, 221.05 -0.32 M132.2 104.08 C152.99 81.02, 172.77 55.58, 221.9 0.89 M142.7 102.65 C166.87 75.71, 194.16 42.94, 232.03 0.25 M142.54 104.42 C172.05 69.63, 202.54 36.07, 232.82 -0.44 M151.83 102.99 C184.8 66.85, 217.47 34.03, 243.81 0.77 M153.63 104.07 C177.36 77.53, 200.99 47.64, 243.11 0.4 M163.07 104.77 C184.14 82.04, 201.43 61.11, 254.3 0.12 M163.02 104.33 C193.66 70.12, 223.85 35.76, 255.14 -0.54 M172.6 105.56 C195.93 82.4, 214.95 58.73, 266.44 -0.01 M175.37 104.43 C207.93 62.39, 242.59 23.9, 265 0.08 M183.69 103.75 C217.72 68.64, 245.42 33.57, 276.96 0.15 M186.16 103.85 C213.47 71.42, 242.14 38.46, 276.25 -0.76 M195.38 105.79 C232.76 62.3, 268.7 20.72, 285.16 1.67 M195.28 104.75 C214.67 83.26, 233.16 60.95, 285.46 -0.02 M207.29 105.44 C239.37 63.19, 275.22 23.42, 297.66 -1.76 M206.63 104.29 C231.09 76.71, 255.37 48.59, 297.85 -0.3 M216.34 103.07 C240.74 74.73, 265.45 48.16, 305.83 3.08 M217.78 103.06 C235.26 83.47, 253.76 63.95, 303.66 4.38 M229.5 104.82 C253.94 72.66, 279.58 43.71, 305.2 17.29 M227.61 103.4 C246.69 81.34, 266.32 58.28, 304.39 15.89 M236.54 101.95 C257.42 80.92, 279.49 57.06, 303.99 27.42 M237.88 103.82 C258.6 81.28, 277.86 59.97, 304.2 26.81 M250.15 102.75 C259.92 92.51, 272.65 77.81, 304.89 38.67 M248.23 104.1 C269 82.17, 290.04 58.68, 304.57 40.67 M257.26 104.85 C269.13 92.38, 281.14 78.41, 303.58 50.78 M258.45 104.68 C270.5 93.03, 279.71 80.37, 303.71 53.02 M267.91 102.95 C282.21 89.74, 294.38 76.18, 305.58 65.86 M270.13 103.52 C280.93 92.34, 291.21 78.87, 304.29 64.32 M278.59 105.06 C286.32 99.51, 292.93 93.76, 305.63 76.53 M280.94 103.48 C285.27 97.86, 291.41 91.84, 303.65 77.31 M292.36 104.52 C294.82 101.57, 296.25 94.69, 303.78 90.03 M291.56 103.46 C295.24 100.27, 299.08 94.45, 304.81 88.12 M0.3 100.26 C0.3 100.26, 0.3 100.26, 0.3 100.26 M0.3 100.26 C0.3 100.26, 0.3 100.26, 0.3 100.26 M11.17 99 C9.51 96.82, 5.51 93.86, 0.8 88.09 M12.23 99.38 C8.14 97.45, 5.27 94.2, 0.07 89.94 M22.41 100.11 C18.89 94.52, 12.13 89.01, 1.74 80.77 M24.59 100.38 C14.5 92.11, 6.75 84.15, -0.53 78.11 M37.78 98.41 C26.48 89.57, 17.25 82.89, 0.86 68.25 M36.43 98.91 C21.2 88.55, 7.13 75.56, -0.14 68.11 M48.04 98.3 C28.17 82.97, 12.26 66.66, 0.09 58.95 M47.97 99.46 C30.48 82.97, 12.94 68.72, 0.9 56.78 M60.1 101.94 C38.72 81.06, 13.85 60.46, -0.92 47.77 M60.99 99.6 C41.53 83.42, 23.43 68.13, -0.33 46.55 M74.36 101.6 C56.6 88.05, 45.58 73.4, -0.02 34.92 M73.43 99.62 C54.24 83.89, 34.54 66.83, 0.31 35.88 M86.07 98.85 C64.63 83.73, 48.72 67.31, 0.27 25.19 M85.53 100.77 C53.16 73.34, 21.67 45.22, -0.39 25.62 M99.02 101.14 C63.06 71.78, 26.55 40.53, 1.5 15.17 M96.41 99.07 C70.58 76.23, 41.95 52.04, 0.66 15.42 M111.07 97.78 C83.89 77.15, 59.48 53, -2 4.55 M108.5 100.31 C66.02 63.62, 23.23 26.95, 0.44 4.04 M123.61 99.77 C78.58 61.69, 33.58 22.75, 4.68 -2.07 M121.89 101.09 C88.95 70.74, 53.93 40.19, 2.49 -3.56 M135.34 100.49 C97.78 67.22, 60.9 36.38, 13.77 -3.87 M134.93 100.56 C88.68 60.33, 41.42 18.36, 14.54 -3.92 M147.52 98.84 C98.96 59.75, 53.3 17.94, 25.48 -4.34 M146.42 100.76 C100.9 60.44, 54.77 20.69, 28 -4.43 M157.73 99.89 C114.79 63.5, 70.28 23.36, 41.61 -2.37 M158.15 100.34 C128.42 73.07, 99.02 45.65, 40.5 -3.27 M169.33 98.79 C138.12 71.09, 105.71 43.9, 50.28 -3.49 M171.36 99.59 C130.48 64.68, 91.38 31.52, 51.45 -3.6 M185 100.65 C153.37 74.67, 125.24 51.41, 63.14 -4.71 M183.06 99.5 C145.37 68.12, 109.39 34.78, 64.17 -3.17 M196.46 101.2 C163.07 74.09, 132.48 46.45, 77.17 -1.86 M194.65 99.5 C157.96 66.88, 119.22 33.25, 76.54 -2.63 M205.75 101.94 C165.12 63.94, 122.22 23.96, 88.15 -1.7 M208.11 99.74 C167.91 67.28, 127.48 33.24, 87.31 -4.49 M218.95 98.79 C185.27 68.62, 146.19 37.79, 100.16 -2.03 M218.53 98.89 C173.77 59.22, 126.31 18.95, 100.55 -4.04 M231.72 98.01 C203.9 76.17, 175.57 51.14, 111.33 -3.02 M230.57 99.14 C193.11 67.92, 155.3 36.35, 112.22 -3.67 M242.75 100.06 C199.21 58, 149.99 18.22, 123.11 -4.08 M244.79 99.24 C215.62 75.31, 186.28 50.17, 124.32 -2.51 M255.54 100.25 C225.58 74.51, 195.1 48.19, 137.98 -3.18 M256.28 100.23 C216.07 64.79, 176.95 31.62, 137.5 -2.7 M267.65 99.96 C225.7 61.87, 184.07 24.67, 149 -5 M268.8 99.81 C223.68 60.94, 176.6 20.94, 149.47 -4.34 M280.44 99.21 C254.03 76.11, 228.68 53.81, 161.28 -4.97 M279.38 100.01 C249.83 72.02, 216.71 43.53, 161.34 -2.48 M292.57 100.59 C254.78 66.85, 214.64 33.88, 173.71 -4.67 M292.73 100.28 C247.57 59.66, 201.35 19.4, 174.24 -3.36 M302.52 98.54 C274.56 73.63, 246.39 51.06, 184.27 -4.65 M302.57 97.9 C269.44 69.81, 236.87 42.59, 185.47 -4.11 M302.24 88 C279.82 66.97, 255.01 47.19, 199.72 -3.78 M302.24 87.67 C273.98 62.77, 244.04 38.28, 197.13 -2.97 M300.64 75.3 C283.92 60.88, 262.98 42.59, 209.14 -3.39 M302.99 76.03 C270.09 49.7, 237.95 21.31, 210.45 -4.28 M301.11 65.81 C278.39 44.26, 255.79 23.09, 221.4 -3.31 M302.4 65.8 C277.16 44.23, 254.04 23.43, 222.23 -3.47 M300.07 55.73 C277.45 34.41, 256.44 14.54, 234.94 -5.26 M301.86 55.05 C282.81 37.87, 263.22 21.62, 235.39 -3.25 M303.79 43.34 C279.04 27.46, 257.29 8.44, 246.99 -1.7 M302.15 43.54 C281.18 24.74, 260.22 7.66, 247.17 -3.37 M301.8 32.86 C287.93 21.23, 276.36 11.67, 259.35 -3.14 M301.84 33.68 C294.52 26.48, 283.84 18.32, 259.71 -2.81 M300.71 23.15 C294.12 15.57, 286.97 8.32, 271.85 -2.32 M301.91 24.33 C295.51 16.65, 286.45 9.09, 270.43 -2.78 M301.43 14.84 C296.51 5.08, 287.88 0.44, 283.92 -2.19 M301.87 13.09 C297.82 8.85, 294.48 6.15, 284.42 -3.67 M301.8 2.75 C299.99 1.67, 298.15 -0.11, 295.95 -3.37 M302.47 2.34 C300.13 1.22, 298.43 -1.12, 295.41 -3.34" stroke="#228be6" stroke-width="1" fill="none"></path><path d="M-0.19 0.18 C60.15 -0.83, 122 -1.06, 300.9 -1.05 M0.67 0.29 C70.46 -1.52, 141.53 -2.13, 299.9 -0.46 M299.53 -0.69 C302.28 34.08, 302.63 70.75, 301.12 101.59 M299.58 0.96 C300.73 32.99, 300.29 63.43, 300.45 99.37 M299.47 100.06 C233.9 102.63, 168.98 99.85, -0.35 99.28 M300.47 99.54 C215.19 98.09, 131.37 97.58, 0.57 100.22 M-1.3 99.56 C-1.97 72.75, 1.45 47.08, 0.2 -0.55 M0.44 99.25 C0.99 72.01, -0.02 43.33, -0.85 0.16" stroke="#000000" stroke-width="2" fill="none"></path></g><g stroke-linecap="round"><g transform="translate(350 10.968952830135777) rotate(0 1.0563075428403863 70.8247212029388)"><path d="M0.96 -0.97 C1.16 22.59, -0.18 117.5, 0 141.04 M0.01 1.14 C0.66 24.93, 1.84 119.26, 2.12 142.62" stroke="#000000" stroke-width="1" fill="none"></path></g></g><g stroke-linecap="round"><g transform="translate(10.43489771336317 70.94230433478947) rotate(0 0.42428023368120193 39.69038609042764)"><path d="M1.28 1.81 C-1.19 21.37, -0.1 37.3, -0.43 79.05 M0.55 0.03 C-0.13 16.33, 0.41 33.83, 0.11 79.35" stroke="#000000" stroke-width="1" fill="none"></path></g></g><g stroke-linecap="round" transform="translate(30 278) rotate(0 130 9.91306365966409)"><path d="M0 0 C0 0, 0 0, 0 0 M0 0 C0 0, 0 0, 0 0 M-0.26 6.4 C1.17 4.75, 2.6 3.1, 4.99 0.36 M-0.26 6.4 C1.81 4.01, 3.88 1.63, 4.99 0.36 M0.13 12.04 C3.03 8.71, 5.93 5.37, 10.63 -0.03 M0.13 12.04 C3.26 8.44, 6.4 4.84, 10.63 -0.03 M-0.13 18.44 C4.47 13.14, 9.08 7.85, 15.62 0.33 M-0.13 18.44 C4.01 13.67, 8.16 8.91, 15.62 0.33 M2.23 21.82 C9.68 13.25, 17.13 4.69, 21.26 -0.07 M2.23 21.82 C8.42 14.7, 14.6 7.59, 21.26 -0.07 M7.88 21.42 C14.71 13.57, 21.54 5.71, 26.25 0.29 M7.88 21.42 C12.66 15.92, 17.45 10.41, 26.25 0.29 M12.86 21.78 C19.01 14.71, 25.16 7.64, 31.89 -0.1 M12.86 21.78 C17.12 16.89, 21.37 12, 31.89 -0.1 M17.85 22.14 C25.24 13.64, 32.63 5.14, 36.88 0.26 M17.85 22.14 C25.15 13.75, 32.44 5.36, 36.88 0.26 M23.49 21.75 C29.71 14.6, 35.92 7.45, 42.52 -0.14 M23.49 21.75 C30.39 13.82, 37.28 5.89, 42.52 -0.14 M28.48 22.11 C33.72 16.08, 38.96 10.06, 47.51 0.22 M28.48 22.11 C33.66 16.15, 38.83 10.2, 47.51 0.22 M34.12 21.71 C40.08 14.86, 46.04 8.01, 53.15 -0.17 M34.12 21.71 C40.84 13.99, 47.55 6.27, 53.15 -0.17 M39.11 22.07 C43.34 17.21, 47.57 12.35, 58.14 0.19 M39.11 22.07 C43.11 17.48, 47.11 12.88, 58.14 0.19 M44.75 21.68 C49.52 16.2, 54.29 10.71, 63.78 -0.21 M44.75 21.68 C49.54 16.18, 54.32 10.67, 63.78 -0.21 M49.74 22.04 C54.97 16.03, 60.2 10.01, 68.77 0.15 M49.74 22.04 C55.93 14.92, 62.12 7.8, 68.77 0.15 M55.38 21.65 C62.28 13.71, 69.18 5.77, 74.41 -0.24 M55.38 21.65 C62.19 13.82, 68.99 6, 74.41 -0.24 M60.37 22.01 C66.75 14.67, 73.13 7.33, 79.4 0.12 M60.37 22.01 C67.77 13.49, 75.18 4.98, 79.4 0.12 M66.02 21.61 C72.29 14.4, 78.56 7.18, 85.04 -0.28 M66.02 21.61 C70.09 16.93, 74.16 12.24, 85.04 -0.28 M71 21.97 C77.88 14.05, 84.76 6.14, 90.03 0.08 M71 21.97 C75.12 17.23, 79.24 12.5, 90.03 0.08 M76.65 21.58 C82.12 15.27, 87.6 8.97, 95.67 -0.31 M76.65 21.58 C80.61 17.02, 84.57 12.46, 95.67 -0.31 M81.63 21.94 C88.65 13.86, 95.67 5.79, 100.66 0.05 M81.63 21.94 C86.7 16.1, 91.77 10.27, 100.66 0.05 M87.28 21.54 C91.66 16.5, 96.04 11.46, 106.3 -0.34 M87.28 21.54 C94.33 13.42, 101.39 5.31, 106.3 -0.34 M92.26 21.9 C96.59 16.92, 100.91 11.95, 111.29 0.02 M92.26 21.9 C96.86 16.61, 101.46 11.33, 111.29 0.02 M97.91 21.51 C101.68 17.16, 105.46 12.81, 116.27 0.38 M97.91 21.51 C104.82 13.55, 111.73 5.6, 116.27 0.38 M102.89 21.87 C107.92 16.08, 112.96 10.29, 121.92 -0.02 M102.89 21.87 C108.38 15.56, 113.86 9.25, 121.92 -0.02 M108.54 21.47 C114.4 14.73, 120.26 7.99, 126.91 0.34 M108.54 21.47 C114.84 14.22, 121.14 6.97, 126.91 0.34 M113.52 21.83 C118.53 16.07, 123.54 10.31, 132.55 -0.05 M113.52 21.83 C121.07 13.15, 128.62 4.46, 132.55 -0.05 M119.17 21.44 C125.26 14.42, 131.36 7.41, 137.54 0.31 M119.17 21.44 C123.45 16.51, 127.73 11.59, 137.54 0.31 M124.15 21.8 C129.17 16.03, 134.18 10.26, 143.18 -0.09 M124.15 21.8 C127.97 17.4, 131.8 13.01, 143.18 -0.09 M129.14 22.16 C134.13 16.42, 139.12 10.68, 148.17 0.27 M129.14 22.16 C133.93 16.64, 138.73 11.13, 148.17 0.27 M134.78 21.76 C141.65 13.87, 148.51 5.97, 153.81 -0.12 M134.78 21.76 C141.98 13.49, 149.17 5.21, 153.81 -0.12 M139.77 22.12 C147.07 13.73, 154.36 5.34, 158.8 0.24 M139.77 22.12 C144.51 16.67, 149.25 11.21, 158.8 0.24 M145.41 21.73 C151.26 15, 157.11 8.27, 164.44 -0.16 M145.41 21.73 C150.17 16.26, 154.93 10.78, 164.44 -0.16 M150.4 22.09 C154.7 17.14, 159 12.19, 169.43 0.2 M150.4 22.09 C156.46 15.12, 162.51 8.15, 169.43 0.2 M156.04 21.69 C161.97 14.88, 167.9 8.06, 175.07 -0.19 M156.04 21.69 C163.31 13.34, 170.57 4.98, 175.07 -0.19 M161.03 22.05 C168.19 13.82, 175.36 5.58, 180.06 0.17 M161.03 22.05 C168.57 13.38, 176.1 4.71, 180.06 0.17 M166.67 21.66 C171.19 16.46, 175.71 11.26, 185.7 -0.23 M166.67 21.66 C173.94 13.3, 181.21 4.93, 185.7 -0.23 M171.66 22.02 C176.93 15.95, 182.21 9.88, 190.69 0.13 M171.66 22.02 C176.67 16.25, 181.68 10.49, 190.69 0.13 M177.3 21.63 C181.23 17.11, 185.16 12.59, 196.33 -0.26 M177.3 21.63 C183.08 14.98, 188.86 8.33, 196.33 -0.26 M182.29 21.99 C186.62 17.01, 190.94 12.03, 201.32 0.1 M182.29 21.99 C188.85 14.44, 195.41 6.89, 201.32 0.1 M187.93 21.59 C195.45 12.94, 202.98 4.29, 206.96 -0.3 M187.93 21.59 C192.56 16.27, 197.18 10.95, 206.96 -0.3 M192.92 21.95 C200.19 13.59, 207.46 5.23, 211.95 0.06 M192.92 21.95 C198.79 15.2, 204.65 8.45, 211.95 0.06 M198.56 21.56 C203.08 16.36, 207.6 11.17, 217.59 -0.33 M198.56 21.56 C205.04 14.11, 211.51 6.66, 217.59 -0.33 M203.55 21.92 C210.26 14.2, 216.97 6.48, 222.58 0.03 M203.55 21.92 C208.62 16.09, 213.68 10.26, 222.58 0.03 M209.19 21.52 C213.42 16.66, 217.65 11.8, 228.22 -0.36 M209.19 21.52 C216.4 13.23, 223.62 4.93, 228.22 -0.36 M214.18 21.88 C218.11 17.36, 222.05 12.83, 233.21 0 M214.18 21.88 C221.3 13.69, 228.42 5.5, 233.21 0 M219.82 21.49 C225.25 15.24, 230.68 9, 238.19 0.36 M219.82 21.49 C226.94 13.31, 234.05 5.12, 238.19 0.36 M224.81 21.85 C229.92 15.97, 235.03 10.09, 243.84 -0.04 M224.81 21.85 C229.22 16.78, 233.62 11.71, 243.84 -0.04 M230.45 21.45 C235.22 15.97, 239.99 10.49, 248.82 0.32 M230.45 21.45 C234.79 16.46, 239.13 11.48, 248.82 0.32 M235.44 21.81 C241.49 14.85, 247.54 7.89, 254.47 -0.07 M235.44 21.81 C240.8 15.64, 246.17 9.47, 254.47 -0.07 M241.08 21.42 C247.92 13.55, 254.76 5.68, 259.45 0.29 M241.08 21.42 C245.51 16.33, 249.93 11.24, 259.45 0.29 M246.07 21.78 C252.75 14.09, 259.43 6.41, 263.13 2.16 M246.07 21.78 C249.69 17.62, 253.31 13.46, 263.13 2.16 M251.06 22.14 C255.17 17.4, 259.29 12.67, 262.87 8.55 M251.06 22.14 C255.31 17.24, 259.57 12.35, 262.87 8.55 M256.7 21.74 C258.96 19.15, 261.21 16.55, 262.61 14.95 M256.7 21.74 C258.78 19.35, 260.87 16.95, 262.61 14.95 M-0.01 19.82 C-0.01 19.82, -0.01 19.82, -0.01 19.82 M-0.01 19.82 C-0.01 19.82, -0.01 19.82, -0.01 19.82 M6.39 20.08 C4.95 18.83, 3.52 17.58, 0.35 14.83 M6.39 20.08 C4.71 18.62, 3.03 17.16, 0.35 14.83 M12.04 19.69 C9.25 17.26, 6.46 14.84, -0.04 9.19 M12.04 19.69 C7.23 15.51, 2.43 11.34, -0.04 9.19 M18.43 19.95 C11.82 14.2, 5.2 8.44, 0.32 4.2 M18.43 19.95 C14.67 16.68, 10.9 13.4, 0.32 4.2 M24.08 19.56 C18.29 14.52, 12.5 9.49, 0.68 -0.78 M24.08 19.56 C18.17 14.42, 12.27 9.29, 0.68 -0.78 M30.47 19.82 C25.21 15.24, 19.95 10.67, 7.08 -0.52 M30.47 19.82 C25.74 15.7, 21 11.58, 7.08 -0.52 M36.87 20.08 C28.46 12.77, 20.06 5.46, 12.72 -0.92 M36.87 20.08 C29.76 13.89, 22.64 7.71, 12.72 -0.92 M42.51 19.68 C34.69 12.88, 26.87 6.09, 19.12 -0.65 M42.51 19.68 C33.9 12.2, 25.29 4.71, 19.12 -0.65 M48.91 19.94 C40.97 13.04, 33.04 6.14, 24.76 -1.05 M48.91 19.94 C41.61 13.6, 34.31 7.25, 24.76 -1.05 M54.56 19.55 C48.29 14.11, 42.03 8.66, 31.16 -0.79 M54.56 19.55 C48.6 14.37, 42.65 9.2, 31.16 -0.79 M60.95 19.81 C55.31 14.9, 49.66 10, 37.56 -0.53 M60.95 19.81 C54.01 13.77, 47.06 7.73, 37.56 -0.53 M67.35 20.07 C61.19 14.71, 55.02 9.35, 43.2 -0.92 M67.35 20.07 C61.2 14.72, 55.04 9.37, 43.2 -0.92 M72.99 19.68 C63.77 11.66, 54.55 3.64, 49.6 -0.66 M72.99 19.68 C64.96 12.69, 56.92 5.71, 49.6 -0.66 M79.39 19.94 C70.13 11.89, 60.87 3.84, 55.24 -1.05 M79.39 19.94 C74.42 15.61, 69.44 11.29, 55.24 -1.05 M85.04 19.55 C76.8 12.39, 68.57 5.23, 61.64 -0.79 M85.04 19.55 C76.83 12.41, 68.62 5.28, 61.64 -0.79 M91.43 19.81 C82.2 11.78, 72.96 3.75, 68.04 -0.53 M91.43 19.81 C82.33 11.9, 73.23 3.99, 68.04 -0.53 M97.83 20.07 C89.73 13.03, 81.63 5.99, 73.68 -0.93 M97.83 20.07 C91.27 14.37, 84.71 8.66, 73.68 -0.93 M103.47 19.67 C96.73 13.81, 89.99 7.95, 80.08 -0.66 M103.47 19.67 C95.8 13, 88.12 6.33, 80.08 -0.66 M109.87 19.94 C104.52 15.29, 99.17 10.63, 85.72 -1.06 M109.87 19.94 C102.57 13.59, 95.27 7.24, 85.72 -1.06 M115.51 19.54 C108.05 13.05, 100.58 6.56, 92.12 -0.8 M115.51 19.54 C106.35 11.58, 97.19 3.61, 92.12 -0.8 M121.91 19.8 C113.87 12.81, 105.83 5.82, 98.52 -0.54 M121.91 19.8 C115.29 14.05, 108.67 8.29, 98.52 -0.54 M128.31 20.06 C118.68 11.69, 109.05 3.32, 104.16 -0.93 M128.31 20.06 C118.85 11.84, 109.39 3.62, 104.16 -0.93 M133.95 19.67 C127.14 13.74, 120.32 7.82, 110.56 -0.67 M133.95 19.67 C126.99 13.62, 120.03 7.56, 110.56 -0.67 M140.35 19.93 C133.23 13.74, 126.12 7.56, 116.2 -1.06 M140.35 19.93 C131.08 11.87, 121.81 3.81, 116.2 -1.06 M145.99 19.54 C138.73 13.22, 131.47 6.91, 122.6 -0.8 M145.99 19.54 C139.59 13.97, 133.19 8.4, 122.6 -0.8 M152.39 19.8 C146.99 15.1, 141.58 10.4, 129 -0.54 M152.39 19.8 C146.12 14.35, 139.85 8.9, 129 -0.54 M158.79 20.06 C151.47 13.7, 144.16 7.34, 134.64 -0.94 M158.79 20.06 C149.55 12.02, 140.3 3.99, 134.64 -0.94 M164.43 19.66 C157.69 13.81, 150.96 7.95, 141.04 -0.67 M164.43 19.66 C155.38 11.79, 146.33 3.92, 141.04 -0.67 M170.83 19.93 C165.35 15.16, 159.86 10.39, 146.68 -1.07 M170.83 19.93 C165.04 14.89, 159.25 9.86, 146.68 -1.07 M176.47 19.53 C171.75 15.43, 167.03 11.32, 153.08 -0.81 M176.47 19.53 C168.8 12.86, 161.12 6.19, 153.08 -0.81 M182.87 19.79 C175.91 13.74, 168.95 7.69, 159.48 -0.55 M182.87 19.79 C175.76 13.61, 168.66 7.44, 159.48 -0.55 M189.27 20.05 C180.44 12.38, 171.62 4.71, 165.12 -0.94 M189.27 20.05 C181.5 13.3, 173.72 6.54, 165.12 -0.94 M194.91 19.66 C185.9 11.83, 176.89 3.99, 171.52 -0.68 M194.91 19.66 C188.42 14.02, 181.94 8.38, 171.52 -0.68 M201.31 19.92 C195.82 15.15, 190.32 10.37, 177.16 -1.07 M201.31 19.92 C195.44 14.82, 189.57 9.72, 177.16 -1.07 M206.95 19.53 C201.88 15.12, 196.81 10.71, 183.56 -0.81 M206.95 19.53 C199.77 13.29, 192.6 7.05, 183.56 -0.81 M213.35 19.79 C206.49 13.82, 199.63 7.86, 189.96 -0.55 M213.35 19.79 C208.45 15.52, 203.54 11.26, 189.96 -0.55 M219.75 20.05 C210.67 12.16, 201.6 4.27, 195.6 -0.94 M219.75 20.05 C210.51 12.02, 201.28 3.99, 195.6 -0.94 M225.39 19.65 C217.81 13.06, 210.22 6.47, 202 -0.68 M225.39 19.65 C216.41 11.85, 207.43 4.04, 202 -0.68 M231.79 19.92 C224.5 13.58, 217.21 7.24, 207.64 -1.08 M231.79 19.92 C223.63 12.82, 215.46 5.72, 207.64 -1.08 M237.43 19.52 C229.52 12.65, 221.61 5.77, 214.04 -0.82 M237.43 19.52 C228.74 11.97, 220.05 4.41, 214.04 -0.82 M243.83 19.78 C237.03 13.87, 230.23 7.96, 220.43 -0.56 M243.83 19.78 C237.95 14.67, 232.08 9.56, 220.43 -0.56 M250.23 20.04 C245.19 15.66, 240.15 11.28, 226.08 -0.95 M250.23 20.04 C244.87 15.39, 239.51 10.73, 226.08 -0.95 M255.87 19.65 C248.99 13.66, 242.1 7.68, 232.48 -0.69 M255.87 19.65 C250.18 14.7, 244.48 9.75, 232.48 -0.69 M260.76 18.6 C254.73 13.36, 248.71 8.12, 238.12 -1.08 M260.76 18.6 C255.59 14.1, 250.42 9.61, 238.12 -1.08 M261.12 13.61 C255.79 8.98, 250.46 4.34, 244.52 -0.82 M261.12 13.61 C256.48 9.57, 251.83 5.54, 244.52 -0.82 M260.73 7.97 C257.81 5.44, 254.9 2.9, 250.91 -0.56 M260.73 7.97 C257.51 5.17, 254.29 2.37, 250.91 -0.56 M261.09 2.98 C260.02 2.05, 258.95 1.13, 256.56 -0.95 M261.09 2.98 C259.41 1.53, 257.74 0.08, 256.56 -0.95" stroke="#fab005" stroke-width="0.5" fill="none"></path><path d="M0 0 C83.65 0, 167.3 0, 260 0 M0 0 C57.93 0, 115.87 0, 260 0 M260 0 C260 7.68, 260 15.35, 260 19.83 M260 0 C260 5.52, 260 11.05, 260 19.83 M260 19.83 C167.47 19.83, 74.93 19.83, 0 19.83 M260 19.83 C206.41 19.83, 152.81 19.83, 0 19.83 M0 19.83 C0 14.02, 0 8.22, 0 0 M0 19.83 C0 13.82, 0 7.82, 0 0" stroke="#000000" stroke-width="1" fill="none"></path></g><g stroke-linecap="round" transform="translate(30 250) rotate(0 149.5 9.91306365966409)"><path d="M0 0 C0 0, 0 0, 0 0 M0 0 C0 0, 0 0, 0 0 M-0.26 6.4 C1.71 4.13, 3.68 1.86, 4.99 0.36 M-0.26 6.4 C1.62 4.23, 3.5 2.07, 4.99 0.36 M0.13 12.04 C2.3 9.55, 4.47 7.06, 10.63 -0.03 M0.13 12.04 C4.29 7.26, 8.44 2.49, 10.63 -0.03 M-0.13 18.44 C6.07 11.31, 12.26 4.18, 15.62 0.33 M-0.13 18.44 C5.31 12.18, 10.75 5.92, 15.62 0.33 M2.23 21.82 C7.6 15.65, 12.96 9.47, 21.26 -0.07 M2.23 21.82 C6.59 16.8, 10.95 11.79, 21.26 -0.07 M7.88 21.42 C15.13 13.08, 22.38 4.74, 26.25 0.29 M7.88 21.42 C13.77 14.65, 19.65 7.88, 26.25 0.29 M12.86 21.78 C18 15.88, 23.13 9.97, 31.89 -0.1 M12.86 21.78 C18.76 15, 24.66 8.21, 31.89 -0.1 M17.85 22.14 C23.52 15.62, 29.19 9.1, 36.88 0.26 M17.85 22.14 C22.92 16.31, 28 10.47, 36.88 0.26 M23.49 21.75 C30.34 13.87, 37.19 5.99, 42.52 -0.14 M23.49 21.75 C31.1 13, 38.71 4.24, 42.52 -0.14 M28.48 22.11 C33.52 16.31, 38.56 10.52, 47.51 0.22 M28.48 22.11 C32.73 17.22, 36.98 12.33, 47.51 0.22 M34.12 21.71 C41.48 13.26, 48.83 4.8, 53.15 -0.17 M34.12 21.71 C40.14 14.79, 46.16 7.87, 53.15 -0.17 M39.11 22.07 C44.84 15.48, 50.58 8.89, 58.14 0.19 M39.11 22.07 C44.57 15.8, 50.02 9.52, 58.14 0.19 M44.75 21.68 C49.07 16.72, 53.38 11.76, 63.78 -0.21 M44.75 21.68 C51.1 14.38, 57.44 7.09, 63.78 -0.21 M49.74 22.04 C54.63 16.42, 59.52 10.8, 68.77 0.15 M49.74 22.04 C53.71 17.47, 57.68 12.91, 68.77 0.15 M55.38 21.65 C59.23 17.22, 63.07 12.8, 74.41 -0.24 M55.38 21.65 C62.63 13.31, 69.88 4.97, 74.41 -0.24 M60.37 22.01 C64.65 17.08, 68.93 12.16, 79.4 0.12 M60.37 22.01 C67.93 13.31, 75.49 4.61, 79.4 0.12 M66.02 21.61 C71.3 15.53, 76.59 9.44, 85.04 -0.28 M66.02 21.61 C70.69 16.23, 75.37 10.85, 85.04 -0.28 M71 21.97 C77.51 14.48, 84.02 6.99, 90.03 0.08 M71 21.97 C77.04 15.02, 83.09 8.07, 90.03 0.08 M76.65 21.58 C81.65 15.82, 86.66 10.06, 95.67 -0.31 M76.65 21.58 C83.69 13.47, 90.74 5.37, 95.67 -0.31 M81.63 21.94 C89.04 13.41, 96.46 4.88, 100.66 0.05 M81.63 21.94 C87.15 15.59, 92.67 9.24, 100.66 0.05 M87.28 21.54 C91.27 16.94, 95.27 12.34, 106.3 -0.34 M87.28 21.54 C92.1 15.99, 96.92 10.44, 106.3 -0.34 M92.26 21.9 C99.71 13.33, 107.16 4.76, 111.29 0.02 M92.26 21.9 C97.81 15.52, 103.36 9.14, 111.29 0.02 M97.91 21.51 C101.87 16.95, 105.83 12.4, 116.27 0.38 M97.91 21.51 C102.51 16.21, 107.12 10.91, 116.27 0.38 M102.89 21.87 C107.01 17.13, 111.13 12.39, 121.92 -0.02 M102.89 21.87 C109.66 14.08, 116.43 6.29, 121.92 -0.02 M108.54 21.47 C112.57 16.84, 116.6 12.2, 126.91 0.34 M108.54 21.47 C115.39 13.59, 122.25 5.7, 126.91 0.34 M113.52 21.83 C120.69 13.59, 127.85 5.35, 132.55 -0.05 M113.52 21.83 C120.61 13.68, 127.69 5.54, 132.55 -0.05 M119.17 21.44 C122.94 17.09, 126.72 12.75, 137.54 0.31 M119.17 21.44 C124.47 15.34, 129.77 9.24, 137.54 0.31 M124.15 21.8 C128.47 16.83, 132.79 11.86, 143.18 -0.09 M124.15 21.8 C129.61 15.53, 135.06 9.25, 143.18 -0.09 M129.14 22.16 C132.98 17.75, 136.81 13.33, 148.17 0.27 M129.14 22.16 C135.25 15.13, 141.36 8.1, 148.17 0.27 M134.78 21.76 C141.78 13.71, 148.78 5.67, 153.81 -0.12 M134.78 21.76 C140.51 15.18, 146.23 8.59, 153.81 -0.12 M139.77 22.12 C145.08 16.02, 150.39 9.91, 158.8 0.24 M139.77 22.12 C144.54 16.64, 149.31 11.15, 158.8 0.24 M145.41 21.73 C150.02 16.43, 154.62 11.14, 164.44 -0.16 M145.41 21.73 C150.62 15.74, 155.82 9.76, 164.44 -0.16 M150.4 22.09 C157.12 14.36, 163.83 6.64, 169.43 0.2 M150.4 22.09 C156.37 15.23, 162.33 8.36, 169.43 0.2 M156.04 21.69 C162.45 14.33, 168.85 6.96, 175.07 -0.19 M156.04 21.69 C162.11 14.72, 168.17 7.74, 175.07 -0.19 M161.03 22.05 C168.3 13.69, 175.58 5.32, 180.06 0.17 M161.03 22.05 C164.89 17.62, 168.75 13.18, 180.06 0.17 M166.67 21.66 C173.95 13.29, 181.23 4.92, 185.7 -0.23 M166.67 21.66 C170.63 17.11, 174.58 12.56, 185.7 -0.23 M171.66 22.02 C178.69 13.93, 185.72 5.84, 190.69 0.13 M171.66 22.02 C176.74 16.17, 181.83 10.33, 190.69 0.13 M177.3 21.63 C184.04 13.88, 190.77 6.13, 196.33 -0.26 M177.3 21.63 C184.3 13.58, 191.29 5.54, 196.33 -0.26 M182.29 21.99 C189.16 14.08, 196.04 6.17, 201.32 0.1 M182.29 21.99 C188.22 15.16, 194.15 8.34, 201.32 0.1 M187.93 21.59 C193.06 15.69, 198.19 9.79, 206.96 -0.3 M187.93 21.59 C193.28 15.44, 198.63 9.28, 206.96 -0.3 M192.92 21.95 C197.63 16.53, 202.34 11.12, 211.95 0.06 M192.92 21.95 C200.5 13.24, 208.07 4.52, 211.95 0.06 M198.56 21.56 C206.01 12.99, 213.45 4.43, 217.59 -0.33 M198.56 21.56 C204.05 15.24, 209.54 8.93, 217.59 -0.33 M203.55 21.92 C210.44 13.99, 217.33 6.06, 222.58 0.03 M203.55 21.92 C208.19 16.58, 212.83 11.24, 222.58 0.03 M209.19 21.52 C213.47 16.61, 217.74 11.69, 228.22 -0.36 M209.19 21.52 C216.52 13.1, 223.84 4.67, 228.22 -0.36 M214.18 21.88 C219.56 15.69, 224.94 9.5, 233.21 0 M214.18 21.88 C218.42 17, 222.67 12.12, 233.21 0 M219.82 21.49 C225.69 14.74, 231.55 8, 238.19 0.36 M219.82 21.49 C223.92 16.78, 228.01 12.07, 238.19 0.36 M224.81 21.85 C229.2 16.79, 233.6 11.74, 243.84 -0.04 M224.81 21.85 C231.77 13.85, 238.72 5.84, 243.84 -0.04 M230.45 21.45 C235.38 15.78, 240.31 10.11, 248.82 0.32 M230.45 21.45 C236.16 14.89, 241.86 8.33, 248.82 0.32 M235.44 21.81 C240.61 15.87, 245.78 9.92, 254.47 -0.07 M235.44 21.81 C242.25 13.97, 249.07 6.14, 254.47 -0.07 M241.08 21.42 C246.76 14.89, 252.44 8.36, 259.45 0.29 M241.08 21.42 C244.99 16.93, 248.89 12.44, 259.45 0.29 M246.07 21.78 C252.04 14.91, 258.01 8.04, 265.1 -0.11 M246.07 21.78 C252.6 14.27, 259.13 6.75, 265.1 -0.11 M251.06 22.14 C257.19 15.09, 263.31 8.04, 270.08 0.25 M251.06 22.14 C257.7 14.49, 264.35 6.85, 270.08 0.25 M256.7 21.74 C262.6 14.96, 268.5 8.17, 275.73 -0.14 M256.7 21.74 C262.79 14.74, 268.87 7.74, 275.73 -0.14 M261.69 22.1 C266.1 17.03, 270.51 11.95, 280.71 0.22 M261.69 22.1 C269.26 13.39, 276.84 4.67, 280.71 0.22 M267.33 21.71 C272.22 16.09, 277.1 10.47, 286.36 -0.18 M267.33 21.71 C273.86 14.2, 280.39 6.68, 286.36 -0.18 M272.32 22.07 C276.25 17.54, 280.19 13.01, 291.34 0.18 M272.32 22.07 C277.88 15.67, 283.45 9.26, 291.34 0.18 M277.96 21.68 C285.46 13.05, 292.96 4.42, 296.99 -0.21 M277.96 21.68 C284.14 14.57, 290.32 7.46, 296.99 -0.21 M282.95 22.04 C287.53 16.76, 292.12 11.48, 300.66 1.66 M282.95 22.04 C286.88 17.51, 290.81 12.99, 300.66 1.66 M288.59 21.64 C291.16 18.68, 293.73 15.73, 301.06 7.3 M288.59 21.64 C291.48 18.31, 294.38 14.98, 301.06 7.3 M293.58 22 C295.34 19.98, 297.1 17.95, 300.79 13.7 M293.58 22 C295.25 20.08, 296.93 18.15, 300.79 13.7 M-0.01 19.82 C-0.01 19.82, -0.01 19.82, -0.01 19.82 M-0.01 19.82 C-0.01 19.82, -0.01 19.82, -0.01 19.82 M6.39 20.08 C4.82 18.71, 3.24 17.34, 0.35 14.83 M6.39 20.08 C5.04 18.9, 3.68 17.72, 0.35 14.83 M12.04 19.69 C9.53 17.51, 7.02 15.33, -0.04 9.19 M12.04 19.69 C7.49 15.74, 2.95 11.79, -0.04 9.19 M18.43 19.95 C13.83 15.95, 9.23 11.95, 0.32 4.2 M18.43 19.95 C11.94 14.3, 5.44 8.65, 0.32 4.2 M24.08 19.56 C15.09 11.75, 6.11 3.94, 0.68 -0.78 M24.08 19.56 C18.71 14.89, 13.34 10.23, 0.68 -0.78 M30.47 19.82 C25.57 15.55, 20.67 11.29, 7.08 -0.52 M30.47 19.82 C24.67 14.77, 18.86 9.72, 7.08 -0.52 M36.87 20.08 C31.85 15.72, 26.84 11.35, 12.72 -0.92 M36.87 20.08 C31.04 15.01, 25.2 9.93, 12.72 -0.92 M42.51 19.68 C34.13 12.39, 25.74 5.1, 19.12 -0.65 M42.51 19.68 C33.99 12.28, 25.47 4.87, 19.12 -0.65 M48.91 19.94 C39.69 11.93, 30.47 3.91, 24.76 -1.05 M48.91 19.94 C42.59 14.45, 36.26 8.95, 24.76 -1.05 M54.56 19.55 C45.77 11.92, 36.99 4.28, 31.16 -0.79 M54.56 19.55 C49.09 14.8, 43.62 10.04, 31.16 -0.79 M60.95 19.81 C55.05 14.68, 49.15 9.55, 37.56 -0.53 M60.95 19.81 C51.71 11.77, 42.46 3.74, 37.56 -0.53 M67.35 20.07 C58.21 12.13, 49.07 4.18, 43.2 -0.92 M67.35 20.07 C61.55 15.03, 55.76 10, 43.2 -0.92 M72.99 19.68 C68.09 15.41, 63.18 11.15, 49.6 -0.66 M72.99 19.68 C68.24 15.55, 63.49 11.42, 49.6 -0.66 M79.39 19.94 C71.43 13.02, 63.47 6.1, 55.24 -1.05 M79.39 19.94 C74.01 15.27, 68.64 10.59, 55.24 -1.05 M85.04 19.55 C78.31 13.7, 71.58 7.85, 61.64 -0.79 M85.04 19.55 C77.94 13.38, 70.85 7.21, 61.64 -0.79 M91.43 19.81 C85.94 15.03, 80.44 10.25, 68.04 -0.53 M91.43 19.81 C84.94 14.16, 78.45 8.52, 68.04 -0.53 M97.83 20.07 C89.05 12.43, 80.26 4.8, 73.68 -0.93 M97.83 20.07 C88.91 12.31, 79.99 4.56, 73.68 -0.93 M103.47 19.67 C95.44 12.69, 87.4 5.7, 80.08 -0.66 M103.47 19.67 C95.14 12.43, 86.8 5.18, 80.08 -0.66 M109.87 19.94 C101.19 12.39, 92.51 4.84, 85.72 -1.06 M109.87 19.94 C101.86 12.97, 93.84 6, 85.72 -1.06 M115.51 19.54 C107.35 12.44, 99.19 5.35, 92.12 -0.8 M115.51 19.54 C109.25 14.09, 102.98 8.64, 92.12 -0.8 M121.91 19.8 C116.3 14.92, 110.68 10.04, 98.52 -0.54 M121.91 19.8 C113.09 12.13, 104.26 4.46, 98.52 -0.54 M128.31 20.06 C118.94 11.92, 109.57 3.77, 104.16 -0.93 M128.31 20.06 C121.64 14.26, 114.96 8.46, 104.16 -0.93 M133.95 19.67 C128.94 15.31, 123.93 10.96, 110.56 -0.67 M133.95 19.67 C125.81 12.59, 117.67 5.52, 110.56 -0.67 M140.35 19.93 C134.51 14.86, 128.68 9.78, 116.2 -1.06 M140.35 19.93 C133.04 13.57, 125.73 7.22, 116.2 -1.06 M145.99 19.54 C138.17 12.73, 130.34 5.93, 122.6 -0.8 M145.99 19.54 C137.97 12.56, 129.95 5.59, 122.6 -0.8 M152.39 19.8 C144.57 13, 136.75 6.2, 129 -0.54 M152.39 19.8 C144.81 13.21, 137.23 6.62, 129 -0.54 M158.79 20.06 C151.6 13.81, 144.41 7.56, 134.64 -0.94 M158.79 20.06 C151.12 13.39, 143.45 6.73, 134.64 -0.94 M164.43 19.66 C156.61 12.87, 148.79 6.07, 141.04 -0.67 M164.43 19.66 C155.7 12.07, 146.96 4.47, 141.04 -0.67 M170.83 19.93 C164.95 14.81, 159.06 9.69, 146.68 -1.07 M170.83 19.93 C164 13.98, 157.16 8.04, 146.68 -1.07 M176.47 19.53 C168.2 12.34, 159.93 5.15, 153.08 -0.81 M176.47 19.53 C168.5 12.6, 160.53 5.67, 153.08 -0.81 M182.87 19.79 C174.53 12.54, 166.2 5.3, 159.48 -0.55 M182.87 19.79 C175.69 13.55, 168.5 7.3, 159.48 -0.55 M189.27 20.05 C180.87 12.75, 172.47 5.45, 165.12 -0.94 M189.27 20.05 C180.3 12.26, 171.33 4.46, 165.12 -0.94 M194.91 19.66 C188.75 14.3, 182.59 8.95, 171.52 -0.68 M194.91 19.66 C187.57 13.28, 180.23 6.9, 171.52 -0.68 M201.31 19.92 C193.67 13.28, 186.02 6.63, 177.16 -1.07 M201.31 19.92 C194.84 14.3, 188.37 8.68, 177.16 -1.07 M206.95 19.53 C201.43 14.73, 195.91 9.92, 183.56 -0.81 M206.95 19.53 C200.33 13.77, 193.7 8.01, 183.56 -0.81 M213.35 19.79 C206.26 13.62, 199.16 7.46, 189.96 -0.55 M213.35 19.79 C206.61 13.93, 199.87 8.07, 189.96 -0.55 M219.75 20.05 C210.34 11.87, 200.93 3.69, 195.6 -0.94 M219.75 20.05 C213.67 14.76, 207.59 9.48, 195.6 -0.94 M225.39 19.65 C216.16 11.63, 206.93 3.6, 202 -0.68 M225.39 19.65 C217.28 12.6, 209.16 5.55, 202 -0.68 M231.79 19.92 C224.96 13.98, 218.12 8.04, 207.64 -1.08 M231.79 19.92 C224.25 13.36, 216.72 6.81, 207.64 -1.08 M237.43 19.52 C229.91 12.98, 222.38 6.44, 214.04 -0.82 M237.43 19.52 C232.41 15.15, 227.38 10.78, 214.04 -0.82 M243.83 19.78 C236.38 13.3, 228.92 6.82, 220.43 -0.56 M243.83 19.78 C238.84 15.45, 233.86 11.11, 220.43 -0.56 M250.23 20.04 C243.98 14.61, 237.72 9.17, 226.08 -0.95 M250.23 20.04 C242.52 13.35, 234.82 6.65, 226.08 -0.95 M255.87 19.65 C247.85 12.67, 239.82 5.7, 232.48 -0.69 M255.87 19.65 C247.44 12.32, 239.02 5, 232.48 -0.69 M262.27 19.91 C256.85 15.2, 251.43 10.49, 238.12 -1.08 M262.27 19.91 C253.99 12.71, 245.7 5.51, 238.12 -1.08 M267.91 19.52 C262.15 14.5, 256.38 9.49, 244.52 -0.82 M267.91 19.52 C262.89 15.15, 257.87 10.79, 244.52 -0.82 M274.31 19.78 C267.75 14.08, 261.19 8.38, 250.91 -0.56 M274.31 19.78 C269.02 15.18, 263.74 10.59, 250.91 -0.56 M280.71 20.04 C271.95 12.43, 263.2 4.82, 256.56 -0.95 M280.71 20.04 C273.61 13.87, 266.51 7.69, 256.56 -0.95 M286.35 19.64 C278.57 12.89, 270.8 6.13, 262.96 -0.69 M286.35 19.64 C277.83 12.24, 269.32 4.84, 262.96 -0.69 M292.75 19.91 C286.25 14.26, 279.75 8.61, 268.6 -1.09 M292.75 19.91 C283.76 12.09, 274.76 4.27, 268.6 -1.09 M298.39 19.51 C290.67 12.8, 282.95 6.09, 275 -0.83 M298.39 19.51 C293.5 15.26, 288.61 11.01, 275 -0.83 M301.77 17.15 C293.87 10.28, 285.98 3.42, 281.39 -0.56 M301.77 17.15 C296.07 12.19, 290.37 7.23, 281.39 -0.56 M301.38 11.51 C297.55 8.18, 293.73 4.86, 287.04 -0.96 M301.38 11.51 C297.51 8.15, 293.65 4.79, 287.04 -0.96 M301.74 6.52 C298.56 3.76, 295.38 0.99, 293.43 -0.7 M301.74 6.52 C299.22 4.33, 296.71 2.15, 293.43 -0.7" stroke="#fab005" stroke-width="0.5" fill="none"></path><path d="M0 0 C62.1 0, 124.2 0, 299 0 M0 0 C62.7 0, 125.41 0, 299 0 M299 0 C299 4.69, 299 9.38, 299 19.83 M299 0 C299 5.87, 299 11.74, 299 19.83 M299 19.83 C224.25 19.83, 149.5 19.83, 0 19.83 M299 19.83 C207.28 19.83, 115.56 19.83, 0 19.83 M0 19.83 C0 14.53, 0 9.24, 0 0 M0 19.83 C0 15.22, 0 10.61, 0 0" stroke="#000000" stroke-width="1" fill="none"></path></g><g transform="translate(408 492) rotate(0 56.5 12.5)"><text x="0" y="18" font-family="Virgil, Segoe UI Emoji" font-size="20px" fill="#000000" text-anchor="start" style="white-space: pre;" direction="ltr">PageFooter</text></g><g stroke-linecap="round"><g transform="translate(330 510) rotate(0 29.352310805246134 -0.1439002916216623)"><path d="M0.86 2.26 C10.7 1.73, 50.91 -2.17, 60.83 -2.55 M-2.12 1.02 C7.27 0.68, 48.89 -0.65, 59.04 -0.3" stroke="#495057" stroke-width="2" fill="none"></path></g><g transform="translate(330 510) rotate(0 29.352310805246134 -0.1439002916216623)"><path d="M34.11 11.26 C37.41 6.65, 51.27 4.41, 61.5 -1.51 M30 8.87 C38.36 5.48, 44.43 5.72, 60.47 -0.24" stroke="#495057" stroke-width="2" fill="none"></path></g><g transform="translate(330 510) rotate(0 29.352310805246134 -0.1439002916216623)"><path d="M34.03 -9.26 C37.45 -6.44, 51.34 -1.24, 61.5 -1.51 M29.91 -11.65 C38.26 -9.42, 44.34 -3.55, 60.47 -0.24" stroke="#495057" stroke-width="2" fill="none"></path></g></g></svg>