<svg version="1.1" xmlns="http://www.w3.org/2000/svg" viewBox="0 0 575 579.441469151424">
  <g stroke-linecap="round" transform="translate(11.404849017104425 169.44146915142403) rotate(0 170.28570992606024 200)"><path d="M0.28 -0.13 C78.66 1.17, 155.24 -0.56, 339.78 1.17 M0.24 0.09 C75.21 -1.65, 151.22 -2.01, 340.19 -0.18 M341.07 0.01 C342.99 147.17, 342.5 294.07, 341.38 400.14 M340.2 0.07 C340.36 98.91, 339.94 197.22, 340.84 400.22 M339.42 401.11 C236.49 399.76, 133.13 397.42, -0.64 399.04 M340.46 400.59 C269.53 401.29, 196.9 402.15, -0.57 399.96 M-0.73 401.02 C-0.84 256.72, 0.68 112.97, -0.88 0.12 M0.36 399.85 C1.46 245.02, 1.71 88.49, 0.08 -0.42" stroke="#000000" stroke-width="1" fill="none"></path></g><g stroke-linecap="round" transform="translate(30.770963065522665 369.44146915142403) rotate(0 150.1435091444887 50.00000000000006)"><path d="M0 0 C0 0, 0 0, 0 0 M0 0 C0 0, 0 0, 0 0 M-0.26 6.4 C1.26 4.65, 2.78 2.9, 4.99 0.36 M-0.26 6.4 C1.04 4.9, 2.34 3.4, 4.99 0.36 M0.13 12.04 C3.08 8.65, 6.02 5.27, 10.63 -0.03 M0.13 12.04 C2.79 8.98, 5.45 5.93, 10.63 -0.03 M-0.13 18.44 C6.12 11.25, 12.37 4.06, 15.62 0.33 M-0.13 18.44 C3.88 13.82, 7.89 9.21, 15.62 0.33 M0.27 24.08 C8.21 14.95, 16.15 5.81, 21.26 -0.07 M0.27 24.08 C5.27 18.33, 10.27 12.57, 21.26 -0.07 M0 30.48 C9.32 19.76, 18.63 9.05, 26.25 0.29 M0 30.48 C7.02 22.41, 14.04 14.33, 26.25 0.29 M-0.26 36.88 C6.51 29.09, 13.28 21.31, 31.89 -0.1 M-0.26 36.88 C10.05 25.02, 20.35 13.17, 31.89 -0.1 M0.14 42.52 C12.8 27.96, 25.46 13.39, 36.88 0.26 M0.14 42.52 C12.23 28.61, 24.32 14.7, 36.88 0.26 M-0.12 48.92 C9.91 37.37, 19.95 25.83, 42.52 -0.14 M-0.12 48.92 C9.04 38.38, 18.2 27.84, 42.52 -0.14 M0.27 54.56 C9.82 43.58, 19.36 32.6, 47.51 0.22 M0.27 54.56 C15.71 36.8, 31.16 19.03, 47.51 0.22 M0.01 60.96 C19.53 38.5, 39.06 16.04, 53.15 -0.17 M0.01 60.96 C14.89 43.84, 29.78 26.71, 53.15 -0.17 M-0.25 67.36 C12.6 52.57, 25.46 37.78, 58.14 0.19 M-0.25 67.36 C22.61 41.05, 45.48 14.75, 58.14 0.19 M0.14 73 C24.17 45.37, 48.19 17.73, 63.78 -0.21 M0.14 73 C20.44 49.65, 40.74 26.29, 63.78 -0.21 M-0.12 79.4 C23.83 51.84, 47.79 24.29, 68.77 0.15 M-0.12 79.4 C20.38 55.81, 40.88 32.23, 68.77 0.15 M0.28 85.04 C21.97 60.09, 43.66 35.13, 74.41 -0.24 M0.28 85.04 C28.29 52.81, 56.31 20.58, 74.41 -0.24 M0.01 91.44 C30.97 55.83, 61.93 20.22, 79.4 0.12 M0.01 91.44 C20.91 67.4, 41.81 43.36, 79.4 0.12 M-0.25 97.84 C33.53 58.98, 67.32 20.11, 85.04 -0.28 M-0.25 97.84 C29.35 63.79, 58.95 29.74, 85.04 -0.28 M2.12 101.22 C20.43 80.15, 38.74 59.08, 90.03 0.08 M2.12 101.22 C32.93 65.77, 63.74 30.32, 90.03 0.08 M7.1 101.58 C27.25 78.4, 47.4 55.22, 95.67 -0.31 M7.1 101.58 C39 64.88, 70.9 28.19, 95.67 -0.31 M12.09 101.94 C40.47 69.29, 68.85 36.64, 100.66 0.05 M12.09 101.94 C35.57 74.92, 59.06 47.91, 100.66 0.05 M17.73 101.54 C51.62 62.56, 85.5 23.59, 106.3 -0.34 M17.73 101.54 C52.71 61.3, 87.69 21.06, 106.3 -0.34 M22.72 101.9 C49.31 71.31, 75.91 40.72, 111.29 0.02 M22.72 101.9 C54.31 65.56, 85.9 29.21, 111.29 0.02 M28.36 101.51 C55.92 69.81, 83.47 38.11, 116.27 0.38 M28.36 101.51 C52.35 73.92, 76.33 46.33, 116.27 0.38 M33.35 101.87 C66.83 63.36, 100.3 24.85, 121.92 -0.02 M33.35 101.87 C52.7 79.61, 72.04 57.36, 121.92 -0.02 M38.99 101.47 C67.86 68.27, 96.72 35.06, 126.91 0.34 M38.99 101.47 C61.75 75.29, 84.51 49.11, 126.91 0.34 M43.98 101.83 C65.23 77.38, 86.49 52.93, 132.55 -0.05 M43.98 101.83 C69.43 72.56, 94.87 43.29, 132.55 -0.05 M49.62 101.44 C84.07 61.81, 118.52 22.18, 137.54 0.31 M49.62 101.44 C72.66 74.94, 95.7 48.44, 137.54 0.31 M54.61 101.8 C74.89 78.47, 95.17 55.14, 143.18 -0.09 M54.61 101.8 C76.23 76.92, 97.86 52.05, 143.18 -0.09 M60.25 101.4 C88.8 68.56, 117.36 35.71, 148.17 0.27 M60.25 101.4 C80.91 77.64, 101.56 53.89, 148.17 0.27 M65.24 101.76 C95.69 66.73, 126.15 31.7, 153.81 -0.12 M65.24 101.76 C84.14 80.02, 103.05 58.27, 153.81 -0.12 M70.88 101.37 C88.83 80.72, 106.78 60.07, 158.8 0.24 M70.88 101.37 C103.76 63.55, 136.63 25.74, 158.8 0.24 M75.87 101.73 C97.11 77.3, 118.35 52.86, 164.44 -0.16 M75.87 101.73 C108.06 64.7, 140.24 27.67, 164.44 -0.16 M81.51 101.33 C113.45 64.59, 145.39 27.85, 169.43 0.2 M81.51 101.33 C109.57 69.06, 137.63 36.78, 169.43 0.2 M86.5 101.69 C106.72 78.43, 126.94 55.18, 175.07 -0.19 M86.5 101.69 C113.61 70.5, 140.73 39.31, 175.07 -0.19 M92.14 101.3 C126.59 61.68, 161.03 22.06, 180.06 0.17 M92.14 101.3 C123.31 65.44, 154.48 29.59, 180.06 0.17 M97.13 101.66 C121.66 73.44, 146.19 45.23, 185.7 -0.23 M97.13 101.66 C123.46 71.37, 149.8 41.07, 185.7 -0.23 M102.77 101.26 C132.26 67.35, 161.74 33.43, 190.69 0.13 M102.77 101.26 C121.03 80.26, 139.29 59.26, 190.69 0.13 M107.76 101.62 C126.33 80.26, 144.91 58.89, 196.33 -0.26 M107.76 101.62 C128.71 77.53, 149.66 53.43, 196.33 -0.26 M113.4 101.23 C139.44 71.28, 165.47 41.34, 201.32 0.1 M113.4 101.23 C135.38 75.95, 157.36 50.67, 201.32 0.1 M118.39 101.59 C145.56 70.34, 172.73 39.08, 206.96 -0.3 M118.39 101.59 C142.04 74.39, 165.68 47.19, 206.96 -0.3 M124.03 101.2 C144.46 77.7, 164.88 54.2, 211.95 0.06 M124.03 101.2 C150.11 71.2, 176.18 41.2, 211.95 0.06 M129.02 101.56 C155.99 70.53, 182.96 39.5, 217.59 -0.33 M129.02 101.56 C162.3 63.28, 195.57 25, 217.59 -0.33 M134.01 101.92 C165.76 65.38, 197.52 28.85, 222.58 0.03 M134.01 101.92 C152.29 80.89, 170.57 59.86, 222.58 0.03 M139.65 101.52 C174.69 61.21, 209.74 20.9, 228.22 -0.36 M139.65 101.52 C174.5 61.43, 209.35 21.34, 228.22 -0.36 M144.64 101.88 C175.25 66.67, 205.86 31.46, 233.21 0 M144.64 101.88 C169.61 73.15, 194.59 44.42, 233.21 0 M150.28 101.49 C170.42 78.32, 190.57 55.14, 238.19 0.36 M150.28 101.49 C184.99 61.56, 219.69 21.64, 238.19 0.36 M155.27 101.85 C183.66 69.19, 212.04 36.54, 243.84 -0.04 M155.27 101.85 C179.16 74.36, 203.06 46.87, 243.84 -0.04 M160.91 101.45 C188.17 70.1, 215.43 38.74, 248.82 0.32 M160.91 101.45 C187.1 71.33, 213.28 41.2, 248.82 0.32 M165.9 101.81 C189.51 74.65, 213.12 47.49, 254.47 -0.07 M165.9 101.81 C197.78 65.14, 229.66 28.46, 254.47 -0.07 M171.54 101.42 C206.7 60.97, 241.86 20.53, 259.45 0.29 M171.54 101.42 C194.82 74.64, 218.1 47.86, 259.45 0.29 M176.53 101.78 C196.31 79.02, 216.1 56.26, 265.1 -0.11 M176.53 101.78 C210.75 62.42, 244.96 23.05, 265.1 -0.11 M182.17 101.38 C209.98 69.39, 237.8 37.39, 270.08 0.25 M182.17 101.38 C208.66 70.91, 235.15 40.44, 270.08 0.25 M187.16 101.74 C212.55 72.53, 237.95 43.32, 275.73 -0.14 M187.16 101.74 C207.23 78.66, 227.29 55.57, 275.73 -0.14 M192.8 101.35 C222.1 67.64, 251.41 33.93, 280.71 0.22 M192.8 101.35 C215.38 75.37, 237.97 49.39, 280.71 0.22 M197.79 101.71 C216.26 80.46, 234.74 59.2, 286.36 -0.18 M197.79 101.71 C215.69 81.12, 233.58 60.53, 286.36 -0.18 M203.43 101.31 C236.92 62.79, 270.42 24.26, 291.34 0.18 M203.43 101.31 C223.2 78.58, 242.96 55.84, 291.34 0.18 M208.42 101.67 C243.61 61.19, 278.81 20.7, 296.99 -0.21 M208.42 101.67 C233.04 73.35, 257.66 45.03, 296.99 -0.21 M214.06 101.28 C235.5 76.61, 256.95 51.95, 301.32 0.9 M214.06 101.28 C243.91 66.94, 273.77 32.6, 301.32 0.9 M219.05 101.64 C245.09 71.68, 271.13 41.73, 301.06 7.3 M219.05 101.64 C240.63 76.82, 262.21 51.99, 301.06 7.3 M224.69 101.25 C253.11 68.55, 281.54 35.85, 301.45 12.94 M224.69 101.25 C254.59 66.85, 284.5 32.45, 301.45 12.94 M229.68 101.61 C250.41 77.75, 271.15 53.9, 301.19 19.34 M229.68 101.61 C244.71 84.31, 259.74 67.02, 301.19 19.34 M235.32 101.21 C252.12 81.88, 268.93 62.55, 301.58 24.99 M235.32 101.21 C261.27 71.36, 287.22 41.51, 301.58 24.99 M240.31 101.57 C258.1 81.1, 275.9 60.63, 301.32 31.38 M240.31 101.57 C253.46 86.44, 266.62 71.31, 301.32 31.38 M245.3 101.93 C259.28 85.85, 273.26 69.76, 301.06 37.78 M245.3 101.93 C257.37 88.04, 269.45 74.14, 301.06 37.78 M250.94 101.54 C268.92 80.85, 286.9 60.17, 301.46 43.42 M250.94 101.54 C262.02 88.79, 273.11 76.04, 301.46 43.42 M255.93 101.9 C272.82 82.46, 289.72 63.03, 301.19 49.82 M255.93 101.9 C272.97 82.29, 290.01 62.69, 301.19 49.82 M261.57 101.5 C276.47 84.36, 291.37 67.22, 301.59 55.46 M261.57 101.5 C269.79 92.04, 278.02 82.58, 301.59 55.46 M266.56 101.86 C276.59 90.31, 286.63 78.77, 301.33 61.86 M266.56 101.86 C274.45 92.78, 282.34 83.7, 301.33 61.86 M272.2 101.47 C280.47 91.95, 288.74 82.43, 301.07 68.26 M272.2 101.47 C278.02 94.77, 283.84 88.08, 301.07 68.26 M277.19 101.83 C284.98 92.86, 292.77 83.89, 301.46 73.9 M277.19 101.83 C286.11 91.56, 295.04 81.29, 301.46 73.9 M282.83 101.43 C288.36 95.08, 293.88 88.72, 301.2 80.3 M282.83 101.43 C287.96 95.54, 293.08 89.64, 301.2 80.3 M287.82 101.79 C291.27 97.82, 294.72 93.85, 301.59 85.94 M287.82 101.79 C291.15 97.96, 294.48 94.12, 301.59 85.94 M293.46 101.4 C295.61 98.92, 297.76 96.45, 301.33 92.34 M293.46 101.4 C296.24 98.2, 299.02 95, 301.33 92.34 M298.45 101.76 C299.27 100.81, 300.09 99.87, 301.07 98.74 M298.45 101.76 C299.33 100.74, 300.21 99.73, 301.07 98.74" stroke="#228be6" stroke-width="0.5" fill="none"></path><path d="M0 0 C76.19 0, 152.38 0, 300.29 0 M0 0 C115.38 0, 230.77 0, 300.29 0 M300.29 0 C300.29 39.08, 300.29 78.15, 300.29 100 M300.29 0 C300.29 29.73, 300.29 59.47, 300.29 100 M300.29 100 C199.44 100, 98.59 100, 0 100 M300.29 100 C200.63 100, 100.98 100, 0 100 M0 100 C0 68.95, 0 37.9, 0 0 M0 100 C0 75.27, 0 50.53, 0 0" stroke="#000000" stroke-width="1" fill="none"></path></g><g stroke-linecap="round" transform="translate(30.428010590720078 189.44146915142403) rotate(0 150.45412588810586 9.91306365966409)"><path d="M0 0 C0 0, 0 0, 0 0 M0 0 C0 0, 0 0, 0 0 M-0.26 6.4 C0.98 4.97, 2.23 3.54, 4.99 0.36 M-0.26 6.4 C1.16 4.76, 2.58 3.13, 4.99 0.36 M0.13 12.04 C2.56 9.25, 4.98 6.46, 10.63 -0.03 M0.13 12.04 C4.12 7.46, 8.1 2.88, 10.63 -0.03 M-0.13 18.44 C5.93 11.47, 11.99 4.5, 15.62 0.33 M-0.13 18.44 C4.54 13.07, 9.2 7.71, 15.62 0.33 M2.23 21.82 C8.53 14.58, 14.82 7.34, 21.26 -0.07 M2.23 21.82 C6.72 16.66, 11.2 11.5, 21.26 -0.07 M7.88 21.42 C11.85 16.85, 15.82 12.29, 26.25 0.29 M7.88 21.42 C13.92 14.47, 19.96 7.52, 26.25 0.29 M12.86 21.78 C19.36 14.31, 25.85 6.84, 31.89 -0.1 M12.86 21.78 C20.2 13.35, 27.53 4.92, 31.89 -0.1 M17.85 22.14 C25.39 13.47, 32.94 4.79, 36.88 0.26 M17.85 22.14 C22.71 16.56, 27.57 10.97, 36.88 0.26 M23.49 21.75 C29.2 15.19, 34.9 8.63, 42.52 -0.14 M23.49 21.75 C30.97 13.15, 38.45 4.55, 42.52 -0.14 M28.48 22.11 C32.94 16.98, 37.4 11.85, 47.51 0.22 M28.48 22.11 C32.63 17.34, 36.78 12.56, 47.51 0.22 M34.12 21.71 C39.58 15.44, 45.03 9.17, 53.15 -0.17 M34.12 21.71 C39.44 15.6, 44.75 9.49, 53.15 -0.17 M39.11 22.07 C44.49 15.89, 49.87 9.7, 58.14 0.19 M39.11 22.07 C43.22 17.34, 47.34 12.61, 58.14 0.19 M44.75 21.68 C49.07 16.72, 53.38 11.76, 63.78 -0.21 M44.75 21.68 C50.87 14.64, 56.99 7.6, 63.78 -0.21 M49.74 22.04 C56.17 14.65, 62.6 7.25, 68.77 0.15 M49.74 22.04 C55.54 15.37, 61.33 8.71, 68.77 0.15 M55.38 21.65 C60.87 15.34, 66.35 9.04, 74.41 -0.24 M55.38 21.65 C60.2 16.11, 65.01 10.57, 74.41 -0.24 M60.37 22.01 C64.93 16.76, 69.49 11.51, 79.4 0.12 M60.37 22.01 C67.89 13.36, 75.4 4.71, 79.4 0.12 M66.02 21.61 C71.4 15.42, 76.78 9.23, 85.04 -0.28 M66.02 21.61 C71.02 15.85, 76.02 10.1, 85.04 -0.28 M71 21.97 C76.19 16.01, 81.37 10.05, 90.03 0.08 M71 21.97 C75.85 16.39, 80.7 10.81, 90.03 0.08 M76.65 21.58 C81.72 15.74, 86.79 9.91, 95.67 -0.31 M76.65 21.58 C84.21 12.88, 91.77 4.18, 95.67 -0.31 M81.63 21.94 C88.55 13.98, 95.46 6.02, 100.66 0.05 M81.63 21.94 C87.5 15.19, 93.37 8.44, 100.66 0.05 M87.28 21.54 C93.73 14.12, 100.18 6.7, 106.3 -0.34 M87.28 21.54 C94.1 13.69, 100.92 5.84, 106.3 -0.34 M92.26 21.9 C97.67 15.68, 103.08 9.45, 111.29 0.02 M92.26 21.9 C96.74 16.75, 101.22 11.6, 111.29 0.02 M97.91 21.51 C102.38 16.36, 106.85 11.22, 116.27 0.38 M97.91 21.51 C103.5 15.07, 109.09 8.64, 116.27 0.38 M102.89 21.87 C107.65 16.39, 112.41 10.92, 121.92 -0.02 M102.89 21.87 C109.98 13.71, 117.07 5.56, 121.92 -0.02 M108.54 21.47 C115.27 13.73, 122 5.98, 126.91 0.34 M108.54 21.47 C113.13 16.19, 117.72 10.91, 126.91 0.34 M113.52 21.83 C119.61 14.83, 125.69 7.83, 132.55 -0.05 M113.52 21.83 C119.47 14.99, 125.41 8.15, 132.55 -0.05 M119.17 21.44 C125.4 14.26, 131.64 7.09, 137.54 0.31 M119.17 21.44 C124.04 15.83, 128.92 10.22, 137.54 0.31 M124.15 21.8 C131.68 13.13, 139.21 4.47, 143.18 -0.09 M124.15 21.8 C129.94 15.14, 135.73 8.48, 143.18 -0.09 M129.14 22.16 C133.64 16.98, 138.14 11.8, 148.17 0.27 M129.14 22.16 C134.43 16.07, 139.72 9.98, 148.17 0.27 M134.78 21.76 C139.06 16.85, 143.33 11.93, 153.81 -0.12 M134.78 21.76 C139.59 16.23, 144.39 10.71, 153.81 -0.12 M139.77 22.12 C146.92 13.89, 154.08 5.66, 158.8 0.24 M139.77 22.12 C144.93 16.18, 150.1 10.24, 158.8 0.24 M145.41 21.73 C152.96 13.05, 160.5 4.37, 164.44 -0.16 M145.41 21.73 C151.49 14.74, 157.57 7.75, 164.44 -0.16 M150.4 22.09 C156.49 15.09, 162.57 8.08, 169.43 0.2 M150.4 22.09 C155.82 15.86, 161.24 9.62, 169.43 0.2 M156.04 21.69 C162.61 14.14, 169.18 6.58, 175.07 -0.19 M156.04 21.69 C162.17 14.65, 168.3 7.6, 175.07 -0.19 M161.03 22.05 C166.24 16.06, 171.46 10.06, 180.06 0.17 M161.03 22.05 C165.1 17.37, 169.18 12.68, 180.06 0.17 M166.67 21.66 C173.3 14.03, 179.93 6.41, 185.7 -0.23 M166.67 21.66 C173.04 14.33, 179.41 7.01, 185.7 -0.23 M171.66 22.02 C177.14 15.72, 182.62 9.42, 190.69 0.13 M171.66 22.02 C175.68 17.39, 179.7 12.77, 190.69 0.13 M177.3 21.63 C183.53 14.46, 189.76 7.29, 196.33 -0.26 M177.3 21.63 C182.77 15.34, 188.24 9.05, 196.33 -0.26 M182.29 21.99 C187.14 16.41, 191.98 10.83, 201.32 0.1 M182.29 21.99 C187.71 15.75, 193.13 9.52, 201.32 0.1 M187.93 21.59 C192.64 16.17, 197.35 10.75, 206.96 -0.3 M187.93 21.59 C194.91 13.57, 201.88 5.55, 206.96 -0.3 M192.92 21.95 C198.85 15.13, 204.78 8.31, 211.95 0.06 M192.92 21.95 C198.61 15.41, 204.3 8.86, 211.95 0.06 M198.56 21.56 C204.6 14.61, 210.65 7.66, 217.59 -0.33 M198.56 21.56 C202.65 16.85, 206.74 12.15, 217.59 -0.33 M203.55 21.92 C208.1 16.68, 212.65 11.45, 222.58 0.03 M203.55 21.92 C210.68 13.71, 217.82 5.5, 222.58 0.03 M209.19 21.52 C216.61 12.99, 224.04 4.45, 228.22 -0.36 M209.19 21.52 C215.5 14.27, 221.8 7.02, 228.22 -0.36 M214.18 21.88 C219.16 16.15, 224.15 10.42, 233.21 0 M214.18 21.88 C219.69 15.55, 225.2 9.21, 233.21 0 M219.82 21.49 C226.46 13.85, 233.1 6.21, 238.19 0.36 M219.82 21.49 C224.8 15.76, 229.78 10.03, 238.19 0.36 M224.81 21.85 C229.53 16.41, 234.26 10.98, 243.84 -0.04 M224.81 21.85 C230.06 15.81, 235.31 9.77, 243.84 -0.04 M230.45 21.45 C237.29 13.59, 244.12 5.73, 248.82 0.32 M230.45 21.45 C234.96 16.27, 239.47 11.08, 248.82 0.32 M235.44 21.81 C241.34 15.03, 247.24 8.24, 254.47 -0.07 M235.44 21.81 C239.7 16.91, 243.96 12.01, 254.47 -0.07 M241.08 21.42 C244.86 17.08, 248.63 12.74, 259.45 0.29 M241.08 21.42 C247 14.61, 252.92 7.8, 259.45 0.29 M246.07 21.78 C249.94 17.33, 253.81 12.88, 265.1 -0.11 M246.07 21.78 C251.38 15.67, 256.69 9.56, 265.1 -0.11 M251.06 22.14 C256.57 15.8, 262.07 9.47, 270.08 0.25 M251.06 22.14 C255.34 17.21, 259.63 12.28, 270.08 0.25 M256.7 21.74 C262.93 14.58, 269.16 7.42, 275.73 -0.14 M256.7 21.74 C261.34 16.41, 265.98 11.07, 275.73 -0.14 M261.69 22.1 C267.31 15.64, 272.93 9.17, 280.71 0.22 M261.69 22.1 C268.06 14.78, 274.43 7.45, 280.71 0.22 M267.33 21.71 C273.52 14.59, 279.71 7.47, 286.36 -0.18 M267.33 21.71 C274.49 13.48, 281.64 5.25, 286.36 -0.18 M272.32 22.07 C278.76 14.66, 285.2 7.25, 291.34 0.18 M272.32 22.07 C277.78 15.78, 283.24 9.5, 291.34 0.18 M277.96 21.68 C283.37 15.45, 288.79 9.22, 296.99 -0.21 M277.96 21.68 C285.39 13.13, 292.82 4.58, 296.99 -0.21 M282.95 22.04 C289.89 14.05, 296.82 6.07, 301.32 0.9 M282.95 22.04 C289.84 14.11, 296.73 6.18, 301.32 0.9 M288.59 21.64 C292.99 16.58, 297.4 11.51, 301.71 6.55 M288.59 21.64 C291.98 17.75, 295.36 13.85, 301.71 6.55 M293.58 22 C295.27 20.05, 296.97 18.1, 301.45 12.94 M293.58 22 C296.31 18.85, 299.05 15.7, 301.45 12.94 M299.22 21.61 C299.88 20.84, 300.55 20.08, 301.85 18.59 M299.22 21.61 C299.76 20.99, 300.3 20.36, 301.85 18.59 M-0.01 19.82 C-0.01 19.82, -0.01 19.82, -0.01 19.82 M-0.01 19.82 C-0.01 19.82, -0.01 19.82, -0.01 19.82 M6.39 20.08 C4.85 18.75, 3.32 17.41, 0.35 14.83 M6.39 20.08 C4.48 18.42, 2.57 16.76, 0.35 14.83 M12.04 19.69 C8.22 16.37, 4.4 13.05, -0.04 9.19 M12.04 19.69 C9.34 17.35, 6.65 15, -0.04 9.19 M18.43 19.95 C14.75 16.75, 11.07 13.54, 0.32 4.2 M18.43 19.95 C12.45 14.75, 6.47 9.55, 0.32 4.2 M24.08 19.56 C19.33 15.43, 14.57 11.3, 0.68 -0.78 M24.08 19.56 C16.94 13.35, 9.8 7.14, 0.68 -0.78 M30.47 19.82 C25.69 15.66, 20.91 11.5, 7.08 -0.52 M30.47 19.82 C24.79 14.88, 19.11 9.94, 7.08 -0.52 M36.87 20.08 C28.74 13.01, 20.61 5.94, 12.72 -0.92 M36.87 20.08 C31.32 15.25, 25.77 10.43, 12.72 -0.92 M42.51 19.68 C37.67 15.47, 32.82 11.25, 19.12 -0.65 M42.51 19.68 C35.35 13.46, 28.19 7.23, 19.12 -0.65 M48.91 19.94 C40.74 12.84, 32.57 5.74, 24.76 -1.05 M48.91 19.94 C43.42 15.17, 37.92 10.39, 24.76 -1.05 M54.56 19.55 C49.75 15.38, 44.95 11.2, 31.16 -0.79 M54.56 19.55 C49.21 14.9, 43.87 10.26, 31.16 -0.79 M60.95 19.81 C54.56 14.25, 48.17 8.7, 37.56 -0.53 M60.95 19.81 C51.96 11.99, 42.96 4.17, 37.56 -0.53 M67.35 20.07 C61.66 15.13, 55.98 10.18, 43.2 -0.92 M67.35 20.07 C58.31 12.21, 49.27 4.35, 43.2 -0.92 M72.99 19.68 C67.14 14.59, 61.28 9.5, 49.6 -0.66 M72.99 19.68 C67.3 14.73, 61.61 9.78, 49.6 -0.66 M79.39 19.94 C70.25 11.99, 61.1 4.04, 55.24 -1.05 M79.39 19.94 C70.58 12.28, 61.77 4.62, 55.24 -1.05 M85.04 19.55 C79.84 15.03, 74.65 10.52, 61.64 -0.79 M85.04 19.55 C80.28 15.41, 75.53 11.28, 61.64 -0.79 M91.43 19.81 C83.03 12.5, 74.62 5.19, 68.04 -0.53 M91.43 19.81 C84.96 14.18, 78.49 8.56, 68.04 -0.53 M97.83 20.07 C88.54 11.99, 79.24 3.91, 73.68 -0.93 M97.83 20.07 C90.13 13.37, 82.42 6.67, 73.68 -0.93 M103.47 19.67 C95.39 12.65, 87.3 5.62, 80.08 -0.66 M103.47 19.67 C97.79 14.73, 92.1 9.78, 80.08 -0.66 M109.87 19.94 C100.72 11.98, 91.57 4.03, 85.72 -1.06 M109.87 19.94 C102.57 13.59, 95.26 7.24, 85.72 -1.06 M115.51 19.54 C107.33 12.43, 99.15 5.32, 92.12 -0.8 M115.51 19.54 C109.57 14.37, 103.63 9.21, 92.12 -0.8 M121.91 19.8 C115.17 13.94, 108.43 8.08, 98.52 -0.54 M121.91 19.8 C114.4 13.27, 106.89 6.74, 98.52 -0.54 M128.31 20.06 C122.82 15.29, 117.34 10.53, 104.16 -0.93 M128.31 20.06 C119.74 12.61, 111.16 5.16, 104.16 -0.93 M133.95 19.67 C128.34 14.79, 122.72 9.9, 110.56 -0.67 M133.95 19.67 C124.63 11.56, 115.3 3.45, 110.56 -0.67 M140.35 19.93 C133.64 14.1, 126.94 8.27, 116.2 -1.06 M140.35 19.93 C134.36 14.72, 128.36 9.51, 116.2 -1.06 M145.99 19.54 C141.17 15.34, 136.35 11.15, 122.6 -0.8 M145.99 19.54 C140.95 15.15, 135.9 10.76, 122.6 -0.8 M152.39 19.8 C146.67 14.83, 140.95 9.85, 129 -0.54 M152.39 19.8 C145.56 13.86, 138.74 7.93, 129 -0.54 M158.79 20.06 C153.92 15.83, 149.05 11.59, 134.64 -0.94 M158.79 20.06 C151.34 13.58, 143.9 7.11, 134.64 -0.94 M164.43 19.66 C157.07 13.27, 149.72 6.87, 141.04 -0.67 M164.43 19.66 C157.4 13.55, 150.37 7.44, 141.04 -0.67 M170.83 19.93 C163.94 13.94, 157.05 7.95, 146.68 -1.07 M170.83 19.93 C164.32 14.27, 157.82 8.61, 146.68 -1.07 M176.47 19.53 C169.02 13.05, 161.57 6.57, 153.08 -0.81 M176.47 19.53 C168.4 12.52, 160.33 5.5, 153.08 -0.81 M182.87 19.79 C174.46 12.48, 166.04 5.16, 159.48 -0.55 M182.87 19.79 C174.73 12.72, 166.6 5.64, 159.48 -0.55 M189.27 20.05 C181.27 13.1, 173.27 6.15, 165.12 -0.94 M189.27 20.05 C180.76 12.66, 172.25 5.26, 165.12 -0.94 M194.91 19.66 C186.23 12.11, 177.54 4.56, 171.52 -0.68 M194.91 19.66 C189.09 14.6, 183.28 9.54, 171.52 -0.68 M201.31 19.92 C194.77 14.24, 188.24 8.56, 177.16 -1.07 M201.31 19.92 C193.93 13.5, 186.54 7.08, 177.16 -1.07 M206.95 19.53 C199.69 13.22, 192.43 6.9, 183.56 -0.81 M206.95 19.53 C199.15 12.74, 191.35 5.96, 183.56 -0.81 M213.35 19.79 C206.36 13.71, 199.36 7.63, 189.96 -0.55 M213.35 19.79 C207.62 14.8, 201.89 9.82, 189.96 -0.55 M219.75 20.05 C214.66 15.63, 209.58 11.21, 195.6 -0.94 M219.75 20.05 C214.44 15.43, 209.13 10.82, 195.6 -0.94 M225.39 19.65 C220.2 15.14, 215.02 10.63, 202 -0.68 M225.39 19.65 C219.17 14.25, 212.96 8.84, 202 -0.68 M231.79 19.92 C223.35 12.58, 214.9 5.24, 207.64 -1.08 M231.79 19.92 C222.57 11.9, 213.35 3.89, 207.64 -1.08 M237.43 19.52 C230.68 13.65, 223.93 7.78, 214.04 -0.82 M237.43 19.52 C229.94 13.01, 222.46 6.5, 214.04 -0.82 M243.83 19.78 C238.01 14.72, 232.18 9.66, 220.43 -0.56 M243.83 19.78 C235.66 12.68, 227.49 5.58, 220.43 -0.56 M250.23 20.04 C240.74 11.79, 231.25 3.55, 226.08 -0.95 M250.23 20.04 C245.01 15.5, 239.78 10.96, 226.08 -0.95 M255.87 19.65 C249.47 14.08, 243.07 8.52, 232.48 -0.69 M255.87 19.65 C248.64 13.37, 241.41 7.08, 232.48 -0.69 M262.27 19.91 C255.71 14.21, 249.15 8.51, 238.12 -1.08 M262.27 19.91 C256.98 15.32, 251.7 10.72, 238.12 -1.08 M267.91 19.52 C262.47 14.79, 257.03 10.05, 244.52 -0.82 M267.91 19.52 C260.81 13.35, 253.71 7.17, 244.52 -0.82 M274.31 19.78 C267.17 13.57, 260.02 7.36, 250.91 -0.56 M274.31 19.78 C268.49 14.72, 262.67 9.66, 250.91 -0.56 M280.71 20.04 C271.57 12.09, 262.42 4.15, 256.56 -0.95 M280.71 20.04 C275.11 15.18, 269.52 10.31, 256.56 -0.95 M286.35 19.64 C278.89 13.16, 271.44 6.68, 262.96 -0.69 M286.35 19.64 C279.73 13.89, 273.12 8.14, 262.96 -0.69 M292.75 19.91 C287.73 15.55, 282.71 11.18, 268.6 -1.09 M292.75 19.91 C286.74 14.68, 280.74 9.46, 268.6 -1.09 M298.39 19.51 C289.5 11.78, 280.61 4.05, 275 -0.83 M298.39 19.51 C290.1 12.3, 281.81 5.09, 275 -0.83 M302.53 17.8 C297.02 13.02, 291.52 8.24, 281.39 -0.56 M302.53 17.8 C294.79 11.08, 287.05 4.35, 281.39 -0.56 M302.89 12.82 C299.7 10.05, 296.51 7.27, 287.04 -0.96 M302.89 12.82 C297.29 7.95, 291.69 3.08, 287.04 -0.96 M302.49 7.17 C299.59 4.65, 296.69 2.13, 293.43 -0.7 M302.49 7.17 C300.21 5.19, 297.93 3.21, 293.43 -0.7 M302.85 2.19 C301.58 1.08, 300.3 -0.03, 299.08 -1.09 M302.85 2.19 C302 1.45, 301.15 0.71, 299.08 -1.09" stroke="#fd7e14" stroke-width="0.5" fill="none"></path><path d="M0 0 C84.97 0, 169.94 0, 300.91 0 M0 0 C111.26 0, 222.52 0, 300.91 0 M300.91 0 C300.91 6.96, 300.91 13.91, 300.91 19.83 M300.91 0 C300.91 7.48, 300.91 14.95, 300.91 19.83 M300.91 19.83 C230.38 19.83, 159.86 19.83, 0 19.83 M300.91 19.83 C189.44 19.83, 77.97 19.83, 0 19.83 M0 19.83 C0 12.86, 0 5.89, 0 0 M0 19.83 C0 15.42, 0 11.01, 0 0" stroke="#000000" stroke-width="1" fill="none"></path></g><g stroke-linecap="round" transform="translate(29.953083427688398 215.44146915142403) rotate(0 60 10)"><path d="M0 0 C0 0, 0 0, 0 0 M0 0 C0 0, 0 0, 0 0 M-0.26 6.4 C1.11 4.82, 2.48 3.24, 4.99 0.36 M-0.26 6.4 C1.8 4.03, 3.86 1.65, 4.99 0.36 M0.13 12.04 C2.85 8.92, 5.56 5.8, 10.63 -0.03 M0.13 12.04 C2.92 8.84, 5.7 5.64, 10.63 -0.03 M-0.13 18.44 C4.95 12.59, 10.03 6.75, 15.62 0.33 M-0.13 18.44 C4.47 13.15, 9.07 7.85, 15.62 0.33 M2.23 21.82 C8.24 14.91, 14.25 8, 21.26 -0.07 M2.23 21.82 C8.76 14.31, 15.3 6.79, 21.26 -0.07 M7.22 22.18 C14.42 13.9, 21.62 5.62, 26.25 0.29 M7.22 22.18 C12.5 16.11, 17.77 10.04, 26.25 0.29 M12.86 21.78 C18.42 15.39, 23.99 8.99, 31.89 -0.1 M12.86 21.78 C20.11 13.45, 27.36 5.11, 31.89 -0.1 M17.85 22.14 C22.47 16.83, 27.09 11.52, 36.88 0.26 M17.85 22.14 C21.78 17.62, 25.71 13.1, 36.88 0.26 M23.49 21.75 C30.74 13.41, 37.99 5.07, 42.52 -0.14 M23.49 21.75 C27.47 17.17, 31.45 12.6, 42.52 -0.14 M28.48 22.11 C35.84 13.65, 43.2 5.18, 47.51 0.22 M28.48 22.11 C35.77 13.72, 43.06 5.34, 47.51 0.22 M34.12 21.71 C38.51 16.66, 42.9 11.61, 53.15 -0.17 M34.12 21.71 C39.87 15.11, 45.61 8.5, 53.15 -0.17 M39.11 22.07 C45.53 14.69, 51.95 7.31, 58.14 0.19 M39.11 22.07 C45.83 14.35, 52.55 6.62, 58.14 0.19 M44.75 21.68 C51.35 14.09, 57.95 6.5, 63.78 -0.21 M44.75 21.68 C51.94 13.41, 59.12 5.15, 63.78 -0.21 M49.74 22.04 C55.03 15.96, 60.31 9.88, 68.77 0.15 M49.74 22.04 C55.57 15.33, 61.41 8.62, 68.77 0.15 M55.38 21.65 C60.91 15.29, 66.43 8.93, 74.41 -0.24 M55.38 21.65 C62.97 12.92, 70.55 4.2, 74.41 -0.24 M60.37 22.01 C65.09 16.58, 69.8 11.16, 79.4 0.12 M60.37 22.01 C65.65 15.93, 70.93 9.85, 79.4 0.12 M66.02 21.61 C71.33 15.5, 76.65 9.38, 85.04 -0.28 M66.02 21.61 C73.06 13.51, 80.11 5.4, 85.04 -0.28 M71 21.97 C77.53 14.46, 84.06 6.95, 90.03 0.08 M71 21.97 C77.54 14.45, 84.08 6.93, 90.03 0.08 M76.65 21.58 C84.02 13.09, 91.4 4.61, 95.67 -0.31 M76.65 21.58 C83.16 14.08, 89.67 6.59, 95.67 -0.31 M81.63 21.94 C87.64 15.03, 93.64 8.12, 100.66 0.05 M81.63 21.94 C85.94 16.98, 90.24 12.03, 100.66 0.05 M87.28 21.54 C93.85 13.98, 100.42 6.42, 106.3 -0.34 M87.28 21.54 C91.23 16.99, 95.19 12.43, 106.3 -0.34 M92.26 21.9 C99.37 13.72, 106.49 5.54, 111.29 0.02 M92.26 21.9 C97.79 15.54, 103.32 9.18, 111.29 0.02 M97.25 22.26 C103.7 14.84, 110.15 7.43, 116.27 0.38 M97.25 22.26 C103.04 15.6, 108.83 8.94, 116.27 0.38 M102.89 21.87 C109.91 13.79, 116.93 5.71, 121.26 0.74 M102.89 21.87 C109.24 14.57, 115.58 7.27, 121.26 0.74 M107.88 22.23 C110.65 19.04, 113.42 15.86, 121 7.13 M107.88 22.23 C110.66 19.03, 113.45 15.82, 121 7.13 M113.52 21.83 C115.58 19.46, 117.64 17.1, 121.4 12.78 M113.52 21.83 C115.44 19.63, 117.35 17.42, 121.4 12.78 M-0.09 19.92 C-0.09 19.92, -0.09 19.92, -0.09 19.92 M-0.09 19.92 C-0.09 19.92, -0.09 19.92, -0.09 19.92 M6.31 20.18 C3.96 18.14, 1.61 16.1, 0.27 14.93 M6.31 20.18 C4.61 18.71, 2.91 17.23, 0.27 14.93 M11.95 19.79 C9.02 17.24, 6.08 14.69, -0.13 9.29 M11.95 19.79 C9.49 17.65, 7.04 15.52, -0.13 9.29 M18.35 20.05 C11.15 13.79, 3.94 7.53, 0.23 4.3 M18.35 20.05 C11.14 13.78, 3.93 7.51, 0.23 4.3 M24.74 20.31 C15.83 12.56, 6.91 4.81, 0.59 -0.68 M24.74 20.31 C18.29 14.7, 11.83 9.09, 0.59 -0.68 M30.39 19.92 C21.56 12.25, 12.74 4.57, 6.99 -0.42 M30.39 19.92 C21.53 12.21, 12.66 4.51, 6.99 -0.42 M36.79 20.18 C29.37 13.73, 21.95 7.28, 12.64 -0.82 M36.79 20.18 C29.47 13.81, 22.15 7.45, 12.64 -0.82 M42.43 19.78 C36.03 14.22, 29.64 8.66, 19.03 -0.56 M42.43 19.78 C36.56 14.68, 30.69 9.58, 19.03 -0.56 M48.83 20.04 C39.63 12.05, 30.43 4.05, 24.68 -0.95 M48.83 20.04 C41.33 13.53, 33.84 7.01, 24.68 -0.95 M55.22 20.31 C48.26 14.25, 41.3 8.2, 31.07 -0.69 M55.22 20.31 C48.33 14.31, 41.44 8.32, 31.07 -0.69 M60.87 19.91 C52.2 12.38, 43.53 4.84, 37.47 -0.43 M60.87 19.91 C53.09 13.15, 45.32 6.4, 37.47 -0.43 M67.27 20.17 C60.49 14.29, 53.72 8.4, 43.11 -0.82 M67.27 20.17 C57.66 11.82, 48.06 3.48, 43.11 -0.82 M72.91 19.78 C65.6 13.43, 58.3 7.08, 49.51 -0.56 M72.91 19.78 C66.92 14.57, 60.93 9.37, 49.51 -0.56 M79.31 20.04 C70.52 12.4, 61.73 4.76, 55.16 -0.95 M79.31 20.04 C70.94 12.76, 62.57 5.49, 55.16 -0.95 M85.7 20.3 C78.48 14.02, 71.26 7.74, 61.55 -0.69 M85.7 20.3 C80.58 15.85, 75.46 11.4, 61.55 -0.69 M91.35 19.91 C84.1 13.6, 76.85 7.3, 67.95 -0.43 M91.35 19.91 C83.52 13.1, 75.68 6.29, 67.95 -0.43 M97.74 20.17 C90.99 14.3, 84.23 8.42, 73.59 -0.83 M97.74 20.17 C88.69 12.29, 79.63 4.42, 73.59 -0.83 M103.39 19.77 C95.31 12.75, 87.23 5.73, 79.99 -0.56 M103.39 19.77 C98.51 15.53, 93.63 11.29, 79.99 -0.56 M109.79 20.03 C103.52 14.59, 97.26 9.14, 85.63 -0.96 M109.79 20.03 C101.01 12.4, 92.23 4.77, 85.63 -0.96 M116.18 20.3 C107.65 12.88, 99.11 5.46, 92.03 -0.7 M116.18 20.3 C109.95 14.88, 103.71 9.46, 92.03 -0.7 M121.07 19.25 C114.29 13.35, 107.51 7.45, 98.43 -0.44 M121.07 19.25 C115.66 14.54, 110.25 9.84, 98.43 -0.44 M120.68 13.6 C116.13 9.65, 111.59 5.7, 104.07 -0.83 M120.68 13.6 C117.07 10.46, 113.46 7.33, 104.07 -0.83 M121.04 8.62 C117.68 5.7, 114.32 2.78, 110.47 -0.57 M121.04 8.62 C117.79 5.79, 114.54 2.96, 110.47 -0.57 M120.64 2.97 C119.27 1.78, 117.91 0.59, 116.11 -0.96 M120.64 2.97 C119.45 1.93, 118.25 0.89, 116.11 -0.96" stroke="#fd7e14" stroke-width="0.5" fill="none"></path><path d="M0 0 C38.52 0, 77.04 0, 120 0 M0 0 C40.34 0, 80.68 0, 120 0 M120 0 C120 6.88, 120 13.76, 120 20 M120 0 C120 4.67, 120 9.35, 120 20 M120 20 C94.41 20, 68.81 20, 0 20 M120 20 C86.06 20, 52.11 20, 0 20 M0 20 C0 15.29, 0 10.57, 0 0 M0 20 C0 12.72, 0 5.45, 0 0" stroke="#000000" stroke-width="1" fill="none"></path></g><g stroke-linecap="round"><g transform="translate(10.961025898490334 149.93406688765492) rotate(0 169.76050077772697 -0.3660468570586204)"><path d="M-0.96 -0.79 C133.18 -1.5, 265.15 0.47, 340.48 0.17 M-0.43 -0.38 C83.4 0.18, 167.77 0.06, 340.29 0" stroke="#000000" stroke-width="1" fill="none"></path></g></g><g stroke-linecap="round" transform="translate(31.404849017104425 29.441469151424258) rotate(0 150.1435091444887 50.00000000000006)"><path d="M0 0 C0 0, 0 0, 0 0 M0 0 C0 0, 0 0, 0 0 M-0.26 6.4 C0.86 5.1, 1.99 3.81, 4.99 0.36 M-0.26 6.4 C0.82 5.16, 1.89 3.92, 4.99 0.36 M0.13 12.04 C4.08 7.5, 8.02 2.97, 10.63 -0.03 M0.13 12.04 C2.63 9.17, 5.13 6.29, 10.63 -0.03 M-0.13 18.44 C5.07 12.45, 10.28 6.47, 15.62 0.33 M-0.13 18.44 C5.53 11.93, 11.18 5.42, 15.62 0.33 M0.27 24.08 C5.29 18.3, 10.32 12.52, 21.26 -0.07 M0.27 24.08 C5.35 18.23, 10.44 12.38, 21.26 -0.07 M0 30.48 C5.36 24.32, 10.71 18.17, 26.25 0.29 M0 30.48 C6.61 22.88, 13.21 15.28, 26.25 0.29 M-0.26 36.88 C9.48 25.67, 19.22 14.47, 31.89 -0.1 M-0.26 36.88 C6.35 29.28, 12.95 21.68, 31.89 -0.1 M0.14 42.52 C8.62 32.76, 17.11 23, 36.88 0.26 M0.14 42.52 C12.54 28.25, 24.95 13.98, 36.88 0.26 M-0.12 48.92 C14.15 32.49, 28.43 16.07, 42.52 -0.14 M-0.12 48.92 C11 36.12, 22.13 23.32, 42.52 -0.14 M0.27 54.56 C12.17 40.88, 24.06 27.2, 47.51 0.22 M0.27 54.56 C15.8 36.7, 31.32 18.84, 47.51 0.22 M0.01 60.96 C18.44 39.75, 36.88 18.55, 53.15 -0.17 M0.01 60.96 C21.17 36.62, 42.33 12.28, 53.15 -0.17 M-0.25 67.36 C20.2 43.83, 40.65 20.3, 58.14 0.19 M-0.25 67.36 C22.66 41, 45.57 14.64, 58.14 0.19 M0.14 73 C25.27 44.09, 50.41 15.18, 63.78 -0.21 M0.14 73 C16.88 53.74, 33.62 34.49, 63.78 -0.21 M-0.12 79.4 C17.38 59.27, 34.88 39.14, 68.77 0.15 M-0.12 79.4 C24.18 51.45, 48.47 23.5, 68.77 0.15 M0.28 85.04 C28.33 52.77, 56.39 20.49, 74.41 -0.24 M0.28 85.04 C26.78 54.55, 53.29 24.05, 74.41 -0.24 M0.01 91.44 C26.56 60.9, 53.11 30.36, 79.4 0.12 M0.01 91.44 C23.02 64.97, 46.02 38.51, 79.4 0.12 M-0.25 97.84 C20.28 74.22, 40.82 50.6, 85.04 -0.28 M-0.25 97.84 C20.23 74.28, 40.7 50.73, 85.04 -0.28 M2.12 101.22 C20.28 80.32, 38.44 59.43, 90.03 0.08 M2.12 101.22 C32.01 66.82, 61.91 32.43, 90.03 0.08 M7.1 101.58 C39.77 64, 72.43 26.43, 95.67 -0.31 M7.1 101.58 C35.9 68.45, 64.69 35.33, 95.67 -0.31 M12.09 101.94 C41.27 68.37, 70.45 34.8, 100.66 0.05 M12.09 101.94 C38.33 71.75, 64.57 41.56, 100.66 0.05 M17.73 101.54 C52.57 61.46, 87.42 21.38, 106.3 -0.34 M17.73 101.54 C42.83 72.66, 67.94 43.79, 106.3 -0.34 M22.72 101.9 C40.93 80.95, 59.15 60, 111.29 0.02 M22.72 101.9 C41.08 80.78, 59.44 59.66, 111.29 0.02 M28.36 101.51 C62.56 62.16, 96.76 22.82, 116.27 0.38 M28.36 101.51 C49.65 77.02, 70.93 52.53, 116.27 0.38 M33.35 101.87 C67.14 62.99, 100.94 24.12, 121.92 -0.02 M33.35 101.87 C66.85 63.33, 100.35 24.79, 121.92 -0.02 M38.99 101.47 C63.08 73.77, 87.16 46.06, 126.91 0.34 M38.99 101.47 C72.79 62.59, 106.6 23.7, 126.91 0.34 M43.98 101.83 C65.88 76.64, 87.78 51.44, 132.55 -0.05 M43.98 101.83 C76.81 64.07, 109.64 26.3, 132.55 -0.05 M49.62 101.44 C68.1 80.18, 86.59 58.92, 137.54 0.31 M49.62 101.44 C80.4 66.03, 111.18 30.63, 137.54 0.31 M54.61 101.8 C75.58 77.68, 96.55 53.55, 143.18 -0.09 M54.61 101.8 C72.51 81.2, 90.42 60.61, 143.18 -0.09 M60.25 101.4 C78.15 80.82, 96.04 60.23, 148.17 0.27 M60.25 101.4 C80.89 77.67, 101.52 53.93, 148.17 0.27 M65.24 101.76 C85.4 78.58, 105.55 55.39, 153.81 -0.12 M65.24 101.76 C95.94 66.45, 126.64 31.13, 153.81 -0.12 M70.88 101.37 C97.56 70.68, 124.24 39.98, 158.8 0.24 M70.88 101.37 C105.2 61.89, 139.52 22.41, 158.8 0.24 M75.87 101.73 C106.09 66.97, 136.3 32.21, 164.44 -0.16 M75.87 101.73 C105.48 67.67, 135.09 33.6, 164.44 -0.16 M81.51 101.33 C99.38 80.78, 117.25 60.22, 169.43 0.2 M81.51 101.33 C101.33 78.54, 121.15 55.74, 169.43 0.2 M86.5 101.69 C116.85 66.78, 147.19 31.87, 175.07 -0.19 M86.5 101.69 C117.64 65.87, 148.79 30.04, 175.07 -0.19 M92.14 101.3 C113.23 77.04, 134.32 52.78, 180.06 0.17 M92.14 101.3 C110.11 80.63, 128.08 59.96, 180.06 0.17 M97.13 101.66 C118.47 77.12, 139.8 52.57, 185.7 -0.23 M97.13 101.66 C118.49 77.08, 139.86 52.51, 185.7 -0.23 M102.77 101.26 C137.43 61.4, 172.08 21.54, 190.69 0.13 M102.77 101.26 C124.58 76.17, 146.39 51.09, 190.69 0.13 M107.76 101.62 C133.32 72.23, 158.87 42.83, 196.33 -0.26 M107.76 101.62 C134.51 70.85, 161.26 40.08, 196.33 -0.26 M113.4 101.23 C138.95 71.84, 164.49 42.46, 201.32 0.1 M113.4 101.23 C142.73 67.5, 172.05 33.76, 201.32 0.1 M118.39 101.59 C152.23 62.67, 186.06 23.75, 206.96 -0.3 M118.39 101.59 C144.01 72.12, 169.62 42.65, 206.96 -0.3 M124.03 101.2 C158.97 61.01, 193.9 20.82, 211.95 0.06 M124.03 101.2 C149.89 71.45, 175.75 41.71, 211.95 0.06 M129.02 101.56 C152.17 74.92, 175.33 48.29, 217.59 -0.33 M129.02 101.56 C148 79.73, 166.97 57.9, 217.59 -0.33 M134.01 101.92 C154.08 78.83, 174.15 55.74, 222.58 0.03 M134.01 101.92 C153.43 79.57, 172.85 57.23, 222.58 0.03 M139.65 101.52 C167.16 69.87, 194.68 38.22, 228.22 -0.36 M139.65 101.52 C170.19 66.39, 200.72 31.27, 228.22 -0.36 M144.64 101.88 C174.22 67.85, 203.8 33.83, 233.21 0 M144.64 101.88 C167.21 75.91, 189.79 49.94, 233.21 0 M150.28 101.49 C181.69 65.35, 213.11 29.22, 238.19 0.36 M150.28 101.49 C168.28 80.78, 186.28 60.08, 238.19 0.36 M155.27 101.85 C183.53 69.34, 211.78 36.83, 243.84 -0.04 M155.27 101.85 C173.24 81.17, 191.22 60.49, 243.84 -0.04 M160.91 101.45 C184.9 73.86, 208.88 46.27, 248.82 0.32 M160.91 101.45 C193.81 63.6, 226.71 25.75, 248.82 0.32 M165.9 101.81 C185.83 78.88, 205.77 55.95, 254.47 -0.07 M165.9 101.81 C194.4 69.03, 222.9 36.24, 254.47 -0.07 M171.54 101.42 C204.28 63.76, 237.01 26.11, 259.45 0.29 M171.54 101.42 C197.02 72.11, 222.5 42.8, 259.45 0.29 M176.53 101.78 C206.56 67.23, 236.58 32.69, 265.1 -0.11 M176.53 101.78 C205.4 68.56, 234.27 35.35, 265.1 -0.11 M182.17 101.38 C201.05 79.67, 219.93 57.95, 270.08 0.25 M182.17 101.38 C203.63 76.7, 225.08 52.02, 270.08 0.25 M187.16 101.74 C221.85 61.83, 256.55 21.92, 275.73 -0.14 M187.16 101.74 C221.37 62.39, 255.59 23.03, 275.73 -0.14 M192.8 101.35 C210.61 80.86, 228.43 60.37, 280.71 0.22 M192.8 101.35 C226.73 62.32, 260.66 23.29, 280.71 0.22 M197.79 101.71 C229.47 65.27, 261.14 28.83, 286.36 -0.18 M197.79 101.71 C227 68.11, 256.21 34.51, 286.36 -0.18 M203.43 101.31 C237.05 62.64, 270.67 23.97, 291.34 0.18 M203.43 101.31 C231.62 68.89, 259.81 36.46, 291.34 0.18 M208.42 101.67 C231.01 75.69, 253.6 49.7, 296.99 -0.21 M208.42 101.67 C229.65 77.25, 250.89 52.82, 296.99 -0.21 M214.06 101.28 C235.37 76.77, 256.68 52.26, 301.32 0.9 M214.06 101.28 C241.07 70.21, 268.08 39.14, 301.32 0.9 M219.05 101.64 C247.42 69, 275.8 36.36, 301.06 7.3 M219.05 101.64 C240.02 77.51, 261 53.38, 301.06 7.3 M224.69 101.25 C249.4 72.82, 274.11 44.39, 301.45 12.94 M224.69 101.25 C245.44 77.37, 266.19 53.5, 301.45 12.94 M229.68 101.61 C253.72 73.95, 277.76 46.29, 301.19 19.34 M229.68 101.61 C256.4 70.87, 283.11 40.14, 301.19 19.34 M235.32 101.21 C261.38 71.24, 287.43 41.27, 301.58 24.99 M235.32 101.21 C260.3 72.48, 285.28 43.74, 301.58 24.99 M240.31 101.57 C263.2 75.24, 286.09 48.91, 301.32 31.38 M240.31 101.57 C255.28 84.35, 270.24 67.13, 301.32 31.38 M245.3 101.93 C260.88 84.01, 276.46 66.08, 301.06 37.78 M245.3 101.93 C259.77 85.28, 274.25 68.62, 301.06 37.78 M250.94 101.54 C263.88 86.65, 276.82 71.77, 301.46 43.42 M250.94 101.54 C270.1 79.5, 289.25 57.46, 301.46 43.42 M255.93 101.9 C267.05 89.1, 278.17 76.31, 301.19 49.82 M255.93 101.9 C265.19 91.24, 274.46 80.58, 301.19 49.82 M261.57 101.5 C270.22 91.55, 278.87 81.6, 301.59 55.46 M261.57 101.5 C275.17 85.86, 288.77 70.21, 301.59 55.46 M266.56 101.86 C273.54 93.82, 280.53 85.78, 301.33 61.86 M266.56 101.86 C278.89 87.67, 291.23 73.48, 301.33 61.86 M272.2 101.47 C281.9 90.31, 291.6 79.15, 301.07 68.26 M272.2 101.47 C282.25 89.91, 292.29 78.35, 301.07 68.26 M277.19 101.83 C284.42 93.51, 291.65 85.19, 301.46 73.9 M277.19 101.83 C284.69 93.2, 292.19 84.57, 301.46 73.9 M282.83 101.43 C289.08 94.24, 295.33 87.05, 301.2 80.3 M282.83 101.43 C287.99 95.5, 293.15 89.57, 301.2 80.3 M287.82 101.79 C292.4 96.52, 296.98 91.25, 301.59 85.94 M287.82 101.79 C292.26 96.68, 296.7 91.57, 301.59 85.94 M293.46 101.4 C296.59 97.8, 299.71 94.21, 301.33 92.34 M293.46 101.4 C295.6 98.94, 297.73 96.48, 301.33 92.34 M298.45 101.76 C299.35 100.72, 300.26 99.67, 301.07 98.74 M298.45 101.76 C299.25 100.83, 300.05 99.91, 301.07 98.74" stroke="#228be6" stroke-width="0.5" fill="none"></path><path d="M0 0 C107.52 0, 215.03 0, 300.29 0 M0 0 C87.06 0, 174.12 0, 300.29 0 M300.29 0 C300.29 28.66, 300.29 57.31, 300.29 100 M300.29 0 C300.29 37.29, 300.29 74.59, 300.29 100 M300.29 100 C181.99 100, 63.7 100, 0 100 M300.29 100 C223.85 100, 147.41 100, 0 100 M0 100 C0 69.75, 0 39.5, 0 0 M0 100 C0 60.93, 0 21.86, 0 0" stroke="#000000" stroke-width="1" fill="none"></path></g><g stroke-linecap="round"><g transform="translate(351.4048490171044 9.441469151424258) rotate(0 0.8470692297303231 71.26922170338685)"><path d="M-0.71 1.05 C-0.72 24.86, -0.26 118.59, 0.18 141.98 M1.12 0.56 C1.46 24.12, 2.32 117.27, 2.4 140.39" stroke="#000000" stroke-width="1" fill="none"></path></g></g><g stroke-linecap="round"><g transform="translate(11.839746730467596 69.41482065607795) rotate(0 -0.43951241485774517 40.57601077668369)"><path d="M-1.56 1.68 C0.92 18.96, -0.21 35.38, -0.2 80.24 M0.68 0.91 C0.05 19.34, -0.45 38.11, -0.13 79.89" stroke="#000000" stroke-width="1" fill="none"></path></g></g><g stroke-linecap="round" transform="translate(30.770963065522665 489.44146915142403) rotate(0 150.1435091444887 30)"><path d="M0 0 C0 0, 0 0, 0 0 M0 0 C0 0, 0 0, 0 0 M-1.28 13.3 C5.23 7.64, 8.42 2.05, 11.08 -1.58 M-0.23 12.48 C3.76 7.87, 7.12 4.77, 10.17 -0.63 M1.6 22.39 C5.65 17.15, 13.23 7.63, 20.14 0.78 M0.15 23.31 C6.08 17.78, 11.12 11.9, 21.83 0.45 M0.67 35.2 C9.27 27.69, 16.82 18.75, 31.9 -1.31 M0.57 36.34 C9.61 25.46, 18.34 14.84, 31.84 -1.06 M-2.1 48.43 C15.63 31.21, 31.89 10.78, 41.62 -1.32 M0.24 48.4 C12.96 34.01, 25.86 18.37, 43.22 -0.73 M1.11 59.34 C16.2 43, 31.58 26.29, 52.48 1.71 M0.46 60.42 C17.79 39.36, 36.63 20.92, 53.73 -0.69 M9.37 58.63 C24.21 43.18, 40.73 26.43, 63.03 -0.44 M11.31 61.04 C23.32 46.24, 37.35 31.12, 64.18 -0.19 M20.06 59.71 C40.18 37.72, 58.9 16.33, 74.34 -0.43 M21.93 60.69 C36.81 43.11, 51.95 25.89, 74.75 0.09 M32.95 58.22 C47.24 42.45, 62.63 26.35, 85.34 1.36 M31.67 60.03 C49.75 40.11, 68.59 17.69, 85.43 -0.38 M43.65 60.12 C60.42 39.1, 79.81 17.42, 96.02 1.64 M42.65 60.85 C54.3 47.88, 64.12 35.86, 96.36 -0.37 M54.18 59.17 C73.97 37.57, 94.77 13.1, 106.67 -1.12 M53.52 60.52 C73.31 37.74, 92.37 16.57, 106.18 -1.2 M62.85 62.65 C86.09 36.22, 105.2 14.86, 116.52 -1.09 M64.4 60.51 C73.6 49.82, 85.8 37.23, 115.8 -0.43 M75.55 60.68 C94.43 41.03, 111.65 20.13, 125.59 0.55 M75.34 60.64 C90.86 43.01, 104.77 25.06, 127.38 0.79 M83.68 59.95 C100.85 42.9, 113.74 28.22, 137.96 0.99 M85.35 61.6 C97.86 45.68, 111.93 29.66, 136.74 -0.14 M94.69 61.15 C110.27 43.9, 128.21 22.92, 147.75 1.42 M96.06 61.37 C118 36.26, 137.49 11.8, 148.39 -0.68 M107.35 59.82 C118.45 46.31, 129.48 35.62, 157.6 0.62 M106.15 60.85 C126.59 36.38, 146.76 13.59, 159.27 -0.73 M115.01 59.05 C128.96 48.58, 140.01 34.88, 169.99 -0.34 M117.7 61.46 C136.02 38.32, 154.42 15.84, 169.07 0.95 M128.84 62.21 C141.89 43.82, 157.54 26.8, 178.46 -1.33 M128.55 60.81 C143.66 41.21, 158.86 24.6, 180.63 0.39 M137.06 61.75 C159.41 36.16, 177.08 17.1, 190.9 1.58 M138.73 60.26 C157.4 38.36, 176.85 16.76, 190.34 0.03 M148.24 59.92 C166.75 35.92, 187.39 16.06, 200.73 0.88 M148.74 60.61 C167.19 41.07, 183.5 22.23, 200.47 0.36 M158.5 61.5 C171.65 47.1, 182.89 35.7, 210.22 -1.64 M160.04 59.66 C171.14 45.71, 182.52 33.07, 211.57 -0.49 M170.79 58.61 C182.39 46.22, 194.13 30.27, 221.69 1.87 M169.34 59.91 C183.32 43.84, 197.41 27.86, 222.86 0.89 M182.13 59.4 C196.83 42.4, 212.8 26.35, 232.79 -1.95 M180.99 60.12 C191.99 47.4, 204.86 33.4, 232.57 0.86 M190.84 60.84 C204.78 43.07, 221.18 26.15, 243.75 1.11 M191.39 60.96 C209.91 39.38, 231.01 17.26, 244.34 0.26 M203.85 61.45 C222.83 38.46, 239.24 13.72, 252.61 1.57 M201.34 60.66 C216.38 42.42, 232.99 25.1, 253.59 0.13 M211.87 62.05 C233.45 38.09, 250.37 17.28, 266.47 -1.01 M212.4 60.57 C231.28 39.38, 250.61 16.92, 265.88 -0.71 M224.71 58.51 C234.21 47.76, 249.55 31.96, 276.76 -1.26 M223.31 60.85 C234.61 47.84, 244.31 34.32, 275.31 -0.05 M234.49 58.53 C252.21 40.9, 270.14 20.63, 286.49 0.74 M234.3 60.08 C253.84 36.58, 274.59 12.77, 286.87 -0.62 M242.88 58.33 C265.71 36.35, 283.1 13.93, 297.48 0.23 M243.54 60.85 C257.1 46.41, 268.28 31.31, 296.84 -0.51 M256.41 59.46 C271 40.34, 286.68 22.88, 302.35 4.25 M255.46 59.43 C268.41 42.58, 282.73 27.5, 303.87 4.26 M265.65 61.51 C275.31 48.09, 288.58 36.28, 306.35 17.43 M265.14 59.37 C277.09 47.93, 285.59 38.21, 303.97 16.34 M276.5 58.89 C286.12 47.92, 296.52 39.3, 306.5 29.11 M276.69 59.12 C285.3 49.07, 295.62 37.66, 304.72 27.06 M284.77 62.31 C290.3 55.77, 297.79 51.3, 303.75 39.99 M286.96 60.43 C289.84 54.85, 295.53 50, 304.6 40 M297.59 60.62 C300.16 56.67, 302.84 55.19, 304.13 51.96 M296.76 60.85 C298.69 58.53, 301.44 56.26, 304.76 52.88 M-0.27 59.76 C-0.27 59.76, -0.27 59.76, -0.27 59.76 M-0.27 59.76 C-0.27 59.76, -0.27 59.76, -0.27 59.76 M13.62 61.93 C10.35 55.76, 6.83 55.32, 0.57 47.71 M12.39 60.56 C7.66 56.19, 4.51 52.59, -0.91 49.47 M26.34 58.81 C15.29 52.91, 7.8 43.22, -0.36 36.52 M24.55 59.79 C18.02 54.51, 13.73 50.34, 0.49 39.05 M35.59 58.04 C24.56 47.63, 10.89 40.21, 0.12 29.25 M35.83 59.64 C25.5 51.33, 17.07 42.84, 0.99 29.01 M49.73 58.92 C30.56 45.24, 10.53 28.89, 1.43 17.85 M48.03 60.49 C38.88 49.64, 27.31 40.05, 0.65 17.99 M62.2 61.32 C40.62 40.96, 19.28 27.17, -0.31 8.07 M60.98 60.59 C44.5 45.6, 28.03 32, 1.3 7.08 M71.8 59.26 C50.84 41.75, 29.63 21.84, 1.55 -1.4 M73.64 60.35 C46.71 38.39, 20.86 14.71, 1.29 -1.83 M86.86 59.14 C67.03 43.48, 48.78 29.07, 14.31 -0.24 M85.54 59.4 C68.17 44.33, 48.44 28.38, 14.7 -2.47 M97.08 60.38 C77.21 40.43, 56.38 24.23, 25.97 -1.4 M97.58 60.12 C75.24 38.83, 50.91 19.4, 26.49 -2.25 M109.68 61.51 C88.12 42.81, 65.4 23.02, 39.41 -1.43 M109.45 60.64 C92.43 45.16, 73.58 29.41, 37.84 -1.7 M121.5 61.67 C93.18 35, 70.04 12.33, 50.05 -3.52 M120.74 59.12 C96.54 35.88, 69.55 14.63, 50.96 -2.64 M134.9 61.91 C118.23 49.6, 104.76 36.19, 61.68 -0.86 M134.08 60.04 C110.74 39.01, 85.17 17.61, 61.97 -2.65 M146.09 59.4 C117.78 37.72, 92.28 13.35, 74.62 -2.49 M146.48 59.2 C129.05 44.65, 110.3 28.6, 74.27 -2.06 M156.85 60.07 C142.91 46.73, 124.8 32.35, 85.79 -3.89 M158.24 59.27 C141.25 44.39, 122.44 30.16, 87.64 -1.65 M170.78 60.76 C155.29 48.4, 140.73 32.95, 100.68 -1.59 M170.31 60.82 C142.74 36.08, 115.14 12.1, 99.41 -2.4 M181.28 58.59 C154.44 36.48, 127.02 12.32, 113.56 -3.01 M183.42 60.55 C156.26 36.56, 131.22 13.66, 111.8 -2.46 M195.6 60.42 C181.7 46.58, 163.12 31.3, 123.31 -1.82 M195.2 59.63 C178.16 44.07, 158.01 27.77, 122.81 -1.61 M207.03 60.93 C188.94 42.54, 169.41 27.72, 137.62 -3.78 M207.56 60.65 C184.64 40.18, 160.34 19.64, 135.6 -2.24 M218.71 59.31 C192.02 36.52, 169.04 16.61, 149.01 -1.34 M219.55 59.21 C192.56 39.13, 167.85 16.74, 147.6 -3.1 M231.83 61.44 C210.84 40.7, 187.73 23.4, 158.79 -0.27 M230.77 58.92 C215.51 45.18, 199.96 32.1, 159.65 -0.98 M241.67 61.21 C222.68 42.03, 206.55 26.42, 173.37 -1.46 M244.45 59.68 C224.8 41.49, 205.93 25.89, 173.34 -1.73 M257.55 61.99 C238.66 45.28, 223.97 32.06, 183.97 -0.31 M256.62 59.93 C238.89 46.01, 223.35 30.47, 183.94 -2.71 M267.13 58.75 C254.8 44.59, 237.63 35.28, 194.87 -0.56 M267.43 59.71 C250.11 44.73, 232.27 30.05, 195.75 -1.77 M280.14 58.7 C255.26 38.52, 228 15.64, 207.45 -0.88 M280.09 60.16 C254 38.14, 228.6 15.3, 209.21 -2.95 M292.64 59.49 C272.66 41.54, 252.05 24.61, 220.13 -1.51 M292.2 60.57 C268.11 37.39, 243.13 15.31, 222.04 -2.27 M300.71 56.56 C282.12 41.46, 266.4 25.97, 232.65 -2.08 M302.61 58.66 C284.28 42.94, 266.72 26.53, 232.61 -2.65 M300.77 45.36 C286.72 34.28, 270.01 20.42, 245.85 -0.96 M302.81 47.6 C283.04 30.31, 263.29 12.3, 244.82 -2.39 M303.36 37.69 C293.57 28.46, 283.37 18.58, 257.86 -1.1 M301.92 37.31 C290.86 26.51, 279.56 15.6, 257.47 -2.16 M301.34 26.91 C289.88 16.16, 277.51 4.28, 268.15 -0.69 M301.9 26.45 C294.04 18.73, 287.96 13.33, 269.39 -2.72 M302.83 17.17 C298.95 10.28, 291.89 6.39, 281.51 -3.65 M301.73 14.61 C294.88 9.27, 288.13 2.86, 282.57 -2.64 M302.33 4.38 C300.76 3.17, 298.23 1.38, 295.4 -1.79 M301.94 4.25 C299.75 3.16, 298.12 1.48, 295.02 -1.63" stroke="#be4bdb" stroke-width="1" fill="none"></path><path d="M-0.66 0.24 C101.52 0.96, 206.42 0.95, 300.94 -0.93 M-0.56 0.43 C94.56 1.79, 189.79 2.43, 300.74 -0.72 M299.8 -1.56 C300.49 15.32, 298.85 32.64, 301.48 58.07 M300.33 0.1 C299.82 22.44, 299.5 44.59, 301.03 59.35 M300.27 61.11 C207.88 58.45, 115.62 59.53, -0.04 58.94 M299.92 60.66 C235.19 60.63, 172.08 61.11, 0.13 60.34 M0.13 58.21 C-2.24 42.29, 1.06 19.64, 0.67 0.07 M0.85 60.3 C0.23 40.08, -0.84 20.56, 0.4 0.9" stroke="#000000" stroke-width="2" fill="none"></path></g><g stroke-linecap="round" transform="translate(30 278.0000000000001) rotate(0 130 9.91306365966409)"><path d="M0 0 C0 0, 0 0, 0 0 M0 0 C0 0, 0 0, 0 0 M-0.26 6.4 C1.61 4.25, 3.48 2.09, 4.99 0.36 M-0.26 6.4 C1.8 4.03, 3.85 1.66, 4.99 0.36 M0.13 12.04 C2.56 9.25, 4.99 6.45, 10.63 -0.03 M0.13 12.04 C3.59 8.06, 7.05 4.08, 10.63 -0.03 M-0.13 18.44 C3.81 13.9, 7.76 9.37, 15.62 0.33 M-0.13 18.44 C5.19 12.32, 10.51 6.21, 15.62 0.33 M2.23 21.82 C8.93 14.11, 15.63 6.41, 21.26 -0.07 M2.23 21.82 C7.64 15.6, 13.04 9.39, 21.26 -0.07 M7.88 21.42 C11.62 17.12, 15.36 12.82, 26.25 0.29 M7.88 21.42 C14.78 13.48, 21.68 5.54, 26.25 0.29 M12.86 21.78 C19.78 13.83, 26.69 5.88, 31.89 -0.1 M12.86 21.78 C20.44 13.06, 28.02 4.34, 31.89 -0.1 M17.85 22.14 C22.47 16.82, 27.1 11.51, 36.88 0.26 M17.85 22.14 C24.56 14.43, 31.27 6.71, 36.88 0.26 M23.49 21.75 C28.64 15.83, 33.79 9.91, 42.52 -0.14 M23.49 21.75 C29.04 15.37, 34.58 9, 42.52 -0.14 M28.48 22.11 C33.28 16.59, 38.07 11.08, 47.51 0.22 M28.48 22.11 C35.3 14.27, 42.11 6.43, 47.51 0.22 M34.12 21.71 C40.5 14.38, 46.87 7.05, 53.15 -0.17 M34.12 21.71 C38.4 16.8, 42.67 11.89, 53.15 -0.17 M39.11 22.07 C46.16 13.97, 53.2 5.87, 58.14 0.19 M39.11 22.07 C45.33 14.92, 51.54 7.77, 58.14 0.19 M44.75 21.68 C49.98 15.67, 55.2 9.66, 63.78 -0.21 M44.75 21.68 C50.54 15.03, 56.32 8.38, 63.78 -0.21 M49.74 22.04 C57.23 13.43, 64.71 4.82, 68.77 0.15 M49.74 22.04 C54.23 16.88, 58.71 11.73, 68.77 0.15 M55.38 21.65 C60.39 15.89, 65.4 10.13, 74.41 -0.24 M55.38 21.65 C60.69 15.54, 66 9.43, 74.41 -0.24 M60.37 22.01 C67.48 13.83, 74.59 5.65, 79.4 0.12 M60.37 22.01 C66.2 15.3, 72.03 8.59, 79.4 0.12 M66.02 21.61 C72.31 14.37, 78.6 7.13, 85.04 -0.28 M66.02 21.61 C72.54 14.1, 79.06 6.6, 85.04 -0.28 M71 21.97 C75.17 17.18, 79.34 12.38, 90.03 0.08 M71 21.97 C74.88 17.5, 78.77 13.04, 90.03 0.08 M76.65 21.58 C83.57 13.61, 90.49 5.65, 95.67 -0.31 M76.65 21.58 C82.98 14.29, 89.31 7.01, 95.67 -0.31 M81.63 21.94 C87.23 15.49, 92.83 9.05, 100.66 0.05 M81.63 21.94 C86.15 16.74, 90.67 11.54, 100.66 0.05 M87.28 21.54 C93.09 14.86, 98.9 8.17, 106.3 -0.34 M87.28 21.54 C93.54 14.33, 99.81 7.12, 106.3 -0.34 M92.26 21.9 C96.46 17.08, 100.65 12.25, 111.29 0.02 M92.26 21.9 C99.1 14.03, 105.95 6.16, 111.29 0.02 M97.91 21.51 C104.41 14.03, 110.91 6.55, 116.27 0.38 M97.91 21.51 C102.63 16.07, 107.35 10.64, 116.27 0.38 M102.89 21.87 C108.11 15.87, 113.32 9.87, 121.92 -0.02 M102.89 21.87 C109.86 13.85, 116.84 5.83, 121.92 -0.02 M108.54 21.47 C115.24 13.76, 121.94 6.05, 126.91 0.34 M108.54 21.47 C113.76 15.46, 118.99 9.45, 126.91 0.34 M113.52 21.83 C120.92 13.32, 128.32 4.81, 132.55 -0.05 M113.52 21.83 C119.2 15.3, 124.87 8.77, 132.55 -0.05 M119.17 21.44 C123.75 16.17, 128.33 10.89, 137.54 0.31 M119.17 21.44 C123.26 16.72, 127.36 12.01, 137.54 0.31 M124.15 21.8 C130.89 14.05, 137.63 6.3, 143.18 -0.09 M124.15 21.8 C128.7 16.57, 133.25 11.33, 143.18 -0.09 M129.14 22.16 C136.29 13.94, 143.43 5.72, 148.17 0.27 M129.14 22.16 C135.4 14.96, 141.66 7.75, 148.17 0.27 M134.78 21.76 C138.89 17.04, 142.99 12.32, 153.81 -0.12 M134.78 21.76 C140.8 14.84, 146.82 7.92, 153.81 -0.12 M139.77 22.12 C146.75 14.09, 153.74 6.06, 158.8 0.24 M139.77 22.12 C145.51 15.52, 151.25 8.91, 158.8 0.24 M145.41 21.73 C150.66 15.69, 155.91 9.66, 164.44 -0.16 M145.41 21.73 C151.15 15.13, 156.89 8.53, 164.44 -0.16 M150.4 22.09 C156.19 15.43, 161.97 8.78, 169.43 0.2 M150.4 22.09 C155.81 15.86, 161.22 9.64, 169.43 0.2 M156.04 21.69 C161.61 15.29, 167.18 8.89, 175.07 -0.19 M156.04 21.69 C160.03 17.1, 164.02 12.51, 175.07 -0.19 M161.03 22.05 C167.18 14.98, 173.32 7.91, 180.06 0.17 M161.03 22.05 C166.06 16.27, 171.08 10.49, 180.06 0.17 M166.67 21.66 C172.01 15.52, 177.35 9.38, 185.7 -0.23 M166.67 21.66 C172.38 15.1, 178.08 8.53, 185.7 -0.23 M171.66 22.02 C175.78 17.28, 179.9 12.54, 190.69 0.13 M171.66 22.02 C176.83 16.07, 182 10.13, 190.69 0.13 M177.3 21.63 C183.22 14.82, 189.13 8.02, 196.33 -0.26 M177.3 21.63 C182.53 15.61, 187.75 9.6, 196.33 -0.26 M182.29 21.99 C186.74 16.87, 191.19 11.75, 201.32 0.1 M182.29 21.99 C189.55 13.64, 196.81 5.29, 201.32 0.1 M187.93 21.59 C193.83 14.81, 199.73 8.02, 206.96 -0.3 M187.93 21.59 C193.27 15.46, 198.6 9.32, 206.96 -0.3 M192.92 21.95 C198.24 15.83, 203.56 9.71, 211.95 0.06 M192.92 21.95 C198.85 15.13, 204.79 8.3, 211.95 0.06 M198.56 21.56 C203.54 15.83, 208.52 10.1, 217.59 -0.33 M198.56 21.56 C204.41 14.84, 210.25 8.11, 217.59 -0.33 M203.55 21.92 C209.56 15.01, 215.56 8.1, 222.58 0.03 M203.55 21.92 C207.83 17, 212.1 12.08, 222.58 0.03 M209.19 21.52 C213.1 17.03, 217 12.54, 228.22 -0.36 M209.19 21.52 C216.59 13.01, 223.99 4.5, 228.22 -0.36 M214.18 21.88 C221.02 14.01, 227.86 6.14, 233.21 0 M214.18 21.88 C220.38 14.75, 226.59 7.61, 233.21 0 M219.82 21.49 C224.17 16.49, 228.52 11.49, 238.19 0.36 M219.82 21.49 C223.56 17.19, 227.29 12.9, 238.19 0.36 M224.81 21.85 C230.24 15.61, 235.66 9.36, 243.84 -0.04 M224.81 21.85 C229.85 16.05, 234.9 10.24, 243.84 -0.04 M230.45 21.45 C236.11 14.95, 241.76 8.44, 248.82 0.32 M230.45 21.45 C235.44 15.71, 240.43 9.98, 248.82 0.32 M235.44 21.81 C239.68 16.94, 243.92 12.06, 254.47 -0.07 M235.44 21.81 C241.82 14.48, 248.2 7.14, 254.47 -0.07 M241.08 21.42 C245.26 16.62, 249.43 11.82, 259.45 0.29 M241.08 21.42 C247.68 13.83, 254.28 6.24, 259.45 0.29 M246.07 21.78 C252.19 14.74, 258.31 7.7, 263.13 2.16 M246.07 21.78 C250.74 16.41, 255.4 11.04, 263.13 2.16 M251.06 22.14 C254.12 18.62, 257.18 15.1, 262.87 8.55 M251.06 22.14 C254.3 18.41, 257.54 14.68, 262.87 8.55 M256.7 21.74 C258.68 19.46, 260.67 17.18, 262.61 14.95 M256.7 21.74 C258.24 19.97, 259.78 18.2, 262.61 14.95 M-0.01 19.82 C-0.01 19.82, -0.01 19.82, -0.01 19.82 M-0.01 19.82 C-0.01 19.82, -0.01 19.82, -0.01 19.82 M6.39 20.08 C4.87 18.76, 3.34 17.43, 0.35 14.83 M6.39 20.08 C4.45 18.4, 2.51 16.71, 0.35 14.83 M12.04 19.69 C9.61 17.58, 7.19 15.48, -0.04 9.19 M12.04 19.69 C9.09 17.13, 6.14 14.56, -0.04 9.19 M18.43 19.95 C13.64 15.78, 8.84 11.61, 0.32 4.2 M18.43 19.95 C12.57 14.86, 6.71 9.76, 0.32 4.2 M24.08 19.56 C16.58 13.04, 9.08 6.52, 0.68 -0.78 M24.08 19.56 C16.25 12.75, 8.42 5.95, 0.68 -0.78 M30.47 19.82 C21.5 12.02, 12.53 4.22, 7.08 -0.52 M30.47 19.82 C21.6 12.1, 12.72 4.38, 7.08 -0.52 M36.87 20.08 C27.85 12.23, 18.82 4.39, 12.72 -0.92 M36.87 20.08 C29 13.23, 21.13 6.39, 12.72 -0.92 M42.51 19.68 C36.05 14.06, 29.58 8.44, 19.12 -0.65 M42.51 19.68 C36.79 14.71, 31.06 9.73, 19.12 -0.65 M48.91 19.94 C41.52 13.52, 34.13 7.1, 24.76 -1.05 M48.91 19.94 C42.97 14.78, 37.02 9.61, 24.76 -1.05 M54.56 19.55 C48.3 14.11, 42.04 8.67, 31.16 -0.79 M54.56 19.55 C47.09 13.06, 39.63 6.58, 31.16 -0.79 M60.95 19.81 C53.48 13.31, 46 6.81, 37.56 -0.53 M60.95 19.81 C52.38 12.36, 43.8 4.9, 37.56 -0.53 M67.35 20.07 C59.21 13, 51.07 5.92, 43.2 -0.92 M67.35 20.07 C61.43 14.92, 55.5 9.77, 43.2 -0.92 M72.99 19.68 C66.61 14.13, 60.23 8.58, 49.6 -0.66 M72.99 19.68 C68.27 15.57, 63.54 11.46, 49.6 -0.66 M79.39 19.94 C71.64 13.2, 63.88 6.45, 55.24 -1.05 M79.39 19.94 C71.88 13.41, 64.37 6.88, 55.24 -1.05 M85.04 19.55 C78.49 13.85, 71.93 8.16, 61.64 -0.79 M85.04 19.55 C77.74 13.21, 70.45 6.86, 61.64 -0.79 M91.43 19.81 C84.11 13.44, 76.79 7.08, 68.04 -0.53 M91.43 19.81 C85.66 14.79, 79.89 9.78, 68.04 -0.53 M97.83 20.07 C90.29 13.52, 82.76 6.97, 73.68 -0.93 M97.83 20.07 C90.63 13.81, 83.43 7.55, 73.68 -0.93 M103.47 19.67 C97.37 14.37, 91.27 9.06, 80.08 -0.66 M103.47 19.67 C98.17 15.06, 92.87 10.45, 80.08 -0.66 M109.87 19.94 C100.31 11.62, 90.74 3.3, 85.72 -1.06 M109.87 19.94 C104.85 15.57, 99.84 11.21, 85.72 -1.06 M115.51 19.54 C106.85 12.01, 98.18 4.47, 92.12 -0.8 M115.51 19.54 C109.21 14.06, 102.9 8.58, 92.12 -0.8 M121.91 19.8 C116.87 15.42, 111.84 11.04, 98.52 -0.54 M121.91 19.8 C114.18 13.08, 106.44 6.36, 98.52 -0.54 M128.31 20.06 C120.99 13.7, 113.67 7.34, 104.16 -0.93 M128.31 20.06 C122.58 15.09, 116.86 10.11, 104.16 -0.93 M133.95 19.67 C126.72 13.38, 119.48 7.09, 110.56 -0.67 M133.95 19.67 C129.26 15.59, 124.57 11.51, 110.56 -0.67 M140.35 19.93 C131.27 12.03, 122.18 4.13, 116.2 -1.06 M140.35 19.93 C134.67 14.99, 128.99 10.05, 116.2 -1.06 M145.99 19.54 C139.58 13.96, 133.17 8.39, 122.6 -0.8 M145.99 19.54 C136.74 11.49, 127.49 3.45, 122.6 -0.8 M152.39 19.8 C143.88 12.39, 135.36 4.99, 129 -0.54 M152.39 19.8 C147.4 15.46, 142.41 11.12, 129 -0.54 M158.79 20.06 C150.07 12.48, 141.34 4.89, 134.64 -0.94 M158.79 20.06 C150.67 13, 142.54 5.93, 134.64 -0.94 M164.43 19.66 C157.5 13.63, 150.56 7.6, 141.04 -0.67 M164.43 19.66 C155.9 12.25, 147.37 4.83, 141.04 -0.67 M170.83 19.93 C164.08 14.06, 157.34 8.19, 146.68 -1.07 M170.83 19.93 C163.86 13.86, 156.88 7.8, 146.68 -1.07 M176.47 19.53 C170.38 14.24, 164.3 8.94, 153.08 -0.81 M176.47 19.53 C168.84 12.89, 161.2 6.25, 153.08 -0.81 M182.87 19.79 C173.68 11.8, 164.48 3.8, 159.48 -0.55 M182.87 19.79 C174.42 12.45, 165.97 5.1, 159.48 -0.55 M189.27 20.05 C179.66 11.7, 170.05 3.35, 165.12 -0.94 M189.27 20.05 C180.11 12.09, 170.95 4.13, 165.12 -0.94 M194.91 19.66 C187.36 13.09, 179.8 6.52, 171.52 -0.68 M194.91 19.66 C187.74 13.42, 180.56 7.19, 171.52 -0.68 M201.31 19.92 C193.87 13.45, 186.43 6.98, 177.16 -1.07 M201.31 19.92 C195.33 14.72, 189.35 9.53, 177.16 -1.07 M206.95 19.53 C198.85 12.48, 190.75 5.44, 183.56 -0.81 M206.95 19.53 C199.44 12.99, 191.92 6.46, 183.56 -0.81 M213.35 19.79 C207.58 14.77, 201.82 9.76, 189.96 -0.55 M213.35 19.79 C206.34 13.69, 199.32 7.59, 189.96 -0.55 M219.75 20.05 C210.18 11.73, 200.61 3.41, 195.6 -0.94 M219.75 20.05 C213.82 14.9, 207.9 9.75, 195.6 -0.94 M225.39 19.65 C217.81 13.06, 210.22 6.47, 202 -0.68 M225.39 19.65 C217.25 12.58, 209.12 5.51, 202 -0.68 M231.79 19.92 C225.45 14.41, 219.12 8.9, 207.64 -1.08 M231.79 19.92 C223.03 12.3, 214.28 4.69, 207.64 -1.08 M237.43 19.52 C230.21 13.24, 222.98 6.96, 214.04 -0.82 M237.43 19.52 C231.64 14.49, 225.85 9.46, 214.04 -0.82 M243.83 19.78 C234.7 11.84, 225.56 3.9, 220.43 -0.56 M243.83 19.78 C239.13 15.7, 234.44 11.62, 220.43 -0.56 M250.23 20.04 C244.8 15.33, 239.38 10.61, 226.08 -0.95 M250.23 20.04 C243.03 13.78, 235.82 7.52, 226.08 -0.95 M255.87 19.65 C249.26 13.9, 242.65 8.15, 232.48 -0.69 M255.87 19.65 C248.12 12.91, 240.38 6.18, 232.48 -0.69 M260.76 18.6 C252.8 11.68, 244.84 4.76, 238.12 -1.08 M260.76 18.6 C255.25 13.81, 249.74 9.02, 238.12 -1.08 M261.12 13.61 C256.19 9.32, 251.25 5.04, 244.52 -0.82 M261.12 13.61 C254.99 8.29, 248.87 2.96, 244.52 -0.82 M260.73 7.97 C258.51 6.04, 256.29 4.11, 250.91 -0.56 M260.73 7.97 C258.08 5.67, 255.43 3.36, 250.91 -0.56 M261.09 2.98 C259.96 2, 258.84 1.03, 256.56 -0.95 M261.09 2.98 C259.4 1.51, 257.71 0.04, 256.56 -0.95" stroke="#fab005" stroke-width="0.5" fill="none"></path><path d="M0 0 C53.68 0, 107.36 0, 260 0 M0 0 C78.15 0, 156.29 0, 260 0 M260 0 C260 6.34, 260 12.67, 260 19.83 M260 0 C260 4.18, 260 8.37, 260 19.83 M260 19.83 C175.95 19.83, 91.89 19.83, 0 19.83 M260 19.83 C195.85 19.83, 131.71 19.83, 0 19.83 M0 19.83 C0 12.86, 0 5.9, 0 0 M0 19.83 C0 13.16, 0 6.5, 0 0" stroke="#000000" stroke-width="1" fill="none"></path></g><g stroke-linecap="round" transform="translate(30 250.0000000000001) rotate(0 149.5 9.91306365966409)"><path d="M0 0 C0 0, 0 0, 0 0 M0 0 C0 0, 0 0, 0 0 M-0.26 6.4 C1.3 4.6, 2.87 2.8, 4.99 0.36 M-0.26 6.4 C1.27 4.63, 2.81 2.87, 4.99 0.36 M0.13 12.04 C2.89 8.86, 5.66 5.69, 10.63 -0.03 M0.13 12.04 C4.24 7.31, 8.35 2.59, 10.63 -0.03 M-0.13 18.44 C4.99 12.55, 10.11 6.66, 15.62 0.33 M-0.13 18.44 C5.73 11.7, 11.58 4.97, 15.62 0.33 M2.23 21.82 C7.19 16.12, 12.15 10.41, 21.26 -0.07 M2.23 21.82 C8.38 14.75, 14.53 7.67, 21.26 -0.07 M7.88 21.42 C11.98 16.7, 16.09 11.97, 26.25 0.29 M7.88 21.42 C15.01 13.22, 22.15 5.01, 26.25 0.29 M12.86 21.78 C20.16 13.39, 27.46 5, 31.89 -0.1 M12.86 21.78 C19.08 14.64, 25.29 7.49, 31.89 -0.1 M17.85 22.14 C24.74 14.22, 31.63 6.29, 36.88 0.26 M17.85 22.14 C23.09 16.12, 28.33 10.09, 36.88 0.26 M23.49 21.75 C28.67 15.79, 33.85 9.84, 42.52 -0.14 M23.49 21.75 C29.45 14.9, 35.41 8.04, 42.52 -0.14 M28.48 22.11 C35.2 14.38, 41.91 6.66, 47.51 0.22 M28.48 22.11 C32.71 17.25, 36.94 12.38, 47.51 0.22 M34.12 21.71 C38.12 17.12, 42.12 12.52, 53.15 -0.17 M34.12 21.71 C38.89 16.23, 43.66 10.75, 53.15 -0.17 M39.11 22.07 C43.9 16.57, 48.68 11.07, 58.14 0.19 M39.11 22.07 C44.34 16.06, 49.57 10.05, 58.14 0.19 M44.75 21.68 C50.94 14.56, 57.13 7.44, 63.78 -0.21 M44.75 21.68 C51.65 13.74, 58.55 5.81, 63.78 -0.21 M49.74 22.04 C56.54 14.22, 63.34 6.39, 68.77 0.15 M49.74 22.04 C56.12 14.7, 62.5 7.37, 68.77 0.15 M55.38 21.65 C62.79 13.13, 70.19 4.62, 74.41 -0.24 M55.38 21.65 C61.66 14.43, 67.93 7.22, 74.41 -0.24 M60.37 22.01 C64.44 17.32, 68.52 12.64, 79.4 0.12 M60.37 22.01 C67.25 14.09, 74.13 6.17, 79.4 0.12 M66.02 21.61 C70.13 16.87, 74.25 12.14, 85.04 -0.28 M66.02 21.61 C71.49 15.31, 76.97 9, 85.04 -0.28 M71 21.97 C74.96 17.41, 78.93 12.86, 90.03 0.08 M71 21.97 C78.02 13.9, 85.04 5.83, 90.03 0.08 M76.65 21.58 C81.71 15.74, 86.78 9.91, 95.67 -0.31 M76.65 21.58 C81.03 16.53, 85.41 11.49, 95.67 -0.31 M81.63 21.94 C88.69 13.82, 95.74 5.7, 100.66 0.05 M81.63 21.94 C85.96 16.96, 90.28 11.98, 100.66 0.05 M87.28 21.54 C91.87 16.25, 96.47 10.97, 106.3 -0.34 M87.28 21.54 C91.19 17.04, 95.1 12.54, 106.3 -0.34 M92.26 21.9 C99.42 13.66, 106.59 5.42, 111.29 0.02 M92.26 21.9 C97.29 16.11, 102.33 10.33, 111.29 0.02 M97.91 21.51 C103.2 15.41, 108.5 9.32, 116.27 0.38 M97.91 21.51 C103.77 14.76, 109.63 8.02, 116.27 0.38 M102.89 21.87 C109.42 14.36, 115.95 6.85, 121.92 -0.02 M102.89 21.87 C107.9 16.1, 112.91 10.34, 121.92 -0.02 M108.54 21.47 C115.82 13.09, 123.11 4.7, 126.91 0.34 M108.54 21.47 C114.63 14.46, 120.73 7.44, 126.91 0.34 M113.52 21.83 C117.96 16.73, 122.39 11.63, 132.55 -0.05 M113.52 21.83 C118.54 16.06, 123.55 10.3, 132.55 -0.05 M119.17 21.44 C122.86 17.19, 126.55 12.95, 137.54 0.31 M119.17 21.44 C123.98 15.9, 128.8 10.36, 137.54 0.31 M124.15 21.8 C128.95 16.28, 133.74 10.77, 143.18 -0.09 M124.15 21.8 C131.02 13.9, 137.88 6, 143.18 -0.09 M129.14 22.16 C136.33 13.88, 143.53 5.6, 148.17 0.27 M129.14 22.16 C136.44 13.76, 143.73 5.37, 148.17 0.27 M134.78 21.76 C139.53 16.31, 144.27 10.85, 153.81 -0.12 M134.78 21.76 C140.63 15.04, 146.48 8.31, 153.81 -0.12 M139.77 22.12 C144.53 16.65, 149.29 11.18, 158.8 0.24 M139.77 22.12 C144.07 17.17, 148.37 12.23, 158.8 0.24 M145.41 21.73 C151.47 14.76, 157.53 7.79, 164.44 -0.16 M145.41 21.73 C151.34 14.91, 157.26 8.09, 164.44 -0.16 M150.4 22.09 C157.66 13.73, 164.93 5.38, 169.43 0.2 M150.4 22.09 C157.56 13.85, 164.73 5.61, 169.43 0.2 M156.04 21.69 C163.58 13.02, 171.12 4.35, 175.07 -0.19 M156.04 21.69 C160.56 16.5, 165.08 11.3, 175.07 -0.19 M161.03 22.05 C168.3 13.69, 175.57 5.33, 180.06 0.17 M161.03 22.05 C166.3 15.99, 171.58 9.92, 180.06 0.17 M166.67 21.66 C171.69 15.89, 176.7 10.13, 185.7 -0.23 M166.67 21.66 C170.6 17.14, 174.53 12.62, 185.7 -0.23 M171.66 22.02 C177.44 15.37, 183.22 8.72, 190.69 0.13 M171.66 22.02 C175.99 17.04, 180.31 12.07, 190.69 0.13 M177.3 21.63 C183.86 14.08, 190.42 6.53, 196.33 -0.26 M177.3 21.63 C184.82 12.97, 192.35 4.32, 196.33 -0.26 M182.29 21.99 C186.92 16.66, 191.54 11.34, 201.32 0.1 M182.29 21.99 C189.56 13.62, 196.83 5.26, 201.32 0.1 M187.93 21.59 C193.8 14.84, 199.67 8.09, 206.96 -0.3 M187.93 21.59 C192.45 16.4, 196.97 11.2, 206.96 -0.3 M192.92 21.95 C199.39 14.5, 205.87 7.06, 211.95 0.06 M192.92 21.95 C199.63 14.23, 206.34 6.52, 211.95 0.06 M198.56 21.56 C203.63 15.73, 208.69 9.9, 217.59 -0.33 M198.56 21.56 C202.79 16.69, 207.02 11.83, 217.59 -0.33 M203.55 21.92 C210.76 13.62, 217.97 5.32, 222.58 0.03 M203.55 21.92 C207.48 17.39, 211.42 12.86, 222.58 0.03 M209.19 21.52 C216.31 13.33, 223.43 5.14, 228.22 -0.36 M209.19 21.52 C214.82 15.05, 220.44 8.59, 228.22 -0.36 M214.18 21.88 C221.55 13.41, 228.91 4.93, 233.21 0 M214.18 21.88 C219.29 16.01, 224.4 10.13, 233.21 0 M219.82 21.49 C224.08 16.59, 228.33 11.7, 238.19 0.36 M219.82 21.49 C224.59 16, 229.36 10.52, 238.19 0.36 M224.81 21.85 C229.3 16.68, 233.79 11.51, 243.84 -0.04 M224.81 21.85 C230.86 14.89, 236.91 7.93, 243.84 -0.04 M230.45 21.45 C235.63 15.5, 240.81 9.54, 248.82 0.32 M230.45 21.45 C237.29 13.59, 244.13 5.72, 248.82 0.32 M235.44 21.81 C240.02 16.54, 244.6 11.27, 254.47 -0.07 M235.44 21.81 C242.89 13.24, 250.34 4.67, 254.47 -0.07 M241.08 21.42 C244.98 16.94, 248.88 12.46, 259.45 0.29 M241.08 21.42 C247.49 14.05, 253.89 6.68, 259.45 0.29 M246.07 21.78 C252.93 13.89, 259.78 6.01, 265.1 -0.11 M246.07 21.78 C253.34 13.42, 260.61 5.06, 265.1 -0.11 M251.06 22.14 C257.77 14.42, 264.48 6.7, 270.08 0.25 M251.06 22.14 C257.89 14.28, 264.72 6.42, 270.08 0.25 M256.7 21.74 C264.26 13.05, 271.81 4.36, 275.73 -0.14 M256.7 21.74 C261.23 16.53, 265.77 11.32, 275.73 -0.14 M261.69 22.1 C266.99 16.01, 272.29 9.91, 280.71 0.22 M261.69 22.1 C266.08 17.05, 270.48 11.99, 280.71 0.22 M267.33 21.71 C274.9 13, 282.47 4.3, 286.36 -0.18 M267.33 21.71 C274.28 13.71, 281.23 5.72, 286.36 -0.18 M272.32 22.07 C276.27 17.52, 280.23 12.97, 291.34 0.18 M272.32 22.07 C277.03 16.65, 281.74 11.24, 291.34 0.18 M277.96 21.68 C282.76 16.15, 287.56 10.63, 296.99 -0.21 M277.96 21.68 C282.24 16.76, 286.52 11.83, 296.99 -0.21 M282.95 22.04 C286.53 17.91, 290.12 13.79, 300.66 1.66 M282.95 22.04 C289.11 14.94, 295.28 7.85, 300.66 1.66 M288.59 21.64 C292.26 17.42, 295.94 13.19, 301.06 7.3 M288.59 21.64 C292.76 16.85, 296.93 12.05, 301.06 7.3 M293.58 22 C296.23 18.94, 298.89 15.89, 300.79 13.7 M293.58 22 C295.95 19.27, 298.32 16.54, 300.79 13.7 M-0.01 19.82 C-0.01 19.82, -0.01 19.82, -0.01 19.82 M-0.01 19.82 C-0.01 19.82, -0.01 19.82, -0.01 19.82 M6.39 20.08 C4.86 18.75, 3.32 17.41, 0.35 14.83 M6.39 20.08 C4.94 18.82, 3.48 17.55, 0.35 14.83 M12.04 19.69 C8.45 16.57, 4.86 13.45, -0.04 9.19 M12.04 19.69 C8.95 17.01, 5.87 14.33, -0.04 9.19 M18.43 19.95 C13.82 15.94, 9.2 11.93, 0.32 4.2 M18.43 19.95 C11.29 13.74, 4.15 7.54, 0.32 4.2 M24.08 19.56 C16.04 12.57, 8 5.58, 0.68 -0.78 M24.08 19.56 C15.11 11.76, 6.14 3.96, 0.68 -0.78 M30.47 19.82 C25.65 15.63, 20.83 11.44, 7.08 -0.52 M30.47 19.82 C22.24 12.66, 14.01 5.5, 7.08 -0.52 M36.87 20.08 C28.4 12.71, 19.93 5.35, 12.72 -0.92 M36.87 20.08 C27.34 11.79, 17.8 3.5, 12.72 -0.92 M42.51 19.68 C33.42 11.77, 24.32 3.86, 19.12 -0.65 M42.51 19.68 C34.67 12.86, 26.82 6.04, 19.12 -0.65 M48.91 19.94 C42.35 14.24, 35.79 8.54, 24.76 -1.05 M48.91 19.94 C41.95 13.89, 34.99 7.84, 24.76 -1.05 M54.56 19.55 C46.88 12.88, 39.21 6.21, 31.16 -0.79 M54.56 19.55 C49.37 15.05, 44.19 10.54, 31.16 -0.79 M60.95 19.81 C53.88 13.66, 46.81 7.51, 37.56 -0.53 M60.95 19.81 C53.49 13.32, 46.02 6.83, 37.56 -0.53 M67.35 20.07 C57.89 11.85, 48.44 3.63, 43.2 -0.92 M67.35 20.07 C59.05 12.86, 50.75 5.64, 43.2 -0.92 M72.99 19.68 C66.37 13.92, 59.75 8.17, 49.6 -0.66 M72.99 19.68 C63.67 11.57, 54.34 3.46, 49.6 -0.66 M79.39 19.94 C69.93 11.72, 60.47 3.5, 55.24 -1.05 M79.39 19.94 C72.36 13.82, 65.32 7.71, 55.24 -1.05 M85.04 19.55 C78.07 13.49, 71.11 7.44, 61.64 -0.79 M85.04 19.55 C78.14 13.55, 71.24 7.56, 61.64 -0.79 M91.43 19.81 C82.45 12, 73.47 4.19, 68.04 -0.53 M91.43 19.81 C84.17 13.49, 76.91 7.18, 68.04 -0.53 M97.83 20.07 C91.22 14.32, 84.61 8.58, 73.68 -0.93 M97.83 20.07 C92.25 15.22, 86.67 10.37, 73.68 -0.93 M103.47 19.67 C97.21 14.22, 90.94 8.77, 80.08 -0.66 M103.47 19.67 C96.39 13.51, 89.3 7.35, 80.08 -0.66 M109.87 19.94 C100.63 11.9, 91.39 3.87, 85.72 -1.06 M109.87 19.94 C102.92 13.89, 95.96 7.84, 85.72 -1.06 M115.51 19.54 C106.46 11.67, 97.41 3.8, 92.12 -0.8 M115.51 19.54 C110.2 14.92, 104.89 10.3, 92.12 -0.8 M121.91 19.8 C116.3 14.93, 110.69 10.05, 98.52 -0.54 M121.91 19.8 C117.19 15.7, 112.47 11.59, 98.52 -0.54 M128.31 20.06 C120.39 13.18, 112.47 6.29, 104.16 -0.93 M128.31 20.06 C121.12 13.82, 113.94 7.57, 104.16 -0.93 M133.95 19.67 C126.85 13.49, 119.74 7.31, 110.56 -0.67 M133.95 19.67 C125.4 12.24, 116.86 4.81, 110.56 -0.67 M140.35 19.93 C132.58 13.17, 124.81 6.42, 116.2 -1.06 M140.35 19.93 C131.05 11.85, 121.75 3.76, 116.2 -1.06 M145.99 19.54 C139.51 13.9, 133.02 8.26, 122.6 -0.8 M145.99 19.54 C140.67 14.91, 135.35 10.28, 122.6 -0.8 M152.39 19.8 C146.71 14.86, 141.02 9.91, 129 -0.54 M152.39 19.8 C147.32 15.39, 142.25 10.98, 129 -0.54 M158.79 20.06 C151.38 13.62, 143.97 7.18, 134.64 -0.94 M158.79 20.06 C151.71 13.9, 144.62 7.74, 134.64 -0.94 M164.43 19.66 C159.53 15.4, 154.62 11.14, 141.04 -0.67 M164.43 19.66 C155.64 12.02, 146.85 4.38, 141.04 -0.67 M170.83 19.93 C161.59 11.9, 152.36 3.87, 146.68 -1.07 M170.83 19.93 C163 13.12, 155.17 6.31, 146.68 -1.07 M176.47 19.53 C167.49 11.72, 158.51 3.92, 153.08 -0.81 M176.47 19.53 C169.41 13.39, 162.35 7.25, 153.08 -0.81 M182.87 19.79 C174.96 12.92, 167.06 6.04, 159.48 -0.55 M182.87 19.79 C174.96 12.92, 167.05 6.04, 159.48 -0.55 M189.27 20.05 C180.3 12.26, 171.33 4.46, 165.12 -0.94 M189.27 20.05 C182.25 13.95, 175.23 7.85, 165.12 -0.94 M194.91 19.66 C189.04 14.55, 183.16 9.44, 171.52 -0.68 M194.91 19.66 C190.03 15.42, 185.15 11.17, 171.52 -0.68 M201.31 19.92 C195.95 15.26, 190.59 10.6, 177.16 -1.07 M201.31 19.92 C194.2 13.74, 187.1 7.56, 177.16 -1.07 M206.95 19.53 C201.26 14.58, 195.56 9.63, 183.56 -0.81 M206.95 19.53 C200.73 14.11, 194.5 8.7, 183.56 -0.81 M213.35 19.79 C208.01 15.14, 202.66 10.5, 189.96 -0.55 M213.35 19.79 C205.84 13.26, 198.33 6.73, 189.96 -0.55 M219.75 20.05 C212.99 14.18, 206.24 8.3, 195.6 -0.94 M219.75 20.05 C212.58 13.81, 205.4 7.58, 195.6 -0.94 M225.39 19.65 C217.72 12.98, 210.04 6.31, 202 -0.68 M225.39 19.65 C219.88 14.87, 214.37 10.08, 202 -0.68 M231.79 19.92 C222.88 12.17, 213.96 4.42, 207.64 -1.08 M231.79 19.92 C223.48 12.7, 215.18 5.48, 207.64 -1.08 M237.43 19.52 C230.38 13.39, 223.32 7.26, 214.04 -0.82 M237.43 19.52 C229.05 12.23, 220.66 4.94, 214.04 -0.82 M243.83 19.78 C235.31 12.38, 226.79 4.97, 220.43 -0.56 M243.83 19.78 C236.68 13.56, 229.52 7.34, 220.43 -0.56 M250.23 20.04 C241.21 12.2, 232.19 4.36, 226.08 -0.95 M250.23 20.04 C243.79 14.44, 237.34 8.84, 226.08 -0.95 M255.87 19.65 C247.42 12.3, 238.97 4.96, 232.48 -0.69 M255.87 19.65 C247.97 12.78, 240.06 5.91, 232.48 -0.69 M262.27 19.91 C257.15 15.46, 252.03 11.01, 238.12 -1.08 M262.27 19.91 C252.75 11.64, 243.24 3.37, 238.12 -1.08 M267.91 19.52 C260.88 13.41, 253.85 7.29, 244.52 -0.82 M267.91 19.52 C262.03 14.4, 256.15 9.29, 244.52 -0.82 M274.31 19.78 C266.61 13.08, 258.91 6.39, 250.91 -0.56 M274.31 19.78 C268.94 15.11, 263.56 10.44, 250.91 -0.56 M280.71 20.04 C271.87 12.36, 263.04 4.68, 256.56 -0.95 M280.71 20.04 C273.12 13.44, 265.53 6.84, 256.56 -0.95 M286.35 19.64 C279.78 13.93, 273.21 8.22, 262.96 -0.69 M286.35 19.64 C278.88 13.15, 271.4 6.65, 262.96 -0.69 M292.75 19.91 C283.45 11.83, 274.16 3.75, 268.6 -1.09 M292.75 19.91 C286.7 14.65, 280.66 9.4, 268.6 -1.09 M298.39 19.51 C292.16 14.09, 285.93 8.68, 275 -0.83 M298.39 19.51 C292.18 14.11, 285.97 8.71, 275 -0.83 M301.77 17.15 C297.1 13.09, 292.44 9.04, 281.39 -0.56 M301.77 17.15 C296.89 12.9, 292 8.66, 281.39 -0.56 M301.38 11.51 C296.66 7.4, 291.94 3.3, 287.04 -0.96 M301.38 11.51 C296.7 7.44, 292.03 3.38, 287.04 -0.96 M301.74 6.52 C299.96 4.98, 298.19 3.44, 293.43 -0.7 M301.74 6.52 C299.09 4.22, 296.44 1.92, 293.43 -0.7" stroke="#fab005" stroke-width="0.5" fill="none"></path><path d="M0 0 C83.29 0, 166.59 0, 299 0 M0 0 C106.41 0, 212.83 0, 299 0 M299 0 C299 4.09, 299 8.17, 299 19.83 M299 0 C299 5.8, 299 11.61, 299 19.83 M299 19.83 C208.44 19.83, 117.88 19.83, 0 19.83 M299 19.83 C185.81 19.83, 72.61 19.83, 0 19.83 M0 19.83 C0 15.48, 0 11.14, 0 0 M0 19.83 C0 14.42, 0 9, 0 0" stroke="#000000" stroke-width="1" fill="none"></path></g><g transform="translate(430 510.0000000000001) rotate(0 67.5 12.5)"><text x="0" y="18" font-family="Virgil, Segoe UI Emoji" font-size="20px" fill="#000000" text-anchor="start" style="white-space: pre;" direction="ltr">SectionFooter</text></g><g transform="translate(450 410.0000000000001) rotate(0 56.5 12.5)"><text x="0" y="18" font-family="Virgil, Segoe UI Emoji" font-size="20px" fill="#000000" text-anchor="start" style="white-space: pre;" direction="ltr">PageFooter</text></g><g stroke-linecap="round"><g transform="translate(332.05798135450004 430.2142044193049) rotate(0 53.407018011816945 -1.9466052761940773)"><path d="M-2.49 0.71 C16.07 0.37, 90.59 -4.16, 109.31 -4.61 M1.35 -1.37 C19.65 -1.15, 88.87 -0.98, 106.61 -1.92" stroke="#495057" stroke-width="2" fill="none"></path></g><g transform="translate(332.05798135450004 430.2142044193049) rotate(0 53.407018011816945 -1.9466052761940773)"><path d="M79.67 7.74 C82.69 6.47, 92.78 2.43, 105.03 2.07 M79.95 10.88 C88.66 4.69, 98.64 2.56, 105.76 -0.95" stroke="#495057" stroke-width="2" fill="none"></path></g><g transform="translate(332.05798135450004 430.2142044193049) rotate(0 53.407018011816945 -1.9466052761940773)"><path d="M79.23 -12.78 C81.98 -9.39, 92.16 -8.78, 105.03 2.07 M79.51 -9.64 C88.06 -7.95, 98.2 -2.22, 105.76 -0.95" stroke="#495057" stroke-width="2" fill="none"></path></g></g><g stroke-linecap="round"><g transform="translate(332.0579813545005 532.0414931783888) rotate(0 42.95920628843692 -2.341224851098673)"><path d="M1.92 -1.04 C16.59 -1.39, 72.52 0.52, 86.41 -0.03 M-0.49 -4.07 C14.03 -5.42, 70.6 -4.37, 84.55 -4.15" stroke="#495057" stroke-width="2" fill="none"></path></g><g transform="translate(332.0579813545005 532.0414931783888) rotate(0 42.95920628843692 -2.341224851098673)"><path d="M54.71 6.67 C65.25 2.28, 65.87 0.52, 88.13 -2.49 M54.26 5.68 C65.07 1.77, 72.69 -2.48, 84.41 -5.12" stroke="#495057" stroke-width="2" fill="none"></path></g><g transform="translate(332.0579813545005 532.0414931783888) rotate(0 42.95920628843692 -2.341224851098673)"><path d="M55.03 -13.84 C65.79 -13.28, 66.34 -10.1, 88.13 -2.49 M54.58 -14.84 C65.44 -12.12, 72.95 -9.74, 84.41 -5.12" stroke="#495057" stroke-width="2" fill="none"></path></g></g></svg>